<?xml version="1.0" encoding="UTF-8" standalone="no"?>
<!DOCTYPE svg PUBLIC "-//W3C//DTD SVG 1.1//EN"
 "http://www.w3.org/Graphics/SVG/1.1/DTD/svg11.dtd">
<!-- Generated by graphviz version 8.0.1 (0)
 -->
<!-- Title: G Pages: 1 -->
<svg width="370pt" height="188pt"
 viewBox="0.00 0.00 370.28 188.00" xmlns="http://www.w3.org/2000/svg" xmlns:xlink="http://www.w3.org/1999/xlink">
<g id="graph0" class="graph" transform="scale(1 1) rotate(0) translate(4 184)">
<title>G</title>
<polygon fill="white" stroke="none" points="-4,4 -4,-184 366.28,-184 366.28,4 -4,4"/>
<!-- vido -->
<g id="node1" class="node">
<title>vido</title>
<ellipse fill="none" stroke="black" cx="163.43" cy="-162" rx="30.59" ry="18"/>
<text text-anchor="middle" x="163.43" y="-158.3" font-family="Times,serif" font-size="14.00">vido</text>
</g>
<!-- data_api -->
<g id="node2" class="node">
<title>data_api</title>
<ellipse fill="none" stroke="black" cx="85.43" cy="-18" rx="50.09" ry="18"/>
<text text-anchor="middle" x="85.43" y="-14.3" font-family="Times,serif" font-size="14.00">data_api</text>
</g>
<!-- vido&#45;&gt;data_api -->
<g id="edge1" class="edge">
<title>vido&#45;&gt;data_api</title>
<path fill="none" stroke="black" d="M132.49,-160.57C95.54,-158.19 35.12,-147.96 6.43,-108 -2.9,-95 -1.09,-86.12 6.43,-72 14.47,-56.94 28.89,-45.4 43.24,-36.99"/>
<polygon fill="black" stroke="black" points="44.47,-39.76 51.59,-31.92 41.13,-33.61 44.47,-39.76"/>
</g>
<!-- elasa_search -->
<g id="node3" class="node">
<title>elasa_search</title>
<ellipse fill="none" stroke="black" cx="85.43" cy="-90" rx="69.59" ry="18"/>
<text text-anchor="middle" x="85.43" y="-86.3" font-family="Times,serif" font-size="14.00">elasa_search</text>
</g>
<!-- vido&#45;&gt;elasa_search -->
<g id="edge2" class="edge">
<title>vido&#45;&gt;elasa_search</title>
<path fill="none" stroke="black" d="M147.27,-146.5C137.15,-137.41 123.85,-125.48 112.18,-115"/>
<polygon fill="black" stroke="black" points="114.82,-112.77 105.04,-108.7 110.15,-117.98 114.82,-112.77"/>
</g>
<!-- elasa_export -->
<g id="node4" class="node">
<title>elasa_export</title>
<ellipse fill="none" stroke="black" cx="242.43" cy="-90" rx="69.59" ry="18"/>
<text text-anchor="middle" x="242.43" y="-86.3" font-family="Times,serif" font-size="14.00">elasa_export</text>
</g>
<!-- vido&#45;&gt;elasa_export -->
<g id="edge4" class="edge">
<title>vido&#45;&gt;elasa_export</title>
<path fill="none" stroke="black" d="M179.8,-146.5C190.16,-137.32 203.79,-125.24 215.69,-114.7"/>
<polygon fill="black" stroke="black" points="217.43,-117.95 222.59,-108.7 212.78,-112.71 217.43,-117.95"/>
</g>
<!-- qr_shortener -->
<g id="node5" class="node">
<title>qr_shortener</title>
<ellipse fill="none" stroke="black" cx="291.43" cy="-18" rx="70.69" ry="18"/>
<text text-anchor="middle" x="291.43" y="-14.3" font-family="Times,serif" font-size="14.00">qr_shortener</text>
</g>
<!-- vido&#45;&gt;qr_shortener -->
<g id="edge6" class="edge">
<title>vido&#45;&gt;qr_shortener</title>
<path fill="none" stroke="black" d="M194.24,-160.65C231.4,-158.38 292.46,-148.28 321.43,-108 334.96,-89.2 324.25,-63.87 312.03,-45.04"/>
<polygon fill="black" stroke="black" points="314.4,-43.33 305.81,-37.12 308.65,-47.33 314.4,-43.33"/>
</g>
<!-- elasa_search&#45;&gt;data_api -->
<g id="edge3" class="edge">
<title>elasa_search&#45;&gt;data_api</title>
<path fill="none" stroke="black" d="M85.43,-71.7C85.43,-64.24 85.43,-55.32 85.43,-46.97"/>
<polygon fill="black" stroke="black" points="88.94,-47.1 85.43,-37.1 81.94,-47.1 88.94,-47.1"/>
</g>
<!-- elasa_export&#45;&gt;data_api -->
<g id="edge5" class="edge">
<title>elasa_export&#45;&gt;data_api</title>
<path fill="none" stroke="black" d="M208.75,-73.98C184.49,-63.17 151.64,-48.52 125.95,-37.06"/>
<polygon fill="black" stroke="black" points="127.69,-33.56 117.13,-32.69 124.84,-39.96 127.69,-33.56"/>
</g>
<!-- elasa_export&#45;&gt;qr_shortener -->
<g id="edge7" class="edge">
<title>elasa_export&#45;&gt;qr_shortener</title>
<path fill="none" stroke="black" d="M254.3,-72.05C260.07,-63.8 267.14,-53.7 273.56,-44.54"/>
<polygon fill="black" stroke="black" points="276.82,-46.99 279.68,-36.79 271.08,-42.97 276.82,-46.99"/>
</g>
</g>
</svg>
