<svg xmlns="http://www.w3.org/2000/svg" width="11" height="10" viewBox="0 0 11 10"><g fill="#4d4d4d"><path d="M10.336 9.434H8.754c-.043 0-.074-.028-.074-.067V8.043c0-.031.023-.063.058-.066.117-.02.235-.047.352-.082 1.473-.43 3.828-2.028-.883-7.895-4.7 5.848-2.371 7.453-.898 7.89a3.7 3.7 0 00.359.087.068.068 0 01.062.066v1.324c0 .04-.035.067-.074.067H3.102a.073.073 0 01-.055-.02c-.016-.012-.02-.031-.02-.047l.004-.691a.094.094 0 01.016-.078.112.112 0 01.078-.036h.816c.532 0 1.247-.296 1.247-.93v-.085c0-.05-.043-.09-.098-.09H2.969c-.055 0-.098-.039-.098-.09v-.91c0-.047.043-.09.098-.09h.406c.25 0 .457-.187.457-.422 0-.047-.043-.086-.098-.086h-.937a.112.112 0 01-.07-.027.086.086 0 01-.028-.066l.008-.649c0-.09.066-.164.164-.18a.2.2 0 01.219.118c.015.039.05.062.094.062h.003c.032 0 .063-.012.079-.035A.091.091 0 003.28 5a.392.392 0 00-.265-.234.44.44 0 00-.356.062.105.105 0 01-.125 0 .446.446 0 00-.36-.062.394.394 0 00-.26.234c-.013.027-.005.055.01.082.02.023.052.035.083.035h.004a.098.098 0 00.093-.062.2.2 0 01.22-.117c.093.015.163.09.163.18l-.004.652c0 .046-.046.09-.097.09h-.895c-.05 0-.097.038-.097.085 0 .235.207.422.46.422h.364c.054 0 .097.043.097.09v.91c0 .051-.043.09-.097.09H.098a.092.092 0 00-.094.09v.086c0 .633.656.93 1.242.93h.875c.031 0 .059.011.078.035.016.023.024.05.016.078l-.02.691c0 .04-.035.067-.074.067H.75c-.172 0-.309.129-.309.285 0 .156.137.281.309.281h9.586c.172 0 .309-.125.309-.281 0-.156-.137-.285-.31-.285zm0 0"/><path d="M1.957 5.297c.25.305.125.394.047.414a.186.186 0 01-.094 0c-.074-.035-.207-.106.047-.414zm1.266 0c.25.305.129.394.05.414a.202.202 0 01-.097 0c-.07-.035-.203-.106.047-.414zm0 0"/></g></svg>