<svg xmlns="http://www.w3.org/2000/svg" viewBox="0 0 151.8 58.9" fill="#fff"><path class="st0" d="M5.4 7.5H1.5v26.9h17.6v-3.8H5.4zm67.2.1h-4V26L54 7.4h-2.2v26.9h3.9V15.9l14.6 18.5h2.3zm39.8 15.7h11.8v-3.8h-11.8v-8.2h13.3V7.6h-17.3v26.7h17.7v-3.7h-13.7zm-13-2.4c0 2.9-1 5.4-2.8 7.2-1.8 1.8-4.2 2.8-6.9 2.8-2.8 0-5.1-.9-6.9-2.5-1.9-1.8-2.8-4.3-2.8-7.5 0-7.4 5-10 9.7-10 5.7 0 9.7 4.2 9.7 10m.1-9.6C97.2 8.5 93.8 7 89.6 7c-3.8 0-7.2 1.3-9.6 3.6-2.6 2.5-4 6.1-4 10.3 0 8.3 5.4 13.9 13.5 13.9 3.9 0 7.5-1.7 9.9-4.4v4h3.9V0h-3.9v11.3zm-56.6 9.6c0 2.6-.9 5-2.5 6.8-1.8 2-4.4 3.1-7.4 3.1-5.6 0-9.7-4.2-9.7-10 0-5.7 4.1-9.9 9.7-9.9 6.8.1 9.9 5.2 9.9 10m-.2-9.6c-2.3-2.7-5.8-4.2-9.7-4.2-3.7 0-7.1 1.4-9.7 3.8-2.6 2.5-4 6.1-4 10 0 7.9 5.9 13.9 13.7 13.9 3.9 0 7.2-1.5 9.7-4.3v3.9h4v-27h-4v3.9zM0 44.6v1h3.4v9.6h1.1v-9.6H8v-1zm14.9 6.7c-.2-1.2-1.1-2.1-2.3-2.1-1.2 0-2.2.9-2.5 2.1h4.8zm-5.9.6c0-2 1.6-3.6 3.6-3.6s3.4 1.6 3.4 3.5v.5h-5.8c.2 1.3 1.2 2.2 2.6 2.2.8 0 1.8-.4 2.4-1l.5.8c-.7.7-1.8 1.2-2.9 1.2-2.2-.1-3.8-1.7-3.8-3.6m10-3.4h1.1v1.2c.6-.8 1.5-1.4 2.8-1.4v1.1h-.1c-1.8 0-2.7 1.1-2.7 2.4v3.5H19v-6.8zm6.8 0h1.1v1.2c.6-.8 1.5-1.4 2.8-1.4v1.1h-.1c-1.8 0-2.7 1.1-2.7 2.4v3.5h-1.1v-6.8zm11.9 2.8c-.2-1.2-1.1-2.1-2.3-2.1-1.2 0-2.2.9-2.5 2.1h4.8zm-5.9.6c0-2 1.6-3.6 3.6-3.6s3.4 1.6 3.4 3.5v.5H33c.2 1.3 1.2 2.2 2.6 2.2.8 0 1.8-.4 2.4-1l.5.8c-.7.7-1.8 1.2-2.9 1.2-2.2-.1-3.8-1.7-3.8-3.6m21.3-.1c0-1.5-1.1-2.6-2.6-2.6-1.4 0-2.5 1.2-2.5 2.6 0 1.4 1.1 2.6 2.5 2.6 1.5.1 2.6-1.1 2.6-2.6m-6.2 0c0-2 1.6-3.6 3.5-3.6 1.1 0 2 .5 2.6 1.3V44h1.1v11.2H53v-1.1c-.6.8-1.5 1.3-2.6 1.3-1.9 0-3.5-1.6-3.5-3.6m16.3-.5c-.2-1.2-1.1-2.1-2.3-2.1-1.2 0-2.2.9-2.5 2.1h4.8zm-5.9.6c0-2 1.6-3.6 3.6-3.6s3.4 1.6 3.4 3.5v.5h-5.8c.2 1.3 1.2 2.2 2.6 2.2.8 0 1.8-.4 2.4-1l.5.8c-.7.7-1.8 1.2-2.9 1.2-2.3-.1-3.8-1.7-3.8-3.6m9.5 2.2l.8-.5c.4.6 1.1.9 2 .9 1 0 1.6-.4 1.6-1 0-.7-.8-1-1.7-1.3-1.2-.5-2.2-.9-2.2-2.1 0-1.1.9-1.8 2.3-1.8 1 0 1.9.4 2.4 1.2l-.8.5c-.3-.5-1-.8-1.6-.8-.8 0-1.2.4-1.2.8 0 .6.7.9 1.6 1.2 1.1.4 2.4.9 2.4 2.2 0 1.3-1.2 2-2.7 2-1.4 0-2.4-.5-2.9-1.3m19.9-2.3c0-1.5-1.1-2.6-2.5-2.6-1.5 0-2.6 1.1-2.6 2.6s1.1 2.6 2.6 2.6c1.5.1 2.5-1.1 2.5-2.6m-6.1-3.3h1.1v1.1c.6-.8 1.5-1.3 2.6-1.3 2 0 3.5 1.6 3.5 3.6 0 1.9-1.6 3.6-3.5 3.6-1.1 0-2-.5-2.6-1.3V59h-1.1V48.5zm16.2 3.3c0-1.5-1.2-2.6-2.6-2.6-1.4 0-2.5 1.2-2.5 2.6 0 1.4 1.2 2.6 2.5 2.6 1.4.1 2.6-1.1 2.6-2.6m-6.2 0c0-2 1.6-3.6 3.6-3.6s3.6 1.6 3.6 3.6-1.6 3.6-3.6 3.6c-1.9 0-3.6-1.6-3.6-3.6m9.9 2.3l.8-.5c.4.6 1.1.9 2 .9 1 0 1.6-.4 1.6-1 0-.7-.8-1-1.7-1.3-1.2-.5-2.2-.9-2.2-2.1 0-1.1.9-1.8 2.3-1.8 1 0 1.9.4 2.4 1.2l-.8.5c-.3-.5-1-.8-1.6-.8-.8 0-1.2.4-1.2.8 0 .6.7.9 1.6 1.2 1.1.4 2.4.9 2.4 2.2 0 1.3-1.2 2-2.7 2-1.4 0-2.4-.5-2.9-1.3m8 0l.8-.5c.4.6 1.1.9 2 .9 1 0 1.6-.4 1.6-1 0-.7-.8-1-1.7-1.3-1.2-.5-2.2-.9-2.2-2.1 0-1.1.9-1.8 2.3-1.8 1 0 1.9.4 2.4 1.2l-.8.5c-.3-.5-1-.8-1.6-.8-.8 0-1.2.4-1.2.8 0 .6.7.9 1.6 1.2 1.1.4 2.4.9 2.4 2.2 0 1.3-1.2 2-2.7 2-1.3 0-2.3-.5-2.9-1.3m8.8-5.6h1.1v6.8h-1.1v-6.8zm-.2-2.7c0-.4.3-.7.7-.7.4 0 .7.3.7.7 0 .4-.3.7-.7.7-.3 0-.7-.3-.7-.7m11.1 6c0-1.5-1.1-2.6-2.5-2.6-1.5 0-2.6 1.1-2.6 2.6s1.1 2.6 2.6 2.6c1.4.1 2.5-1.1 2.5-2.6m-5.1 2.3v1.1H122V44h1.1v5.5c.6-.8 1.5-1.3 2.6-1.3 2 0 3.5 1.6 3.5 3.6s-1.6 3.6-3.5 3.6c-1.1 0-2-.5-2.6-1.3m9.4-10.1h1.1v11.2h-1.1zM142.7 51.3c-.2-1.2-1.1-2.1-2.3-2.1-1.2 0-2.2.9-2.5 2.1h4.8zm-5.9.6c0-2 1.6-3.6 3.6-3.6s3.4 1.6 3.4 3.5v.5H138c.2 1.3 1.2 2.2 2.6 2.2.8 0 1.8-.4 2.4-1l.5.8c-.7.7-1.8 1.2-2.9 1.2-2.2-.1-3.8-1.7-3.8-3.6m9.5 2.2l.8-.5c.4.6 1.1.9 2 .9 1 0 1.6-.4 1.6-1 0-.7-.8-1-1.7-1.3-1.2-.5-2.2-.9-2.2-2.1 0-1.1.9-1.8 2.3-1.8 1 0 1.9.4 2.4 1.2l-.8.5c-.3-.5-1-.8-1.6-.8-.8 0-1.2.4-1.2.8 0 .6.7.9 1.6 1.2 1.1.4 2.4.9 2.4 2.2 0 1.3-1.2 2-2.7 2-1.3 0-2.4-.5-2.9-1.3M134.3 34.3c-.5-.7-.8-1.4-.8-2.4 0-1.2.6-2.2 1.9-3.1.2-.2.4-.3.7-.4-.1.3-.1.7-.1 1 0 1.3.6 3.2 3 4.7.1.1.2.1.3.2h8.5c-3.7-2.1-8.2-2.9-8.2-5 0-2 2.3-2.6 4.2-2.7 2.4-.1 5.1.4 6.3 1.5l1.4-1.8c-2-2-5.3-3.1-10.1-2.9-6.1.2-11.6 3.5-11.5 8.6 0 .8.1 1.6.4 2.3h4zm7-30.5l-.9-.2c-3.6-.6-6.5-1.4-6.8-3.7h-3.9c.2 5.6 5.9 6.6 10.5 7.4 4.6.8 7.8 1.5 7.7 4.4-.1 1.2-.9 4.1-7.2 4.1-3.7 0-7-1.5-8.7-4.1l-3.1 2.5c2.2 3.4 6.6 5.5 11.7 5.5 1.6 0 4.7-.2 7.2-1.5 2.6-1.3 4-3.5 4-6.3.3-6.2-6-7.3-10.5-8.1z"/></svg>