<svg xmlns="http://www.w3.org/2000/svg" width="10" height="6" viewBox="0 0 10 6"><g fill="#4d4d4d"><path d="M2.293.36H1.84V.175c0-.094-.094-.172-.211-.172-.117 0-.211.078-.211.172v.18L.961.351.309 1.719H0v4.277h3.219V1.72H2.96zm-1.328.742h1.328l-.004.632H.957zm0 0M5.684.36H5.23V.175c0-.094-.093-.172-.21-.172-.118 0-.211.078-.211.172v.18L4.352.351l-.653 1.367h-.308v4.277h3.218V1.72h-.257zm-1.329.742h1.329l-.004.632H4.348zm0 0M9.074.36h-.453V.175c0-.094-.094-.172-.21-.172-.118 0-.212.078-.212.172v.18L7.742.351 7.09 1.719H6.78v4.277H10V1.72h-.258zm-1.328.742h1.328l-.004.632H7.738zm0 0"/></g></svg>