<svg xmlns="http://www.w3.org/2000/svg" width="11" height="11" viewBox="0 0 11 11"><g fill="#4d4d4d"><path d="M8.398 5.5A2.897 2.897 0 015.5 8.395 2.897 2.897 0 012.602 5.5 2.897 2.897 0 015.5 2.605 2.897 2.897 0 018.398 5.5zm0 0M2.313 4.035L.573 3.031A5.457 5.457 0 000 5.171h2.008a3.48 3.48 0 01.304-1.136zm0 0M2.64 7.527L.903 8.531c.403.614.93 1.137 1.54 1.547L3.444 8.34a3.61 3.61 0 01-.804-.813zm0 0M2.008 5.824H0c.043.746.238 1.473.574 2.14l1.739-1.003a3.48 3.48 0 01-.305-1.137zm0 0M6.934 2.305L7.94.566A5.54 5.54 0 005.813.004v2.008a3.4 3.4 0 011.12.293zm0 0M3.473 2.64L2.469.907A5.562 5.562 0 00.902 2.465l1.743 1.004c.226-.32.507-.602.828-.828zm0 0M8.992 5.172H11a5.482 5.482 0 00-.57-2.133l-1.742 1c.164.36.269.742.304 1.133zm0 0M5.156 2.016V.008a5.494 5.494 0 00-2.12.57l1.003 1.735c.352-.16.73-.262 1.117-.297zm0 0M5.813 8.988v2.008a5.53 5.53 0 002.156-.574L6.965 8.684c-.363.168-.754.27-1.152.304zm0 0M8.992 5.824c-.035.39-.137.774-.3 1.133l1.738 1c.332-.664.527-1.39.57-2.133zm0 0M7.531 8.355l1.004 1.739a5.54 5.54 0 001.567-1.567L8.363 7.523c-.226.32-.508.602-.832.832zm0 0M8.36 3.473l1.742-1.004A5.576 5.576 0 008.508.89L7.504 2.625c.332.23.621.52.855.848zm0 0M4.012 8.672L3.008 10.41a5.553 5.553 0 002.148.582V8.984a3.416 3.416 0 01-1.144-.312zm0 0"/></g></svg>