<svg xmlns="http://www.w3.org/2000/svg" width="30" height="30"><circle style="isolation:auto;mix-blend-mode:normal;solid-color:#000;solid-opacity:1;marker:none" cx="15" cy="15" r="14.5" color="#000" overflow="visible" fill="#1a3971" fill-rule="evenodd" stroke="#fff"/><g fill="#fff"><path d="M21.457 21.871l-4.816-1.734 4.964-1.727a.58.58 0 00.36-.742.593.593 0 00-.754-.355l-6.316 2.199-6.098-2.196a.598.598 0 00-.762.344.578.578 0 00.352.746l4.758 1.711-4.711 1.64a.576.576 0 00-.36.743c.11.3.446.46.754.352l6.059-2.106 6.164 2.215a.594.594 0 00.761-.344.578.578 0 00-.355-.746zm0 0"/><path d="M13.344 17.906c-.293.29-6.688-1.64-2.508-7.386 0 0 .836 2.46 2.09 2.46.418 0-2.297-3.078 2.926-6.976.234-.176-.692 5.816 1.671 6.976.836.41 0-2.87 0-2.87s3.344 2.05 2.508 4.511c-.836 2.465-3.343 3.285-3.343 3.285s.656-2.726 0-3.695c-.836-1.23-1.88-1.844-1.88-1.844s.208 2.254-1.046 2.664c-1.254.414-2.09-1.23-2.09-1.23-.207 1.437 1.883 3.898 1.672 4.105zm0 0"/></g></svg>