<svg xmlns="http://www.w3.org/2000/svg" width="30" height="30"><circle style="isolation:auto;mix-blend-mode:normal;solid-color:#000;solid-opacity:1;marker:none" cx="15" cy="15" r="14.5" color="#000" overflow="visible" fill="#fff" fill-rule="evenodd" stroke="#1a3971"/><path d="M22.996 16.906l-8.387-4.883-8.363 4.883h2.309l1.218-.48v6.031c0 .3.247.543.551.543.305 0 .551-.242.551-.543v-6.465l3.734-1.476 3.739 1.437v6.504c0 .3.246.543.55.543.305 0 .551-.242.551-.543v-6.078l1.375.527zM6.578 10.79h-.574l1.332-2.375h.574zm1.836 2.414H7.84l1.336-2.379h.574zm9.793 0h-.574l1.332-2.379h.574zm-6.723-2.414h-.574l1.332-2.375h.574zm4.907 0h-.575l1.332-2.375h.575zm4.906 0h-.574l1.332-2.375h.574zM10.289 8.38h-.574L11.047 6h.574zm4.906 0h-.574L15.953 6h.574zm4.907 0h-.575L20.86 6h.575zm0 0" fill="#4d4d4d"/></svg>