<svg xmlns="http://www.w3.org/2000/svg" width="11" height="11" viewBox="0 0 11 11"><path d="M11 7.059l-5.43-3.16-5.414 3.16h1.496l.79-.313v3.902c0 .196.16.352.355.352.2 0 .355-.156.355-.352V6.465l2.418-.953 2.422.93v4.206c0 .196.156.352.356.352a.353.353 0 00.355-.352V6.715l.89.344zM.375 3.102H0l.863-1.54h.371zM1.563 4.66H1.19l.864-1.539h.37zm6.335 0h-.37l.859-1.539h.375zM3.547 3.102h-.371l.863-1.54h.371zm3.176 0h-.371l.863-1.54h.37zm3.175 0h-.37l.859-1.54h.375zM2.773 1.539h-.37L3.265 0h.37zm3.176 0h-.37L6.44 0h.372zm3.176 0h-.371L9.614 0h.374zm0 0" fill="#4d4d4d"/></svg>