<svg xmlns="http://www.w3.org/2000/svg" width="30" height="30"><circle style="isolation:auto;mix-blend-mode:normal;solid-color:#000;solid-opacity:1;marker:none" cx="15" cy="15" r="14.5" color="#000" overflow="visible" fill="#fff" fill-rule="evenodd" stroke="#1a3971"/><path d="M14.5 12.04c.504 0 .914.405.914.905s-.41.907-.914.907a.91.91 0 01-.91-.907c0-.5.41-.906.91-.906zM16.605 23l-.19-.027a.131.131 0 01-.11-.149l1.222-7.836a.125.125 0 01.145-.105l.191.027c.07.012.121.078.11.149l-1.223 7.836a.125.125 0 01-.145.105zm-3.921-9.246a.526.526 0 01.359.656l-.469 1.594a.524.524 0 01-.656.355.52.52 0 01-.36-.652l.465-1.598a.533.533 0 01.66-.355zm4.066 2.52L15.152 16l-.488-1.543a.265.265 0 00-.047-.094.552.552 0 00-1.074-.023l-2.059 7.887a.55.55 0 00.395.671.556.556 0 00.676-.394l1.18-4.516 1.128 4.5c.067.27.344.434.614.367l.093-.023a.5.5 0 00.367-.613l-1.484-5.91.035.101a.506.506 0 00.34.297l1.793.309a.39.39 0 00.442-.309.378.378 0 00-.313-.434zm6.246-6.2L14.652 6l-8.648 4.074v2.871l1.82-.804v10.77h1.82V11.331l5.004-2.21 4.707 2.155V22.91h1.82v-10.8l1.821.835zm0 0" fill="#4d4d4d"/></svg>