<svg xmlns="http://www.w3.org/2000/svg" width="30" height="30"><circle style="isolation:auto;mix-blend-mode:normal;solid-color:#000;solid-opacity:1;marker:none" cx="15" cy="15" r="14.5" color="#000" overflow="visible" fill="#1a3971" fill-rule="evenodd" stroke="#fff"/><g fill="#fff"><path d="M17.363 12.016a1.292 1.292 0 00.617 1.703 1.258 1.258 0 001.676-.633 1.287 1.287 0 00-.62-1.7 1.25 1.25 0 00-1.673.63zm0 0"/><path d="M22.902 17.063s-.886-2.887-2.3-3.856c-.762-.527-4.149 3.48-4.149 3.48l.223.391L11 15.41c.102-.402.145-.707.074-.785-.23-.273-.93-.79-1.695-1.25l1.144-.988 1.7 2.98.64-.453s-1.433-5.078-2.34-4.922c-1.582.27-3.43 2.262-3.652 2.504-.32.285-.601 1.106-.719 1.492l-.148.485 3.879 1.129-.383 1.574-.25.687.785.477s.07-.18.246-.68c.188-.515.418-1.187.586-1.77l7.07 2.06c-.117.663-.21 1.628-.265 2.331l-.059.719.91-.102.055-.73.336-1.793.899.117 2.996.875.054-.324.04-.14c.003-.024.21-1.305 0-1.84zm-4.707.12c-.05.024-.105.133-.152.294l-.957-.282 2.531-1.812.637 1.383c-.887.097-1.734.265-2.059.418zm0 0"/><path d="M13.957 10.281c0 .711-.566 1.285-1.266 1.285a1.274 1.274 0 01-1.261-1.285c0-.707.566-1.281 1.261-1.281.7 0 1.266.574 1.266 1.281zm0 0M12.227 20.512l1.996-2.637 1.574 2.637zm0 0"/></g></svg>