<svg xmlns="http://www.w3.org/2000/svg" width="30" height="30"><circle style="isolation:auto;mix-blend-mode:normal;solid-color:#000;solid-opacity:1;marker:none" cx="15" cy="15" r="14.5" color="#000" overflow="visible" fill="#fff" fill-rule="evenodd" stroke="#1a3971"/><path d="M20.73 8.309c0 .71-.546 1.285-1.226 1.285-.684 0-1.234-.574-1.234-1.285 0-.707.55-1.282 1.234-1.286.676 0 1.226.575 1.226 1.286m-8.98 0c0 .71-.55 1.285-1.23 1.285-.684 0-1.23-.574-1.23-1.285-.005-.707.546-1.282 1.23-1.286.675 0 1.23.575 1.23 1.286m11.223 6.886l-1.805-5.175a.143.143 0 00-.129-.094h-3.082a.129.129 0 00-.121.09l-1.809 5.183a.458.458 0 00.258.578.425.425 0 00.555-.27l1.43-4.093v11.004a.56.56 0 00.546.578.561.561 0 00.559-.57v-6.582h.246v6.574a.561.561 0 00.55.578.566.566 0 00.56-.57v-11.02l1.425 4.098a.43.43 0 00.551.27l.008-.004a.451.451 0 00.254-.575h.004m-9 0l-1.805-5.175a.139.139 0 00-.129-.094H8.961c-.059 0-.11.039-.129.094L7.027 15.2a.458.458 0 00.258.577.425.425 0 00.555-.27l1.45-4.148v2.97L8.042 17.71h1.246v4.707a.56.56 0 00.547.578.561.561 0 00.559-.57v-4.711h.242v4.703c0 .32.246.578.55.582a.564.564 0 00.56-.574v-4.711h1.206l-1.203-3.387v-2.863l1.41 4.039c.078.23.324.351.547.27l.008-.004a.451.451 0 00.258-.575m1.203 7.754a.178.178 0 00.168-.183L15.129 7.18a.178.178 0 00-.176-.176.172.172 0 00-.168.18l.219 15.59c0 .097.078.175.172.175zm0 0" fill="#4d4d4d"/></svg>