<svg xmlns="http://www.w3.org/2000/svg" width="30" height="30"><circle style="isolation:auto;mix-blend-mode:normal;solid-color:#000;solid-opacity:1;marker:none" cx="15" cy="15" r="14.5" color="#000" overflow="visible" fill="#fff" fill-rule="evenodd" stroke="#1a3971"/><g fill="#4d4d4d"><path d="M22.996 7.152l-.004-.27v-.859h-.02L6.005 6l.023 1.129v2.559H7.23V7.133l14.56.02v2.534h1.202V7.152zm0 0"/><path d="M21.77 23l-1.172-2.395V8.422H8.41v12.254l-1.18 2.3zm-2.38-1.543l-.335.41-9.04-.015-.402-.395v-9.418l9.778.016zm0-11.871v1.34l-9.777-.02v-1.34zm0 0"/><path d="M16.902 18.117h-.914a.963.963 0 00.914-.957v-.18c0-.664-.539-1.203-1.207-1.203h-.011c.02-.359.023-.968-.145-1.379-.332-.796-1.133-1.128-1.133-1.128s.258 1.296-.355 1.859c-.293.27-.567.488-.778.648a1.15 1.15 0 00-1.148 1.145v.238a.97.97 0 00.918.957h-1.016c-.648 0-1.199.5-1.23 1.149-.016.332.101.656.332.898.23.238.547.375.883.379h4.906c.336-.004.652-.14.883-.379.23-.242.347-.566.332-.898-.031-.649-.582-1.149-1.23-1.149zm0 0"/></g></svg>