<svg xmlns="http://www.w3.org/2000/svg" width="30" height="30"><circle style="isolation:auto;mix-blend-mode:normal;solid-color:#000;solid-opacity:1;marker:none" cx="15" cy="15" r="14.5" color="#000" overflow="visible" fill="#fff" fill-rule="evenodd" stroke="#1a3971"/><path d="M23 11.71v2.849l-1.836-.836v9.246h-1.8V12.902l-1.75-.797v4.817h.003v6.074h-6.14v-6.074h4.312l.023-5.633-1.14-.52-5.031 2.22v9.98H7.84V13.78L6 14.594V11.73l8.664-4.046 1.148.554V6.004c.024.02 1.801 0 1.801 0v3.105zm-7.21 8.716c0-.7-.571-1.266-1.278-1.266-.707 0-1.282.567-1.282 1.266V21.8h2.56zm0 0" fill="#4d4d4d"/></svg>