<svg xmlns="http://www.w3.org/2000/svg" width="30" height="30"><circle style="isolation:auto;mix-blend-mode:normal;solid-color:#000;solid-opacity:1;marker:none" cx="15" cy="15" r="14.5" color="#000" overflow="visible" fill="#1a3971" fill-rule="evenodd" stroke="#fff"/><path d="M15.68 17.855c.586 0 1.058.45 1.058 1 0 .551-.472 1-1.058 1-.582 0-1.059-.449-1.059-1 0-.55.473-1 1.059-1zm0-3.14c.586 0 1.058.45 1.058 1s-.472 1-1.058 1c-.582 0-1.059-.45-1.059-1s.473-1 1.059-1zm0 6.285c.586 0 1.058.445 1.058.996 0 .555-.472 1-1.058 1-.582 0-1.059-.445-1.059-1 0-.55.473-.996 1.059-.996zm-3.633-3.145c.586 0 1.058.45 1.058 1 0 .551-.476 1-1.058 1-.586 0-1.059-.449-1.059-1 0-.55.473-1 1.059-1zm.668-3.078c.586 0 1.058.45 1.058 1 0 .551-.476 1-1.058 1-.586 0-1.059-.449-1.059-1 0-.55.473-1 1.059-1zm-1.34 6.16c.586 0 1.063.446 1.063.997 0 .554-.477 1-1.063 1-.582 0-1.059-.446-1.059-1 0-.551.477-.997 1.059-.997zm-2.96-4.222c.585 0 1.058.45 1.058 1s-.477 1-1.059 1c-.586 0-1.062-.45-1.062-1s.476-1 1.062-1zm1.35-2.875c.587 0 1.06.45 1.06 1s-.477 1-1.06 1c-.585 0-1.062-.45-1.062-1s.477-1 1.063-1zM7.06 19.586c.586 0 1.058.45 1.058 1s-.472 1-1.058 1c-.586 0-1.059-.45-1.059-1s.477-1 1.059-1zM23 8.715V7h-8.781v.043a.901.901 0 00-.867.648l-.48 1.864C11.32 9.703 9.987 10.8 9.75 12.3l6.887.984c.238-1.476-.594-2.867-1.965-3.457l.289-1.113zm0 0" fill="#fff"/></svg>