<svg xmlns="http://www.w3.org/2000/svg" width="30" height="30"><circle style="isolation:auto;mix-blend-mode:normal;solid-color:#000;solid-opacity:1;marker:none" cx="15" cy="15" r="14.5" color="#000" overflow="visible" fill="#fff" fill-rule="evenodd" stroke="#1a3971"/><path d="M13.2 17.215h-.024M21 12.992v.094a.267.267 0 01-.273.262h-.63l-.038.515c-.262 1.7-1.32 2.84-2.868 3.367l1.766 4.579a.393.393 0 01-.246.507.425.425 0 01-.535-.238l-1.781-4.637a7.413 7.413 0 01-1.016.114l.023 5.043a.405.405 0 01-.41.398h-.004c-.226 0-.414-.176-.414-.39l-.023-5.06a5.659 5.659 0 01-1.02-.163l-1.777 4.8a.414.414 0 01-.527.239.387.387 0 01-.25-.504l1.777-4.805c-1.508-.64-2.598-1.949-2.95-3.765h-.53A.267.267 0 019 13.086v-.094c0-.144.121-.258.273-.258h.438c0-.011-.004-.023-.004-.035 0-1.078 2.723-1.66 5.285-1.66 2.563 0 5.285.582 5.285 1.66 0 .012 0 .024-.004.035h.457c.149 0 .27.114.27.258zm-7.805 3.86c.051 0-2.039-.7-2.43-2.618l-.566-.316c.75 2.539 2.508 2.926 2.996 2.934zm6.668-4.153c0-.527-1.855-1.265-4.87-1.265-3.02 0-4.872.738-4.872 1.265 0 .531 1.852 1.266 4.871 1.266 3.016 0 4.871-.738 4.871-1.266zm-8.758.446l.793-.825a.195.195 0 00-.011-.28.216.216 0 00-.293.01l-.793.825a.192.192 0 00.012.281.216.216 0 00.292-.011zm7.727.23l.645-.785a.192.192 0 00-.036-.278.212.212 0 00-.289.032l-.644.789a.192.192 0 00.035.277c.09.067.219.05.289-.035zm-1.535.344l1.176-1.496a.19.19 0 00-.04-.274.212.212 0 00-.288.035l-1.18 1.496a.19.19 0 00.043.278c.09.066.219.047.289-.04zm-5.168-.196l1.36-1.617c.074-.082.058-.207-.032-.277a.213.213 0 00-.289.031l-1.36 1.617a.188.188 0 00.032.278c.09.07.219.054.289-.032zm3.703.301l1.488-1.855a.19.19 0 00-.039-.278.213.213 0 00-.289.036l-1.488 1.859a.19.19 0 00.039.277.21.21 0 00.289-.039zm-2.523-.137l1.5-1.789a.192.192 0 00-.036-.277.212.212 0 00-.289.031l-1.496 1.79a.188.188 0 00.032.277c.09.07.218.054.289-.031m1.214.027l1.497-1.79a.195.195 0 00-.032-.277.217.217 0 00-.293.032L14.2 13.469a.194.194 0 00.031.277c.09.07.22.055.293-.031zm.75-6.711s.715.758-.074 1.523c-.953.93.184 1.72.184 1.72s-.258-.72.387-1.333c.59-.562.66-1.277-.497-1.91zm-.585 1.558s-1.012.477-.79 1.176c.18.57.844.578.625 1.157-.02.046.73-.317.09-1.122-.418-.527.074-1.21.074-1.21zm0 0" fill="#4d4d4d"/></svg>