<svg xmlns="http://www.w3.org/2000/svg" width="8" height="11" viewBox="0 0 8 11"><path d="M3.59 0h1.375a.13.13 0 01.129.129v.558c0 .07-.055.125-.13.125H3.59a.127.127 0 01-.13-.125V.13A.13.13 0 013.59 0zm2.625 2.473c-.41 0-.828-.004-1.242-.008a.13.13 0 01-.133-.13V1.31a.134.134 0 00-.133-.133h-.77a.134.134 0 00-.132.133v1.027a.13.13 0 01-.133.129c-.414.004-.828.008-1.242.02-.336 0-.633.144-.793.382l-.012.02c-.215.347-.262 1.261-.27 1.73a.27.27 0 00.266.27h.012l.437-.008a.267.267 0 00.266-.27c0-.375.016-1.027.16-1.117.192-.12 4.402-.05 5.367-.039A.137.137 0 008 3.324v-.71a.13.13 0 00-.133-.13c-.55 0-1.11-.004-1.652-.011zM3.515 11H.685a.13.13 0 01-.13-.113L0 5.676c-.008-.07.043-.13.117-.137.004 0 .008-.004.012-.004h3.777a.13.13 0 01.13.13v.007l-.391 5.21a.13.13 0 01-.13.118zm-.21-4.117c.054-.024.078-.082.054-.137-.023-.055-.086-.078-.14-.055-.004 0-.524.215-1.18-.039-.723-.28-1.086-.12-1.258-.043-.023.008-.043.02-.054.02a.11.11 0 00-.07.133c.019.058.077.086.136.07.023-.008.05-.02.078-.031.145-.067.453-.203 1.09.047.234.093.484.14.738.14.356 0 .59-.097.606-.105zm0 .777a.106.106 0 00.054-.14c-.023-.055-.086-.079-.14-.055-.004.004-.524.215-1.18-.04-.723-.28-1.086-.12-1.258-.042a.447.447 0 01-.054.023.107.107 0 00-.07.133c.019.055.077.086.136.066.023-.007.05-.02.078-.03.145-.067.453-.2 1.09.046.234.094.484.14.738.14.356.005.59-.093.606-.1zm0 0" fill="#4d4d4d"/></svg>