<svg xmlns="http://www.w3.org/2000/svg" width="11" height="10" viewBox="0 0 11 10"><path d="M6.262 6.785c.383 0 .687.281.687.625s-.308.625-.687.625c-.375 0-.684-.281-.684-.625s.305-.625.684-.625zm0-1.965c.383 0 .687.282.687.625 0 .344-.308.625-.687.625-.375 0-.684-.28-.684-.625 0-.343.305-.625.684-.625zm0 3.93c.383 0 .687.277.687.625 0 .344-.308.625-.687.625-.375 0-.684-.281-.684-.625 0-.348.305-.625.684-.625zM3.914 6.785c.379 0 .684.281.684.625s-.309.625-.684.625c-.379 0-.687-.281-.687-.625s.304-.625.687-.625zm.43-1.922c.379 0 .687.278.687.621 0 .348-.308.625-.687.625-.38 0-.684-.277-.684-.625 0-.343.305-.62.684-.62zM3.48 8.711c.38 0 .684.281.684.625s-.309.625-.684.625c-.378 0-.687-.281-.687-.625s.309-.625.687-.625zM1.563 6.07c.378 0 .683.28.683.624s-.308.625-.683.625c-.38 0-.688-.28-.688-.625 0-.343.309-.625.688-.625zm.875-1.794c.378 0 .683.278.683.625 0 .344-.308.621-.683.621-.38 0-.688-.277-.688-.62 0-.348.305-.626.688-.626zM.683 7.867c.382 0 .687.278.687.625 0 .344-.305.625-.687.625-.38 0-.684-.281-.684-.625s.309-.625.684-.625zM11 1.07V0H5.316v.027C5.051.031 4.82.2 4.758.434l-.313 1.164c-1.004.09-1.863.777-2.02 1.714l4.458.618c.156-.922-.383-1.793-1.274-2.16l.188-.7zm0 0" fill="#4d4d4d"/></svg>