<svg xmlns="http://www.w3.org/2000/svg" width="6" height="10" viewBox="0 0 6 10"><g fill="#4d4d4d"><path d="M3.344 9.34V6.328h.77c.484 0 .886-.355.925-.82l.36-3.98H.601l.34 3.976c.038.465.44.824.925.824h.79V9.34C1.163 9.36 0 9.484 0 9.668c0 .215 1.375.328 3.02.328 1.648 0 2.98-.121 2.98-.328 0-.145-1.18-.3-2.656-.328zm1.25-6.125a.238.238 0 01-.074.168l-.133.129s-.153-.102-.258-.102c-.102 0-.203.149-.203.149l-.45-.41.739-.743.02.364.359.343zM.758 1.719a.06.06 0 01-.063-.032.067.067 0 010-.066c.012-.02.04-.035.063-.031h4.484c.024-.004.051.012.063.031a.067.067 0 010 .067.06.06 0 01-.063.03zm1.914 2.453a.148.148 0 00-.14.047l-.255.281v.445a.15.15 0 01-.152.149.15.15 0 01-.152-.149v-.84l.05-.199.055-.168c-.004 0-.387-.261-.387-.261a.145.145 0 01-.016-.227c.055-.05.141-.05.2-.012l.273.188 1.16-.164.512.445v1.238a.15.15 0 01-.152.149.153.153 0 01-.156-.149v-.593zm0 0"/><path d="M5.14 1.59H.86a.445.445 0 01-.454-.438v-.87C.406.128.54.003.7.003h4.528c.203 0 .367.156.367.348v.8a.445.445 0 01-.453.438zm-.273-.535V.477a.258.258 0 00-.262-.254H1.344a.209.209 0 00-.211.203v.629a.32.32 0 00.328.312h3.078a.32.32 0 00.328-.312zm0 0"/></g></svg>