<svg xmlns="http://www.w3.org/2000/svg" width="8" height="10" viewBox="0 0 8 10"><g fill="#4d4d4d"><path d="M.34 1.063h7.305c.195 0 .355.144.355.32v.012c0 .171-.152.312-.34.312H.355C.16 1.707 0 1.562 0 1.383V1.37c0-.172.152-.308.34-.308zm0 0M2.316 0h3.352c.187 0 .34.14.34.313v.109c0 .125-.11.226-.246.226H2.316c-.187 0-.34-.14-.34-.312V.312c0-.171.153-.312.34-.312zm0 0M7.39 2.492c0-.176-.156-.316-.347-.316-.2 0-.36.148-.36.332v6.824c0 .012-.011.02-.023.02H5.88c-.012 0-.024-.008-.024-.02V2.508c0-.184-.16-.332-.363-.332-.191 0-.344.14-.344.316v6.84c0 .012-.011.02-.023.02h-.758c-.012 0-.02-.008-.02-.02V2.508c0-.184-.163-.332-.363-.332-.191 0-.343.14-.343.316v6.84c0 .012-.012.02-.024.02h-.742c-.012 0-.02-.008-.02-.02v-6.84c0-.176-.156-.316-.347-.316-.2 0-.363.148-.363.332v6.824c0 .012-.008.02-.02.02H1.34c-.012 0-.02-.008-.02-.02V2.5c0-.18-.16-.324-.355-.324H.957c-.191 0-.348.14-.348.316v6.86H.602v.335c0 .172.152.313.34.313h6.105c.187 0 .34-.14.34-.313V9.68c.004-.012.004-.024.004-.035zm0 0"/></g></svg>