<svg xmlns="http://www.w3.org/2000/svg" width="30" height="30"><circle style="isolation:auto;mix-blend-mode:normal;solid-color:#000;solid-opacity:1;marker:none" cx="15" cy="15" r="14.5" color="#000" overflow="visible" fill="#fff" fill-rule="evenodd" stroke="#1a3971"/><g fill="#4d4d4d"><path d="M18.98 14.5a4.477 4.477 0 01-4.48 4.477 4.477 4.477 0 110-8.954 4.477 4.477 0 014.48 4.477zm0 0M9.574 12.234l-2.687-1.55A8.493 8.493 0 006 13.992h3.102c.058-.61.218-1.203.472-1.758zm0 0M10.082 17.637l-2.687 1.547a8.455 8.455 0 002.378 2.39l1.551-2.687a5.467 5.467 0 01-1.242-1.25zm0 0M9.102 15.004H6a8.426 8.426 0 00.887 3.305l2.687-1.551a5.389 5.389 0 01-.472-1.754zm0 0M16.719 9.559l1.55-2.684a8.462 8.462 0 00-3.289-.867v3.101c.602.051 1.188.204 1.739.45zm0 0M11.367 10.082L9.812 7.398a8.546 8.546 0 00-2.414 2.41l2.688 1.551a5.449 5.449 0 011.281-1.277zm0 0M19.898 13.992H23a8.433 8.433 0 00-.883-3.297l-2.687 1.547a5.46 5.46 0 01.468 1.75zm0 0M13.969 9.113V6.012a8.54 8.54 0 00-3.278.879l1.551 2.687a5.419 5.419 0 011.727-.465zm0 0M14.98 19.89v3.102a8.556 8.556 0 003.336-.887l-1.554-2.683a5.321 5.321 0 01-1.782.469zm0 0M19.898 15.004a5.533 5.533 0 01-.464 1.746l2.687 1.55A8.514 8.514 0 0023 15.005zm0 0M17.64 18.914l1.551 2.684a8.614 8.614 0 002.422-2.422l-2.687-1.551c-.352.5-.79.934-1.285 1.29zm0 0M18.922 11.367l2.687-1.55a8.555 8.555 0 00-2.457-2.442l-1.554 2.684c.515.355.96.8 1.324 1.308zm0 0M12.2 19.402l-1.552 2.684a8.465 8.465 0 003.32.902v-3.101a5.347 5.347 0 01-1.769-.485zm0 0"/></g></svg>