<svg xmlns="http://www.w3.org/2000/svg" width="30" height="30"><circle style="isolation:auto;mix-blend-mode:normal;solid-color:#000;solid-opacity:1;marker:none" cx="15" cy="15" r="14.5" color="#000" overflow="visible" fill="#fff" fill-rule="evenodd" stroke="#1a3971"/><g fill="#4d4d4d"><path d="M15.57 21.879v-5.117h1.29c.804 0 1.476-.61 1.538-1.399L19 8.598h-8l.57 6.761c.063.79.735 1.403 1.543 1.403h1.317v5.117c-2.492.027-4.43.246-4.43.558 0 .368 2.293.56 5.035.56S20 22.784 20 22.436c0-.246-1.969-.515-4.43-.558zm2.086-10.414c0 .105-.043.21-.12.285l-.224.219s-.257-.168-.43-.168c-.167 0-.339.25-.339.25l-.75-.7 1.234-1.261.028.617.601.59zm-6.39-2.54c-.043 0-.086-.019-.106-.054a.106.106 0 010-.117.11.11 0 01.106-.05h7.468a.11.11 0 01.106.05.106.106 0 010 .117c-.02.035-.063.055-.106.055zm3.187 4.169a.24.24 0 00-.234.074l-.422.48v.762c0 .137-.113.25-.254.25h-.004a.253.253 0 01-.254-.25v-1.433l.086-.336.09-.286c-.004 0-.64-.44-.64-.44a.252.252 0 01-.106-.192.241.241 0 01.078-.2.27.27 0 01.336-.015l.45.312 1.933-.273.86.758v2.105c0 .137-.114.25-.259.25h-.004a.253.253 0 01-.254-.25v-1.012zm0 0"/><path d="M18.566 8.703h-7.132a.747.747 0 01-.754-.742V6.48c0-.266.215-.477.484-.477h7.547a.6.6 0 01.61.598V7.96c0 .41-.337.742-.755.742zm-.453-.914v-.977c0-.238-.199-.43-.441-.43h-5.434a.348.348 0 00-.351.34V7.79c0 .297.246.535.547.535h5.132c.301 0 .547-.238.547-.535zm0 0"/></g></svg>