<svg xmlns="http://www.w3.org/2000/svg" width="8" height="11" viewBox="0 0 8 11"><path d="M2.8 7.023h-.015M8 4.121v.063c0 .097-.082.18-.18.18h-.422l-.027.355C7.2 5.887 6.492 6.672 5.461 7.03l1.176 3.149a.27.27 0 01-.164.347.276.276 0 01-.356-.16L4.93 7.18c-.223.039-.45.066-.676.078l.016 3.465a.275.275 0 01-.278.273.274.274 0 01-.277-.27L3.703 7.25a3.673 3.673 0 01-.683-.113l-1.184 3.3a.277.277 0 01-.352.168.271.271 0 01-.168-.347L2.5 6.953C1.496 6.512.77 5.613.535 4.363H.18a.182.182 0 01-.18-.18v-.062a.18.18 0 01.18-.18h.293v-.023c0-.742 1.812-1.14 3.523-1.14 1.707 0 3.524.402 3.524 1.14 0 .008-.004.016-.004.023h.304a.18.18 0 01.18.18zM2.797 6.773c.035 0-1.36-.48-1.617-1.8L.8 4.758C1.298 6.5 2.474 6.766 2.798 6.773zm4.445-2.855c0-.363-1.234-.871-3.25-.871-2.012 0-3.246.508-3.246.871s1.234.871 3.246.871c2.016 0 3.25-.508 3.25-.871zm-5.84.305l.532-.567a.133.133 0 00-.012-.191.136.136 0 00-.192.008l-.53.566a.136.136 0 00.007.191.14.14 0 00.195-.007zm5.153.16l.43-.54a.136.136 0 00-.024-.19.142.142 0 00-.195.023l-.426.539a.133.133 0 00.023.191.137.137 0 00.192-.023zm-1.024.234l.785-1.027a.136.136 0 00-.027-.188.138.138 0 00-.195.028l-.785 1.023a.14.14 0 00.027.192.142.142 0 00.195-.028zm-3.445-.133l.906-1.109a.136.136 0 00-.02-.191.14.14 0 00-.195.02l-.906 1.112a.133.133 0 00.024.192.137.137 0 00.19-.024zm2.469.207l.992-1.277a.129.129 0 00-.027-.187.137.137 0 00-.192.023l-.992 1.277a.137.137 0 00.023.192.142.142 0 00.196-.028zm-1.68-.093l.996-1.23a.136.136 0 00-.02-.192.141.141 0 00-.195.023l-1 1.23a.137.137 0 00.024.192.142.142 0 00.195-.023m.805.02l1-1.231a.137.137 0 00-.024-.192.137.137 0 00-.191.024l-1 1.23a.132.132 0 00.023.188c.059.047.145.039.192-.02zM4.184.003s.472.52-.051 1.047c-.637.637.12 1.18.12 1.18s-.167-.493.259-.915C4.906.93 4.953.437 4.184.004zm-.395 1.07s-.672.328-.523.809c.12.39.562.394.414.793-.012.035.492-.215.062-.77-.281-.36.047-.832.047-.832zm0 0" fill="#4d4d4d"/></svg>