<svg xmlns="http://www.w3.org/2000/svg" width="30" height="30"><circle style="isolation:auto;mix-blend-mode:normal;solid-color:#000;solid-opacity:1;marker:none" cx="15" cy="15" r="14.5" color="#000" overflow="visible" fill="#fff" fill-rule="evenodd" stroke="#1a3971"/><path d="M14.387 7h2.062c.106 0 .196.082.196.184V8c0 .102-.086.184-.196.184h-2.062c-.106 0-.196-.082-.196-.184v-.816A.194.194 0 0114.387 7zm3.937 3.598l-1.867-.012c-.11 0-.2-.086-.2-.188V8.902a.196.196 0 00-.198-.191H14.91a.197.197 0 00-.203.191v1.496a.192.192 0 01-.195.188c-.625.004-1.246.012-1.867.027-.5 0-.946.211-1.192.555l-.016.031c-.32.504-.39 1.836-.406 2.516a.4.4 0 00.403.394h.015l.656-.011c.223-.004.403-.18.399-.391 0-.547.023-1.496.242-1.629.285-.176 6.602-.07 8.05-.055.11 0 .2-.086.204-.187v-1.031a.194.194 0 00-.2-.192c-.827 0-1.663-.008-2.476-.015zM14.27 23h-4.243a.192.192 0 01-.195-.164L9 15.258a.19.19 0 01.176-.203h5.683c.106 0 .196.078.196.183v.012l-.586 7.578a.199.199 0 01-.2.172zm-.313-5.988c.082-.032.121-.121.082-.2a.166.166 0 00-.21-.082c-.009.004-.786.317-1.767-.054-1.09-.41-1.632-.176-1.89-.063a.453.453 0 01-.078.032.154.154 0 00-.11.19.165.165 0 00.204.102.733.733 0 00.117-.046c.222-.094.68-.293 1.636.07.352.133.727.203 1.106.203.535 0 .887-.14.91-.152zm0 1.129c.082-.036.121-.125.082-.203-.035-.079-.129-.114-.21-.079-.009.004-.786.313-1.767-.058-1.09-.406-1.632-.176-1.89-.063-.031.016-.063.028-.078.035a.154.154 0 00-.11.192.165.165 0 00.204.101l.117-.046c.222-.098.68-.293 1.636.066a3.05 3.05 0 001.106.207c.535 0 .887-.14.91-.152zm0 0" fill="#4d4d4d"/></svg>