<svg xmlns="http://www.w3.org/2000/svg" width="30" height="30"><circle style="isolation:auto;mix-blend-mode:normal;solid-color:#000;solid-opacity:1;marker:none" cx="15" cy="15" r="14.5" color="#000" overflow="visible" fill="#fff" fill-rule="evenodd" stroke="#1a3971"/><g fill="#4d4d4d"><path d="M22.645 22.277h-2.102l-.39-1.648h.995a.377.377 0 00.372-.387.376.376 0 00-.372-.383h-1.175l-.36-1.515h-.738l.355 1.515h-2.187l.371-1.515h-.738l-.375 1.515h-1.184a.379.379 0 00-.37.383.38.38 0 00.37.387h.992l-.406 1.648h-4.332v-3.472h3.035c.078 0 .117-.043.117-.114a.295.295 0 00-.05-.152l-2.157-3.559h1.618c.078 0 .117-.042.117-.109a.31.31 0 00-.051-.156l-2.156-3.555h1.164c.074 0 .117-.047.117-.113a.313.313 0 00-.055-.156L10.766 7l-2.309 3.89a.352.352 0 00-.05.157c0 .066.042.113.116.113h1.165L7.53 14.715a.276.276 0 00-.05.156c0 .067.039.11.117.11h1.617l-2.156 3.558a.264.264 0 00-.051.152c0 .07.039.114.117.114h3.191v3.472H7.77a.354.354 0 00-.348.36c0 .203.156.363.348.363h14.875c.195 0 .347-.16.347-.363 0-.2-.152-.36-.347-.36zm-5.793-1.648h2.562l.39 1.648h-3.363zm0 0"/><path d="M16.035 17.32h4.195c.204 0 .372.168.372.38v.003a.376.376 0 01-.372.383h-4.195a.373.373 0 01-.367-.383V17.7c0-.21.164-.379.367-.379zm0 0"/></g></svg>