<svg xmlns="http://www.w3.org/2000/svg" width="11" height="11" viewBox="0 0 11 11"><g fill="#4d4d4d"><path d="M10.672 8.719l-2.32-1.2c-.32-.16-.684.047-.88.243l-.304.3 3.621 1.79c.293-.418.3-.926-.117-1.133zm0 0"/><path d="M5.734 8.07L2.961 5.3a1.005 1.005 0 01-.133-1.257L1.016.387.957.44C.234 1.164-.109 2.027.031 2.965c.102.683 1.598 2.715 2.16 3.277l2.16 2.238c.536.536 2.907 2.372 3.602 2.477 1.04.16 1.899-.137 2.645-.883l.03-.031-3.71-1.836c-.363.129-.95.121-1.184-.137zm0 0"/><path d="M3.313 3.523c.195-.195.32-.636.078-1.039L2.35.406C2.06-.109 1.572-.09 1.196.215L2.996 3.84zm0 0"/></g></svg>