<svg xmlns="http://www.w3.org/2000/svg" width="30" height="30"><circle style="isolation:auto;mix-blend-mode:normal;solid-color:#000;solid-opacity:1;marker:none" cx="15" cy="15" r="14.5" color="#000" overflow="visible" fill="#fff" fill-rule="evenodd" stroke="#1a3971"/><g fill="#4d4d4d"><path d="M20.426 7.566H17.78V6.008h-6.476l-.024 1.558H8.555A.55.55 0 008 8.11v.02c0 .312.258.562.574.562h11.871A.55.55 0 0021 8.148v-.02a.57.57 0 00-.574-.562zm-7.992-.632h4.195v.632h-4.195zm0 0M19.512 9.523a.594.594 0 00-.688.465l-2.234 10.79h-.145l1.153-10.626a.588.588 0 00-.528-.644.563.563 0 00-.617.508L15.29 20.777c0 .008-.234-.004-.223 0V10.086a.584.584 0 00-.59-.578.555.555 0 00-.562.55v10.72h-.07c-.137.007-.035-.005-.172 0 .074-.008-1-10.747-1-10.747a.555.555 0 00-.606-.504.54.54 0 00-.402.168.508.508 0 00-.14.407l.976 10.675c-.07 0-.137.004-.203 0-.027-.109-2.086-10.789-2.086-10.789a.57.57 0 00-.66-.457h-.016a.553.553 0 00-.46.637l2.234 12.82s6.293.008 6.293 0l.18-1.093h-.005l2.188-11.735a.551.551 0 00-.453-.637zm0 0"/></g></svg>