<svg xmlns="http://www.w3.org/2000/svg" width="9" height="11" viewBox="0 0 9 11"><g fill="#4d4d4d"><path d="M8.652 10.27L5.555 9.148l3.191-1.117c.2-.07.3-.285.23-.48a.38.38 0 00-.484-.23L4.434 8.741.512 7.32a.383.383 0 00-.489.227.37.37 0 00.227.48l3.059 1.11-3.032 1.058a.377.377 0 00-.23.48c.07.196.289.298.484.231L4.43 9.543l3.96 1.434a.387.387 0 00.489-.223.377.377 0 00-.227-.484zm0 0"/><path d="M3.438 7.703c-.192.188-4.301-1.062-1.614-4.777 0 0 .535 1.59 1.344 1.59.27 0-1.477-1.989 1.879-4.512.152-.113-.445 3.762 1.074 4.512.54.265 0-1.856 0-1.856s2.152 1.328 1.613 2.918c-.539 1.594-2.148 2.125-2.148 2.125s.422-1.766 0-2.39A4.236 4.236 0 004.375 4.12s.137 1.457-.672 1.723c-.805.265-1.344-.797-1.344-.797-.132.93 1.211 2.523 1.079 2.656zm0 0"/></g></svg>