<svg xmlns="http://www.w3.org/2000/svg" width="11" height="11" viewBox="0 0 11 11"><g fill="#4d4d4d"><path d="M11 .746L10.996.57V.016h-.012L0 0l.016.73H.02v1.657h.777V.73l9.418.016v1.64h.781V.747zm0 0"/><path d="M10.203 11l-.758-1.55V1.565H1.56v7.93l-.762 1.488zm-1.539-.996l-.215.262-5.851-.008-.258-.254V3.906l6.324.012zm0-7.684v.868L2.34 3.175v-.867zm0 0"/><path d="M7.055 7.84H6.46a.623.623 0 00.594-.621v-.114a.786.786 0 00-.782-.78h-.007c.011-.231.015-.626-.094-.891-.215-.516-.734-.73-.734-.73s.167.839-.227 1.202a6.37 6.37 0 01-.504.418.744.744 0 00-.742.742v.153c0 .332.262.605.59.62h-.653a.796.796 0 00-.8.743.804.804 0 00.218.582.783.783 0 00.57.246h3.176a.79.79 0 00.786-.828.796.796 0 00-.797-.742zm0 0"/></g></svg>