<svg xmlns="http://www.w3.org/2000/svg" width="30" height="30"><circle style="isolation:auto;mix-blend-mode:normal;solid-color:#000;solid-opacity:1;marker:none" cx="15" cy="15" r="14.5" color="#000" overflow="visible" fill="#1a3971" fill-rule="evenodd" stroke="#fff"/><g fill="#fff"><path d="M18.691 23l-7.164-7.09 7.164-7.008H8.621V23zm-5.347-7.09c.062.063 6.3 6.156 6.531 6.38V9.515c-.309.296-6.45 6.304-6.531 6.394zm0 0"/><path d="M22.02 6H6.98a.976.976 0 00-.976.973V9.41c0 .535.437.969.976.973h.465V7.586h13.961v2.797h.614a.979.979 0 00.976-.973V6.973A.976.976 0 0022.02 6zm0 0"/></g></svg>