<svg xmlns="http://www.w3.org/2000/svg" width="8" height="10" viewBox="0 0 8 10"><g fill="#4d4d4d"><path d="M7.645.922H6.02V.004H2.03L2.02.922H.34c-.188 0-.34.14-.34.32v.012c0 .18.16.328.355.328H7.66c.188 0 .34-.14.34-.316v-.012c0-.184-.16-.332-.355-.332zM2.73.547h2.583v.375H2.73zm0 0M7.082 2.074a.36.36 0 00-.422.274L5.285 8.69h-.09l.711-6.25a.35.35 0 00-.324-.378.346.346 0 00-.379.3l-.719 6.328c.004.004-.144 0-.136 0V2.402c0-.187-.164-.34-.364-.34-.191 0-.343.149-.343.325V8.69h-.043c-.086.008-.024 0-.106 0 .043-.004-.617-6.32-.617-6.32a.336.336 0 00-.371-.297.351.351 0 00-.25.102.298.298 0 00-.086.238l.602 6.277c-.043 0-.086.004-.125 0-.02-.062-1.286-6.343-1.286-6.343-.03-.18-.214-.301-.406-.27H.945C.754 2.11.63 2.273.66 2.45l1.375 7.543s3.871.004 3.875 0l.11-.64h-.004l1.347-6.903a.326.326 0 00-.281-.375zm0 0"/></g></svg>