<svg xmlns="http://www.w3.org/2000/svg" width="30" height="30"><circle style="isolation:auto;mix-blend-mode:normal;solid-color:#000;solid-opacity:1;marker:none" cx="15" cy="15" r="14.5" color="#000" overflow="visible" fill="#1a3971" fill-rule="evenodd" stroke="#fff"/><g fill="#fff"><path d="M10.668 10.543l-.723-.008v-.27c0-.144-.152-.261-.34-.261-.187 0-.335.117-.335.262v.265l-.73-.004-1.044 2.047H7v6.422h5.148v-6.422h-.414zm-2.125 1.11h2.129l-.012.949H8.535zm0 0M16.09 10.543l-.719-.008v-.27c0-.144-.152-.261-.34-.261-.187 0-.34.117-.34.262v.265l-.73-.004-1.04 2.047h-.495v6.422h5.148v-6.422h-.414zm-2.121 1.11h2.129l-.012.949h-2.129zm0 0M21.516 10.543l-.723-.008v-.27c0-.144-.148-.261-.336-.261-.187 0-.34.117-.34.262v.265l-.73-.004-1.04 2.047h-.495v6.422H23v-6.422h-.414zm-2.125 1.11h2.129l-.008.949h-2.13zm0 0"/></g></svg>