<svg xmlns="http://www.w3.org/2000/svg" width="30" height="30"><circle style="isolation:auto;mix-blend-mode:normal;solid-color:#000;solid-opacity:1;marker:none" cx="15" cy="15" r="14.5" color="#000" overflow="visible" fill="#1a3971" fill-rule="evenodd" stroke="#fff"/><path d="M10.043 9h9.914c.48 0 .871.402.871.898v.012c0 .496-.39.899-.871.899h-9.914c-.48 0-.871-.403-.871-.899v-.012c0-.496.39-.898.871-.898zm12.082 5.973h-2.781l-.848-3.563H16.75l.844 3.563h-5.176l.887-3.563h-1.75l-.883 3.563H7.875c-.484 0-.875.406-.875.902 0 .5.39.906.875.906h2.348L9.172 21h1.75l1.047-4.219h6.054L19.027 21h1.746l-1-4.219h2.352c.484 0 .875-.406.875-.906 0-.496-.39-.902-.875-.902zm0 0" fill="#fff"/></svg>