<svg xmlns="http://www.w3.org/2000/svg" width="30" height="30"><circle style="isolation:auto;mix-blend-mode:normal;solid-color:#000;solid-opacity:1;marker:none" cx="15" cy="15" r="14.5" color="#000" overflow="visible" fill="#fff" fill-rule="evenodd" stroke="#1a3971"/><g fill="#4d4d4d"><path d="M9.512 8.7h10.957c.293 0 .531.23.531.515v.02c0 .273-.23.495-.512.495H9.531A.524.524 0 019 9.215v-.02c0-.273.23-.496.512-.496zm0 0M12.477 7H17.5c.285 0 .512.223.512.5v.176c0 .199-.164.36-.367.36h-5.168a.506.506 0 01-.512-.5V7.5c0-.277.23-.5.512-.5zm0 0M20.086 10.988a.509.509 0 00-.52-.504c-.3 0-.543.235-.543.528v10.922a.034.034 0 01-.03.03h-1.177a.034.034 0 01-.03-.03V11.012a.534.534 0 00-.544-.528c-.289 0-.52.223-.52.504v10.946a.034.034 0 01-.03.03h-1.137a.03.03 0 01-.032-.03V11.012a.537.537 0 00-.546-.528.511.511 0 00-.52.504v10.946a.03.03 0 01-.031.03h-1.114a.034.034 0 01-.03-.03V10.988a.509.509 0 00-.52-.504c-.301 0-.543.235-.543.528v10.922a.034.034 0 01-.032.03h-1.18a.034.034 0 01-.03-.03V10.996a.52.52 0 00-.528-.512h-.015a.511.511 0 00-.52.504v10.977h-.016v.535c0 .277.23.5.516.5h9.156a.506.506 0 00.512-.5v-.012-.004c.004-.02.004-.035.004-.054zm0 0"/></g></svg>