<svg xmlns="http://www.w3.org/2000/svg" width="9" height="10" viewBox="0 0 9 10"><path d="M6.406.578L5.145.574V.281c0-.156-.262-.281-.59-.281-.325 0-.59.125-.59.281v.29L2.688.565 0 2.402V10h9V2.402zm-3.894 8.41c-.082-.113-.176-.218-.246-.336-.282-.468-.555-.945-.836-1.414-.098-.16-.086-.308.02-.465.116-.171.226-.351.347-.535l-.45-.261V5.96c.079-.008.157-.02.235-.024l1.25-.105c.063-.008.094.008.125.066.211.43.43.86.645 1.29a.715.715 0 01.027.066c-.152-.07-.293-.137-.438-.207l-.32.547c-.09.152-.195.297-.266.453-.14.297-.18.61-.07.93l-.023.011zm1.925.168c-.183 0-.347.004-.515 0-.352 0-.7-.004-1.05-.011-.157 0-.208-.04-.259-.18-.11-.3-.07-.598.055-.887a2.89 2.89 0 01.195-.336.112.112 0 01.078-.043l1.477.012c.004.004.012.004.02.008zm-.093-4.394c-.207.304-.414.61-.617.914l-.055.074c-.426-.258-.852-.512-1.293-.773.289-.426.566-.844.851-1.262.06-.09.145-.121.262-.098.375.078.64.297.844.59.195.273.191.277.008.555zm.176.578c.144-.082.277-.16.418-.242-.028-.047-.055-.086-.079-.125-.113-.207-.23-.414-.343-.621-.211-.38-.504-.672-.954-.813.079-.012.153-.031.231-.031.191.004.379.02.57.027l1.324.047c.2.008.333.09.415.262.093.187.199.37.3.562l.493-.234c-.02.043-.028.062-.036.082-.218.406-.433.812-.648 1.215-.024.043-.047.054-.094.047L4.61 5.352c-.027 0-.05-.008-.09-.012zm3.324 2.074c-.254.461-.52.922-.782 1.383-.023.039-.042.078-.066.117-.082.152-.219.223-.402.219h-.676v.515l-.023.02a.214.214 0 00-.032-.059L4.98 8.527c-.027-.03-.035-.058-.011-.097.281-.414.558-.832.832-1.25a.155.155 0 00.027-.035c.02.16.04.308.055.457.172-.008.336-.02.5-.028.222-.011.449-.008.672-.035.351-.047.66-.184.898-.45l.024.013c-.043.105-.079.214-.133.312zm.05-.371c-.226.258-.53.383-.874.43-.114.015-.227.015-.344.015a.111.111 0 01-.074-.035c-.266-.398-.528-.797-.801-1.207.433-.254.863-.508 1.293-.762.117.168.234.332.343.5.165.243.333.489.493.739.086.132.074.199-.035.32zm0 0" fill="#4d4d4d"/></svg>