<svg xmlns="http://www.w3.org/2000/svg" width="11" height="11" viewBox="0 0 11 11"><path d="M5.5 3.906c.324 0 .59.266.59.586 0 .324-.266.59-.59.59a.592.592 0 01-.59-.59c0-.32.266-.586.59-.586zM6.863 11l-.125-.02c-.047-.007-.078-.046-.07-.093l.789-5.07c.008-.047.05-.075.098-.07l.12.019c.048.007.079.05.071.093l-.789 5.07c-.008.048-.05.079-.094.071zM4.324 5.016c.184.054.29.242.235.425l-.305 1.032a.34.34 0 01-.426.23.338.338 0 01-.23-.422l.3-1.031a.345.345 0 01.426-.234zm2.633 1.632l-1.035-.175-.317-1a.135.135 0 00-.03-.063.355.355 0 00-.423-.273.36.36 0 00-.273.261L3.547 10.5a.357.357 0 00.258.434.36.36 0 00.437-.254l.762-2.922.73 2.91a.329.329 0 00.399.238l.058-.015a.322.322 0 00.239-.395l-.957-3.824.02.066c.038.094.12.164.218.192l1.16.195a.242.242 0 10.086-.477zm4.04-4.011L5.596 0 .005 2.637v1.855l1.176-.52v6.97h1.175V3.448l3.243-1.43L8.64 3.415v7.527h1.18V3.953l1.175.54zm0 0" fill="#4d4d4d"/></svg>