<svg xmlns="http://www.w3.org/2000/svg" width="30" height="30"><circle style="isolation:auto;mix-blend-mode:normal;solid-color:#000;solid-opacity:1;marker:none" cx="15" cy="15" r="14.5" color="#000" overflow="visible" fill="#1a3971" fill-rule="evenodd" stroke="#fff"/><path d="M17.965 7.93l-1.961-.012v-.465c0-.25-.41-.453-.918-.453s-.918.203-.918.453v.461l-1.988-.012L8 10.844V23h14V10.844zm-6.059 13.453c-.125-.18-.27-.352-.383-.54-.437-.753-.863-1.507-1.3-2.261-.153-.258-.133-.496.03-.742.185-.277.356-.567.54-.863l-.695-.41v-.028c.12-.016.242-.031.363-.039.648-.059 1.297-.11 1.945-.172.098-.008.149.016.192.11.332.687.668 1.375 1.004 2.058.015.031.023.059.046.11a57.95 57.95 0 01-.68-.329c-.171.297-.34.586-.503.875-.14.243-.3.47-.414.723-.215.477-.278.977-.106 1.488-.011.004-.023.012-.039.02zm2.992.27c-.28 0-.539.003-.796 0-.547-.005-1.09-.012-1.637-.02-.238-.004-.317-.067-.399-.285-.171-.485-.109-.961.086-1.422.082-.188.192-.363.301-.54a.167.167 0 01.125-.066c.762.004 1.527.012 2.293.02.008 0 .02.004.027.008zm-.144-7.036l-.961 1.465-.078.117-2.012-1.238c.445-.68.879-1.352 1.32-2.02.094-.14.223-.195.407-.156.586.125.996.477 1.316.945.305.442.3.442.008.887zm.277.926c.223-.133.434-.258.645-.387-.04-.07-.078-.136-.113-.203l-.54-.992c-.332-.602-.78-1.074-1.484-1.3.121-.016.242-.048.36-.048.296.008.593.028.89.04.684.027 1.371.054 2.059.077.308.012.515.145.644.422.145.301.309.59.469.895l.762-.367c-.028.062-.04.097-.055.129-.336.648-.676 1.296-1.008 1.945-.035.062-.07.082-.14.074-.786-.09-1.567-.176-2.352-.262-.04-.004-.078-.015-.137-.023zm5.172 3.32c-.398.739-.808 1.473-1.215 2.211-.035.063-.07.121-.105.188-.13.246-.34.355-.621.351-.352-.004-.7 0-1.059 0v.825l-.031.03c-.016-.03-.027-.062-.05-.09-.458-.577-.915-1.155-1.376-1.733-.043-.051-.055-.094-.016-.157.434-.664.868-1.332 1.297-2.004.008-.011.02-.023.043-.05l.082.726c.266-.012.52-.027.774-.043.347-.015.699-.008 1.047-.055.547-.074 1.03-.296 1.398-.718l.035.02c-.066.167-.117.343-.203.5zm.078-.597c-.351.414-.824.613-1.36.687a4.059 4.059 0 01-.534.027.15.15 0 01-.117-.058c-.415-.637-.825-1.274-1.243-1.926.672-.41 1.336-.816 2.008-1.223.18.27.36.536.535.801.258.39.516.785.762 1.184.133.215.117.316-.05.508zm0 0" fill="#fff"/></svg>