<svg xmlns="http://www.w3.org/2000/svg" width="30" height="30"><circle style="isolation:auto;mix-blend-mode:normal;solid-color:#000;solid-opacity:1;marker:none" cx="15" cy="15" r="14.5" color="#000" overflow="visible" fill="#fff" fill-rule="evenodd" stroke="#1a3971"/><g fill="#4d4d4d"><path d="M22.496 19.477l-3.586-1.852c-.496-.25-1.058.066-1.36.367l-.472.473 5.598 2.762c.453-.649.46-1.43-.18-1.75zm0 0"/><path d="M14.863 18.473l-4.285-4.282a1.555 1.555 0 01-.207-1.945L7.566 6.598l-.086.086c-1.117 1.113-1.648 2.453-1.43 3.898.157 1.059 2.47 4.2 3.337 5.066l3.34 3.457c.828.829 4.492 3.665 5.566 3.829 1.605.25 2.93-.211 4.09-1.368l.043-.043c0-.003.004-.003.004-.003l-5.739-2.836c-.562.199-1.468.187-1.828-.211zm0 0"/><path d="M11.117 11.45c.305-.305.496-.99.125-1.61L9.637 6.629c-.457-.797-1.211-.766-1.79-.3l2.782 5.609zm0 0"/></g></svg>