<svg xmlns="http://www.w3.org/2000/svg" width="11" height="10" viewBox="0 0 11 10"><g fill="#4d4d4d"><path d="M10.758 9.547H9.313l-.27-1.031h.684c.14 0 .253-.106.253-.239a.249.249 0 00-.253-.242h-.809l-.246-.945h-.508l.246.945H6.902l.258-.945h-.508l-.257.945h-.813c-.14 0-.254.11-.254.242 0 .133.113.239.254.239h.68l-.278 1.03h-2.98V7.38h2.09c.05 0 .078-.027.078-.07a.15.15 0 00-.035-.098L3.652 4.988h1.114c.054 0 .082-.027.082-.07a.227.227 0 00-.035-.098L3.327 2.598h.8c.056 0 .083-.028.083-.07a.196.196 0 00-.035-.094L2.59 0 1.004 2.434a.14.14 0 00-.035.093c0 .043.027.07.078.07h.8L.364 4.82a.227.227 0 00-.035.098c0 .043.031.07.082.07h1.113L.04 7.211a.21.21 0 00-.035.098c0 .043.027.07.082.07H2.28v2.168H.531c-.133 0-.242.101-.242.226S.4 10 .531 10h10.227c.129 0 .238-.102.238-.227s-.11-.226-.238-.226zM6.773 8.516h1.762l.266 1.03H6.492zm0 0"/><path d="M6.21 6.45h2.888c.14 0 .254.105.254.237v.004c0 .133-.114.239-.254.239H6.21c-.14 0-.254-.106-.254-.239v-.003c0-.133.113-.239.254-.239zm0 0"/></g></svg>