<svg xmlns="http://www.w3.org/2000/svg" width="11" height="8" viewBox="0 0 11 8"><g fill="#4d4d4d"><path d="M7.352 2.012c-.188.43-.008.937.402 1.133a.803.803 0 001.082-.422.874.874 0 00-.402-1.133.802.802 0 00-1.082.422zm0 0"/><path d="M10.938 5.375s-.575-1.922-1.489-2.57c-.492-.352-2.687 2.32-2.687 2.32l.144.258-3.672-1.11c.067-.27.094-.468.051-.523-.152-.184-.605-.523-1.101-.836l.742-.656 1.101 1.988.414-.305S3.511.56 2.926.661C1.902.84.707 2.17.566 2.331c-.21.188-.39.738-.468.992L0 3.648l2.512.754-.246 1.047-.16.457.507.32s.043-.12.157-.453c.12-.343.27-.793.378-1.18l4.579 1.372A19.694 19.694 0 007.55 7.52c-.028.351-.035.48-.035.48l.59-.07.03-.485.22-1.195.582.078 1.937.582.035-.215.027-.093c.004-.016.137-.868 0-1.227zm-3.047.082c-.036.016-.067.086-.098.195l-.617-.187 1.636-1.211.41.922c-.574.066-1.12.18-1.331.281zm0 0"/><path d="M5.148.855c0 .473-.367.856-.816.856-.453 0-.82-.383-.82-.856 0-.472.367-.855.82-.855.45 0 .816.383.816.855zm0 0M4.027 7.676L5.32 5.918l1.02 1.758zm0 0"/></g></svg>