<svg xmlns="http://www.w3.org/2000/svg" height="64" width="64"><path style="isolation:auto;mix-blend-mode:normal;solid-color:#000;solid-opacity:1;marker:none" color="#000" overflow="visible" fill="#ffeeb3" fill-rule="evenodd" d="M0 0h64v64H0z"/><path d="M40.682-.615l-.577.123-.218.51.379.4.474-.08.256-.441zM51.396-.525l-.246.25-.054.316.3.3.362-.118.158-.274-.117-.396zM7.568-.5l-.341.098.04.423.249.08.24.227.334-.133.062-.353-.238-.317zM26.791-.248l-.33.25.07.404.323.14.312-.06.176-.388-.24-.295zM20.709-.064l-.297.07-.119.363.139.256.222.164.31-.125.231-.297-.215-.324zM34.84-.018l-.291.032-.23.2.062.376.242.162.273.043.217-.256.067-.371zM14.016.024l-.301.101-.176.375.25.324.352-.025.25-.2-.026-.425zM37.42.04l-.322.202-.088.303.209.357.41-.021.178-.303-.022-.318zM29.514.07l-.518.307.186.547.595.008.178-.534zM58.105.164l-.289.04-.232.15.008.336.195.32.379-.086.197-.217.04-.303zM53.08.229l-.264.334.163.343.29.125.381-.166.028-.408-.28-.213zM10.398.418l-.54.11-.118.54.336.344.508-.039.244-.55zM4.354.44l-.368.474.32.496.553.024.243-.496-.245-.415zM31.7.494l-.346.096-.229.318.006.28.26.117.425.058.096-.248.03-.27zM55.57.533l-.226.162.05.282.194.384.258-.062.238-.129.152-.4-.273-.229zM47.44.574l-.274.266.004.293.121.248.334.033.342-.156-.041-.387-.192-.22zM49.814.61l-.347.173-.139.256.033.305.346.162.272-.108.189-.2-.086-.325zM64.197.813l-.277.039-.086.273-.006.43.258.064.27-.004.322-.283-.139-.33zM16.947.889l-.394.015-.219.272-.111.336.37.207.208-.16.322-.069.08-.351zM2.803.975l-.576.123-.217.51.377.402.474-.082.256-.442zM42.795.979l-.3.101-.177.375.25.324.352-.025.25-.2-.025-.425zM24.973 1.031l-.43.35.148.533.457.147.432-.272-.039-.6zM22.74 1.068l-.453.38.045.55.522.18.38-.293.022-.508zM62.2 1.137l-.579.125-.217.508.38.402.474-.082.256-.44zM.525 1.256l-.322.201-.088.305.21.357.407-.021.18-.303-.023-.318zM39.623 1.293l-.291.135-.078.418.305.23.314-.025.26-.322-.164-.375zM19.002 1.43l-.393.119-.101.336.097.304.407.127.265-.273.012-.316zM12.125 1.498l-.393.117-.1.336.098.305.407.129.263-.276.014-.316zM45.537 1.533l-.601.033-.088.57.521.284.406-.389zM59.617 1.565l-.273.263.004.293.12.248.335.035.342-.156-.04-.387-.19-.222zM14.47 1.686l-.226.545.295.468.547-.082.201-.437-.217-.461zM28.566 1.951l-.29.031-.23.202.061.375.245.164.273.04.217-.255.064-.37zM5.969 2.035l-.276.266.004.29.121.249.334.035.342-.156-.039-.387-.191-.223zM32.797 2.092l-.33.25.07.404.32.14.315-.06.176-.388-.24-.295zM37.203 2.276l-.517.306.185.547.596.008.178-.533zM35.074 2.322l-.515.307.185.547.594.008.178-.533zM8.273 2.336l-.33.252.07.404.323.141.312-.063.176-.386-.24-.295zM53.584 2.371l-.6.033-.09.57.524.284.404-.39zM57.568 2.47l-.379.032-.218.227.02.414.37.172.3-.186.128-.293zM51.791 2.746l-.576.125-.217.508.379.402.473-.082.255-.441zM41.855 2.818l-.355.368.182.572.59.02.333-.444-.271-.48zM22.02 2.89l-.163.206-.296.142.005.362.309.181.379-.11.148-.314.03-.355zM26.754 2.941l-.291.032-.23.2.062.376.244.162.272.043.218-.256.065-.371zM39.572 2.973l-.318.136-.256.246.232.356.258-.045.317.09.234-.274-.11-.341zM16.314 2.98l-.261.245-.055.388.135.244.285-.015.404-.147-.031-.263-.1-.252zM3.865 3.064l-.351.069-.211.334.097.332.213.285.381-.19-.012-.261.125-.303zM47.68 3.08l-.38.031-.218.227.02.414.37.172.3-.186.128-.293zM49.496 3.082l-.277.04-.086.27-.008.43.258.067.271-.004.32-.283-.136-.33zM30.424 3.16l-.324.274.074.25-.049.326.299.199.326-.15.125-.375-.176-.3zM19.844 3.344l-.453.377.043.553.523.18.38-.294.022-.51zM55.229 3.352l-.317.511.42.399.53-.27-.09-.554zM1.412 3.395l-.33.25.07.404.323.14.314-.06.174-.389-.238-.295zM9.742 3.451l-.449.389.22.516.55-.045.181-.575zM45.188 3.457l-.561.024-.15.529.468.373.446-.367zM24.408 3.498l-.3.475.349.426.576-.176-.05-.574zM63.309 3.621l-.358.049-.142.328.154.365.33.108.355-.014.061-.422-.223-.136zM59.488 3.623l-.191.33.062.309.352.22.353-.208.018-.352-.17-.271zM11.844 3.778l-.38.398.243.55.564-.118.08-.59zM13.943 4.143l-.351.176-.125.25.176.224.35.25.2-.174.149-.226-.049-.424zM33.914 4.307l-.295.072-.121.361.14.256.223.164.31-.125.231-.297-.215-.324zM5.598 4.678l-.522.25.065.592.55.111.274-.478zM23.752 4.82l-.16.393.183.188.106.31.36.037.216-.283-.062-.39-.295-.184zM32.363 4.875l-.271.082-.36.24.094.249.156.22.416.104.194-.301-.04-.389zM53.496 4.875l-.3.475.35.426.575-.176-.05-.574zM38.133 4.91l-.37.07-.052.385.13.262.27.143.33-.192.067-.285-.059-.27zM18.99 4.912l-.453.377.043.553.524.18.38-.293.022-.51zM8.082 4.934l-.238.103-.33-.01-.162.323.189.305.387.078.277-.21.19-.3zM62.098 4.94l-.291.135-.077.418.303.228.317-.025.26-.323-.167-.375zM27.27 4.944l-.274.082-.357.24.093.248.157.22.416.104.193-.3-.039-.39zM41.693 5.002l-.369.07-.054.385.132.262.27.143L42 5.67l.066-.285-.058-.27zM44.023 5.016l-.521.178-.041.6.555.156.345-.485zM57.406 5.024l-.191.33.062.31.352.22.353-.21.018-.352-.17-.271zM16.684 5.094l-.38.399.243.548.564-.119.08-.588zM47.246 5.254l-.293.29.067.343.23.225.418-.076.107-.366-.136-.287zM35.725 5.297l-.245.164-.109.286.229.302.29.032.262-.09.075-.327-.116-.359zM1.928 5.301l-.451.389.22.516.55-.047.18-.573zM51.813 5.307l-.395.016-.219.27-.113.337.373.207.207-.16.32-.068.082-.352zM28.97 5.385l-.452.377.044.551.522.18.38-.291.024-.51zM10.352 5.506l-.227.545.295.469.547-.082.201-.438-.217-.46zM60.416 5.588l-.318.139-.256.246.232.355.258-.045.316.09.235-.273-.11-.342zM55.31 5.627l-.318.139-.258.246.235.355.258-.045.316.09.234-.273-.109-.342zM21.625 5.68l-.201.2-.207.378.197.178.242.12.416-.099.033-.357-.216-.327zM49.264 5.758l-.28.222-.03.395.241.248.32.154.25-.345-.132-.225-.03-.328zM3.883 6.027l-.45.389.22.518.548-.047.184-.573zM14.145 6.084l-.51.21-.09.474.32.394.59-.111.09-.584zM30.906 6.107l-.394.12-.1.336.098.304.406.127.266-.273.011-.317zM45.94 6.365l-.348.174-.139.256.035.305.344.162.272-.108.189-.2-.086-.325zM39.97 6.484l-.292.21.023.357.307.25.344-.057.306-.178-.14-.402-.262-.017zM33.953 6.879l-.277.039-.086.271-.006.432.258.065.27-.004.32-.284-.137-.33zM5.969 6.932l-.38.197.056.353.287.266.277.027.148-.242.11-.416-.235-.125zM0 7.146v.883l.223-.308-.133-.225-.027-.328zM26.816 7.156l-.322.203-.088.303.21.358.41-.022.177-.303-.023-.318zM24.72 7.186l-.52.175-.042.6.557.158.344-.484zM37.834 7.248l-.152.219-.092.254.15.4.358-.01.298-.254.061-.273-.223-.176zM9.563 7.268l-.354.423.139.461.466.202.471-.375-.191-.557zM20.03 7.324l-.485.16-.104.592.514.291.5-.238-.018-.553zM17.668 7.356l-.299.101-.176.375.25.324.35-.025.25-.2-.025-.425zM59.906 7.426l-.56.023-.15.53.47.375.443-.37zM43.389 7.455l-.291.031-.23.202.062.377.244.162.271.04.22-.255.064-.37zM8.012 7.487l-.371.07-.053.385.133.26.27.144.327-.192.067-.285-.059-.271zM35.428 7.508l-.342.1.041.423.25.08.238.225.336-.133.06-.351-.238-.317zM22.486 7.533l-.117.338.131.37.232.154.247-.147.289-.316-.149-.22-.205-.177zM62.932 7.664l-.22.553.436.355.465-.294-.103-.592zM48.605 7.67l-.343.2-.067.34.057.35.426.01.11-.238.251-.209-.092-.35zM12.256 7.715l-.332.047-.295.232.13.366.239.17.305.002.203-.323-.074-.283zM57.998 7.752l-.344.096-.228.318.006.28.26.117.425.058.096-.248.027-.267zM15.236 7.768l-.314.512.42.398.53-.27-.09-.554zM55.736 7.783l-.543.112-.115.539.336.344.508-.04.244-.55zM51.252 7.791l-.191.33.062.309.352.22.353-.208.018-.352-.168-.271zM29.373 7.828l-.35.174-.125.25.174.227.35.25.201-.176.15-.225-.05-.425zM40.734 8.09l-.26.246-.054.387.135.246.283-.018.404-.144-.03-.266-.099-.25zM45.459 8.131l-.354.424.14.46.468.202.47-.373-.193-.559zM53.57 8.287l-.299.102-.175.375.25.324.35-.025.25-.2-.026-.425zM1.814 8.366l-.347.173-.139.256.035.305.344.162.272-.107.189-.202-.086-.324zM32.23 8.584l-.226.315-.004.293.172.252.38-.016.19-.22.074-.268-.226-.246zM3.922 8.602l-.299.1-.176.375.25.324.35-.026.25-.199-.024-.426zM47.586 9.04l-.344.097-.228.317.006.279.26.119.425.059.096-.248.027-.27zM61.781 9.075l-.35.175-.124.25.173.225.35.25.201-.176.15-.224-.05-.424zM21.322 9.104l-.29.135-.077.418.305.23.314-.025.26-.323-.166-.375zM37.502 9.313l-.242.162-.112.285.23.305.292.031.262-.09.072-.328-.113-.357zM17.758 9.413l-.344.097-.228.317.005.279.26.119.426.057.096-.246.027-.27zM13.184 9.51l-.352.069-.21.334.097.334.213.283.38-.19-.011-.26.125-.304zM25.598 9.565l-.328.25.068.404.322.14.315-.06.175-.388-.24-.295zM30.432 9.596l-.38.399.243.548.566-.119.078-.588zM42.5 9.627l-.203.2-.205.378.197.178.242.12.416-.1.032-.356-.217-.326zM56.434 9.643l-.356.367.184.572.588.018.334-.442-.272-.482zM28.55 9.684l-.415.091-.05.256-.194.266.171.316.358.018.285-.274-.016-.347zM5.244 9.781l-.242.162-.111.286.23.304.291.031.262-.09.072-.327-.113-.358zM59.023 9.932l-.16.394.182.186.107.31.36.04.217-.286-.063-.389-.295-.185zM15.06 9.959l-.246.25-.054.316.3.303.362-.121.158-.273-.117-.397zM39.531 9.996l-.324.275.074.25-.05.325.3.2.324-.15.125-.375-.173-.3zM7.637 9.998l-.262.068-.244.352.213.287.379.102.257-.104.02-.285-.098-.42zM50.826 10.002l-.342.2-.068.339.057.352.425.01.11-.239.254-.209-.092-.35zM10.62 10.125l-.28.225-.031.392.242.25.32.153.25-.344-.133-.225-.029-.328zM33.715 10.156l-.37.07-.054.385.133.262.27.143.33-.192.064-.285-.057-.27zM19.404 10.193l-.342.098.043.424.249.08.238.226.336-.132.06-.354-.238-.316zM24.22 10.316l-.51.211-.089.471.32.396.59-.11.09-.585zM53.184 10.318l-.262.069-.244.351.213.29.377.099.26-.104.017-.285-.096-.418zM36.041 10.39l-.273.085-.358.238.092.248.158.22.414.104.196-.3-.041-.39zM48.748 10.436l-.365.105-.133.262-.008.275.28.186.374.02.145-.36-.066-.285zM44.607 10.459l-.345.174-.14.258.034.302.344.164.273-.107.188-.201-.086-.324zM2.348 10.559l-.52.25.063.591.55.112.274-.479zM0 10.94v.705l.162.046.234-.275-.109-.34zM61.35 10.965l-.52.252.065.59.55.111.274-.477zM22.357 11.268l-.277.039-.086.271-.008.432.258.064.272-.004.32-.283-.137-.33zM46.408 11.287l-.578.135-.045.56.508.213.428-.421zM10.021 11.389l-.343.097-.229.317.006.28.26.118.426.057.095-.246.028-.27zM31.426 11.39l-.326.276.076.25-.051.324.3.2.325-.149.125-.375-.174-.3zM56.54 11.557l-.563.023-.15.53.47.375.445-.37zM12.744 11.611l-.51.213-.09.471.32.397.59-.114.09-.582zM16.066 11.756l-.343.463.33.494.54-.156.02-.551zM28.572 11.78l-.521.177-.041.6.554.156.346-.484zM37.695 11.877l-.353.426.138.459.47.201.47-.373-.193-.559zM42.318 11.957l-.427.045-.034.264.038.267.318.286.312-.176.145-.364-.07-.27zM63.297 11.97l-.389.177-.015.379.2.246.413.029.215-.348-.147-.318zM3.748 12.01l-.293.21.024.356.306.25.344-.056.307-.178-.141-.4-.262-.02zM26.445 12.026l-.576.123-.217.51.38.402.472-.082.256-.442zM53.963 12.08l-.322.203-.088.303.209.358.41-.022.178-.3-.024-.321zM40.236 12.174l-.236.123-.2.182-.052.425.322.157.381-.086.182-.213-.115-.262zM8.322 12.281l-.578.135-.045.559.508.214.428-.423zM34.877 12.303l-.262.068-.244.352.211.289.379.101.26-.105.017-.283-.095-.42zM5.863 12.332l-.484.16-.106.592.514.289.502-.236-.018-.553zM51.264 12.592l-.37.068-.052.385.133.262.27.142.327-.191.067-.285-.059-.27zM18.352 12.63l-.264.335.164.344.291.125.379-.164.027-.41-.277-.214zM32.805 12.762l-.153.218-.091.254.148.4.36-.009.296-.254.063-.273-.225-.176zM59.75 12.865l-.328.25.07.405.32.14.315-.06.176-.39-.24-.294zM49.023 12.87l-.3.099-.174.375.25.324.35-.025.25-.2-.026-.425zM14.19 12.979l-.301.474.351.426.574-.176-.05-.574zM43.773 13.023l-.439.194-.145.488.428.422.531-.258.09-.545zM57.354 13.041l-.37.477.32.496.553.021.243-.496-.245-.414zM21.37 13.166l-.417.094-.049.256-.195.263.172.317.357.017.285-.273-.015-.346zM23.557 13.219l-.164.203-.295.144.006.36.308.183.38-.11.146-.315.029-.354zM1.918 13.451l-.33.25.07.405.322.14.313-.06.176-.387-.24-.297zM29.7 13.46l-.368.474.32.496.553.023.242-.498-.244-.412zM10.66 13.541l-.367.108-.133.261-.008.276.28.185.377.02.144-.36-.066-.285zM46.055 13.67l-.323.203-.09.305.212.357.408-.021.177-.303-.021-.32zM63.576 13.756l-.242.162-.111.285.23.305.291.031.26-.09.074-.328-.113-.357zM37.906 14.006l-.226.314-.004.293.17.252.38-.015.192-.223.074-.266-.226-.246zM16.55 14.14l-.298.477.35.424.574-.174-.049-.576zM4.047 14.152l-.246.25-.055.317.3.3.362-.119.158-.273-.117-.396zM24.67 14.27l-.453.377.045.552.521.18.381-.293.024-.51zM26.768 14.283l-.354.424.139.461.468.201.471-.375-.193-.556zM6.848 14.299l-.428.35.148.53.457.15.432-.272-.041-.6zM53.467 14.31l-.272.196-.152.344.285.263.29.04.27-.141.032-.38-.197-.216zM.445 14.346l-.392.117L0 14.64v.304l.05.159.407.128.264-.275.013-.314zM32.586 14.477l-.52.25.065.591.55.112.274-.479zM36.363 14.48l-.416.092-.05.256-.196.266.174.316.357.018.286-.274-.016-.347zM48.588 14.58l-.293.29.068.343.229.225.42-.077.105-.365-.135-.287zM40.07 14.664l-.261.068-.245.352.213.29.377.099.26-.104.018-.285-.096-.42zM12.389 14.684l-.393.117-.1.336.098.304.406.13.264-.276.014-.314zM56.11 14.7l-.24.103-.329-.01-.162.322.187.305.39.078.274-.209.192-.3zM61.326 14.762l-.357.049-.143.328.154.363.33.11.356-.014.06-.422-.222-.137zM19.484 14.78l-.392.118-.102.336.098.305.406.127.266-.273.011-.317zM51.363 14.824l-.3.375.1.5.575.174.35-.475-.176-.525zM9.059 15.025l-.35.176-.125.25.174.225.35.25.2-.174.151-.227-.05-.423zM28.4 15.049l-.353.367.182.572.59.018.331-.441-.271-.481zM41.943 15.072l-.369.07-.053.385.133.26.27.145.328-.192.066-.285-.058-.27zM15.006 15.29l-.276.038-.085.274-.008.43.258.064.271-.004.32-.283-.136-.33zM58.39 15.307l-.35.068-.212.334.098.334.213.283.38-.19-.011-.259.125-.305zM46.836 15.395l-.365.105-.133.262-.008.275.28.186.374.021.145-.361-.066-.285zM62.898 15.773l-.453.377.045.553.522.18.38-.293.022-.51zM44.059 15.822l-.163.203-.296.145.006.36.308.183.379-.111.148-.315.03-.353zM22.682 15.883l-.358.049-.142.328.154.363.33.11.355-.014.061-.422-.223-.137zM17.537 16.164l-.293.287.067.344.228.225.42-.077.107-.365-.136-.287zM10.424 16.273l-.324.276.074.25-.049.324.299.201.326-.15.125-.375-.176-.3zM30.428 16.285l-.453.377.045.553.521.18.38-.293.024-.51zM56.51 16.3l-.56.024-.151.53.469.375.445-.37zM2.936 16.322l-.264.334.164.346.291.123.379-.164.027-.41-.277-.213zM5.246 16.4l-.264.334.164.344.291.125.38-.166.029-.408-.28-.213zM37.785 16.445l-.162.203-.297.145.006.36.309.183.379-.111.148-.315.03-.353zM53.688 16.543l-.352.068-.211.334.098.332.213.285.38-.189-.011-.262.125-.302zM1.297 16.553l-.381.4.244.549.565-.12.08-.587zM34.3 16.566l-.292.288.066.345.23.223.419-.076.107-.365-.137-.286zM32.25 16.58l-.273.266.003.29.122.25.334.034.341-.156-.04-.387-.19-.22zM24.799 16.826l-.367.477.318.494.555.023.24-.496-.244-.414zM20.229 16.844l-.264.336.162.344.291.123.38-.165.028-.408-.28-.215zM14.775 16.889l-.453.379.045.55.522.18.38-.293.024-.508zM45.623 16.889l-.543.11-.115.54.336.342.508-.04.244-.548zM50.31 16.9l-.355.051-.144.326.154.366.33.107.355-.014.06-.421-.22-.137zM59.383 16.947l-.28.223-.03.395.24.25.322.152.25-.346-.133-.224-.03-.327zM39.982 17.02l-.238.17-.135.24.162.295.323.191.295-.252.074-.283-.108-.285zM7.447 17.076l-.26.244-.054.389.135.244.283-.015.404-.147-.03-.264-.099-.252zM28.357 17.33l-.347.174-.139.258.033.302.346.163.271-.108.19-.201-.086-.324zM12.242 17.39l-.521.176-.041.6.554.158.346-.484zM47.865 17.445l-.226.315-.004.293.172.252.38-.016.192-.223.074-.265-.228-.246zM61.46 17.53l-.378.398.244.55.565-.119.078-.59zM64.275 17.59l-.296.072-.12.361.139.256.223.164.31-.125.23-.296-.214-.325zM42.262 17.723l-.33.25.07.404.322.14.315-.06.175-.389-.24-.295zM57.807 17.83l-.325.275.075.25-.05.325.3.2.326-.15.125-.375-.176-.3zM22.717 17.857l-.295.21.025.357.307.25.342-.057.308-.178-.14-.4-.262-.02zM36.426 17.887l-.578.123-.217.51.379.402.472-.082.258-.442zM17.078 18.027l-.353.426.138.46.469.2.47-.373-.193-.558zM26.926 18.06l-.164.206-.295.142.006.362.306.181.381-.11.147-.314.029-.355zM52.16 18.211l-.562.023-.15.53.47.373.445-.367zM49.344 18.643l-.264.334.162.343.291.125.381-.166.027-.408-.277-.213zM38.336 18.723l-.291.133-.076.42.302.228.317-.025.26-.323-.166-.375zM2.922 18.754l-.28.223-.03.394.24.248.322.155.248-.346-.131-.225-.03-.328zM20.25 18.809l-.37.07-.052.385.133.26.268.144.33-.191.066-.286-.059-.271zM31.535 18.924l-.275.039-.086.271-.008.43.258.065.27-.004.322-.284-.137-.33zM5.38 19.03l-.35.068-.212.334.098.334.213.283.38-.19-.011-.26.125-.304zM10.1 19.063l-.346.095-.229.319.006.279.26.117.426.059.095-.248.03-.268zM33.377 19.09l-.28.223-.033.394.243.25.32.153.25-.344-.133-.227-.03-.326zM53.754 19.115l-.352.069-.21.334.097.334.215.283.38-.19-.013-.26.127-.302zM46.297 19.156l-.238.168-.137.243.162.293.322.193.297-.252.072-.283-.105-.287zM1.059 19.168l-.348.174-.14.258.034.302.346.163.272-.108.19-.201-.087-.324zM43.947 19.246l-.33.25.07.405.323.14.314-.06.174-.387-.238-.297zM59.63 19.303l-.235.121-.2.184-.054.423.322.157.383-.086.18-.213-.116-.26zM7.703 19.305l-.264.336.163.344.29.125.381-.166.028-.409-.28-.213zM14.86 19.315l-.3.375.1.5.574.173.352-.474-.176-.526zM63.408 19.319l-.392.119-.1.336.098.304.406.127.264-.273.013-.317zM12.621 19.358l-.275.265.004.293.12.248.335.033.341-.156-.039-.386-.191-.221zM22.951 19.576l-.162.204-.297.144.006.36.309.183.379-.111.148-.315.03-.353zM29.72 19.623l-.486.282.112.539.592.11.222-.53zM55.725 19.631l-.272.084-.36.238.094.25.157.221.416.104.193-.301-.039-.389zM39.924 19.752l-.29.031-.23.202.063.375.242.164.273.04.217-.255.067-.37zM25.139 19.87l-.518.306.186.547.595.008.178-.534zM41.803 19.99l-.543.112-.115.539.335.344.508-.04.244-.548zM35.543 20.315l-.352.068-.21.334.097.332.213.285.383-.19-.014-.261.127-.303zM16.867 20.447l-.369.475.32.496.553.024.242-.498-.244-.413zM50.055 20.621l-.52.252.065.59.55.113.274-.478zM18.934 20.623l-.291.032-.23.2.062.378.242.162.273.04.219-.255.064-.37zM61.766 20.643l-.202.201-.207.377.198.178.242.12.416-.099.033-.357-.217-.326zM27.729 20.733l-.428.045-.033.263.037.268.318.285.313-.176.146-.363-.072-.272zM52.828 20.758l-.408.068-.125.391.219.273.306.092.336-.261-.076-.373zM10.63 20.791l-.226.545.295.467.547-.082.201-.436-.217-.462zM47.426 20.864l-.29.03-.23.202.063.377.242.162.273.041.217-.256.067-.369zM3.318 20.871l-.261.07-.245.352.213.287.38.102.257-.104.02-.285-.098-.42zM59.006 20.926l-.52.25.065.592.549.111.273-.478zM33.146 20.93l-.275.025-.148.3.023.374.375.1.275-.1.176-.25-.15-.35zM20.465 20.973l-.342.1.041.423.248.08.24.225.334-.133.063-.353L20.81 21zM43.52 21.09l-.395.018-.219.27-.111.335.371.207.207-.158.322-.068.08-.352zM56.871 21.098l-.348.174-.138.256.035.304.344.162.271-.107.19-.201-.086-.324zM7.865 21.223l-.428.352.149.53.457.147.432-.27-.041-.599zM14.805 21.362l-.38.4.245.549.564-.12.079-.589zM1.377 21.471l-.522.176-.04.6.554.158.346-.485zM23.889 21.485l-.518.306.188.547.593.008.178-.533zM31.072 21.655l-.226.314-.004.293.172.252.38-.016.19-.222.074-.266-.226-.246zM39.416 21.682l-.344.098-.228.316.006.28.26.119.425.058.096-.248.027-.27zM5.121 21.754l-.262.336.162.344.292.125.378-.166.03-.408-.28-.215zM37.098 21.78l-.32.136-.257.247.233.355.258-.043.316.088.236-.273-.11-.34zM12.725 22.082l-.381.198.054.355.29.264.277.03.148-.245.11-.416-.235-.125zM45.697 22.088l-.2.202-.208.377.2.177.24.121.416-.1.033-.357-.217-.326zM51.594 22.215l-.346.098-.228.316.005.28.26.119.426.058.096-.248.029-.27zM26 22.27l-.379.199.055.353.287.264.277.03.149-.245.109-.416-.234-.125zM61.639 22.48l-.354.424.137.46.469.202.47-.375-.191-.556zM49.252 22.51l-.414.092-.05.255-.196.266.172.316.357.018.285-.273-.015-.348zM35.076 22.604l-.332.046-.293.233.131.365.238.17.305.002.203-.322-.074-.284zM53.953 22.643l-.273.084-.358.238.092.248.158.22.414.104.196-.3-.04-.39zM22.633 22.713l-.291.135-.078.418.304.23.315-.025.26-.323-.164-.377zM29.094 22.81l-.38.198.054.353.289.266.277.027.148-.244.11-.416-.235-.125zM9.885 22.879l-.389.174-.016.38.2.245.412.031.215-.35-.147-.318zM42.197 22.95l-.379.398.243.55.564-.119.08-.59zM15.484 23.004l-.26.246-.054.387.135.244.285-.016.404-.146-.031-.264-.1-.252zM55.574 23.041l-.261.07-.245.35.211.289.38.102.259-.106.018-.283-.096-.42zM59.51 23.092l-.52.252.063.59.55.113.274-.479zM1.91 23.217l-.275.025-.149.299.024.375.375.1.275-.1.176-.25-.15-.35zM6.12 23.332l-.29.041-.232.149.007.336.196.32.379-.086.197-.217.039-.303zM39.543 23.441l-.262.069-.244.351.213.29.377.101.26-.105.017-.284-.095-.42zM20.295 23.443l-.291.032-.23.2.062.378.242.162.274.041.216-.256.067-.37zM45.084 23.473l-.367.474.318.497.553.023.242-.496-.244-.414zM17.959 23.625l-.543.11-.117.54.338.344.508-.039.244-.55zM27.14 23.746l-.273.266.004.293.121.248.334.033.342-.156-.04-.387-.19-.22zM7.838 23.998l-.346.096-.228.318.006.28.26.117.425.058.096-.248.027-.267zM11.646 24.043l-.236.121-.2.184-.052.423.322.157.381-.086.182-.213-.115-.26zM31.367 24.129l-.314.514.418.396.531-.268-.092-.554zM62.87 24.145l-.282.222-.031.395.242.25.32.152.25-.344-.133-.224-.029-.328zM3.836 24.23l-.334.108-.195.254.125.408.377.06.267-.167.08-.407zM36.705 24.232l-.392.12-.102.336.098.304.406.127.265-.273.012-.317zM56.873 24.326l-.152.217-.092.256.148.4.36-.011.297-.254.062-.272-.225-.178zM33.54 24.402l-.548.25.053.588.48.278.444-.327-.024-.48zM22.904 24.467l-.576.123-.217.51.38.402.472-.082.258-.441zM51.74 24.662l-.428.045-.033.264.037.267.319.285.312-.175.147-.364-.073-.27zM47.756 24.797l-.227.314-.004.293.172.252.38-.015.19-.223.075-.266-.227-.246zM43.51 24.826l-.315.512.418.398.53-.27-.09-.554zM25.836 24.93l-.117.34.13.369.233.154.246-.146.29-.319-.15-.219-.204-.177zM14.705 24.938l-.225.544.295.467.545-.082.203-.435-.216-.463zM54.057 25.211l-.389.174-.016.38.202.245.412.031.214-.35-.148-.318zM28.727 25.262l-.344.463.33.494.54-.156.02-.551zM49.648 25.318l-.191.329.063.31.351.219.354-.21.017-.349-.168-.273zM40.889 25.35l-.278.039-.086.271-.006.43.258.066.27-.004.322-.283-.137-.33zM60.178 25.389l-.153.217-.093.255.15.4.36-.01.296-.255.063-.271-.225-.178zM38.139 25.422l-.246.252-.055.314.3.303.362-.121.16-.274-.119-.396zM10.158 25.469l-.578.135-.045.558.508.215.428-.422zM1.396 25.486l-.298.1-.176.375.25.324.35-.023.25-.201-.026-.424zM24.201 25.678l-.152.217-.092.255.15.4.358-.01.299-.255.06-.271-.222-.178zM19.21 25.805l-.296.07-.12.361.14.258.222.164.313-.125.228-.299-.215-.322zM17.004 25.844l-.342.1.041.423.25.08.238.225.334-.133.063-.351-.238-.317zM12.867 25.883l-.322.203-.09.303.211.357.408-.021.178-.301-.022-.32zM46.598 26.07l-.162.205-.297.143.006.361.308.182.38-.111.148-.315.029-.353zM34.873 26.102l-.242.162-.111.285.23.303.291.03.26-.089.074-.326-.113-.36zM5.65 26.147l-.6.03-.09.571.524.283.405-.388zM58.184 26.17l-.356.365.184.574.59.018.332-.441-.272-.483zM62.3 26.197l-.277.04-.086.27-.005.43.257.067.27-.006.322-.281-.137-.332zM55.744 26.455l-.428.045-.033.264.037.267.319.285.312-.175.147-.364-.073-.27zM21.264 26.541l-.576.125-.217.508.377.402.474-.082.256-.44zM8.254 26.62l-.162.204-.297.143.006.361.308.182.38-.11.148-.314.029-.355zM30.639 26.623l-.407.069-.127.39.221.274.307.091.334-.261-.074-.373zM2.834 26.65l-.393.118-.101.336.097.304.407.13.265-.276.012-.315zM32.871 26.674l-.484.16-.104.592.514.29.5-.237-.016-.551zM52.068 26.924l-.3.102-.176.375.25.324.351-.026.25-.199-.025-.426zM42.97 27.238l-.275.026-.15.3.025.376.375.1.276-.1.175-.25-.15-.352zM14.91 27.309l-.453.379.045.55.521.18.381-.29.024-.51zM22.729 27.408l-.487.282.112.539.59.113.222-.533zM38.178 27.41l-.354.366.182.574.59.017.334-.443-.272-.48zM40.877 27.432l-.33.252.07.402.32.14.315-.06.176-.386-.24-.295zM48.465 27.463l-.235.123-.199.182-.054.426.322.156.383-.086.18-.213-.116-.262zM28.605 27.654l-.261.07-.244.352.21.287.38.102.26-.106.017-.283-.096-.42zM54.768 27.744l-.416.092-.05.258-.195.263.172.317.358.017.285-.273-.016-.346zM10.54 27.846l-.39.174-.017.38.201.247.412.029.215-.348-.147-.318zM63.352 27.86l-.272.195-.152.343.285.264.289.04.271-.141.032-.38-.198-.216zM24.65 27.873l-.218.553.435.355.463-.297-.103-.591zM18.94 27.97l-.227.546.295.468.547-.084.2-.435-.216-.461zM44.113 28.014l-.281.222-.031.395.242.25.32.152.25-.344-.133-.226-.029-.326zM61.232 28.084l-.51.211-.09.473.321.396.59-.113.09-.584zM12.521 28.086l-.28.223-.032.394.242.25.32.153.25-.344-.132-.225-.03-.328zM50.463 28.197l-.262.246-.055.387.135.246.285-.015.405-.147-.03-.264-.101-.251zM36.582 28.25l-.6.031-.09.57.524.284.404-.389zM46.477 28.317l-.387.173-.018.381.201.244.413.032.214-.35-.146-.318zM5.096 28.389l-.52.252.065.59.55.113.274-.479zM17.113 28.389l-.392.119-.1.336.098.305.406.127.264-.274.013-.316zM7.896 28.412l-.328.25.07.405.321.14.314-.06.176-.389-.24-.295zM56.816 28.457l-.162.203-.297.143.006.361.309.182.379-.11.148-.314.03-.353zM33.475 28.51l-.323.203-.088.303.21.357.41-.021.177-.303-.023-.318zM2.63 28.524l-.509.21-.092.473.323.395.59-.112.087-.584zM58.719 28.54l-.35.173-.125.25.176.225.35.25.199-.174.15-.225-.049-.426zM0 28.6v.966l.332-.05.201-.438-.217-.46zM26.78 28.66l-.428.045-.036.264.038.267.32.285.31-.175.147-.364-.072-.27zM40.418 28.979l-.26.244-.054.388.134.245.285-.016.405-.147-.032-.263-.1-.252zM30.14 29.139l-.275.263.004.293.121.248.334.036.342-.159-.04-.384-.19-.223zM21.521 29.443l-.378.198.054.355.287.264.28.03.146-.245.11-.416-.235-.125zM64.457 29.633l-.408.07-.125.389.219.275.306.092.336-.262-.076-.373zM6.395 29.863l-.323.203-.088.305.21.356.408-.02.18-.303-.024-.32zM38.65 29.875l-.414.092-.05.256-.196.263.172.317.358.02.285-.274-.016-.348zM51.375 30.084l-.44.191-.144.49.428.422.531-.257.09-.545zM44.264 30.098l-.366.105-.132.262-.01.275.281.186.375.021.145-.361-.067-.285zM12.635 30.102l-.389.173-.016.381.202.244.412.032.215-.35-.149-.318zM32.219 30.111l-.326.276.076.25-.051.324.3.201.325-.15.125-.375-.176-.301zM19.354 30.156l-.381.399.244.549.564-.12.08-.587zM9.695 30.307l-.343.463.332.494.539-.157.02-.55zM53.385 30.313l-.453.378.045.551.521.18.38-.293.022-.508zM25.959 30.328l-.543.11-.115.54.336.342.508-.039.244-.549zM1.482 30.37l-.378.03-.22.227.02.414.373.172.297-.186.13-.293zM16.287 30.371l-.29.287.066.346.228.223.42-.076.105-.366-.134-.285zM28.107 30.397l-.271.195-.152.344.285.261.289.041.271-.14.032-.38-.198-.216zM55.475 30.44l-.243.162-.11.285.23.305.289.03.261-.09.075-.327-.114-.358zM34.023 30.442l-.244.164-.11.283.23.305.29.03.262-.09.074-.327-.113-.358zM48.443 30.465l-.152.219-.092.254.15.4.358-.012.299-.252.062-.273-.224-.176zM59.748 30.492l-.367.477.32.496.553.022.242-.497-.244-.414zM46.646 30.557l-.296.072-.12.361.141.256.223.164.31-.125.23-.297-.214-.324zM36.697 30.563l-.416.092-.05.255-.196.266.174.316.357.018.284-.273-.014-.348zM3.934 30.664l-.325.276.075.25-.05.324.3.201.326-.15.125-.375-.176-.301zM62.297 30.672l-.389.174-.015.38.199.245.412.031.217-.35-.149-.318zM23.307 30.71l-.315.511.42.398.53-.27-.09-.554zM58.291 30.748l-.37.07-.052.383.131.262.27.144.33-.191.066-.285-.059-.272zM42.082 30.832l-.246.252-.055.315.301.302.361-.12.159-.274-.118-.397zM15.045 31.21l-.6.032-.09.57.524.284.404-.389zM8.342 31.441l-.24.104-.329-.01-.162.322.188.305.388.078.276-.209.191-.3zM40.39 31.443l-.369.07-.054.385.133.26.27.145.33-.192.066-.285-.059-.27zM11.584 31.861l-.272.084-.357.239.092.25.156.22.416.104.195-.3-.04-.39zM29.959 31.92l-.344.463.332.494.54-.156.019-.551zM51.486 32.084l-.275.025-.15.301.025.375.375.1.275-.1.174-.25-.148-.35zM19.092 32.106l-.28.222-.03.395.24.25.322.152.25-.346-.133-.224-.03-.326zM5.746 32.127l-.262.068-.244.352.213.289.379.102.258-.106.02-.285-.098-.418zM45.37 32.328l-.38.399.244.548.565-.119.078-.588zM1.26 32.371l-.44.193-.144.489.428.422.529-.256.09-.547zM21.793 32.377l-.453.377.045.553.521.18.381-.294.022-.51zM57.19 32.445l-.544.11-.115.54.336.343.508-.038.244-.55zM24.082 32.463l-.262.07-.244.352.213.287.377.101.26-.105.017-.283-.095-.42zM32.465 32.547l-.393.12-.101.335.1.305.406.127.263-.274.014-.316zM54.172 32.549l-.45.387.221.517.55-.047.18-.572zM63.213 32.58l-.297.072-.12.362.142.258.222.162.31-.125.231-.297-.215-.324zM37.25 32.68l-.238.17-.135.24.16.295.324.191.295-.252.074-.283-.107-.285zM13.959 32.703l-.291.04-.232.15.007.336.198.32.377-.086.197-.217.039-.303zM16.926 32.72l-.578.124-.217.51.379.402.474-.082.256-.441zM43.666 32.856l-.56.023-.15.53.468.372.445-.367zM49.297 32.92l-.227.315-.004.292.172.252.381-.015.192-.223.074-.265-.229-.247zM35.441 32.932l-.414.092-.05.255-.196.266.172.316.358.018.285-.273-.016-.348zM26.826 33.09l-.379.031-.218.227.019.414.371.172.299-.186.129-.293zM2.986 33.096l-.343.197-.067.342.057.35.426.01.109-.237.252-.21-.092-.349zM39.37 33.115l-.454.377.045.551.521.182.381-.293.024-.51zM28.385 33.131l-.358.049-.142.328.154.363.33.11.356-.016.06-.42-.22-.139zM47.633 33.242l-.6.034-.088.57.522.281.404-.389zM58.99 33.315l-.226.545.295.468.546-.084.202-.435-.217-.461zM8.854 33.362l-.579.134-.045.559.508.215.428-.424zM61.494 33.475l-.275.039-.086.271-.008.43.258.065.27-.004.322-.284-.137-.33zM11.371 33.63l-.51.21-.09.473.32.396.59-.113.09-.584zM51.115 34.082l-.342.098.043.424.248.08.239.226.336-.134.06-.352-.238-.316zM5.6 34.203l-.37.07-.054.385.133.262.27.143.33-.192.064-.285-.057-.27zM18.75 34.28l-.152.216-.092.254.15.402.358-.011.298-.254.061-.272-.223-.178zM41.738 34.307l-.45.386.22.518.549-.047.183-.572zM55.48 34.36l-.289.134-.078.42.305.229.314-.026.26-.322-.166-.375zM15.682 34.543l-.332.047-.295.234.13.365.239.17.306.002.202-.322-.073-.283zM31.438 34.695l-.329.25.07.405.321.14.314-.06.176-.387-.24-.297zM.63 34.832l-.243.164-.11.285.229.303.29.031.263-.09.074-.326-.113-.36zM29.496 34.838l-.486.281.111.54.592.11.223-.53zM26.184 34.85l-.278.039-.086.271-.006.43.258.066.27-.006.322-.28-.139-.331zM23.49 34.86l-.441.19-.143.491.428.422.53-.258.09-.545zM57.174 34.895l-.158.394.181.188.108.31.357.037.219-.283-.065-.39-.293-.184zM53.352 34.918l-.276.266.006.29.121.25.332.034.342-.156-.04-.387-.19-.22zM21.205 34.945l-.246.25-.055.317.301.3.361-.119.159-.273-.118-.398zM33.746 34.98l-.342.198-.068.342.057.35.425.01.11-.237.254-.211-.092-.348zM39.898 35.09l-.453.377.045.55.522.18.38-.29.022-.51zM37.822 35.176l-.261.068-.245.352.213.289.38.1.257-.104.02-.285-.098-.418zM62.719 35.242l-.395.018-.219.27-.113.337.373.205.207-.158.323-.068.08-.352zM7.688 35.266l-.579.134-.045.56.508.214.428-.422zM44.01 35.348l-.227.162.049.281.195.385.258-.063.236-.129.155-.4-.276-.229zM59.63 35.38l-.3.475.35.426.576-.176-.05-.574zM47.227 35.387l-.243.162-.109.285.229.305.29.03.262-.089.073-.328-.114-.357zM13.611 35.445l-.162.203-.297.143.006.361.309.182.38-.11.147-.314.03-.353zM10.031 35.482l-.353.368.181.572.59.018.332-.442-.271-.482zM3.861 35.627l-.486.281.111.54.59.11.225-.53zM17.453 35.635l-.297.07-.119.361.14.258.223.164.31-.125.231-.299-.214-.322zM36.12 35.664l-.544.11-.115.54.336.342.508-.039.244-.549zM49.717 35.693l-.44.192-.144.49.428.422.53-.258.09-.547zM46.018 36.258l-.485.158-.105.594.513.289.502-.237-.017-.552zM26.62 36.494l-.333.047-.293.232.131.366.238.17.305.002.203-.323-.074-.283zM51.795 36.532l-.274.264.004.292.121.249.334.033.342-.157-.039-.384-.191-.223zM1.17 36.6l-.264.336.164.344.291.125.38-.166.029-.408-.28-.213zM41.898 36.764l-.261.07-.244.352.212.29.377.099.26-.104.018-.285-.096-.42zM31.918 36.772l-.225.545.295.467.545-.082.203-.436-.216-.46zM20.611 36.948l-.394.016-.219.27-.113.337.373.207.207-.16.32-.068.082-.352zM5.338 37l-.381.196.055.354.289.266.277.027.149-.244.109-.416-.234-.125zM57.77 37.118l-.579.123-.216.51.379.402.474-.082.256-.441zM18.56 37.136l-.351.174-.125.25.176.224.35.25.2-.173.149-.225-.049-.426zM22.447 37.15l-.16.394.182.188.107.31.36.037.216-.283-.062-.39-.295-.184zM15.547 37.226l-.274.084-.357.238.092.25.158.22.414.104.195-.3-.039-.39zM54.117 37.244l-.51.21-.091.473.32.395.592-.111.088-.584zM59.78 37.312l-.368.477.318.496.555.022.24-.496-.244-.415zM30.572 37.396l-.332.047-.295.235.131.365.238.17.307.002.203-.322-.074-.284zM8.414 37.426l-.408.07-.125.389.22.275.307.092.334-.262-.074-.373zM28.281 37.432l-.388.174-.016.38.2.245.413.03.215-.349-.148-.318zM12.523 37.438l-.244.162-.11.285.23.303.29.031.262-.09.074-.326-.115-.36zM10.715 37.565l-.326.275.076.25-.05.324.3.201.324-.15.125-.375-.176-.3zM24.33 37.565l-.244.25-.055.316.3.3.362-.118.159-.274-.118-.396zM62.248 37.658l-.348.174-.14.258.035.303.344.164.273-.107.19-.202-.088-.324zM40.438 37.743l-.342.1.04.421.249.082.24.225.334-.133.062-.354-.238-.314zM36.348 37.8l-.262.067-.244.352.213.29.377.1.26-.105.017-.283-.096-.42zM38.523 38.073l-.324.275.074.25-.048.326.298.2.327-.151.125-.375-.176-.299zM2.748 38.102l-.44.193-.144.489.428.421.531-.255.09-.547zM44.201 38.114l-.484.16-.104.592.514.29.5-.238-.016-.55zM34.246 38.188l-.277.039-.086.271-.006.43.256.064.271-.004.32-.28-.136-.333zM48.715 38.23l-.522.179-.04.6.556.155.344-.484zM55.861 38.256l-.562.024-.15.529.47.373.445-.367zM50.588 38.407l-.52.25.065.591.549.112.273-.479zM46.768 38.492l-.272.196-.152.344.285.263.289.04.271-.141.032-.38-.198-.216zM7.486 38.823l-.238.168-.135.242.16.293.325.193.295-.252.074-.283-.108-.287zM17.012 38.985l-.367.476.32.497.553.021.242-.496-.244-.414zM26.799 39.073l-.344.095-.228.319.005.28.26.116.426.059.096-.248.027-.268zM5.432 39.106l-.487.28.112.538.591.114.223-.532zM58.582 39.147l-.273.266.003.293.122.248.332.033.341-.156-.039-.387-.191-.22zM13.584 39.274l-.38.03-.22.228.02.414.373.17.297-.184.129-.293zM19.807 39.434l-.227.164.05.28.194.384.258-.062.238-.13.153-.4-.276-.228zM61.324 39.454l-.342.097.043.424.248.08.239.227.336-.135.06-.351-.238-.317zM32.549 39.473l-.393.117-.1.336.098.305.407.129.265-.275.012-.315zM53.482 39.58l-.396.018-.217.27-.113.338.373.205.207-.159.32-.068.082-.351zM15.834 39.764l-.365.106-.133.261-.008.276.28.185.374.022.145-.362-.066-.285zM.932 39.766l-.38.03-.218.228.018.412.373.172.298-.186.127-.293zM10.941 39.803l-.379.031-.22.229.02.412.372.172.3-.186.126-.293zM42.514 39.817l-.358.051-.144.326.156.365.33.108.354-.014.062-.42-.223-.138zM28.982 39.905l-.6.034-.087.57.521.283.405-.39zM63.86 39.905l-.325.276.074.25-.048.324.298.201.327-.15.125-.375-.176-.301zM30.959 40.02l-.324.276.074.25-.05.326.3.2.324-.15.125-.376-.174-.299zM23.041 40.097l-.332.047-.293.232.13.365.24.17.304.002.203-.322-.074-.283zM3.64 40.124l-.203.201-.205.377.198.178.242.12.416-.102.031-.357-.217-.326zM24.67 40.17l-.227.314-.004.292.172.252.381-.015.192-.223.074-.265-.227-.247zM56.117 40.32l-.117.34.13.367.233.155.246-.147.29-.316-.149-.221-.205-.176zM50.9 40.365l-.351.069-.211.334.098.334.212.285.383-.19-.013-.261.125-.303zM39.53 40.396l-.561.022-.15.53.47.374.443-.369zM45.875 40.404l-.191.33.062.311.352.219.351-.21.018-.35-.168-.272zM34.688 40.463l-.428.045-.033.264.037.267.318.285.313-.175.146-.364-.072-.27zM48.842 41.027l-.324.276.074.25-.051.324.3.2.325-.15.125-.374-.174-.301zM36.686 41.049l-.295.209.025.357.307.25.341-.058.309-.176-.143-.402-.26-.018zM20.771 41.06l-.152.218-.092.254.149.402.36-.012.296-.254.063-.271-.225-.178zM60.441 41.423l-.203.2-.205.378.197.178.243.12.416-.099.03-.357-.214-.327zM6.236 41.493l-.3.475.35.425.575-.175-.05-.575zM8.832 41.501l-.162.203-.297.145.006.359.309.184.378-.112.149-.314.027-.354zM18.906 41.505l-.35.174-.124.25.175.226.35.25.2-.175.15-.225-.05-.426zM14.912 41.52l-.547.25.053.588.48.278.446-.328-.026-.479zM12.799 41.54l-.6.031-.09.57.524.284.404-.389zM1.787 41.673l-.379.03-.22.228.019.412.373.172.299-.186.127-.293zM44.752 41.69l-.518.31.188.544.594.01.177-.533zM42.635 41.702l-.408.069-.125.39.218.274.307.093.336-.263-.076-.373zM58.203 41.751l-.543.11-.115.54.336.344.508-.039.244-.55zM53.287 41.825l-.428.045-.033.264.037.267.319.286.312-.176.147-.363-.073-.27zM40.646 41.849l-.394.017-.219.27-.113.338.373.205.207-.158.322-.069.08-.351zM28.852 41.99l-.342.099.04.422.249.082.24.224.334-.132.06-.354-.236-.314zM26.963 42.109l-.274.023-.15.3.025.376.375.1.274-.1.176-.25-.15-.35zM3.38 42.122l-.366.477.32.496.553.022.242-.496-.244-.415zM33.953 42.165l-.351.176-.125.25.175.225.35.25.201-.174.149-.227-.05-.423zM9.887 42.216l-.203.201-.205.38.197.177.242.121.416-.101.031-.356-.215-.326zM16.979 42.236l-.262.244-.055.389.135.244.285-.016.404-.146-.03-.264-.1-.252zM62.393 42.244l-.395.015-.219.272-.111.336.371.207.207-.16.322-.069.08-.351zM51.092 42.338l-.51.212-.092.471.32.397.592-.114.088-.584zM24.182 42.43l-.237.12-.199.184-.053.424.323.158.38-.088.182-.213-.117-.26zM55.191 42.447l-.238.168-.137.24.163.295.322.191.297-.25.072-.283-.106-.287zM31.14 42.547l-.115.338.131.369.233.154.246-.147.289-.316-.149-.22-.205-.176zM36.564 42.588l-.353.365.182.574.59.018.333-.444-.271-.48zM46.63 42.71l-.114.339.13.369.233.154.244-.146.291-.317-.148-.22-.205-.176zM21.121 42.94l-.35.173-.125.25.174.225.35.25.201-.174.15-.225-.05-.425zM39.102 43.146l-.354.424.139.46.468.202.471-.375-.193-.556zM11.088 43.432l-.275.025-.15.299.024.375.375.1.276-.1.174-.25-.15-.35zM13.484 43.555l-.298.474.35.426.573-.176-.048-.574zM58.387 43.672l-.227.545.295.467.547-.082.201-.436-.217-.463zM4.906 43.701l-.351.069-.211.334.097.334.213.283.381-.19-.012-.26.125-.304zM43.703 43.715l-.38.197.054.354.287.265.28.028.148-.244.11-.416-.235-.124zM1.059 43.78l-.368.474.319.496.554.024.24-.498-.243-.413zM49.025 43.797l-.328.252.07.402.32.141.315-.06.176-.387-.24-.295zM63.727 43.873l-.35.174-.125.25.176.227.35.25.199-.176.15-.225-.049-.426zM35.01 43.912l-.33.252.07.403.322.14.315-.06.175-.387-.24-.297zM53.117 43.922l-.277.04-.086.273-.006.43.258.064.27-.004.322-.283-.14-.33zM23.809 44.057l-.38.031-.218.229.02.412.37.172.3-.186.128-.293zM55.963 44.098l-.26.247-.055.386.135.246.285-.017.405-.145-.032-.265-.1-.25zM19.168 44.196l-.453.377.045.55.521.183.381-.293.022-.51zM60.621 44.235l-.273.264.004.293.12.248.335.035.341-.156-.039-.387-.191-.222zM7.195 44.302l-.38.398.244.551.564-.12.08-.589zM26.006 44.358l-.262.069-.244.351.213.29.379.101.26-.105.017-.286-.098-.418zM16.281 44.51l-.427.046-.036.263.037.27.32.285.311-.176.147-.363-.072-.271zM41.572 44.542l-.427.045-.036.264.037.267.32.285.311-.175.147-.364-.072-.27zM32.822 44.558l-.56.023-.15.53.47.373.443-.368zM45.738 44.724l-.152.217-.092.253.15.403.358-.012.299-.254.06-.271-.222-.178zM37.934 44.741l-.297.07-.121.362.14.258.223.164.31-.127.23-.297-.214-.322zM28.084 44.85l-.291.032-.23.201.062.375.242.164.274.041.218-.256.065-.37zM3.05 45.07l-.226.314-.004.293.172.252.38-.016.19-.222.075-.266-.227-.246zM51.459 45.083l-.152.217-.092.254.148.4.36-.01.297-.254.062-.273-.225-.176zM29.941 45.11l-.296.07-.12.362.141.258.223.164.31-.125.23-.299-.214-.322zM12.123 45.357l-.316.511.42.399.529-.27-.09-.554zM57.555 45.48l-.354.425.137.46.469.2.47-.372-.191-.56zM8.748 45.667l-.291.135-.078.418.305.23.316-.028.258-.322-.164-.375zM21.734 45.786l-.293.21.026.357.306.25.342-.057.309-.178-.143-.4-.26-.02zM62.19 45.802l-.245.25-.054.316.3.301.362-.119.158-.273-.117-.397zM54.395 45.868l-.522.25.064.592.551.111.274-.478zM44.201 45.888l-.344.098-.228.316.006.28.26.118.425.059.096-.248.027-.27zM17.1 45.896l-.354.424.139.46.469.202.468-.373-.191-.559zM10.322 45.904l-.318.138-.258.245.234.357.258-.045.317.09.234-.275-.11-.34zM36.527 46.047l-.416.091-.05.256-.196.266.174.316.357.018.284-.274-.014-.347zM5.635 46.138l-.28.225-.03.393.241.25.32.152.25-.344-.132-.224-.03-.329zM33.9 46.174l-.369.07-.054.385.132.26.27.144.33-.191.064-.286-.056-.27zM40.074 46.203l-.28.225-.03.394.242.248.32.152.25-.343-.133-.225-.029-.328zM.855 46.226l-.279.225-.033.392.242.25.32.153.25-.344-.132-.225-.03-.328zM24.234 46.228l-.275.04-.086.273-.008.43.258.064.27-.004.322-.283-.137-.33zM48.477 46.264l-.278.039-.084.273-.008.43.258.064.27-.004.322-.281-.137-.332zM31.436 46.277l-.579.123-.216.51.379.402.472-.082.258-.441zM59.783 46.525l-.578.133-.045.56.508.213.426-.421zM51.223 46.527l-.348.174-.139.256.034.305.345.162.272-.108.19-.2-.087-.325zM14.96 46.582l-.2.201-.207.379.199.176.24.123.416-.102.033-.357-.216-.326zM20.125 46.625l-.227.164.051.28.194.384.257-.062.239-.13.152-.398-.273-.23zM38.412 46.8l-.275.026-.15.299.025.375.375.1.275-.1.176-.25-.15-.35zM46.021 46.858l-.341.197-.069.342.057.35.426.01.11-.237.253-.211-.092-.348zM27.666 47.291l-.342.2-.068.34.056.35.426.01.11-.237.254-.21-.092-.349zM56.13 47.319l-.19.33.064.308.35.22.353-.21.018-.35-.168-.273zM13.238 47.323l-.562.023-.15.53.47.374.445-.369zM42.797 47.405l-.547.25.053.588.48.277.444-.326-.024-.48zM3.68 47.483l-.342.197-.067.342.057.351.426.008.11-.236.251-.21-.092-.348zM25.816 47.676l-.293.21.026.357.306.25.342-.057.309-.178-.143-.402-.26-.018zM17.625 47.891l-.3.475.349.425.576-.175-.05-.575zM62.9 47.893l-.117.338.131.369.232.154.247-.146.289-.319-.149-.218-.205-.176zM32.982 47.905l-.578.123-.217.51.38.402.472-.082.258-.442zM1.393 47.96l-.38.029-.22.228.02.412.373.172.298-.183.127-.295zM23.084 47.983l-.367.474.32.496.553.024.242-.498-.244-.412zM52.668 47.996l-.342.2-.068.34.056.351.426.01.11-.238.254-.21-.092-.349zM49.102 48.008l-.442.192-.142.488.427.424.53-.258.09-.547zM61.314 48.106l-.3.1-.176.375.25.324.351-.025.25-.2-.025-.425zM8.117 48.11l-.515.307.185.547.594.008.178-.534zM30.512 48.25l-.334.108-.194.254.125.406.375.063.268-.168.08-.406zM10.598 48.374l-.578.133-.045.56.507.213.428-.422zM40.494 48.435l-.314.511.418.397.53-.268-.089-.555zM44.898 48.478l-.32.138-.256.244.235.358.255-.045.319.09.234-.276-.11-.34zM5.77 48.497l-.33.25.07.404.322.141.314-.06.174-.39-.238-.294zM15.574 48.642l-.318.136-.258.246.234.356.258-.043.317.088.234-.274-.11-.342zM34.957 48.673l-.275.025-.15.3.025.376.375.1.275-.1.176-.25-.15-.35zM58.922 48.802l-.406.068-.127.39.22.274.307.092.334-.262-.074-.373zM37.047 48.843l-.281.222-.032.395.243.25.32.152.25-.343-.133-.227-.03-.326zM19.613 48.915l-.484.159-.104.593.514.29.5-.237-.018-.553zM26.258 48.917l-.324.276.074.25-.051.324.3.201.325-.15.125-.375-.174-.301zM21.77 48.96l-.334.108-.196.254.125.406.377.062.268-.17.08-.404zM55.576 48.964l-.51.211-.09.473.32.394.59-.11.09-.585zM50.883 49.186l-.51.21-.092.471.32.397.59-.112.09-.584zM47.465 49.246l-.346.096-.228.318.006.28.26.117.425.058.096-.248.03-.27zM13.193 49.375l-.52.25.065.592.551.111.272-.478zM2.686 49.592l-.38.031-.218.227.02.414.37.172.3-.186.128-.293zM42.5 49.646l-.342.2-.068.34.058.351.424.01.112-.238.252-.21-.092-.349zM57.9 49.998l-.38.4.244.55.564-.12.08-.588zM27.992 50.014l-.392.119-.1.336.098.304.406.127.264-.273.013-.317zM39.416 50.022l-.45.388.221.516.547-.047.184-.572zM17.744 50.25l-.224.545.294.467.545-.082.203-.436-.216-.46zM61.041 50.29l-.236.12-.2.184-.052.424.322.156.38-.086.183-.213-.118-.26zM5.06 50.365l-.226.162.05.282.194.384.258-.062.238-.129.153-.4-.274-.229zM53.39 50.395l-.152.218-.092.254.15.4.358-.011.297-.252.063-.273-.225-.176zM10.643 50.467l-.416.092-.05.256-.195.263.172.317.358.02.285-.274-.016-.348zM7.861 50.479l-.29.03-.231.202.062.375.243.162.273.043.217-.256.066-.37zM33.293 50.553l-.408.068-.125.39.219.276.306.092.336-.262-.076-.375zM.457 50.563l-.299.1L0 51v.06l.232.301.35-.023.25-.201-.025-.424zM35.834 50.575l-.297.07-.119.362.14.257.223.164.31-.125.231-.298-.215-.323zM30.818 50.624l-.226.314-.004.293.17.252.38-.015.192-.223.074-.266-.226-.246zM25.203 50.692l-.394.016-.22.27-.112.337.373.207.207-.16.322-.068.08-.352zM15.002 50.95l-.393.12-.1.335.098.305.407.127.263-.274.014-.316zM51.887 50.987l-.395.018-.219.27-.11.335.37.207.207-.158.322-.068.08-.352zM45.18 50.997l-.543.112-.117.539.335.343.51-.039.242-.549zM55.898 51.094l-.26.246-.054.387.135.244.283-.016.404-.146-.03-.264-.099-.25zM22.68 51.14l-.153.22-.091.253.15.4.357-.01.3-.253.062-.273-.225-.176zM47.85 51.168l-.366.107-.132.26-.008.278.28.183.374.022.145-.362-.067-.285zM12.38 51.207l-.288.04-.233.15.006.336.198.32.378-.086.198-.217.037-.302zM37.672 51.254l-.227.545.295.469.547-.084.201-.436-.217-.46zM20.594 51.405l-.219.552.436.356.464-.297-.103-.592zM42.035 51.422l-.51.211-.091.47.32.397.592-.113.088-.582zM3.35 51.54l-.274.081-.357.24.092.249.158.22.414.104.195-.301-.04-.389zM49.908 51.807l-.428.045-.033.263.037.268.319.285.312-.176.145-.363-.07-.27zM62.508 51.897l-.227.316-.004.291.172.254.381-.018.191-.22.075-.266-.229-.248zM29.332 51.914l-.273.084-.358.239.092.248.158.22.414.104.196-.301-.04-.389zM17.441 52.045l-.439.191-.145.49.428.423.531-.258.09-.545zM32.826 52.24l-.32.137-.256.246.234.356.256-.043.317.088.236-.274-.11-.342zM58.463 52.32l-.264.335.162.343.291.125.381-.166.028-.408-.28-.213zM6.545 52.451l-.38.03-.22.228.02.412.373.172.297-.185.129-.293zM9.71 52.537l-.353.424.14.461.468.201.47-.375-.193-.556zM14.945 52.666l-.324.276.074.25-.049.326.3.199.325-.15.125-.375-.175-.3zM40.004 52.826l-.262.246-.055.387.135.246.285-.017.405-.147-.03-.264-.101-.25zM34.248 52.877l-.16.395.183.187.108.31.357.038.22-.283-.065-.391-.295-.184zM1.47 52.895l-.316.511.42.399.53-.27-.09-.554zM25.975 52.918l-.28.223-.03.394.24.248.322.155.25-.346-.133-.225-.03-.328zM60.576 52.989l-.601.033-.088.57.521.283.406-.39zM43.977 53.01l-.227.317-.006.29.172.255.38-.018.192-.22.074-.266-.226-.248zM23.96 53.079l-.292.287.068.344.229.224.418-.076.107-.365-.136-.287zM37.178 53.352l-.227.164.051.28.193.385.258-.063.238-.129.153-.4-.274-.229zM31.068 53.382l-.43.35.15.533.456.146.434-.27-.041-.601zM19.717 53.388l-.237.12-.199.184-.052.424.322.157.38-.086.182-.213-.115-.26zM51.932 53.405l-.227.545.295.467.547-.082.201-.435-.217-.463zM54.963 53.435l-.238.103-.33-.01-.163.322.19.305.387.078.277-.209.19-.3zM46.58 53.487l-.299.475.35.424.574-.174-.049-.576zM56.658 53.523l-.299.375.1.5.574.173.35-.474-.174-.526zM22.195 53.558l-.324.275.074.25-.049.326.3.2.325-.15.125-.376-.175-.299zM49.885 53.646l-.56.023-.151.53.47.372.444-.367zM28.578 53.703l-.408.07-.125.39.219.274.306.092.336-.262-.074-.373zM12.166 53.75l-.428.045-.033.263.037.27.319.285.312-.176.147-.363-.073-.272zM62.5 53.758l-.441.193-.143.488.426.422.531-.258.09-.545zM42.28 53.822l-.39.174-.015.381.2.244.413.032.215-.35-.148-.318zM7.951 53.824l-.271.082-.358.24.092.249.156.22.416.104.196-.3-.041-.39zM4.057 53.983l-.293.209.023.357.307.25.343-.057.307-.177-.14-.403-.262-.017zM16.967 54.06l-.153.218-.091.253.15.403.357-.012.297-.254.063-.271-.225-.178zM10.176 54.594l-.395.016-.219.271-.113.336.373.207.207-.16.323-.068.08-.352zM35.857 54.707l-.275.026-.15.3.025.376.375.1.275-.1.176-.25-.15-.352zM49.271 54.977l-.324.275.074.25-.048.325.298.199.327-.149.125-.375-.176-.3zM45.285 54.987l-.35.176-.124.25.173.224.352.25.2-.175.15-.225-.051-.424zM14.584 55.073l-.543.11-.115.54.336.342.508-.04.244-.548zM1.773 55.165l-.365.107-.133.26-.007.277.279.184.375.021.146-.36-.066-.284zM57.723 55.169l-.346.173-.14.258.034.303.344.162.274-.107.19-.201-.089-.325zM60.16 55.204l-.512.21-.09.471.32.397.59-.111.09-.584zM6.455 55.278l-.365.106-.133.261-.008.276.28.185.375.02.144-.36-.066-.285zM24.47 55.321l-.226.164.05.282.194.382.258-.062.238-.13.153-.397-.274-.229zM27 55.403l-.271.084-.36.239.094.248.156.22.416.104.194-.3-.04-.39zM29.684 55.552l-.272.084-.357.238.091.248.159.22.414.104.195-.3-.041-.39zM55.113 55.573l-.427.35.148.531.457.148.432-.271-.041-.6zM37.363 55.655l-.261.069-.245.351.213.29.38.1.257-.105.02-.283-.098-.42zM4.092 55.696l-.38.031-.218.227.02.414.37.172.3-.186.128-.293zM39.355 55.706l-.38.4.244.55.564-.12.08-.588zM21.35 55.818l-.301.375.101.5.575.173.35-.474-.175-.526zM51.063 55.833l-.368.475.32.496.553.023.243-.496-.245-.414zM19.324 55.867l-.26.244-.056.388.135.244.285-.015.404-.147-.03-.263-.099-.252zM42.004 55.896l-.37.07-.052.383.133.262.267.144.33-.191.067-.285-.059-.272zM62.215 55.923l-.293.287.068.344.229.225.418-.076.107-.366-.135-.287zM31.717 55.927l-.334.11-.195.254.126.406.375.062.268-.17.08-.406zM52.805 55.933l-.118.338.133.37.233.154.244-.147.29-.318-.148-.219-.207-.176zM17.072 55.98l-.297.07-.119.362.139.258.223.164.31-.125.23-.3-.214-.321zM9.068 56.066l-.343.098-.229.316.006.28.258.117.428.058.095-.246.028-.27zM12.219 56.117l-.3.375.1.5.575.176.351-.475-.175-.525zM33.824 56.228l-.295.21.026.357.306.25.342-.057.309-.178-.14-.402-.263-.018zM47.316 56.508l-.441.193-.143.488.428.422.53-.258.09-.545zM43.969 56.56l-.545.25.053.588.478.277.445-.326-.023-.48zM.365 57.217L0 57.689v.006l.318.493.553.023.242-.498-.244-.412zM15.621 57.223l-.578.135-.045.56.508.213.426-.422zM56.977 57.33l-.29.041-.232.149.006.336.197.32.38-.086.196-.217.038-.303zM49.94 57.344l-.333.107-.195.254.125.406.377.063.266-.168.082-.406zM9.732 57.485l-.341.199-.069.34.057.35.426.01.11-.237.253-.21-.092-.349zM37.367 57.551l-.6.033-.09.57.524.284.404-.39zM5.68 57.635l-.342.197-.068.342.056.35.426.01.11-.237.251-.21-.092-.35zM3.791 57.664l-.484.16-.104.592.514.291.5-.238-.018-.55zM29.908 57.682l-.547.25.053.588.479.277.445-.328-.024-.48zM23.926 57.688l-.227.314-.004.293.17.252.381-.015.192-.22.074-.268-.227-.247zM25.803 57.709l-.354.424.139.459.469.203.47-.375-.193-.559zM40.559 57.75l-.33.252.07.402.322.14.315-.06.175-.386-.24-.297zM32.389 57.78l-.26.068-.246.351.213.29.379.101.26-.105.017-.284-.096-.42zM27.797 57.846l-.486.28.113.538.59.113.222-.533zM58.895 57.86l-.227.316-.004.291.172.254.38-.018.192-.22.074-.266-.226-.248zM62.67 57.99l-.262.071-.244.352.213.287.379.101.258-.103.02-.285-.098-.42zM21.701 58.012l-.367.475.32.496.553.023.242-.496-.244-.414zM11.707 58.043l-.158.395.181.185.108.311.357.037.22-.283-.065-.39-.295-.184zM17.943 58.088l-.484.16-.105.592.513.291.5-.238-.015-.55zM46.098 58.131l-.578.125-.217.508.379.402.472-.082.258-.44zM54.422 58.206l-.274.265.004.293.121.248.334.033.342-.156-.039-.386-.191-.221zM34.877 58.284l-.543.11-.115.54.336.344.507-.039.245-.55zM60.58 58.364l-.297.07-.12.362.14.258.222.164.31-.125.231-.299-.214-.322zM52.488 58.376l-.29.04-.231.15.006.336.197.32.377-.086.197-.217.04-.303zM7.445 58.396l-.152.216-.092.256.15.4.358-.011.299-.254.06-.271-.222-.178zM13.977 58.784l-.395.018-.219.27-.113.337.373.205.207-.158.322-.068.08-.352zM1.941 59.054l-.388.176-.016.38.2.245.413.03.215-.349-.148-.318zM43.127 59.062l-.238.105-.33-.01-.163.323.19.304.387.078.277-.21.19-.3zM20.111 59.124l-.56.022-.15.53.47.374.443-.367zM48.85 59.15l-.346.095-.229.319.006.279.26.117.426.059.096-.248.027-.27zM38.107 59.16l-.38.398.244.549.564-.12.08-.587zM40.23 59.66l-.289.04-.232.15.008.335.195.32.379-.085.197-.217.04-.303zM44.371 59.732l-.238.17-.137.24.162.293.322.194.295-.252.075-.283-.106-.288zM29.91 59.756l-.367.105-.133.262-.008.275.28.186.377.021.144-.361-.066-.285zM56.01 59.79l-.322.202-.088.303.209.357.41-.021.177-.303-.023-.318zM64.229 59.848l-.274.084-.357.238.091.25.159.22.414.104.195-.3-.039-.39zM3.756 59.967l-.408.07-.125.389.218.275.307.092.336-.262-.074-.373zM21.686 60.079l-.352.068-.211.334.098.332.213.285.382-.19-.013-.261.125-.303zM17.32 60.135l-.379.03-.218.228.02.414.37.172.3-.186.128-.293zM35.574 60.147l-.28.222-.03.395.24.25.322.152.248-.343-.13-.227-.03-.326zM50.672 60.157l-.32.138-.256.247.232.355.258-.045.316.09.237-.273-.112-.342zM33.143 60.184l-.274.195-.152.344.287.264.289.039.271-.14.03-.38-.198-.216zM5.705 60.284l-.35.176-.125.25.176.224.35.25.2-.176.15-.224-.05-.426zM25.395 60.284l-.541.111-.118.54.336.343.51-.04.242-.548zM12.34 60.44l-.26.246-.055.387.135.244.285-.015.405-.147-.032-.264-.1-.25zM46.936 60.477l-.243.164-.111.284.23.304.29.032.261-.09.075-.328-.114-.358zM8.256 60.48l-.486.28.113.54.59.113.222-.533zM28.11 60.48l-.544.109-.115.54.336.345.508-.04.244-.55zM10.389 60.487l-.278.04-.086.271-.006.432.258.064.27-.004.322-.283-.139-.33zM58.457 60.593l-.24.103-.328-.01-.162.323.187.304.389.078.275-.209.192-.3zM53.191 60.595l-.601.031-.088.57.521.284.407-.39zM62.016 60.654l-.237.123-.199.181-.053.424.323.158.38-.088.182-.212-.117-.26zM15.031 60.863l-.219.552.436.356.465-.297-.104-.592zM60.05 60.915l-.575.123-.217.51.379.403.472-.082.256-.442zM23.484 61.236l-.427.045-.036.264.038.27.32.285.31-.176.147-.363-.072-.272zM43.105 61.398l-.275.026-.15.3.025.376.375.1.275-.1.174-.25-.15-.352zM1.31 61.441l-.353.424.137.461.468.201.471-.373-.191-.558zM31.533 61.465l-.275.025-.149.3.024.374.375.102.275-.102.176-.25-.15-.35zM41.072 61.502l-.521.176-.04.6.555.158.344-.485zM37.344 61.654l-.28.225-.03.392.241.25.32.153.25-.344-.132-.225-.03-.328zM20.016 61.693l-.547.25.052.588.479.278.445-.329-.023-.48zM17.82 61.898l-.261.069-.245.351.213.29.377.1.26-.104.018-.286-.096-.418zM56.332 61.908l-.541.11-.117.54.336.345.51-.04.242-.55zM6.951 61.998l-.451.389.22.517.55-.047.183-.572zM53.305 62.086l-.153.219-.091.254.15.4.357-.01.3-.254.06-.273-.223-.176zM26.691 62.23l-.324.274.074.25-.048.326.298.2.327-.151.125-.375-.176-.299zM13.68 62.248l-.51.211-.09.473.32.396.59-.113.09-.584zM48.941 62.38l-.427.046-.034.264.036.267.32.285.312-.176.145-.363-.072-.27zM3.879 62.426l-.6.033-.09.57.524.284.404-.39zM45.252 62.438l-.428.045-.035.263.037.268.32.285.311-.176.147-.363-.073-.27zM34.197 62.492l-.289.04-.232.15.008.336.195.32.379-.086.197-.217.04-.302zM29.393 62.65l-.428.046-.033.263.037.268.318.285.313-.176.146-.361-.072-.272zM9.635 62.655l-.487.28.112.54.59.111.224-.531zM21.371 62.735l-.191.33.064.308.35.22.353-.208.018-.351-.168-.272zM58.117 62.801l-.226.545.297.469.544-.082.204-.438-.217-.46zM35.693 62.852l-.379.197.055.354.287.265.278.028.148-.244.11-.416-.235-.125zM63.314 62.87l-.357.048-.145.329.155.363.33.11.355-.014.06-.422-.22-.137zM60.887 62.905l-.38.197.056.354.287.265.277.028.148-.243.11-.416-.235-.125zM51.842 62.965l-.246.25-.055.317.3.3.362-.119.158-.273-.117-.396zM46.842 63.145l-.428.045-.035.264.037.267.314.28h.016l.3-.17.147-.364-.072-.27zM15.986 63.204l-.332.047-.293.232.131.365.213.153h.342l.191-.303-.074-.283zM24.201 63.256l-.353.368.119.376h.812l.174-.229-.271-.48zM39.42 63.49l-.342.2-.062.31h.77l.07-.058-.092-.348zM5.854 63.712l-.38.03-.22.227.002.031h.771zM12.078 63.76l-.246.24h.693l-.052-.111zM41.91 63.78l-.152.219V64h.629l-.078-.06zM32.973 63.85l-.416.092-.012.058h.492zM54.543 63.947l-.022.053h.604l-.006-.031z" fill="#dbb677"/></svg>