<svg xmlns="http://www.w3.org/2000/svg" width="30" height="30"><circle style="isolation:auto;mix-blend-mode:normal;solid-color:#000;solid-opacity:1;marker:none" cx="15" cy="15" r="14.5" color="#000" overflow="visible" fill="#fff" fill-rule="evenodd" stroke="#f5b700"/><path d="M20 6.629v15.66a.7.7 0 01-.688.707h-.687a.7.7 0 01-.688-.707v-5.648S15.876 16 15.876 14.52V9.45c0-.587.387-1.325.86-1.65l2.406-1.648c.472-.316.859-.105.859.477zm-6.469-.445c-.031-.07-.086-.07-.12 0l-.223.453a.71.71 0 00-.06.27v3.386h-.687V6.906a.798.798 0 00-.062-.27l-.223-.452c-.035-.07-.086-.07-.12 0l-.223.453a.798.798 0 00-.063.27v3.386h-.688V6.906a.794.794 0 00-.058-.27l-.223-.452c-.035-.07-.09-.07-.12 0l-.223.453a.715.715 0 00-.063.27v3.386h-.688V6.906a.715.715 0 00-.062-.27l-.219-.452c-.035-.07-.09-.07-.125 0l-.219.453a.715.715 0 00-.062.27v4.445c0 .195.066.496.152.671l1.223 2.504v7.762c0 .387.313.707.688.707h.687c.379 0 .691-.32.691-.707v-7.766l1.223-2.503c.082-.176.152-.477.152-.672V6.902a.715.715 0 00-.062-.27zm0 0" fill="#4d4d4d"/></svg>