<svg xmlns="http://www.w3.org/2000/svg" width="9" height="11" viewBox="0 0 9 11"><path d="M7.96 4.484h-.839V4.38c.02-.012.059-.082.059-.082.011-.012.023-.024.035-.04.332-.347.515-.804.515-1.28a1.91 1.91 0 00-2.125-1.883A1.925 1.925 0 003.863 0c-.746 0-1.425.426-1.742 1.094A1.907 1.907 0 000 2.977 1.866 1.866 0 00.55 4.3L.548 9.965c0 .57.473 1.035 1.05 1.035H6.13c.582 0 1.05-.465 1.05-1.035l.028-.445.738-.012C8.527 9.508 9 9.043 9 8.473V5.508a1.03 1.03 0 00-1.04-1.024zM.829 3.605l-.11.008a1.351 1.351 0 01-.171-.636c0-.848.789-1.524 1.687-1.317l.246.055.079-.235a1.376 1.376 0 012.613 0l.074.235.246-.055A1.36 1.36 0 017.18 2.977c0 .226-.063.441-.168.628zm1.168 6.266a.272.272 0 01-.273.274.272.272 0 01-.274-.274v-5.07a.254.254 0 01.164-.246.275.275 0 01.383.25zm1.067 0a.275.275 0 01-.551 0v-5.07c0-.11.066-.207.168-.246a.275.275 0 01.382.25zm1.062 0a.272.272 0 01-.273.274.275.275 0 01-.278-.274v-5.07c0-.117.078-.219.188-.254a.274.274 0 01.363.258zm1.066 0a.275.275 0 01-.277.274.272.272 0 01-.273-.274v-5.07a.26.26 0 01.164-.246c.199-.078.386.066.386.25zm1.063 0a.275.275 0 01-.55 0v-5.07c0-.117.073-.219.187-.254a.274.274 0 01.363.258zM8.449 8.5a.499.499 0 01-.504.496h-.824V5.051h.824a.504.504 0 01.504.496zm0 0" fill="#4d4d4d"/></svg>