<svg xmlns="http://www.w3.org/2000/svg" width="11" height="10" viewBox="0 0 11 10"><g fill="#4d4d4d"><path d="M5.387 0c.176 0 .32.133.32.293 0 .234.11.344.32.531.235.207.52.461.52.957 0 .496-.29.75-.52.957-.21.188-.32.293-.32.532 0 .16-.144.292-.32.292-.172 0-.317-.132-.317-.292 0-.5.29-.754.52-.958.215-.187.324-.296.324-.53 0-.235-.11-.345-.324-.532-.23-.203-.52-.46-.52-.957 0-.16.145-.293.317-.293zm0 0"/><path d="M4.484 1.25c-.234-.203-.52-.46-.52-.957 0-.16.141-.293.317-.293.172 0 .317.133.317.293 0 .234.109.344.324.531.23.207.516.461.516.957 0 .496-.286.75-.52.957-.211.188-.32.293-.32.532 0 .16-.145.292-.317.292-.176 0-.316-.132-.316-.292 0-.5.285-.754.52-.958.21-.187.32-.296.32-.53 0-.235-.11-.345-.32-.532zm0 0M9.117 10H.531c-.293 0-.527-.16-.527-.355 0-.196.234-.356.527-.356h8.586c.293 0 .528.16.528.356 0 .195-.235.355-.528.355zm0 0M10.996 5.707c.004.543-.36 1.035-.906 1.23a1.504 1.504 0 01-1.567-.343c-.628 1.379-2.085 2.273-3.699 2.273C2.61 8.867.813 7.203.813 5.152c0-.468.097-.933.285-1.367H8.55c.113.266.191.543.234.824.438-.27 1-.293 1.461-.066.465.23.754.68.75 1.164zm-1.402-.766c-.465 0-.844.348-.844.782 0 .43.379.777.844.777.465 0 .844-.348.844-.777 0-.434-.38-.782-.844-.782zm0 0"/></g></svg>