<svg xmlns="http://www.w3.org/2000/svg" width="7" height="10" viewBox="0 0 7 10"><path d="M7 .371v9.211a.427.427 0 01-.438.414h-.437a.427.427 0 01-.438-.414V6.258s-1.312-.375-1.312-1.246V2.027c0-.343.246-.777.547-.968l1.531-.97c.3-.187.547-.062.547.282zM2.883.105c-.02-.039-.055-.039-.078 0l-.14.27a.438.438 0 00-.04.156v1.996h-.438V.531a.37.37 0 00-.039-.156l-.14-.27c-.02-.039-.055-.039-.078 0l-.14.27a.438.438 0 00-.04.156v1.996h-.438V.531a.37.37 0 00-.039-.156l-.14-.27c-.02-.039-.055-.039-.078 0l-.14.27a.438.438 0 00-.04.156v1.996H.437V.531A.37.37 0 00.399.375l-.14-.27C.234.066.203.066.18.105l-.14.27A.37.37 0 000 .531v2.617c0 .114.043.293.098.395l.777 1.473v4.566c0 .227.2.414.438.414h.437a.427.427 0 00.438-.414V5.016l.78-1.477c.052-.102.095-.277.095-.39V.53a.335.335 0 00-.04-.16zm0 0" fill="#4d4d4d"/></svg>