<svg xmlns="http://www.w3.org/2000/svg" width="11" height="7" viewBox="0 0 11 7"><g fill="#4d4d4d"><path d="M2.078 3.297c-.691 0-1.281.148-1.539.355V.285C.54.13.422 0 .273 0 .125 0 .008.129.008.285v6.43c0 .156.117.285.265.285.149 0 .266-.129.266-.285V4.113c.258.207.848.356 1.54.356.44 0 .839-.059 1.14-.157v2.43c0 .14.11.258.242.258h.05c.134 0 .243-.117.243-.258V3.977l-.004-.094c0-.324-.746-.586-1.672-.586zm0 0M10.727 0c-.149 0-.266.129-.266.285v3.367c-.258-.207-.848-.355-1.54-.355-.925 0-1.671.262-1.671.586l-.004.094v2.765c0 .14.11.258.242.258h.051c.133 0 .242-.117.242-.258v-2.43c.301.098.7.157 1.14.157.692 0 1.282-.149 1.54-.356v2.602c0 .156.117.285.266.285.148 0 .265-.129.265-.285V.285c0-.156-.117-.285-.265-.285zm0 0"/><path d="M6.61 6.547h-.813V3.152c1.672-.039 2.992-.48 2.992-1.015 0-.563-1.453-1.02-3.246-1.02-1.797 0-3.25.457-3.25 1.02 0 .535 1.305.972 2.965 1.015v.11h.004v3.285h-.86c-.117 0-.207.098-.207.223 0 .12.09.218.207.218H6.61a.214.214 0 00.207-.218c0-.125-.093-.223-.207-.223zm0 0"/></g></svg>