<svg xmlns="http://www.w3.org/2000/svg" width="10" height="10" viewBox="0 0 10 10"><g fill="#4d4d4d"><path d="M9.254 6.844c-.035.07-.078.254-.11.383-.085.375-.183.8-.511.867-.25.047-.469-.2-.727-.485-.11-.12-.3-.34-.398-.386-.055.078-.133.293-.18.425-.133.372-.27.754-.574.778-.262.02-.465-.278-.695-.621-.098-.14-.25-.367-.34-.438-.07.082-.18.317-.25.461-.192.402-.356.754-.649.754-.289 0-.46-.348-.656-.754-.07-.148-.184-.383-.258-.465-.09.067-.25.297-.347.442-.239.343-.442.636-.707.617-.305-.024-.446-.41-.582-.781-.051-.133-.13-.352-.188-.426-.086.039-.289.262-.398.387-.258.285-.477.53-.727.48-.328-.066-.418-.492-.5-.871-.027-.125-.066-.309-.098-.379H.336C.156 8.16.004 9.289.004 9.305c.266.129.672.258 1.27.375 1.03.203 2.378.32 3.695.32 1.316 0 2.668-.117 3.707-.32.636-.125 1.05-.258 1.32-.39-.008-.08-.144-1.048-.316-2.227-.008-.008-.016-.016-.024-.02-.129-.125-.258-.23-.402-.2zm0 0"/><path d="M9.293 4.367a.381.381 0 01-.129.028c-.223 0-.398-.192-.398-.426 0-.235.175-.426.398-.426h.008c-.07-.5-.121-.86-.137-.961-.18.207-.574.371-1.219.504-.761.156-1.773.242-2.847.242s-2.086-.086-2.848-.242c-.644-.133-1.039-.297-1.219-.504-.011.11-.07.527-.144 1.106.004 0 .012-.004.015-.004.223 0 .403.191.403.425 0 .235-.18.426-.403.426a.375.375 0 01-.128-.023C.566 5.09.48 5.742.398 6.372a.517.517 0 01.13.03c.222.078.284.371.359.707.027.137.09.414.148.5.082-.05.235-.222.332-.328.262-.297.512-.57.785-.535.27.031.395.371.524.727.05.14.14.382.207.468.086-.07.23-.28.32-.41.235-.34.453-.656.73-.648.274.012.434.347.622.734.074.149.187.387.265.477.075-.09.188-.328.258-.477.184-.387.344-.722.617-.73.274-.012.48.293.72.644.085.13.226.336.308.41.062-.09.148-.324.195-.46.129-.36.25-.696.52-.731.277-.031.523.246.785.54.101.108.261.288.34.335.058-.07.124-.363.156-.508.078-.336.144-.629.37-.707a.658.658 0 01.5.027c-.1-.699-.206-1.433-.296-2.07zm-7.32.594c-.22 0-.399-.191-.399-.426 0-.234.18-.426.399-.426.222 0 .398.192.398.426 0 .235-.176.426-.398.426zm1.332.281c-.223 0-.399-.187-.399-.426 0-.234.176-.421.399-.421a.41.41 0 01.398.421c0 .239-.18.426-.398.426zm1.597.145c-.218 0-.398-.192-.398-.426 0-.234.18-.426.398-.426.22 0 .399.192.399.426 0 .234-.18.426-.399.426zM6.5 5.242c-.219 0-.398-.187-.398-.426a.41.41 0 01.398-.421c.223 0 .398.187.398.421 0 .239-.175.426-.398.426zm1.465-.281c-.219 0-.399-.191-.399-.426 0-.234.18-.426.399-.426.219 0 .398.192.398.426 0 .235-.18.426-.398.426zm0 0"/><path d="M5.906 1.512a1.177 1.177 0 00-.37-1.293 1.011 1.011 0 00-1.27.004c-.375.3-.524.824-.364 1.293-1.68.097-2.91.414-2.91.785 0 .449 1.781.816 3.977.816 2.195 0 3.976-.367 3.976-.816 0-.383-1.297-.703-3.039-.79zm0 0"/></g></svg>