<svg xmlns="http://www.w3.org/2000/svg" width="30" height="30"><circle style="isolation:auto;mix-blend-mode:normal;solid-color:#000;solid-opacity:1;marker:none" cx="15" cy="15" r="14.5" color="#000" overflow="visible" fill="#fff" fill-rule="evenodd" stroke="#f5b700"/><g fill="#4d4d4d"><path d="M10.023 14.71c-1.003 0-1.867.212-2.238.509V10.41c0-.226-.172-.41-.387-.41a.401.401 0 00-.39.41v9.18c0 .226.176.41.39.41.215 0 .387-.184.387-.41v-3.715c.371.3 1.235.508 2.238.508.641 0 1.223-.086 1.657-.223v3.469c0 .207.16.371.351.371h.074a.36.36 0 00.352-.371v-3.945-.137c0-.461-1.09-.836-2.434-.836zm0 0M22.602 10c-.215 0-.387.184-.387.41v4.809c-.371-.297-1.235-.508-2.238-.508-1.344 0-2.434.375-2.434.836v4.082a.36.36 0 00.352.371h.074a.362.362 0 00.351-.371V16.16c.434.137 1.016.223 1.657.223 1.003 0 1.867-.207 2.238-.508v3.715c0 .226.172.41.387.41.214 0 .39-.184.39-.41v-9.18a.401.401 0 00-.39-.41zm0 0"/><path d="M16.61 19.352h-1.18v-4.848c2.437-.059 4.355-.684 4.355-1.45 0-.804-2.117-1.456-4.726-1.456-2.61 0-4.723.652-4.723 1.457 0 .761 1.898 1.386 4.312 1.449v.156h.004v4.692h-1.25c-.168 0-.3.14-.3.316s.132.316.3.316h3.207a.31.31 0 00.305-.316.31.31 0 00-.305-.316zm0 0"/></g></svg>