<svg xmlns="http://www.w3.org/2000/svg" width="11" height="9" viewBox="0 0 11 9"><path d="M5.715 8.633c-2.11 0-3.828-1.809-3.828-4.031C1.887 2.379 3.605.57 5.715.57S9.543 2.38 9.543 4.602c0 2.222-1.719 4.03-3.828 4.03zm0-7.68c-1.91 0-3.461 1.637-3.461 3.649 0 2.011 1.55 3.648 3.46 3.648 1.911 0 3.466-1.637 3.466-3.648C9.18 2.59 7.625.953 5.715.953zm0 6.465c-1.477 0-2.672-1.262-2.672-2.816 0-1.555 1.195-2.817 2.672-2.817 1.476 0 2.676 1.262 2.676 2.817 0 1.554-1.2 2.816-2.676 2.816zM1.953.289c-.016-.035-.039-.035-.055 0l-.093.234a.449.449 0 00-.028.141v1.75H1.48V.664a.449.449 0 00-.027-.14L1.36.288c-.015-.035-.039-.035-.054 0L1.21.523a.597.597 0 00-.027.141v1.75H.887V.664a.442.442 0 00-.024-.14L.766.288C.754.254.73.254.715.29L.617.523a.442.442 0 00-.023.141v1.75H.297V.664A.597.597 0 00.27.524L.176.288C.16.254.136.254.12.29L.027.523A.449.449 0 000 .664l.016 1.742s.054.73.722.98l.008 5.216c-.012.296.172.394.317.398.14.004.308-.168.292-.387l.004-5.222c.766-.243.727-.973.727-.973V.672a.49.49 0 00-.04-.149zM11 4.375v4.11a.328.328 0 01-.32.335.328.328 0 01-.32-.336V5.293c-.325-.016-.583-.297-.583-.64V.644c0-.356.274-.645.61-.645.34 0 .613.29.613.645zm0 0" fill="#4d4d4d"/></svg>