<svg xmlns="http://www.w3.org/2000/svg" width="11" height="9" viewBox="0 0 11 9"><path d="M10.3 6H.7a.704.704 0 01-.696-.707.704.704 0 01.695-.703h9.602c.383 0 .691.316.695.703a.704.704 0 01-.695.707zM5.5 0C2.762 0 .488 1.043.285 3.684a.323.323 0 00.086.25c.063.07.149.109.242.105h9.707a.304.304 0 00.242-.105.323.323 0 00.086-.25C10.453 1.043 8.238 0 5.5 0zM1.195 3.3s-.46.036-.457-.01C.773 2.311 2.468.66 4.387.694c-2.364.473-2.867 2.07-3.192 2.606zM.465 6.56l-.024.027C.437 8.867 2.97 9 5.5 9c2.828 0 5.148-.066 5.125-2.441zm0 0" fill="#4d4d4d"/></svg>