<svg xmlns="http://www.w3.org/2000/svg" width="30" height="30"><circle style="isolation:auto;mix-blend-mode:normal;solid-color:#000;solid-opacity:1;marker:none" cx="15" cy="15" r="14.5" color="#000" overflow="visible" fill="#fff" fill-rule="evenodd" stroke="#f5b700"/><path d="M20.383 12.93h-1.305v-.16c.031-.02.094-.13.094-.13.015-.019.035-.038.05-.058.516-.539.801-1.246.801-1.984 0-1.715-1.515-3.098-3.304-2.91A2.994 2.994 0 0014.012 6 3 3 0 0011.3 7.688C9.516 7.5 8 8.883 8 10.598c0 .738.285 1.445.797 1.984.02.023.039.043.062.066l-.007 8.75c0 .883.734 1.602 1.636 1.602h7.043c.906 0 1.637-.719 1.64-1.602l.036-.683 1.156-.02c.903 0 1.637-.718 1.637-1.605v-4.578c0-.875-.723-1.582-1.617-1.582zM9.285 11.574l-.168.012c-.172-.3-.262-.64-.265-.988 0-1.305 1.226-2.352 2.625-2.032l.382.086.121-.367c.282-.863 1.106-1.45 2.032-1.45.926 0 1.75.587 2.031 1.45l.121.367.383-.086c1.398-.32 2.621.723 2.621 2.032 0 .355-.098.683-.258.976zm1.82 9.684c0 .23-.19.418-.425.418a.423.423 0 01-.426-.418v-7.836a.4.4 0 01.258-.383.427.427 0 01.593.387zm1.657 0c0 .23-.192.418-.426.418a.424.424 0 01-.43-.418v-7.836c0-.168.102-.32.258-.383.309-.117.598.102.598.387zm1.656 0c0 .23-.191.418-.43.418a.423.423 0 01-.425-.418v-7.84a.41.41 0 01.289-.39.43.43 0 01.566.398zm1.656 0c0 .23-.191.418-.43.418a.423.423 0 01-.425-.418v-7.836a.4.4 0 01.258-.383.43.43 0 01.597.387zm1.653 0c0 .23-.192.418-.426.418a.424.424 0 01-.43-.418v-7.84c0-.18.117-.336.293-.39a.426.426 0 01.563.398zm3.418-2.121a.775.775 0 01-.782.765h-1.285V13.81h1.285c.43 0 .782.343.782.765zm0 0" fill="#4d4d4d"/></svg>