<svg xmlns="http://www.w3.org/2000/svg" width="30" height="30"><circle style="isolation:auto;mix-blend-mode:normal;solid-color:#000;solid-opacity:1;marker:none" cx="15" cy="15" r="14.5" color="#000" overflow="visible" fill="#fff" fill-rule="evenodd" stroke="#f5b700"/><path d="M21.922 17.332H7.078c-.59 0-1.07-.492-1.07-1.098 0-.605.48-1.097 1.07-1.097h14.844c.59 0 1.07.492 1.07 1.097 0 .606-.48 1.098-1.07 1.098zM14.5 8c-4.234 0-7.746 1.621-8.059 5.73a.526.526 0 00.133.391c.098.106.23.164.371.164h15.008c.14 0 .274-.058.371-.164a.526.526 0 00.133-.39C22.152 9.62 18.734 8 14.5 8zm-6.652 5.133s-.711.058-.711-.02c.054-1.515 2.68-4.086 5.644-4.031-3.656.73-4.43 3.223-4.933 4.05zm-1.125 5.066l-.043.043C6.672 21.793 10.586 22 14.5 22c4.367 0 7.953-.105 7.922-3.797V18.2zm0 0" fill="#4d4d4d"/></svg>