<svg xmlns="http://www.w3.org/2000/svg" width="6" height="10" viewBox="0 0 6 10"><path d="M3.004 10L.254 4.102H5.75zm1.465-8.555v.004C4.469.668 3.812 0 3 0c-.813 0-1.469.633-1.469 1.418v.035c1.34.008 1.453 1.145 1.453 1.133.012-.469.47-1.023 1.485-1.14zm-1.52 1.711c0-.011-.004-.023-.004-.035-.015-.738-.62-1.336-1.386-1.375-.028 0-.055-.008-.079-.008-.816 0-1.476.633-1.476 1.418 0 .235.066.469.183.676h2.579c.12-.207.183-.441.183-.676zm1.57-1.418c-.007 0-.015.004-.023.004-.793.012-1.426.625-1.445 1.383 0 .012-.004.02-.004.031 0 .235.066.469.183.676H5.81c.12-.207.183-.441.183-.676.004-.785-.656-1.418-1.472-1.418zm0 0" fill="#4d4d4d"/></svg>