<svg xmlns="http://www.w3.org/2000/svg" width="30" height="30"><circle style="isolation:auto;mix-blend-mode:normal;solid-color:#000;solid-opacity:1;marker:none" cx="15" cy="15" r="14.5" color="#000" overflow="visible" fill="#fff" fill-rule="evenodd" stroke="#f5b700"/><g fill="#4d4d4d"><path d="M14.328 7c.27 0 .488.21.488.469 0 .375.172.55.5.851.36.328.805.735.805 1.528 0 .797-.45 1.203-.805 1.53-.328.302-.5.474-.5.852a.48.48 0 01-.488.47.48.48 0 01-.488-.47c0-.796.445-1.203.8-1.53.329-.302.5-.473.5-.852 0-.375-.171-.551-.5-.848-.355-.328-.8-.734-.8-1.531A.48.48 0 0114.328 7zm0 0"/><path d="M12.926 9c-.356-.328-.801-.734-.801-1.531A.48.48 0 0112.613 7a.48.48 0 01.492.469c0 .375.168.55.5.851.356.328.801.735.801 1.528 0 .797-.445 1.203-.804 1.53-.329.302-.497.474-.497.852a.48.48 0 01-.492.47.48.48 0 01-.488-.47c0-.796.445-1.203.8-1.53.329-.302.5-.473.5-.852 0-.375-.171-.551-.5-.848zm0 0M20.09 23H6.82c-.453 0-.816-.254-.816-.566 0-.313.363-.567.816-.567h13.27c.45 0 .816.254.816.567 0 .312-.367.566-.816.566zm0 0M22.996 16.133c.004.87-.555 1.652-1.406 1.965a2.25 2.25 0 01-2.418-.551c-.969 2.207-3.223 3.64-5.719 3.64-3.422 0-6.2-2.66-6.2-5.94 0-.75.15-1.497.442-2.192h11.52c.172.425.297.867.363 1.32a2.274 2.274 0 012.258-.102 2.098 2.098 0 011.16 1.86zm-2.168-1.227c-.723 0-1.305.559-1.305 1.246 0 .692.582 1.25 1.305 1.25.719 0 1.3-.558 1.3-1.25 0-.687-.581-1.246-1.3-1.246zm0 0"/></g></svg>