<svg xmlns="http://www.w3.org/2000/svg" width="30" height="30"><circle style="isolation:auto;mix-blend-mode:normal;solid-color:#000;solid-opacity:1;marker:none" cx="15" cy="15" r="14.5" color="#000" overflow="visible" fill="#f5b700" fill-rule="evenodd" stroke="#fff"/><path d="M15.313 20.473c-3.07 0-5.567-2.614-5.567-5.825 0-3.21 2.496-5.824 5.566-5.824s5.57 2.613 5.57 5.824-2.5 5.825-5.57 5.825zm0-11.094c-2.778 0-5.036 2.363-5.036 5.27 0 2.906 2.258 5.269 5.036 5.269 2.777 0 5.039-2.363 5.039-5.27 0-2.906-2.262-5.27-5.04-5.27zm0 9.336c-2.145 0-3.887-1.82-3.887-4.067 0-2.246 1.742-4.066 3.887-4.066 2.148 0 3.89 1.82 3.89 4.066 0 2.247-1.742 4.067-3.89 4.067zM9.84 8.418c-.024-.05-.055-.05-.078 0l-.137.34a.583.583 0 00-.04.199v2.531h-.433V8.957a.579.579 0 00-.035-.2l-.14-.339c-.02-.05-.055-.05-.079 0l-.136.34a.693.693 0 00-.04.199v2.531h-.429V8.957a.693.693 0 00-.04-.2l-.136-.339c-.023-.05-.058-.05-.078 0l-.14.34a.579.579 0 00-.036.199v2.531H7.43V8.957a.583.583 0 00-.04-.2l-.136-.339c-.02-.05-.055-.05-.078 0l-.137.34A.583.583 0 007 8.957l.023 2.52s.075 1.054 1.051 1.414l.012 7.53c-.02.434.25.571.457.579.207.008.453-.242.43-.559l.004-7.543c1.113-.351 1.058-1.402 1.058-1.402V8.973a.727.727 0 00-.058-.22zM23 14.32v5.938c0 .27-.207.484-.465.484a.473.473 0 01-.465-.484v-4.613c-.472-.024-.847-.43-.847-.926v-5.79c-.004-.511.394-.929.886-.929.493 0 .891.418.891.93zm0 0" fill="#fff"/></svg>