<svg xmlns="http://www.w3.org/2000/svg" width="30" height="30"><circle style="isolation:auto;mix-blend-mode:normal;solid-color:#000;solid-opacity:1;marker:none" cx="15" cy="15" r="14.5" color="#000" overflow="visible" fill="#f5b700" fill-rule="evenodd" stroke="#fff"/><g fill="#fff"><path d="M21.734 17.953c-.062.11-.136.406-.187.61-.145.601-.313 1.28-.871 1.386-.426.078-.801-.316-1.235-.773-.183-.196-.515-.543-.68-.617-.093.125-.222.464-.304.675-.227.594-.46 1.207-.973 1.246-.449.032-.793-.445-1.187-.992-.16-.226-.422-.59-.574-.703-.121.137-.305.508-.422.738-.328.649-.61 1.207-1.102 1.207-.5 0-.785-.558-1.117-1.203-.121-.238-.316-.617-.441-.746-.153.106-.426.477-.594.707-.402.547-.746 1.02-1.203.985-.516-.035-.754-.653-.989-1.246-.082-.215-.218-.567-.312-.688-.152.066-.492.426-.68.621-.437.457-.812.852-1.234.77-.559-.106-.711-.79-.852-1.39-.043-.204-.109-.497-.168-.606-.015 0-.027-.004-.039-.004a17333.8 17333.8 0 00-.566 3.96c.457.204 1.14.407 2.164.598 1.754.325 4.043.512 6.277.512 2.243 0 4.54-.188 6.305-.512 1.082-.199 1.785-.414 2.246-.629a660.25 660.25 0 00-.539-3.554.389.389 0 00-.043-.04c-.219-.195-.437-.363-.68-.312zm0 0"/><path d="M21.797 13.988a.601.601 0 01-.219.04.68.68 0 010-1.36l.016.004c-.121-.805-.211-1.379-.235-1.543-.3.336-.976.598-2.07.809-1.297.25-3.016.386-4.844.386-1.824 0-3.543-.137-4.84-.387-1.093-.21-1.77-.472-2.07-.808-.023.18-.117.848-.25 1.77.012 0 .02-.004.031-.004a.68.68 0 010 1.359.601.601 0 01-.218-.04c-.133.93-.282 1.97-.422 2.977.074.012.148.028.222.051.38.13.485.594.606 1.13.05.226.152.667.254.804.14-.082.402-.356.566-.528.446-.468.867-.914 1.336-.855.461.055.668.594.89 1.164.087.223.24.613.352.746.141-.11.387-.445.543-.656.395-.54.77-1.047 1.239-1.031.468.015.742.55 1.058 1.168.125.242.32.625.453.765.13-.144.32-.523.438-.762.312-.62.582-1.156 1.047-1.171.468-.016.816.472 1.222 1.035.149.207.387.535.528.652.105-.14.25-.52.332-.734.218-.57.422-1.114.883-1.168.468-.055.89.39 1.335.86.168.179.442.464.579.538.093-.113.207-.582.265-.812.133-.54.246-1.004.63-1.13.32-.105.608-.058.85.044l-.507-3.313zm-12.442.95a.681.681 0 010-1.364.681.681 0 010 1.363zm2.262.453a.681.681 0 010-1.363.681.681 0 010 1.363zm2.719.226a.678.678 0 01-.68-.68.679.679 0 111.356 0c0 .376-.301.68-.676.68zm2.715-.226a.681.681 0 010-1.363.681.681 0 010 1.363zm2.488-.454a.681.681 0 010-1.363.681.681 0 010 1.363zm0 0"/><path d="M16.04 9.418a1.819 1.819 0 00-.63-2.07 1.811 1.811 0 00-2.777 2.078c-2.852.156-4.945.66-4.945 1.258 0 .718 3.027 1.3 6.757 1.3 3.735 0 6.762-.582 6.762-1.3 0-.614-2.203-1.13-5.168-1.266zm0 0"/></g></svg>