<svg xmlns="http://www.w3.org/2000/svg" width="9" height="11" viewBox="0 0 9 11"><g fill="#4d4d4d"><path d="M8.988 5.473c.016-.114-.015-.227-.023-.34-.05-.703-.582-1.723-1.254-1.992-1.137-.461-2.2-.16-2.188-.157-.335.043-.683.09-1.023.102-.344-.012-.691-.059-1.027-.102-.578-.12-1.602-.16-2.184.157C.656 3.48.086 4.43.035 5.133c-.008.113-.039.226-.023.34-.032.254.015.511.043.77.133 1.175.953 2.01 1.71 2.859.215.242.446.464.684.68l.516.546c.45.485.902.719 1.535.664.633.055 1.086-.18 1.535-.664.172-.183.344-.363.516-.547.238-.215.469-.437.683-.68.758-.847 1.579-1.683 1.711-2.859.028-.258.075-.515.043-.77zM4.77 4.047c.66.055.62 1.254.058 1.41-.601.164-.918-1.484-.058-1.41zM1.035 6.172C.47 6.328.168 4.77.98 4.84c.625.05.586 1.183.055 1.332zm1.031 1.805c-.535.148-.816-1.317-.05-1.254.586.05.55 1.117.05 1.254zm.395-2.934c-.606.168-.922-1.484-.063-1.41.66.054.625 1.254.063 1.41zm.789 4.293c-.504.14-.766-1.234-.05-1.172.55.047.519 1.043.05 1.172zm.258-2.531c-.57.156-.871-1.403-.059-1.332.625.05.586 1.183.059 1.332zm1.172 3.347c-.457.13-.696-1.12-.043-1.066.5.043.468.95.043 1.066zm.308-2.359c-.5.137-.765-1.238-.05-1.176.55.047.519 1.043.05 1.176zm1.23 1.36c-.5.14-.765-1.235-.046-1.176.547.046.516 1.046.047 1.175zm.067-2.821c-.57.16-.867-1.402-.055-1.332.622.055.586 1.184.055 1.332zm1.297.906c-.535.149-.816-1.32-.055-1.254.59.051.555 1.114.055 1.254zm-.02-2.164c-.566.16-.867-1.398-.054-1.332.62.055.586 1.188.054 1.332zm0 0"/><path d="M1.195 2.281c.137-.02.407.004.543.059.18.074.219.183.407.27.062.027.12.05.183.07v.015a4.744 4.744 0 011.156.082c.313.043.672.086 1.016.102a9.801 9.801 0 001.004-.102 3.622 3.622 0 011.105-.094c.118-.038.266-.062.34-.09.32-.12.645-.28.906-.55.118-.121.508-.356.657-.164-.02-.031-.043-.055-.07-.082.003.004.007.004.011.008-.246-.184-1.172-.602-2.5.53-.047-.03.067-.21.078-.25.082-.21.219-.597.211-.831-.004-.3-.105-.578-.129-.875-.008-.106-.039-.203-.015-.297.007-.016.015-.027.023-.043a.07.07 0 01-.02.027A.217.217 0 016.138 0c-.285.426-.742.52-1.098.805-.094.074-.277.32-.351.425a1.317 1.317 0 00-.122.18c-.07.121-.105.274-.148.414a1.576 1.576 0 00-.305-.414c-.261-.265-.531-.367-.84-.523C2.363.418 1.23.586 1.09.703a.383.383 0 00-.14.133C.96.813.983.8 1.007.793v0c.21-.043.8.324.898.402.25.188.453.48.668.735-.082-.012-1.172-.395-1.777.386-.024.028.363-.03.398-.035zm0 0"/></g></svg>