<svg xmlns="http://www.w3.org/2000/svg" width="11" height="10" viewBox="0 0 11 10"><g fill="#4d4d4d"><path d="M4.656 5.445a.467.467 0 01.219.032c.125.05.21.14.23.238.06-.016.422-.09.532.223h.047c.132-.004.378-.028.488.253 0 0 1.422.266 2.379.72.148.066.297.124.453.175l.008-4.246a1.383 1.383 0 01-.36-.277 1.15 1.15 0 01-.32-.793V.004h-.7v.433c0 .684-.605 1.235-1.35 1.235h-.028c-.746 0-1.352-.55-1.352-1.234V.004h-.699V1.77c0 .292-.113.574-.32.792a1.34 1.34 0 01-.363.278v1.914zm0 0M8.41 7.348c-.957-.453-2.379-.72-2.379-.72-.11-.28-.355-.257-.488-.257h-.047c-.11-.312-.473-.234-.531-.219-.02-.097-.106-.191-.23-.238a.476.476 0 00-.223-.031l-1.617-.988a.165.165 0 00-.106-.028.17.17 0 00-.133.067l.012.02c-.32.41.715 1.46.55 1.609-.109.093-.394.199-.769.207a2.194 2.194 0 01-.71-.106c-.52-.16-.852-.836-1.098-.832-.082 0-.028.082-.2.29-.683.816-.375 2.108-.347 2.944.015.485.222.594.62.61l.083.277.066.043.63-.012c.03 0 .062-.015.062-.043l.058-.273c.086 0 .176 0 .27.004.078.004.207.004.379.008l.082.273c.008.027.035.043.062.043l.63-.008c.03 0 .054-.02.062-.047l.058-.242c.207 0 .434.004.668.008l.074.246a.068.068 0 00.067.043l.629-.008c.027 0 .05-.02.062-.047l.051-.222.676.011.07.223a.068.068 0 00.067.043l.628-.008c.028 0 .055-.02.063-.047l.05-.203c.235.004.462.004.684.008l.067.207c.008.027.035.043.062.043l.63-.008c.03 0 .054-.02.062-.047l.046-.191c.223.004.418.004.583.004l.062.18c.004.02.035.043.059.043l.636-.012c.024 0 .055-.02.055-.043l.055-.211c.879-.11 1.75-.457 1.738-1.074-.012-.735-1.633-.84-2.59-1.29zm0 0"/></g></svg>