<svg xmlns="http://www.w3.org/2000/svg" width="11" height="11" viewBox="0 0 11 11"><path d="M10.879 7.953l-.133.121a.417.417 0 01-.57-.008L6.832 4.742 5.66 5.782a.25.25 0 01-.344-.012.228.228 0 01.012-.332l1.164-1.036-.176-.175-1.18 1.05a.25.25 0 01-.343-.011.233.233 0 01.012-.336l1.172-1.043-.141-.14-1.188 1.058a.254.254 0 01-.347-.012.231.231 0 01.011-.332l1.18-1.05-.14-.141-1.196 1.062a.25.25 0 01-.343-.012.228.228 0 01.011-.332L5.012 2.93l-.14-.14-1.204 1.073a.254.254 0 01-.348-.015.228.228 0 01.016-.332L4.53 2.449l-.195-.191L3.125 3.34a.254.254 0 01-.348-.016.228.228 0 01.016-.332l1.203-1.074-.14-.137-1.223 1.086a.25.25 0 01-.344-.012.233.233 0 01.012-.335L3.516 1.44l-.141-.14-1.23 1.094a.254.254 0 01-.348-.012.228.228 0 01.016-.332L3.034.96 2.891.82l-1.235 1.1a.25.25 0 01-.347-.01.231.231 0 01.011-.333L2.89.18a.22.22 0 01.09-.047L3 .113a.412.412 0 01.566.008l7.32 7.285a.378.378 0 01-.007.547zm-1.973.852l-.32-.356c.152-.41.062-.867-.238-1.195a1.265 1.265 0 00-1.203-.375 1.226 1.226 0 00-.922.836L3.969 5.402C3.855 5.29.399 2.266.023 2.562c-.324.243 2.711 3.672 2.825 3.782L5.16 8.637c-.57.136-.965.636-.945 1.203.02.566.45 1.043 1.031 1.137a1.254 1.254 0 001.367-.735 1.18 1.18 0 00-.468-1.441c-.41-.469-1.536-1.57-1.895-1.918-.035-.031.094-.09.105-.102l1.961 1.856c.004-.004.008-.008.012-.016.18.316.5.54.871.602.367.066.75-.036 1.031-.274l.395.36s.805.406.91.035c.106-.371-.629-.54-.629-.54zm-2.73.996c0 .379-.324.687-.719.687-.394 0-.719-.308-.719-.687 0-.383.324-.692.719-.692.395 0 .719.309.719.692zm1.992-1.754c0 .383-.32.691-.715.691a.704.704 0 01-.719-.691c0-.383.32-.692.72-.692.394 0 .714.31.714.692zm0 0" fill="#4d4d4d"/></svg>