<svg xmlns="http://www.w3.org/2000/svg" width="11" height="9" viewBox="0 0 11 9"><g fill="#4d4d4d"><path d="M8.883 3.234V5.93H2.117V3.234h-.879V9h8.469V3.234zm0 0M9.555 0h-8.11L.004 1.777C0 1.817 0 1.852 0 1.887c0 .593.473 1.078 1.059 1.078s1.086-.485 1.086-1.078c0 .593.5 1.078 1.082 1.078.586 0 1.109-.485 1.109-1.078 0 .593.527 1.078 1.113 1.078.582 0 1.11-.485 1.11-1.078 0 .593.527 1.078 1.109 1.078.586 0 1.137-.485 1.137-1.078 0 .593.55 1.078 1.136 1.078.586 0 1.059-.59 1.059-1.188 0-.015 0 .02 0 0zm0 0"/></g></svg>