<svg xmlns="http://www.w3.org/2000/svg" width="30" height="30"><circle style="isolation:auto;mix-blend-mode:normal;solid-color:#000;solid-opacity:1;marker:none" cx="15" cy="15" r="14.5" color="#000" overflow="visible" fill="#fff" fill-rule="evenodd" stroke="#e47874"/><path d="M15.934 17.383c-1.54 1.012-2.743 1.89-2.743 1.89S8.543 14.243 7.02 9.29c-.34-.254 6.476-3.523 7.054-3.277.219.097 1.762 6.39 4.168 9.027.84.922 3.074 4.621 3.696 6.156a.755.755 0 01-.293.918L20.12 23c-1.617-1.586-2.984-3.492-4.187-5.617zm-2.66.933s4.214-3 4.007-3.195c-1.605-1.52-3.71-8.098-3.644-8.3L7.945 9.456c.918 3.266 5.328 8.86 5.328 8.86zm-.762-9.746c-.465 0-.844.395-.844.88 0 .484.379.878.844.878.465 0 .84-.394.84-.879 0-.484-.375-.879-.84-.879zm0 0" fill="#4d4d4d"/></svg>