<svg xmlns="http://www.w3.org/2000/svg" width="30" height="30"><circle style="isolation:auto;mix-blend-mode:normal;solid-color:#000;solid-opacity:1;marker:none" cx="15" cy="15" r="14.5" color="#000" overflow="visible" fill="#fff" fill-rule="evenodd" stroke="#e47874"/><path d="M22.824 18.566l-.195.18a.605.605 0 01-.828-.012l-4.863-4.84-1.704 1.516a.36.36 0 01-.5-.02.334.334 0 01.016-.484l1.691-1.504-.253-.254-1.715 1.528a.365.365 0 01-.504-.02.334.334 0 01.02-.484l1.702-1.516-.203-.203-1.73 1.535a.36.36 0 01-.5-.02.331.331 0 01.02-.484l1.714-1.527-.207-.203-1.738 1.55a.369.369 0 01-.504-.019.334.334 0 01.02-.484l1.726-1.54-.203-.202-1.754 1.558a.36.36 0 01-.5-.02.334.334 0 01.02-.484l1.738-1.55-.281-.278-1.766 1.57a.364.364 0 01-.5-.015.339.339 0 01.02-.488l1.75-1.559-.204-.203-1.777 1.582a.369.369 0 01-.504-.02.334.334 0 01.02-.484l1.765-1.574-.207-.203-1.785 1.593a.365.365 0 01-.504-.02.334.334 0 01.02-.484l1.773-1.582-.203-.203-1.8 1.602a.365.365 0 01-.505-.02.334.334 0 01.02-.484l2.281-2.027a.328.328 0 01.129-.075l.027-.027a.609.609 0 01.829.012L22.835 17.77a.552.552 0 01-.012.796zm-2.87 1.243l-.466-.516a1.693 1.693 0 00-.347-1.742 1.839 1.839 0 00-1.75-.543 1.776 1.776 0 00-1.34 1.215l-3.278-3.368c-.168-.164-5.191-4.558-5.738-4.128-.473.355 3.942 5.34 4.11 5.5l3.359 3.335h.004c-.832.196-1.406.926-1.38 1.75.032.825.657 1.516 1.5 1.657.845.14 1.673-.309 1.99-1.074.316-.766.03-1.637-.684-2.094-.59-.684-2.23-2.285-2.754-2.79-.051-.046.136-.128.152-.148l2.852 2.7.02-.02c.265.46.73.781 1.265.875.539.09 1.09-.055 1.504-.402l.57.527s1.172.586 1.324.047c.153-.54-.914-.781-.914-.781zm-3.974 1.445c0 .555-.464 1.004-1.043 1.004-.578 0-1.042-.45-1.042-1.004 0-.555.464-1.008 1.043-1.008.578 0 1.042.453 1.042 1.008zm2.903-2.55c0 .554-.469 1.003-1.043 1.003-.578 0-1.043-.45-1.043-1.004 0-.555.465-1.004 1.043-1.004.574 0 1.043.45 1.043 1.004zm0 0" fill="#4d4d4d"/></svg>