<svg xmlns="http://www.w3.org/2000/svg" width="11" height="10" viewBox="0 0 11 10"><path d="M679.97 97.595c70.276 14.657 121.2 43.97 152.434 87.94 5.431 7.328 4.413 18.32-2.037 24.549-.34 0-.34 0-.34.366-6.79 5.863-16.635 4.764-22.067-2.931-38.702-54.229-113.052-75.114-183.327-82.076-42.776 23.45-88.268 52.763-136.137 88.671 63.825 3.298 110.675 26.748 141.23 48.733 45.152 32.244 65.861 68.886 66.88 70.351 4.074 7.695 2.716 17.588-3.055 23.084-.68.733-1.358 1.1-2.037 1.466-7.13 5.13-16.975 2.565-21.728-5.863-.34-.366-18.672-32.244-58.054-60.458-47.868-33.71-104.903-47.267-169.407-40.671-20.71 17.221-41.758 35.908-62.806 55.328-13.58 12.458-26.48 24.916-38.703 37.007 69.257 1.1 119.842 25.65 152.094 48.733 45.152 32.61 65.861 69.252 66.54 70.718 4.414 7.694 3.056 17.587-3.055 23.084-.34.366-1.019 1.099-1.697 1.465-7.47 5.13-16.975 2.565-21.728-5.862-.34-.367-18.672-32.61-58.054-60.458-48.547-34.077-105.922-47.634-171.104-40.306-35.308 37.008-67.22 73.65-95.398 109.558 63.485 0 111.693 20.885 143.606 40.671 44.473 27.848 66.88 60.092 67.898 61.558 5.093 7.328 4.074 18.32-2.376 24.55 0 0-.34 0-.34.366-6.79 5.862-16.635 4.396-22.067-3.298-.34-.367-20.37-28.58-59.75-52.763-46.172-28.58-98.114-40.306-154.81-34.443-33.61 46.168-61.109 90.504-82.836 132.64C204 661.138 284.12 733.688 288.195 737.352c6.79 6.229 7.808 17.587 2.376 24.916-.679 1.099-1.358 1.832-2.037 2.565-5.771 5.496-14.598 5.496-20.37 0-.678-1.1-84.533-76.214-188.079-69.619-53.98 118.718-58.053 213.985-19.012 263.45C132.367 1049.9 352.7 887.58 603.245 650.877c250.207-236.335 431.497-490.259 376.16-564.64-35.308-46.901-146.322-57.893-299.434 11.358zm0 0" transform="matrix(.0115 0 0 .01066 -.394 -.505)" fill="#4d4d4d" stroke-width="1.858" stroke="#fff" stroke-miterlimit="10"/></svg>