<svg xmlns="http://www.w3.org/2000/svg" width="10" height="6" viewBox="0 0 10 6"><path d="M8.145 2.293c0-.219.218-.375.367-.375.144 0 .343.137.343.355 0 .22-.222.372-.367.372-.144 0-.343-.133-.343-.352zM7.039 5.77a13.501 13.501 0 010-5.54C6.652.09 6.25 0 5.832 0c-1.39 0-2.633.938-3.457 1.766-.176.171-.395.171-.566 0C1.336 1.293.734.789.043.44.016.43-.007.477.008.516c.172.472.32.96.433 1.382.192.704.192 1.5 0 2.204-.113.421-.261.91-.433 1.382-.016.04.008.086.035.075.695-.352 1.3-.86 1.773-1.332.168-.168.38-.168.547 0C3.191 5.055 4.438 6 5.832 6c.418 0 .82-.09 1.207-.23zm2.727-2.047c.308-.356.308-1.09 0-1.446C9.226 1.66 8.348.801 7.293.336a12.776 12.776 0 000 5.332c1.055-.469 1.934-1.328 2.473-1.945zm0 0" fill="#4d4d4d"/></svg>