<svg xmlns="http://www.w3.org/2000/svg" width="30" height="30"><circle style="isolation:auto;mix-blend-mode:normal;solid-color:#000;solid-opacity:1;marker:none" cx="15" cy="15" r="14.5" color="#000" overflow="visible" fill="#fff" fill-rule="evenodd" stroke="#e47874"/><g fill="#4d4d4d"><path d="M21.984 14.457c.024-.172-.027-.348-.039-.527-.078-1.082-.91-2.66-1.949-3.078-1.77-.711-3.422-.247-3.406-.239-.52.067-1.059.137-1.59.153a15.575 15.575 0 01-1.598-.157c-.902-.183-2.488-.246-3.398.243-.984.527-1.871 1.996-1.95 3.078-.011.18-.062.355-.038.527-.043.39.023.793.07 1.191.207 1.817 1.48 3.106 2.656 4.422.336.371.7.711 1.067 1.047.27.281.539.563.804.848.696.746 1.399 1.11 2.387 1.023.988.086 1.691-.277 2.387-1.023.265-.285.535-.567.804-.848.368-.336.73-.676 1.067-1.047 1.176-1.316 2.449-2.605 2.656-4.422.047-.398.113-.8.07-1.191zm-6.562-2.207c1.023.09.965 1.938.09 2.18-.938.261-1.43-2.293-.09-2.18zm-5.809 3.285c-.886.246-1.351-2.164-.09-2.058.973.086.915 1.832.09 2.058zm1.602 2.793c-.832.23-1.27-2.035-.082-1.937.914.078.86 1.722.082 1.937zm.613-4.535c-.941.258-1.43-2.293-.094-2.18 1.028.09.965 1.938.094 2.18zm1.227 6.637c-.782.218-1.192-1.91-.078-1.817.855.075.808 1.617.078 1.817zm.398-3.914c-.883.242-1.348-2.168-.086-2.059.969.082.914 1.828.086 2.059zm1.828 5.175c-.71.2-1.082-1.734-.07-1.648.777.066.73 1.469.07 1.648zm.48-3.648c-.78.215-1.19-1.914-.077-1.816.855.07.804 1.613.078 1.816zm1.915 2.102c-.781.214-1.192-1.91-.078-1.817.855.074.808 1.617.078 1.817zm.101-4.36c-.886.246-1.351-2.164-.086-2.058.97.086.914 1.832.086 2.058zm2.016 1.399c-.832.23-1.27-2.04-.082-1.938.914.078.86 1.723.082 1.938zm-.027-3.34c-.887.246-1.352-2.164-.086-2.059.968.082.91 1.832.086 2.059zm0 0"/><path d="M9.86 9.523c.214-.027.632.008.843.094.281.117.344.281.633.414.094.043.191.078.289.11-.004.007-.004.015-.008.023.121-.008.238-.008.348-.008.496 0 1.023.047 1.453.137.492.062 1.047.137 1.582.152a15.841 15.841 0 001.563-.148c.058-.024.164-.05.37-.082.317-.055.637-.078.958-.078.132 0 .261.004.386.011.184-.062.418-.097.532-.136.5-.188 1.003-.442 1.41-.852.183-.187.789-.555 1.023-.258-.035-.043-.07-.086-.113-.125l.02.012c-.383-.285-1.82-.93-3.891.824-.07-.05.101-.328.129-.39.125-.325.332-.922.324-1.286-.008-.464-.168-.89-.203-1.355-.012-.16-.059-.309-.024-.453.012-.024.024-.047.04-.066l-.032.042A.33.33 0 0117.543 6c-.438.656-1.148.805-1.703 1.246-.149.113-.434.496-.55.656-.071.09-.134.18-.188.278-.106.187-.16.425-.23.64a2.538 2.538 0 00-.474-.644c-.406-.406-.828-.563-1.304-.805-1.414-.723-3.176-.469-3.399-.285a.585.585 0 00-.218.207.137.137 0 01.093-.066c-.004.003-.004.003-.004.007 0-.004 0-.004.004-.007.325-.07 1.242.503 1.395.617.39.297.707.746 1.039 1.136-.129-.015-1.824-.609-2.762.598-.035.047.563-.047.617-.055zm0 0"/></g></svg>