<svg xmlns="http://www.w3.org/2000/svg" width="30" height="30"><circle style="isolation:auto;mix-blend-mode:normal;solid-color:#000;solid-opacity:1;marker:none" cx="15" cy="15" r="14.5" color="#000" overflow="visible" fill="#fff" fill-rule="evenodd" stroke="#e47874"/><g fill="#4d4d4d"><path d="M19.918 12.672v3.89h-9.84v-3.89H8.805V21H21.12v-8.328zm0 0M20.895 8H9.102l-2.094 2.57c-.004.051-.008.102-.008.153 0 .863.691 1.558 1.54 1.558.85 0 1.577-.695 1.577-1.558 0 .863.727 1.558 1.578 1.558.852 0 1.614-.695 1.614-1.558 0 .863.765 1.558 1.617 1.558.847 0 1.613-.695 1.613-1.558 0 .863.766 1.558 1.617 1.558.848 0 1.653-.695 1.653-1.558 0 .863.8 1.558 1.652 1.558.848 0 1.539-.851 1.539-1.71 0-.028 0 .023 0 0zm0 0"/></g></svg>