<svg xmlns="http://www.w3.org/2000/svg" width="7" height="10" viewBox="0 0 7 10"><path d="M4.734 9.996H0V4h4.734zm.07-8.644a1.31 1.31 0 00-.663-.579C3.848.66 3.469.633 3.184.63V.273H1.547V1.88h.492v.758h-.973v.949h2.598v-.95h-.973V1.88h.493v-.836c.492.004.996.07 1.226.484a.217.217 0 00.18.118.217.217 0 00.195-.086.191.191 0 00.02-.207zm1.919.628L7 1.727l-.379-.055-.164-.328-.176.324-.379.047.27.258-.07.355.343-.164.336.176zM5.563.64L5.84.388 5.46.332 5.298.004 5.12.328l-.379.047.27.258-.07.355.343-.164.336.176zm.375 2.958l.277-.25-.38-.055-.163-.328-.176.324-.379.047.27.258-.067.355.34-.164.336.172zm0 0" fill="#4d4d4d"/></svg>