<svg xmlns="http://www.w3.org/2000/svg" width="10" height="11" viewBox="0 0 10 11"><path d="M5.957 7.363A48.743 48.743 0 004.129 8.59S1.027 5.332.012 2.129C-.215 1.965 4.332-.152 4.715.008c.148.062 1.176 4.137 2.781 5.84.559.597 2.047 2.992 2.461 3.984a.472.472 0 01-.195.594L8.746 11C7.672 9.973 6.758 8.738 5.957 7.363zM4.18 7.97s2.812-1.942 2.672-2.067C5.785 4.918 4.379.664 4.426.532L.629 2.237c.613 2.114 3.55 5.73 3.55 5.73zm-.508-6.305a.563.563 0 00-.559.566c0 .317.25.57.559.57a.564.564 0 00.562-.57.563.563 0 00-.562-.566zm0 0" fill="#4d4d4d"/></svg>