<svg xmlns="http://www.w3.org/2000/svg" width="30" height="30"><circle style="isolation:auto;mix-blend-mode:normal;solid-color:#000;solid-opacity:1;marker:none" cx="15" cy="15" r="14.5" color="#000" overflow="visible" fill="#e47874" fill-rule="evenodd" stroke="#fff"/><path d="M16.438 22.996H9v-9.598h7.438zM16.55 9.16c-.012-.023-.313-.629-1.047-.922-.457-.18-1.05-.226-1.5-.23v-.57h-2.57v2.566h.773v1.219h-1.531v1.511h4.082v-1.511H13.23v-1.22h.774V8.669c.77.008 1.566.113 1.926.773a.349.349 0 00.593.051.327.327 0 00.028-.332zm3.012 1.004L20 9.766l-.594-.094-.261-.524-.274.52-.598.074.426.414-.11.57.54-.261.527.277zm-1.825-2.14l.438-.403-.594-.09-.258-.527-.273.52-.598.074.426.414-.11.57.536-.262.527.278zm.59 4.734l.438-.399-.594-.093-.258-.524-.273.52-.598.074.426.41-.11.574.536-.265.527.28zm0 0" fill="#fff"/></svg>