<svg xmlns="http://www.w3.org/2000/svg" width="30" height="30"><circle style="isolation:auto;mix-blend-mode:normal;solid-color:#000;solid-opacity:1;marker:none" cx="15" cy="15" r="14.5" color="#000" overflow="visible" fill="#fff" fill-rule="evenodd" stroke="#e47874"/><path d="M21.188 19.113H11.55c-.41 0-.742-.347-.742-.777 0-.434.332-.781.742-.781h9.543a.32.32 0 00.304-.25l1.59-6.668a.347.347 0 00-.054-.285.313.313 0 00-.25-.13H10.207L9.738 8.25A.32.32 0 009.43 8H7.316A.324.324 0 007 8.332c0 .18.14.328.316.328h1.868l.472 1.977 1.512 6.336a1.296 1.296 0 00-.59.343c-.258.27-.402.637-.402 1.016 0 .461.215.852.535 1.113-.043.035-.094.051-.133.094a1.485 1.485 0 00-.297 1.57c.211.54.711.891 1.27.891h.004c.758 0 1.375-.645 1.37-1.441 0-.297-.1-.551-.25-.782h7.388c-.149.235-.25.493-.25.782 0 .793.613 1.441 1.375 1.441h.003c.758-.004 1.375-.648 1.375-1.441-.003-.797-.62-1.442-1.378-1.446zm0 0" fill="#4d4d4d"/></svg>