<svg xmlns="http://www.w3.org/2000/svg" width="10" height="10" viewBox="0 0 10 10"><path d="M9.996 4.207c0-.75-.36-1.441-.953-1.844a1.951 1.951 0 00-1.977-.129V2.18C7.066.977 6.148 0 5.012 0 3.879 0 2.957.977 2.957 2.18v.015a1.953 1.953 0 00-1.988.11C.367 2.703.004 3.402.004 4.152c0 1.078.738 1.97 1.707 2.149a2.282 2.282 0 00-.356 2.297c.313.777 1.016 1.289 1.81 1.324.792.031 1.534-.422 1.901-1.168C5.414 9.53 6.16 10.02 6.973 10c.812-.02 1.535-.547 1.847-1.34a2.277 2.277 0 00-.406-2.336c.926-.234 1.578-1.11 1.582-2.117zM7.02 5.332c0 1.203-.922 2.18-2.055 2.18-1.137 0-2.059-.977-2.059-2.18 0-1.203.922-2.18 2.059-2.18 1.133 0 2.055.977 2.055 2.18zm0 0" fill="#4d4d4d"/></svg>