<svg xmlns="http://www.w3.org/2000/svg" width="11" height="10" viewBox="0 0 11 10"><path d="M9.059 3.934v2.859H1.89v-2.86H.96V10h8.973V3.934zm1.937-1.57c0-.016-.004-.028-.008-.044-.004-.007-.008-.02-.011-.027L8.723.051A.11.11 0 008.629 0H2.195c-.035 0-.07.02-.093.047L.027 2.293a.11.11 0 00-.023.07v.004c0 .64.523 1.16 1.164 1.16a1.17 1.17 0 001.059-.668 1.16 1.16 0 001.054.668c.516 0 .953-.336 1.11-.8.152.464.59.8 1.105.8.52 0 .961-.34 1.113-.808.149.469.59.808 1.11.808a1.16 1.16 0 001.054-.668c.188.395.59.668 1.059.668.64 0 1.164-.52 1.164-1.16v-.004zm-6.418-.122L4.754.246h1.2l.468 1.996zm6.074 0H8.727L7.504.246H8.57zM2.254.246h1.058L2.277 2.242H.355zm0 0" fill="#4d4d4d"/></svg>