<svg xmlns="http://www.w3.org/2000/svg" width="30" height="30"><circle style="isolation:auto;mix-blend-mode:normal;solid-color:#000;solid-opacity:1;marker:none" cx="15" cy="15" r="14.5" color="#000" overflow="visible" fill="#e47874" fill-rule="evenodd" stroke="#fff"/><g fill="#fff"><path d="M13.191 15.715a.669.669 0 01.34.047c.196.078.328.23.36.383.09-.024.652-.145.816.355 0 0 .027-.004.074-.004.211-.004.59-.039.754.41 0 0 2.203.426 3.68 1.149.226.11.46.203.7.285l.015-6.797a2.196 2.196 0 01-.559-.441 1.902 1.902 0 01-.492-1.27V7.004h-1.082v.7c0 1.089-.938 1.972-2.09 1.972h-.043c-1.152 0-2.086-.883-2.086-1.973v-.7h-1.086v2.829c.004.465-.172.918-.492 1.27a2.13 2.13 0 01-.559.441v3.062zm0 0M18.996 18.754c-1.476-.723-3.676-1.149-3.676-1.149-.168-.453-.547-.414-.754-.41h-.074c-.168-.5-.73-.375-.82-.355-.031-.152-.16-.3-.356-.38a.73.73 0 00-.34-.05l-2.503-1.578a.235.235 0 00-.16-.047.268.268 0 00-.208.11l.016.027c-.492.66 1.11 2.34.852 2.574-.168.156-.61.324-1.188.336a3.291 3.291 0 01-1.098-.172c-.804-.254-1.32-1.336-1.699-1.328-.125 0-.039.133-.304.461-1.059 1.309-.582 3.375-.536 4.71.024.774.34.954.954.981l.128.438.102.07.973-.015c.047 0 .097-.028.097-.07l.094-.438c.133 0 .27 0 .41.008.121.003.324.007.59.015l.125.434c.016.043.055.07.098.07l.972-.016c.047-.003.086-.03.098-.07l.09-.394c.32.007.668.011 1.031.015l.113.395c.016.043.055.07.102.07l.973-.016a.117.117 0 00.097-.07l.082-.36c.344.009.692.012 1.043.016l.11.36c.015.043.054.07.097.07l.973-.016c.047-.003.086-.03.098-.07l.078-.328 1.054.012.106.332c.012.043.055.07.098.07l.972-.016a.117.117 0 00.098-.07l.074-.308c.34 0 .645.003.895.003l.101.286c0 .035.051.07.086.07l.985-.016c.035 0 .085-.035.085-.07l.082-.336c1.356-.176 2.704-.734 2.688-1.719-.02-1.175-2.527-1.343-4.004-2.066zm0 0"/></g></svg>