<svg xmlns="http://www.w3.org/2000/svg" width="30" height="30"><circle style="isolation:auto;mix-blend-mode:normal;solid-color:#000;solid-opacity:1;marker:none" cx="15" cy="15" r="14.5" color="#000" overflow="visible" fill="#e47874" fill-rule="evenodd" stroke="#fff"/><path d="M20 12.898v4.293H8.922v-4.293H7.484V22h13.868v-9.102zm2.996-2.355c-.004-.02-.008-.043-.016-.063a.183.183 0 00-.02-.039l-3.48-3.363A.167.167 0 0019.336 7H9.395a.178.178 0 00-.145.074l-3.207 3.363a.204.204 0 00-.04.106v.008c0 .96.81 1.742 1.806 1.742.718 0 1.343-.414 1.628-1.004.29.59.91 1.004 1.633 1.004.797 0 1.477-.504 1.711-1.203a1.8 1.8 0 001.715 1.203c.8 0 1.484-.512 1.715-1.215a1.803 1.803 0 001.719 1.215c.722 0 1.343-.414 1.632-1.004.286.59.91 1.004 1.63 1.004.995 0 1.804-.781 1.804-1.742v-.008zm-9.922-.176l.274-3h1.851l.727 3zm9.387 0h-2.973l-1.886-3h1.64zm-12.977-3h1.637l-1.601 3H6.55zm0 0" fill="#fff"/></svg>