<svg xmlns="http://www.w3.org/2000/svg" width="30" height="30"><circle style="isolation:auto;mix-blend-mode:normal;solid-color:#000;solid-opacity:1;marker:none" cx="15" cy="15" r="14.5" color="#000" overflow="visible" fill="#fff" fill-rule="evenodd" stroke="#e47874"/><path d="M22.992 13.727c0-1.192-.574-2.305-1.523-2.946a3.138 3.138 0 00-3.164-.207c0-.027.004-.058.004-.086 0-1.925-1.473-3.484-3.29-3.484-1.816 0-3.289 1.559-3.289 3.484v.024a3.11 3.11 0 00-3.18.18c-.96.636-1.542 1.753-1.542 2.953 0 1.722 1.18 3.152 2.726 3.433-.843 1.008-1.062 2.442-.562 3.68.496 1.238 1.625 2.062 2.894 2.117 1.27.05 2.454-.676 3.043-1.867.555 1.242 1.75 2.023 3.047 1.992 1.301-.031 2.461-.875 2.957-2.148.5-1.27.242-2.735-.652-3.735 1.484-.37 2.527-1.773 2.531-3.39zm-4.762 1.808c0 1.926-1.472 3.485-3.289 3.485-1.816 0-3.289-1.56-3.289-3.485 0-1.93 1.473-3.488 3.29-3.488 1.816 0 3.288 1.558 3.288 3.488zm0 0" fill="#4d4d4d"/></svg>