<svg xmlns="http://www.w3.org/2000/svg" width="30" height="30"><circle style="isolation:auto;mix-blend-mode:normal;solid-color:#000;solid-opacity:1;marker:none" cx="15" cy="15" r="14.5" color="#000" overflow="visible" fill="#e47874" fill-rule="evenodd" stroke="#fff"/><path d="M679.87 97.779c70.296 14.656 121.26 43.969 152.454 87.48 5.491 7.558 4.393 18.55-1.977 24.733-.22.23-.22.23-.44.23-6.59 6.182-16.695 4.808-21.967-2.749-38.662-54.046-113.131-75.114-183.207-82.213-42.836 23.358-88.528 52.9-136.197 88.854 63.925 3.436 110.715 26.565 141.25 48.55 45.032 32.29 65.901 69.16 66.78 70.763 4.174 7.558 2.636 17.405-3.075 22.901l-1.977 1.374c-7.25 5.267-16.915 2.748-21.528-5.725-.44-.458-18.892-32.52-58.214-60.458-47.888-33.893-104.783-47.405-169.367-40.534-20.65 17.175-41.738 35.496-63.046 55.19a3290.889 3290.889 0 00-38.662 36.87c69.416 1.146 119.721 25.65 152.233 49.008 45.032 32.29 65.682 68.931 66.56 70.535 4.394 7.786 2.856 17.404-3.075 23.13-.44.457-1.098.915-1.757 1.373-7.25 5.038-17.135 2.52-21.748-5.725-.22-.687-18.672-32.519-58.213-60.458-48.328-34.122-105.663-47.633-170.686-40.534-35.587 37.099-67.44 73.74-95.557 109.465 63.485.23 111.593 21.07 143.446 40.993 44.374 27.939 67 60 67.879 61.374 5.272 7.557 4.393 18.32-2.197 24.504l-.44.458c-6.81 5.954-16.695 4.58-21.967-3.207-.439-.458-20.43-28.854-59.75-53.13-46.132-28.396-98.194-39.847-154.87-34.121-33.61 46.03-61.069 90.458-82.816 132.366 106.102 2.061 186.502 74.656 190.456 78.32 6.59 6.184 7.688 17.405 2.197 24.962-.66.916-1.319 1.603-1.978 2.29-5.711 5.497-14.498 5.497-19.99.23-1.098-.917-84.793-76.26-188.26-69.848-53.819 119.084-57.993 214.122-19.11 263.817 71.393 90.916 291.725-71.45 542.151-307.786 250.427-236.336 431.437-490.305 376.08-564.733-35.148-47.175-146.083-57.939-299.414 11.45zm0 0" transform="matrix(.01778 0 0 .01706 5.39 6.192)" fill="#fff" stroke-width="1.858" stroke="#fff" stroke-miterlimit="10"/></svg>