<svg xmlns="http://www.w3.org/2000/svg" width="30" height="30"><circle style="isolation:auto;mix-blend-mode:normal;solid-color:#000;solid-opacity:1;marker:none" cx="15" cy="15" r="14.5" color="#000" overflow="visible" fill="#fff" fill-rule="evenodd" stroke="#e47874"/><path d="M19.848 13.82c0-.367.37-.625.62-.625.243 0 .583.227.583.59 0 .367-.371.621-.617.621-.25 0-.586-.222-.586-.586zm-1.883 5.793a21.994 21.994 0 010-9.226 5.971 5.971 0 00-2.05-.387c-2.364 0-4.477 1.563-5.88 2.941-.293.29-.668.286-.96 0-.802-.785-1.829-1.625-3-2.207-.048-.02-.087.059-.06.121.29.79.54 1.606.735 2.305a7 7 0 010 3.68c-.195.7-.445 1.515-.734 2.305-.028.062.011.14.058.12 1.18-.585 2.211-1.433 3.012-2.218.285-.281.648-.281.934 0C11.426 18.426 13.543 20 15.914 20c.711 0 1.399-.148 2.05-.387zm4.637-3.41c.523-.59.523-1.816 0-2.406-.915-1.031-2.41-2.465-4.204-3.238a20.91 20.91 0 000 8.886c1.793-.777 3.29-2.21 4.204-3.242zm0 0" fill="#4d4d4d"/></svg>