<svg xmlns="http://www.w3.org/2000/svg" width="30" height="30"><circle style="isolation:auto;mix-blend-mode:normal;solid-color:#000;solid-opacity:1;marker:none" cx="15" cy="15" r="14.5" color="#000" overflow="visible" fill="#76009e" fill-rule="evenodd" stroke="#fff"/><g fill="#fff"><path d="M16.238 7.82a1.836 1.836 0 01-1.847 1.825c-1.024 0-1.852-.817-1.852-1.825 0-1.004.828-1.82 1.852-1.82 1.02 0 1.847.816 1.847 1.82zm0 0M20.719 20.48h-3.836c-.008 0-.016-.003-.016-.011-.004-.008-.004-.016.004-.02.809-.722 2.145-1.836 2.344-2.73.207-.922-1.008-5.953-1.02-6.012-.379-1.293-1.746-2.039-3.058-1.668h-.004l-4.645 2.207c-.011.004-.02 0-.027-.008l-1.043-1.562h-.004c-.191-.356-.664-.79-1.023-.598a.722.722 0 00-.301.985s1.324 2.757 1.785 2.984c.367.18 3.512-1.031 3.793-1.137a.012.012 0 01.016 0c.004.004.007.008.007.012l1.122 4.566a.877.877 0 01-.227.828l-2.41 2.47h-.004c-.274.237-.43.577-.43.937v.015c0 .7.574 1.262 1.278 1.262h7.699A1.27 1.27 0 0022 21.738a1.27 1.27 0 00-1.281-1.258zm0 0"/></g></svg>