<svg xmlns="http://www.w3.org/2000/svg" width="10" height="10" viewBox="0 0 10 10"><path d="M9.52 1.98c-.684-.632-1.868-.578-2.915.075a1.722 1.722 0 01.047-.45c.082-.382.371-.734.477-.851h.945V0H1.973v.754h.91c.117.082.222.176.308.285.192.234.266.734.29 1.07-1.063-.703-2.297-.78-3-.129-.415.387-.567.958-.43 1.602.129.594.492 1.191 1.023 1.684.16.148.328.324.508.507.168.176.348.36.54.547.233.926.726 1.852 1.374 2.45v.55l-.812.301V10h4.578v-.379l-.715-.3V8.77c.668-.614 1.168-1.563 1.394-2.512.168-.164.329-.328.477-.485.18-.183.348-.359.508-.507.531-.493.894-1.09 1.023-1.684.137-.644-.015-1.215-.43-1.602zM1.973 5.05c-.11-.112-.22-.218-.325-.32-.418-.386-.703-.847-.8-1.293-.047-.226-.086-.648.207-.921.465-.43 1.468-.223 2.261.437-.898.203-1.316.738-1.343 2.098zm7.18-1.612c-.098.445-.383.906-.801 1.292-.094.086-.184.18-.282.274-.03-1.309-.433-1.844-1.386-2.05.793-.661 1.8-.868 2.261-.438.293.273.254.695.207.921zm0 0" fill="#4d4d4d"/></svg>