<svg xmlns="http://www.w3.org/2000/svg" width="30" height="30"><circle style="isolation:auto;mix-blend-mode:normal;solid-color:#000;solid-opacity:1;marker:none" cx="15" cy="15" r="14.5" color="#000" overflow="visible" fill="#fff" fill-rule="evenodd" stroke="#76009e"/><g fill="#4d4d4d"><path d="M18.02 19.266c-.106.011-10.13 1.316-12 1.629L6.04 23h16.956v-4.5zm0 0M21.95 7l-9.055 6.398-.051.512.234-.164v2.23s-3.988 1.82-4.273 1.934c-.73.297-1.93.934-2.801 1.426l.012 1.2c2.058-.337 11.472-1.563 11.933-1.622l5.047-.773V7zM6.394 20.2l-.004-.442s.011-.13.035-.137c.039-.016.039.086.039.086l.004.473zm.418-.106l-.004-.496s.02-.164.062-.176c.066-.016.066.11.066.11l.012.523zm.437-.098l.008-.574s.023-.156.078-.156c.082 0 .09.015.09.015l.02.653zm.82-.195l-.21.043.007-.57s.028-.204.098-.22c.113-.023.113.137.113.137zm.496-.098l-.011-.719s.047-.254.164-.273c.183-.027.187.168.187.168l.02.742zm.868-.183l-.016-.793s.055-.317.203-.34c.23-.035.234.21.234.21l.024.821zm1.222-.254l-.008-1.008s.067-.395.254-.426c.29-.043.293.266.293.266l.016 1.039zm1.637-.332V17.57s.09-.492.324-.53c.356-.056.36.327.36.327L13 18.801zm1.371-3.7l-.027-.836s.047-.355.175-.382c.2-.04.2.207.2.207l.129.738zm.91 3.23l-.02-1.589s.13-.559.489-.598c.547-.066.55.317.55.317l.032 1.652zm1.235-4.308l-.075-1.304s.133-.555.489-.598c.547-.066.554.32.554.32l.028 1.07zm2.464 3.578l-.078-2.222s.188-.785.684-.844c.758-.09.945.441.945.441l.078 2.313zm.766-5.191l-.031-1.277s.203-.532.5-.579c.457-.07.601.157.601.157l.082 1.09zm0 0"/></g></svg>