<svg xmlns="http://www.w3.org/2000/svg" width="11" height="10" viewBox="0 0 11 10"><g fill="#4d4d4d"><path d="M1.445 3.258h.75c.184 0 .336.14.336.312v3.993c0 .171-.152.308-.336.308h-.75c-.187 0-.34-.137-.34-.309V3.57c0-.172.153-.312.34-.312zm0 0M3.89 3.258h.75c.188 0 .34.14.34.312v3.993c0 .171-.152.308-.34.308h-.75c-.183 0-.335-.137-.335-.309V3.57c0-.172.152-.312.336-.312zm0 0M6.34 3.258h.75c.187 0 .336.14.336.312v3.993c0 .171-.149.308-.336.308h-.75c-.188 0-.34-.137-.34-.309V3.57c0-.172.152-.312.34-.312zm0 0M8.79 3.258h.745c.188 0 .34.14.34.312v3.993c0 .171-.152.308-.34.308H8.79c-.187 0-.34-.137-.34-.309V3.57c0-.172.153-.312.34-.312zm0 0M.367 8.836H10.66c.188 0 .34.14.34.312v.54c0 .171-.152.312-.34.312H.367c-.187 0-.34-.14-.34-.313v-.539c0-.171.153-.312.34-.312zm0 0M10.64 2.148H.36C.16 2.148 0 2 0 1.82c0-.144.102-.27.246-.312L5.164.047c.207-.063.434-.063.645 0l4.941 1.46c.148.044.25.169.25.313 0 .18-.16.328-.36.328zm0 0"/></g></svg>