<svg xmlns="http://www.w3.org/2000/svg" width="30" height="30"><circle style="isolation:auto;mix-blend-mode:normal;solid-color:#000;solid-opacity:1;marker:none" cx="15" cy="15" r="14.5" color="#000" overflow="visible" fill="#76009e" fill-rule="evenodd" stroke="#fff"/><path d="M21.645 22.992H8.355c-.359 0-.703-.152-.957-.418A1.47 1.47 0 017 21.56V8.44c0-.379.14-.746.398-1.015.254-.266.598-.418.957-.418h13.29c.359 0 .703.152.957.418.257.27.398.636.398 1.015V21.56c0 .793-.605 1.433-1.355 1.433zM8.094 9.551h1.21V8.273h-1.21zm0 2.422h1.21v-1.278h-1.21zm0 2.422h1.21v-1.278h-1.21zm0 2.417h1.21v-1.277h-1.21zm0 2.422h1.21v-1.277h-1.21zm0 2.422h1.21V20.38h-1.21zM20.676 9.551h1.207V8.273h-1.207zm0 2.422h1.207v-1.278h-1.207zm0 2.422h1.207v-1.278h-1.207zm0 2.417h1.207v-1.277h-1.207zm0 2.422h1.207v-1.277h-1.207zm0 2.422h1.207V20.38h-1.207zm-9.082-7.261h6.84V8.273h-6.84zm0 7.261h6.84v-6.12h-6.84zm0 0" fill="#fff"/></svg>