<svg xmlns="http://www.w3.org/2000/svg" width="9" height="11" viewBox="0 0 9 11"><g fill="#4d4d4d"><path d="M5.297 1.18c0 .648-.531 1.18-1.192 1.18a1.185 1.185 0 01-1.187-1.18C2.918.527 3.449 0 4.105 0c.66 0 1.192.527 1.192 1.18zm0 0M8.176 9.371H5.71c-.004 0-.008-.004-.012-.008 0-.008 0-.011.004-.015.52-.465 1.379-1.184 1.508-1.766.133-.598-.649-3.852-.656-3.89a1.592 1.592 0 00-1.97-1.079l-2.987 1.43c-.004 0-.012 0-.016-.004L.91 3.027c-.125-.23-.43-.511-.66-.39a.471.471 0 00-.191.64S.91 5.06 1.207 5.207c.234.117 2.254-.668 2.438-.738.003 0 .003 0 .007.004.004 0 .008.004.008.007l.719 2.954a.573.573 0 01-.145.535l-1.55 1.597a.805.805 0 00-.278.606v.012c0 .453.367.816.82.816h4.95A.82.82 0 009 10.184a.82.82 0 00-.824-.813zm0 0"/></g></svg>