<svg xmlns="http://www.w3.org/2000/svg" width="30" height="30"><circle style="isolation:auto;mix-blend-mode:normal;solid-color:#000;solid-opacity:1;marker:none" cx="15" cy="15" r="14.5" color="#000" overflow="visible" fill="#76009e" fill-rule="evenodd" stroke="#fff"/><path d="M17.668 21.898l.023-2.128-.609-.801V16.5h.273v-.55l-.304-.481.031-3.91h.719l-2.57-2.926V7.27h.792v-.438h-.793V6h-.398v.832h-.793v.438l.793-.012v1.387l-2.652 2.914h.84v3.91l-.34.48.02.551h.327v2.469l-.601.8v2.13H11V23h8v-1.102zM14.57 12.11c0-.234.196-.425.438-.425s.437.191.437.425v3.13h-.875zm0 0" fill="#fff"/></svg>