<svg xmlns="http://www.w3.org/2000/svg" width="11" height="11" viewBox="0 0 11 11"><g fill="#4d4d4d"><path d="M8.602 4.027c-.172 2.856-3.168 1.77-3.77 2.282-.332.285-.332.695 0 1.007.457.434.277 1.223-.355 1.278C2.016 8.813 0 6.879 0 4.434 0 1.988 2.004.004 4.477.004c2.472 0 4.246 1.945 4.125 4.023zm-1.7-1.27a.834.834 0 00-.84.833c0 .46.375.832.84.832a.838.838 0 00.844-.832.838.838 0 00-.844-.832zM5.523.856a.841.841 0 00-.843.836c0 .461.379.832.843.832a.834.834 0 100-1.668zM3.141.883a.838.838 0 00-.844.832c0 .46.379.832.844.832.464 0 .84-.371.84-.832a.834.834 0 00-.84-.832zM1.703 2.777a.838.838 0 00-.84.836c0 .457.375.832.84.832a.84.84 0 00.844-.832.841.841 0 00-.844-.836zm0 0M5.047 9.164c-.41.004-.586.238-.656.57-.016.07-.028.204-.04.274-.035.238-.046.207-.062.277-.027.137-.168.367-.262.48-.293.344-.047.215.035.172.122-.058.13-.074.442-.203.3-.12.41-.207.594-.254.328-.09.613-.312.617-.648.008-.371-.258-.668-.668-.668zm0 0M5.82 9.473l1.461-1.078-.781-.782-1.055 1.461zm0 0M7.469 8.25l-.79-.805c-.09.028 3.97-3.656 4.301-3.48.332.176-3.453 4.316-3.511 4.285zm0 0"/></g></svg>