<svg xmlns="http://www.w3.org/2000/svg" width="30" height="30"><circle style="isolation:auto;mix-blend-mode:normal;solid-color:#000;solid-opacity:1;marker:none" cx="15" cy="15" r="14.5" color="#000" overflow="visible" fill="#fff" fill-rule="evenodd" stroke="#76009e"/><g fill="#4d4d4d"><path d="M14.953 15.395l-4.344 2.152.04 5.45h3.046v-2.688c0-.66.563-1.196 1.258-1.196.695 0 1.258.535 1.258 1.196v2.687h3.05v-5.488zm-2 5.734h-1.398v-1.414c0-.367.312-.664.699-.664.387 0 .7.297.7.664zm5.379 0h-1.398v-1.414c0-.367.312-.664.699-.664.383 0 .699.297.699.664zm0 0"/><path d="M16.844 15.43l.039-1.504h.68l-2.313-2.727V8.961h1.254v-.672H15.25V7.004h-.629v1.285h-1.254v.672h1.254v2.238l-2.387 2.727h.793v1.504L10.2 16.836a.346.346 0 00-.148.492.39.39 0 00.496.133l4.406-2.211 4.496 2.215a.383.383 0 00.488-.121.348.348 0 00.051-.29.386.386 0 00-.195-.226zm-1.926-1.059c-.387 0-.7-.297-.7-.664 0-.363.313-.66.7-.66.383 0 .7.297.7.66 0 .367-.317.664-.7.664zm0 0"/></g></svg>