<svg xmlns="http://www.w3.org/2000/svg" width="11" height="11" viewBox="0 0 11 11"><path d="M10.992 5.14c-.219 3.65-4.047 2.262-4.816 2.919-.422.363-.422.886 0 1.289.582.55.355 1.558-.453 1.629C2.574 11.257 0 8.789 0 5.66 0 2.535 2.563 0 5.723 0c3.16 0 5.425 2.484 5.27 5.14zM8.824 3.52c-.594 0-1.078.476-1.078 1.062 0 .59.484 1.066 1.078 1.066a1.07 1.07 0 001.074-1.066c0-.586-.48-1.062-1.074-1.062zM7.06 1.09c-.594 0-1.079.48-1.079 1.066 0 .59.485 1.067 1.079 1.067a1.07 1.07 0 001.074-1.067c0-.586-.48-1.066-1.074-1.066zm-3.047.031c-.594 0-1.074.48-1.074 1.067 0 .59.48 1.066 1.074 1.066A1.07 1.07 0 005.09 2.187c0-.585-.48-1.066-1.078-1.066zM2.176 3.547c-.594 0-1.074.476-1.074 1.062 0 .59.48 1.067 1.074 1.067a1.07 1.07 0 001.078-1.067 1.07 1.07 0 00-1.078-1.062zm0 0" fill="#4d4d4d"/></svg>