<svg xmlns="http://www.w3.org/2000/svg" width="30" height="30"><circle style="isolation:auto;mix-blend-mode:normal;solid-color:#000;solid-opacity:1;marker:none" cx="15" cy="15" r="14.5" color="#000" overflow="visible" fill="#76009e" fill-rule="evenodd" stroke="#fff"/><g fill="#fff"><path d="M9.035 13.121L9.797 17H6l.73-3.879-.414-.527V12h.747v.496h.464V12h.73v.496h.462V12h.746v.594zm-.84 1.121c0-.219-.14-.394-.312-.394s-.313.175-.313.394v.598h.625zm0 0M15.637 13.121L16.398 17h-3.796l.73-3.879-.414-.527V12h.746v.496h.465V12h.73v.496h.461V12h.746v.594zm-.84 1.121c0-.219-.14-.394-.313-.394-.171 0-.312.175-.312.394v.598h.625zm0 0M22.238 13.121L23 17h-3.797l.73-3.879-.413-.527V12h.746v.496h.464V12h.727v.496h.465V12h.746v.594zm-.84 1.121c0-.219-.14-.394-.312-.394s-.313.175-.313.394v.598h.625zm0 0"/><path d="M12.516 16.477l-2.625.015-.555-2.847h3.672zm0 0M19.14 16.477l-2.62.015-.56-2.847h3.673zm0 0"/></g></svg>