<svg xmlns="http://www.w3.org/2000/svg" width="30" height="30"><circle style="isolation:auto;mix-blend-mode:normal;solid-color:#000;solid-opacity:1;marker:none" cx="15" cy="15" r="14.5" color="#000" overflow="visible" fill="#fff" fill-rule="evenodd" stroke="#76009e"/><path d="M20.996 21.133v1.734a.135.135 0 01-.137.133H8.141a.135.135 0 01-.137-.133v-1.734c0-.074.062-.133.137-.133h12.718c.075 0 .137.059.137.133zM16.211 8.867V7.133A.135.135 0 0016.074 7h-3.148a.135.135 0 00-.137.133v1.734a.133.133 0 01-.137.133H11.56a.135.135 0 01-.137-.133V7.801a.133.133 0 00-.137-.133H9.508a.135.135 0 00-.137.133v3.066c0 .074.063.133.137.133h9.984a.135.135 0 00.137-.133V7.801a.135.135 0 00-.137-.133h-1.777a.133.133 0 00-.137.133v1.066a.135.135 0 01-.137.133h-1.093a.133.133 0 01-.137-.133zM9.703 20.332h9.594a.142.142 0 00.129-.082.135.135 0 00-.031-.145l-1.778-1.734a.121.121 0 01-.039-.094V14.38c0-.031.008-.059.027-.082l1.86-2.418a.125.125 0 00.012-.137.134.134 0 00-.122-.074h-9.71a.134.134 0 00-.122.074.125.125 0 00.012.137l1.86 2.418c.02.023.027.05.027.082v3.898c0 .035-.012.07-.04.094l-1.777 1.734a.135.135 0 00-.03.145c.023.05.073.082.128.082zm0 0" fill="#4d4d4d"/></svg>