<svg xmlns="http://www.w3.org/2000/svg" width="6" height="11" viewBox="0 0 6 11"><path d="M5.43 9.848h-.907c.125-.45.461-1.676.454-2.043-.024-.836-.668-1.453-.668-1.453v-.696c0-.086.043-.164.113-.21l.586-.462a.167.167 0 00.043-.046.539.539 0 00.086-.22c-.012-.202.008-.616-.02-.769-.023-.14-.047-.52-1.238-.687-.074-.012-.14-.309.027-.453.2-.172.617-.836.356-1.59C4.145.87 3.984.422 3.5.098c-.355-.235-1.164 0-1.379.214-.168.168-.836.333-.86.715-.034.551-.046.594.5 1.473.083.129.25-.016.384.145.14.167.27.253.308.355.035.094.027.2-.023.285 0 0-1.57.61-1.668.856-.117.308-.082 1.425.047 1.57.125.137.332.156.484.144a.22.22 0 01.227.176l.101.465s-.55 1.117-.43 1.781c.09.508.524 1.243.727 1.57H.57a.571.571 0 00-.57.571V11l6-.047v-.535a.571.571 0 00-.57-.57zm0 0" fill="#4d4d4d"/></svg>