<svg xmlns="http://www.w3.org/2000/svg" width="30" height="30"><circle style="isolation:auto;mix-blend-mode:normal;solid-color:#000;solid-opacity:1;marker:none" cx="15" cy="15" r="14.5" color="#000" overflow="visible" fill="#76009e" fill-rule="evenodd" stroke="#fff"/><path d="M15.383 19.914l-.004-.004a.15.15 0 01-.035-.098V11.98c0-.085.074-.16.164-.16h2.851c.094 0 .168-.07.168-.156v-1.238c0-.086-.074-.156-.168-.156h-2.851a.162.162 0 01-.164-.16V7.16c0-.09-.078-.16-.168-.16h-1.258a.163.163 0 00-.168.16v2.95c0 .09-.074.16-.168.16H10.73c-.09 0-.164.07-.164.156v1.238c0 .086.075.156.164.156h2.852c.094 0 .168.075.168.16v7.829c0 .039-.016.074-.04.101a.163.163 0 01-.116.059c-3.203.168-5.965 1.234-7.543 2.761a.15.15 0 00-.035.172.164.164 0 00.152.098h16.664c.066 0 .129-.04.152-.098a.15.15 0 00-.035-.172c-1.562-1.511-4.285-2.57-7.449-2.757a.163.163 0 01-.117-.059zm0 0" fill="#fff"/></svg>