<svg xmlns="http://www.w3.org/2000/svg" width="30" height="30"><circle style="isolation:auto;mix-blend-mode:normal;solid-color:#000;solid-opacity:1;marker:none" cx="15" cy="15" r="14.5" color="#000" overflow="visible" fill="#fff" fill-rule="evenodd" stroke="#76009e"/><path d="M22.23 9.371c-1.093-1.082-2.988-.984-4.66.117-.007-.254.02-.511.07-.761.133-.653.598-1.243.766-1.446h1.512V6h-9.762v1.281h1.457c.188.137.356.301.496.485.305.402.418 1.246.461 1.82-1.703-1.191-3.675-1.328-4.8-.215-.665.656-.91 1.621-.688 2.723.203 1.004.785 2.02 1.633 2.855.258.254.527.551.812.867.274.297.559.61.868.926.37 1.574 1.16 3.149 2.203 4.164v.938l-1.301.515V23h7.32v-.64l-1.14-.516v-.938c1.066-1.039 1.867-2.656 2.226-4.265.274-.282.527-.559.77-.825.285-.316.554-.613.812-.867.848-.836 1.43-1.851 1.633-2.855.223-1.102-.023-2.067-.688-2.723zm-12.07 5.215c-.18-.188-.351-.371-.523-.543-.668-.66-1.125-1.441-1.278-2.203-.078-.383-.14-1.102.332-1.563.739-.726 2.348-.382 3.614.743-1.434.347-2.106 1.253-2.145 3.566zm11.48-2.746c-.152.762-.609 1.543-1.277 2.203-.148.148-.297.3-.449.465-.05-2.227-.695-3.137-2.219-3.492 1.27-1.121 2.875-1.465 3.614-.739.472.461.41 1.18.332 1.563zm0 0" fill="#4d4d4d"/></svg>