<svg xmlns="http://www.w3.org/2000/svg" width="11" height="9" viewBox="0 0 11 9"><path d="M.133 0h10.676v.797H.133zm7.441 1.863H3.391l-.559-.8h5.352zM3.766 9V2.152h.793V9zm1.277 0V2.152h.797V9zm1.34 0V2.152h.797V9zM3.324 2.555c0-.012 0-.028-.004-.04a1.786 1.786 0 00-.332-.765c-.254-.34-.61-.762-1.508-.762-.382 0-.863.176-1.113.473a1.582 1.582 0 00-.363.957c-.024.637.351 1.305 1.246 1.371.563.04.836-.246.95-.422.202-.316.21-.762.023-1.105-.149-.27-.387-.43-.664-.438-.114-.015-.403-.02-.598.13a.409.409 0 00-.176.292c-.02.152.09.277.242.293a.275.275 0 00.286-.164.663.663 0 01.175.004.19.19 0 00.047.004c.098 0 .219.078.258.144a.493.493 0 01-.063.54c-.093.113-.23.18-.44.163-.7-.05-.735-.62-.731-.792.023-.57.421-.868.789-.88.789-.019.922.172 1.18.508.113.153.195.329.238.512L2.742 9h.555zm4.352-.008c0-.016 0-.027.004-.043a1.78 1.78 0 01.332-.762c.254-.34.61-.762 1.508-.762.382 0 .863.176 1.113.473.219.258.351.606.363.957.024.633-.351 1.305-1.246 1.367-.563.043-.836-.246-.95-.418-.202-.316-.21-.761-.023-1.109.149-.266.387-.426.664-.434.114-.02.403-.02.598.13a.408.408 0 01.176.288.262.262 0 01-.242.297.278.278 0 01-.286-.168.664.664 0 00-.175.008c-.016 0-.032.004-.047.004a.352.352 0 00-.258.145.486.486 0 00.063.535c.093.117.23.183.44.168.7-.051.735-.621.731-.793-.023-.57-.421-.868-.789-.88-.789-.023-.922.173-1.18.509a1.366 1.366 0 00-.238.511L8.258 9h-.555zm0 0" fill="#4d4d4d"/></svg>