<svg xmlns="http://www.w3.org/2000/svg" width="30" height="30"><circle style="isolation:auto;mix-blend-mode:normal;solid-color:#000;solid-opacity:1;marker:none" cx="15" cy="15" r="14.5" color="#000" overflow="visible" fill="#76009e" fill-rule="evenodd" stroke="#fff"/><path d="M23 19.492h-1.46V9.008h-1.462v1.531l-1.433-.016V9.008h-1.461v3.703l-2.211-2.188-2.125 2.215-.004-3.73h-1.45v1.515H9.95V9.008H8.473v10.484H7v1.488l5.75-.015.098.004c-.004-.043-.004-.086-.004-.13v-3.585c0-1.227.976-2.234 2.168-2.234 1.195 0 2.172 1.007 2.172 2.234v3.586c0 .05-.004.101-.008.152h.234v-.012H23zm0 0" fill="#fff"/></svg>