<svg xmlns="http://www.w3.org/2000/svg" width="30" height="30"><circle style="isolation:auto;mix-blend-mode:normal;solid-color:#000;solid-opacity:1;marker:none" cx="15" cy="15" r="14.5" color="#000" overflow="visible" fill="#fff" fill-rule="evenodd" stroke="#76009e"/><g fill="#4d4d4d"><path d="M19.293 12.223c-.266 4.414-4.895 2.734-5.824 3.53-.512.438-.512 1.071 0 1.556.703.668.426 1.886-.551 1.972C9.113 19.621 6 16.633 6 12.851c0-3.78 3.098-6.847 6.918-6.847 3.82 0 6.562 3.008 6.375 6.219zm-2.625-1.965c-.719 0-1.3.578-1.3 1.289 0 .71.581 1.289 1.3 1.289.719 0 1.3-.578 1.3-1.29 0-.71-.581-1.288-1.3-1.288zm-2.133-2.934c-.719 0-1.3.578-1.3 1.29 0 .71.581 1.284 1.3 1.284.719 0 1.3-.574 1.3-1.285 0-.71-.581-1.289-1.3-1.289zm-3.683.04c-.72 0-1.301.574-1.301 1.284 0 .711.582 1.29 1.3 1.29.72 0 1.301-.579 1.301-1.29 0-.71-.582-1.285-1.3-1.285zm-2.22 2.929c-.718 0-1.3.578-1.3 1.289s.582 1.285 1.3 1.285c.72 0 1.302-.574 1.302-1.285 0-.71-.582-1.289-1.301-1.289zm0 0M13.8 20.164c-.632.004-.905.367-1.015.883-.023.105-.043.312-.058.418-.055.367-.075.32-.098.433-.043.207-.258.563-.406.739-.45.535-.07.332.054.27.192-.098.2-.122.68-.317.469-.188.637-.32.922-.395.508-.136.95-.48.957-1.004.004-.566-.398-1.027-1.035-1.027zm0 0M14.992 20.637l2.262-1.664-1.207-1.207-1.629 2.261zm0 0M17.543 18.746l-1.223-1.242c-.14.047 6.133-5.649 6.649-5.379.515.273-5.332 6.676-5.426 6.621zm0 0"/></g></svg>