<svg xmlns="http://www.w3.org/2000/svg" width="30" height="30"><circle style="isolation:auto;mix-blend-mode:normal;solid-color:#000;solid-opacity:1;marker:none" cx="15" cy="15" r="14.5" color="#000" overflow="visible" fill="#fff" fill-rule="evenodd" stroke="#76009e"/><path d="M18.14 21.219h-1.355c.192-.696.695-2.59.68-3.16-.035-1.286-1-2.243-1-2.243v-1.078c0-.129.062-.25.168-.32l.879-.715a.284.284 0 00.066-.07c.059-.094.133-.27.125-.34-.02-.313.012-.957-.023-1.188-.04-.218-.075-.808-1.86-1.066-.11-.016-.215-.476.035-.695.305-.27.93-1.293.536-2.465-.176-.531-.418-1.23-1.141-1.727-.535-.367-1.746 0-2.07.332-.25.258-1.25.516-1.285 1.102-.055.852-.075.918.75 2.277.12.203.375-.02.57.223.21.258.406.394.465.55.05.145.039.305-.035.442 0 0-2.36.938-2.5 1.32-.18.48-.122 2.207.07 2.426.187.215.496.242.722.227a.327.327 0 01.34.27l.153.718s-.82 1.727-.645 2.754c.137.781.785 1.922 1.09 2.426h-2.016a.87.87 0 00-.859.883V23l9-.07v-.828a.87.87 0 00-.86-.883zm0 0" fill="#4d4d4d"/></svg>