<svg xmlns="http://www.w3.org/2000/svg" width="30" height="30"><circle style="isolation:auto;mix-blend-mode:normal;solid-color:#000;solid-opacity:1;marker:none" cx="15" cy="15" r="14.5" color="#000" overflow="visible" fill="#fff" fill-rule="evenodd" stroke="#76009e"/><g fill="#4d4d4d"><path d="M8.234 12.215h1.157a.51.51 0 01.523.496v6.387a.51.51 0 01-.523.496H8.234a.51.51 0 01-.523-.496V12.71a.51.51 0 01.523-.496zm0 0M12.016 12.215h1.156a.51.51 0 01.523.496v6.387a.51.51 0 01-.523.496h-1.156a.51.51 0 01-.524-.496V12.71a.51.51 0 01.524-.496zm0 0M15.797 12.215h1.16a.51.51 0 01.52.496v6.387a.51.51 0 01-.52.496h-1.16a.51.51 0 01-.524-.496V12.71a.51.51 0 01.524-.496zm0 0M19.582 12.215h1.156a.51.51 0 01.524.496v6.387a.51.51 0 01-.524.496h-1.156a.51.51 0 01-.523-.496V12.71a.51.51 0 01.523-.496zm0 0M6.566 21.137h15.91c.29 0 .524.222.524.5v.863a.51.51 0 01-.523.496H6.567a.51.51 0 01-.524-.496v-.863c0-.278.234-.5.523-.5zm0 0M22.445 10.438H6.555A.542.542 0 016 9.91c0-.226.156-.43.383-.5l7.594-2.332a1.692 1.692 0 011.003 0l7.637 2.332c.227.07.383.274.383.5 0 .29-.246.528-.555.528zm0 0"/></g></svg>