<svg xmlns="http://www.w3.org/2000/svg" width="30" height="30"><circle style="isolation:auto;mix-blend-mode:normal;solid-color:#000;solid-opacity:1;marker:none" cx="15" cy="15" r="14.5" color="#000" overflow="visible" fill="#76009e" fill-rule="evenodd" stroke="#fff"/><path d="M6.203 8h16.5v1.238h-16.5zm11.504 2.902h-6.469l-.86-1.254h8.27zM11.817 22V11.348h1.23V22zm1.98 0V11.348h1.226V22zm2.066 0V11.348h1.23V22zm-4.726-10.023c0-.024 0-.043-.004-.067a2.86 2.86 0 00-.516-1.183c-.39-.536-.941-1.188-2.328-1.188-.59 0-1.332.274-1.723.734a2.487 2.487 0 00-.562 1.489c-.035.988.547 2.031 1.93 2.129.87.062 1.293-.383 1.464-.653.313-.492.329-1.183.036-1.722-.227-.418-.598-.664-1.024-.676-.18-.027-.62-.031-.926.2a.648.648 0 00-.273.452.416.416 0 00.375.461.433.433 0 00.445-.262c.09-.007.18-.003.266.008.023.004.05.008.074.008.152 0 .34.121.399.227a.748.748 0 01-.098.832c-.145.183-.352.285-.68.261-1.082-.078-1.137-.964-1.125-1.234.031-.887.653-1.348 1.219-1.367 1.215-.035 1.422.265 1.816.789.18.234.309.508.371.797L10.234 22h.864zm6.726-.016c0-.02 0-.043.004-.063.008-.062.102-.62.516-1.187.39-.531.941-1.188 2.328-1.188.59 0 1.332.274 1.723.735.336.402.543.941.562 1.488.035.988-.547 2.031-1.93 2.133-.87.062-1.293-.383-1.464-.656-.313-.493-.329-1.184-.036-1.72.227-.421.598-.663 1.024-.679.18-.027.62-.027.926.2.152.117.25.265.273.453a.416.416 0 01-.375.46.435.435 0 01-.445-.257.863.863 0 00-.266.007c-.023.004-.05.004-.074.004a.544.544 0 00-.399.227.755.755 0 00.098.836c.145.18.352.281.68.258 1.082-.078 1.137-.965 1.125-1.235-.031-.886-.653-1.347-1.219-1.363-1.215-.035-1.422.266-1.816.785-.18.238-.309.508-.371.801l.039 10h-.864zm0 0" fill="#fff"/></svg>