<svg xmlns="http://www.w3.org/2000/svg" width="11" height="10" viewBox="0 0 11 10"><g fill="#4d4d4d"><path d="M7.777 7.664c-.07.012-6.554.824-7.765 1.02L.023 10H11V7.187zm0 0M10.32 0L4.46 4l-.03.32.152-.105v1.394S2 6.746 1.812 6.82c-.468.184-1.246.582-1.812.887l.008.754c1.336-.211 7.426-.977 7.726-1.016L11 6.961V0zM.254 8.25v-.277s.004-.078.023-.086c.024-.008.024.054.024.054l.004.293zm.273-.066L.523 7.87s.012-.098.04-.105c.042-.012.042.066.042.066l.008.328zM.81 8.12l.003-.355s.016-.098.051-.098c.055 0 .059.008.059.008l.012.41zM1.339 8l-.136.027.004-.355s.02-.129.066-.137c.07-.015.07.082.07.082zm.321-.059l-.008-.453s.032-.156.106-.168c.12-.02.12.106.12.106l.013.465zm.563-.117l-.012-.496s.035-.195.133-.21c.148-.024.152.132.152.132l.016.512zm.789-.16l-.004-.629s.043-.246.164-.265c.187-.028.187.164.187.164l.012.652zm1.058-.207l.004-.852s.055-.308.207-.328c.23-.035.235.203.235.203l.015.895zm.887-2.312l-.016-.52s.032-.223.114-.238c.129-.028.129.125.129.125l.086.465zm.59 2.023l-.012-.996s.086-.348.317-.375c.355-.04.355.2.355.2l.02 1.03zm.8-2.695l-.05-.817s.086-.347.316-.37c.356-.044.36.198.36.198l.02.668zm1.594 2.234l-.05-1.387s.12-.492.441-.527c.492-.059.613.277.613.277l.051 1.446zm.497-3.242l-.02-.797s.129-.332.32-.363c.297-.043.39.097.39.097l.052.68zm0 0"/></g></svg>