<svg xmlns="http://www.w3.org/2000/svg" width="10" height="3" viewBox="0 0 10 3"><g fill="#4d4d4d"><path d="M1.785.672L2.235 3H0L.43.672.188.355V0h.437v.297h.273V0h.43v.297h.27V0h.441v.355zm-.492.672c0-.13-.082-.235-.184-.235-.105 0-.187.106-.187.235v.36h.371zm0 0M5.668.672L6.118 3H3.882l.43-2.328L4.07.355V0h.438v.297h.273V0h.43v.297h.27V0h.44v.355zm-.492.672c0-.13-.082-.235-.184-.235-.101 0-.187.106-.187.235v.36h.37zm0 0M9.55.672L10 3H7.766l.43-2.328-.243-.317V0h.438v.297h.273V0h.43v.297h.273V0h.438v.355zm-.491.672c0-.13-.082-.235-.184-.235s-.184.106-.184.235v.36h.368zm0 0"/><path d="M3.832 2.684l-1.543.011L1.961.988h2.16zm0 0M7.73 2.684l-1.543.011L5.86.988h2.16zm0 0"/></g></svg>