<svg xmlns="http://www.w3.org/2000/svg" width="10" height="10" viewBox="0 0 10 10"><path d="M9.152 9.996H.848a.829.829 0 01-.602-.262A.937.937 0 010 9.102V.898C0 .664.09.434.246.266A.829.829 0 01.848.004h8.304c.227 0 .442.094.602.262A.937.937 0 0110 .898v8.204c0 .492-.379.894-.848.894zM.684 1.594h.757V.797H.684zm0 1.515h.757v-.8H.684zm0 1.512h.757v-.797H.684zm0 1.512h.757v-.797H.684zm0 1.512h.757v-.797H.684zm0 1.515h.757v-.8H.684zm7.863-7.566H9.3V.797h-.754zm0 1.515H9.3v-.8h-.754zm0 1.512H9.3v-.797h-.754zm0 1.512H9.3v-.797h-.754zm0 1.512H9.3v-.797h-.754zm0 1.515H9.3v-.8h-.754zM2.87 4.621h4.274V.797H2.87zm0 4.54h4.274V5.335H2.87zm0 0" fill="#4d4d4d"/></svg>