<svg xmlns="http://www.w3.org/2000/svg" width="11" height="10" viewBox="0 0 11 10"><path d="M10.578 2.82s-1.691-.547-2.656-.547c-.356 0-.805.075-1.234.164v1.2c0 .218-.051.476-.137.75.32-.067.668-.29.672-.29a.258.258 0 01.156-.05c.113 0 .234.086.234.27v.456a.53.53 0 01-.273.45c-.012.004-.281.14-.738.14-.235 0-.399.04-.504.07A9.786 9.786 0 015.063 6.97C5.636 8.477 7.183 10 7.699 10h.442C8.809 10 11 7.238 11 5.91v-2.5a.653.653 0 00-.422-.59zM9.094 7.848a.308.308 0 01-.117-.02c-.004 0-.446-.144-1.055-.144-.613 0-1.055.144-1.059.144a.308.308 0 01-.117.02.308.308 0 01-.234-.102.352.352 0 01-.086-.246c0-.188.117-.402.27-.5.023-.016.585-.363 1.226-.363.637 0 1.2.347 1.223.363a.63.63 0 01.27.5c0 .2-.138.348-.321.348zm1.066-2.414a.2.2 0 01-.16.078.285.285 0 01-.137-.035s-.23-.114-.625-.114c-.457 0-.726-.136-.738-.14a.53.53 0 01-.273-.45v-.457c0-.183.12-.27.234-.27.055 0 .11.016.156.052.004 0 .488.312.844.312.48 0 .7.707.723.79.035.116.004.19-.024.234zm-4-4.297a.653.653 0 00-.422-.59S4.047 0 3.078 0C2.113 0 .422.547.422.547a.653.653 0 00-.422.59v2.5c0 1.758 2.219 4.09 2.86 4.09h.44c.669 0 2.86-2.758 2.86-4.09zM1 2.785a.235.235 0 01-.188-.09A.293.293 0 01.75 2.5c0-.164.086-.371.2-.48.058-.06.593-.567 1.03-.567.47 0 .653.313.66.328.075.125.133.344.133.492V2.5c0 .164-.105.285-.25.285a.289.289 0 01-.14-.035s-.23-.113-.621-.113c-.395 0-.625.113-.625.113A.285.285 0 011 2.785zm3.305 2.488c-.024.016-.586.364-1.227.364-.637 0-1.2-.348-1.223-.364a.63.63 0 01-.27-.5c0-.199.138-.347.321-.347.04 0 .078.004.117.02.004 0 .446.144 1.055.144.613 0 1.055-.145 1.059-.145a.308.308 0 01.117-.02c.184 0 .32.15.32.348a.642.642 0 01-.27.5zm1.043-2.578a.235.235 0 01-.188.09.285.285 0 01-.137-.035s-.23-.113-.625-.113c-.39 0-.62.113-.625.113a.264.264 0 01-.136.035c-.145 0-.25-.12-.25-.285v-.227c0-.148.058-.367.133-.492.007-.015.19-.328.66-.328.437 0 .972.508 1.03.567.114.109.2.316.2.48.004.07-.02.14-.062.195zm0 0" fill="#4d4d4d"/></svg>