<svg xmlns="http://www.w3.org/2000/svg" width="11" height="10" viewBox="0 0 11 10"><path d="M6.07 8.07c-.015-.02-.027-.039-.027-.062V3.113c0-.054.05-.101.11-.101h1.843c.063 0 .11-.043.11-.098v-.773c0-.055-.047-.098-.11-.098H6.152c-.058 0-.109-.043-.109-.098V.098C6.043.043 5.996 0 5.937 0h-.816c-.059 0-.105.043-.105.098v1.847c0 .055-.051.098-.11.098H3.063c-.06 0-.11.043-.11.098v.773c0 .055.05.098.11.098h1.843c.059 0 .11.047.11.101v4.895a.11.11 0 01-.028.062.132.132 0 01-.074.035c-2.074.106-3.86.77-4.883 1.727-.027.027-.039.07-.023.105.02.04.058.063.101.063h10.782a.113.113 0 00.101-.063c.016-.035.004-.078-.023-.105-1.016-.945-2.774-1.61-4.82-1.723a.116.116 0 01-.079-.039zm0 0" fill="#4d4d4d"/></svg>