<svg xmlns="http://www.w3.org/2000/svg" width="7" height="11" viewBox="0 0 7 11"><g fill="#4d4d4d"><path d="M3.469 5.77L.426 7.25l.027 3.746h2.133V9.148c0-.453.394-.82.883-.82.484 0 .879.367.879.82v1.848h2.136v-3.77zM2.066 9.715h-.98v-.973c0-.254.223-.457.492-.457.27 0 .488.203.488.457zm3.766 0h-.98v-.973c0-.254.218-.457.492-.457.27 0 .488.203.488.457zm0 0"/><path d="M4.79 5.797l.026-1.035h.477L3.676 2.887v-1.54h.879v-.46h-.88V.004h-.44v.883h-.88v.46h.88v1.54L1.562 4.762h.554v1.035l-1.976.965a.253.253 0 00-.13.148.226.226 0 00.024.188c.07.113.223.152.348.093l3.086-1.52 3.144 1.524c.121.059.27.024.344-.086a.22.22 0 00.035-.195.247.247 0 00-.137-.156zM3.44 5.07c-.27 0-.488-.207-.488-.457 0-.254.219-.457.488-.457.27 0 .489.203.489.457 0 .25-.22.457-.489.457zm0 0"/></g></svg>