<svg xmlns="http://www.w3.org/2000/svg" width="30" height="30"><circle style="isolation:auto;mix-blend-mode:normal;solid-color:#000;solid-opacity:1;marker:none" cx="15" cy="15" r="14.5" color="#000" overflow="visible" fill="#76009e" fill-rule="evenodd" stroke="#fff"/><path d="M22.352 11.23s-2.618-.82-4.114-.82c-.543 0-1.238.11-1.902.246v1.797c0 .332-.082.719-.215 1.129.5-.102 1.035-.434 1.043-.437a.481.481 0 01.242-.079c.172 0 .36.13.36.41v.684a.811.811 0 01-.422.676c-.016.008-.434.21-1.145.21a2.63 2.63 0 00-.777.106 14.344 14.344 0 01-1.602 2.301C14.715 19.72 17.102 22 17.898 22h.68C19.61 22 23 17.86 23 15.863v-3.75c0-.375-.293-.773-.648-.883zm-2.297 7.543a.584.584 0 01-.184-.03c-.004 0-.687-.22-1.633-.22-.941 0-1.625.22-1.629.22a.584.584 0 01-.183.03.485.485 0 01-.36-.156.53.53 0 01-.136-.367c0-.281.18-.605.418-.75.039-.023.902-.547 1.89-.547.992 0 1.856.524 1.895.547a.946.946 0 01.418.75c0 .297-.215.523-.496.523zm1.644-3.625a.303.303 0 01-.246.122.466.466 0 01-.207-.055c-.004 0-.36-.168-.965-.168-.71 0-1.129-.203-1.144-.215a.792.792 0 01-.422-.672v-.683c0-.282.187-.41.36-.41a.481.481 0 01.241.078c.008.003.754.468 1.305.468.746 0 1.082 1.063 1.117 1.184.055.176.008.289-.039.351zm-6.18-6.445c0-.375-.292-.773-.648-.883 0 0-2.617-.82-4.11-.82-1.495 0-4.113.82-4.113.82-.355.11-.648.508-.648.883v3.75c0 2.637 3.434 6.137 4.422 6.137h.68c1.027 0 4.418-4.137 4.418-6.137zm-7.976 2.473a.377.377 0 01-.29-.13.453.453 0 01-.097-.296c0-.246.133-.555.313-.723.09-.086.914-.843 1.59-.843.726 0 1.011.468 1.023.488.113.191.203.515.203.738v.34c0 .246-.164.426-.387.426a.51.51 0 01-.214-.051c0-.004-.356-.172-.965-.172-.606 0-.961.168-.965.172a.493.493 0 01-.211.05zm5.11 3.734c-.04.024-.903.543-1.891.543-.992 0-1.856-.52-1.895-.543a.946.946 0 01-.418-.75c0-.3.215-.523.496-.523.063 0 .125.008.184.027.004.004.687.223 1.633.223.941 0 1.625-.219 1.629-.223a.581.581 0 01.183-.027c.285 0 .496.222.496.523 0 .281-.18.606-.418.75zm1.613-3.863a.377.377 0 01-.29.129.493.493 0 01-.21-.051c-.004-.004-.36-.172-.965-.172-.61 0-.961.168-.965.172a.51.51 0 01-.215.05c-.223 0-.387-.179-.387-.425v-.34c0-.223.09-.547.204-.738.011-.02.296-.488 1.023-.488.676 0 1.5.757 1.59.843.18.168.312.477.312.723a.453.453 0 01-.097.297zm0 0" fill="#fff"/></svg>