<svg xmlns="http://www.w3.org/2000/svg" width="9" height="11" viewBox="0 0 9 11"><path d="M8.996 9.715v1.195c0 .047-.043.09-.094.09H.098c-.051 0-.094-.043-.094-.09V9.715c0-.047.043-.09.094-.09h8.804c.051 0 .094.043.094.09zm-3.312-8.43V.09C5.684.043 5.64 0 5.59 0H3.41c-.05 0-.094.043-.094.09v1.195c0 .047-.043.09-.093.09h-.758c-.05 0-.094-.043-.094-.09V.551a.096.096 0 00-.098-.094h-1.23a.095.095 0 00-.094.094v2.11c0 .046.043.089.094.089h6.914c.05 0 .094-.043.094-.09V.55a.095.095 0 00-.094-.093h-1.23a.096.096 0 00-.098.094v.734c0 .047-.043.09-.094.09h-.758c-.05 0-.093-.043-.093-.09zM1.18 9.168h6.64c.04 0 .075-.023.09-.059a.09.09 0 00-.023-.097L6.657 7.82a.11.11 0 01-.028-.066V5.07c0-.02.008-.039.02-.054l1.288-1.66a.097.097 0 00.008-.098.093.093 0 00-.086-.051H1.141c-.04 0-.07.02-.086.05a.097.097 0 00.008.098l1.289 1.66c.011.016.02.036.02.055v2.684a.11.11 0 01-.028.066l-1.23 1.192a.09.09 0 00-.024.097c.015.036.05.059.09.059zm0 0" fill="#4d4d4d"/></svg>