<svg xmlns="http://www.w3.org/2000/svg" width="30" height="30"><circle style="isolation:auto;mix-blend-mode:normal;solid-color:#000;solid-opacity:1;marker:none" cx="15" cy="15" r="14.5" color="#000" overflow="visible" fill="#76009e" fill-rule="evenodd" stroke="#fff"/><g fill="#fff"><path d="M7.504 18.578h13.992c.277 0 .504.215.504.485v3.453a.496.496 0 01-.504.484H7.504A.496.496 0 017 22.516v-3.453c0-.27.227-.485.504-.485zm0 0M19.672 11.996v6.2H9.273v-6.2c0-2.758 2.329-4.996 5.2-4.996 2.87 0 5.199 2.238 5.199 4.996zm-1.649 2.758c0-.211-.18-.383-.398-.383H11.43a.389.389 0 00-.395.383c0 .21.176.383.395.383h6.195a.392.392 0 00.398-.383zm0 1.476v-.003c0-.211-.18-.38-.398-.38H11.43a.385.385 0 00-.395.38v.003c0 .211.176.38.395.38h6.195a.389.389 0 00.398-.38zm0-4.421v-.004c0-.211-.18-.38-.398-.383H11.43a.391.391 0 00-.395.383v.004c0 .207.176.378.395.378h6.195a.391.391 0 00.398-.378zm0 1.472v-.004a.391.391 0 00-.398-.379H11.43a.388.388 0 00-.395.38v.003c0 .211.176.38.395.383h6.195c.219-.004.398-.172.398-.383zm0 0"/></g></svg>