<svg xmlns="http://www.w3.org/2000/svg" width="30" height="30"><circle style="isolation:auto;mix-blend-mode:normal;solid-color:#000;solid-opacity:1;marker:none" cx="15" cy="15" r="14.5" color="#000" overflow="visible" fill="#fff" fill-rule="evenodd" stroke="#76009e"/><path d="M22.988 13.945c-.336 5.64-6.254 3.496-7.441 4.512-.656.559-.656 1.367 0 1.988.898.856.543 2.41-.703 2.52C9.977 23.398 6 19.582 6 14.75S9.957 6 14.844 6c4.883 0 8.386 3.84 8.144 7.945zm-3.351-2.507c-.918 0-1.664.738-1.664 1.644 0 .91.746 1.645 1.664 1.645.918 0 1.664-.735 1.664-1.645 0-.906-.746-1.644-1.664-1.644zm-2.73-3.75c-.919 0-1.66.738-1.66 1.644 0 .91.741 1.645 1.66 1.645.921 0 1.663-.735 1.663-1.645 0-.906-.742-1.645-1.664-1.645zm-4.704.046c-.918 0-1.664.739-1.664 1.649 0 .906.746 1.644 1.664 1.644.918 0 1.664-.738 1.664-1.644 0-.91-.746-1.649-1.664-1.649zM9.367 11.48c-.922 0-1.664.739-1.664 1.645 0 .91.742 1.645 1.664 1.645a1.65 1.65 0 001.66-1.645c0-.906-.742-1.645-1.66-1.645zm0 0" fill="#4d4d4d"/></svg>