<svg xmlns="http://www.w3.org/2000/svg" width="10" height="11" viewBox="0 0 10 11"><g fill="#4d4d4d"><path d="M.336 7.957h9.328c.184 0 .336.152.336.336v2.375a.335.335 0 01-.336.332H.336A.335.335 0 010 10.668V8.293c0-.184.152-.336.336-.336zm0 0M8.445 3.434v4.261h-6.93V3.434C1.516 1.539 3.067 0 4.98 0c1.915 0 3.465 1.54 3.465 3.434zM7.348 5.332v-.004a.267.267 0 00-.262-.262H2.953a.273.273 0 00-.265.262v.004a.268.268 0 00.265.262h4.133a.262.262 0 00.262-.262zm0 1.012a.262.262 0 00-.262-.262H2.953a.268.268 0 00-.265.262.268.268 0 00.265.261h4.133a.262.262 0 00.262-.261zm0-3.04a.262.262 0 00-.262-.261H2.953a.268.268 0 00-.265.262.268.268 0 00.265.261h4.133a.262.262 0 00.262-.261zm0 1.016v-.004a.262.262 0 00-.262-.261H2.953a.268.268 0 00-.265.261v.004a.27.27 0 00.265.262h4.133a.264.264 0 00.262-.262zm0 0"/></g></svg>