<svg xmlns="http://www.w3.org/2000/svg" width="30" height="30"><circle style="isolation:auto;mix-blend-mode:normal;solid-color:#000;solid-opacity:1;marker:none" cx="15" cy="15" r="14.5" color="#000" overflow="visible" fill="#fff" fill-rule="evenodd" stroke="#76009e"/><path d="M12.625 17.313h8.746v-.625l-1.875-1.875h-6.871zm8.746 4.37v-3.75h-9.367v-4.37h.621v-.626l-2.496-2.464V8.57h1.25v-.625h-1.25v-1.25h-.625v1.25H8.258v.625h1.246v1.903l-2.496 2.465v.624h.625v8.743h14.363v-.621zm-7.496-.624h-.625v-1.875h.625zm1.25 0H14.5v-1.875h.625zm1.25 0h-.625v-1.875h.625zm1.246 0H17v-1.875h.621zm1.25 0h-.625v-1.875h.625zm1.246 0h-.62v-1.875h.62zm0 0" fill="#4d4d4d"/></svg>