<svg xmlns="http://www.w3.org/2000/svg" width="30" height="30"><circle style="isolation:auto;mix-blend-mode:normal;solid-color:#000;solid-opacity:1;marker:none" cx="15" cy="15" r="14.5" color="#000" overflow="visible" fill="#fff" fill-rule="evenodd" stroke="#99163a"/><g fill="#4d4d4d"><path d="M6.95 18.027v4.856h8.624v-4.856l-4.261-3.816zm0 0"/><path d="M22.418 12.977l.582-.672-5.875-5.254L17.082 7l-.008.008L17.07 7l-.043.05-5.144 4.61v-1.07h-1.645v2.539L6 16.895l.582.675 4.77-4.242 4.914 4.402.027 5.165 5.516.105.027-9.5-4.774-4.285-4.542 3.965-.5-.45 5.054-4.53zm-6 1.23c0-.293.23-.527.52-.582h1.32c.285.055.52.29.52.582v1.344a.524.524 0 01-.52.527h-1.32a.521.521 0 01-.52-.527zm0 0"/></g></svg>