<svg xmlns="http://www.w3.org/2000/svg" width="30" height="30"><circle style="isolation:auto;mix-blend-mode:normal;solid-color:#000;solid-opacity:1;marker:none" cx="15" cy="15" r="14.5" color="#000" overflow="visible" fill="#99163a" fill-rule="evenodd" stroke="#fff"/><g fill="#fff"><path d="M12.582 18.148v-2.375h1.684c1.18 0 2.367-.05 3.543.012 1.312.07 2.199.742 2.582 1.777.058.168.058.36.097.59-2.644-.004-5.234-.004-7.906-.004zm0 0M10.223 18.203c-1.035.016-1.813-.726-1.844-1.746a1.8 1.8 0 011.812-1.871c.985 0 1.813.816 1.82 1.797a1.805 1.805 0 01-1.788 1.82zm0 0"/><path d="M22.223 14.563c-.489 0-.762.175-.762.667 0 .754-.012 1.602-.016 2.356v1.707H7.566c0-1.512-.007-4.555-.007-4.555v-.828c0-.488-.274-.672-.723-.672-.438 0-.758.18-.758.672v.02c.008 3.023.016 6.047.027 9.07h1.461v-2.047H21.45v2.027h1.496c.016-.164 0-.293 0-.421.004-2.282.004-4.563 0-6.848v-.48c.004-.489-.27-.668-.722-.668zm0 0M14.5 7c-.215 0-8.496 3.906-8.496 3.906v1.422L14.5 8.387l8.496 3.945V10.91S14.715 7 14.5 7zm0 0"/></g></svg>