<svg xmlns="http://www.w3.org/2000/svg" width="10" height="10" viewBox="0 0 10 10"><g fill="#4d4d4d"><path d="M5 1.703L1.5 4.937v5.06h2.441a.411.411 0 01-.027-.157V8.16c0-.12.043-.238.125-.324a.425.425 0 01.305-.137h1.308c.118 0 .227.051.305.137a.468.468 0 01.125.324v1.68a.522.522 0 01-.023.156h2.359V4.937zm.957 4.156c0 .246-.187.45-.418.45H4.48c-.23 0-.418-.204-.418-.45V4.72c0-.246.188-.446.418-.446h1.06c.23 0 .417.2.417.446zm0 0"/><path d="M10 4.73L5.04.043l-.036-.04L5 .009 4.996.004l-.035.039L0 4.73l.465.575L5 1.02l4.535 4.285zm0 0"/></g></svg>