<svg xmlns="http://www.w3.org/2000/svg" width="30" height="30"><circle style="isolation:auto;mix-blend-mode:normal;solid-color:#000;solid-opacity:1;marker:none" cx="15" cy="15" r="14.5" color="#000" overflow="visible" fill="#99163a" fill-rule="evenodd" stroke="#fff"/><g fill="#fff"><path d="M14.496 9.727l-5.945 5.175v8.094h4.148a.697.697 0 01-.047-.254V20.06a.734.734 0 01.73-.738h2.231c.192 0 .38.077.516.214.137.14.215.328.21.524v2.683c0 .09-.015.172-.042.254h4.015v-8.094zm1.629 6.648a.711.711 0 01-.707.715h-1.8a.711.711 0 01-.708-.715v-1.824c0-.395.317-.715.707-.715h1.801c.39 0 .707.32.707.715zm0 0"/><path d="M23 14.57l-8.434-7.5-.058-.066-.008.008-.012-.008-.058.066L6 14.57l.793.914L14.5 8.63l7.707 6.855zm0 0"/></g></svg>