<svg xmlns="http://www.w3.org/2000/svg" width="11" height="7" viewBox="0 0 11 7"><g fill="#4d4d4d"><path d="M4.242 3.52V1.816H5.34c.77 0 1.543-.035 2.308.008.856.051 1.434.535 1.684 1.278.04.117.04.253.063.421-1.723-.003-3.41-.003-5.153-.003zm0 0M2.703 3.559c-.672.011-1.18-.52-1.2-1.25-.019-.747.509-1.348 1.18-1.344.645 0 1.18.586 1.188 1.289.004.715-.512 1.293-1.168 1.305zm0 0"/><path d="M10.523.95c-.316 0-.496.124-.496.48 0 .539-.004 1.148-.007 1.687v1.227H.973c0-1.086-.004-3.27-.004-3.27V.48C.969.133.793 0 .496 0 .211 0 .004.129.004.48v.016C.008 2.664.016 4.832.02 7h.953V5.531h9.05v1.453h.946c.011-.117.027-.21.027-.3.004-1.637.004-3.274 0-4.91v-.348c.004-.348-.176-.477-.473-.477zm0 0"/></g></svg>