<svg xmlns="http://www.w3.org/2000/svg" width="30" height="30"><circle style="isolation:auto;mix-blend-mode:normal;solid-color:#000;solid-opacity:1;marker:none" cx="15" cy="15" r="14.5" color="#000" overflow="visible" fill="#fff" fill-rule="evenodd" stroke="#99163a"/><g fill="#4d4d4d"><path d="M21.16 16.48l-1.023-.011c-.114-.004-.242-.692-.399-1.016-.718-1.652-1.992-1.383-3.754-1.383-.511 0-1.796-.007-2.035 0h-.351c-2.36.008-4.028-.36-4.559 1.832-.059.2-.082.582-.2.582l-.917-.004c-.324 0-.684.23-.684.536 0 .25.133.558.797.68a.223.223 0 01.156.113.2.2 0 01-.004.187c-.18.317-.199.66-.199 1.012 0 .453.164 1.12.524 1.594a.205.205 0 01.039.148c-.004.035-.004.066-.004.102v1.12c0 .567.484 1.024 1.082 1.024h.07c.594 0 1.078-.457 1.082-1.023v-.442h.012c.945.074 5.727.078 7.3-.004a.232.232 0 01.165.055c.043.04.066.094.066.152v.239c.004.566.488 1.023 1.086 1.023h.067c.597 0 1.082-.457 1.082-1.023v-1.121-.067a.201.201 0 01.043-.14c.332-.442.464-1.204.464-1.637 0-.34-.023-.715-.203-1.04a.195.195 0 01-.008-.179.235.235 0 01.141-.117c.024-.004.043-.012.063-.016.496-.144.687-.312.687-.62 0-.306-.262-.556-.586-.556zM10.7 20.547c-.509 0-.923-.39-.923-.875s.414-.875.922-.875c.512 0 .926.39.926.875 0 .484-.414.875-.926.875zm-1.274-3.758c.137-2.598 1.988-2.172 4.297-2.207h2.738c1.344.008 2.945-.18 2.996 2.207.027 1.207-2.324 1.512-5.094 1.512-2.77 0-5-.305-4.937-1.512zm9.133 3.758c-.508 0-.922-.39-.922-.875s.414-.875.922-.875c.511 0 .925.39.925.875 0 .484-.414.875-.925.875zm0 0M12.781 11.27V9.203h1.5c1.051 0 2.106-.043 3.149.012 1.168.058 1.957.644 2.297 1.543.054.144.054.312.085.512h-7.03zm0 0M10.684 11.313c-.918.015-1.61-.63-1.637-1.516-.024-.902.691-1.629 1.613-1.625.875.004 1.61.71 1.617 1.562.008.868-.699 1.567-1.593 1.579zm0 0"/><path d="M21.355 8.152c-.433 0-.675.153-.675.582 0 .653-.012 1.391-.012 2.043v1.489H8.324c0-1.317-.008-3.961-.008-3.961v-.72c0-.425-.242-.581-.64-.581-.39 0-.676.156-.676.578v.02c.008 2.628.016 4.214.023 6.84h1.301v-1.356h12.344v1.336h1.293c.016-.14.039-.254.039-.363V8.73c0-.421-.242-.578-.645-.578zm0 0"/></g></svg>