<svg xmlns="http://www.w3.org/2000/svg" width="11" height="10" viewBox="0 0 11 10"><g fill="#4d4d4d"><path d="M4.258 6.969V5.484h1.09c.765 0 1.53-.03 2.293.008.851.043 1.421.465 1.671 1.11.04.105.04.222.063.367H4.258zm0 0M2.73 7c-.667.012-1.171-.453-1.19-1.09-.017-.648.503-1.172 1.17-1.168.642 0 1.173.508 1.18 1.121.005.625-.507 1.13-1.16 1.137zm0 0"/><path d="M10.496 4.727c-.316 0-.492.109-.492.418 0 .468-.008 1-.008 1.468v1.07h-8.98c0-.945-.008-2.847-.008-2.847V4.32c0-.304-.176-.422-.469-.422-.281 0-.488.114-.488.418v.016C.055 6.222.063 8.109.066 10h.95V8.723h8.98v1.265h.969c.012-.105 0-.183 0-.261V5.145c0-.305-.176-.418-.469-.418zm0 0M5.5 0C5.36 0 .004 2.441.004 2.441v.891L5.5.867l5.496 2.465v-.887S5.641 0 5.5 0zm0 0"/></g></svg>