<svg xmlns="http://www.w3.org/2000/svg" width="10" height="11" viewBox="0 0 10 11"><g fill="#4d4d4d"><path d="M9.441 6.52l-.683-.012c-.078 0-.164-.473-.266-.696-.48-1.136-1.328-.953-2.5-.953-.344 0-1.199-.004-1.36 0h-.234c-1.574.008-2.683-.246-3.039 1.262-.039.137-.054.402-.132.399H.613c-.215 0-.453.156-.453.367 0 .172.086.383.527.465.047.007.086.039.106.078a.15.15 0 010 .129c-.121.218-.133.453-.133.695 0 .312.11.773.348 1.098a.14.14 0 01.027.101c-.004.024-.004.047-.004.07v.77c0 .39.324.703.723.703h.043a.712.712 0 00.723-.703v-.305c.003 0 .007 0 .007.004.633.051 3.817.051 4.868-.004a.154.154 0 01.109.035.14.14 0 01.047.106v.164c0 .39.324.703.722.703h.047a.711.711 0 00.72-.703v-.77-.046a.133.133 0 01.026-.094c.223-.305.313-.828.313-1.13 0-.233-.016-.487-.137-.714a.132.132 0 01-.004-.121c.016-.04.051-.07.094-.082l.04-.012c.331-.097.46-.215.46-.426a.384.384 0 00-.39-.378zM2.47 9.313a.61.61 0 01-.617-.602.61.61 0 01.617-.602c.34 0 .613.27.613.602a.607.607 0 01-.613.601zM1.617 6.73c.09-1.785 1.324-1.492 2.863-1.52h1.825c.898.009 1.965-.12 2 1.52.02.829-1.551 1.04-3.395 1.04-1.848 0-3.336-.211-3.293-1.04zm6.09 2.582a.61.61 0 01-.617-.601.61.61 0 01.617-.602c.34 0 .613.27.613.602a.607.607 0 01-.613.601zm0 0M3.855 2.934V1.516h1c.7 0 1.403-.032 2.098.007.777.04 1.305.446 1.531 1.063.036.098.036.21.059.352-1.566-.004-3.105-.004-4.688-.004zm0 0M2.457 2.965a1.042 1.042 0 01-1.09-1.043A1.07 1.07 0 012.437.805a1.092 1.092 0 011.079 1.074 1.065 1.065 0 01-1.059 1.086zm0 0"/><path d="M9.57.793c-.289 0-.453.105-.453.398 0 .45-.004.957-.008 1.407v1.02H.883c0-.903-.004-2.72-.004-2.72V.402C.879.11.719.004.449.004.191.004 0 .109 0 .402v.012C.004 2.22.012 3.31.016 5.117h.867v-.933h8.23v.918h.86c.011-.098.027-.172.027-.25V1.19c0-.293-.16-.398-.43-.398zm0 0"/></g></svg>