<svg xmlns="http://www.w3.org/2000/svg" width="30" height="30"><circle style="isolation:auto;mix-blend-mode:normal;solid-color:#000;solid-opacity:1;marker:none" cx="15" cy="15" r="14.5" color="#000" overflow="visible" fill="#fff" fill-rule="evenodd" stroke="#99163a"/><g fill="#4d4d4d"><path d="M15.578 18.395c0 .886-.683 1.605-1.531 1.605-.844 0-1.531-.719-1.531-1.605 0-.887.687-1.606 1.53-1.606.849 0 1.532.719 1.532 1.606zm0 0"/><path d="M22.414 17.664h-1.332V12.66c0-1.469-1.137-2.66-2.539-2.66H9.539c-1.398 0-2.535 1.191-2.535 2.66v3.559c0 1.117.863 2.023 1.934 2.023h3.12c.047-1.137.934-2.043 2.028-2.043 1.098 0 1.984.938 2.027 2.074H23a.598.598 0 00-.586-.609zm-8.27-4.469a.589.589 0 01-.574.602H9.582c-.316 0-.57-.27-.57-.602v-.91c0-.332.254-.601.57-.601h3.988c.317 0 .575.27.575.601zm5.34-.097c0 .386-.3.699-.668.699h-1.648c-.367 0-.668-.313-.668-.7v-.714c0-.387.3-.7.668-.7h1.648c.368 0 .668.313.668.7zm0 0"/></g></svg>