<svg xmlns="http://www.w3.org/2000/svg" width="10" height="7" viewBox="0 0 10 7"><g fill="#4d4d4d"><path d="M7.8 3.7L5.103.054A.105.105 0 005.008 0a.12.12 0 00-.094.05L2.152 3.7a.145.145 0 00-.03.073c0 .032.023.055.07.055h.925V6.82c0 .098.063.18.133.18h1.328c.074 0 .133-.082.133-.18v-.843h.531v.843c0 .098.059.18.133.18h1.324c.074 0 .133-.082.133-.18V3.828h.93c.043 0 .066-.023.066-.055a.125.125 0 00-.027-.074zm0 0"/><path d="M9.977 3.547L7.817.629a.084.084 0 00-.075-.043.084.084 0 00-.074.043L6.672 1.94 7.91 3.613c.04.051.059.106.059.16 0 .098-.07.196-.207.196h-.79v2.133h.426c.059 0 .106-.063.106-.141v-.594h.426v.594c0 .078.047.14.105.14h1.063c.058 0 .105-.062.105-.14V3.648h.742c.035 0 .055-.02.055-.043a.099.099 0 00-.023-.058zm0 0M2.191 3.969c-.136 0-.207-.098-.207-.196 0-.054.02-.109.059-.16L3.34 1.898 2.383.605a.104.104 0 00-.074-.042.084.084 0 00-.075.042L.024 3.523A.11.11 0 000 3.582c0 .027.02.043.055.043h.742v2.313c0 .078.047.144.105.144h1.063c.058 0 .105-.066.105-.144v-.59h.426v.59c0 .078.047.144.106.144h.378V3.969zm0 0"/></g></svg>