<svg xmlns="http://www.w3.org/2000/svg" width="30" height="30"><circle style="isolation:auto;mix-blend-mode:normal;solid-color:#000;solid-opacity:1;marker:none" cx="15" cy="15" r="14.5" color="#000" overflow="visible" fill="#fff" fill-rule="evenodd" stroke="#99163a"/><path d="M22.18 15.926h.386c.387 0 .579-.489.305-.774l-5.34-5.53v-.024l-3.926 4.082.59.976a.316.316 0 01.047.145c0 .062-.039.105-.11.105h-1.507l2.012 3.336c.027.043.043.09.047.145 0 .062-.04.105-.11.105h-1.191v2.828H11.07v-3.254h2.828c.07 0 .11-.039.11-.105a.316.316 0 00-.047-.145l-2.012-3.332h1.508c.074 0 .11-.043.11-.105a.255.255 0 00-.047-.145l-2.012-3.336h1.086c.07 0 .11-.043.11-.105a.316.316 0 00-.048-.145L10.504 7l-2.149 3.648a.276.276 0 00-.046.145c0 .062.035.105.105.105H9.5l-2.008 3.336a.258.258 0 00-.05.145c0 .062.038.105.109.105h1.508L7.05 17.816a.28.28 0 00-.051.145c0 .066.04.105.11.105h2.976v3.254H8.672a.332.332 0 00-.324.34c0 .188.144.34.324.34h13.863c.18 0 .324-.152.324-.34a.332.332 0 00-.324-.34h-.867v-4.86c0-.296.227-.534.512-.534zm-3.438 5.394h-2.437v-2.394c0-.25.195-.453.433-.453h1.57c.243 0 .434.203.434.453zm0 0" fill="#4d4d4d"/></svg>