<svg xmlns="http://www.w3.org/2000/svg" width="10" height="10" viewBox="0 0 10 10"><g fill="#4d4d4d"><path d="M.559 6.895v3.03h5.074v-3.03L3.125 4.504zm0 0"/><path d="M9.656 3.734L10 3.316 6.543.031 6.52 0l-.004.004L6.512 0l-.028.031-3.023 2.88v-.669h-.969v1.59L0 6.184l.344.421 2.804-2.648 2.891 2.75.016 3.227L9.297 10l.02-5.938-2.81-2.68-2.671 2.481-.297-.281L6.516.75zm-3.527.77c0-.184.137-.332.305-.363h.777c.168.03.305.18.305.363v.84c0 .183-.137.332-.305.332h-.777c-.168 0-.305-.149-.305-.332zm0 0"/></g></svg>