<svg xmlns="http://www.w3.org/2000/svg" width="30" height="30"><circle style="isolation:auto;mix-blend-mode:normal;solid-color:#000;solid-opacity:1;marker:none" cx="15" cy="15" r="14.5" color="#000" overflow="visible" fill="#99163a" fill-rule="evenodd" stroke="#fff"/><g fill="#fff"><path d="M13.168 15.027v-2.433h1.602c1.117 0 2.238-.051 3.355.015 1.246.07 2.086.762 2.445 1.82.059.173.059.368.094.602-2.504-.004-4.96-.004-7.496-.004zm0 0M10.934 15.082c-.98.02-1.72-.742-1.746-1.785-.028-1.067.738-1.922 1.714-1.918.938.004 1.72.836 1.727 1.844.008 1.02-.742 1.843-1.695 1.859zm0 0"/><path d="M22.309 11.352c-.461 0-.723.183-.723.691 0 .77-.008 1.637-.012 2.406v1.754H8.414c0-1.547-.008-4.668-.008-4.668v-.847c0-.5-.254-.688-.683-.688-.414 0-.72.184-.72.684v.023c.009 3.098.017 6.195.028 9.293h1.383v-2.098h13.164v2.075h1.379c.016-.168.04-.297.04-.426v-7.512c0-.5-.259-.687-.688-.687zm0 0"/></g></svg>