<svg xmlns="http://www.w3.org/2000/svg" width="11" height="7" viewBox="0 0 11 7"><g fill="#4d4d4d"><path d="M5.898 5.875C5.898 6.496 5.426 7 4.844 7c-.578 0-1.051-.504-1.051-1.125 0-.617.473-1.121 1.05-1.121.583 0 1.055.504 1.055 1.121zm0 0"/><path d="M10.598 5.363H9.68v-3.5C9.68.832 8.898 0 7.934 0H1.746C.781 0 0 .836 0 1.863v2.489C0 5.137.598 5.77 1.332 5.77h2.145c.03-.793.64-1.43 1.394-1.43.754 0 1.363.656 1.395 1.453H11c0-.238-.18-.43-.402-.43zM4.91 2.238c0 .23-.176.418-.394.418H1.777c-.218 0-.394-.187-.394-.418v-.64c0-.23.176-.418.394-.418h2.739c.218 0 .394.187.394.418zm3.672-.07c0 .27-.203.488-.457.488H6.992c-.254 0-.46-.219-.46-.488v-.5c0-.27.206-.488.46-.488h1.133c.254 0 .457.218.457.488zm0 0"/></g></svg>