<svg xmlns="http://www.w3.org/2000/svg" width="30" height="30"><circle style="isolation:auto;mix-blend-mode:normal;solid-color:#000;solid-opacity:1;marker:none" cx="15" cy="15" r="14.5" color="#000" overflow="visible" fill="#fff" fill-rule="evenodd" stroke="#99163a"/><g fill="#4d4d4d"><path d="M19.48 14.813l-4.316-5.731A.177.177 0 0015.016 9a.184.184 0 00-.153.082l-4.418 5.734c-.035.043-.05.082-.05.114 0 .05.039.082.109.082h1.484v4.707c0 .152.098.281.215.281h2.121c.117 0 .211-.129.211-.281v-1.324h.852v1.324c0 .152.093.281.21.281h2.122c.117 0 .215-.129.215-.281v-4.707h1.484c.07 0 .11-.032.11-.082a.206.206 0 00-.048-.118zm0 0"/><path d="M22.96 14.57l-3.452-4.582a.137.137 0 00-.117-.066.145.145 0 00-.121.062l-1.594 2.067 1.98 2.625a.409.409 0 01.094.254c0 .152-.113.308-.332.308h-1.266v3.352h.684c.094 0 .172-.102.172-.227v-.925h.68v.925c0 .125.074.227.167.227h1.7c.093 0 .168-.102.168-.227V14.73h1.191c.055 0 .086-.027.086-.066a.167.167 0 00-.04-.094zm0 0M10.504 15.238c-.215 0-.328-.156-.328-.308 0-.086.031-.176.094-.254l2.074-2.692-1.528-2.03a.144.144 0 00-.242 0L7.04 14.538a.156.156 0 00-.039.09c0 .043.031.066.086.066h1.191v3.637c0 .121.075.223.168.223h1.7c.093 0 .168-.102.168-.223v-.93h.68v.93c0 .121.077.223.171.223h.606v-3.317zm0 0"/></g></svg>