<svg xmlns="http://www.w3.org/2000/svg" width="11" height="10" viewBox="0 0 11 10"><path d="M10.434 5.95h.265c.266 0 .399-.325.211-.516L7.242 1.75v-.02L4.543 4.453l.402.652c.02.028.032.063.035.094 0 .043-.027.07-.074.07H3.867L5.25 7.493a.18.18 0 01.031.098c0 .043-.023.07-.074.07h-.82v1.887h-1.59V7.379h1.945c.051 0 .074-.027.074-.07a.17.17 0 00-.03-.098L3.401 4.988h1.04c.046 0 .074-.027.074-.07a.227.227 0 00-.036-.098L3.098 2.598h.75c.047 0 .074-.028.074-.07a.196.196 0 00-.035-.094L2.41 0 .93 2.434a.191.191 0 00-.032.093c0 .043.028.07.075.07h.746L.336 4.82a.18.18 0 00-.031.098c0 .043.023.07.074.07h1.039L.035 7.211A.21.21 0 000 7.309c0 .043.027.07.074.07h2.047v2.168h-.973a.226.226 0 00-.222.226c0 .125.101.227.222.227h9.532a.227.227 0 000-.453h-.598V6.305c0-.196.16-.356.352-.356zm-2.36 3.597H6.398V7.949a.3.3 0 01.297-.3h1.082a.3.3 0 01.297.3zm0 0" fill="#4d4d4d"/></svg>