<svg xmlns="http://www.w3.org/2000/svg" width="8" height="10" viewBox="0 0 8 10"><path d="M3.957 8.18a.074.074 0 01-.066.082l-.106.011c-.043.008-.074.043-.07.082l.05.375c.008.04-.023.075-.066.082l-.23.028a.077.077 0 00-.07.082l.05.36c.004.038-.027.073-.07.081l-.442.051c-.042.008-.074.043-.066.082l.047.348c.004.039-.027.074-.07.082l-.63.074c-.042.004-.081-.023-.085-.066l-.047-.344c-.008-.04-.047-.067-.09-.063l-.476.055a.073.073 0 01-.086-.062l-.051-.36c-.004-.039-.043-.066-.086-.062l-.23.027a.082.082 0 01-.09-.066l-.051-.371C.922 8.648.883 8.62.84 8.624l-.106.012c-.043.004-.082-.024-.09-.063L.59 8.168c-.004-.043.027-.078.07-.086l1.125-.133a.074.074 0 00.067-.082l-.497-3.66c-.003-.043-.042-.07-.085-.066l-1.125.132a.08.08 0 01-.09-.062L0 3.805a.075.075 0 01.07-.082l.106-.016c.043-.004.07-.039.066-.082l-.05-.371a.077.077 0 01.07-.082l.23-.027a.074.074 0 00.067-.083l-.047-.359c-.008-.039.023-.078.066-.082l.477-.055c.043-.007.074-.043.07-.086l-.047-.343c-.008-.04.024-.078.067-.082l.628-.075c.043-.003.082.024.09.063l.047.348c.004.039.043.066.086.062l.442-.055a.085.085 0 01.09.067l.046.36c.008.038.047.066.09.062l.23-.028c.043-.004.083.024.086.063l.051.375a.08.08 0 00.086.062l.11-.011c.039-.008.078.023.086.062l.054.406c.004.043-.023.079-.066.082l-1.09.133a.075.075 0 00-.07.082l.496 3.66c.004.043.043.07.086.067l1.09-.133a.085.085 0 01.09.066zm3.844-5.735a.083.083 0 00.094-.054l.101-.399c.012-.039-.016-.078-.055-.09l-.105-.023c-.043-.008-.066-.047-.059-.09l.098-.363a.077.077 0 00-.059-.09l-.226-.05c-.043-.009-.07-.052-.059-.09l.09-.348a.071.071 0 00-.055-.09L7.133.656C7.09.648 7.063.61 7.074.57L7.16.23c.012-.039-.015-.078-.058-.09L6.488.005a.079.079 0 00-.097.05l-.086.34A.08.08 0 016.21.45L5.742.344C5.7.332 5.656.355 5.648.398l-.09.348a.078.078 0 01-.097.055L5.234.75a.08.08 0 00-.093.055l-.094.363a.076.076 0 01-.094.055l-.105-.024a.08.08 0 00-.094.055l-.102.398a.073.073 0 00.055.09l1.102.25c.043.012.07.051.058.09l-.93 3.586c-.007.043-.05.066-.093.055l-1.102-.25c-.043-.008-.086.015-.094.054l-.105.399a.077.077 0 00.059.09l.101.023c.043.008.07.05.059.09l-.094.363c-.012.04.016.078.059.09l.226.05c.043.013.067.052.059.09l-.094.352a.072.072 0 00.059.086l.468.11c.04.007.067.046.055.09l-.086.335c-.012.04.016.078.059.09l.617.14a.083.083 0 00.094-.054l.086-.34a.083.083 0 01.093-.054l.434.101c.043.008.086-.016.098-.055l.09-.351a.08.08 0 01.093-.055l.227.051a.075.075 0 00.093-.055l.098-.363c.008-.04.05-.063.094-.055l.101.024c.043.008.086-.016.098-.055l.102-.398c.011-.04-.016-.079-.059-.09l-1.066-.242c-.043-.012-.07-.051-.059-.09l.93-3.586c.011-.04.05-.067.093-.055zm0 0" fill="#4d4d4d"/></svg>