<svg xmlns="http://www.w3.org/2000/svg" width="11" height="10" viewBox="0 0 11 10"><g fill="#4d4d4d"><path d="M11 1.898c0 .641-.559 1.157-1.246 1.157-.688 0-1.246-.516-1.246-1.157 0-.64.558-1.16 1.246-1.16.687 0 1.246.52 1.246 1.16zm0 0M.133 9.195a.452.452 0 00.031.668l.016.012a.533.533 0 00.715-.027l3.734-3.766-.762-.652zm0 0M10.813 5.195c-.008-.254-.239-.457-.512-.453l-2.117.02-.008-.875-.996 1.031a.461.461 0 00-.133.344c.008.129.07.246.172.332l.015.015a.548.548 0 00.207.106l.004.012H7.5a.555.555 0 00.18-.004l2.644-.035c.278-.004.496-.22.489-.473zm0 0"/><path d="M8.426 2.605l-.727-.609L5.691.136a.523.523 0 00-.707 0l-.011.012-.04.04L3.16 2.022a.437.437 0 00.031.653l.016.015c.203.168.52.157.707-.03L5.36 1.163l1.29 1.2-2.02 2.085-.004-.004-.371.39a.433.433 0 00.02.626l1.87 1.742-2.582.54c-.214.046-.351.245-.3.444l.047.2c.046.199.261.328.476.281l3.38-.703a.535.535 0 00.245-.063.356.356 0 00.172-.148.446.446 0 00-.05-.598L7.5 7.13c-.016-.016-.031-.031-.05-.047L6.022 5.754l2.438-2.52a.426.426 0 00-.035-.629zm0 0"/></g></svg>