<svg xmlns="http://www.w3.org/2000/svg" width="30" height="30"><circle style="isolation:auto;mix-blend-mode:normal;solid-color:#000;solid-opacity:1;marker:none" cx="15" cy="15" r="14.5" color="#000" overflow="visible" fill="#00a19a" fill-rule="evenodd" stroke="#fff"/><path d="M14.43 19.906a.129.129 0 01-.11.14l-.172.02a.125.125 0 00-.109.141l.082.633a.127.127 0 01-.11.14l-.378.047a.127.127 0 00-.11.141l.079.61a.129.129 0 01-.11.14l-.719.086a.129.129 0 00-.109.14l.074.586a.125.125 0 01-.11.141L11.606 23a.127.127 0 01-.14-.11l-.078-.585a.125.125 0 00-.14-.11l-.778.098a.127.127 0 01-.14-.11l-.079-.609a.13.13 0 00-.145-.11l-.375.048a.13.13 0 01-.144-.11l-.078-.632a.134.134 0 00-.145-.11l-.172.024a.125.125 0 01-.14-.11l-.09-.691a.125.125 0 01.11-.14l1.827-.227a.124.124 0 00.11-.141l-.805-6.227a.127.127 0 00-.14-.109l-1.829.227a.128.128 0 01-.144-.106l-.086-.691a.122.122 0 01.11-.14l.171-.024a.127.127 0 00.11-.14l-.083-.634a.129.129 0 01.11-.14l.375-.047a.127.127 0 00.113-.14l-.082-.606a.127.127 0 01.113-.141l.774-.098a.122.122 0 00.11-.14l-.075-.586a.127.127 0 01.11-.14l1.023-.126a.13.13 0 01.144.11l.075.585c.007.067.07.118.14.11l.723-.09a.124.124 0 01.14.11l.079.605c.007.07.074.117.14.11l.38-.048a.127.127 0 01.14.11l.082.633c.008.07.074.117.144.109l.168-.024c.07-.007.137.043.145.11l.09.691a.127.127 0 01-.11.14l-1.773.224a.125.125 0 00-.11.14l.805 6.223c.008.07.07.117.14.11l1.774-.22c.07-.007.133.04.14.11zm6.242-9.75a.13.13 0 00.156-.09l.168-.68a.13.13 0 00-.094-.152l-.168-.039a.124.124 0 01-.093-.152l.152-.617a.126.126 0 00-.094-.153l-.367-.085a.127.127 0 01-.094-.153l.149-.597a.13.13 0 00-.094-.153l-.707-.168a.12.12 0 01-.09-.148l.14-.574a.127.127 0 00-.093-.153l-1-.238a.13.13 0 00-.156.094l-.14.574c-.017.066-.087.105-.157.09l-.758-.18a.13.13 0 00-.156.094l-.145.594a.13.13 0 01-.156.093l-.367-.086c-.07-.015-.137.024-.153.09l-.156.621a.129.129 0 01-.152.094l-.168-.043a.127.127 0 00-.152.094l-.168.68a.122.122 0 00.093.148l1.79.426c.07.02.109.086.093.152l-1.508 6.098a.13.13 0 01-.156.093l-1.789-.425a.13.13 0 00-.156.093l-.168.676a.129.129 0 00.094.153l.168.039c.07.015.109.086.093.152l-.152.617a.124.124 0 00.094.152l.367.09c.07.016.11.082.094.153l-.149.593a.129.129 0 00.094.153l.762.18c.066.015.109.085.093.152l-.144.574a.129.129 0 00.094.152l1.004.239a.129.129 0 00.152-.094l.14-.574a.133.133 0 01.157-.094l.703.168a.13.13 0 00.156-.09l.145-.598a.133.133 0 01.156-.093l.367.09a.127.127 0 00.152-.094l.157-.621a.126.126 0 01.152-.09l.168.039a.127.127 0 00.152-.094l.168-.676a.121.121 0 00-.093-.152l-1.735-.414a.127.127 0 01-.094-.152l1.512-6.098a.123.123 0 01.152-.09zm0 0" fill="#fff"/></svg>