<svg xmlns="http://www.w3.org/2000/svg" width="11" height="11" viewBox="0 0 11 11"><path d="M5.504 2.863a2.665 2.665 0 012.668 2.66 2.665 2.665 0 01-2.668 2.66 2.665 2.665 0 01-2.668-2.66 2.665 2.665 0 012.668-2.66zm-2.54.512L0 3.223l2.188 1.972a3.28 3.28 0 01.777-1.82zM5.22 2.211L3.223 0l.152 2.969a3.32 3.32 0 011.844-.758zM8.82 5.188L11 3.223l-2.953.148c.437.512.707 1.149.773 1.817zM7.63 2.96L7.777 0 5.781 2.21c.676.056 1.32.317 1.848.75zM3.37 8.078L3.223 11 5.18 8.832a3.323 3.323 0 01-1.809-.754zm4.715-.45l2.914.15-2.176-1.962a3.327 3.327 0 01-.738 1.813zM5.82 8.833L7.777 11 7.63 8.086a3.313 3.313 0 01-1.809.746zM2.184 5.809L0 7.777l2.926-.148a3.27 3.27 0 01-.742-1.82zm0 0" fill="#4d4d4d"/></svg>