<svg xmlns="http://www.w3.org/2000/svg" width="30" height="30"><circle style="isolation:auto;mix-blend-mode:normal;solid-color:#000;solid-opacity:1;marker:none" cx="15" cy="15" r="14.5" color="#000" overflow="visible" fill="#fff" fill-rule="evenodd" stroke="#00a19a"/><path d="M6.004 16.816c5.062 1.774 10.734 2.497 16.992 2.407-.183.707-.254.879-.195 1.777l-13.793-.074c-1.227-1.196-2.211-2.578-3.004-4.11zm1.902-.5c2.02.762 4.2 1.168 6.457 1.403-.277-4.485.492-7.832 2.602-9.719-4.113 1.508-7.246 4.152-9.059 8.316zm9.157-6.863c-1.391 1.527-1.965 4.305-1.903 8.063 1.992.82 4.113 1.02 6.36.652-3.555-2.055-5.145-4.418-4.457-8.715zm0 0" fill="#4d4d4d"/></svg>