<svg xmlns="http://www.w3.org/2000/svg" width="30" height="30"><circle style="isolation:auto;mix-blend-mode:normal;solid-color:#000;solid-opacity:1;marker:none" cx="15" cy="15" r="14.5" color="#000" overflow="visible" fill="#fff" fill-rule="evenodd" stroke="#00a19a"/><g fill="#4d4d4d"><path d="M14.473 15.363c0 1.028-.883 1.86-1.97 1.86-1.089 0-1.972-.832-1.972-1.86 0-1.023.883-1.855 1.973-1.855 1.086 0 1.969.832 1.969 1.855zm0 0"/><path d="M21.715 7.031a.46.46 0 00-.582.23l-.153.356c-.011.008-.015.02-.02.028l-5.55 12.894a.181.181 0 01-.226.098c-.93-.309-5.551-1.75-5.551-1.75-.7-.219-1.469.187-1.59.87-.055.329-.031.688-.031 1.095v.312c0 1.004.87 1.828 1.937 1.828 0 0 5.094.02 5.168-.004.418-.004 4.778-10.476 6.13-13.75 0-.004.003-.004.003-.008l.71-1.648c.095-.215-.015-.46-.245-.55zm0 0"/></g></svg>