<svg xmlns="http://www.w3.org/2000/svg" width="30" height="30"><circle style="isolation:auto;mix-blend-mode:normal;solid-color:#000;solid-opacity:1;marker:none" cx="15" cy="15" r="14.5" color="#000" overflow="visible" fill="#00a19a" fill-rule="evenodd" stroke="#fff"/><g fill="#fff"><path d="M11.105 12.215c.02-.543-.437-1.024-1.02-1.074-.577-.051-1.065.347-1.085.89-.02.543.437 1.024 1.016 1.074.582.051 1.07-.351 1.09-.89zm0 0"/><path d="M16.57 7.004c-.058 0-.16.133-.273.332 0 .016 0 .035.004.05a.282.282 0 00.078.114c.012.012.008.031-.004.04-.066.058-.14.105-.207.167a.48.48 0 00-.137.23c-.027.09.004.204-.05.286-.02.03-.051.054-.07.086-.02.035-.005.062.019.093.007.012.007.032-.008.04-.04.038-.078.081-.113.128a.602.602 0 00-.09.153c-.012.027-.02.054-.028.082-.003.02-.011.039-.015.062-.012.043-.012.09-.024.137-.02.098-.113.137-.183.187-.012.008-.024.02-.035.032l-.082.207c0 .027 0 .05.003.074.012.066.024.129.024.195a.586.586 0 01-.035.164c-.035.106-.098.196-.16.285-.063.094-.13.184-.172.293a.608.608 0 00-.059.16.4.4 0 00.004.137c.016.07.043.133.059.203a.506.506 0 01.004.172c-.008.047-.024.094-.04.145 0 .008-.003.015-.003.023.027 0 .12.219.093.375-.027.156-.187.188-.215.34-.054.313 0 .719.028.996v.031a37.86 37.86 0 01-1.11 1.125c-.007.008-.023.012-.03.008-.013-.004-.02-.015-.016-.027.02-.18.035-.363.05-.543 0-.008.004-.012.012-.016a1.53 1.53 0 00.18-.175c0-.004.004-.008.004-.016l.203-2.707s0-.004.004-.004c.402-1.207 1.093-3.305 1.195-3.61 0-.007 0-.015-.004-.023-.008-.008-.016-.012-.023-.012h-.016a.03.03 0 00-.027.02 280.64 280.64 0 01-1.118 3.344.026.026 0 01-.023.015c-.012.004-.023-.004-.027-.011a.243.243 0 00-.055-.07.019.019 0 01-.008-.024c.27-1.625.504-3.043.543-3.266.004-.011-.008-.027-.023-.027-.016-.004-.028.004-.031.02-.04.21-.278 1.613-.551 3.23-.004.012-.016.023-.032.02h-.046c-.16.023-.391.167-.407.331 0 0-.504 1.942-.53 2.536a.03.03 0 01-.009.02c-.008.003-.015.007-.023.007-.297-.035-1.156-.074-1.406-.02h-.004l-1.18.36c-.426.094-.617.515-.516.816v.004l1.496 3.055c.461 1.203 1.832 1.8 2.676 2.246.012.004.016.016.016.027-.004.008-.004.016-.004.024 0 .004 0 .004.004.004l.555 2.96c.011.188.308.336.52.352.21.02.358-.117.347-.305l-.211-3.105c0-.027-.008-.348-.098-.418l-1.418-1.11c-.008-.007-.012-.015-.012-.023s.008-.015.016-.02c.461-.238 1-.535 1.36-.804.011-.008.03-.008.039.004l1.652 1.797c.113.156.45.144.644.062.192-.082.247-.265.133-.422l-1.879-2.574c-.113-.156-.414-.187-.672-.07a.32.32 0 00-.097.062c-.004 0-.004 0-.008.004l-.805.434a37.923 37.923 0 01-.195-.621.606.606 0 01.082-.016c.04-.008.05-.047.047-.078a.558.558 0 00-.082-.246.47.47 0 00-.192-.145c-.007-.027-.015-.05-.02-.078-.01-.039-.023-.074-.03-.11a.212.212 0 00.136-.112c0-.004.004-.004.004-.004l1.242-1.407c.028.051.051.106.075.176.054.09-.028.246.027.403.055.156.242.218.324.437.047.176.016.356.031.52.008.003.012.003.016.007.012.008.02.012.027.02.008-.008.02-.012.028-.008s.015.012.012.024c.039.027.074.05.113.074.039.027.07.058.097.094.043.058.07.152.137.183.078.04.168.016.25.008.055-.004.14.164.153.2.039.01.078.023.117.038.031-.015.058-.035.09-.031a.68.68 0 01.21.074.404.404 0 01.122.094.012.012 0 01.015 0c.008 0 .008.004.012.012l.012.035c.047.176.144.34.117.531.05.023.086.059.105.105a.221.221 0 01.012.07.415.415 0 01-.016.075.11.11 0 00-.007.078c.007.024.02.043.035.059.027.035.062.058.093.093.032.04.043.086.06.137a.142.142 0 00.026.067c.016.015.04.011.059.011.04-.004.094-.015.125.024.016.015.023.039.027.062.004.02.004.035.02.051.094.09.203.156.297.238.101.086.187.188.25.301.012.024.027.05.039.078a.92.92 0 01.129.344c.02.055.035.105.054.156.004-.02-.03.184-.035.258.012-.012.059.227.016.32a.428.428 0 01-.055.082 2.03 2.03 0 00-.02.153c.016.02.028.035.04.054.02.043.031.086.035.133.004.051.004.102.008.153.004.043.004.09.02.125.015.035.046.062.066.093.03.051.05.11.05.172.004.07-.007.14-.003.207a.42.42 0 00.062.164c.027.043.05.086.07.133.024.063.028.133.035.203l.047.34c.008.02.043.117.036.137.105.46.226.812.25 1.312h1.976L21 7.004s-2.902-.004-4.43 0zm-3.992 6.945l.809-.238c.008-.004.015-.004.023.004.008.004.012.015.012.023-.031.184-.063.36-.09.524 0 .011-.008.015-.016.02a.025.025 0 01-.023 0c-.18-.087-.441-.188-.578-.25a5.935 5.935 0 00-.156-.063c0-.008.007-.016.02-.02zm.8 1.567a.522.522 0 00-.097-.211c.012-.012-.015.008-.054.03a5.7 5.7 0 00.023-.144c.004-.015.016-.023.031-.023.098.012.172.023.188.023-.028.098-.059.207-.09.325zm.142-.313c.046.012.097.02.148.02.012.054.027.113.043.172-.008 0-.02.007-.023.015-.094.098-.192.2-.282.3 0-.023 0-.046-.004-.065.043-.165.082-.317.118-.442zm-.329.985l-.304-1.06c.058.005.12.005.129.009.043.004.09.008.136.015.008 0 .016.004.02.012.004.004.004.012.004.02-.012.078-.028.148-.035.21-.032.02-.059.04-.075.051-.003.004-.007.008-.007.012-.028.07 0 .2.027.273.004.008.012.016.02.016.066.012.136.02.207.012-.008.035-.02.066-.028.097-.035.043-.07.09-.105.137-.016.02-.012.051.008.07.007.012.019.02.035.024-.012.035-.02.07-.032.101zm.832.214c.012.043.028.09.043.133l-.64.344a.025.025 0 01-.024 0c-.007-.004-.015-.008-.015-.016a.772.772 0 00-.032-.101l-.128-.45c.023-.078.043-.156.062-.238.191-.062.379-.133.574-.176.051.168.106.336.16.504zm-.18-.793c.032.047.052.098.063.153-.011 0-.02 0-.027.004-.016-.059-.035-.118-.05-.176l.015.02zm-.093-.078l.004.004.012.047.058.195c-.137.032-.273.07-.402.121.101-.128.215-.246.328-.367zm-.094-1.285a.03.03 0 01-.008.02c-.07.058-.12.101-.152.117-.012.008-.023.004-.031-.004l-.05-.035c-.013-.004-.017-.016-.017-.024.036-.199.07-.41.106-.632a.047.047 0 01.02-.02l.183-.055a.03.03 0 00.016-.008c-.02.215-.043.43-.067.641zm0 0"/></g></svg>