<svg xmlns="http://www.w3.org/2000/svg" width="9" height="4" viewBox="0 0 9 4"><g fill="#4d4d4d"><path d="M1.355 2.348c-.417 0-.753.37-.753.824 0 .457.336.828.753.828.418 0 .758-.371.758-.828 0-.453-.34-.824-.758-.824zm0 1.32c-.25 0-.453-.219-.453-.496 0-.274.203-.496.453-.496s.458.222.458.496c0 .277-.208.496-.458.496zm0 0M5.684 2.348c-.418 0-.758.37-.758.824 0 .457.34.828.758.828.414 0 .753-.371.753-.828 0-.453-.34-.824-.753-.824zm0 1.32c-.254 0-.457-.219-.457-.496 0-.274.203-.496.457-.496.25 0 .453.222.453.496 0 .277-.203.496-.453.496zm0 0M.39 3.77h.196a1.083 1.083 0 01-.172-.66c.008-.13.035-.258.09-.376H0zm0 0"/><path d="M4.945 2.266c-.043-.04-.148-.032-.289-.02-.136.012-.597.09-.597.09L3.53 2.09l.922.055.043-.086c.047.035.125.054.16.011l.274-.297.308.204.258.18.172-.016c.36-.008.691.21.855.562.165.348.133.77-.082 1.086L9 3.781l-.012-.336h-.96L7.89 3.34l1.054.004-.437-.422-.856.027-.203-.195.887-.02-2.719-1.671.055.812-.516-.355.246-.266a.129.129 0 00.032-.098.111.111 0 00-.043-.09.107.107 0 00-.153.016l-.281.3-.031.036-.145.16c-.027-.004-.062-.012-.086-.004-.039.012-.215.16-.215.16s-.03.004-.175-.004c-.14-.007-1.504-.19-1.617-.25a.225.225 0 01-.11-.113l.578-.058-.11-.45h-.062c-.082 0-.226-.004-.25-.007-.347-.047-.613-.188-.601-.309.015-.125.308-.184.652-.137l.098.008C2.789.172 2.493 0 2.234 0c-.289 0-.543.223-.605.531-.063.313.082.63.348.762l-.004.012-.118.332s-.246-.43-.359-.45c-.082-.019.117.543 0 .586-.168.059-.785-.015-.793 0-.055.145-.176.426-.238.563-.012.023-.465 0-.465 0v.328h.504c.148-.277.473-.52.84-.523.355-.008.687.207.851.554.164.344.137.766-.07 1.082l2.793.008c-.293-.441-.227-1.055.16-1.402zm0 0"/></g></svg>