<svg xmlns="http://www.w3.org/2000/svg" width="30" height="30"><circle style="isolation:auto;mix-blend-mode:normal;solid-color:#000;solid-opacity:1;marker:none" cx="15" cy="15" r="14.5" color="#000" overflow="visible" fill="#fff" fill-rule="evenodd" stroke="#00a19a"/><g fill="#4d4d4d"><path d="M21.848 12.66c0 1.223-.977 2.219-2.18 2.219-1.203 0-2.18-.996-2.18-2.219 0-1.226.977-2.219 2.18-2.219 1.203 0 2.18.993 2.18 2.22zm0 0"/><path d="M10.395 17.426c.003-.004.011-.008.015-.012.008 0 .012-.004.02-.008.25-.136.457-.328.683-.543.246-.226.524-.48.887-.68.36-.214.813-.374 1.43-.374h.035c.988.007 1.562.496 2.058.945.043.039.086.078.13.113.152.137.292.262.44.367.278.2.579.325 1.005.317 1.097-.024 1.547-.61 1.68-.836l-.266-.371a.961.961 0 00-.125-.235l-3.66-5.27 3.523-1.773c.5-.257.703-.984.45-1.496a1.014 1.014 0 00-1.376-.457l-4.312 2.168c-.215.121-.38.184-.547.305a1.135 1.135 0 00-.375.46c-.16.294-.18.661-.02.981a.914.914 0 00.176.246l1.27 1.829-5.204 3.855c.352.344.684.594 1.352.594.297 0 .527-.047.73-.125zm0 0"/><path d="M22.95 18.035c-.509-.46-1.087-.988-2.114-.996h-.031c-1.004 0-1.57.418-2.004.82 0 0-.18.168-.188.172-.207.2-.398.38-.625.512-.246.121-.566.207-.98.219-.598.011-.953-.246-1.348-.598a3.485 3.485 0 01-.12-.117c-.325-.32-.704-.695-1.317-.887a2.632 2.632 0 00-.848-.144h-.031c-.844 0-1.38.297-1.79.629a7.867 7.867 0 00-.449.386c-.12.11-.234.211-.351.305l.016.016c-.301.242-.637.406-1.196.406-.758 0-1.086-.324-1.496-.735-.441-.437-.984-.972-2.078-1.003v1.332c.652.027.95.316 1.348.714.46.457 1.03 1.024 2.226 1.024 1.219 0 1.813-.567 2.293-1.024.11-.105.207-.199.309-.285.308-.242.64-.406 1.168-.41h.023c.176 0 .324.016.457.05.34.11.614.34.969.661l.152.14c.438.426 1.008.891 2.09.891.617 0 1.074-.144 1.438-.347.441-.22.73-.5.914-.735.406-.386.726-.66 1.414-.66h.027c.59.004.926.281 1.426.734.215.2.457.415.746.598v-1.625l-.05-.043zm0 0"/><path d="M22.95 20.922c-.509-.461-1.087-.985-2.114-.996h-.031c-1.004 0-1.57.418-2.004.82 0 0-.18.168-.188.172-.207.2-.398.379-.625.512-.246.12-.566.207-.98.218-.598.012-.953-.246-1.348-.597-.043-.04-.082-.078-.12-.117-.325-.32-.704-.696-1.317-.887a2.632 2.632 0 00-.848-.145h-.031c-.844 0-1.38.297-1.79.633a6.546 6.546 0 00-.449.383c-.12.11-.234.21-.351.305l.016.015c-.301.242-.637.41-1.196.41-.758 0-1.086-.328-1.496-.738-.441-.437-.984-.973-2.078-1.004v1.332c.652.028.95.317 1.348.715.46.457 1.03 1.024 2.226 1.024 1.219 0 1.813-.567 2.293-1.024.11-.101.207-.2.309-.285.308-.242.64-.406 1.168-.41h.023c.176 0 .324.015.457.05.34.11.614.34.969.665.05.043.102.09.152.136.438.426 1.008.891 2.09.891.617 0 1.074-.145 1.438-.348.441-.215.73-.5.914-.73.406-.387.726-.664 1.414-.664h.027c.59.004.926.281 1.426.734.215.2.457.414.746.598v-1.621c-.016-.016-.031-.032-.05-.047zm0 0"/></g></svg>