<svg xmlns="http://www.w3.org/2000/svg" width="10" height="7" viewBox="0 0 10 7"><path d="M9.965 1.79c-.09-.4-.344-.79-.781-1.188C8.285-.223 7.383-.2 6.719.668c-.64.836-.946 2.074-1.047 2.57-.106.512-.176 1.125-.121 1.528-.035.105-.074.21-.11.312a.082.082 0 00-.023.016l-.063.078c-.011.016-.007.039.004.055L5 5.69l-.36-.464c.012-.016.016-.04.005-.055l-.063-.078a.082.082 0 00-.023-.016c-.036-.101-.075-.207-.11-.312.055-.403-.015-1.016-.12-1.528-.102-.496-.407-1.734-1.048-2.57C2.617-.199 1.715-.222.816.602.38 1 .125 1.39.036 1.789c-.11.484.03.98.41 1.477.636.82 1.718 1.359 2.152 1.554.379.168.75.293 1.05.356.02.004.032.004.051.008l.004.003.004-.003c.074.015.148.023.223.03.004.005.004.009.007.013l.27.175c0 .012 0 .02.008.028l.062.078c.012.015.032.02.047.008l.406.527-.406.527-.023-.023c-.016-.012-.035-.012-.047.004l-.04.05a.042.042 0 00.005.055l.363.336c.016.012.04.008.05-.008l.04-.05a.04.04 0 00-.004-.051l-.027-.024L5 6.395l.36.464-.028.024a.04.04 0 00-.004.05l.04.051c.01.016.034.02.05.008l.363-.336a.042.042 0 00.004-.054l-.039-.051c-.012-.016-.031-.016-.047-.004l-.023.023-.406-.527.406-.527c.015.011.035.007.047-.008l.062-.078c.008-.008.008-.016.008-.028l.27-.175c.003-.004.003-.008.007-.012.075-.008.149-.016.223-.031l.004.003.004-.003.05-.008c.301-.063.672-.188 1.051-.356.434-.195 1.516-.734 2.153-1.554.379-.496.52-.993.41-1.477zM4.262 4.042l-.176-.39.11-.102c.03.18.05.344.066.492zm-.114-.762a.721.721 0 00.016.09l-.148.133-.246-.54.246-.226c.046.176.093.356.132.543zm-1.984-.8l.348.449-.242.222-.391-.406zm-.394.152l-.391-.406.344-.317.347.45zm.507-.254l.301-.277.3.492-.253.234zm.328.676l.344.449-.18.168-.39-.406zm.114-.102l.242-.223.297.493-.196.18zm.355-.328l.266-.242.246.539-.215.195zm-.082-.133L2.692 2l.335-.309.246.543zm-.383-.629l-.296-.492.398-.367.246.539zm-.113.106l-.312.285-.348-.45.363-.327zm-.754-.285l-.344-.45.418-.386.297.492zm-.113.101l-.36.328-.39-.406.406-.371zm-.473.434l-.418.379-.441-.356.465-.43zm.106.113l.394.406-.347.317-.446-.356zm.5.52l.394.406-.281.254-.445-.356zm.5.515l.394.406-.215.196-.445-.356zm.5.52l.394.406-.148.133-.446-.356zm.117-.106l.168-.152.344.45-.121.109zm.281-.258l.18-.168.3.493-.136.125zm.297-.27l.195-.183.246.543-.144.133zm.512-.683l-.266.246-.246-.539.316-.289c.07.184.137.38.196.582zm-.258-.738l-.32.293-.246-.54.316-.288c.09.172.176.351.25.535zM3.14.797c.086.117.164.238.238.363l-.305.278-.246-.54.223-.203c.031.032.058.067.09.102zM2.945.582L2.762.75 2.559.305c.128.062.257.152.386.277zm-.3.273l-.415.38-.3-.493.468-.426zM2.273.22l-.425.39-.192-.316c.192-.074.403-.11.617-.074zm-.757.133l.218.363-.433.394L.992.707c.145-.125.324-.258.524-.355zm-.637.46l.308.399-.417.387-.301-.313C.574 1.13.71.97.879.813zm-.496.606l.273.281-.469.43a1.397 1.397 0 01.196-.711zm.039 1.473a1.776 1.776 0 01-.211-.516l.414.332zm.168.242c-.031-.035-.055-.074-.082-.11l.238-.218.445.36-.316.288a3.153 3.153 0 01-.285-.32zm.394.43l.329-.301.445.36-.332.3c-.153-.11-.301-.23-.442-.36zm.575.453l.32-.297.445.36-.27.245a6.714 6.714 0 01-.495-.308zm1.191.648a.704.704 0 01-.082-.031 6.515 6.515 0 01-.469-.23l.25-.227.446.36zm.156.066l.11-.097.308.246a4.212 4.212 0 01-.418-.149zm.79.25l-.563-.453.129-.12.578.597-.145-.024zm.32.04c-.004 0-.008-.004-.012-.004l.031-.032-.66-.683.11-.102.585.758c-.02.02-.039.04-.054.063zm.238-.22c-.024.016-.047.036-.07.055l-.582-.757.12-.114.5.825.036-.024c0 .008 0 .012-.004.016zm.023-.195l-.441-.726.133-.117.312.691c0 .055 0 .106-.004.152zm5.254-3.32l-.3.313-.418-.387.308-.399c.168.157.305.317.41.473zm-2.25 1.668l-.343.45-.196-.18.297-.493zm-.16-.36l.3-.491.302.277-.348.45zm.274.462l.226.21-.39.407-.18-.168zm.093-.125l.348-.45.285.266-.39.406zm.442-.57l.347-.45.344.317-.39.406zm.441-.575l.344-.45.406.372-.39.406zm-.113-.101l-.371-.344.297-.492.418.386zm-.094.12l-.348.45-.312-.285.297-.492zm-.773.06l-.348-.321.246-.54.399.368zM7.309 2l-.301.492-.281-.258.246-.543zm-.383.625l-.297.492-.215-.195.246-.54zm-.383.629l-.297.492-.144-.133.246-.543zm.117.101l.18.168-.344.45-.137-.125zm.293.274l.168.152-.39.406-.122-.109zm.285.258l.2.183-.446.356-.148-.133zm.106-.114l.394-.406.266.246-.445.356zm.5-.515l.394-.406.332.304-.445.356zm.5-.52l.394-.406.399.367-.446.356zm.5-.52l.394-.405.465.43-.441.355zM9.008.708l-.309.402-.433-.394.218-.363c.2.097.38.23.524.355zM8.344.293l-.192.316-.425-.39c.214-.035.425 0 .617.074zm-.274.45l-.3.491-.415-.379.247-.539zM7.441.304L7.238.75 7.055.582c.129-.125.258-.215.386-.277zM6.86.797c.032-.035.059-.07.09-.102l.223.203-.246.54-.305-.278A4.47 4.47 0 016.86.797zm-.32.5l.316.289-.246.539-.32-.293c.074-.184.16-.363.25-.535zm-.312.691l.316.29-.246.538-.266-.246c.059-.203.125-.398.196-.582zm-.375 1.293c.039-.187.085-.367.132-.543l.246.227-.246.539-.148-.133a.721.721 0 00.016-.09zm-.047.27l.11.101-.177.391c.016-.148.035-.313.067-.492zm-.082 1.054c-.004-.046-.004-.097-.004-.152l.312-.691.133.117zm.023.196c-.004-.004-.004-.008-.004-.016l.035.024.5-.825.121.114-.582.757c-.023-.02-.046-.039-.07-.054zm.219.183l.031.032c-.004 0-.008.004-.012.004a.418.418 0 00-.054-.063l.586-.758.109.102zm.34-.004l-.145.024.578-.598.13.121zm.37-.101l.31-.246.109.097c-.149.063-.29.11-.418.149zm.657-.246a.704.704 0 01-.082.031l-.145-.129.446-.36.25.227c-.153.082-.309.16-.469.23zm.613-.309l-.27-.246.446-.36.32.298c-.156.105-.32.21-.496.308zm.63-.402l-.333-.3.445-.36.329.3c-.141.13-.29.25-.442.36zm.835-.79a3.153 3.153 0 01-.285.321l-.316-.289.445-.36.238.22c-.027.035-.05.074-.082.109zm.168-.241l-.203-.184.414-.332c-.035.168-.11.34-.21.516zm-.234-1.192l.273-.281c.133.238.2.473.195.71zM5 1.363c.2 0 .36-.175.36-.39C5.36.758 5.2.582 5 .582c-.2 0-.36.176-.36.39 0 .216.16.391.36.391zm0 0" fill="#4d4d4d"/></svg>