<svg xmlns="http://www.w3.org/2000/svg" width="30" height="30"><circle style="isolation:auto;mix-blend-mode:normal;solid-color:#000;solid-opacity:1;marker:none" cx="15" cy="15" r="14.5" color="#000" overflow="visible" fill="#00a19a" fill-rule="evenodd" stroke="#fff"/><path d="M21.34 14.617c0 .86-.719 1.555-1.602 1.555-.886 0-1.605-.695-1.605-1.555 0-.855.719-1.55 1.605-1.55.883 0 1.602.695 1.602 1.55zM8.328 7.555c.547 1.347 1.863 2.953 2.305 3.293 1.351 1.035 2.406 1.238 2.969 1.617a133.25 133.25 0 012.222 1.582s.14 1.414.594 2.176c.45.761 2.516 3.132 3.11 2.449.59-.68-.833-.977-1.762-2.395-.637-.976-.66-1.945-.66-1.945s.57-.348.726-.621c.152-.27.09-.578-.219-1.137-.597-1.074-2.66-2.246-3.39-2.515-.735-.274-1.465.285-1.801.12-.34-.163-1.363-1.038-1.688-1.484-.55-.746-1.097-2.054-1.5-2.406-.886-.77-1.3.121-.906 1.266zm12.457 12.508c-.226-.008-.45-.145-.703-.301-.379-.23-.809-.496-1.39-.434-.38.04-.653.223-.919.395-.293.195-.574.379-1.02.367-.245-.008-.483-.14-.757-.297-.41-.227-.871-.488-1.508-.438-.367.028-.652.196-.933.36-.309.18-.602.351-1.02.351-.254 0-.504-.14-.797-.304-.37-.203-.789-.438-1.293-.407-.367.024-.718.207-1.058.387-.32.168-.625.324-.899.324-.16 0-.32-.03-.472-.082l.004.86c.152.043.312.062.468.062.383 0 .754-.191 1.11-.379.308-.16.601-.316.875-.332.375-.023.699.157 1.043.348.32.18.652.363 1.02.363.538 0 .917-.222 1.253-.418.254-.148.473-.273.734-.293.5-.039.88.172 1.247.38.304.171.617.347.972.355h.055c.555 0 .918-.235 1.234-.446.239-.156.442-.289.707-.316.43-.047.754.152 1.102.363.285.176.586.36.93.371.023.004.042.004.066.004.465 0 .883-.18 1.164-.336v-.922c-.152.11-.652.438-1.215.415zm-.015 2.07c-.227-.008-.446-.145-.704-.301-.378-.234-.808-.496-1.386-.434-.38.04-.653.22-.918.395-.297.195-.575.379-1.024.367-.242-.008-.48-.14-.758-.297-.406-.23-.87-.488-1.507-.441-.364.031-.653.2-.934.363-.309.18-.598.352-1.016.352-.253 0-.507-.14-.8-.305-.368-.207-.786-.437-1.293-.406-.368.023-.72.207-1.059.383-.32.168-.625.328-.894.328A1.511 1.511 0 018 22.05l.008.863c.152.04.308.063.469.063.378 0 .75-.192 1.105-.38.313-.163.602-.316.875-.331.375-.024.7.156 1.043.347.32.18.652.364 1.023.364.54 0 .918-.223 1.25-.418.254-.149.473-.278.735-.297.5-.04.883.175 1.246.383.305.168.617.343.973.355h.054c.559 0 .918-.238 1.239-.45.234-.152.437-.288.707-.316.425-.043.753.157 1.097.368.29.175.586.359.93.37h.07c.465 0 .883-.175 1.16-.331v-.926c-.148.11-.652.437-1.214.418zm0 0" fill="#fff"/></svg>