<svg xmlns="http://www.w3.org/2000/svg" width="10" height="10" viewBox="0 0 10 10"><g fill="#4d4d4d"><path d="M8.188 3.406c-.098.043.078.297.007.547-.07.254.02.328.254.348.989.078 1.617-.563 1.547-.7-.07-.14-.902.137-1.18.047-.28-.093-.476-.316-.629-.242zm0 0M7.488 2.75c-.304-.418-.68-1.5-1.054-1.965-.836-1.039-2.422-.922-3.536-.37C2.332.69 1.543 1.565.332 1.456c0 0-.098-.004-.289-.023l-.016 5.43c.227-.024.578-.216.95-.329 1.324-.398 1.48-.21 1.503-.082.016.113-.43.27-.57.317-.137.046-.32.234-.594.242-.27.008-.207-.067-.285-.094-.082-.027-.203.121-.36.16-.155.035-.163-.039-.218-.012-.105.059-.36.567-.445.778a.122.122 0 00.004.097.112.112 0 00.066.067c.086.031.277-.035.402-.047.227-.016.32-.504.926-.504.39 0 1.465-.437 1.528-.406.058.027.175.164.375.324.503.41.601 1.102.62 1.406.016.309.051.469.157.578.105.114.105.184.172.41.054.18.242.051.457.133.164.063.293.086.375.098a.097.097 0 00.078-.027c.02-.02.031-.051.031-.082-.004-.118-.008-.293-.015-.325-.008-.046-.602-.382-.926-.886-.09-.145-.41-1.567-.5-1.973a.072.072 0 01.02-.062.058.058 0 01.058-.024l.32.047c.2-.012.504-.262.574-.773.043-.325.13-.606.227-.711.191-.204.262-.559.395-.532.101.024.078.356.085.543.008.184.176.317.211.38.036.066-.007.288-.02.671-.007.383.161.7.31.738.144.036.878.184.957.075.14-.196.02-.559.105-.774.047-.113.188-.601.29-.8.112-.227.26-.407.62-1.048.426-.761-.058-1.187-.422-1.687zM6.32 5.129c-.097-.02-.02-.25-.02-.25s.298-.066.345.11c.023.109-.23.16-.325.14zm-.113-.887c-.434-.176-.715-.64-.578-1.062.14-.418.832-.168.832-.168.363.195.18.636.355.812.239.235.918-.094.97.035.062.16-.778.711-1.579.383zm0 0"/></g></svg>