<svg xmlns="http://www.w3.org/2000/svg" width="10" height="8" viewBox="0 0 10 8"><path d="M3.082.402c-.398.098-.406.141-.406.141l.117-.215C2.961.121 3.273 0 3.621 0c.531 0 .969.316.969.715l-.027.21A1.598 1.598 0 004.288.66S3.74.246 3.082.402zm3.77 0c.398.098.41.141.41.141L7.145.328C6.973.121 6.66 0 6.313 0c-.532 0-.97.316-.97.715l.028.21c.082-.1.172-.187.274-.265 0 0 .55-.414 1.207-.258zM10 5.637C10 6.94 9.035 8 7.844 8 6.652 8 5.687 6.941 5.687 5.637c0-.008.004-.016.004-.024v0c.004-.644-.007-1.023-.718-1.011-.606.011-.66.304-.668.84-.004-.032.008.132.008.195C4.313 6.94 3.348 8 2.155 8 .965 8 0 6.941 0 5.637c0-.551.176-1.09.504-1.512-.05.016 1.703-2.805 1.703-2.805a.762.762 0 01.11-.18c.206-.245.574-.413.988-.413.644 0 1.164.39 1.164.87v.036c-.004.023-.004.047-.008.07l-.094.84c.094-.445.328-.758.602-.758.27 0 .5.3.593.73l-.085-.812a.43.43 0 01-.008-.07c-.004-.012-.004-.024-.004-.035 0-.48.52-.871 1.164-.871.418 0 .781.168.988.414a.762.762 0 01.11.18l1.746 2.773c.34.426.527.976.527 1.543zM3.754 5.62c0-.973-.719-1.758-1.606-1.758-.886 0-1.609.785-1.609 1.758s.723 1.762 1.61 1.762c.886 0 1.605-.79 1.605-1.762zm5.691 0c0-.973-.718-1.758-1.61-1.758-.886 0-1.605.785-1.605 1.758s.72 1.762 1.606 1.762c.89 0 1.61-.79 1.61-1.762zM4.985 3.61c-.169 0-.305.149-.305.332 0 .184.136.332.304.332.168 0 .305-.148.305-.332 0-.183-.137-.332-.305-.332zm0 0" fill="#4d4d4d"/></svg>