<svg xmlns="http://www.w3.org/2000/svg" width="11" height="11" viewBox="0 0 11 11"><g fill="#4d4d4d"><path d="M10.809 7.09c0 .848-.715 1.539-1.602 1.539-.887 0-1.605-.691-1.605-1.54 0-.85.718-1.538 1.605-1.538s1.602.687 1.602 1.539zm0 0"/><path d="M7.344 6.863A3.485 3.485 0 016.816 7c-.843.152-1.609-.016-2.156-.48-.55-.465-.82-1.172-.77-1.993.055-.851.45-1.718 1.114-2.441C5.668 1.367 6.512.879 7.387.723c.195-.04.394-.055.59-.055.609 0 1.152.184 1.57.535.547.461.82 1.172.77 1.992-.047.727-.344 1.465-.844 2.114a1.9 1.9 0 01.668.222c.504-.71.8-1.508.851-2.297.067-1.027-.289-1.921-.996-2.52-.71-.6-1.68-.823-2.734-.632-1.024.184-2.004.746-2.766 1.574-.766.828-1.219 1.836-1.281 2.832-.043.645.187 1.414.355 1.739.133.253-.379.808-.382.816L.136 10.172a.47.47 0 00.023.683.52.52 0 00.711-.023l3.098-3.18s.5-.402.687-.336c.5.172.992.391 1.567.391a4.077 4.077 0 001.168-.172 1.63 1.63 0 01-.047-.672zm0 0"/></g></svg>