<svg xmlns="http://www.w3.org/2000/svg" width="30" height="30"><circle style="isolation:auto;mix-blend-mode:normal;solid-color:#000;solid-opacity:1;marker:none" cx="15" cy="15" r="14.5" color="#000" overflow="visible" fill="#00a19a" fill-rule="evenodd" stroke="#fff"/><g fill="#fff"><path d="M14.5 6C9.812 6 6 9.813 6 14.5c0 4.688 3.813 8.5 8.5 8.5 4.688 0 8.5-3.813 8.5-8.5C23 9.812 19.187 6 14.5 6zm5.656 12.762l-.64-1.332-2.078.691-.762 2.059 1.125.59a7.055 7.055 0 01-6.778-.098l.938-.492-.762-2.059-2.074-.691-.5 1.035A7.033 7.033 0 017.406 14.5c.004-.406.043-.809.114-1.207l.785.918 1.922-1.465-.09-2.402-1.356-.024a7.09 7.09 0 013.442-2.527l-.45.785 2.684 1.113 2.68-1.101-.473-.836a7.12 7.12 0 013.543 2.566l-1.434.024-.09 2.402 1.926 1.465.852-.996c.078.422.121.851.121 1.285a7.003 7.003 0 01-1.426 4.262zm0 0"/><path d="M11.777 13.586l1.024 3.07h3.316l1.028-3.09-2.684-1.886zm0 0"/></g></svg>