<svg xmlns="http://www.w3.org/2000/svg" width="30" height="30"><circle style="isolation:auto;mix-blend-mode:normal;solid-color:#000;solid-opacity:1;marker:none" cx="15" cy="15" r="14.5" color="#000" overflow="visible" fill="#fff" fill-rule="evenodd" stroke="#00a19a"/><path d="M20.105 8.945l-6.851 1.692.02-3.446zM23 19.965c0 1.672-3.582 3.027-8 3.027s-8-1.355-8-3.027c0-1.195 1.824-2.227 4.477-2.719l-.016 3.535c-.004.207.195.375.437.375.004 0 .04-.02.04 0 0 .012-.012-.605 0-.605l-.102-13.168c-.004-.207.191-.375.437-.375h.004c.243 0 .442.164.442.37l.074 9.677A20.83 20.83 0 0115 16.937c4.418 0 8 1.356 8 3.028zm-7.355.062c-.329 0-.59.25-.59.559 0 .309.261.559.59.559.324 0 .59-.25.59-.56 0-.308-.266-.558-.59-.558zm0 0" fill="#4d4d4d"/></svg>