<svg xmlns="http://www.w3.org/2000/svg" width="30" height="30"><circle style="isolation:auto;mix-blend-mode:normal;solid-color:#000;solid-opacity:1;marker:none" cx="15" cy="15" r="14.5" color="#000" overflow="visible" fill="#fff" fill-rule="evenodd" stroke="#00a19a"/><path d="M19.352 8.727l-1.766 1.707c-.402.386-.129 1.265-.043 1.5l-.93.894c-.465-2.984-1.843-5.586-2.027-5.824.023.043.012.371.012 5.512a.096.096 0 01-.098.093c.508 0 .957.43 1.215 1.082l-2.508 2.414c-.512-1.59.215-3.496 1.293-3.496-.113 0-.098-.12-.098-.183 0-4.79-.007-5.34.008-5.418-.21.324-2.77 4.777-2.058 9.926l-1.047 1.007c-.465-.152-1.192-.289-1.54.043L8 19.691l1.645 1.594 1.77-1.707c.394-.383.136-1.242.046-1.492l.93-.895c.496 3.204 1.902 5.61 2.02 5.805-.013-.035-.009-.387-.009-5.504a.11.11 0 01.028-.066c.02-.016.043-.028.07-.024-.508 0-.953-.43-1.215-1.074l2.512-2.418c.504 1.613-.227 3.492-1.297 3.492a.083.083 0 01.066.024c.02.02.032.043.032.066 0 5.094.004 5.465-.008 5.504.144-.242 2.191-3.754 2.191-7.992 0-.64-.043-1.281-.133-1.914l1.055-1.016c.469.149 1.188.281 1.531-.05L21 10.315zm0 0" fill="#4d4d4d"/></svg>