<svg xmlns="http://www.w3.org/2000/svg" width="30" height="30"><circle style="isolation:auto;mix-blend-mode:normal;solid-color:#000;solid-opacity:1;marker:none" cx="15" cy="15" r="14.5" color="#000" overflow="visible" fill="#00a19a" fill-rule="evenodd" stroke="#fff"/><g fill="#fff"><path d="M15.766 10.152c0 .688-.551 1.246-1.227 1.246a1.238 1.238 0 01-1.226-1.246c0-.683.55-1.242 1.226-1.242.676 0 1.227.559 1.227 1.242zm-1.204 3.77c-.675 0-1.226.558-1.226 1.246 0 .684.55 1.242 1.226 1.242.676 0 1.227-.558 1.227-1.242 0-.688-.55-1.246-1.226-1.246zm-2.714.015c-.676 0-1.227.56-1.227 1.247 0 .683.55 1.242 1.227 1.242.675 0 1.226-.559 1.226-1.242 0-.688-.55-1.246-1.226-1.246zm5.437-.015c-.68 0-1.226.558-1.226 1.246 0 .684.546 1.242 1.226 1.242.676 0 1.223-.558 1.223-1.242 0-.688-.547-1.246-1.223-1.246zm-1.348 2.64c-.675 0-1.222.555-1.222 1.243 0 .687.547 1.242 1.223 1.242.68 0 1.226-.555 1.226-1.242 0-.688-.547-1.243-1.226-1.243zm-2.664 0c-.675 0-1.222.555-1.222 1.243 0 .687.547 1.242 1.222 1.242.68 0 1.227-.555 1.227-1.242 0-.688-.547-1.243-1.227-1.243zm-2.793-.015c-.68 0-1.226.555-1.226 1.242 0 .688.547 1.242 1.226 1.242.676 0 1.223-.554 1.223-1.242 0-.687-.547-1.242-1.223-1.242zm8.075.062c-.676 0-1.223.555-1.223 1.243 0 .687.547 1.242 1.223 1.242.68 0 1.226-.555 1.226-1.242 0-.688-.547-1.243-1.226-1.243zm-1.39 2.614c-.68 0-1.227.554-1.227 1.242 0 .687.546 1.242 1.226 1.242.676 0 1.223-.555 1.223-1.242 0-.688-.547-1.242-1.223-1.242zm-2.61 0c-.676 0-1.223.554-1.223 1.242 0 .687.547 1.242 1.223 1.242.68 0 1.226-.555 1.226-1.242 0-.688-.547-1.242-1.226-1.242zm-2.621.015c-.676 0-1.227.555-1.227 1.242 0 .688.55 1.243 1.227 1.243.675 0 1.222-.555 1.222-1.243 0-.687-.547-1.242-1.222-1.242zm-2.739-.015c-.68 0-1.226.554-1.226 1.242 0 .687.547 1.242 1.226 1.242.676 0 1.223-.555 1.223-1.242 0-.688-.547-1.242-1.223-1.242zm10.63 0c-.677 0-1.223.554-1.223 1.242 0 .687.546 1.242 1.222 1.242.68 0 1.227-.555 1.227-1.242 0-.688-.547-1.242-1.227-1.242zm-3.93-7.774c-.676 0-1.227.555-1.227 1.242 0 .688.55 1.243 1.227 1.243.675 0 1.222-.555 1.222-1.243 0-.687-.547-1.242-1.222-1.242zm-2.563-.008c-.68 0-1.227.555-1.227 1.243 0 .687.547 1.242 1.227 1.242.676 0 1.223-.555 1.223-1.242 0-.688-.547-1.243-1.223-1.243zm0 0"/><path d="M14.54 7.91c.39-.004.753.215.94.563l6.485 12.035a1.07 1.07 0 01-.942 1.582h-.003l-13.051-.078a1.07 1.07 0 01-.93-1.59l6.563-11.957c.187-.344.546-.559.937-.555m0-.91a1.957 1.957 0 00-1.723 1.023L6.254 19.977c-.34.609-.332 1.355.02 1.957.347.613.992.988 1.69.988L21.013 23h.011c.7.004 1.344-.367 1.696-.977a1.979 1.979 0 00.035-1.953L16.27 8.035A1.97 1.97 0 0014.54 7"/></g></svg>