<svg xmlns="http://www.w3.org/2000/svg" width="30" height="30"><circle style="isolation:auto;mix-blend-mode:normal;solid-color:#000;solid-opacity:1;marker:none" cx="15" cy="15" r="14.5" color="#000" overflow="visible" fill="#00a19a" fill-rule="evenodd" stroke="#fff"/><path d="M21.61 20.61c-.258-.012-.512-.227-.805-.481-.434-.371-.926-.793-1.586-.695-.434.062-.75.355-1.055.632-.336.313-.656.606-1.168.586-.277-.007-.55-.222-.863-.472-.469-.364-1-.782-1.727-.703-.418.043-.746.316-1.066.578-.352.289-.688.562-1.164.562-.293 0-.578-.226-.914-.484-.422-.332-.899-.703-1.48-.656-.419.039-.821.332-1.212.617-.367.27-.715.523-1.023.523-.192 0-.375-.055-.543-.137l.008 1.383c.172.063.351.098.535.102.437 0 .86-.309 1.27-.61.351-.257.687-.503 1-.53.43-.036.8.253 1.19.558.368.285.747.582 1.169.578.617 0 1.05-.356 1.433-.664.29-.238.54-.442.84-.477.574-.062 1.008.282 1.426.61.348.273.707.554 1.113.57h.063c.64 0 1.05-.379 1.414-.715.27-.246.504-.465.808-.508.489-.074.864.246 1.258.586.328.282.668.575 1.063.594a.55.55 0 00.078.004c.531 0 1.012-.285 1.332-.54v-1.476c-.18.176-.75.7-1.395.664zm-9.438-1.157c.48 0 .812-.238 1.164-.488.32-.227.652-.461 1.066-.5.73-.067 1.258.293 1.727.613.316.211.586.399.867.406.512.016.828-.234 1.168-.507.3-.243.617-.493 1.05-.547.009-.004.016-.004.024-.004.016-.09.02-.18.02-.27v-3.144c0-1.157-1.035-2.102-2.309-2.102h-4.77c-1.269 0-2.308.945-2.308 2.102v3.148c0 .102.008.203.024.305.53.004.972.3 1.367.566.332.227.62.422.91.422zM14.516 7c1.336 0 2.421 1.14 2.421 2.547 0 1.406-1.085 2.55-2.421 2.55-1.34 0-2.426-1.144-2.426-2.55S13.176 7 14.516 7zm0 0" fill="#fff"/></svg>