<svg xmlns="http://www.w3.org/2000/svg" width="11" height="10" viewBox="0 0 11 10"><path d="M10.043 9.074c-.176-.008-.352-.152-.55-.32-.302-.25-.638-.531-1.095-.465-.296.043-.511.238-.722.422-.23.207-.45.406-.801.39-.195-.007-.383-.148-.598-.312-.32-.246-.683-.523-1.183-.473-.29.032-.516.211-.735.387-.242.192-.472.375-.8.375-.2 0-.399-.152-.63-.324-.288-.219-.616-.469-1.015-.434-.289.024-.566.22-.836.41-.25.18-.488.348-.703.348a.926.926 0 01-.371-.09l.004.918a.99.99 0 00.367.07c.3 0 .59-.206.871-.406.246-.172.477-.336.688-.355.296-.024.55.168.82.375.254.191.516.387.805.387.425 0 .722-.239.984-.446.2-.16.371-.293.578-.316.395-.043.691.187.98.406.239.18.485.371.766.379h.043c.438 0 .723-.254.973-.477.183-.164.344-.308.554-.34.336-.046.594.169.864.391.226.188.46.383.734.399h.05c.368 0 .696-.192.915-.356V8.63c-.121.117-.516.469-.957.445zm-6.488-.773c.328 0 .558-.156.8-.324.223-.153.45-.305.735-.332.5-.047.863.195 1.183.406.22.144.407.265.598.273.352.012.57-.16.805-.34.207-.16.422-.328.722-.363.004-.004.012-.004.016-.004a.931.931 0 00.016-.18V5.34c0-.77-.715-1.399-1.59-1.399H3.563c-.876 0-1.59.63-1.59 1.399v2.098c0 .07.007.136.02.207.362 0 .663.199.937.378.226.149.425.278.625.278zM5.168 0c.918 0 1.664.762 1.664 1.7 0 .937-.746 1.698-1.664 1.698-.922 0-1.668-.761-1.668-1.699C3.5.762 4.246 0 5.168 0zm0 0" fill="#4d4d4d"/></svg>