<svg xmlns="http://www.w3.org/2000/svg" width="30" height="30"><circle style="isolation:auto;mix-blend-mode:normal;solid-color:#000;solid-opacity:1;marker:none" cx="15" cy="15" r="14.5" color="#000" overflow="visible" fill="#fff" fill-rule="evenodd" stroke="#00a19a"/><g fill="#4d4d4d"><path d="M14.145 12.91c0 .492-.418.895-.93.89-.512 0-.926-.398-.926-.894 0-.492.414-.894.926-.894s.93.402.93.898"/><path d="M16.43 7c-1.13 0-1.508 3.043-1.559 6.977L11.95 14c-.773.133-.918.8-.941 1.012a.23.23 0 00-.008.054v3.098c0 .203.172.367.383.367.21 0 .383-.164.383-.367v-2.898h.238v7.191c0 .3.254.543.562.543a.557.557 0 00.567-.543v-4.031c.039.008.082.012.125.012h.101v4.019a.56.56 0 00.567.543.556.556 0 00.562-.543v-7.61h.375V15c0 4.418.7 8 1.567 8S18 19.418 18 15s-.285-8-1.57-8"/></g></svg>