<svg xmlns="http://www.w3.org/2000/svg" width="30" height="30"><circle style="isolation:auto;mix-blend-mode:normal;solid-color:#000;solid-opacity:1;marker:none" cx="15" cy="15" r="14.5" color="#000" overflow="visible" fill="#fff" fill-rule="evenodd" stroke="#00a19a"/><g fill="#4d4d4d"><path d="M19.918 12.445c-.16.078.133.48.016.883-.118.402.03.52.43.55 1.679.126 2.745-.894 2.628-1.116-.12-.227-1.535.222-2.004.074-.476-.148-.808-.508-1.07-.39zm0 0M18.73 11.402c-.52-.672-1.156-2.398-1.793-3.144-1.421-1.66-4.117-1.477-6.011-.598-.965.445-2.301 1.848-4.363 1.672 0 0-.168-.008-.489-.039l-.031 8.687c.387-.035.984-.343 1.617-.523 2.25-.637 2.52-.34 2.555-.133.031.18-.727.434-.965.508-.238.074-.55.371-1.012.387-.457.015-.355-.106-.488-.149-.133-.047-.34.192-.61.254-.265.059-.277-.062-.37-.015-.176.09-.61.902-.754 1.242a.216.216 0 000 .156c.023.05.066.09.117.105.144.051.472-.054.683-.074.387-.027.543-.804 1.57-.804.669 0 2.497-.7 2.598-.657.106.047.305.27.641.524.86.656 1.023 1.758 1.05 2.25.032.492.09.746.27.926.176.18.18.289.297.656.09.285.406.078.77.207.285.105.5.144.64.16a.177.177 0 00.133-.043.184.184 0 00.055-.129c-.008-.191-.016-.476-.027-.523-.012-.075-1.024-.614-1.57-1.418-.161-.23-.7-2.508-.852-3.153a.125.125 0 01.027-.105.116.116 0 01.105-.031l.54.07c.343-.016.863-.418.98-1.238.074-.516.223-.97.387-1.133.324-.328.445-.895.668-.852.172.035.132.567.148.864.012.3.297.507.356.613.058.105-.016.46-.032 1.074-.015.61.27 1.117.52 1.176.254.062 1.5.297 1.633.121.238-.313.03-.895.18-1.238.074-.18.312-.957.488-1.282.191-.359.445-.648 1.054-1.671.727-1.223-.097-1.903-.715-2.7zm-1.988 3.805c-.16-.031-.027-.402-.027-.402s.504-.106.578.175c.047.176-.387.254-.55.227zm-.191-1.418c-.738-.281-1.219-1.027-.98-1.7.238-.671 1.41-.269 1.41-.269.624.313.308 1.02.609 1.297.398.375 1.558-.148 1.648.063.106.25-1.324 1.133-2.687.61zm0 0"/></g></svg>