<svg xmlns="http://www.w3.org/2000/svg" width="5" height="11" viewBox="0 0 5 11"><g fill="#4d4d4d"><path d="M2.246 4.063c0 .34-.297.613-.664.613-.367 0-.66-.274-.66-.614-.004-.34.293-.617.66-.617.367 0 .664.278.664.618"/><path d="M3.879 0C3.074 0 2.8 2.09 2.766 4.797L.68 4.813c-.555.09-.657.55-.676.695C0 5.52 0 5.53 0 5.547v2.129c0 .14.121.254.273.254.153 0 .274-.114.274-.254V5.684h.172c0 .003-.004.011-.004.015v4.926c0 .207.183.375.406.375.219 0 .402-.168.402-.375v-2.77a.641.641 0 00.09.008h.075v2.762c0 .207.18.375.402.375.223 0 .402-.168.402-.375v-5.23h.266V5.5c0 3.04.504 5.5 1.12 5.5C4.5 11 5 8.54 5 5.5 5 2.465 4.797 0 3.879 0"/></g></svg>