<svg xmlns="http://www.w3.org/2000/svg" width="11" height="8" viewBox="0 0 11 8"><g fill="#4d4d4d"><path d="M0 0h1.738l.578 1.094-.578.597zm0 0M5.2 3.047a.46.46 0 00-.567.332l-.055.215a.474.474 0 00.324.582l1.883.508.262-1.141zm0 0M7.098 4.754l.261.07c.301.082.614-.105.692-.418a.588.588 0 00-.406-.715l-.286-.078zm0 0M9.77 5.563l-.305-.16a.842.842 0 00-.442-.934.789.789 0 00-.98.25.845.845 0 00.027 1.039.783.783 0 00.989.191l.144.293zm0 0"/><path d="M10.621 7.219H8.937a.977.977 0 00-.046-.067l-1.465-1.66c-.063-.066-.344-.3-.453-.332L4.598 4.5 3.023 1.687a.561.561 0 00-.777-.214l-.055.03a.6.6 0 00-.21.802l1.609 2.87c.035.067.172.317.21.388.118.207.555.316.555.316l2.86.851C7.395 6.781 8.254 8 8.633 8h1.988A.387.387 0 0011 7.61a.387.387 0 00-.379-.391zm0 0"/></g></svg>