<svg xmlns="http://www.w3.org/2000/svg" width="9" height="10" viewBox="0 0 9 10"><g fill="#4d4d4d"><path d="M5.742 1.098C5.742.492 5.195 0 4.516 0 3.84 0 3.289.492 3.289 1.098c0 .336.16.855.418 1.257h1.586c.273-.402.45-.921.45-1.257zm0 0M5.469 3.922H3.703c-.273.957-1.148 2.27-1.148 3.226 0 1.239.785 2.497 1.539 2.848h.949c.758-.351 1.523-1.61 1.523-2.848 0-.976-.793-2.304-1.097-3.226zm0 0M5.203 3.36a1.957 1.957 0 01-.027-.301c0-.051.004-.102.008-.153H3.793c.008.059.012.117.012.176a3.308 3.308 0 01-.02.277zm0 0M8.238 2.195c0-.554-.55-1.004-1.226-1.004-.68 0-1.227.45-1.227 1.004 0 .305.16.782.418 1.145H7.79c.27-.363.45-.84.45-1.145zm0 0M7.695 4.258a1.616 1.616 0 01-.023-.274c0-.046 0-.093.004-.14h-1.39c.007.054.01.11.01.164 0 .082-.007.168-.019.25zm0 0M3.25 2.195c0-.554-.547-1.004-1.227-1.004-.675 0-1.226.45-1.226 1.004 0 .305.16.782.418 1.145H2.8c.273-.363.449-.84.449-1.145zm0 0M2.71 4.258a1.299 1.299 0 01-.026-.274c0-.046.003-.093.007-.14h-1.39c.004.054.008.11.008.164 0 .082-.004.168-.02.25zm0 0"/><path d="M5.742 1.098C5.742.492 5.195 0 4.516 0 3.84 0 3.289.492 3.289 1.098c0 .336.16.855.418 1.257h1.586c.273-.402.45-.921.45-1.257zm0 0M7.902 4.773h-1.77c0 .004 0 .008-.003.012.008.012.012.024.016.035.335.758.71 1.614.71 2.328 0 1.114-.62 2.336-1.296 2.848.308.008 2.168 0 2.168 0C8.484 9.676 9 8.844 9 7.715c0-.89-.797-2.102-1.098-2.942zm0 0M2.543 8.863c-.262-.484-.398-1.078-.398-1.715 0-.656.347-1.41.68-2.14.034-.07.066-.14.097-.211a.056.056 0 00-.008-.024H1.148C.871 5.645 0 6.843 0 7.715c0 1.129.54 1.96 1.293 2.281 0 0 1.895.008 2.184 0-.278-.207-.754-.797-.934-1.133zm0 0M5.203 3.36a1.957 1.957 0 01-.027-.301c0-.051.004-.102.008-.153H3.793c.008.059.012.117.012.176a3.308 3.308 0 01-.02.277zm0 0"/></g></svg>