<svg xmlns="http://www.w3.org/2000/svg" width="30" height="30"><circle style="isolation:auto;mix-blend-mode:normal;solid-color:#000;solid-opacity:1;marker:none" cx="15" cy="15" r="14.5" color="#000" overflow="visible" fill="#00a19a" fill-rule="evenodd" stroke="#fff"/><g fill="#fff"><path d="M21.977 22.098h-2.45c-.062 0-.117-.051-.117-.11v-2.117a.11.11 0 01.094-.11c.183-.03.367-.073.543-.128C22.324 18.94 25.96 16.387 18.684 7c-7.258 9.36-3.664 11.926-1.387 12.625.18.055.367.102.555.137a.109.109 0 01.093.105v2.121c0 .059-.05.11-.117.11h-7.035a.106.106 0 01-.082-.035.098.098 0 01-.035-.079l.008-1.105a.136.136 0 01.027-.121.154.154 0 01.121-.055h1.262c.816 0 1.922-.476 1.922-1.488v-.14a.148.148 0 00-.149-.145h-3.281a.144.144 0 01-.149-.14v-1.458c0-.078.067-.14.149-.14h.629c.39 0 .707-.305.707-.676a.148.148 0 00-.149-.145H10.32a.15.15 0 01-.105-.043.142.142 0 01-.043-.101l.008-1.04c0-.14.11-.261.254-.289a.315.315 0 01.343.192c.02.058.078.098.141.098h.008a.16.16 0 00.125-.06.14.14 0 00.02-.128.618.618 0 00-.407-.375.65.65 0 00-.555.102.158.158 0 01-.191 0 .644.644 0 00-.55-.102.616.616 0 00-.411.375.14.14 0 00.02.129c.03.039.074.059.125.059h.007c.063 0 .121-.04.141-.098a.315.315 0 01.344-.192.3.3 0 01.254.29l-.012 1.042c0 .079-.066.141-.149.141H8.31c-.082 0-.153.067-.153.145 0 .37.317.675.711.675h.563c.082 0 .148.063.148.141v1.457c0 .078-.066.14-.148.14H6.152a.148.148 0 00-.148.145v.14c0 1.013 1.02 1.49 1.926 1.49h1.347c.047 0 .09.019.118.054.03.035.039.078.027.12l-.031 1.11a.11.11 0 01-.114.11h-2.12a.46.46 0 00-.473.449c0 .25.21.453.472.453h14.82a.463.463 0 00.473-.453.46.46 0 00-.472-.45zm0 0"/><path d="M9.023 15.473c.387.492.196.632.075.664-.059.015-.121.015-.149 0-.11-.059-.312-.168.074-.664zm0 0M10.98 15.473c.391.492.2.632.075.664-.055.015-.118.015-.145 0-.113-.059-.316-.168.07-.664zm0 0"/></g></svg>