<svg xmlns="http://www.w3.org/2000/svg" width="10" height="11" viewBox="0 0 10 11"><g fill="#4d4d4d"><path d="M8.926 1.117c0 .613-.516 1.113-1.153 1.113-.636 0-1.152-.5-1.152-1.113C6.621.5 7.137 0 7.773 0c.637 0 1.153.5 1.153 1.117zm0 0M9.906 3.293a.42.42 0 00-.578-.05l-1.234.991-.52-1.386c-.023-.067-.187-.446-.52-.606l-.128-.062c-.137-.067-2.531-.672-2.531-.672a.412.412 0 00-.504.273c-.004.004-.004.008-.004.012l-.785 1.918a.397.397 0 00.234.516.413.413 0 00.527-.223l.668-1.633.969.27-1.477 3.007a849.11 849.11 0 01-1.308 2.063l-2.317.773a.577.577 0 00-.367.735c.11.3.45.457.758.355l2.75-.922C3.66 8.61 4.668 6.95 4.668 6.95c.004 0 .008.004.012.004l1.554 1.215-1.683 1.879a.563.563 0 00.062.812c.246.207.621.18.84-.058l1.953-2.18a.164.164 0 00.035-.055.38.38 0 00.118-.105.56.56 0 00-.09-.809L6.074 6.566 7.223 4.23l.32.852a.414.414 0 00.523.234c.114-.039 1.786-1.468 1.786-1.468.175-.141.199-.387.054-.555zm0 0"/></g></svg>