<svg xmlns="http://www.w3.org/2000/svg" width="30" height="30"><circle style="isolation:auto;mix-blend-mode:normal;solid-color:#000;solid-opacity:1;marker:none" cx="15" cy="15" r="14.5" color="#000" overflow="visible" fill="#fff" fill-rule="evenodd" stroke="#00a19a"/><path d="M20.059 11.016v7.968c0 .559-.446 1.012-1 1.012-.551 0-.997-.453-.997-1.012v-2.703h-7.125v2.703c0 .559-.445 1.012-.996 1.012-.55 0-1-.453-1-1.012v-7.968c0-.559.45-1.012 1-1.012.551 0 .996.453.996 1.012v2.703h7.126v-2.703c0-.559.445-1.012.996-1.012.554 0 1 .453 1 1.012zm-11.575 6.55v-5.132a.768.768 0 00-.757-.766.762.762 0 00-.754.766v5.132c0 .422.336.762.754.766a.768.768 0 00.757-.766zm13.543 0v-5.132a.762.762 0 00-.754-.766.768.768 0 00-.757.766v5.132c.004.422.34.762.757.766a.762.762 0 00.754-.766zm-15.379-2.02v-1.093a.327.327 0 00-.324-.328.327.327 0 00-.324.328v1.094c0 .18.145.328.324.328.18 0 .324-.148.324-.328zm16.352 0v-1.093a.327.327 0 00-.324-.328.327.327 0 00-.324.328v1.094c0 .18.144.328.324.328.18 0 .324-.148.324-.328zm0 0" fill="#4d4d4d"/></svg>