<svg xmlns="http://www.w3.org/2000/svg" width="30" height="30"><circle style="isolation:auto;mix-blend-mode:normal;solid-color:#000;solid-opacity:1;marker:none" cx="15" cy="15" r="14.5" color="#000" overflow="visible" fill="#fff" fill-rule="evenodd" stroke="#00a19a"/><path d="M22.594 10.242c-1.078-1.668-3.496-2.84-3.496-2.84-9.11-4.511-12.899 3.305-12.899 3.305-.367.793-.281 1.52.781 2.098l3.73 1.566c.435.2.907.2 1.45.113l1.738 3.508a.53.53 0 00-.378.336l-1.305 3.563a.54.54 0 00.36.703l1.35.386c.141.04.29.02.419-.05a.555.555 0 00.258-.328l.984-3.665a.527.527 0 00-.149-.523l3.7-3.25c3.867 1.063 4.398-3.46 3.457-4.922zM13.82 21.926l-.453-.121.903-2.766.222.063zm.996-4.227l-1.699-3.426c.195-.046.399-.101.613-.152 0 0 2.383-.473 3.56.219.292.176.573.32.839.445zm-2.882-7.554c-1.563.195-2.625.64-2.543.488.074-.133 1.527-.969 1.976-1.078.88-.223 1.813-.297 2.703-.125 1.594.312 2.508.773 3.703 1.86.047.038.454.483.465.546.02.129-3.086-2.094-6.304-1.691zM20.406 9c-1.316-.535-4.23-1.828-7.422-.996-2.742.71-3.828 1.074-4.523 1.516-.418.265 1.512-2.602 6.363-2.56.809.009 2.102.13 2.86.403 1.918.696 2.863 1.692 2.722 1.637zm0 0" fill="#4d4d4d"/></svg>