<svg xmlns="http://www.w3.org/2000/svg" width="30" height="30"><circle style="isolation:auto;mix-blend-mode:normal;solid-color:#000;solid-opacity:1;marker:none" cx="15" cy="15" r="14.5" color="#000" overflow="visible" fill="#00a19a" fill-rule="evenodd" stroke="#fff"/><path d="M16.469 18.703c-.39.43-.957.676-1.551.672-.898 0-1.648-.5-1.945-1.36h.004a1.827 1.827 0 01-.079-.523c0-1.043.907-1.887 2.02-1.887 1.117 0 2.023.844 2.023 1.887 0 .254-.058.508-.164.742 1.078 0 2.043 0 2.075-.011.277-.004 2.316-4.75 4.015-8.832V7.008l-3.73 8.785a.178.178 0 01-.223.094c-.91-.305-5.437-1.739-5.437-1.739-.684-.214-1.434.188-1.551.868-.059.324-.035.683-.035 1.086v.308c0 .625.34 1.207.898 1.54l-4.148-1.16L6 17.073l4.375 2.633c-.617.324-.969.707-.969 1.117 0 1.2 3.043 2.168 6.797 2.168 3.754 0 6.797-.969 6.797-2.168 0-1.16-3.055-1.262-6.531-2.12zm-.121 1.957c-.465 0-.84-.11-.84-.246 0-.137.375-.25.84-.25.465 0 .84.113.84.25s-.375.246-.84.246zm0 0" fill="#fff"/></svg>