<svg xmlns="http://www.w3.org/2000/svg" width="30" height="30"><circle style="isolation:auto;mix-blend-mode:normal;solid-color:#000;solid-opacity:1;marker:none" cx="15" cy="15" r="14.5" color="#000" overflow="visible" fill="#fff" fill-rule="evenodd" stroke="#00a19a"/><path d="M22.71 7.613c.009-.125.052-.129 0-.238-.198 0-.3-.18-.5-.238-.194-.055-.44.031-.577-.137-.063.133-.215.164-.395.102-.047.285-.414.265-.394.617-.063-.004-.114.008-.145.031-.027.105.098.066.074.172-.035.094-.18.082-.18.203.212.07.223.336.286.547.219.078.277.308.504.375-.29.101-.528.25-.54.613.778.367.825-.879 1.653-.68.164-.359.559-.675.324-1.125.047-.085.18-.078.18-.207-.086-.02-.262.043-.29-.035zM10.927 19.895c-.156-.024-.149.109-.29.101-.167-.055-.183-.258-.25-.41-.148-.024-.124.11-.288.07-.11-.047-.149-.156-.215-.238-.332.062-.403-.121-.578-.207-.063.055-.075.156-.18.172-.34-.137-.383.293-.754.137-.117.386-.434.609-.898.578-.012.207.242.156.289.308.062.297-.114.367-.145.578.121.192.207.473.25.82.188-.007.219.133.29.239.19-.023.316.02.359.137.039.183-.075.226-.07.375.167-.078.3-.192.538-.203.157.109.262.27.61.203.02-.106.086-.168.18-.203.109.043.097.203.253.203.118-.067-.062-.387.176-.41.152-.008.113.168.29.136a.615.615 0 000-.375c.237-.136.288.168.433.102-.004-.145-.18-.125-.18-.274.16-.207-.055-.609.18-.78.156-.079.676.1.898-.071-.722.187-1.297-.418-.898-.988zm10.277-9.723v-.137c-.2-.058-.168-.035-.36.07-.136-.097-.23-.023-.359-.101-.062.144-.164.254-.43.203-.128.281-.472.488-.468.852 0 .191.21.382.07.546-.593-.593-2.004.032-2.73-.171.094-.262.23-.485.324-.75.133-.032.293-.18.18-.34-.485.156-.473.781-.973.922-.191-.207-.41-.266-.645-.48-.027-.5-.277-.747-.468-1.056-.078-.128-.047-.308-.25-.308a.176.176 0 01-.11.101c-.027.2.102.247.075.446-.371.191-.996-.055-1.403-.239-.043.211.082.262.07.442-.374.183-.609-.078-.968.07-.2-.12-.274-.355-.54-.41-.241-.191-.273-.582-.573-.715-.012.23.109.258.214.406.118.172.235.47.36.618.164.187.37.254.36.441-.02.258-.337.273-.575.41-.227.946-1.363.653-2.16.41.465.227 1.074.325 1.476.614-.265.203-.515.418-.683.714-.211-.015-.266-.18-.54-.136-.03.191.196.136.25.238-.554.125-.784-.34-1.402-.238-.007-.047-.058-.055-.07-.102-.023-.125.078-.129.07-.238-.156-.113-.28-.274-.25-.477-.254-.113-.468-.257-.504-.582-.175-.03-.097.184-.285.137-.097-.281-.277-.094-.539-.203-.043.05-.047.14-.11.168-.386-.082-.39.2-.609.273-.246-.086-.363-.273-.648-.168.012.184.34.063.395.203-.13.32-.227.672-.395.958.148.085.234.289.145.507.222.196.449.422.539.649.129.023.136-.074.25-.067.113.075.222.153.254.309.347-.18.738-.164 1.113-.242.058-.043.012-.192.07-.239.102-.007.195-.03.29-.066.089-.043-.036-.168.034-.172.493.063 1.266-.004 1.653.309.113.367.195.73 0 1.09-.063.043-.239-.028-.395 0-.09-.028-.062-.168-.18-.168-.628.105-1.062.402-1.257.918.039.18.07.367.07.582.172.336.559.472.793.75.074-.141.344-.118.465-.035.406-.196.804-.399.937-.852.54 0 .555.496.899.68-.098.511-.262.957-.395 1.433.262-.199.363-.617.43-1.09.148-.043.25-.125.394-.171.09.085.243.109.254.273 0 .129-.133.125-.144.238.418-.043 1.09-.082 1.043.547.203.059.133-.144.285-.137.344.235.418 1.207.215 1.536-.215-.254-.184-.657-.61-.614-.422.04-.5.617-.215.953.368.118.696.34.899-.066.379.316.14 1.086-.215 1.293-.148.031-.293.066-.324.207.027.008.039.027.035.066.129.07.387.02.574.036.098.168.239.296.254.546-.101.11-.406.204-.324.375.094-.175.484-.226.684-.101.011.12.046.226.07.34.258.09.465.312.789.238.094.105.05.34.18.41.21.016.144-.226.359-.207.086.106-.035.399.18.375.148-.043.082-.285.18-.375.3-.074.476.008.757 0 .04.05.043.14.106.172.023-.063-.106-.14 0-.172.152.008.16.145.359.106-.004-.149-.07-.25 0-.375.691-.04.758-.672 1.117-1.024.438-.078.73.168 1.004.137-.125-.074-.332-.074-.394-.207.074-.09.261-.13.18-.274-.231-.011-.302.125-.43.207-.118-.074-.344-.039-.399-.171-.039-.254.121-.317.219-.446-.031-.164-.152-.242-.145-.441.024-.137.262-.07.25-.238-.007-.141-.234-.075-.324-.137-.043-.25.02-.278.04-.512-.247-.066-.462-.156-.434-.476-.282-.04-.528-.114-.504-.446-.063-.086-.235-.07-.285-.168.039-.011.12-.152.035-.172-.082.207-.496.055-.614-.035-.136.028-.136.188-.32.172-.016-.066-.078-.086-.074-.172.25-.16.742-.09 1.008-.238-.004-.367-.184-.727.035-1.09.035 0 .043-.027.07-.035.059.059.152.086.29.066.316.426.866.434 1.292.72-.23-.4-1.21-.376-1.078-1.231-.234-.051-.184.308-.36.207.083-.278.4-.332.54-.547.87-.238 1.433.512 2.265.238.243-.941-1.55-.746-1.617-1.434-.043-.421.363-.292.649-.406-.09-.273-.516-.062-.649-.238-.015-.3.29-.293.469-.41-.059-.332.219-.36.36-.582-.09-.176-.423-.125-.47-.34.196-.27.477-.848.934-.547.207-.156.348.008.504.137.129-.153.27-.07.469-.035.238-.293.816-.52.61-1.02.01-.137.148-.156.144-.309-.266-.195-.293-.609-.684-.683zm-5.68 7.812c.11-.035.336-.011.325.172-.133.082-.301-.043-.325-.172zm2.375-1.636c.164.054.164.273.25.41-.175-.043-.437-.235-.25-.41zm0 0" fill-rule="evenodd" fill="#4d4d4d"/></svg>