<svg xmlns="http://www.w3.org/2000/svg" width="10" height="10" viewBox="0 0 10 10"><g fill="#4d4d4d"><path d="M9.324 3.54c0 .765-.574 1.382-1.285 1.382-.707 0-1.281-.617-1.281-1.383s.574-1.387 1.281-1.387c.711 0 1.285.621 1.285 1.387zm0 0"/><path d="M2.586 6.516c0-.004.004-.004.008-.004.004-.004.008-.004.011-.008a1.9 1.9 0 00.403-.34c.144-.14.308-.3.523-.422.211-.137.477-.238.84-.238h.02c.582.008.918.312 1.21.594.028.023.051.047.075.07.09.082.176.16.261.23.165.122.34.204.59.196.645-.016.91-.383.989-.524l-.157-.23a.753.753 0 00-.074-.149L5.133 2.398l2.074-1.105c.293-.164.414-.617.262-.938C7.32.035 6.957-.094 6.66.07L4.125 1.426c-.125.074-.223.117-.32.191a.68.68 0 00-.223.29.695.695 0 00.09.765l.75 1.144-3.063 2.407c.207.215.403.37.797.37.172 0 .309-.027.43-.077zm0 0"/><path d="M9.969 6.898c-.297-.289-.637-.617-1.242-.625h-.02c-.59 0-.922.262-1.18.512 0 0-.105.106-.105.11-.125.125-.234.238-.367.32a1.369 1.369 0 01-.578.137c-.352.007-.563-.157-.797-.375a1.296 1.296 0 01-.07-.075c-.188-.199-.41-.433-.774-.55a1.37 1.37 0 00-.496-.09h-.02c-.496 0-.812.183-1.05.39a4.19 4.19 0 00-.266.243c-.07.066-.137.132-.207.19l.008.009a.986.986 0 01-.703.258c-.446 0-.637-.204-.88-.461C.966 6.617.646 6.28 0 6.26v.833c.383.02.559.199.793.449.27.285.605.637 1.309.637.718 0 1.066-.352 1.351-.637.063-.066.121-.125.18-.18.183-.152.375-.254.687-.258h.012c.106 0 .191.012.27.032.199.07.359.215.57.414.027.031.058.058.09.09.258.265.593.554 1.23.554.363 0 .63-.09.844-.218a1.51 1.51 0 00.539-.457c.238-.243.426-.415.832-.415h.016c.347.004.543.176.84.461.124.122.265.258.437.372V6.925a.196.196 0 00-.031-.028zm0 0"/><path d="M9.969 8.703c-.297-.289-.637-.617-1.242-.625h-.02c-.59 0-.922.262-1.18.512 0 0-.105.105-.105.11-.125.124-.234.238-.367.32a1.369 1.369 0 01-.578.136c-.352.008-.563-.156-.797-.375-.024-.023-.047-.047-.07-.074-.188-.2-.41-.434-.774-.55a1.37 1.37 0 00-.496-.09h-.02c-.496 0-.812.183-1.05.39a4.19 4.19 0 00-.266.242c-.07.067-.137.133-.207.192l.008.007a.986.986 0 01-.703.258c-.446 0-.637-.203-.88-.46-.257-.274-.577-.61-1.222-.63v.832c.383.02.559.2.793.45.27.285.605.636 1.309.636.718 0 1.066-.351 1.351-.636.063-.067.121-.125.18-.18.183-.152.375-.254.687-.258h.012c.106 0 .191.012.27.031.199.07.359.215.57.414.027.032.058.06.09.09.258.266.593.555 1.23.555.363 0 .63-.09.844-.219a1.51 1.51 0 00.539-.457c.238-.242.426-.414.832-.414h.016c.347.004.543.176.84.461.124.121.265.258.437.371V8.73a.196.196 0 00-.031-.027zm0 0"/></g></svg>