<svg xmlns="http://www.w3.org/2000/svg" width="30" height="30"><circle style="isolation:auto;mix-blend-mode:normal;solid-color:#000;solid-opacity:1;marker:none" cx="15" cy="15" r="14.5" color="#000" overflow="visible" fill="#00a19a" fill-rule="evenodd" stroke="#fff"/><g fill="#fff"><path d="M21.414 8.512c-2.117-2.012-5.55-2.012-7.668 0-.781.742-1.418 1.804-1.805 2.949l6.391 6.07c1.191-.379 2.3-.996 3.078-1.738 2.117-2.012 2.117-5.27.004-7.281zm0 0M11.996 15.95L7 19.901l2.426 2.301 4.136-4.723c1.083.532 2.47.579 3.825.301l-5.696-5.414c-.27 1.27-.21 2.559.305 3.582zm0 0M14.402 20.535c-.601.57-.609 1.488-.023 2.047.59.559 1.555.55 2.156-.02.602-.574.613-1.488.024-2.05-.59-.559-1.555-.547-2.157.023zm0 0"/></g></svg>