<svg xmlns="http://www.w3.org/2000/svg" width="11" height="7" viewBox="0 0 11 7"><g fill="#4d4d4d"><path d="M5.492 3.54c-.547-1.481-1.18-1.774-1.402-1.938C4.027 1.594 5.262 0 5.5 0c.234 0 1.445 1.582 1.414 1.602-.059.035-1.047.66-1.422 1.937zm0 0M2.25 1.309c.004-.008 1.375.046 2.422 1.644.855 1.305.738 3.594.664 3.637-.082.043-1.828-.203-2.695-1.926-.672-1.328-.422-3.289-.391-3.355zm0 0M8.754 1.3c-.004-.007-1.375.048-2.422 1.645-.855 1.305-.738 3.598-.664 3.637.082.047 1.828-.203 2.695-1.922.672-1.332.426-3.293.39-3.36zm0 0"/><path d="M.004 3.8s1.945 4.09 4.648 3.024c.094-.039-1.98-.062-2.793-3.34-.023-.09-.879-.078-1.113-.027-.543.121-.742.344-.742.344zm0 0M10.996 3.8S9.051 7.89 6.348 6.825c-.094-.039 1.98-.062 2.793-3.34.023-.09.879-.078 1.113-.027.543.121.742.344.742.344zm0 0"/></g></svg>