<svg xmlns="http://www.w3.org/2000/svg" width="30" height="30"><circle style="isolation:auto;mix-blend-mode:normal;solid-color:#000;solid-opacity:1;marker:none" cx="15" cy="15" r="14.5" color="#000" overflow="visible" fill="#fff" fill-rule="evenodd" stroke="#00a19a"/><path d="M14.672 19.54h-.012c-.105-.02-.125-.044-.078-.102l.023.011c.032.016.051.055.067.09zm-.067-.126h-.074l.051.024.023-.024zm8.36 3.504a.15.15 0 01-.121.062c-.016-.003-.032-.003-.047-.011l-4.836-1.54c-.004 0-.008 0-.012.005l-3.383 1.55c-.023.008-.043.016-.066.016a.16.16 0 01-.086-.027.119.119 0 01-.031-.032c-.004 0-.004-.003-.008-.003l-3.813-1.512c-.007-.004-.011-.004-.015 0l-4.34 1.539a.158.158 0 01-.172-.05.153.153 0 01-.012-.18l.985-1.567.98-1.563.965-1.527a.132.132 0 01.059-.055l2.21-1.117a4.538 4.538 0 01.126-6.265 4.5 4.5 0 016.379 0 4.547 4.547 0 01.085 6.316l2.333 1.082a.158.158 0 01.07.063l.906 1.523.93 1.559.926 1.558a.147.147 0 01-.012.176zm-2.09-3.09l-3.492-1.41c-.008-.004-.016 0-.02.004a.03.03 0 00-.008.02l.301 1.128a.054.054 0 00.012.016l1.039.367 2.8.996c.009.004.016 0 .02-.004.008-.007.008-.015.004-.023l-.648-1.086a.008.008 0 00-.008-.008zm-.91-1.527l-2.395-1.11a4.61 4.61 0 01-.453.364l.004.004.121.453c0 .008.008.011.012.015l3.344 1.352.02.008-.645-1.078c-.004 0-.004-.004-.008-.008zm-5.266 1.574v.238l-.02.938c0 .008.005.012.008.015.008.004.016.008.02.004 0 0 2.414-1.273 2.637-1.386 0 0-.29-1.18-.32-1.266l-2.352 1.328c.031.117.027.125.027.129zm3.305-5.871h.68a.136.136 0 00.136-.137.136.136 0 00-.136-.137h-.68c-.18 0-.18.274 0 .274zm-3.817-3.664c0 .18.274.18.274 0v-.203l.18.254c.078.105.246.05.246-.082v-.594c0-.18-.27-.18-.27 0v.172l-.183-.25c-.036-.051-.094-.07-.153-.051a.135.135 0 00-.094.129zm-2.703 3.5a3.062 3.062 0 003.055 3.066 3.064 3.064 0 003.055-3.066 3.063 3.063 0 00-3.055-3.063 3.06 3.06 0 00-3.055 3.063zm2.926 3.469v.66c0 .18.27.18.27 0v-.66c0-.184-.27-.18-.27 0zm-3.156-3.442a.135.135 0 00-.133-.137h-.73c-.18 0-.18.274 0 .274h.73a.135.135 0 00.133-.137zM8.59 19.312l2.914-1.296c.004 0 .008-.004.012-.012l.148-.426.066-.195a3.967 3.967 0 01-.277-.242L9.2 18.28c-.004.004-.008.004-.008.008l-.629.992c-.003.008-.003.016.004.024.004.007.016.007.024.007zM7.586 20.91l3.379-1.332.012-.012.199-.574.18-.527c.003-.008 0-.016-.004-.024a.025.025 0 00-.024 0l-3.094 1.372c-.004 0-.004.003-.007.007l-.668 1.063c-.004.008-.004.015.003.023.004.004.012.008.024.004zm3.238-.906c0-.004 0-.012-.008-.02-.003-.004-.011-.007-.02-.004l-1.925.758-1.621.64a.008.008 0 00-.008.009l-.68 1.082c-.007.008-.003.015 0 .023.004.008.016.008.024.008l3.84-1.363.011-.012zm3.547 1.367a.021.021 0 00-.012-.02l-3.152-1.433a.012.012 0 00-.016 0c-.003 0-.007.004-.011.012l-.043.125-.38 1.093c-.003.008.005.02.013.024l3.55 1.406c.008.004.012.004.02 0a.03.03 0 00.008-.015l.007-.325zm.055-1.574c0-.04-2.7-1.43-2.746-1.356h-.016c-.008.004-.012.008-.012.012l-.043.125-.379 1.094c-.003.012 0 .023.012.027l3.164 1.363c.012.004.02-1.265.02-1.265zm.187-.39c.024-.024.059-.052.098-.083l.004-.004 2.203-1.246a.021.021 0 00.012-.02l-.086-.324a4.493 4.493 0 01-4.848-.152l-.16.461c-.004.008 0 .02.008.024l2.687 1.351.047.024h.016c.008-.004.011-.012.011-.016 0-.008.004-.012.008-.016zm3.14 1.75l-.01-.036-.31-1.168c0-.004-.003-.008-.011-.012-.004-.003-.012 0-.016 0l-1.117.59-1.598.84a.021.021 0 00-.011.02v.234l-.02.938c0 .007.004.015.012.019.004 0 .012.004.02 0l3.05-1.402c.012-.004.016-.016.012-.024zm4.72 1.347l-.66-1.106a.008.008 0 00-.008-.007l-.758-.27-3.254-1.16c-.008-.004-.016 0-.02.004-.007.004-.007.012-.007.02l.304 1.14c0 .008.004.012.012.016l4.367 1.39c.008.004.016 0 .02-.008.008-.003.008-.015.004-.02zM12.645 8.199v-.351c0-.47.378-.848.847-.848h2.184c.465 0 .844.379.844.848v.351a.846.846 0 01-.844.848h-2.184a.847.847 0 01-.847-.848zm.546 0a.3.3 0 00.301.301h2.184a.3.3 0 00.297-.3v-.352a.3.3 0 00-.297-.301h-2.184a.3.3 0 00-.3.3zm3.34 3.723c0 .008-1.43 2.453-1.433 2.457v.004c-.016.023-2.47 1.46-2.477 1.46-.016.005-.031.005-.043-.003-.008 0-.012-.004-.015-.004a.085.085 0 01-.02-.031c-.004-.004-.004-.012-.004-.02v-.02c.004-.003.004-.011.008-.015l.004-.004 1.426-2.445c.015-.024 2.464-1.461 2.476-1.461.043-.027.11.035.078.082zm-1.59 2.414l-.402-.402-1.547 1.546zm1.141-2.133l-1.945 1.145.402.402zm0 0" fill="#4d4d4d"/></svg>