<svg xmlns="http://www.w3.org/2000/svg" width="30" height="30"><circle style="isolation:auto;mix-blend-mode:normal;solid-color:#000;solid-opacity:1;marker:none" cx="15" cy="15" r="14.5" color="#000" overflow="visible" fill="#00a19a" fill-rule="evenodd" stroke="#fff"/><g fill="#fff"><path d="M8.047 9.832c1.558-.684 4.8-1.168 4.953-.84 0 0 .262-1.664.277-1.91a8.873 8.873 0 00-3.68 1.371c-1.062.719-1.66 1.426-1.55 1.379zm0 0M11.691 13.77s1.79 2 1.836 1.964c2.891-2.023 3.996-6.777 4.059-8.199A9.01 9.01 0 0014.636 7c-.53 4.922-2.945 6.77-2.945 6.77zm0 0M14.531 16.55l1.39.891 1.642.79s3.699-1.919 4.171-7.481v-.012a8.048 8.048 0 00-.265-.37 21.102 21.102 0 00-.387-.47 8.42 8.42 0 00-2.305-1.828c-.195 1.668-1 5.723-4.246 8.48zm0 0M22.844 13.281a5.726 5.726 0 00-.094-.37c-.102.16-.613 1.874-1.46 3.323-.74 1.266-1.927 2.348-2.224 2.442l2.778.418c.07-.114.14-.227.207-.344a8.44 8.44 0 00.793-5.469zm0 0"/><path d="M20.957 20.195c-7.402-.812-10.379-5.902-10.379-5.902s-2.281.523-2.281.867c0 .207 1.629 3.2 3.59 4.54 2.597 1.769 5.746 2.331 6.468 2.44.317-.148.625-.316.918-.503a26.076 26.076 0 001.36-1.067c.117-.113.23-.226.34-.347.004-.016 0-.024-.016-.028zm0 0M7.297 15.973l-.89 1.547s.366 1.14 1.323 2.347c1.622 1.98 4.125 3.137 6.778 3.133.547 0 1.094-.05 1.633-.148-.008 0-.016-.004-.024-.004-6.629-1.391-8.82-6.875-8.82-6.875zm0 0M6.043 15.578c1.894-2.441 4.176-2.441 4.535-2.465.363-.027 2.23-2.953 2.004-2.965-3.402-.18-5.953 2.055-6.137 2.22-.054.144-.101.288-.148.437-.203.93-.371 2.93-.254 2.773zm0 0"/></g></svg>