<svg xmlns="http://www.w3.org/2000/svg" width="10" height="10" viewBox="0 0 10 10"><g fill="#4d4d4d"><path d="M10 2.875c0 1.59-1.375 2.875-3.066 2.875-1.696 0-3.067-1.285-3.067-2.875 0-1.586 1.371-2.871 3.067-2.871C8.625.004 10 1.289 10 2.875zm0 0M1.723 1.563C-.773 4.726.465 5.593 1.246 5.832c.309.094.637.094.945.004.782-.234 2.036-1.102-.468-4.274zm0 0M9.281 7.832c0 1.195-2.078 2.164-4.64 2.164C2.078 9.996 0 9.027 0 7.832c0-.621.563-1.184 1.46-1.578.032-.012-.058.73-.058.73l.633.012-.086-.93s1.113-.425 2.692-.398a9.96 9.96 0 011.796.168c.004 0-.394 2.379-.394 2.379h1.562s-.253-2.14-.207-2.125c1.141.394 1.883 1.027 1.883 1.742zm0 0"/></g></svg>