<svg xmlns="http://www.w3.org/2000/svg" width="10" height="11" viewBox="0 0 10 11"><g fill="#4d4d4d"><path d="M0 9.383l2.496-4.93S3.438.781 5.07.266C6.703-.25 8.074.12 8.402.266c.332.144 1.34.707 1.438.933.14.328.414 1.297-.38 2.98C8.38 6.474 6.845 8.228 6.845 8.228L4.454 11l-.2-.516s1.52-1.578 2.46-2.836c.938-1.257 3.165-4.8 2.727-5.933 0 0-.32-.88-1.968.265-1.653 1.141-3.86 3.188-3.86 3.188l-3.168 5.3-.148-.37 3.035-5.121-.547-.372-2.605 5.2zm0 0"/><path d="M5.691 3.734s2.809-2.39 3.297-1.98c.23.191.48.644-.691 2.851-1.152 2.168-3.168 4.508-3.168 4.508l-.742-.5-1.32 2.16-.18-.37S4.55 7.745 4.98 6.682c.43-1.066.711-2.949.711-2.949zm0 0"/></g></svg>