<svg xmlns="http://www.w3.org/2000/svg" width="11" height="10" viewBox="0 0 11 10"><path d="M9.89 1.25C9.56.898 7.985-.578 5.95.254c-2.286.926-2.614 4.492-2.7 4.902-.082.383-.258 1.426-.52 1.758.094.152.293.379.676.59.508-.309 2.11-.48 2.996-.664 1.801-.367 3.477-.836 4.149-1.957 1.168-1.942-.27-3.223-.66-3.633zM8.106 2.938c.102 0 .188.078.188.171 0 .094-.086.168-.188.168-.101 0-.183-.074-.183-.168 0-.093.082-.171.183-.171zm-.18-.633c0-.094.083-.168.184-.168.102 0 .184.074.184.168 0 .093-.082.172-.184.172-.101 0-.183-.079-.183-.172zm-1.128-.559c.101 0 .187.078.187.172 0 .09-.086.168-.187.168-.102 0-.184-.078-.184-.168 0-.094.082-.172.184-.172zm-.43-.398c.102 0 .184.078.184.172 0 .093-.082.167-.184.167-.101 0-.183-.074-.183-.167 0-.094.082-.172.183-.172zM4.844 6.414c-.532.488-1.344.496-1.395.457-.047-.039-.117-.66.344-1.117.086-.09.078-.121.172-.191 0 0 .25-.04.531.12s.336.372.336.372c.031.136.055.316.012.36zm.176-1.883c-.102 0-.184-.078-.184-.172 0-.093.082-.168.184-.168.101 0 .183.075.183.168 0 .094-.082.172-.183.172zm0-.808c-.102 0-.184-.075-.184-.168 0-.094.082-.172.184-.172.101 0 .183.078.183.172 0 .093-.082.168-.183.168zm.02-.813c-.103 0-.185-.074-.185-.168 0-.094.082-.172.184-.172s.184.078.184.172c0 .094-.082.168-.184.168zm.41 2.016c-.102 0-.184-.074-.184-.168 0-.094.082-.172.183-.172.102 0 .184.078.184.172 0 .094-.082.168-.184.168zm.007-.801c-.102 0-.184-.074-.184-.168 0-.094.082-.172.184-.172s.184.078.184.172c0 .094-.082.168-.184.168zm.012-.816c-.102 0-.184-.075-.184-.168 0-.094.082-.172.184-.172.101 0 .187.078.187.172 0 .093-.086.168-.187.168zm.02-.813c-.102 0-.184-.074-.184-.168 0-.094.082-.172.183-.172.102 0 .184.078.184.172 0 .094-.082.168-.184.168zM5.89 5.32c-.102 0-.184-.074-.184-.168 0-.093.082-.172.184-.172.101 0 .183.079.183.172 0 .094-.082.168-.183.168zm-.188-.968c0-.094.082-.168.184-.168.101 0 .183.074.183.168 0 .093-.082.171-.183.171-.102 0-.184-.078-.184-.171zm.203-.641c-.101 0-.183-.074-.183-.168 0-.094.082-.172.183-.172.102 0 .184.078.184.172 0 .094-.082.168-.184.168zm.016-.816c-.106 0-.188-.075-.188-.168 0-.094.082-.172.188-.172.101 0 .183.078.183.172 0 .093-.082.168-.183.168zm.016-.813c-.102 0-.184-.074-.184-.168 0-.094.082-.172.184-.172.101 0 .183.078.183.172 0 .094-.082.168-.184.168zm.386 3.637c-.105 0-.187-.074-.187-.168 0-.094.082-.172.187-.172.102 0 .184.078.184.172 0 .094-.082.168-.184.168zm.004-.801c-.101 0-.183-.078-.183-.172 0-.094.082-.168.183-.168.102 0 .184.074.184.168 0 .094-.082.172-.184.172zm.008-.809c-.102 0-.184-.078-.184-.171 0-.094.082-.168.184-.168.101 0 .184.074.184.167 0 .094-.082.172-.184.172zm.02-.812c-.102 0-.184-.074-.184-.168 0-.094.082-.172.183-.172.102 0 .188.078.188.172 0 .094-.086.168-.188.168zm.015-.817c-.101 0-.187-.074-.187-.167 0-.094.086-.172.187-.172.102 0 .184.078.184.171 0 .094-.082.168-.184.168zm.39 2.836c-.1 0-.183-.078-.183-.171 0-.094.082-.168.184-.168.101 0 .183.074.183.168 0 .093-.082.171-.183.171zm.016-.812c-.101 0-.183-.078-.183-.172 0-.094.082-.168.183-.168.102 0 .188.074.188.168 0 .094-.086.172-.188.172zm.008-.809c-.101 0-.183-.078-.183-.172 0-.093.082-.168.183-.168.102 0 .188.075.188.168 0 .094-.086.172-.188.172zm.02-.812c-.102 0-.184-.074-.184-.168 0-.094.082-.172.184-.172.105 0 .187.078.187.172 0 .094-.082.168-.187.168zm.394 2.836c-.101 0-.183-.078-.183-.172 0-.094.082-.168.183-.168.102 0 .184.074.184.168 0 .094-.082.172-.184.172zm.012-.817c-.102 0-.184-.078-.184-.172 0-.093.082-.168.184-.168.101 0 .184.075.184.168 0 .094-.082.172-.184.172zm.02-.812c-.106 0-.188-.078-.188-.172 0-.094.082-.168.187-.168.102 0 .184.074.184.168 0 .094-.082.172-.184.172zm.007-.809c-.105 0-.187-.078-.187-.172 0-.093.082-.168.187-.168.102 0 .184.075.184.168 0 .094-.082.172-.184.172zm-.187-.96c0-.094.082-.173.183-.173.102 0 .184.079.184.172 0 .094-.082.168-.184.168-.101 0-.183-.074-.183-.168zm.191-.645c-.101 0-.183-.074-.183-.168 0-.094.082-.172.183-.172.102 0 .184.078.184.172 0 .094-.082.168-.184.168zm.406 3.629c-.101 0-.183-.078-.183-.172 0-.094.082-.168.183-.168.102 0 .184.074.184.168 0 .094-.082.172-.184.172zm.012-.82c-.101 0-.183-.075-.183-.169 0-.093.082-.168.183-.168.102 0 .184.075.184.168 0 .094-.082.168-.184.168zm.02-.81c-.102 0-.188-.077-.188-.171 0-.094.086-.168.188-.168.101 0 .183.074.183.168 0 .094-.082.172-.183.172zm-.2-.96c0-.094.082-.168.184-.168s.184.074.184.168c0 .094-.082.168-.184.168-.101 0-.184-.074-.184-.168zm.2-.637c-.102 0-.184-.074-.184-.168 0-.094.082-.172.184-.172.101 0 .183.078.183.172 0 .094-.082.168-.183.168zM8.078 5.7c-.101 0-.183-.074-.183-.168 0-.093.082-.172.183-.172.102 0 .184.079.184.172 0 .094-.082.168-.184.168zm.02-.808c-.102 0-.184-.079-.184-.172 0-.094.082-.168.184-.168.101 0 .183.074.183.168 0 .093-.082.172-.183.172zm.011-.82c-.101 0-.183-.075-.183-.169 0-.093.082-.172.183-.172.102 0 .184.079.184.172 0 .094-.082.168-.184.168zm.032-2.415c-.102 0-.184-.078-.184-.172 0-.093.082-.168.184-.168.101 0 .183.075.183.168 0 .094-.082.172-.183.172zm.386 3.63c-.101 0-.183-.079-.183-.173 0-.093.082-.168.183-.168.102 0 .184.075.184.168 0 .094-.082.172-.184.172zm.02-.813c-.102 0-.184-.075-.184-.168 0-.094.082-.168.184-.168.101 0 .183.074.183.168 0 .093-.082.168-.183.168zm-.192-.965c0-.094.082-.172.184-.172s.184.078.184.172c0 .094-.082.168-.184.168-.101 0-.184-.074-.184-.168zm.196-.637c-.102 0-.184-.078-.184-.172 0-.094.082-.168.184-.168.101 0 .183.074.183.168 0 .094-.082.172-.183.172zm.02-.82c-.102 0-.184-.074-.184-.168 0-.094.082-.172.183-.172.102 0 .184.078.184.172 0 .094-.082.168-.184.168zm.406 2.82c-.102 0-.184-.078-.184-.172 0-.094.082-.168.184-.168.101 0 .183.074.183.168 0 .094-.082.172-.183.172zm-.184-.96c0-.095.082-.173.184-.173.101 0 .183.078.183.172 0 .094-.082.168-.183.168-.102 0-.184-.074-.184-.168zm.191-.645c-.101 0-.187-.075-.187-.168 0-.094.086-.168.187-.168.102 0 .184.074.184.168 0 .093-.082.168-.184.168zm.028-.82c-.102 0-.184-.075-.184-.169 0-.093.082-.172.184-.172.101 0 .183.079.183.172 0 .094-.082.168-.183.168zm.394 2.03c-.101 0-.183-.078-.183-.171 0-.094.082-.168.183-.168.102 0 .184.074.184.168 0 .093-.082.172-.184.172zm.012-.804c-.102 0-.184-.078-.184-.172 0-.094.082-.168.184-.168.105 0 .187.074.187.168 0 .094-.082.172-.187.172zm.023-.828c-.101 0-.183-.078-.183-.172 0-.094.082-.168.183-.168.106 0 .188.074.188.168 0 .094-.082.172-.188.172zM3.297 7.582c-.356.305-2.047 1.852-2.125 1.945-.09.098-.25.461-.414.47-.16.01-.758-.329-.758-.7 0-.172.324-.25.52-.379.062-.04 1.828-1.648 2.117-1.91.105.16.304.37.66.574zm6.336 1.05c0 .72-.621 1.313-1.406 1.337-.782.023-1.446-.528-1.5-1.246C6.676 8 7.25 7.37 8.03 7.297c-.074.137-.242.36-.601.68-.356.316-.543.68-.524 1.02a.859.859 0 00.367.648c.204.144.48.226.758.226.121 0 .246-.016.364-.05.3-.083.515-.266.605-.516a7.58 7.58 0 00.152-.477c.09-.297.188-.625.309-.828.113.195.172.41.172.633zM8.18 7.294c.48 0 .933.219 1.203.59-.145.21-.246.554-.356.914-.047.16-.097.324-.152.473-.074.207-.258.363-.52.437-.335.094-.742.031-1.003-.156a.73.73 0 01-.313-.559c-.02-.305.152-.637.48-.93.422-.374.59-.624.66-.769zm0 0" fill="#4d4d4d"/></svg>