<svg xmlns="http://www.w3.org/2000/svg" width="30" height="30"><circle style="isolation:auto;mix-blend-mode:normal;solid-color:#000;solid-opacity:1;marker:none" cx="15" cy="15" r="14.5" color="#000" overflow="visible" fill="#00a19a" fill-rule="evenodd" stroke="#fff"/><g fill="#fff"><path d="M14.484 14.563c-.84-2.329-1.82-2.79-2.16-3.047C12.223 11.508 14.133 9 14.496 9c.367 0 2.234 2.484 2.188 2.516-.09.058-1.618 1.039-2.2 3.046zm0 0M9.477 11.055c.007-.012 2.125.074 3.746 2.586 1.324 2.05 1.136 5.648 1.023 5.714-.125.07-2.82-.32-4.164-3.023-1.039-2.09-.656-5.172-.605-5.277zm0 0M19.527 11.043c-.004-.012-2.12.074-3.742 2.586-1.324 2.047-1.14 5.648-1.027 5.715.125.07 2.824-.32 4.168-3.024 1.039-2.09.656-5.172.601-5.277zm0 0"/><path d="M6.004 14.973s3.008 6.425 7.184 4.75c.144-.059-3.063-.098-4.313-5.246-.035-.141-1.36-.125-1.719-.047-.843.191-1.152.543-1.152.543zm0 0M22.996 14.973s-3.008 6.425-7.183 4.75c-.145-.059 3.062-.098 4.312-5.246.035-.141 1.36-.125 1.719-.047.843.191 1.152.543 1.152.543zm0 0"/></g></svg>