<svg xmlns="http://www.w3.org/2000/svg" width="30" height="30"><circle style="isolation:auto;mix-blend-mode:normal;solid-color:#000;solid-opacity:1;marker:none" cx="15" cy="15" r="14.5" color="#000" overflow="visible" fill="#fff" fill-rule="evenodd" stroke="#00a19a"/><path d="M22.941 11.813c-.156-.63-.59-1.239-1.328-1.868-1.531-1.293-3.058-1.258-4.191.106-1.09 1.308-1.606 3.258-1.777 4.035-.18.809-.301 1.77-.207 2.402-.063.164-.126.328-.188.496-.016 0-.027.008-.04.02l-.105.125a.065.065 0 00.004.082l-.609.734-.61-.734a.065.065 0 00.005-.082l-.106-.125c-.012-.012-.023-.02-.039-.02l-.188-.496c.094-.633-.027-1.593-.207-2.402-.171-.777-.687-2.727-1.777-4.035-1.133-1.363-2.66-1.399-4.191-.106-.739.63-1.172 1.239-1.328 1.868-.184.757.054 1.539.699 2.316 1.078 1.293 2.918 2.14 3.66 2.445.64.262 1.273.461 1.785.559l.086.012.008.007.004-.004c.125.02.254.036.379.043l.015.024c.153.09.305.183.457.273 0 .016.004.032.012.043l.106.125c.02.028.054.032.082.012l.691.828-.688.828-.043-.035a.054.054 0 00-.082.008l-.066.078c-.023.027-.02.063.008.086l.621.523c.023.024.062.02.082-.007l.066-.079a.066.066 0 00-.007-.085l-.043-.036.609-.73.61.73-.044.035a.066.066 0 00-.007.086l.066.079c.023.027.059.03.082.007l.621-.523c.027-.024.031-.059.008-.086l-.066-.078a.054.054 0 00-.082-.008l-.043.035-.688-.828.691-.828c.028.02.063.016.082-.012l.106-.125a.079.079 0 00.012-.043l.457-.273.015-.024c.125-.007.254-.023.38-.043l.003.004.008-.007.086-.012c.512-.098 1.144-.297 1.785-.559.742-.304 2.582-1.152 3.66-2.445.645-.777.883-1.559.7-2.316zm-9.695 3.539l-.305-.61.192-.16c.05.281.09.54.113.77zm-.195-1.196c.008.047.015.094.027.14l-.25.212-.418-.848.418-.355c.082.277.156.558.223.851zM9.68 12.902l.586.703-.407.348-.668-.64zm-.672.235L8.34 12.5l.59-.5.59.707zm.863-.399l.512-.433.508.773-.43.363zm.559 1.063l.586.707-.309.262-.664-.641zm.191-.164l.41-.348.508.773-.332.282zm.606-.512l.453-.383.418.852-.364.304zm-.141-.21l-.508-.774.567-.48.418.85zm-.648-.985l-.508-.774.68-.578.417.848zm-.196.164l-.531.449-.586-.707.61-.516zm-1.281-.45l-.586-.707.71-.605.513.773zm-.191.16l-.614.52-.664-.64.692-.582zm-.805.684l-.707.598-.758-.563.797-.675zm.183.176l.664.637-.59.5-.757-.563zm.848.813l.668.64-.477.403-.757-.563zm.852.816l.664.64-.36.305-.757-.562zm.847.816l.668.637-.246.211-.758-.562zm.196-.164l.285-.246.59.707-.207.176zm.48-.406l.309-.262.507.77-.23.195zm.504-.426l.336-.289.418.852-.246.207zm.875-1.074l-.457.387-.418-.852.54-.453c.12.293.233.598.335.918zm-.441-1.16l-.547.465-.418-.852.535-.453c.16.27.305.55.43.84zm-.97-1.625c.145.18.282.371.407.566l-.52.438-.417-.848.378-.32c.051.055.102.105.153.164zm-.331-.34l-.313.262-.343-.696c.218.094.437.235.656.434zm-.512.43l-.707.597-.508-.773.797-.672zm-.629-1l-.726.613-.329-.5a2.228 2.228 0 011.055-.113zm-1.293.21l.375.567-.738.621-.524-.633c.247-.195.547-.402.887-.554zm-1.078.72l.524.632-.711.602-.512-.488c.18-.25.414-.497.7-.747zm-.844.956l.461.442-.797.676c-.004-.375.106-.746.336-1.118zm.067 2.31a2.575 2.575 0 01-.36-.81l.7.524zm.281.386a5.36 5.36 0 01-.137-.176l.407-.344.753.563-.539.457a5.854 5.854 0 01-.484-.5zm.676.672l.554-.473.758.563-.562.476a8.198 8.198 0 01-.75-.566zm.972.71l.547-.464.758.562-.46.39c-.298-.155-.579-.32-.845-.487zm2.024 1.024c-.047-.02-.09-.031-.137-.05-.273-.114-.539-.239-.797-.364l.422-.356.758.563zm.27.102l.183-.157.523.391a8.757 8.757 0 01-.707-.234zm1.34.39l-.958-.71.223-.192.98.941c-.078-.011-.156-.023-.246-.039zm.546.063c-.008 0-.012-.004-.02-.004l.051-.051-1.117-1.074.184-.156.992 1.187c-.031.031-.063.063-.09.098zm.406-.344a1.413 1.413 0 00-.125.086l-.988-1.192.207-.175.852 1.297.058-.036c-.004.004-.004.016-.004.02zm.036-.305l-.747-1.14.223-.188.535 1.086c0 .086-.004.164-.011.242zm8.933-5.218l-.512.488-.71-.602.523-.633c.285.25.52.5.7.747zm-3.824 2.617l-.586.707-.332-.281.508-.774zm-.27-.559l.508-.773.512.433-.59.703zm.461.723l.387.328-.664.64-.309-.261zm.164-.196l.586-.703.489.41-.668.641zm.746-.898l.59-.707.59.5-.668.637zm.75-.902l.586-.703.692.582-.664.64zm-.19-.16l-.638-.54.512-.773.711.605zm-.165.19l-.586.708-.531-.45.508-.773zm-1.313.09l-.59-.5.419-.847.68.578zm-.14.216l-.508.773-.477-.402.418-.852zm-.649.984l-.507.773-.364-.304.418-.852zm-.648.988l-.508.77-.246-.207.418-.852zm.195.164l.309.262-.586.703-.23-.195zm.504.422l.285.246-.668.637-.207-.176zm.48.41l.337.286-.758.562-.246-.21zm.184-.175l.664-.641.453.383-.757.562zm.848-.817l.668-.64.566.48-.758.563zm.851-.816l.665-.637.683.574-.758.563zm.848-.813l.668-.64.797.675-.758.563zm.277-2.379l-.523.633-.738-.62.375-.567c.34.152.64.36.886.554zm-1.125-.652l-.328.5-.726-.613c.367-.055.722 0 1.054.113zm-.468.711l-.508.773-.707-.597.418-.848zm-1.07-.688l-.344.696-.313-.262c.219-.2.438-.34.656-.434zm-.989.774c.05-.059.102-.11.152-.164l.38.32-.419.848-.52-.438c.126-.195.263-.386.407-.566zm-.539.785l.535.453-.418.852-.547-.465c.125-.29.27-.57.43-.84zm-.535 1.082l.539.453-.418.852-.457-.387c.102-.32.215-.625.336-.918zm-.637 2.035c.067-.293.14-.574.223-.851l.418.355-.418.848-.25-.211c.012-.047.02-.094.027-.14zm-.082.426l.192.16-.305.61c.023-.23.062-.489.113-.77zm-.137 1.652a2.263 2.263 0 01-.011-.238l.535-1.086.223.188zm.036.309c0-.004 0-.016-.004-.02l.058.036.852-1.297.207.175-.988 1.192a1.413 1.413 0 00-.125-.086zm.375.289l.05.05c-.007 0-.011.005-.02.005-.026-.035-.058-.067-.089-.098l.992-1.187.184.156zm.578-.008c-.09.016-.168.028-.246.04l.98-.942.223.191zm.633-.156l.523-.39.184.16a10.45 10.45 0 01-.707.23zm1.113-.387c-.047.02-.09.032-.137.051l-.246-.207.758-.563.422.356c-.258.125-.524.25-.797.363zm1.043-.484l-.461-.39.758-.563.547.465c-.266.168-.547.332-.844.488zm1.066-.633l-.562-.476.758-.563.554.473c-.238.203-.488.39-.75.566zM22 13.926a5.854 5.854 0 01-.484.5l-.54-.457.754-.563.407.344a5.36 5.36 0 01-.137.176zm.281-.387l-.34-.285.7-.524c-.063.27-.184.536-.36.81zm-.394-1.867l.46-.442c.231.372.34.743.337 1.118zm-7.387-.527c.336 0 .61-.278.61-.618a.611.611 0 00-.61-.613.611.611 0 00-.61.613c0 .34.274.618.61.618zm0 0" fill="#4d4d4d"/></svg>