<svg xmlns="http://www.w3.org/2000/svg" width="30" height="30"><circle style="isolation:auto;mix-blend-mode:normal;solid-color:#000;solid-opacity:1;marker:none" cx="15" cy="15" r="14.5" color="#000" overflow="visible" fill="#fff" fill-rule="evenodd" stroke="#00a19a"/><g fill="#4d4d4d"><path d="M22.723 17.313c0 1.234-1.043 2.234-2.332 2.234-1.29 0-2.332-1-2.332-2.235 0-1.238 1.043-2.238 2.332-2.238s2.332 1 2.332 2.239zm0 0"/><path d="M17.684 16.98a5.82 5.82 0 01-.766.204c-1.227.222-2.344-.028-3.14-.7-.798-.675-1.196-1.707-1.118-2.898.078-1.242.652-2.5 1.617-3.55.965-1.052 2.196-1.755 3.47-1.985.284-.055.57-.082.858-.082.883 0 1.672.265 2.282.781.797.672 1.191 1.703 1.117 2.898-.07 1.059-.5 2.13-1.227 3.075.344.047.676.156.977.32.726-1.031 1.16-2.188 1.234-3.336.098-1.496-.418-2.797-1.449-3.668-1.031-.871-2.445-1.2-3.976-.922-1.489.274-2.918 1.086-4.024 2.293-1.11 1.207-1.773 2.668-1.863 4.117-.063.938.277 2.059.52 2.532.19.37-.555 1.175-.563 1.183l-4.434 4.551a.687.687 0 00.031.996.756.756 0 001.036-.031l4.511-4.625s.723-.586.996-.492c.727.254 1.446.57 2.278.57a5.942 5.942 0 001.695-.254 2.42 2.42 0 01-.062-.977zm0 0"/></g></svg>