<svg xmlns="http://www.w3.org/2000/svg" width="30" height="30"><circle style="isolation:auto;mix-blend-mode:normal;solid-color:#000;solid-opacity:1;marker:none" cx="15" cy="15" r="14.5" color="#000" overflow="visible" fill="#00a19a" fill-rule="evenodd" stroke="#fff"/><path d="M16.352 20.77c0 .726-.598 1.316-1.332 1.316-.735 0-1.332-.59-1.332-1.316 0-.727.597-1.317 1.332-1.317.734 0 1.332.59 1.332 1.317zm4.503 1.308l-.515-.539-3.457-3.687V6.707a.707.707 0 00-.711-.703h-.043a.712.712 0 00-.711.703v5.531h-.664V6.707a.71.71 0 00-.711-.703H14a.707.707 0 00-.71.703v11.164l-3.247 3.348-.89.879a.514.514 0 000 .73l.015.016a.528.528 0 00.742 0l1.14-1.13c.016-.015.032-.034.048-.05l3.039-2.973h1.898l3.121 3.157.926.957c.2.207.531.215.738.02l.02-.016a.514.514 0 00.015-.73zm0 0" fill="#fff"/></svg>