<svg xmlns="http://www.w3.org/2000/svg" width="9" height="10" viewBox="0 0 9 10"><g fill="#4d4d4d"><path d="M4.16 5.227c0 .644-.566 1.164-1.265 1.164-.7 0-1.266-.52-1.266-1.164 0-.641.566-1.16 1.266-1.16.699 0 1.265.519 1.265 1.16zm0 0"/><path d="M8.816.02a.3.3 0 00-.375.144l-.097.223c-.004.004-.012.011-.012.015L4.766 8.461a.12.12 0 01-.149.062c-.597-.195-3.57-1.093-3.57-1.093-.45-.137-.942.117-1.02.543-.035.207-.02.43-.02.683v.196c0 .628.56 1.14 1.247 1.14 0 0 3.273.016 3.324 0 .266-.004 3.067-6.547 3.938-8.594 0 0 0-.003.004-.003L8.977.363c.058-.136-.012-.289-.16-.343zm0 0"/></g></svg>