<svg xmlns="http://www.w3.org/2000/svg" width="30" height="30"><circle style="isolation:auto;mix-blend-mode:normal;solid-color:#000;solid-opacity:1;marker:none" cx="15" cy="15" r="14.5" color="#000" overflow="visible" fill="#fff" fill-rule="evenodd" stroke="#00a19a"/><g fill="#4d4d4d"><path d="M7.273 13.004c.97-.469 2.985-.8 3.079-.574 0 0 .164-1.137.175-1.305a5.151 5.151 0 00-2.289.938c-.664.488-1.035.972-.965.94zm0 0M9.54 15.691s1.108 1.372 1.14 1.344c1.797-1.383 2.484-4.629 2.523-5.601a5.192 5.192 0 00-1.832-.368c-.332 3.368-1.832 4.625-1.832 4.625zm0 0M11.305 17.594l.863.61 1.023.534s2.301-1.308 2.594-5.11v-.003l-.164-.254a5.33 5.33 0 00-1.676-1.57c-.12 1.137-.62 3.91-2.64 5.793zm0 0M16.477 15.36c-.02-.087-.04-.172-.063-.255-.062.11-.379 1.282-.906 2.274-.461.863-1.2 1.601-1.383 1.664l1.727.289.128-.234a6.298 6.298 0 00.497-3.739zm0 0"/><path d="M15.3 20.086c-4.6-.559-6.452-4.035-6.452-4.035s-1.418.36-1.418.59c0 .144 1.011 2.191 2.23 3.101 1.613 1.211 3.574 1.598 4.024 1.672.195-.102.386-.219.57-.344.281-.23.625-.523.844-.73.074-.074.144-.156.21-.238.005-.008.005-.016-.007-.016zm0 0"/><path d="M6.805 17.2l-.555 1.058s.23.777.828 1.601C8.082 21.211 9.641 22.004 11.29 22c.34 0 .68-.035 1.016-.102-.004 0-.008-.003-.016-.003-4.121-.95-5.484-4.696-5.484-4.696zm0 0M6.027 16.93c1.176-1.668 2.594-1.668 2.82-1.688.223-.015 1.383-2.015 1.247-2.023-2.117-.121-3.703 1.406-3.817 1.515-.035.098-.066.2-.093.297-.125.637-.23 2.004-.157 1.899zm0 0"/><path d="M22.996 14.39V8.267a.232.232 0 00-.23-.235.231.231 0 00-.227.235v1.023c-1.527-.504-4.129-.883-6.75-.977-3.148-.113-5.918.172-7.844.81v-.888A.231.231 0 007.72 8a.231.231 0 00-.227.234v4.09c.145-.14.297-.273.453-.398V9.652c1.875-.652 4.653-.949 7.828-.836.43.016.86.04 1.282.07l-.012.954a31.886 31.886 0 00-5.762.144l.395.188c1.515-.176 3.164-.238 5.363-.086-.004.297-.004.586 0 .867a36.185 36.185 0 00-3.574-.062l.383.242a28.992 28.992 0 013.191.066c.004.32.012.637.027.938a30.223 30.223 0 00-1.89-.075l.332.25c.64.008.941.024 1.57.07.016.294.04.575.07.848a33.79 33.79 0 00-1.128-.066c-.063-.004-.114.008-.176.004.125.176.238.355.34.543 2.761.148 5.23.574 6.355.941v4.22c0 .128.102.233.227.233.129 0 .23-.105.23-.234v-4.394a.316.316 0 000-.086zm-4.656-4.187c.281.035.566.07.855.113-.007.293-.015.586-.02.871a20.205 20.205 0 00-.831-.109c-.004-.265-.004-.558-.004-.875zm1.066 1.266c.258.039.516.082.774.133a18.59 18.59 0 000 .933c-.258-.047-.512-.09-.77-.133-.008-.3-.008-.613-.004-.933zm.004-.246c.004-.286.012-.578.02-.871.254.039.511.082.773.128-.004.079-.004.153-.008.227l-.011.648c-.258-.05-.516-.093-.774-.132zm1.02-.508c.004-.063.004-.125.004-.188.28.055.562.114.843.176-.004.297-.004.59 0 .879a20.97 20.97 0 00-.859-.184l.012-.683zm.011-.434c.004-.312.012-.636.016-.98.293.054.578.113.84.172-.004.332-.012.66-.016.984a16.935 16.935 0 00-.84-.176zm-.234-.047c-.258-.046-.516-.09-.77-.129.004-.097.004-.195.008-.293.008-.218.012-.445.02-.671.262.039.512.078.758.12-.004.34-.008.665-.016.973zm-.996-.43c-.004.09-.004.18-.008.266-.289-.043-.578-.078-.863-.11.004-.296.008-.612.015-.956.297.031.59.066.875.105-.007.235-.011.47-.02.696zm-.04 1.63c-.003.32-.003.632.005.933-.266-.039-.528-.074-.797-.105a43.585 43.585 0 01-.031-.942c.277.035.55.07.824.114zm.009 1.18c.011.288.023.566.047.831-.247-.035-.5-.062-.762-.093-.024-.239-.05-.512-.07-.844.265.031.527.066.785.105zm.238.034c.258.043.512.086.766.133.007.278.023.543.05.809-.246-.04-.5-.078-.77-.113-.023-.266-.038-.54-.046-.829zm1.004.18c.3.059.601.125.898.195.016.266.035.524.059.778a22.532 22.532 0 00-.906-.172 10.61 10.61 0 01-.051-.8zm-.008-.25a18.586 18.586 0 010-.933c.29.058.578.117.867.183.004.32.012.637.028.942-.297-.07-.594-.133-.895-.192zm1.102-.691c.343.082.687.172 1.023.27v.929c-.328-.094-.66-.18-.996-.262a35.472 35.472 0 01-.027-.937zm-.004-.25c-.004-.29-.004-.582 0-.88.34.083.683.173 1.027.27v.875c-.34-.093-.68-.183-1.027-.265zm1.027-.864a26.252 26.252 0 00-1.023-.261c.004-.325.007-.653.015-.985.38.094.715.192 1.008.293zm-5.25-1.87c.281.023.559.046.832.074-.008.312-.012.632-.016.957-.277-.028-.554-.055-.828-.075l.012-.957zm-.016 1.199c.274.023.551.046.832.078-.003.289 0 .578.004.87a19.533 19.533 0 00-.836-.077 32.368 32.368 0 010-.871zm0 1.113c.282.023.563.05.84.082.004.316.016.629.032.937a51.918 51.918 0 00-.844-.078 35.29 35.29 0 01-.028-.941zm.043 1.187c.282.024.563.047.844.078.016.29.04.575.067.848-.274-.027-.551-.055-.84-.078a14.302 14.302 0 01-.07-.848zm4.305 1.45a15.51 15.51 0 01-.062-.774c.328.082.656.168.98.262v.746a13.938 13.938 0 00-.918-.234zm0 0"/></g></svg>