<svg xmlns="http://www.w3.org/2000/svg" width="30" height="30"><circle style="isolation:auto;mix-blend-mode:normal;solid-color:#000;solid-opacity:1;marker:none" cx="15" cy="15" r="14.5" color="#000" overflow="visible" fill="#00a19a" fill-rule="evenodd" stroke="#fff"/><g fill="#fff"><path d="M18.71 9.102c-.565.515-1.46.777-2.429.886.164.489.317.989.446 1.504 2.203-.05 4.156-.066 5.761.098a8.515 8.515 0 00-2.867-3.871c-.226.574-.531 1.039-.91 1.383zm0 0M16.086 11.512a18.404 18.404 0 00-.453-1.469c-.23.012-.465.016-.696.016-.902 0-1.785-.082-2.457-.168a25.722 25.722 0 01-4.398-.965A8.48 8.48 0 006 14.5c0 .305.016.61.047.91.855-.765 1.91-1.473 3.129-2.074 2.156-1.066 4.59-1.707 6.91-1.824zm0 0M17.332 14.188c-.027 0-.059 0-.09.003a24.04 24.04 0 01.195 3.09c0 2.063-.164 3.824-.503 5.364a8.51 8.51 0 005.003-4.032 7.908 7.908 0 00-1.074-2.336c-.933-1.347-2.187-2.09-3.531-2.09zm0 0"/><path d="M16.879 12.113c.105.477.2.961.273 1.453.063-.003.121-.007.18-.007 1.559 0 2.996.84 4.047 2.359.39.562.71 1.195.96 1.875a8.544 8.544 0 00.356-5.55c-1.574-.188-3.558-.177-5.816-.13zm0 0M16.625 14.305c-2.535.8-5.816 5.445-6.52 7.472a8.514 8.514 0 006.141 1.043c.383-1.57.567-3.383.567-5.539 0-.992-.063-1.988-.188-2.976zm0 0M15.402 9.422c-.152-.383-.32-.758-.496-1.117a12.366 12.366 0 00-1.398-2.246 8.469 8.469 0 00-4.945 2.359c2.058.621 4.746 1.074 6.84 1.004zm0 0"/><path d="M16.535 13.68c-.082-.524-.18-1.04-.297-1.547-2.27.097-4.668.719-6.781 1.765-1.324.653-2.441 1.426-3.293 2.266a8.509 8.509 0 003.406 5.262c.43-1.125 1.422-2.754 2.598-4.211.95-1.18 2.672-3.047 4.367-3.535zm0 0M16.059 9.383c.976-.094 1.77-.328 2.23-.746.336-.305.606-.739.805-1.29A8.446 8.446 0 0014.5 6c-.082 0-.164 0-.242.004.437.601.844 1.273 1.21 2.023.216.434.41.887.59 1.356zm0 0"/></g></svg>