<svg xmlns="http://www.w3.org/2000/svg" width="30" height="30"><circle style="isolation:auto;mix-blend-mode:normal;solid-color:#000;solid-opacity:1;marker:none" cx="15" cy="15" r="14.5" color="#000" overflow="visible" fill="#00a19a" fill-rule="evenodd" stroke="#fff"/><g fill="#fff"><path d="M20.563 18.883a.82.82 0 01-1.008.605c-.442-.117-.703-.582-.586-1.039a.824.824 0 011.008-.605.852.852 0 01.586 1.039zm0 0"/><path d="M22.559 16.988c-.82-1.445-2.555-2.039-4.051-1.386l-.535-1.532.89-1.03 1.024.71a.384.384 0 00.539-.11.412.412 0 00-.106-.554l-2.492-1.727a.375.375 0 00-.535.106.407.407 0 00.102.555l.82.57-.219.254-4.781-2.594.851-1.328.926.5a.382.382 0 00.524-.168.402.402 0 00-.164-.54l-1.235-.667a.382.382 0 00-.504.137l-2.98 4.636a3.447 3.447 0 00-.578-.218c-1.727-.465-3.496.597-3.95 2.375-.453 1.78.583 3.601 2.31 4.066 1.726.465 3.495-.602 3.948-2.375a3.388 3.388 0 00-1.078-3.418l1.383-2.156 2.047 4.492a1.233 1.233 0 00.355 1.828c.477.266 1.07.164 1.438-.246l.316.117a3.14 3.14 0 00-.187.54c-.453 1.777.582 3.597 2.308 4.062.27.074.547.11.825.11 1.16 0 2.226-.642 2.8-1.677a3.418 3.418 0 00-.011-3.332zm-.239 2.367c-.308 1.223-1.383 2.032-2.554 2.032-.82 0-1.59-.39-2.09-1.059a2.787 2.787 0 01-.465-2.351c.309-1.22 1.383-2.032 2.555-2.032.226 0 .453.032.672.09 1.406.383 2.253 1.871 1.882 3.32zm-6.343-4.171c-.012-.004-.028-.012-.043-.016a1.175 1.175 0 00-.559-.008l-1.715-3.77 3.805 2.067zm-.735 1.054a.405.405 0 01.496-.297.42.42 0 01.29.512.403.403 0 01-.743.106.436.436 0 01-.043-.32zm1.363-.582l.782-.906.437 1.254a3.328 3.328 0 00-.586.586l-.425-.156c.019-.278-.055-.551-.208-.778zm-7.316-.832a.98.98 0 00-.988.719c-.125.445.062.922.457 1.152a.95.95 0 001.191-.199c.305-.344.34-.855.086-1.238l.945-1.477a2.775 2.775 0 01.583 3.32c-.575 1.114-1.817 1.672-3 1.352-1.407-.379-2.254-1.871-1.883-3.32.308-1.219 1.383-2.031 2.554-2.031.352 0 .7.074 1.024.214zm0 0"/></g></svg>