<svg xmlns="http://www.w3.org/2000/svg" width="30" height="30"><circle style="isolation:auto;mix-blend-mode:normal;solid-color:#000;solid-opacity:1;marker:none" cx="15" cy="15" r="14.5" color="#000" overflow="visible" fill="#fff" fill-rule="evenodd" stroke="#00a19a"/><path d="M17.96 7.203C18.763 7.47 20 8.484 20 9.86c0 1.371-.246 2.551-4.145 5.805-.289.242-1.199 1.2-1.93 2.27-.812 1.191-1.445 2.507-1.624 2.851-.34.656-.332.895-.137 1.36.168.402-.129.816-.434.851-.43.047-1.886-.406-1.714-.867.144-.402.664-.984 1.543-2.762.496-1 .906-2.16 1.113-2.777.496-1.477.433-5.328.71-6.27.278-.937.774-2.492 2.274-3.074 1.348-.523 2.305-.043 2.305-.043zm0 0" fill="#4d4d4d"/></svg>