<svg xmlns="http://www.w3.org/2000/svg" width="11" height="9" viewBox="0 0 11 9"><g fill="#4d4d4d"><path d="M9.426 6.996a.536.536 0 01-.653.39.547.547 0 01-.382-.667.535.535 0 01.652-.39.55.55 0 01.383.667zm0 0"/><path d="M10.715 5.777a2.069 2.069 0 00-2.621-.89l-.348-.985.578-.664.66.457a.247.247 0 00.348-.07.26.26 0 00-.066-.355L7.652 2.16a.244.244 0 00-.347.067.26.26 0 00.07.355l.527.367-.14.164-3.094-1.668.55-.851.602.32a.245.245 0 00.336-.11.252.252 0 00-.105-.343L5.25.03a.245.245 0 00-.324.086l-1.93 2.98a2.131 2.131 0 00-.371-.14C1.508 2.66.363 3.344.07 4.484-.223 5.63.445 6.801 1.562 7.098c1.118.3 2.262-.383 2.555-1.528a2.167 2.167 0 00-.699-2.195l.898-1.387 1.32 2.887a.814.814 0 00-.14.293c-.09.348.063.71.371.883a.756.756 0 00.93-.156l.207.074c-.05.11-.09.226-.121.343-.293 1.145.375 2.317 1.492 2.614.176.047.355.074.535.074a2.09 2.09 0 001.813-1.078 2.195 2.195 0 00-.008-2.145zm-.152 1.524a1.723 1.723 0 01-1.657 1.304c-.527 0-1.027-.25-1.351-.68a1.785 1.785 0 01-.301-1.51 1.715 1.715 0 012.086-1.25c.914.245 1.46 1.202 1.223 2.136zM6.457 4.617c-.012-.004-.02-.004-.027-.008a.763.763 0 00-.364-.007L4.957 2.18l2.461 1.328zm-.477.68a.259.259 0 01.32-.192.27.27 0 01.188.329.259.259 0 01-.48.066.264.264 0 01-.028-.203zm.883-.375l.504-.582.285.805c-.14.109-.27.234-.379.378l-.277-.101a.799.799 0 00-.133-.5zM2.13 4.387a.634.634 0 00-.64.46.653.653 0 00.296.743.615.615 0 00.77-.13c.199-.218.222-.55.054-.796l.614-.945c.593.535.75 1.418.379 2.133a1.693 1.693 0 01-1.942.867C.746 6.477.2 5.519.441 4.586c.2-.785.895-1.305 1.653-1.305.226 0 .453.047.664.137zm0 0"/></g></svg>