<svg xmlns="http://www.w3.org/2000/svg" width="30" height="30"><circle style="isolation:auto;mix-blend-mode:normal;solid-color:#000;solid-opacity:1;marker:none" cx="15" cy="15" r="14.5" color="#000" overflow="visible" fill="#00a19a" fill-rule="evenodd" stroke="#fff"/><path d="M11.934 9.605c-.637.145-.657.207-.657.207l.192-.32c.27-.308.77-.488 1.324-.488.852 0 1.55.469 1.55 1.066l-.042.317a2.652 2.652 0 00-.438-.399s-.879-.62-1.93-.383zm6.027 0c.637.145.656.207.656.207l-.187-.32c-.274-.308-.774-.488-1.328-.488-.852 0-1.551.469-1.551 1.066l.043.317c.129-.149.277-.282.437-.399 0 0 .883-.62 1.93-.383zM23 17.457c0 1.957-1.543 3.54-3.45 3.54-1.902 0-3.448-1.583-3.448-3.54 0-.012.003-.023.003-.035 0 .008 0 .02-.003.027 0 0 .003-.195.003-.027.004-.969-.011-1.535-1.148-1.516-.965.016-1.059.453-1.074 1.258-.004-.05.015.195.015.293 0 1.957-1.546 3.54-3.449 3.54-1.906 0-3.449-1.583-3.449-3.54 0-.832.285-1.637.805-2.27-.078.024 2.722-4.21 2.722-4.21.051-.098.11-.188.18-.266.328-.371.914-.617 1.582-.617 1.027 0 1.86.582 1.86 1.3v.055l-.012.106-.149 1.257c.149-.664.524-1.136.961-1.136.43 0 .797.453.953 1.097l-.144-1.218-.012-.106v-.054c0-.72.832-1.301 1.86-1.301.667 0 1.253.246 1.581.617.07.078.13.168.18.266l2.79 4.164c.542.64.843 1.464.843 2.316zm-9.992-.023c0-1.457-1.149-2.641-2.57-2.641-1.422 0-2.575 1.184-2.575 2.64 0 1.458 1.153 2.641 2.574 2.641 1.422 0 2.57-1.183 2.57-2.64zm9.105 0c0-1.457-1.152-2.641-2.574-2.641-1.418 0-2.57 1.184-2.57 2.64 0 1.458 1.152 2.641 2.57 2.641 1.422 0 2.574-1.183 2.574-2.64zm-7.14-3.02a.492.492 0 00-.485.496c0 .278.219.5.485.5.27 0 .488-.222.488-.5a.493.493 0 00-.488-.496zm0 0" fill="#fff"/></svg>