<svg xmlns="http://www.w3.org/2000/svg" width="30" height="30"><circle style="isolation:auto;mix-blend-mode:normal;solid-color:#000;solid-opacity:1;marker:none" cx="15" cy="15" r="14.5" color="#000" overflow="visible" fill="#fff" fill-rule="evenodd" stroke="#00a19a"/><g fill="#4d4d4d"><path d="M12.629 20.516c0 1.37-1.098 2.484-2.45 2.484-1.355 0-2.449-1.113-2.449-2.484s1.094-2.48 2.45-2.48c1.351 0 2.449 1.109 2.449 2.48zm-4.016.058a.191.191 0 00.18-.199c-.016-.445.094-.781.32-1.008.38-.37.98-.332.992-.328a.191.191 0 00.204-.176.19.19 0 00-.176-.207c-.031-.004-.774-.058-1.278.434-.312.305-.46.742-.44 1.297.003.105.089.187.19.187h.008zm0 0M8.496 13.883c-.043-.012-.082-.024-.125-.035.223.601.527 1.172.906 1.687a4.227 4.227 0 001.903.016 6.92 6.92 0 00.894-1.645 7.03 7.03 0 01-3.578-.023zm0 0M12.074 8.816a6.326 6.326 0 00-1.004-1.738 4.258 4.258 0 00-1.707.02 6.428 6.428 0 00-1 1.777l.133-.035a7.03 7.03 0 013.578-.024zm0 0M8.52 9.223c-.102.023-.2.054-.301.086a7.317 7.317 0 00.008 4.109l.293.082a6.808 6.808 0 003.703-.035c.195-.645.3-1.317.308-1.992.016-.75-.09-1.5-.308-2.22a6.847 6.847 0 00-3.703-.03zm0 0M7.8 9.457c-.609.23-1.183.55-1.702.945a4.406 4.406 0 00.02 1.93c.51.387 1.073.7 1.671.93a7.343 7.343 0 01-.23-1.825c0-.667.078-1.332.242-1.98zm0 0M6.3 12.918a4.312 4.312 0 002.391 2.43 7.08 7.08 0 01-.773-1.641 7.845 7.845 0 01-1.617-.789zm0 0M11.758 15.379a4.298 4.298 0 002.488-2.484 6.374 6.374 0 01-1.719.875c-.191.57-.449 1.109-.77 1.609zm0 0M14.445 10.441a6.105 6.105 0 00-1.797-1.046c.18.707.266 1.433.254 2.16a7.286 7.286 0 01-.242 1.765 6.1 6.1 0 001.766-1.023 4.37 4.37 0 00.02-1.856zm0 0M14.281 9.855a4.302 4.302 0 00-2.61-2.613 6.6 6.6 0 01.845 1.703c.629.211 1.226.516 1.765.91zm0 0M8.754 7.281a4.312 4.312 0 00-2.492 2.547 7.38 7.38 0 011.664-.812c.191-.618.469-1.2.828-1.735zm0 0M21.79 16.707c-.231.363-.485.707-.767 1.031.559.051 1.063.008 1.48-.14l.364-.215a4.44 4.44 0 00.13-.852c-.36.117-.755.176-1.177.176h-.03zm0 0M22.945 16.121l.055-.027a4.453 4.453 0 00-.402-1.68c-.04.625-.246 1.262-.57 1.879.312-.012.62-.07.917-.172zm0 0M19.375 19.227a5.859 5.859 0 01-.281.187c-.824.524-1.621.824-2.324.89a4.343 4.343 0 005.117-1.062 3.81 3.81 0 01-1.145.168 5.58 5.58 0 01-1.367-.183zm0 0M21.324 16.684a5.665 5.665 0 01-1.062-.215c-.254.32-.524.62-.817.906a7.41 7.41 0 001.098.297c.258-.277.496-.574.71-.887l.071-.101zm0 0M18.215 18.39c.27.122.55.231.836.32.082.028.164.052.242.075.324-.234.629-.492.914-.77a8.153 8.153 0 01-1.09-.331 8.767 8.767 0 01-.902.707zm0 0M22.672 17.973l-.016.004c-.363.132-.77.191-1.195.191-.258 0-.52-.023-.777-.063-.274.286-.57.555-.88.801.786.153 1.493.121 2.075-.093l.52-.282c.105-.18.199-.367.277-.562zm0 0M19.855 16.336a8.07 8.07 0 01-1.062-.473 8.29 8.29 0 01-.844.813c.348.203.711.383 1.082.539.293-.274.567-.567.824-.88zm0 0M17.379 18.422a9.39 9.39 0 01-1.055-.688c-.59.278-1.156.426-1.664.442.11.234.238.457.387.672.629.191 1.445.043 2.332-.426zm0 0M17.61 16.945a7.829 7.829 0 01-.883.582c.336.243.691.461 1.062.657.316-.204.621-.426.91-.672a9.606 9.606 0 01-1.09-.567zm0 0M16.188 17.102c.058.05.12.101.183.152.305-.16.594-.34.875-.543a7.92 7.92 0 01-.816-.625c-.813-.711-1.328-1.457-1.512-2.176a4.472 4.472 0 00-.336.652c.07.801.633 1.7 1.605 2.54zm0 0M18.863 19.078a8.545 8.545 0 01-1.054-.433c-.786.46-1.528.695-2.176.695a3.01 3.01 0 01-.192-.008c.184.195.383.375.602.535.762.156 1.758-.117 2.82-.789zm0 0M16.691 15.777c.282.246.582.47.895.672.3-.242.586-.508.848-.793a8.693 8.693 0 01-.579-.383c-1.015-.73-1.73-1.578-2.046-2.394-.204.172-.391.36-.559.566.059.735.563 1.563 1.441 2.332zm0 0M15.965 17.445a.274.274 0 00-.04-.03c-.784-.677-1.32-1.403-1.577-2.102a4.48 4.48 0 00.148 2.453c.434.015.938-.094 1.469-.32zm0 0M18.09 14.941c.203.149.41.282.617.403.828-1.004 1.309-2.125 1.277-3.106l-.03-.191a4.342 4.342 0 00-3.813.574c.265.766.96 1.61 1.949 2.32zm0 0M20.523 16.117c.344.09.692.149 1.043.172.446-.777.664-1.531.633-2.21l-.09-.49a4.239 4.239 0 00-.464-.523v.012c.035.977-.422 2.059-1.122 3.04zm0 0"/><path d="M19.61 14.781c-.165.266-.348.52-.544.762.336.18.692.332 1.051.453l.117-.16c.672-.965 1.032-1.93 1.012-2.727l-.105-.464a4.364 4.364 0 00-.754-.43c.027.808-.242 1.7-.778 2.566zm0 0"/></g></svg>