<svg xmlns="http://www.w3.org/2000/svg" width="11" height="10" viewBox="0 0 11 10"><g fill="#4d4d4d"><path d="M6.95 1.316a1.064 1.064 0 01.155.086l1.563.07.086-.03c.059-.04.176-.126.246-.212l-.008-.167C7.942.14 6.222.012 6.074 0a.717.717 0 00-.152.047l-.125.246c-.012.035-.024.07-.031.105l1.023.829.16.09zm0 0M7.898 5.035h.012l1.508.043c.102-.21.656-1.348.723-1.476a11.709 11.709 0 01-.02-.29 62.89 62.89 0 00-1.234-1.624l-1.809-.114C7 1.723 6.676 2.352 6.5 2.7v.492l1.375 1.82zm0 0M.66 3.3c.055 0 .156 0 .238.016.36-.23.98-.597 1.239-.75a.69.69 0 00.117-.12c.031-.051.406-.716.543-1.173.027-.101-.02-.207-.149-.32a.182.182 0 01-.039-.02L2.34.919c-.265.164-.737.477-1.046.8-.328.34-.656.927-.793 1.184l.082.285zm0 0M2.973.84c.05.004.101.008.148.02h.008c.21-.126.773-.337 1.086-.438.297-.102 1.137-.16 1.36-.156.054-.032.093-.141.109-.239-.383 0-1.368.008-1.75.118a4.93 4.93 0 00-1.29.574l.012.031c.102.035.207.066.317.09zm0 0M2.203 2.738c-.3.211-.988.621-1.281.793-.05.051-.11.114-.145.153a6.13 6.13 0 00-.12.421C.546 4.555.593 5.16.62 5.52c.004.027.004.05.008.074l.027.136.176.204c.152.097.512.406.66.535.121.105.242.215.336.297.067.062.11.097.133.12l.344.005c.05-.032.113-.067.175-.106l.989-.633.07-.156.035-2.316c-.004-.004-.008-.012-.011-.016l-1.184-.906c-.059-.012-.117-.016-.176-.02zm0 0M3.879 3.484h.043l2.262-.546.62-1.34a1.272 1.272 0 00-.058-.172L5.516.488 5.512.484c-.27.02-.883.067-1.07.094-.122.016-.473.14-.965.344-.082.035-.149.062-.192.082l-.152.062-.07.141c-.055.195-.293.8-.563 1.207.04.09.078.2.102.27.183.125.355.246.503.351.278.192.473.336.594.438l.18.011zm0 0M9.172 1.637h-.024l.008.054c.059.059.114.13.176.211.031.04.063.082.094.125.281.356.836 1.125.894 1.223l.157.195.027-.004.137-.187c-.106-.258-.309-.715-.532-1.05a3.056 3.056 0 00-.699-.755l-.281-.008.02.188zm0 0M.352 5.95c.043-.048.097-.106.113-.126v-.011C.418 5.57.32 4.883.387 4.492c0-.009.129-.763.218-.95l-.222-.246-.074.012A3.298 3.298 0 000 4.71c.008.55.129 1.184.168 1.39a.779.779 0 00.184-.152zm0 0M6.156 6.84l.23-.207 1.208-1.461.011-.106-1.324-1.859-.047-.023-2.27.55-.046.059-.066.086a95.216 95.216 0 00-.122 2.16l.09.078zm0 0M6.344 8.746c.054-.082.18-.273.242-.371L6.234 7.25A1.426 1.426 0 016.07 7l-2.379-.637-.148.008c-.16.078-.508.281-.957.555l-.18.117-.133.23c.024.094.051.192.082.286.211.46.325.832.372 1.015l.082.125c.207.149.425.281.656.403.418.168.918.28 1.406.32 0 0 .031 0 .164-.05l1.27-.606zm0 0M10.195 6.973h-.004a4.373 4.373 0 01-.312.414l-.195.27a3.992 3.992 0 01-.801.831 1.95 1.95 0 00-.195.41c-.016.04-.028.079-.043.114 0 .015.003.027.003.043.122-.067.301-.184.516-.36.234-.187.676-.578.98-1.058.223-.344.329-.543.383-.657l-.007-.007zm0 0M2.473 8.469a8.661 8.661 0 01-.297-.86l-.106-.222a2.358 2.358 0 00-.218-.336c-.309-.258-.86-.723-1.157-.996-.023-.012-.05-.004-.078 0-.015.004-.027.004-.043.004a.644.644 0 00-.172.105c-.05.04-.125.129-.156.168.055.234.242.766.649 1.371.28.426.574.707.773.867.09.075.184.145.285.207l.203-.023.215-.059c.027-.066.07-.164.102-.226zm0 0M10.836 3.762a.199.199 0 00-.11-.094l-.257-.016a.14.14 0 00-.043.008c-.11.149-.207.3-.29.465-.257.52-.359.781-.374.844.039.187.078.336.113.465.023.101.047.191.066.28.024.075.204.755.239 1l.05.028c.063 0 .13-.004.192-.012l.3-.171c.008-.008.012-.016.02-.024.172-.223.203-.355.235-.531.039-.55.054-1.879-.141-2.242zm0 0M9.73 7.285c.106-.152.192-.273.247-.355l.011-.145c-.027-.058-.058-.21-.125-.512-.05-.242-.11-.52-.152-.625a1.11 1.11 0 00-.129-.218 4.224 4.224 0 00-.168-.149l-1.512-.074h-.011l-.22.152-1.257 1.528a.552.552 0 00-.008.226c.004.016.008.032.008.047l.48 1.297.055.047 1.801-.16zm0 0M4.668 9.633c-.824-.133-1.356-.38-1.656-.559a1.445 1.445 0 01-.242-.16l-.25-.039-.262.137c.125.11.36.297.633.449.125.066.257.125.398.168.457.14 1.293.262 1.684.316l.02-.097c-.013-.016-.024-.036-.04-.051l-.285-.164zm0 0M6.79 8.738l-.126.047-.289.14c-.367.192-.867.442-1.195.575a2.117 2.117 0 01-.02.145l.035.109c.012.039.028.078.047.117l.176.129c.453-.008 1.574-.07 2.57-.504.04-.016.106-.062.2-.191l.113-.172c.031-.055.066-.121.097-.188.063-.117.114-.23.149-.316-.012-.008-.027-.02-.047-.031zm0 0"/></g></svg>