<svg xmlns="http://www.w3.org/2000/svg" width="30" height="30"><circle style="isolation:auto;mix-blend-mode:normal;solid-color:#000;solid-opacity:1;marker:none" cx="15" cy="15" r="14.5" color="#000" overflow="visible" fill="#00a19a" fill-rule="evenodd" stroke="#fff"/><g fill="#fff"><path d="M13.238 9.652c0 .914-.722 1.657-1.61 1.657-.89 0-1.608-.743-1.608-1.657 0-.91.718-1.652 1.609-1.652.887 0 1.61.742 1.61 1.652zm0 0M20.113 9.652c0 .914-.722 1.657-1.61 1.657-.886 0-1.608-.743-1.608-1.657 0-.91.722-1.652 1.609-1.652s1.61.742 1.61 1.652zm0 0M23 13.246v-.117a.524.524 0 00-.516-.531H7.516a.524.524 0 00-.516.53v.118c0 .293.23.531.516.531h2.539c.285 0 .515.239.515.532v2.707a.506.506 0 01-.05.226l-1.848 4a.553.553 0 00.031.512.513.513 0 00.438.246h.004c.199 0 .378-.117.464-.305l2.004-4.336h.063l2.047 4.34c.086.184.265.301.465.301a.513.513 0 00.437-.25.552.552 0 00.027-.512l-1.78-3.781a.534.534 0 01-.052-.23v-2.918c0-.293.23-.532.516-.532h3.484c.285 0 .516.239.516.532v2.754a.506.506 0 01-.05.226l-1.825 3.953a.541.541 0 00.027.512.523.523 0 00.438.246h.004c.199 0 .379-.117.465-.305l2.003-4.336h.075l2.039 4.34c.086.184.265.301.465.301.175 0 .34-.094.437-.25a.552.552 0 00.027-.512l-1.804-3.847a.54.54 0 01-.055-.23v-2.852c0-.293.234-.532.516-.532h2.386a.524.524 0 00.516-.53zm0 0"/></g></svg>