<svg xmlns="http://www.w3.org/2000/svg" width="10" height="10" viewBox="0 0 10 10"><path d="M4.09 3.445c0 .188.05.371.148.528H0V2.57h4.223a1.007 1.007 0 00-.133.5zM10 2.57H7.355c.086.149.133.325.133.5v.375c0 .188-.054.371-.148.528H10zm-2.887 0a.845.845 0 00-.73-.445H5.94c.512-.078.88-.57.84-1.133C6.746.434 6.321 0 5.805 0c-.512 0-.942.434-.977.992-.035.563.332 1.055.844 1.133h-.445c-.477 0-.864.422-.864.945v.375c0 .395.223.743.559.883l.258 3.149a.471.471 0 00-.297.449v.89h1.824v-.89a.474.474 0 00-.23-.418l.25-3.196a.955.955 0 00.52-.867V3.07c0-.175-.048-.351-.134-.5zM2.633 8c-.508 0-.918.45-.918 1s.41 1 .918 1c.504 0 .914-.45.914-1s-.41-1-.914-1zm0 0" fill="#4d4d4d"/></svg>