<svg xmlns="http://www.w3.org/2000/svg" width="30" height="30"><circle style="isolation:auto;mix-blend-mode:normal;solid-color:#000;solid-opacity:1;marker:none" cx="15" cy="15" r="14.5" color="#000" overflow="visible" fill="#00a19a" fill-rule="evenodd" stroke="#fff"/><path d="M14.508 10.426a4.115 4.115 0 014.12 4.113c0 2.27-1.843 4.11-4.12 4.11a4.114 4.114 0 01-4.121-4.11 4.115 4.115 0 014.12-4.113zm-3.93.789L6 10.98l3.379 3.051a5.117 5.117 0 011.2-2.816zm3.488-1.797L10.98 6l.235 4.586a5.15 5.15 0 012.851-1.168zm5.567 4.602L23 10.98l-4.566.23a5.134 5.134 0 011.199 2.81zm-1.844-3.446L18.02 6l-3.085 3.418a5.16 5.16 0 012.855 1.156zm-6.578 7.91L10.98 23l3.023-3.348a5.157 5.157 0 01-2.793-1.168zm7.285-.695l4.504.23-3.363-3.035a5.072 5.072 0 01-1.14 2.805zm-3.5 1.863L18.02 23l-.23-4.504a5.142 5.142 0 01-2.794 1.156zm-5.621-4.68L6 18.02l4.52-.23a5.083 5.083 0 01-1.145-2.817zm0 0" fill="#fff"/></svg>