<svg xmlns="http://www.w3.org/2000/svg" width="30" height="30"><circle style="isolation:auto;mix-blend-mode:normal;solid-color:#000;solid-opacity:1;marker:none" cx="15" cy="15" r="14.5" color="#000" overflow="visible" fill="#fff" fill-rule="evenodd" stroke="#00a19a"/><path d="M12.953 12.516c0 .3.086.593.25.843H6v-2.246h7.176a1.506 1.506 0 00-.223.797zM23 11.113h-4.496c.148.239.223.516.223.797v.606c0 .3-.086.593-.25.843H23zm-4.906 0a1.457 1.457 0 00-1.246-.71h-.746c.867-.126 1.492-.915 1.43-1.813-.063-.895-.786-1.59-1.66-1.59-.876 0-1.602.695-1.665 1.59-.059.898.566 1.687 1.434 1.812h-.754c-.813 0-1.469.676-1.469 1.508v.606c0 .625.379 1.187.95 1.41l.433 5.035c-.301.105-.5.398-.5.723v1.425h3.101v-1.425a.762.762 0 00-.39-.672l.422-5.114a1.51 1.51 0 00.882-1.382v-.606a1.471 1.471 0 00-.222-.797zm-7.617 8.688c-.864 0-1.559.715-1.559 1.601 0 .883.695 1.598 1.559 1.598.859 0 1.554-.715 1.554-1.598 0-.886-.695-1.601-1.554-1.601zm0 0" fill="#4d4d4d"/></svg>