<svg xmlns="http://www.w3.org/2000/svg" width="30" height="30"><circle style="isolation:auto;mix-blend-mode:normal;solid-color:#000;solid-opacity:1;marker:none" cx="15" cy="15" r="14.5" color="#000" overflow="visible" fill="#00a19a" fill-rule="evenodd" stroke="#fff"/><g fill="#fff"><path d="M7.29 15.355a2.38 2.38 0 01.116-.246l-.156-.199a.835.835 0 01-.16-.676.809.809 0 01.402-.562l.332-.195a.845.845 0 01.68-.07.84.84 0 01.508.464l.015.043.29.516c.113.058.394.18 1.027.312.355.07.71.106 1.07.102.281 0 .563-.02.844-.051l-.086-.293a1.098 1.098 0 01.086-.816l.12-.235c.157-.293.43-.5.75-.566l.747-.153a1.097 1.097 0 011.246.664l.04.098c.105.258.105.547.003.809l-.172.441c.117.125.219.25.32.375.13.067.266.133.403.203.832.418 1.863.942 2.543 1.16.37.122.937.22 1.535.32.496.083 1.012.173 1.496.286.012-.184-.012-.316-.07-.348.36-1.152-2.848-2.164-4.063-2.996-.77-.523-1.84-1.574-2.625-2.305-.125-.3-.222-.574-.43-.835a.063.063 0 00-.027-.016l.582-.754c.067-.09.098-.2.09-.312l-.012-.106a.442.442 0 00-.406-.398l-.758-.063a.448.448 0 00-.355.133l-.184.191a.45.45 0 00-.129.305l-.007 1.043c-.692-.059-1.813-.21-2.778-.754-1.176-.66-1.262-1.05-1.297-1.047l-.078-.664a.196.196 0 00-.078-.129.189.189 0 00-.144-.027l-.375.094a.172.172 0 00-.118.09.18.18 0 00-.007.148l.277.691c-.242.141-.512.383-.719.786-.105.199-.441 1.136-.695 1.894h-.004c-.082.254-.16.488-.215.668-.004.012-.008.023-.008.035 0 .004-.004.004-.004.004-.558-.094-.824 2.024-.527 2.328.047.043.215.297.723.473zm0 0"/><path d="M22.793 19.434c-.02-1.899-3.332-2.02-4.734-2.473-.887-.285-2.211-.988-3.172-1.469-.203-.254-.371-.488-.649-.68a.072.072 0 00-.027-.007l.344-.887a.453.453 0 00-.004-.328l-.04-.098a.443.443 0 00-.5-.265l-.75.156a.433.433 0 00-.3.226l-.125.235a.455.455 0 00-.031.328l.285 1.004c-.68.14-1.793.289-2.88.062-1.03-.215-1.347-.433-1.444-.554-.184-.098-.36-.7-.36-.7a.174.174 0 00-.105-.097.18.18 0 00-.149.011l-.332.196a.179.179 0 00-.09.12.189.189 0 00.036.145l.46.582a1.877 1.877 0 00-.464.957c-.047.223-.106 1.215-.137 2.016-.008.27-.016.512-.016.7V18.655c-.566.07-.222 1.828.153 2.035.054.032.289.227.828.25l2.656.059c1.094.012 1.64-.36 3.172-.36 1.766 0 2.809.325 3.902.29l3.395-.301c.113-.02.226-.047.336-.082 1.23-.332 1.004-1.059.742-1.113zm0 0"/></g></svg>