<svg xmlns="http://www.w3.org/2000/svg" width="30" height="30"><circle style="isolation:auto;mix-blend-mode:normal;solid-color:#000;solid-opacity:1;marker:none" cx="15" cy="15" r="14.5" color="#000" overflow="visible" fill="#fff" fill-rule="evenodd" stroke="#00a19a"/><g fill="#4d4d4d"><path d="M12.742 7h-.222c-.676 0-1.278.328-1.7.844l.836.843c.207-.304.52-.503.864-.503h.222c.61 0 1.125.632 1.125 1.379v.605h-2.722v-.605C11.145 8.148 10.117 7 8.852 7h-.227C7.363 7 6.332 8.148 6.332 9.563v1.624h1.172V9.563c0-.747.516-1.38 1.121-1.38h.227c.609 0 1.125.633 1.125 1.38v5.335h1.168v-.828h2.722v.828h1.172V9.562C15.04 8.149 14.008 7 12.742 7zm1.125 4.012v.718h-2.722v-.718zm-2.722 2.215v-.649h2.722v.649zm0 0M20.215 18.266c-1.106 0-1.746-.672-2.262-1.22-.52-.546-.867-.886-1.48-.89h-.028c-.75 0-1.078.364-1.53.871-.497.551-1.118 1.239-2.384 1.239-1.246 0-1.836-.688-2.312-1.239-.438-.507-.754-.87-1.5-.87H8.69c-.77.007-1.136.394-1.601.886a10.25 10.25 0 01-.41.418L6 16.71c.125-.113.242-.238.363-.371.504-.527 1.125-1.188 2.317-1.2h.035c1.207 0 1.789.676 2.258 1.22.43.5.77.89 1.558.89.824 0 1.184-.398 1.64-.906.481-.54 1.083-1.203 2.274-1.203h.04c1.062.011 1.663.644 2.195 1.203.488.52.867.926 1.578.906 1.383-.031 1.781-1.07 1.797-1.113l.945.34c-.023.07-.625 1.738-2.715 1.789h-.07zm0 0"/><path d="M20.215 20.55c-1.106 0-1.746-.675-2.262-1.218-.52-.55-.867-.887-1.48-.89-.77-.02-1.102.359-1.559.867-.496.554-1.117 1.242-2.383 1.242-1.246 0-1.836-.688-2.312-1.238-.438-.508-.754-.875-1.5-.875-.012 0-.02 0-.028.003-.77.008-1.136.395-1.601.887a10.25 10.25 0 01-.41.418l-.68-.75c.125-.113.242-.238.363-.371.504-.527 1.125-1.188 2.317-1.2 1.23-.015 1.82.669 2.293 1.22.43.496.77.89 1.558.89.824 0 1.184-.398 1.64-.91.49-.54 1.099-1.223 2.313-1.2 1.063.012 1.664.645 2.196 1.204.488.516.867.926 1.578.906 1.383-.031 1.781-1.07 1.797-1.117l.945.34c-.023.074-.625 1.742-2.715 1.793h-.07zm0 0"/><path d="M20.215 23c-1.106 0-1.746-.676-2.262-1.219-.52-.55-.867-.886-1.48-.894h-.028c-.75 0-1.078.367-1.53.87C14.417 22.31 13.796 23 12.53 23c-1.246 0-1.836-.688-2.312-1.242-.438-.504-.754-.871-1.5-.871H8.69c-.77.008-1.136.398-1.601.886-.13.141-.266.282-.41.418L6 21.445c.125-.117.242-.238.363-.37.504-.532 1.125-1.188 2.317-1.204 1.23-.016 1.82.672 2.293 1.219.43.5.77.894 1.558.894.824 0 1.184-.402 1.64-.91.481-.535 1.083-1.203 2.274-1.203h.04c1.062.012 1.663.649 2.195 1.207.488.516.867.922 1.578.906 1.383-.035 1.781-1.074 1.797-1.117l.945.34c-.023.07-.625 1.738-2.715 1.793h-.07zm0 0"/></g></svg>