<svg xmlns="http://www.w3.org/2000/svg" width="10" height="10" viewBox="0 0 10 10"><path d="M5.102 7.836h-.008c-.063-.012-.074-.027-.047-.063l.016.008a.116.116 0 01.039.055zm-.04-.078H5.02l.027.015c.004-.003.012-.007.016-.015zM9.98 9.949a.087.087 0 01-.07.04c-.012 0-.02-.005-.031-.009l-2.844-.96h-.008l-1.988.968A.075.075 0 015 10a.11.11 0 01-.05-.016c-.009-.007-.013-.011-.02-.02 0-.003 0-.003-.004-.003l-2.242-.945h-.008l-2.555.96a.072.072 0 01-.027.008c-.032 0-.055-.015-.074-.039a.1.1 0 01-.004-.113l1.156-1.953.562-.953a.11.11 0 01.04-.035l1.296-.7c-.957-1.105-.933-2.84.078-3.914 1.04-1.109 2.715-1.101 3.75 0 1.02 1.082 1.036 2.836.051 3.946l1.371.675a.124.124 0 01.04.04l.535.953.546.972.547.977a.102.102 0 01-.008.11zM8.75 8.016l-2.055-.88c-.004-.003-.008 0-.011 0-.004.005-.004.009-.004.016l.175.703c.004.004.004.008.008.008l.614.235 1.644.62c.004.005.012 0 .012-.003.004-.004.004-.008.004-.016l-.383-.676c0-.003-.004-.003-.004-.007zm-.535-.954l-1.41-.69a3.001 3.001 0 01-.266.226h.004l.07.285c0 .004.004.008.008.008l1.965.843.012.008-.38-.672c0-.004-.003-.004-.003-.008zm-3.098.985v.148l-.012.586c0 .004.004.008.004.012.004.004.008.004.012 0 0 0 1.418-.797 1.55-.867 0 0-.167-.735-.187-.79l-1.382.829c.02.074.015.078.015.082zM7.06 4.379h.402c.047 0 .082-.04.082-.086a.083.083 0 00-.082-.086h-.402c-.106 0-.106.172 0 .172zM4.816 2.086c0 .113.16.113.16 0V1.96l.106.156a.079.079 0 00.145-.047v-.375c0-.11-.16-.11-.16 0v.11l-.106-.157a.075.075 0 00-.09-.03.085.085 0 00-.055.077zm-1.59 2.191c0 1.055.805 1.914 1.797 1.914.989 0 1.797-.859 1.797-1.914 0-1.058-.808-1.918-1.797-1.918-.992 0-1.796.86-1.796 1.918zm1.72 2.164v.414c0 .114.16.114.16 0v-.414c0-.113-.16-.113-.16 0zM3.09 4.293c0-.047-.035-.086-.078-.086h-.43c-.105 0-.105.172 0 .172h.43c.043 0 .078-.04.078-.086zM1.523 7.695l1.715-.808c.004-.004.004-.004.004-.008l.09-.27.04-.12c-.056-.048-.11-.098-.165-.15l-1.324.712c-.004 0-.004.004-.008.004l-.367.62c-.004.005 0 .013 0 .016.004.004.012.004.015.004zm-.59 1l1.989-.836s.004-.004.004-.007l.117-.356.11-.332c0-.004 0-.008-.005-.012-.003-.004-.007-.004-.011-.004l-1.82.86c-.004 0-.004.004-.008.004l-.391.664a.012.012 0 000 .015c.004.004.008.004.016.004zm1.903-.566c.004-.004 0-.012 0-.012-.004-.004-.012-.008-.016-.004l-1.132.473-.954.402s-.004 0-.004.004l-.402.676c0 .004 0 .012.004.016 0 .004.008.004.012.004l2.258-.852c.003-.004.007-.004.007-.008zm2.09.851c0-.003-.004-.007-.008-.011l-1.856-.895c-.003-.004-.003-.004-.007 0a.008.008 0 00-.008.008l-.024.078-.222.68c-.004.008 0 .015.004.02l2.09.878c.003 0 .007 0 .011-.004.004 0 .004-.004.004-.007l.004-.204zm.031-.984c0-.023-1.59-.89-1.617-.844-.004-.004-.004-.004-.008 0a.008.008 0 00-.008.008l-.023.078-.223.684c-.004.004 0 .012.004.016l1.863.851c.008.004.012-.793.012-.793zm.11-.242c.015-.016.035-.031.058-.05v-.005l1.297-.777c.004-.004.008-.008.008-.012l-.051-.203a2.52 2.52 0 01-2.852-.094l-.093.285c-.004.008 0 .012.003.016l1.583.844.027.015h.008c.004-.003.008-.007.008-.011 0 0 0-.004.003-.008zm1.847 1.094l-.008-.024-.18-.726a.008.008 0 00-.007-.008c-.004-.004-.008-.004-.008 0l-.66.367-.938.523c-.004.004-.008.008-.008.012v.149l-.011.586c0 .003.004.007.008.011.003 0 .007.004.011 0l1.793-.875c.008-.004.008-.011.008-.015zm2.774.84L9.3 9c0-.004-.004-.004-.004-.008l-.445-.168-1.915-.722c-.003-.004-.007 0-.011 0-.004.003-.004.011-.004.015l.176.711.007.008 2.57.871c.005 0 .009 0 .012-.004a.012.012 0 000-.015zM3.91.75V.531c0-.293.223-.531.496-.531h1.285c.274 0 .497.238.497.531V.75c0 .293-.223.531-.497.531H4.406c-.273 0-.496-.238-.496-.531zm.32 0c0 .102.079.188.176.188h1.285c.098 0 .176-.086.176-.188V.531c0-.105-.078-.187-.176-.187H4.406c-.097 0-.176.082-.176.187zm1.965 2.328l-.843 1.535c-.008.016-1.454.914-1.457.914a.033.033 0 01-.028 0c0-.004-.004-.004-.008-.007-.004-.004-.007-.008-.011-.016v-.016-.011s0-.004.004-.008v-.004l.84-1.527a108.55 108.55 0 011.456-.915c.028-.015.063.024.047.055zm-.937 1.508l-.235-.254-.91.969zM5.93 3.25l-1.145.719.238.25zm0 0" fill="#4d4d4d"/></svg>