<svg xmlns="http://www.w3.org/2000/svg" width="30" height="30"><circle style="isolation:auto;mix-blend-mode:normal;solid-color:#000;solid-opacity:1;marker:none" cx="15" cy="15" r="14.5" color="#000" overflow="visible" fill="#fff" fill-rule="evenodd" stroke="#00a19a"/><g fill="#4d4d4d"><path d="M17.82 14.922l-2.324-.05c.031-.169.067-.34.106-.509-1.575-.086-2.723-.34-3.645-.543l-.504-.113c-1.594-.332-2.957-1.422-3.453-1.8v8.398c1.066-.32 2.02-.664 2.504-.996l2.805-1.684 1.996.285-.285.781-1.504.32-.88-.28s-.6 1.644-.62 1.73c-.024.086 2.12-.281 2.12-.281l1.84-.672.516-.867s.301.414.473.476c.168.067 1.219-.844 1.219-.844s.578-1.578.644-2.078c.063-.496-1.008-1.273-1.008-1.273zm-.793 2.531s-.406-.715-.836-.781c-.43-.063-1.586-.129-1.586-.129l2.81-.648.105 1.015zm0 0"/><path d="M12.063 13.344c.914.199 2.062.453 3.644.535.094-.426.184-.836.227-1.211.09-.711.664-.523 1.285-.938.215-.14.46-.226.707-.347.05.11.082.187.12.262.188.375.36.757.579 1.117a2.776 2.776 0 001.008.972 33.11 33.11 0 002.332-.351 4.348 4.348 0 00-.102-.434 2.602 2.602 0 01-.09-.738c.02-1.223-.128-2.422-.507-3.59-.051-.156.004-.355.035-.527.09-.512.199-1.016.484-1.461.012-.016.016-.04.04-.113-.262.097-.481.183-.712.27.032-.302.239-.52.371-.774-.441-.036-1.632.492-1.941.855-1.922-.98-3.879-1.223-5.887-.258.383.133 1.07.086 1.465.32-.113.036-.457.067-.535.087-3.742.753-5.879 3.53-6.352 4.44a.062.062 0 01-.027.036c-.02.016-.035.031-.055.043.5.379 1.95 1.39 3.399 1.691.16.036.332.07.512.114zm0 0M21.984 13.984c.008-.035.012-.074.016-.109a35.95 35.95 0 01-2.273.34.834.834 0 00.03.172c.126.441.427.668.888.68.195.003.39-.008.582-.04.199-.03.34-.164.453-.324.093-.133.175-.273.261-.41l.059-.184c-.004-.043-.02-.086-.016-.125zm0 0M19.59 22.27a1.97 1.97 0 001.262-2.22 2.002 2.002 0 00-2.008-1.605c-.977.016-1.801.723-1.953 1.668a1.975 1.975 0 001.34 2.18V23h1.359zm-1.79-1.848c0-.586.481-1.059 1.079-1.059.594 0 1.074.473 1.074 1.059s-.48 1.058-1.074 1.058a1.066 1.066 0 01-1.078-1.058zm0 0"/><path d="M17.016 14.523c-.59 0-.91-.078-1.082-.117-.036-.008-.075-.02-.086-.02l.047-.488c.05.008.101.02.148.032.32.078 1.168.28 3.547-.22l.101.477c-1.238.262-2.09.336-2.675.336zm0 0"/></g></svg>