<svg xmlns="http://www.w3.org/2000/svg" width="30" height="30"><circle style="isolation:auto;mix-blend-mode:normal;solid-color:#000;solid-opacity:1;marker:none" cx="15" cy="15" r="14.5" color="#000" overflow="visible" fill="#00a19a" fill-rule="evenodd" stroke="#fff"/><path d="M21.836 9H7.164A1.175 1.175 0 006 10.176v9.648c0 .649.523 1.172 1.164 1.176h14.672A1.175 1.175 0 0023 19.824v-9.648c0-.649-.523-1.172-1.164-1.176zm-7.688 7.273a1.299 1.299 0 01-.945-1.253c0-.583.387-1.094.945-1.25zm.754-2.484c.528.176.883.672.883 1.23 0 .563-.355 1.06-.883 1.235zM6.75 19.824v-2.031c.055.008.105.016.16.016h1.43c.5-.004.906-.41.906-.914v-3.739a.914.914 0 00-.906-.914H6.91a2.221 2.221 0 00-.16.016v-2.082c0-.23.187-.418.414-.418h6.984v3.238a2.051 2.051 0 00-1.695 2.024c0 1.003.719 1.859 1.695 2.027v3.195H7.164a.418.418 0 01-.414-.418zm.004-2.93v-3.738c0-.086.07-.156.156-.156h1.43c.086 0 .156.07.156.156v3.739c0 .085-.07.156-.156.156H6.91a.157.157 0 01-.156-.156zm15.082 3.348h-6.934v-3.207a2.055 2.055 0 001.637-2.015c0-.977-.687-1.82-1.637-2.012v-3.25h6.934c.226 0 .414.187.414.418v2.082c-.055-.008-.11-.012-.16-.016h-1.434a.914.914 0 00-.906.914v3.739c0 .503.406.91.906.914h1.434c.05 0 .105-.008.16-.016v2.031c0 .23-.188.418-.414.418zm.406-7.086v3.739a.153.153 0 01-.152.156h-1.434a.157.157 0 01-.156-.156v-3.739c0-.086.07-.156.156-.156h1.434c.086 0 .152.07.152.156zm0 0" fill="#fff"/></svg>