<svg xmlns="http://www.w3.org/2000/svg" width="10" height="10" viewBox="0 0 10 10"><g fill="#4d4d4d"><path d="M5.742 1.973c0 .425-.32.773-.719.773-.398 0-.722-.348-.722-.773 0-.43.324-.778.722-.778.399 0 .72.348.72.778zm-.707 2.355c-.398 0-.719.348-.719.777 0 .426.32.778.72.778.398 0 .722-.352.722-.778 0-.43-.324-.777-.723-.777zm-1.594.008c-.398 0-.722.348-.722.777 0 .43.324.778.722.778.399 0 .72-.348.72-.778 0-.43-.321-.777-.72-.777zm3.196-.008c-.399 0-.719.348-.719.777 0 .426.32.778.719.778.398 0 .722-.352.722-.778 0-.43-.324-.777-.722-.777zm-.79 1.649c-.398 0-.722.347-.722.777 0 .43.324.777.723.777.398 0 .718-.347.718-.777 0-.43-.32-.777-.718-.777zm-1.566 0c-.398 0-.722.347-.722.777 0 .43.324.777.722.777.395 0 .719-.347.719-.777 0-.43-.324-.777-.719-.777zm-1.644-.012c-.399 0-.723.348-.723.777 0 .43.324.778.723.778.394 0 .718-.348.718-.778 0-.43-.324-.777-.718-.777zm4.75.039c-.399 0-.723.348-.723.777 0 .43.324.778.723.778.398 0 .718-.348.718-.778 0-.43-.32-.777-.718-.777zm-.82 1.637c-.399 0-.723.347-.723.773 0 .43.324.777.722.777.399 0 .72-.347.72-.777 0-.426-.321-.773-.72-.773zm-1.536 0c-.394 0-.718.347-.718.773 0 .43.324.777.718.777.399 0 .723-.347.723-.777 0-.426-.324-.773-.723-.773zm-1.543.007c-.398 0-.718.348-.718.778 0 .43.32.777.718.777.399 0 .723-.348.723-.777 0-.43-.324-.778-.723-.778zm-1.61-.007c-.398 0-.718.347-.718.773 0 .43.32.777.719.777.398 0 .723-.347.723-.777 0-.426-.325-.773-.723-.773zm6.255 0c-.399 0-.723.347-.723.773 0 .43.324.777.723.777.398 0 .722-.347.722-.777 0-.426-.324-.773-.722-.773zM5.82 2.78c-.398 0-.722.348-.722.778 0 .425.324.777.722.777.399 0 .72-.352.72-.777 0-.43-.321-.778-.72-.778zm-1.508-.008c-.398 0-.722.348-.722.778 0 .43.324.777.723.777.398 0 .718-.348.718-.777 0-.43-.32-.778-.718-.778zm0 0"/><path d="M5.023.57a.616.616 0 01.555.352l3.813 7.52c.226.449-.075.988-.551.988h-.004L1.16 9.383C.68 9.379.38 8.832.61 8.387L4.472.918a.606.606 0 01.55-.348m0-.57c-.199 0-.394.055-.57.16-.187.113-.34.278-.441.48L.148 8.114c-.199.38-.195.844.012 1.219.207.383.586.621.996.617L8.832 10h.008c.406.004.789-.23.996-.61.207-.374.215-.84.02-1.222L6.038.648A1.145 1.145 0 005.023 0"/></g></svg>