<svg xmlns="http://www.w3.org/2000/svg" width="10" height="11" viewBox="0 0 10 11"><g fill="#4d4d4d"><path d="M7.93 6.797a.44.44 0 00-.098-.223.523.523 0 00-.648-.164l-.04.02a.346.346 0 00-.066.03l-1.887.915-1.007-1.824.68.273a.326.326 0 00.421-.183l.07-.176.004-.008.004-.012c.008-.015.012-.035.016-.054l.898-2.606a.516.516 0 00-.32-.656l-.02-.008a.522.522 0 00-.66.32l-.726 2.122s-1.625-.82-1.864-.688l-.742.41c-.633.406-.117 1.238-.117 1.238L3.344 8.27H3.34l.285.507a.507.507 0 00.664.207l2.477-1.199-.309 2.727a.42.42 0 00.367.46l.223.024a.414.414 0 00.46-.363l.403-3.567a.572.572 0 00.02-.27zm0 0M2.59 2.863a1.292 1.292 0 11-2.586 0 1.292 1.292 0 112.586 0zm0 0M5.273 2.121a.247.247 0 01-.222-.137L4.496.914 3.742.473A.254.254 0 014 .035l.816.48a.245.245 0 01.098.102L5.5 1.754a.251.251 0 01-.227.367zm0 0"/><path d="M7.371 6.172a.258.258 0 01-.215-.121L5.95 4.133a.253.253 0 01.078-.348.257.257 0 01.352.078l1.207 1.918c.047.078.05.176.008.258a.255.255 0 01-.223.133zm0 0M9.742 10.824a.255.255 0 01-.246-.183c-.059-.137-.476-.907-.785-1.473-.172-.316-.332-.613-.453-.84-.067-.121-.113-.21-.149-.273-.066-.13-.105-.207-.058-.32a.254.254 0 01.242-.16.26.26 0 01.234.175c.051.113.36.676.63 1.176.198.363.402.742.554 1.031.086.156.148.273.187.355.086.165.13.254.07.376a.253.253 0 01-.226.136zm-.226-.367zm0 0zm0 0zm0 0"/></g></svg>