<svg xmlns="http://www.w3.org/2000/svg" width="10" height="10" viewBox="0 0 10 10"><g fill="#4d4d4d"><path d="M6.773 2.988a.47.47 0 00-.593-.258l-.84.286-1.172-.961a.517.517 0 00-.383-.11h-.004a.673.673 0 00-.328.059l-1.652.387a.473.473 0 00-.34.289.416.416 0 00-.027.074l-.309 1.101a.42.42 0 00.05.329.475.475 0 00.4.21.46.46 0 00.448-.324l.239-.86.808-.187-.195 2.04a.401.401 0 00.008.152.296.296 0 00-.035.07l-.493 1.38-1.511.382c-.254.066-.406.312-.336.555.07.238.336.382.59.316l1.757-.441.051-.016.004-.004.016-.004c.004 0 .004-.004.008-.004.003 0 .007-.004.015-.008l.012-.003c.004-.004.008-.004.008-.004.004-.004.008-.004.011-.008.004 0 .004 0 .008-.004.004 0 .008-.004.012-.008h.004c.008-.004.016-.012.023-.016 0 0 0-.003.004-.003s.004-.004.008-.008c.004 0 .008-.004.008-.004.004-.004.008-.004.008-.008.004 0 .007-.004.011-.008l.004-.004a.404.404 0 00.094-.12h.004a.03.03 0 01.008-.016c0-.004 0-.004.004-.008 0-.004 0-.004.004-.008l.003-.012s0-.004.004-.004c0-.008 0-.011.004-.015l.434-1.215.707.515-.184 1.633a.454.454 0 00.106.332c.082.094.199.153.328.164.016 0 .031.004.05.004a.475.475 0 00.481-.406l.215-1.883v-.011-.008-.016-.004-.02-.023a.512.512 0 00-.023-.105c0-.008-.004-.012-.008-.02v-.004c-.004-.004-.004-.008-.008-.011 0-.004 0-.008-.004-.012 0-.004-.004-.004-.004-.008-.004-.004-.004-.008-.008-.012 0-.004 0-.004-.004-.008 0-.003-.003-.007-.007-.011v-.008l-.012-.012c0-.004 0-.004-.004-.004a.03.03 0 00-.008-.015c-.004 0-.004 0-.004-.004l-.011-.012c0-.004 0-.004-.004-.004-.004-.004-.008-.008-.012-.015l-.004-.004c-.004-.004-.008-.008-.012-.008 0-.004-.004-.004-.004-.008-.003-.004-.007-.004-.011-.008-.004-.004-.004-.008-.008-.008-.004-.003-.008-.003-.008-.007-.004-.004-.008-.008-.012-.008-.004-.004-.004-.004-.007-.004l-1.067-.777.176-1.817.59.485c.125.132.324.18.504.117l1.148-.39a.426.426 0 00.262-.224.386.386 0 00.015-.328zm0 0M4.84.805c0 .441-.387.8-.863.8-.473 0-.86-.359-.86-.8 0-.446.387-.805.86-.805.476 0 .863.36.863.805zm0 0"/><path d="M9.98 9.313a.363.363 0 00-.02-.114L8.489 4.215a.403.403 0 00-.054-.117l.527-.883a.278.278 0 00.027-.223.294.294 0 00-.152-.176.323.323 0 00-.43.114l-.695 1.156H6.707a.283.283 0 00-.25.129.257.257 0 000 .27c.05.081.148.132.25.128h1.137l1.261 4.282H.594C.266 8.89 0 9.14 0 9.445 0 9.75.266 10 .594 10h8.812c.328 0 .594-.25.594-.555a.52.52 0 00-.02-.133zm0 0"/></g></svg>