<svg xmlns="http://www.w3.org/2000/svg" width="10" height="10" viewBox="0 0 10 10"><g fill="#4d4d4d"><path d="M3.898 8.45c0 .855-.644 1.55-1.441 1.55s-1.441-.695-1.441-1.55c0-.86.644-1.555 1.441-1.555s1.441.695 1.441 1.554zm-2.363.034c.063-.004.11-.058.11-.125-.012-.277.05-.488.187-.629.223-.23.578-.207.582-.207.063.004.113-.043.121-.109.004-.066-.043-.125-.105-.129-.016-.004-.453-.035-.75.27-.184.191-.27.465-.258.812 0 .067.05.117.11.117h.003zm0 0M1.469 4.3c-.028-.003-.051-.01-.074-.019.128.375.308.73.535 1.051.367.098.746.102 1.117.012.219-.313.394-.66.527-1.028a3.894 3.894 0 01-2.105-.015zm0 0M3.574 1.137A3.961 3.961 0 002.98.05a2.291 2.291 0 00-1.003.012c-.25.332-.446.707-.586 1.109l.078-.024a3.893 3.893 0 012.105-.011zm0 0M1.48 1.387c-.058.02-.117.035-.175.054-.227.84-.227 1.73.008 2.57.054.016.113.036.167.051.73.211 1.493.196 2.18-.019a4.807 4.807 0 000-2.633 3.795 3.795 0 00-2.18-.023zm0 0M1.059 1.535a3.92 3.92 0 00-1 .59c-.082.398-.079.813.011 1.207.301.242.633.438.98.582a4.845 4.845 0 01-.132-1.14c0-.419.047-.833.14-1.239zm0 0M.176 3.7C.43 4.39.94 4.94 1.582 5.214a4.536 4.536 0 01-.453-1.024A4.408 4.408 0 01.176 3.7zm0 0M3.387 5.238c.672-.27 1.203-.836 1.465-1.554a3.638 3.638 0 01-1.012.546 4.596 4.596 0 01-.453 1.008zm0 0M4.969 2.152a3.604 3.604 0 00-1.059-.656c.106.442.156.895.149 1.352-.004.37-.051.742-.141 1.101.379-.148.73-.363 1.039-.64.082-.38.086-.774.012-1.157zm0 0M4.871 1.785C4.613 1.02 4.051.422 3.336.152c.215.328.379.684.496 1.063.371.133.723.324 1.04.57zm0 0M1.617.176c-.676.277-1.21.86-1.46 1.59.304-.211.632-.38.976-.508.113-.383.277-.746.484-1.082zm0 0M9.285 6.066a4.634 4.634 0 01-.45.645c.333.035.626.004.872-.086l.215-.137c.043-.172.066-.351.078-.531a2.11 2.11 0 01-.695.11h-.02zm0 0M9.969 5.7L10 5.683a3.004 3.004 0 00-.234-1.051c-.024.39-.149.789-.34 1.176.183-.008.367-.043.543-.11zm0 0M7.867 7.64c-.054.044-.11.083-.164.118-.484.328-.953.515-1.371.554 1.031.52 2.254.25 3.012-.66a2.12 2.12 0 01-.672.102c-.262 0-.531-.04-.805-.113zm0 0M9.016 6.05a3.302 3.302 0 01-.625-.132c-.149.2-.309.39-.48.566.034.016.073.028.109.04.175.062.355.109.535.144a4.75 4.75 0 00.418-.55c.015-.024.027-.044.043-.067zm0 0M7.184 7.117c.16.078.324.145.492.203l.144.047c.188-.148.367-.308.535-.48a4.912 4.912 0 01-.64-.211c-.168.16-.344.308-.531.441zm0 0M9.809 6.855l-.012.004c-.215.082-.45.121-.7.121-.156 0-.308-.015-.46-.039-.16.18-.336.344-.516.5.461.094.879.079 1.219-.058l.308-.176c.059-.113.114-.23.16-.352zm0 0M8.148 5.836a4.528 4.528 0 01-.62-.297c-.157.18-.321.352-.497.508.203.129.414.238.633.336a5.84 5.84 0 00.484-.547zm0 0M6.691 7.137a4.719 4.719 0 01-.617-.43c-.347.176-.68.27-.98.277.066.149.14.29.23.418.367.121.848.028 1.367-.265zm0 0M6.828 6.215c-.164.133-.34.254-.52.363.2.152.41.29.626.41.187-.125.367-.265.535-.418a6.05 6.05 0 01-.64-.355zm0 0M5.992 6.313a1.3 1.3 0 00.11.097c.175-.101.347-.215.511-.34a5.115 5.115 0 01-.48-.39c-.477-.446-.778-.91-.887-1.364-.078.133-.144.27-.2.41.044.5.372 1.063.946 1.587zm0 0M7.566 7.55a5.454 5.454 0 01-.62-.273c-.462.29-.9.434-1.282.434-.035 0-.074 0-.11-.004.106.125.227.234.352.336.45.098 1.035-.074 1.66-.492zm0 0M6.29 5.488c.167.153.339.293.526.418.176-.152.344-.316.497-.496a4.787 4.787 0 01-.336-.238c-.598-.457-1.024-.988-1.207-1.496-.122.105-.23.222-.329.351.036.461.332.977.848 1.461zm0 0M5.863 6.527a.104.104 0 01-.023-.02c-.461-.421-.777-.874-.93-1.312a3.01 3.01 0 00.086 1.535c.258.008.555-.062.867-.203zm0 0M7.113 4.965c.117.09.239.172.36.25.488-.63.77-1.328.754-1.942l-.02-.117a2.423 2.423 0 00-2.242.356c.156.48.566 1.008 1.148 1.453zm0 0M8.543 5.7c.203.054.406.093.613.105.262-.485.39-.957.375-1.383l-.054-.305a2.767 2.767 0 00-.274-.328v.008c.02.613-.25 1.289-.66 1.902zm0 0"/><path d="M8.004 4.863a4.414 4.414 0 01-.32.477c.199.113.41.207.62.281a1.44 1.44 0 00.067-.098c.399-.601.61-1.207.598-1.703l-.063-.293a2.726 2.726 0 00-.441-.27c.015.509-.145 1.063-.461 1.606zm0 0"/></g></svg>