<svg xmlns="http://www.w3.org/2000/svg" width="30" height="30"><circle style="isolation:auto;mix-blend-mode:normal;solid-color:#000;solid-opacity:1;marker:none" cx="15" cy="15" r="14.5" color="#000" overflow="visible" fill="#00a19a" fill-rule="evenodd" stroke="#fff"/><g fill="#fff"><path d="M20.387 7.727c0 .949-.774 1.722-1.73 1.722a1.726 1.726 0 01-1.727-1.722c0-.954.773-1.723 1.726-1.723.957 0 1.73.77 1.73 1.723zm0 0M21.86 11.086a.621.621 0 00-.868-.078l-1.847 1.535-.786-2.14c-.035-.102-.277-.688-.78-.942l-.188-.094c-.207-.101-3.797-1.035-3.797-1.035a.618.618 0 00-.762.418c0 .008 0 .012-.004.02l-1.172 2.968a.61.61 0 00.344.793.615.615 0 00.797-.344l1-2.523 1.453.418-2.215 4.648c-.027.055-1.96 3.184-1.96 3.184l-3.473 1.2a.893.893 0 00-.551 1.132.894.894 0 001.133.55l4.125-1.425c.183-.062 1.695-2.633 1.695-2.633l.012.012 2.336 1.875-2.524 2.902a.89.89 0 101.348 1.164l2.933-3.367a.6.6 0 00.055-.082.888.888 0 00.04-1.414l-2.09-1.68 1.722-3.609.476 1.313a.62.62 0 00.79.367c.168-.063 2.68-2.27 2.68-2.27a.617.617 0 00.077-.863zm0 0"/></g></svg>