<svg xmlns="http://www.w3.org/2000/svg" width="11" height="8" viewBox="0 0 11 8"><g fill="#4d4d4d"><path d="M7.422.465c.781-.668 1.644-.45 2.5-.313 1.765.285 1.09 1.641-.082 2.524L4.227 7.05c-.793.59-3.036.281-3.829-.309-.793-.59-.285-.914.508-1.508 0 0 5.73-4.097 6.516-4.77zm0 0M6.246 7.188c0 .445-.234.808-.523.808-.29 0-.524-.363-.524-.809 0-.449.235-.808.524-.808.289 0 .523.36.523.809zm0 0M10.352 3.895c0 .449-.235.808-.524.808-.289 0-.523-.36-.523-.808 0-.446.234-.805.523-.805.29 0 .524.36.524.805zm0 0"/></g></svg>