<svg xmlns="http://www.w3.org/2000/svg" width="11" height="8" viewBox="0 0 11 8"><path d="M10.906 5.457h-.285c-.047 1.156-.95 2.09-2.074 2.14V8h-.215v-.406c-1.11-.063-2-.989-2.047-2.137h-.308v-.113h.308c.004-1.188.91-2.157 2.047-2.223v-.32h.215v.32c1.148.05 2.07 1.027 2.078 2.223h.281zm-2.36-1.602c.767.051 1.36.7 1.368 1.489h.469c-.008-1.059-.82-1.922-1.836-1.973zM6.524 5.344h.47c.007-.778.589-1.422 1.339-1.489v-.484c-1.004.067-1.8.926-1.809 1.973zm1.809 1.515c-.719-.062-1.289-.66-1.336-1.402h-.469c.047 1.012.828 1.828 1.805 1.89zm1.012-1.5a.904.904 0 00-.89-.918c-.49 0-.888.41-.888.918 0 .504.399.918.887.918.492 0 .89-.414.89-.918zm1.039.098H9.91c-.047.754-.629 1.356-1.363 1.406v.485c.992-.051 1.789-.871 1.836-1.891zm-1.93-.719a.585.585 0 00-.574.594c0 .328.258.594.574.594.32 0 .578-.266.578-.594a.585.585 0 00-.578-.594zM10.97.718A.148.148 0 0010.82.57l-.367-.004h-.004V.203c0-.101-.07-.191-.168-.203a.194.194 0 00-.207.195v.371L2.964.543c-.07.035-.128.062-.198.094l-.121.152-.266.285S1.19 1.06.652 1.07a.332.332 0 00-.312.258l-.328 1.41a.311.311 0 00.289.383l1.539.008c.035-.004.066-.012.097-.016l.97-.332c.023.012.448.23.913.168.602-.086.547-.699.578-.699.098.012.25-.012.25-.012l.711-.011a.272.272 0 00.18-.07l.524-.462h.003l4.782-.05c.039 0 .078-.02.109-.047a.155.155 0 00.04-.114zM3.594 2.634c-.239 0-.43-.176-.434-.39l.871-.009v.004c0 .219-.195.395-.437.395zm7.11-1.418H5.987l.164-.219 4.551.027zm0 0" fill="#4d4d4d"/></svg>