<svg xmlns="http://www.w3.org/2000/svg" width="10" height="8" viewBox="0 0 10 8"><path d="M9.79 3.41c-.024-.07-.052-.137-.08-.203l.114-.062c-.031-.075-.07-.141-.11-.208l-.109.079a1.28 1.28 0 00-.125-.172l.098-.094a2.186 2.186 0 00-.16-.168l-.082.11a1.325 1.325 0 00-.164-.13l.066-.12a1.894 1.894 0 00-.191-.114l-.055.129a1.637 1.637 0 00-.191-.078l.039-.133a1.427 1.427 0 00-.215-.05l-.02.136a1.186 1.186 0 00-.203-.016l.004-.14c-.074-.004-.148 0-.222.011l.015.141a1.793 1.793 0 00-.199.04l-.031-.134a.772.772 0 00-.102.032h-.004c-.035.015-.07.027-.101.043l.047.132c-.036.016-.07.036-.106.055l-.492-.715c.254-.328 1.234-.426 1.2-.453-.325-.242-1.13-.101-1.13-.101l-.32-.532-.547-.152-.059.16S6.015.164 5.91.07c-.187-.168-1.105.016-1.105.016l.07.48.727-.043.332.489-.207.144c-1.106 0-1.735 1.059-1.735 1.059s-.23.125-.664.246c-.437.121-3.305.418-3.305.418s-.078.156.07.344c.15.187.731.191 1.387.289.813.117.711.36 1.118.492.41.133.867 0 .867 0l.172.434-.657.503a.763.763 0 00-.09-.066l.067-.121c-.062-.04-.125-.078-.191-.113l-.055.129c-.063-.028-.125-.055-.191-.075l.039-.136a1.427 1.427 0 00-.215-.051l-.02.137a1.186 1.186 0 00-.203-.016l.004-.14c-.074-.005-.148.003-.223.011l.016.14a1.21 1.21 0 00-.2.044l-.03-.137a.772.772 0 00-.102.031l-.004.004c-.035.012-.07.027-.102.04l.047.132a1.149 1.149 0 00-.18.098l-.066-.122c-.062.04-.125.086-.18.137l.079.11c-.051.046-.102.093-.149.148l-.093-.098a1.63 1.63 0 00-.141.184l.105.082a1.12 1.12 0 00-.109.187L.68 5.414c-.035.07-.067.145-.09.219l.12.047c-.022.07-.042.14-.058.21l-.125-.027a2.425 2.425 0 00-.035.235l.13.011c-.005.075-.009.149-.005.223l-.129.008c.004.078.016.16.028.238l.129-.027c.011.07.027.14.05.21l-.12.048c.023.074.05.148.081.218l.117-.062c.032.066.067.129.102.191l-.105.078c.042.067.085.13.136.192L1 7.328c.047.055.098.106.148.152l-.082.11c.055.05.114.098.176.14l.07-.117c.055.04.118.07.176.102l-.05.129c.066.031.136.062.207.082l.035-.133c.066.02.133.035.199.047l-.02.14c.07.012.145.02.22.02v-.14c.07 0 .136-.005.202-.012l.016.14c.074-.011.144-.027.219-.047l-.036-.136a.943.943 0 00.192-.07l.05.128c.067-.031.133-.066.196-.105l-.063-.121c.06-.04.114-.078.165-.125l.082.11c.058-.048.113-.102.164-.161l-.094-.098c.047-.05.09-.11.129-.168l.105.082a1.72 1.72 0 00.117-.203l-.113-.066c.031-.063.059-.133.082-.2l.121.047c.028-.074.047-.152.063-.23l-.125-.027c.015-.075.023-.145.031-.22l.129.013c.004-.082.008-.16.004-.243l-.13.008-.01-.129 1.57-1.199.91-.316s.11-.946.144-1.203c.04-.258.414-.883.414-.883l.067-.102.402.567c0 .004-.004.004-.004.007l.024.02.062.09c-.031.05-.062.105-.09.16l-.113-.066c-.035.07-.066.14-.09.218l.121.047c-.023.07-.043.14-.058.211l-.125-.031c-.016.078-.028.16-.036.238l.13.012c-.005.074-.008.148-.005.223l-.128.007c.003.078.015.157.027.235l.129-.024c.011.07.027.14.05.211l-.12.047c.023.074.05.149.082.219l.117-.063c.03.067.066.13.101.192l-.105.078c.043.066.086.129.136.187l.094-.093c.047.054.098.105.149.152l-.082.11c.054.05.113.097.175.14l.07-.121c.055.039.118.074.177.105l-.051.13c.066.03.136.058.207.081l.035-.133c.066.02.133.036.2.047l-.02.141c.07.012.144.02.218.02v-.141c.07 0 .137-.004.204-.012l.015.14c.074-.01.145-.027.219-.046l-.035-.137a.943.943 0 00.191-.07l.05.129c.067-.031.134-.067.196-.106l-.062-.12c.058-.04.113-.079.164-.126l.082.11c.058-.047.113-.102.164-.16l-.094-.098c.047-.055.09-.11.129-.168l.105.082c.043-.067.083-.133.118-.203l-.114-.067c.032-.066.059-.133.082-.199l.122.047c.027-.074.046-.152.062-.23l-.125-.032c.016-.07.023-.144.031-.215l.13.012c.003-.082.007-.16.003-.242l-.129.008c-.004-.074-.015-.145-.027-.219l.129-.027a2.21 2.21 0 00-.059-.23v-.005zM2.41 7.14c-.46.173-.96-.097-1.117-.6-.156-.5.09-1.048.55-1.216.462-.172.962.098 1.118.602.156.5-.09 1.047-.55 1.215zm6.281-2.312c-.46.168-.96-.098-1.117-.601-.156-.5.09-1.047.551-1.215.46-.172.96.097 1.117.601.156.5-.09 1.043-.55 1.215zm0 0" fill="#4d4d4d"/></svg>