<svg xmlns="http://www.w3.org/2000/svg" width="10" height="10" viewBox="0 0 10 10"><g fill="#4d4d4d"><path d="M9.387 7.953c-.016-.008-.153.121-.414.156.207.133.25.258.257.391.024.371-.492.629-.761.629H7.457a.498.498 0 01-.484-.488v-.067c0-.07.023-.183.066-.308h-.496s.066.156.066.277c-.004.121 0 .016 0 .023-.004.266-.222.508-.5.559l-3.242-.031c-.504-.215-.246-.621-.144-.754.004-.008.007-.02.004-.027-.004-.012-.012-.016-.024-.016l-1.008.015s-.015.215-.41.458a2.83 2.83 0 01-1.031.375c-.332.054-.262.402-.188.449 1.012.668 8.418.316 8.582.289.344-.055.715-.16.934-.301.914-.562.059-1.488-.195-1.629zm0 0"/><path d="M9.445 6.734c-.187-.246-.523-.421-.922-.476a5.536 5.536 0 01-.488-.086l-.058.133a.063.063 0 01-.016.027.174.174 0 01.012.09c-.016.098-.098.172-.192.168-.093-.008-.164-.094-.164-.195 0-.082.043-.153.113-.18.004-.012.004-.02.008-.031l.04-.086a1.038 1.038 0 01-.235-.102.803.803 0 00-.078-.047l-.09.168-.012.02a.213.213 0 01.004.086c-.015.093-.09.16-.176.16a.184.184 0 01-.175-.164c-.012-.094.039-.188.12-.215a.19.19 0 01.012-.027l.09-.165c-.09-.058-.195-.125-.3-.199l-.012.02-.125.176v.02c0 .1-.074.187-.168.194a.184.184 0 01-.188-.171.193.193 0 01.149-.215l.125-.176c-.094-.07-.188-.14-.278-.215l-.113.125a.14.14 0 01-.039.027.194.194 0 01-.082.2.165.165 0 01-.203-.012c-.059-.05-.082-.137-.059-.211.024-.078.086-.133.16-.133a.198.198 0 01.036-.07l.097-.106a8.334 8.334 0 01-.187-.195l-.168.184-.016.015c-.008.106-.09.184-.187.18-.098-.008-.172-.094-.172-.2.004-.105.082-.187.18-.187h.003c0-.004.004-.008.008-.011l.168-.18c.004-.008.012-.012.016-.016-.043-.058-.086-.117-.13-.183l-.01.011-.208.13c-.012.003-.023.011-.035.011a.19.19 0 01-.129.172.177.177 0 01-.191-.07.21.21 0 01-.008-.22.17.17 0 01.183-.089.158.158 0 01.051-.05l.196-.126c-.059-.094-.122-.191-.18-.289-.008.008-.02.016-.027.024l-.207.128a.117.117 0 01-.04.016A.183.183 0 015 4.27a.17.17 0 01-.18-.094.203.203 0 01.012-.215.173.173 0 01.191-.07.092.092 0 01.036-.032l.203-.129.023-.011c-.066-.117-.133-.239-.195-.352-.008.008-.02.02-.031.028l-.204.128-.039.016a.193.193 0 01-.148.148.176.176 0 01-.18-.093.21.21 0 01.012-.219.169.169 0 01.191-.066.119.119 0 01.032-.032l.207-.129c.011-.007.027-.011.039-.015a9.723 9.723 0 01-.145-.305c-.004.004-.008.004-.008.008l-.207.129c-.007.004-.011.004-.02.008-.027.097-.124.156-.214.129a.174.174 0 01-.125-.133.209.209 0 01.031-.18.177.177 0 01.157-.066c.011 0 .019.004.027.004.004-.004.008-.004.015-.008l.204-.13a.139.139 0 01.035-.015 1.52 1.52 0 01-.063-.195c-.082-.488-.05-1.305.04-2.254.034-.387-1.333.207-2.403.645-.172.07-.711.011-.711.011s.238 1.078.129 1.906c-.129.993-.688 2.383-.723 2.91-.05.708.211.965.223 1.067.016.106.074 1.43.324 1.508l1.692-.024c.043 0 .078-.039.078-.085.004-.243.011-.93.023-.973.012-.05.067-.125.344-.09.902.117 1.629.746 2.101.926.477.183.649.183.86.183.215 0 1.957-.039 2.387-.156a1.04 1.04 0 00.433-.32c.145-.196.195-.633-.008-.899zM4.211.332a.174.174 0 01.18.11c.035.074.02.16-.036.218a.167.167 0 01-.203.04.201.201 0 01-.101-.196c.011-.09.078-.164.16-.172zm-.016.602c.075-.012.149.035.18.109.035.074.02.16-.035.219a.167.167 0 01-.203.039.201.201 0 01-.102-.196c.012-.093.078-.164.16-.171zm.016.617a.174.174 0 01.18.11c.035.073.02.16-.036.218a.167.167 0 01-.203.039.201.201 0 01-.101-.195c.011-.09.078-.164.16-.172zm-.11.75a.198.198 0 01.098-.196.167.167 0 01.203.04c.055.058.07.144.035.218a.174.174 0 01-.18.11c-.081-.008-.148-.082-.155-.172zm0 0"/></g></svg>