<svg xmlns="http://www.w3.org/2000/svg" width="11" height="11" viewBox="0 0 11 11"><g fill="#4d4d4d"><path d="M8.223 2.008c-.368.332-.942.5-1.57.574.105.313.202.637.288.973 1.426-.035 2.692-.043 3.727.062A5.532 5.532 0 008.816 1.11a2.361 2.361 0 01-.593.899zm0 0M6.527 3.566a11.688 11.688 0 00-.293-.949 8.62 8.62 0 01-.449.012c-.586 0-1.156-.055-1.594-.113-.988-.125-2-.352-2.843-.621A5.488 5.488 0 00.03 6.09a8.977 8.977 0 012.024-1.344c1.394-.687 2.972-1.105 4.472-1.18zm0 0M7.332 5.297c-.02 0-.039.004-.059.004.086.664.13 1.332.13 2 0 1.332-.106 2.472-.329 3.469a5.506 5.506 0 003.239-2.606 5.182 5.182 0 00-.696-1.516c-.601-.87-1.414-1.351-2.285-1.351zm0 0"/><path d="M7.04 3.957c.07.309.128.621.179.938.035 0 .074-.004.113-.004 1.008 0 1.938.543 2.621 1.527.25.363.457.773.617 1.215a5.54 5.54 0 00.235-3.594c-1.02-.121-2.305-.113-3.766-.082zm0 0M6.875 5.375c-1.64.52-3.766 3.523-4.219 4.832a5.509 5.509 0 003.973.676c.25-1.016.367-2.188.367-3.582 0-.645-.039-1.29-.121-1.926zm0 0M6.082 2.215a8.086 8.086 0 00-.32-.723A7.932 7.932 0 004.859.04 5.482 5.482 0 001.66 1.563c1.328.402 3.07.699 4.422.652zm0 0"/><path d="M6.816 4.969c-.05-.34-.117-.672-.191-1-1.469.062-3.02.465-4.39 1.14-.852.422-1.579.926-2.13 1.47A5.5 5.5 0 002.31 9.98c.28-.726.921-1.78 1.683-2.722.613-.766 1.727-1.973 2.824-2.29zm0 0M6.508 2.188c.633-.06 1.144-.211 1.441-.481.219-.2.395-.48.524-.836A5.491 5.491 0 005.5 0c-.055 0-.105 0-.156.004.285.387.547.824.785 1.308.137.282.262.57.379.875zm0 0"/></g></svg>