<svg xmlns="http://www.w3.org/2000/svg" width="9" height="11" viewBox="0 0 9 11"><path d="M7.86 1.188L6.636 2.359c-.278.266-.09.871-.032 1.032l-.644.617C5.64 1.957 4.687.168 4.559.004c.015.027.007.254.007 3.789 0 .035-.03.062-.066.062.352 0 .66.297.844.747l-1.739 1.66c-.355-1.094.149-2.407.895-2.407-.078 0-.066-.082-.066-.125 0-3.292-.008-3.671.003-3.722-.144.219-1.917 3.285-1.425 6.82l-.723.692c-.324-.102-.824-.196-1.066.035L0 8.727 1.14 9.82l1.223-1.175c.274-.262.094-.852.032-1.024l.644-.613c.344 2.199 1.316 3.855 1.398 3.988-.007-.023-.003-.266-.003-3.781 0-.02.007-.035.02-.047a.065.065 0 01.046-.02c-.352 0-.66-.293-.84-.734L5.398 4.75c.348 1.11-.156 2.398-.898 2.398.016 0 .035.008.047.02.012.012.02.027.02.047 0 3.5.003 3.754-.005 3.781.102-.164 1.52-2.582 1.52-5.492a10.546 10.546 0 00-.094-1.316l.73-.7c.325.102.821.192 1.06-.035L9 2.281zm0 0" fill="#4d4d4d"/></svg>