<svg xmlns="http://www.w3.org/2000/svg" width="30" height="30"><circle style="isolation:auto;mix-blend-mode:normal;solid-color:#000;solid-opacity:1;marker:none" cx="15" cy="15" r="14.5" color="#000" overflow="visible" fill="#fff" fill-rule="evenodd" stroke="#00a19a"/><g fill="#4d4d4d"><path d="M16.934 8.754c0-.969-.852-1.754-1.907-1.754-1.054 0-1.91.785-1.91 1.754 0 .539.25 1.375.653 2.012h2.464c.426-.637.7-1.473.7-2.012zm0 0M16.508 13.277h-2.75c-.426 1.528-1.781 3.63-1.781 5.157 0 1.984 1.218 4 2.394 4.562h1.473c1.18-.562 2.37-2.578 2.37-4.562 0-1.559-1.237-3.688-1.706-5.157zm0 0M16.094 12.375c-.028-.16-.04-.32-.04-.48 0-.082 0-.165.008-.247h-2.16a3.41 3.41 0 01-.015.727zm0 0M20.813 10.512c0-.887-.852-1.602-1.907-1.602-1.054 0-1.91.715-1.91 1.602 0 .488.25 1.25.652 1.832h2.465c.426-.582.7-1.344.7-1.832zm0 0M19.973 13.813a2.34 2.34 0 01-.032-.66h-2.16a2.846 2.846 0 01-.015.66zm0 0M13.055 10.512c0-.887-.852-1.602-1.907-1.602-1.054 0-1.91.715-1.91 1.602 0 .488.25 1.25.653 1.832h2.464c.426-.582.7-1.344.7-1.832zm0 0M12.215 13.813a2.337 2.337 0 01-.04-.438c0-.074.005-.152.009-.223h-2.16a2.846 2.846 0 01-.016.66zm0 0"/><path d="M16.934 8.754c0-.969-.852-1.754-1.907-1.754-1.054 0-1.91.785-1.91 1.754 0 .539.25 1.375.653 2.012h2.464c.426-.637.7-1.473.7-2.012zm0 0M20.293 14.637h-2.75l-.008.02c.008.019.016.038.027.058.516 1.207 1.102 2.578 1.102 3.719 0 1.785-.965 3.742-2.02 4.562.481.008 3.376 0 3.376 0 1.175-.512 1.98-1.844 1.98-3.652 0-1.422-1.238-3.364-1.707-4.707zm0 0M11.953 21.184c-.402-.774-.617-1.727-.617-2.75 0-1.047.539-2.254 1.059-3.418.05-.118.101-.23.152-.344l-.012-.035h-2.75C9.36 16.03 8 17.949 8 19.344c0 1.808.836 3.14 2.012 3.652 0 0 2.949.008 3.394 0-.426-.336-1.172-1.277-1.453-1.812zm0 0M16.094 12.375c-.028-.16-.04-.32-.04-.48 0-.082 0-.165.008-.247h-2.16a3.41 3.41 0 01-.015.727zm0 0"/></g></svg>