<svg xmlns="http://www.w3.org/2000/svg" width="30" height="30"><circle style="isolation:auto;mix-blend-mode:normal;solid-color:#000;solid-opacity:1;marker:none" cx="15" cy="15" r="14.5" color="#000" overflow="visible" fill="#00a19a" fill-rule="evenodd" stroke="#fff"/><g fill="#fff"><path d="M18.895 16.887a.616.616 0 00-.145-.32.803.803 0 00-.973-.243l-.058.028c-.035.015-.07.03-.102.046l-2.832 1.329-1.512-2.653 1.02.395c.25.097.531-.02.633-.262l.11-.258.003-.011.004-.016a.46.46 0 00.027-.078l1.344-3.79a.747.747 0 00-.477-.956l-.027-.012a.794.794 0 00-.992.465l-1.094 3.082s-2.433-1.192-2.793-1l-1.117.597c-.941.594-.172 1.805-.172 1.805l2.274 3.992-.004.004.425.735c.196.34.633.472.997.3l3.71-1.738-.46 3.965a.61.61 0 00.55.664l.34.04c.34.038.649-.2.688-.532l.601-5.188a.74.74 0 00.032-.39zm0 0M10.883 11.164c0 1.04-.867 1.879-1.938 1.879-1.07 0-1.937-.84-1.937-1.879 0-1.039.867-1.879 1.937-1.879s1.938.84 1.938 1.88zm0 0M14.914 10.086a.379.379 0 01-.34-.2l-.828-1.558-1.133-.64a.36.36 0 01-.133-.504.388.388 0 01.52-.133l1.227.695c.062.04.113.09.144.152l.879 1.653a.358.358 0 01-.012.36.384.384 0 01-.324.175zm0 0"/><path d="M18.055 15.977a.382.382 0 01-.32-.176l-1.813-2.79a.36.36 0 01.121-.507.39.39 0 01.523.117l1.813 2.79a.36.36 0 01.012.374.399.399 0 01-.336.192zm0 0M21.613 22.746a.38.38 0 01-.367-.266c-.094-.199-.719-1.32-1.18-2.144-.257-.457-.5-.895-.68-1.223-.097-.175-.171-.304-.218-.398-.102-.188-.16-.3-.094-.465a.382.382 0 01.367-.23c.16.003.297.105.348.253v.004c.078.16.54.98.945 1.707.297.528.602 1.075.832 1.496.13.227.22.399.286.52.125.238.191.367.097.547a.38.38 0 01-.336.2zm-.34-.535zm0 0zm0 0zm0 0"/></g></svg>