<svg xmlns="http://www.w3.org/2000/svg" width="30" height="30"><circle style="isolation:auto;mix-blend-mode:normal;solid-color:#000;solid-opacity:1;marker:none" cx="15" cy="15" r="14.5" color="#000" overflow="visible" fill="#00a19a" fill-rule="evenodd" stroke="#fff"/><g fill="#fff"><path d="M23 10.04c0 1.023-.863 1.85-1.926 1.85-1.062 0-1.926-.828-1.926-1.85 0-1.028.864-1.856 1.926-1.856 1.063 0 1.926.828 1.926 1.855zm0 0M6.207 21.715a.737.737 0 00.043 1.066l.023.02a.81.81 0 001.11-.043l5.77-6.028-1.176-1.043zm0 0M22.707 15.313a.762.762 0 00-.789-.727l-3.27.035-.011-1.406-1.54 1.652a.762.762 0 00-.206.555.765.765 0 00.261.531l.028.02c.09.078.203.136.324.168v.02h.086c.09.015.187.01.277-.005l4.09-.054c.426-.012.762-.352.754-.758zm0 0"/><path d="M19.023 11.168l-1.125-.973-3.105-2.976a.788.788 0 00-1.086 0h-.004l-.02.02c-.019.019-.038.038-.054.062l-2.746 2.937c-.29.301-.266.77.05 1.047l.024.02c.316.273.8.25 1.09-.051l2.234-2.39 1.996 1.913-3.125 3.344-.007-.008-.57.625a.709.709 0 00.03 1l2.891 2.79-3.988.863a.598.598 0 00-.469.71l.074.317c.074.32.403.523.735.453l5.222-1.129c.137 0 .27-.035.383-.097a.608.608 0 00.266-.239.719.719 0 00-.082-.953l-.047-.047a.666.666 0 00-.074-.074l-2.207-2.129 3.77-4.027a.702.702 0 00-.056-1.008zm0 0"/></g></svg>