<svg xmlns="http://www.w3.org/2000/svg" width="10" height="9" viewBox="0 0 10 9"><g fill="#4d4d4d"><path d="M3.898 1.063c0 .59-.449 1.062-1.003 1.062-.56 0-1.008-.473-1.008-1.063C1.887.478 2.336 0 2.895 0c.554 0 1.003.477 1.003 1.063zm0 0M8.195 1.063c0 .59-.449 1.062-1.004 1.062-.558 0-1.007-.473-1.007-1.063C6.184.478 6.633 0 7.19 0c.555 0 1.004.477 1.004 1.063zm0 0M10 3.375v-.078a.332.332 0 00-.324-.34H.324a.332.332 0 00-.324.34v.078c0 .188.145.34.324.34H1.91c.176 0 .32.152.32.34v1.738c0 .05-.007.102-.03.148l-1.153 2.57a.36.36 0 00.016.329c.062.101.164.16.273.16h.004a.312.312 0 00.289-.195l1.254-2.79h.039L4.203 8.81a.315.315 0 00.563.03.349.349 0 00.015-.327L3.668 6.078a.389.389 0 01-.031-.148V4.055c0-.188.144-.34.32-.34h2.18c.18 0 .324.152.324.34v1.77c0 .05-.012.1-.031.148L5.29 8.512a.349.349 0 00.015.328c.062.101.164.16.273.16h.004a.312.312 0 00.29-.195l1.253-2.79h.047L8.445 8.81a.315.315 0 00.563.03.349.349 0 00.015-.327L7.898 6.035a.32.32 0 01-.035-.148V4.055c0-.188.145-.34.324-.34h1.489c.18 0 .324-.152.324-.34zm0 0"/></g></svg>