<svg xmlns="http://www.w3.org/2000/svg" width="11" height="10" viewBox="0 0 11 10"><path d="M6.773 7.313c-.253.269-.617.421-1.003.421-.582 0-1.067-.312-1.258-.851l.004.004a1.064 1.064 0 01-.051-.328c0-.653.586-1.18 1.305-1.18.722 0 1.308.527 1.308 1.18 0 .156-.035.316-.105.46.699 0 1.32 0 1.343-.003.18-.004 1.496-2.97 2.598-5.52V.004L8.5 5.496a.118.118 0 01-.145.059c-.59-.192-3.515-1.086-3.515-1.086-.445-.137-.93.117-1.008.539-.035.207-.02.43-.02.68v.195c0 .39.22.754.583.96l-2.688-.726L0 6.297 2.828 7.94c-.394.204-.625.442-.625.7 0 .75 1.969 1.355 4.399 1.355 2.43 0 4.398-.605 4.398-1.355 0-.727-1.977-.79-4.227-1.329zm-.078 1.226c-.3 0-.543-.07-.543-.156s.243-.156.543-.156c.301 0 .543.07.543.156s-.242.156-.543.156zm0 0" fill="#4d4d4d"/></svg>