<svg xmlns="http://www.w3.org/2000/svg" width="8" height="11" viewBox="0 0 8 11"><g fill="#4d4d4d"><path d="M1.402 3.586a.736.736 0 00-.675-.738C.336 2.813.012 3.086 0 3.46a.733.733 0 00.68.734c.386.035.71-.238.722-.61zm0 0"/><path d="M5.047.004c-.04 0-.106.09-.184.226 0 .012.004.024.004.036a.208.208 0 00.051.078.019.019 0 010 .027c-.047.04-.094.074-.137.113a.336.336 0 00-.093.16c-.02.063 0 .141-.036.196-.011.02-.03.039-.043.058-.015.028-.004.047.008.067a.019.019 0 010 .027.536.536 0 00-.156.246l-.012.047-.011.09c-.016.07-.079.098-.125.133a.104.104 0 00-.024.02c-.02.05-.039.097-.055.144 0 .016 0 .035.004.05a.495.495 0 01-.008.247.866.866 0 01-.109.195 1.134 1.134 0 00-.113.203c-.016.035-.031.07-.04.11a.253.253 0 00.005.093c.011.047.027.094.035.14.008.04.012.08.004.118a.444.444 0 01-.024.098c0 .008-.004.011-.004.02.02 0 .082.148.063.253-.016.11-.125.13-.145.239-.035.21 0 .492.02.683v.02c-.203.222-.531.57-.738.773-.008.008-.016.008-.024.004s-.012-.008-.008-.016c.012-.125.024-.25.032-.375.003-.004.003-.007.007-.011a.593.593 0 00.122-.121s.003-.004.003-.008l.133-1.86c0-.004.004-.004.004-.007.27-.829.73-2.27.797-2.48 0-.005 0-.013-.004-.017C4.242.02 4.238.016 4.23.016h-.007c-.008 0-.016.007-.02.015-.066.215-.469 1.461-.746 2.297 0 .008-.008.012-.016.012-.007 0-.011-.004-.015-.008a.25.25 0 00-.04-.05c-.003-.005-.003-.009-.003-.016.18-1.118.336-2.09.363-2.243A.026.026 0 003.73 0a.026.026 0 00-.023.016L3.34 2.234c0 .012-.012.02-.02.016h-.03c-.11.02-.263.113-.27.23 0 0-.336 1.333-.356 1.743 0 .004 0 .011-.004.011-.004.004-.012.008-.015.004-.2-.02-.774-.05-.938-.011h-.004l-.785.246c-.285.066-.414.355-.344.562v.004l.996 2.098c.309.828 1.223 1.238 1.785 1.547.004.004.008.007.008.015v.024l.371 2.03c.008.134.207.231.348.243.14.012.238-.078.23-.207l-.14-2.137c0-.02-.004-.238-.067-.289l-.945-.761c-.004-.004-.008-.008-.008-.016.004-.004.008-.012.012-.012.309-.164.668-.37.906-.554a.024.024 0 01.028.003l1.097 1.235c.078.11.301.101.43.043.129-.055.168-.184.09-.29l-1.25-1.769c-.078-.11-.277-.129-.45-.05a.387.387 0 00-.066.042c0 .004 0 .004-.004.004l-.535.297-.133-.426.055-.011c.027-.004.035-.032.031-.051a.387.387 0 00-.054-.172.34.34 0 00-.125-.098c-.004-.02-.012-.035-.016-.054-.008-.024-.012-.051-.02-.075a.15.15 0 00.09-.078l.004-.004.828-.968c.016.035.035.074.051.12.035.067-.02.173.016.278.039.11.164.152.218.3.032.122.008.247.02.36.004 0 .008.004.012.004a.085.085 0 00.02.012c.003-.004.007-.004.015-.004.008.004.008.012.008.016.023.02.05.039.074.054.027.016.047.04.066.063.032.039.047.105.09.125.05.027.113.011.168.008.04-.004.094.113.102.136.027.008.054.016.078.028.02-.012.039-.028.062-.024a.446.446 0 01.137.051c.031.016.059.04.082.066.004-.003.008-.003.012-.003.004.003.004.007.008.007 0 .012.003.02.003.028.036.12.102.234.083.367.03.012.054.039.066.07a.108.108 0 01.012.05l-.012.048a.09.09 0 00-.004.054.144.144 0 00.02.043c.02.024.046.04.062.063a.2.2 0 01.04.094c.003.015.01.031.019.047.011.011.027.007.039.007.027-.003.062-.011.086.016a.082.082 0 01.015.043c.004.016.004.023.016.035.062.059.133.106.2.164a.768.768 0 01.163.207l.028.051a.76.76 0 01.085.238l.036.106c.004-.012-.024.129-.024.18a.397.397 0 01.012.218.509.509 0 01-.04.059l-.01.105.026.035c.012.032.02.063.02.094.004.031.004.067.008.102 0 .031 0 .062.015.09.008.023.028.039.043.058.02.04.032.078.036.121 0 .047-.008.094-.004.145.004.039.02.078.039.11.02.03.035.062.047.093.015.043.02.09.023.137l.035.234c0 .012.028.082.02.094.07.316.152.558.168.902H8V.003S6.066 0 5.047.004zM2.383 4.777l.539-.164c.008-.004.015 0 .02.004.003.004.007.008.003.016l-.058.36c0 .007-.004.01-.008.015h-.02c-.117-.059-.289-.133-.382-.176-.004 0-.059-.023-.106-.039.004-.008.008-.012.012-.016zm.535 1.078a.415.415 0 00-.063-.148.29.29 0 01-.039.023c.008-.03.012-.062.02-.101 0-.008.008-.016.02-.012.062.008.113.012.124.016-.02.066-.039.14-.062.222zm.094-.214a.417.417 0 00.097.011 1.3 1.3 0 01.032.118c-.004.003-.012.007-.016.011l-.188.207c0-.015 0-.031-.003-.047.03-.109.054-.214.078-.3zm-.215.675l-.203-.726c.035 0 .078.004.082.004l.094.011c.003 0 .007.004.011.008.004.004.004.008.004.012-.012.055-.02.105-.023.145-.024.015-.043.027-.051.035-.004.004-.004.008-.008.008a.36.36 0 00.02.19c.004.005.007.009.015.009.043.011.09.011.137.011-.008.02-.012.043-.02.063a.858.858 0 00-.066.098c-.012.011-.012.03 0 .046.008.008.016.016.023.016-.003.024-.011.047-.015.07zm.55.149c.012.031.02.058.028.09l-.426.238c-.004 0-.008.004-.015 0-.004-.004-.008-.008-.008-.012-.008-.023-.012-.047-.02-.07l-.086-.309c.012-.054.028-.109.04-.164.124-.043.25-.093.382-.12l.106.347zm-.117-.547c.02.031.036.066.04.105-.004 0-.012 0-.016.004a4.859 4.859 0 00-.035-.12l.011.011zm-.062-.05c.004.01.008.023.012.03l.035.137c-.09.02-.18.047-.27.082.07-.086.145-.168.223-.25zm-.063-.884c0 .004-.003.008-.007.012a.611.611 0 01-.102.082c-.004.004-.016 0-.02-.004l-.035-.023c-.007-.004-.011-.012-.007-.02.02-.133.043-.281.07-.433 0-.008.004-.012.012-.016l.12-.035c.005 0 .009-.004.012-.004-.011.144-.027.293-.043.441zm0 0"/></g></svg>