<svg xmlns="http://www.w3.org/2000/svg" width="30" height="30"><circle style="isolation:auto;mix-blend-mode:normal;solid-color:#000;solid-opacity:1;marker:none" cx="15" cy="15" r="14.5" color="#000" overflow="visible" fill="#fff" fill-rule="evenodd" stroke="#00a19a"/><path d="M22.855 17.184h-.437a3.361 3.361 0 01-3.207 3.21V21h-.332v-.605a3.366 3.366 0 01-3.164-3.211h-.48v-.168h.476a3.363 3.363 0 013.168-3.332v-.485h.332v.48a3.365 3.365 0 013.21 3.337h.434zm-3.644-2.403a2.262 2.262 0 012.113 2.235h.723a2.988 2.988 0 00-2.836-2.961zm-3.129 2.235h.727a2.26 2.26 0 012.07-2.23v-.727a2.986 2.986 0 00-2.797 2.957zm2.797 2.273a2.26 2.26 0 01-2.067-2.105h-.726a2.994 2.994 0 002.793 2.836zm1.558-2.25c0-.762-.613-1.375-1.37-1.375a1.375 1.375 0 100 2.75c.757 0 1.37-.617 1.37-1.375zm1.606.145h-.727a2.252 2.252 0 01-2.105 2.109v.727a2.982 2.982 0 002.832-2.836zm-2.977-1.079a.89.89 0 100 1.78.89.89 0 000-1.78zm3.887-6.027a.233.233 0 00-.23-.226h-.57v-.544c0-.156-.114-.292-.262-.308a.288.288 0 00-.223.074.298.298 0 00-.098.215v.559h-.004l-10.988-.032c-.105.047-.195.09-.305.141l-.187.227-.406.425s-1.84-.023-2.672-.004a.501.501 0 00-.48.387l-.512 2.117a.466.466 0 00.449.57l2.379.016.152-.023 1.496-.5c.04.02.695.348 1.414.25.93-.125.844-1.05.89-1.043.157.016.388-.024.388-.024l1.101-.015c.102 0 .2-.04.277-.106l.81-.691h.003l7.39-.078a.219.219 0 00.165-.07.249.249 0 00.066-.172zM11.555 12.95c-.367 0-.668-.262-.672-.586l1.347-.008c0 .329-.3.594-.675.594zm10.984-2.125h-7.281l.25-.332 7.031.04zm0 0" fill="#4d4d4d"/></svg>