<svg xmlns="http://www.w3.org/2000/svg" width="11" height="10" viewBox="0 0 11 10"><g fill="#4d4d4d"><path d="M1.324 1.77c1.008-.426 3.106-.73 3.207-.524 0 0 .168-1.043.18-1.195a5.849 5.849 0 00-2.383.86c-.687.444-1.074.89-1.004.859zm0 0M3.684 4.23S4.84 5.48 4.87 5.46C6.742 4.192 7.457 1.224 7.496.337A5.953 5.953 0 005.586 0c-.34 3.078-1.902 4.23-1.902 4.23zm0 0M5.52 5.969l.898.558 1.062.493s2.395-1.2 2.704-4.676c0 0 0-.004-.004-.008a3.206 3.206 0 00-.172-.23A5.369 5.369 0 008.27.668c-.13 1.042-.649 3.577-2.75 5.3zm0 0M10.898 3.926c-.015-.078-.039-.156-.062-.235-.063.102-.395 1.172-.941 2.082-.48.79-1.25 1.465-1.442 1.524l1.797.262c.047-.07.094-.141.133-.215.273-.489.84-1.77.515-3.418zm0 0"/><path d="M9.68 8.246C4.89 7.738 2.965 4.56 2.965 4.56s-1.477.328-1.477.539c0 .132 1.051 2.004 2.32 2.84 1.68 1.105 3.72 1.457 4.188 1.527.203-.094.402-.2.594-.317.293-.21.652-.476.879-.664.074-.074.148-.144.219-.218.003-.012 0-.016-.008-.02zm0 0"/><path d="M.84 5.61l-.578.964s.238.711.86 1.465C2.167 9.277 3.788 10.004 5.503 10c.355 0 .707-.031 1.055-.09-.004-.004-.008-.004-.012-.008C2.257 9.035.84 5.61.84 5.61zm0 0M.027 5.363C1.254 3.836 2.73 3.836 2.965 3.82c.234-.015 1.441-1.847 1.293-1.851C2.058 1.855.406 3.254.289 3.355c-.035.09-.066.18-.098.27-.129.582-.242 1.832-.164 1.738zm0 0"/></g></svg>