<svg xmlns="http://www.w3.org/2000/svg" width="30" height="30"><circle style="isolation:auto;mix-blend-mode:normal;solid-color:#000;solid-opacity:1;marker:none" cx="15" cy="15" r="14.5" color="#000" overflow="visible" fill="#00a19a" fill-rule="evenodd" stroke="#fff"/><g fill="#fff"><path d="M6 9h2.688l.894 1.64-.895.9zm0 0M14.031 13.57a.707.707 0 00-.87.5l-.087.32a.717.717 0 00.504.876l2.91.761.403-1.71zm0 0M16.969 16.133l.402.105a.879.879 0 00.445-1.699l-.445-.117zm0 0M21.098 17.34l-.47-.235a1.246 1.246 0 00-.687-1.402 1.241 1.241 0 00-1.511.371 1.246 1.246 0 00.039 1.563 1.238 1.238 0 001.531.289l.219.441zm0 0"/><path d="M22.414 19.828H19.81a.445.445 0 00-.07-.098l-2.266-2.492c-.094-.101-.528-.453-.696-.5l-3.668-.988-2.437-4.223a.88.88 0 00-1.2-.32l-.09.05a.883.883 0 00-.32 1.2l2.489 4.309.324.574c.184.316.855.476.855.476l4.418 1.282c.282.074 1.61 1.902 2.196 1.902h3.07a.585.585 0 100-1.172zm0 0"/></g></svg>