<svg xmlns="http://www.w3.org/2000/svg" width="30" height="30"><circle style="isolation:auto;mix-blend-mode:normal;solid-color:#000;solid-opacity:1;marker:none" cx="15" cy="15" r="14.5" color="#000" overflow="visible" fill="#fff" fill-rule="evenodd" stroke="#00a19a"/><g fill="#4d4d4d"><path d="M21.957 19.727c-.027-.016-.258.191-.7.246.348.215.423.414.438.625.04.597-.843 1.007-1.3 1.007h-1.72c-.429 0-.8-.34-.82-.777-.003-.023-.003-.047-.003-.07v-.04c0-.113.043-.292.113-.491h-.844s.113.246.113.441c-.004.195.004.023.004.035-.011.43-.379.817-.847.895l-5.516-.047c-.855-.344-.418-.996-.246-1.207.008-.016.012-.032.004-.047-.008-.012-.02-.024-.035-.02l-1.715.024s-.028.344-.7.73a5.012 5.012 0 01-1.75.602c-.566.082-.445.64-.324.715 1.723 1.07 14.313.511 14.594.468.586-.09 1.211-.261 1.59-.48 1.55-.906.098-2.387-.336-2.61zm0 0"/><path d="M22.059 17.773c-.317-.39-.891-.671-1.57-.761-.333-.043-.606-.09-.829-.137l-.101.215c-.008.015-.012.027-.024.039a.301.301 0 01.016.144.302.302 0 01-.32.266.305.305 0 01-.286-.309.31.31 0 01.196-.289c.004-.015.011-.03.015-.046l.067-.137a2.516 2.516 0 01-.399-.164c-.031-.016-.078-.043-.133-.074l-.152.265a.085.085 0 01-.02.031.31.31 0 01-.293.395.31.31 0 01-.09-.605c.005-.016.009-.032.02-.047l.149-.262c-.157-.09-.328-.195-.516-.317a.117.117 0 01-.016.032l-.214.285.003.027c0 .164-.128.301-.289.309a.299.299 0 01-.316-.274.305.305 0 01.25-.34l.215-.285a8.008 8.008 0 01-.469-.343l-.2.203c-.015.02-.038.031-.058.043a.314.314 0 01-.144.324.3.3 0 01-.344-.024.31.31 0 01.176-.555.215.215 0 01.058-.109l.164-.168c-.113-.105-.222-.207-.316-.312h-.004l-.285.293-.027.023a.308.308 0 01-.32.29.307.307 0 01-.29-.317c.004-.168.14-.3.305-.3h.008a.054.054 0 01.011-.016l.286-.293c.007-.008.02-.016.027-.024a7.161 7.161 0 01-.219-.293.069.069 0 01-.02.016l-.35.207a.184.184 0 01-.06.023.305.305 0 11-.559-.191.3.3 0 01.313-.14.236.236 0 01.082-.083l.336-.199a16.006 16.006 0 01-.308-.465.156.156 0 01-.047.04l-.348.206a.226.226 0 01-.066.024.313.313 0 01-.25.238.3.3 0 01-.309-.148.32.32 0 01.02-.348.297.297 0 01.324-.11.184.184 0 01.059-.05l.347-.207.04-.016c-.114-.191-.227-.383-.333-.566-.015.015-.03.031-.05.043l-.348.203a.142.142 0 01-.066.027.308.308 0 01-.25.238.3.3 0 01-.31-.148.32.32 0 01.02-.348.301.301 0 01.325-.109.184.184 0 01.058-.05l.348-.208a.226.226 0 01.066-.023c-.09-.172-.175-.336-.246-.485-.004 0-.008.004-.015.008l-.348.207c-.012.004-.02.012-.031.016a.308.308 0 01-.368.207.3.3 0 01-.214-.215.313.313 0 01.058-.285.303.303 0 01.313-.102l.02-.015.35-.203a.137.137 0 01.056-.024 2.017 2.017 0 01-.102-.316c-.14-.782-.086-2.09.062-3.606.06-.617-2.261.332-4.082 1.031-.293.114-1.21.02-1.21.02s.406 1.723.222 3.05c-.222 1.587-1.172 3.81-1.23 4.657-.082 1.133.363 1.543.383 1.707.019.164.12 2.29.542 2.41l2.88-.039a.135.135 0 00.132-.137c.008-.386.024-1.484.04-1.554.019-.082.113-.2.585-.145 1.535.188 2.766 1.196 3.574 1.485.809.289 1.098.289 1.461.289.364 0 3.325-.063 4.055-.246.078-.024.496-.207.738-.516.242-.309.328-1.012-.011-1.438zM13.16 7.531a.297.297 0 01.305.172.322.322 0 01-.059.356.298.298 0 01-.344.058.304.304 0 01-.171-.312.297.297 0 01.27-.274zm-.027.961a.294.294 0 01.305.176.317.317 0 01-.06.352.298.298 0 01-.343.058.302.302 0 01-.172-.308.308.308 0 01.27-.278zm.027.988a.294.294 0 01.305.176.317.317 0 01-.059.352.292.292 0 01-.344.058.302.302 0 01-.171-.308.3.3 0 01.27-.278zm-.191 1.2a.323.323 0 01.172-.313.305.305 0 01.347.063c.09.093.114.234.059.351a.308.308 0 01-.305.176.308.308 0 01-.273-.277zm0 0"/></g></svg>