<svg xmlns="http://www.w3.org/2000/svg" width="30" height="30"><circle style="isolation:auto;mix-blend-mode:normal;solid-color:#000;solid-opacity:1;marker:none" cx="15" cy="15" r="14.5" color="#000" overflow="visible" fill="#fff" fill-rule="evenodd" stroke="#00a19a"/><g fill="#4d4d4d"><path d="M17.84 11.078a.75.75 0 00-.953-.437l-1.344.484-1.875-1.633a.777.777 0 00-.613-.183h-.008a.99.99 0 00-.52.097l-2.644.656a.772.772 0 00-.547.493c-.016.043-.031.082-.043.125l-.492 1.875a.738.738 0 00.719.918.744.744 0 00.718-.551l.383-1.461 1.29-.32-.313 3.468a.917.917 0 00.011.254.799.799 0 00-.05.121l-.79 2.348-2.417.648a.763.763 0 00-.54.942c.114.41.536.648.946.539l2.808-.754c.028-.008.059-.016.086-.027h.004l.028-.012c.003 0 .007-.004.007-.004l.024-.012.023-.011c.004 0 .008-.004.012-.004.008-.004.016-.008.02-.012.003-.004.007-.004.011-.004l.016-.016c.004 0 .008 0 .008-.003l.035-.024c.004-.004.008-.004.008-.008.007-.004.011-.007.015-.007.004-.004.008-.008.016-.012 0-.004.004-.008.008-.012a.069.069 0 00.02-.016s.003-.003.007-.003a.864.864 0 00.152-.204v-.003c.004-.012.008-.02.012-.028.004-.004.004-.008.008-.012a.03.03 0 01.008-.015c0-.008.004-.012.004-.02.004-.004.004-.008.004-.008a.19.19 0 00.011-.027l.692-2.062 1.136.875-.296 2.777a.777.777 0 00.691.844c.027 0 .055.004.082.004a.774.774 0 00.77-.688l.34-3.203c.003-.004.003-.012.003-.016v-.015-.028-.007c.004-.008.004-.02 0-.032v-.004-.035a.731.731 0 00-.035-.18v-.003l-.012-.028c0-.004-.004-.007-.004-.007l-.011-.024c0-.008-.004-.012-.004-.016-.004-.007-.008-.011-.008-.02-.004-.003-.008-.01-.012-.019 0-.003-.004-.007-.004-.011-.004-.008-.011-.012-.015-.02 0-.004-.004-.008-.004-.008-.004-.011-.012-.02-.016-.027l-.004-.004a.119.119 0 00-.02-.027v-.004c-.007-.008-.015-.016-.019-.024l-.004-.003a.104.104 0 01-.02-.024l-.007-.008c-.004-.008-.012-.011-.02-.02a.008.008 0 00-.007-.007c-.004-.008-.012-.012-.016-.016l-.016-.015-.011-.012a.069.069 0 01-.02-.016c-.004 0-.004-.004-.008-.004l-1.71-1.316.28-3.09.942.82a.748.748 0 00.809.204l1.84-.664a.727.727 0 00.417-.38.722.722 0 00.028-.562zm0 0M14.746 7.367a1.37 1.37 0 01-1.379 1.363c-.765 0-1.383-.609-1.383-1.363s.618-1.363 1.383-1.363c.762 0 1.38.61 1.38 1.363zm0 0"/><path d="M22.973 21.828a.999.999 0 00-.04-.187l-2.351-8.477a.761.761 0 00-.09-.2l.844-1.495a.504.504 0 00.047-.383.504.504 0 00-.242-.3.509.509 0 00-.692.19l-1.11 1.97H17.73a.449.449 0 00-.398.222.467.467 0 000 .453c.082.14.234.227.398.223h1.82l2.02 7.277H7.95a.943.943 0 00-.95.938c0 .52.426.937.95.937h14.1a.943.943 0 00.923-1.168zm0 0"/></g></svg>