<svg xmlns="http://www.w3.org/2000/svg" width="10" height="10" viewBox="0 0 10 10"><g fill="#4d4d4d"><path d="M6.695 5.637l.008-3.91h.008V.109a.106.106 0 00-.035-.082.103.103 0 00-.082-.023l-4.38.96a.109.109 0 00-.081.106v4.625c0 .035-.016.07-.047.09-.031.02-.066.024-.098.004a1.386 1.386 0 00-.687-.176C.582 5.613 0 6.133 0 6.773c0 .641.582 1.16 1.3 1.16.579 0 1.067-.34 1.235-.804 0 0 .024-.063.027-.078.024-.09.036-.184.036-.278 0-.097-.043-3.988-.043-3.988 0-.086.054-.16.132-.176l3.454-.757a.091.091 0 01.082.02.121.121 0 01.035.085v2.5c0 .246-.04.25-.23.164a1.535 1.535 0 00-.633-.144c-.715 0-1.297.52-1.297 1.16 0 .64.582 1.16 1.297 1.16.718 0 1.3-.52 1.3-1.16zm0 0M9.89 5.383c-.199-.457-1.156-1.215-1.374-1.403l-.004-.257c-.004-.016-.04-.266-.262-.278h-.016c-.195 0-.265.16-.265.266v4.094a.09.09 0 01-.043.078.085.085 0 01-.086 0 1.405 1.405 0 00-.738-.207c-.72 0-1.301.52-1.301 1.16 0 .64.582 1.16 1.3 1.16.614 0 1.13-.383 1.262-.894l.024-.114a1 1 0 00.011-.152l-.011-3.887c.34.094 1.011.528 1.086 1.246.066.625-.73 1.465-.504 1.364 1.25-.551 1.078-1.817.922-2.176zm0 0"/></g></svg>