<svg xmlns="http://www.w3.org/2000/svg" width="9" height="11" viewBox="0 0 9 11"><g fill="#4d4d4d"><path d="M6.313 5.773l-1.493-.03c.02-.11.043-.223.067-.329-1.012-.059-1.75-.223-2.344-.355a14.761 14.761 0 01-.324-.07C1.195 4.772.32 4.065 0 3.82v5.438c.688-.211 1.297-.434 1.61-.645l1.804-1.09 1.281.184-.183.504-.969.207-.563-.18s-.386 1.063-.398 1.117c-.016.06 1.363-.18 1.363-.18l1.184-.433.328-.562s.195.265.305.308c.11.043.785-.547.785-.547s.371-1.02.414-1.343c.039-.32-.649-.825-.649-.825zM5.804 7.41s-.262-.46-.54-.504c-.273-.043-1.019-.086-1.019-.086l1.805-.418.07.657zm0 0"/><path d="M2.61 4.75c.59.133 1.328.297 2.343.348.063-.274.117-.54.149-.782.054-.46.425-.34.824-.609.136-.09.297-.148.457-.227.031.075.05.125.074.172.125.243.234.493.371.723.16.266.379.473.649.629.464-.05.96-.125 1.5-.227-.016-.093-.04-.187-.063-.28a1.644 1.644 0 01-.059-.477 7.213 7.213 0 00-.328-2.325c-.03-.101.004-.23.024-.34.054-.332.129-.66.312-.945.008-.012.008-.027.024-.074-.168.062-.309.117-.457.176.02-.196.152-.336.238-.504-.285-.02-1.05.32-1.25.558C6.184-.07 4.926-.227 3.637.395c.246.085.687.058.941.21-.07.02-.297.04-.344.055C1.828 1.148.457 2.945.152 3.535c-.004.008-.011.016-.02.024a.215.215 0 00-.034.027c.324.242 1.254.898 2.183 1.094.106.02.215.047.328.07zm0 0M8.992 5.168c.004-.023.004-.05.008-.074-.523.097-1.008.168-1.46.222.003.036.007.075.019.11.078.285.273.433.57.441.125 0 .25-.008.375-.027.125-.02.219-.106.289-.207.062-.086.113-.18.172-.266L9 5.247c-.004-.028-.012-.056-.008-.079zm0 0M7.453 10.527c.586-.218.93-.828.809-1.437a1.293 1.293 0 00-1.29-1.04 1.294 1.294 0 00-1.257 1.083 1.28 1.28 0 00.86 1.41V11h.878zM6.301 9.332c0-.379.308-.684.691-.684.383 0 .692.305.692.684a.686.686 0 01-.692.684.686.686 0 01-.691-.684zm0 0"/><path d="M5.797 5.516c-.379 0-.586-.051-.7-.079-.019-.003-.046-.011-.054-.011l.031-.313a.394.394 0 01.098.02c.203.047.75.18 2.281-.145l.063.309c-.797.168-1.344.219-1.72.219zm0 0"/></g></svg>