<svg xmlns="http://www.w3.org/2000/svg" width="30" height="30"><circle style="isolation:auto;mix-blend-mode:normal;solid-color:#000;solid-opacity:1;marker:none" cx="15" cy="15" r="14.5" color="#000" overflow="visible" fill="#00a19a" fill-rule="evenodd" stroke="#fff"/><g fill="#fff"><path d="M7 20.648l3.746-7.171s1.41-5.34 3.86-6.09c2.449-.75 4.503-.211 5 0 .496.21 2.007 1.031 2.152 1.36.21.476.62 1.886-.57 4.331-1.618 3.336-3.922 5.89-3.922 5.89l-3.586 4.028-.297-.746s2.277-2.297 3.687-4.125c1.41-1.828 4.75-6.98 4.094-8.629 0 0-.48-1.281-2.957.383-2.473 1.664-5.789 4.637-5.789 4.637l-4.75 7.71-.223-.539 4.551-7.453-.816-.535-3.914 7.563zm0 0"/><path d="M15.535 12.434s4.215-3.477 4.95-2.883c.347.281.718.937-1.04 4.148-1.726 3.153-4.75 6.559-4.75 6.559l-1.113-.727-1.98 3.14-.274-.538s2.5-3.867 3.145-5.414c.64-1.547 1.062-4.285 1.062-4.285zm0 0"/></g></svg>