<svg xmlns="http://www.w3.org/2000/svg" width="30" height="30"><circle style="isolation:auto;mix-blend-mode:normal;solid-color:#000;solid-opacity:1;marker:none" cx="15" cy="15" r="14.5" color="#000" overflow="visible" fill="#00a19a" fill-rule="evenodd" stroke="#fff"/><g fill="#fff"><path d="M8.207 13.29H9.48v2.42H8.207zm0 0M20.5 13.29h1.27v2.42H20.5zm0 0M16.684 14.512c0-.899-.692-1.633-1.567-1.676V10.78h-.277v2.067c-.828.105-1.45.832-1.442 1.683.012.856.653 1.567 1.485 1.649v1.996h.277v-1.992c.86-.063 1.524-.793 1.524-1.672zm-1.641.836a.829.829 0 01-.82-.836.83.83 0 01.82-.84.83.83 0 01.82.84c0 .46-.367.836-.82.836zm0 0"/><path d="M7 10v9h16v-9zm1.125 1.8c1.36.137 2.398 1.305 2.398 2.7 0 1.395-1.039 2.563-2.398 2.7zm-.445-1.105h.254v7.61H7.68zm.882 7.61c1.766-.332 3.102-1.91 3.102-3.805 0-1.895-1.336-3.473-3.101-3.805h12.789c-1.762.332-3.098 1.91-3.098 3.805 0 1.895 1.336 3.473 3.098 3.805zm13.293-1.102c-1.39-.101-2.464-1.281-2.464-2.703s1.074-2.602 2.464-2.703zm.465 1.102h-.273V10.78h-.024v-.086h.297zm0 0"/></g></svg>