<svg xmlns="http://www.w3.org/2000/svg" width="11" height="8" viewBox="0 0 11 8"><path d="M10.246 0H.754C.336 0 0 .352 0 .785v6.43C0 7.648.336 8 .754 8h9.492c.418 0 .754-.352.754-.785V.785C11 .352 10.664 0 10.246 0zM5.273 4.848a.858.858 0 01-.613-.832c0-.391.25-.73.613-.836zm.485-1.657c.344.118.574.45.574.825 0 .37-.23.703-.574.82zM.484 7.215V5.863c.036.004.07.008.106.008h.926a.598.598 0 00.586-.61V2.77a.595.595 0 00-.586-.606H.59c-.035 0-.07 0-.106.008V.785c0-.156.121-.281.27-.281h4.52v2.16c-.633.113-1.098.684-1.098 1.352 0 .664.465 1.234 1.097 1.347v2.133H.753a.275.275 0 01-.269-.281zm.004-1.953V2.77a.1.1 0 01.102-.102h.926c.054 0 .101.047.101.102v2.492a.104.104 0 01-.101.105H.59a.102.102 0 01-.102-.105zm9.758 2.234H5.758v-2.14c.617-.13 1.062-.692 1.062-1.34 0-.653-.445-1.215-1.062-1.344V.504h4.488c.149 0 .27.125.27.281v1.387c-.036-.004-.07-.008-.106-.008h-.926a.595.595 0 00-.586.606v2.492c0 .336.262.61.586.61h.926c.035 0 .07-.005.106-.009v1.352a.275.275 0 01-.27.281zm.266-4.726v2.492a.104.104 0 01-.102.105h-.926a.102.102 0 01-.101-.105V2.77a.1.1 0 01.101-.102h.926c.055 0 .102.047.102.102zm0 0" fill="#4d4d4d"/></svg>