<svg xmlns="http://www.w3.org/2000/svg" width="8" height="11" viewBox="0 0 8 11"><path d="M4.902 9.555c0 .472-.398.855-.89.855-.489 0-.887-.383-.887-.855 0-.47.398-.852.887-.852.492 0 .89.383.89.852zm3 .847l-.343-.347-2.301-2.387V.457A.469.469 0 004.78.004h-.027a.463.463 0 00-.473.453v3.578h-.445V.457c0-.25-.211-.453-.473-.453h-.031a.463.463 0 00-.473.453v7.227L.695 9.848l-.593.57a.324.324 0 000 .473l.011.007a.354.354 0 00.492 0l.762-.73c.012-.012.024-.023.031-.035L3.426 8.21H4.69l2.082 2.043.614.621a.367.367 0 00.496.012l.008-.012a.324.324 0 00.011-.473zm0 0" fill="#4d4d4d"/></svg>