<svg xmlns="http://www.w3.org/2000/svg" width="30" height="30"><circle style="isolation:auto;mix-blend-mode:normal;solid-color:#000;solid-opacity:1;marker:none" cx="15" cy="15" r="14.5" color="#000" overflow="visible" fill="#00a19a" fill-rule="evenodd" stroke="#fff"/><path d="M16.41 13.363c.207-1.91 2.965-4.996 4.067-6.16a.623.623 0 01.902-.015l1.418 1.402c.258.254.273.68.031.95-1.015 1.144-3.668 3.894-6 4.292-.176.031 4.348-4.91 4.242-4.84-1.285.84-4.66 4.371-4.66 4.371zM8.902 9.047c-.07-.113 4.7 4.566 4.672 4.383-.406-2.434-3.066-5.18-4.168-6.23a.622.622 0 00-.906.042l-1.328 1.5a.697.697 0 00.023.942c1.125 1.136 4.106 3.992 5.934 4.187 0 0-3.41-3.492-4.227-4.824zm7.758 5.012l-.41-.43-5.938 6.172-.175-.164-.235.277.16.145-2.374 2.472.406.426 2.406-2.496.191.184.235-.278-.176-.168zm-2.894-.407l-.414.422.93 1 .398-.433zm6.046 6.52l.204-.242-.262-.246-.188.222-3.91-4.21-.41.425 3.934 4.234-.16.188.265.246.14-.168 2.423 2.375.37-.433zm0 0" fill="#fff"/></svg>