<svg xmlns="http://www.w3.org/2000/svg" width="10" height="8" viewBox="0 0 10 8"><g fill="#4d4d4d"><path d="M.758 4.527a.907.907 0 01.07-.152l-.094-.121a.543.543 0 01-.093-.418.515.515 0 01.238-.348l.195-.117a.463.463 0 01.399-.043.497.497 0 01.297.285l.011.028.168.316c.067.035.235.11.606.191.207.043.418.067.629.063.168 0 .332-.012.496-.031L3.629 4a.726.726 0 01.05-.504l.075-.144c.09-.18.25-.305.441-.344l.438-.098a.77.77 0 01.133-.015c.261 0 .5.167.597.425l.024.059a.71.71 0 01.004.5l-.102.27c.07.078.129.156.188.23.078.039.156.082.238.125.488.258 1.098.578 1.496.715.219.074.55.133.902.195.293.055.594.106.88.18.007-.114-.005-.2-.04-.219.211-.707-1.676-1.328-2.39-1.84-.454-.324-1.083-.969-1.547-1.418-.07-.187-.13-.355-.25-.515L4.75 1.59l.34-.461a.287.287 0 00.055-.195L5.137.87a.267.267 0 00-.239-.246l-.445-.04a.256.256 0 00-.21.083l-.106.117a.276.276 0 00-.074.188l-.008.644c-.407-.035-1.067-.133-1.633-.465C1.73.746 1.68.504 1.66.508l-.047-.41A.11.11 0 001.566.02a.09.09 0 00-.082-.016l-.222.055a.105.105 0 00-.07.058.119.119 0 00-.004.09l.164.426c-.145.086-.301.234-.422.48-.063.125-.262.7-.41 1.168-.051.156-.098.301-.13.41l-.003.024H.383C.055 2.66-.102 3.96.074 4.148c.028.028.125.184.426.29zm0 0"/><path d="M9.879 7.04c-.012-1.173-1.961-1.247-2.785-1.524-.52-.18-1.301-.61-1.867-.907-.118-.156-.22-.3-.38-.418-.007-.003-.011-.003-.019-.003l.203-.547a.291.291 0 000-.2l-.023-.062a.262.262 0 00-.297-.164l-.438.098a.26.26 0 00-.18.14l-.07.145A.294.294 0 004 3.797l.172.617c-.402.09-1.059.18-1.695.04-.606-.134-.793-.266-.852-.34-.105-.06-.207-.43-.207-.43a.106.106 0 00-.066-.063.11.11 0 00-.086.008l-.196.121a.101.101 0 00-.05.074.107.107 0 00.02.09l.269.36c-.11.124-.223.312-.274.585-.027.137-.062.75-.078 1.243-.008.164-.008.316-.012.43v.027c-.332.043-.129 1.125.09 1.253.031.016.172.137.488.153L3.086 8c.644.008.965-.223 1.867-.223 1.04 0 1.649.203 2.293.18l2-.184a1.59 1.59 0 00.195-.05c.723-.207.59-.653.438-.684zm0 0"/></g></svg>