<svg xmlns="http://www.w3.org/2000/svg" width="30" height="30"><circle style="isolation:auto;mix-blend-mode:normal;solid-color:#000;solid-opacity:1;marker:none" cx="15" cy="15" r="14.5" color="#000" overflow="visible" fill="#fff" fill-rule="evenodd" stroke="#00a19a"/><path d="M10.98 8.086c0 .598-.503 1.082-1.125 1.082-.617 0-1.12-.484-1.12-1.082 0-.602.503-1.086 1.12-1.086.622 0 1.125.484 1.125 1.086zm11.57 2.074h-7.48v.41h7.48zm-.945 11.8c-.257-.01-.511-.175-.804-.362-.434-.278-.922-.594-1.586-.52-.434.047-.746.266-1.05.473-.337.234-.657.453-1.169.441-.277-.008-.55-.172-.867-.355-.465-.278-.992-.586-1.723-.532-.418.036-.746.239-1.066.434-.356.215-.688.422-1.164.422-.293 0-.578-.168-.914-.363-.422-.25-.899-.528-1.48-.493-.419.028-.821.25-1.212.461-.367.204-.71.395-1.023.395a1.693 1.693 0 01-.543-.102l.008 1.032c.172.05.351.078.535.078.437 0 .86-.23 1.266-.457.355-.196.69-.38 1-.399.43-.027.8.192 1.195.418.363.215.742.438 1.168.438.613 0 1.047-.266 1.43-.5.289-.176.539-.332.84-.356.574-.047 1.007.211 1.425.457.348.207.707.418 1.113.43h.063c.637 0 1.047-.285 1.414-.535.27-.188.5-.348.805-.383.492-.055.863.188 1.257.441.332.211.672.43 1.063.446h.082c.531 0 1.008-.211 1.328-.399v-1.11c-.172.134-.746.524-1.39.5zm0-1.905c-.257-.012-.511-.172-.804-.364-.434-.277-.922-.593-1.586-.52-.434.048-.746.267-1.05.474-.337.234-.657.453-1.169.44-.277-.007-.55-.167-.867-.355a7.976 7.976 0 00-.188-.109s5.239-1.117 5.32-1.137c.466-.101 1.15-.82 1.15-.82.163-.137.335-.476.19-.633l-.101-.113c-.14-.117-.313-.16-.555.105l-.457.48a2.02 2.02 0 01-.273.192 1.577 1.577 0 01-.176.102l-.437.11-5.782 1.21s-.867-4.426-.906-4.472c-.043-.22-.133-.387-.324-.493l-1.649-.922a.79.79 0 00-.023-.132l-.605-2.364h2.789c.363 0 .668-.285.664-.636a.64.64 0 00-.649-.618H9.805a1.19 1.19 0 00-.875.747c.007.039-.125.328-.024.82 0 0 .656 2.629.66 2.64.032.227.13.454.348.575l2.7 1.508.894 3.761c-.059.035-.113.067-.168.102-.356.219-.688.422-1.164.422-.293 0-.578-.168-.914-.364-.422-.246-.899-.527-1.48-.488-.419.027-.821.246-1.212.461-.367.2-.71.39-1.023.39a1.693 1.693 0 01-.543-.1l.008 1.034c.172.047.351.074.535.074.437 0 .86-.23 1.265-.457.356-.19.692-.375 1-.398.43-.027.801.191 1.196.422.363.21.742.433 1.168.433.613 0 1.047-.265 1.43-.5.289-.175.539-.328.84-.355.574-.043 1.007.211 1.425.457.348.207.707.418 1.113.43h.063c.637 0 1.047-.285 1.414-.535.27-.188.5-.348.805-.383.492-.051.863.187 1.257.441.332.211.672.43 1.063.445h.082c.531 0 1.008-.21 1.328-.398v-1.11c-.172.133-.746.528-1.39.5zm0 0" fill="#4d4d4d"/></svg>