<svg xmlns="http://www.w3.org/2000/svg" width="30" height="30"><circle style="isolation:auto;mix-blend-mode:normal;solid-color:#000;solid-opacity:1;marker:none" cx="15" cy="15" r="14.5" color="#000" overflow="visible" fill="#00a19a" fill-rule="evenodd" stroke="#fff"/><path d="M21.285 9c-.515-.559-2.945-2.922-6.094-1.598-3.527 1.489-4.035 7.192-4.168 7.844-.125.617-.398 2.285-.804 2.816.148.243.453.606 1.043.942.785-.488 3.265-.766 4.633-1.059 2.78-.59 5.375-1.34 6.414-3.129 1.8-3.109-.418-5.16-1.024-5.816zm-2.758 2.703c.16 0 .285.121.285.27a.277.277 0 01-.285.273.276.276 0 01-.28-.273c0-.149.124-.27.28-.27zm-.28-1.015c0-.149.128-.27.284-.27.16 0 .285.121.285.27a.277.277 0 01-.285.273.28.28 0 01-.285-.273zm-1.74-.895a.28.28 0 01.286.273c0 .149-.129.27-.285.27a.276.276 0 01-.285-.27c0-.152.125-.273.285-.273zm-.667-.637a.28.28 0 01.285.274c0 .148-.129.27-.285.27-.156 0-.285-.122-.285-.27a.28.28 0 01.285-.274zm-2.356 8.102c-.82.785-2.078.797-2.152.734-.074-.062-.18-1.05.527-1.785.137-.145.125-.195.27-.305 0 0 .383-.062.82.192.434.254.52.59.52.59.05.222.082.511.015.574zm.274-3.008a.277.277 0 01-.285-.273c0-.149.125-.27.285-.27.156 0 .285.121.285.27a.28.28 0 01-.285.273zm0-1.293a.275.275 0 01-.281-.27c0-.152.125-.273.28-.273.161 0 .286.121.286.274 0 .148-.125.269-.285.269zm.027-1.297a.279.279 0 01-.281-.273c0-.149.125-.27.281-.27.16 0 .285.121.285.27a.28.28 0 01-.285.273zm.637 3.223c-.156 0-.285-.121-.285-.27a.28.28 0 01.285-.273.28.28 0 01.285.273c0 .149-.129.27-.285.27zm.012-1.281c-.157 0-.286-.122-.286-.27a.28.28 0 01.286-.273c.16 0 .285.12.285.273 0 .148-.125.27-.285.27zm.02-1.305a.282.282 0 01-.286-.274c0-.148.129-.27.285-.27.16 0 .285.122.285.27a.28.28 0 01-.285.274zm.026-1.3a.28.28 0 01-.285-.274c0-.149.13-.27.285-.27.16 0 .286.121.286.27a.277.277 0 01-.286.273zm.625 4.519a.28.28 0 01-.285-.274c0-.148.125-.27.285-.27.157 0 .282.122.282.27a.279.279 0 01-.282.274zm-.293-1.551c0-.149.13-.274.286-.274a.28.28 0 01.285.274c0 .148-.125.27-.285.27-.157 0-.286-.122-.286-.27zm.317-1.028c-.156 0-.285-.12-.285-.269 0-.148.129-.273.285-.273.156 0 .285.125.285.273 0 .148-.129.27-.285.27zm.02-1.304a.28.28 0 01-.286-.274c0-.148.13-.27.285-.27.157 0 .286.122.286.27a.28.28 0 01-.286.274zm.027-1.301c-.156 0-.285-.121-.285-.27a.28.28 0 01.285-.273.28.28 0 01.285.273c0 .149-.129.27-.285.27zm.594 5.82a.279.279 0 01-.282-.273c0-.149.125-.274.282-.274a.28.28 0 01.285.274.28.28 0 01-.285.273zm.011-1.285a.28.28 0 01-.285-.273c0-.149.129-.27.285-.27.156 0 .285.121.285.27a.28.28 0 01-.285.273zm.012-1.293a.28.28 0 01-.285-.273c0-.149.129-.27.285-.27.156 0 .285.121.285.27a.28.28 0 01-.285.273zm.031-1.297a.28.28 0 01-.285-.273c0-.149.129-.27.285-.27.156 0 .285.121.285.27a.28.28 0 01-.285.273zm.02-1.308c-.156 0-.285-.121-.285-.27a.28.28 0 01.285-.273.28.28 0 01.285.273c0 .149-.129.27-.285.27zm.605 4.535a.28.28 0 01-.285-.274c0-.148.129-.27.285-.27.156 0 .285.122.285.27a.28.28 0 01-.285.274zm.028-1.3c-.157 0-.286-.122-.286-.27a.28.28 0 01.286-.274.28.28 0 01.285.274c0 .148-.13.27-.285.27zm.011-1.294c-.156 0-.285-.12-.285-.27a.28.28 0 01.285-.273.28.28 0 01.285.274c0 .148-.128.27-.285.27zm.032-1.297c-.157 0-.286-.12-.286-.27a.28.28 0 01.286-.273.28.28 0 01.285.274c0 .148-.13.27-.285.27zm.605 4.535a.28.28 0 01-.285-.273c0-.148.129-.27.285-.27.156 0 .285.122.285.27a.28.28 0 01-.285.273zm.02-1.308c-.157 0-.286-.121-.286-.27a.28.28 0 01.286-.273.28.28 0 01.285.273c0 .149-.13.27-.285.27zm.027-1.297a.282.282 0 01-.285-.273c0-.149.129-.274.285-.274.156 0 .285.125.285.274a.282.282 0 01-.285.273zm.012-1.297c-.157 0-.286-.121-.286-.27a.28.28 0 01.286-.273.28.28 0 01.285.274c0 .148-.13.27-.285.27zm-.286-1.535c0-.152.125-.273.286-.273.156 0 .28.12.28.273 0 .148-.124.27-.28.27a.276.276 0 01-.286-.27zm.293-1.027a.276.276 0 01-.28-.274c0-.148.124-.27.28-.27.16 0 .286.122.286.27a.277.277 0 01-.286.274zm.63 5.8a.276.276 0 01-.286-.27c0-.151.125-.273.285-.273a.28.28 0 01.285.274c0 .148-.128.27-.285.27zm.019-1.304a.28.28 0 01-.285-.274.28.28 0 01.285-.273c.156 0 .285.125.285.273a.282.282 0 01-.285.274zm.027-1.301a.28.28 0 01-.285-.274c0-.148.129-.27.285-.27.156 0 .285.122.285.27a.28.28 0 01-.285.274zm-.305-1.535a.28.28 0 01.286-.274c.156 0 .28.125.28.274a.279.279 0 01-.28.273.28.28 0 01-.285-.273zm.305-1.016a.282.282 0 01-.285-.273c0-.149.129-.27.285-.27.16 0 .285.121.285.27a.28.28 0 01-.285.273zm.617 5.79c-.156 0-.285-.122-.285-.27a.28.28 0 01.285-.274.28.28 0 01.286.274c0 .148-.13.27-.286.27zm.032-1.298a.276.276 0 01-.286-.27.28.28 0 01.286-.273c.156 0 .28.125.28.274 0 .148-.124.27-.28.27zm.02-1.304a.277.277 0 01-.286-.274c0-.148.125-.27.285-.27.156 0 .281.122.281.27a.276.276 0 01-.28.274zm.042-3.868a.276.276 0 01-.281-.273c0-.148.125-.27.281-.27.16 0 .285.122.285.27a.277.277 0 01-.285.273zm.602 5.809a.277.277 0 01-.285-.273c0-.149.125-.27.285-.27.156 0 .285.121.285.27a.28.28 0 01-.285.273zm.027-1.297a.276.276 0 01-.281-.273c0-.149.125-.27.281-.27.16 0 .285.121.285.27a.277.277 0 01-.285.273zm-.297-1.55c0-.15.13-.27.285-.27.157 0 .285.12.285.27a.28.28 0 01-.285.273.28.28 0 01-.285-.274zm.305-1.02c-.156 0-.285-.121-.285-.27a.28.28 0 01.285-.273.28.28 0 01.285.273c0 .149-.129.27-.285.27zm.031-1.309a.276.276 0 01-.285-.27c0-.152.125-.273.285-.273.156 0 .281.121.281.274 0 .148-.125.27-.28.27zm.629 4.512a.277.277 0 01-.285-.273c0-.149.125-.27.285-.27.156 0 .281.121.281.27a.276.276 0 01-.281.273zm-.29-1.54c0-.148.13-.269.286-.269.156 0 .285.121.285.27a.28.28 0 01-.285.273.28.28 0 01-.285-.273zm.298-1.026c-.156 0-.285-.122-.285-.27a.28.28 0 01.285-.273.28.28 0 01.285.273c0 .148-.129.27-.285.27zm.043-1.313a.282.282 0 01-.285-.273c0-.149.129-.27.285-.27.16 0 .285.121.285.27a.28.28 0 01-.285.273zm.61 3.246c-.157 0-.286-.12-.286-.27a.28.28 0 01.285-.273.28.28 0 01.285.274c0 .148-.129.27-.285.27zm.023-1.289c-.157 0-.286-.121-.286-.27a.28.28 0 01.286-.273.28.28 0 01.285.274c0 .148-.13.27-.285.27zm.035-1.32a.282.282 0 01-.285-.274c0-.148.128-.27.285-.27.156 0 .285.122.285.27a.282.282 0 01-.285.274zm-9.5 7.582c-.551.484-3.16 2.96-3.285 3.11-.133.16-.387.734-.637.75-.25.019-1.172-.524-1.172-1.118 0-.273.504-.398.805-.605.093-.067 2.824-2.637 3.27-3.06.163.255.468.599 1.019.923zm9.789 1.676c0 1.156-.957 2.101-2.168 2.14-1.211.04-2.235-.844-2.317-1.996-.082-1.152.809-2.16 2.012-2.277-.117.215-.37.57-.926 1.086-.55.508-.84 1.09-.808 1.636.02.407.226.786.562 1.032.317.234.746.363 1.172.363.192 0 .38-.027.563-.078.468-.137.8-.43.937-.824.082-.243.16-.508.235-.766.14-.477.293-1 .476-1.324.172.308.262.656.262 1.008zm-2.246-2.141c.75 0 1.445.352 1.863.945-.223.336-.383.887-.55 1.461-.075.254-.153.52-.231.758-.117.332-.403.582-.805.7-.523.152-1.144.05-1.55-.25a1.19 1.19 0 01-.489-.895c-.027-.489.238-1.016.746-1.489.652-.597.914-1 1.016-1.23zm0 0" fill="#fff"/></svg>