<svg xmlns="http://www.w3.org/2000/svg" width="30" height="30"><circle style="isolation:auto;mix-blend-mode:normal;solid-color:#000;solid-opacity:1;marker:none" cx="15" cy="15" r="14.5" color="#000" overflow="visible" fill="#fff" fill-rule="evenodd" stroke="#00a19a"/><g fill="#4d4d4d"><path d="M8.563 15.105c-.79 0-1.43.649-1.43 1.45 0 .797.64 1.445 1.43 1.445.789 0 1.43-.648 1.43-1.445 0-.801-.641-1.45-1.43-1.45zm0 2.317a.863.863 0 01-.856-.867c0-.48.383-.871.855-.871.473 0 .86.39.86.87a.866.866 0 01-.86.868zm0 0M16.73 15.105c-.789 0-1.425.649-1.425 1.45 0 .797.636 1.445 1.425 1.445.79 0 1.43-.648 1.43-1.445 0-.801-.64-1.45-1.43-1.45zm0 2.317a.863.863 0 01-.855-.867c0-.48.383-.871.855-.871.477 0 .86.39.86.87a.864.864 0 01-.86.868zm0 0M6.738 17.598h.367a1.811 1.811 0 01-.324-1.157c.012-.226.07-.453.168-.66H6zm0 0"/><path d="M15.34 14.965c-.078-.067-.281-.05-.543-.031-.258.02-1.129.156-1.129.156l-.996-.434 1.742.098.078-.152c.09.062.235.093.305.02l.512-.52.582.355.488.316.328-.027a1.774 1.774 0 011.613.984 1.82 1.82 0 01-.152 1.899L23 17.62l-.023-.594H21.16l-.254-.183 1.992.004-.832-.73-1.609.038-.39-.336 1.68-.039-5.134-2.922.102 1.426-.973-.625.461-.465a.235.235 0 00.063-.172.22.22 0 00-.086-.16.221.221 0 00-.29.028l-.523.53-.058.06-.278.28a.376.376 0 00-.16-.007c-.078.02-.41.281-.41.281s-.059.008-.328-.004c-.266-.015-2.84-.336-3.055-.441a.43.43 0 01-.21-.195l1.093-.102-.207-.79h-.117c-.157-.003-.426-.007-.473-.01-.652-.087-1.16-.329-1.133-.544.028-.215.578-.32 1.23-.238.012.004.176.012.188.016-.18-.422-.742-.727-1.226-.727-.551 0-1.028.387-1.145.934a1.187 1.187 0 00.656 1.328l-.011.02-.22.585s-.46-.754-.675-.793c-.16-.027.219.957 0 1.028-.316.105-1.484-.028-1.496 0-.11.257-.336.746-.457.988-.02.039-.875 0-.875 0v.574h.95c.284-.488.89-.91 1.59-.918a1.775 1.775 0 011.605.969c.312.605.261 1.34-.133 1.894l5.281.012a1.814 1.814 0 01.297-2.453zm0 0"/></g></svg>