<svg xmlns="http://www.w3.org/2000/svg" width="30" height="30"><circle style="isolation:auto;mix-blend-mode:normal;solid-color:#000;solid-opacity:1;marker:none" cx="15" cy="15" r="14.5" color="#000" overflow="visible" fill="#00a19a" fill-rule="evenodd" stroke="#fff"/><g fill="#fff"><path d="M10.004 7h8.992v.77h-8.992zm0 0M18.527 14.148V8.066h-7.965v6.082h-.007V23h.78v-8.086h.981V23h.305v-.734h1.602V23h.304v-8.086h3.22V23h.784v-8.852zm-4.304 7.891H12.62v-.844h1.602zm0-1.07H12.62v-.848h1.602zm0-1.074H12.62v-.844h1.602zm0-1.07H12.62v-.845h1.602zm0-1.071H12.62v-.848h1.602zm0-1.074H12.62v-.844h1.602zm0-1.07H12.62v-.696h1.602zm-3.055-4.715v-1.81h6.766v1.81zm0 0"/></g></svg>