<svg xmlns="http://www.w3.org/2000/svg" width="30" height="30"><circle style="isolation:auto;mix-blend-mode:normal;solid-color:#000;solid-opacity:1;marker:none" cx="15" cy="15" r="14.5" color="#000" overflow="visible" fill="#00a19a" fill-rule="evenodd" stroke="#fff"/><g fill="#fff"><path d="M17.469 9.7c1.207-1.009 2.543-.677 3.867-.47 2.723.426 1.684 2.457-.129 3.786l-8.676 6.558c-1.226.887-4.687.426-5.914-.46-1.226-.887-.445-1.372.781-2.259 0 0 8.86-6.152 10.07-7.156zm0 0M15.652 19.781c0 .668-.359 1.211-.808 1.211-.446 0-.805-.543-.805-1.21 0-.673.36-1.216.805-1.216.449 0 .808.543.808 1.215zm0 0M21.996 14.844c0 .672-.36 1.215-.808 1.215-.446 0-.81-.543-.81-1.215 0-.668.364-1.211.81-1.211.449 0 .808.543.808 1.21zm0 0"/></g></svg>