<svg xmlns="http://www.w3.org/2000/svg" width="30" height="30"><circle style="isolation:auto;mix-blend-mode:normal;solid-color:#000;solid-opacity:1;marker:none" cx="15" cy="15" r="14.5" color="#000" overflow="visible" fill="#fff" fill-rule="evenodd" stroke="#00a19a"/><g fill="#4d4d4d"><path d="M17.383 16.016l.012-6.254h.015V7.18a.177.177 0 00-.058-.137.18.18 0 00-.141-.035L9.76 8.547a.168.168 0 00-.132.168v7.394a.172.172 0 01-.082.149.171.171 0 01-.168.004 2.49 2.49 0 00-1.168-.282C6.988 15.98 6 16.812 6 17.836c0 1.023.988 1.855 2.21 1.855.981 0 1.813-.539 2.103-1.285 0 0 .035-.101.042-.125.043-.144.063-.293.063-.445 0-.152-.074-6.383-.074-6.383 0-.137.094-.254.222-.281l5.872-1.211a.166.166 0 01.14.035c.04.035.063.082.063.133v4.004c-.004.39-.067.398-.395.262a2.738 2.738 0 00-1.074-.235c-1.219 0-2.207.832-2.207 1.856 0 1.027.988 1.855 2.207 1.855 1.223 0 2.21-.828 2.21-1.855zm0 0M22.813 15.613c-.34-.73-1.961-1.941-2.336-2.246l-.008-.414c-.004-.023-.067-.426-.446-.437h-.027a.424.424 0 00-.45.421v6.547a.146.146 0 01-.073.13.13.13 0 01-.141 0 2.529 2.529 0 00-1.262-.333c-1.218 0-2.21.832-2.21 1.86 0 1.023.992 1.855 2.21 1.855 1.047 0 1.922-.613 2.153-1.433l.039-.18c.011-.082.02-.164.02-.242l-.02-6.223c.574.152 1.715.844 1.843 1.996.114.996-1.242 2.34-.855 2.18 2.125-.88 1.832-2.907 1.563-3.48zm0 0"/></g></svg>