<svg xmlns="http://www.w3.org/2000/svg" width="10" height="10" viewBox="0 0 10 10"><g fill="#4d4d4d"><path d="M5.48 9.645l2.727-5.723c.008-.012-.055-.035-.05-.047a6.368 6.368 0 01-.298-.219L5.242 8.16a.173.173 0 01-.031.043.37.37 0 01-.36.164.382.382 0 01-.308-.254.422.422 0 01.074-.406c.004-.008.008-.02.016-.027L7.676 3.5a5.481 5.481 0 01-.309-.297L3.93 7.188a.205.205 0 01-.043.039.366.366 0 01-.383.09.39.39 0 01-.254-.313.413.413 0 01.14-.383l.024-.023L7.2 3.023a7.001 7.001 0 01-.148-.175l-.164-.211L2.96 6.109a.173.173 0 01-.043.032.364.364 0 01-.39.035.39.39 0 01-.216-.344.4.4 0 01.192-.36l.023-.023 4.215-3.02a6.95 6.95 0 01-.199-.312L2.09 4.543c-.016.008-.031.016-.05.02a.36.36 0 01-.388-.055.393.393 0 01-.136-.383.382.382 0 01.261-.309.063.063 0 01.028-.015l4.617-1.906a4.091 4.091 0 01-.156-.325c-.012 0-.02-.07-.036-.066L.46 3.41a.389.389 0 00-.19.137c-.106.133-.274.383-.266.586.008.297.457.543.523.828.137.57-.41.77-.18 1.305.235.53.473.265.704.671.23.403-.207.583.164 1.07.375.49.781.196 1.137.552.277.28.171.617.605.836.3.152.61-.31 1.11-.04.472.258.335.602.648.641.207.027.457-.09.601-.172a.428.428 0 00.164-.18zm0 0M8.398 3.703l.465-.418c-.46-.27-.71-.57-1.129-1.082-.375-.46-.582-.781-.77-1.254l-.5.399c.184.492.4.836.79 1.316.394.484.707.77 1.144 1.04zm0 0M9.645.602C9.085-.086 8.273-.34 7.28.688a5.534 5.534 0 001.895 2.277c.957-.781 1.031-1.68.469-2.363zm0 0"/></g></svg>