<svg xmlns="http://www.w3.org/2000/svg" width="30" height="30"><circle style="isolation:auto;mix-blend-mode:normal;solid-color:#000;solid-opacity:1;marker:none" cx="15" cy="15" r="14.5" color="#000" overflow="visible" fill="#00a19a" fill-rule="evenodd" stroke="#fff"/><path d="M22.66 14.113a2.078 2.078 0 00-.125-.304l.184-.094c-.051-.106-.11-.211-.176-.309l-.172.117a3.23 3.23 0 00-.2-.257l.153-.145a3.774 3.774 0 00-.254-.246l-.132.16a2.98 2.98 0 00-.262-.191l.11-.18a3.024 3.024 0 00-.313-.172l-.086.195a2.177 2.177 0 00-.301-.117l.059-.203a3.627 3.627 0 00-.344-.078l-.031.211a2.27 2.27 0 00-.325-.027l.004-.211a2.146 2.146 0 00-.355.02l.027.206a2.22 2.22 0 00-.32.067l-.051-.207c-.055.015-.11.035-.164.05l-.004.004c-.055.02-.11.04-.164.063l.078.195c-.058.024-.117.05-.172.082l-.789-1.074c.41-.488 1.977-.637 1.922-.676-.52-.363-1.809-.148-1.809-.148l-.511-.805-.875-.223-.094.239s-.543-.809-.715-.95c-.297-.25-1.765.024-1.765.024l.113.723 1.164-.067.531.735-.332.214c-1.773 0-2.777 1.59-2.777 1.59s-.367.184-1.067.367c-.695.18-5.28.625-5.28.625s-.126.235.112.516c.235.285 1.164.29 2.215.434 1.305.175 1.14.539 1.793.738.649.2 1.387.004 1.387.004l.273.648-1.05.758a1.912 1.912 0 00-.145-.102l.11-.18a2.406 2.406 0 00-.313-.167l-.082.191a2.438 2.438 0 00-.305-.117l.059-.2a2.178 2.178 0 00-.344-.077l-.031.207a2.27 2.27 0 00-.324-.028l.003-.21c-.117 0-.238.003-.351.019l.023.21a2.158 2.158 0 00-.316.063l-.055-.203c-.054.016-.11.032-.164.051-.058.02-.113.04-.168.063l.078.195a2.885 2.885 0 00-.289.148l-.105-.183c-.102.062-.2.129-.29.203l.126.168a2.12 2.12 0 00-.239.222L8.5 16.54c-.082.086-.156.18-.227.277l.168.125c-.062.09-.12.18-.171.278l-.184-.098a3.091 3.091 0 00-.145.328l.196.07c-.04.106-.07.211-.094.32l-.203-.046a2.686 2.686 0 00-.05.355l.206.016a2.37 2.37 0 00-.008.332l-.203.012c.004.12.02.238.043.355l.203-.039c.02.11.047.215.082.317v.004l-.195.066c.035.113.082.226.133.332l.187-.094c.047.098.102.196.164.285l-.172.121c.067.098.141.192.22.282l.152-.145c.074.082.152.16.234.23l-.133.16c.09.079.188.15.285.216l.11-.18c.093.059.187.11.285.156l-.082.192c.105.05.215.09.328.125l.059-.204c.105.032.21.06.316.075l-.031.207c.117.02.234.031.351.031l.004-.21c.11 0 .215-.005.324-.017l.024.207c.117-.015.234-.039.347-.066l-.054-.207c.05-.012.105-.027.156-.047.05-.015.102-.035.152-.058l.078.195c.11-.047.215-.098.317-.16l-.106-.184a2.52 2.52 0 00.27-.183l.125.164c.094-.075.18-.157.262-.243l-.149-.144c.074-.082.145-.164.207-.254l.168.125c.07-.098.133-.2.188-.305l-.184-.101a2.62 2.62 0 00.137-.301l.191.074c.043-.113.074-.226.102-.344l-.203-.046c.023-.11.043-.22.05-.329l.208.02c.007-.121.011-.242.003-.36l-.207.008a1.674 1.674 0 00-.02-.191l2.516-1.805 1.458-.472s.175-1.418.234-1.801c.058-.387.66-1.324.66-1.324l.11-.153.64.848c-.004.004-.004.008-.008.012l.04.027.1.137a1.842 1.842 0 00-.144.238l-.183-.098a2.65 2.65 0 00-.145.325l.192.074c-.036.105-.067.21-.09.316l-.203-.043a2.686 2.686 0 00-.051.356l.203.015c-.008.11-.008.223-.004.332l-.207.012c.008.121.023.238.043.356l.203-.04c.024.106.05.215.082.317l.004.004-.195.066c.035.113.082.223.133.332l.187-.094c.047.098.102.192.164.286l-.172.117c.067.101.14.195.219.285l.152-.145c.075.082.153.16.235.23l-.133.161c.09.078.184.148.285.211l.11-.176c.09.059.187.11.285.156l-.086.192c.109.047.218.09.332.125l.058-.203c.102.031.211.054.317.074l-.032.207c.118.02.235.027.352.031l.004-.21c.105 0 .215-.005.324-.02l.024.21c.117-.015.23-.038.347-.07l-.054-.203c.05-.015.101-.027.152-.047l.156-.058.078.195a3 3 0 00.317-.16l-.106-.184c.094-.054.184-.117.266-.187l.129.168c.093-.074.18-.156.261-.242l-.148-.145a3.1 3.1 0 00.207-.254l.168.121c.07-.093.133-.195.188-.3l-.184-.102c.05-.098.098-.2.133-.3l.195.073c.04-.113.074-.23.102-.343l-.204-.047c.024-.11.04-.219.051-.328l.203.02a2.82 2.82 0 00.008-.364l-.207.012a3.13 3.13 0 00-.039-.329l.203-.039a3.49 3.49 0 00-.09-.347l-.004-.004zm-11.805 5.598a1.405 1.405 0 01-1.789-.902c-.25-.75.145-1.567.883-1.825a1.408 1.408 0 011.79.903c.25.754-.15 1.57-.884 1.824zm10.047-3.469a1.403 1.403 0 01-1.785-.902c-.25-.754.145-1.57.883-1.824a1.405 1.405 0 011.79.902c.25.754-.15 1.57-.888 1.824zm0 0" fill="#fff"/></svg>