<svg xmlns="http://www.w3.org/2000/svg" width="30" height="30"><circle style="isolation:auto;mix-blend-mode:normal;solid-color:#000;solid-opacity:1;marker:none" cx="15" cy="15" r="14.5" color="#000" overflow="visible" fill="#fff" fill-rule="evenodd" stroke="#00a19a"/><g fill="#4d4d4d"><path d="M16.742 9.102c.063.039.13.074.176.101.023.016.047.027.062.04l2.418.112.133-.05c.086-.059.27-.2.38-.336l-.016-.266c-1.625-1.48-4.278-1.687-4.508-1.7a.919.919 0 00-.235.075l-.191.387c-.02.058-.035.113-.05.172l1.581 1.328c.028.015.14.078.25.137zm0 0M18.207 15.059h.016l2.332.066a694.63 694.63 0 001.113-2.363c-.004-.075-.016-.328-.027-.461a97.987 97.987 0 00-1.907-2.602l-2.793-.183c-.125.242-.62 1.25-.894 1.804v.782l2.125 2.918zm0 0M7.023 12.277c.079 0 .239.008.364.032.554-.368 1.52-.957 1.918-1.2.066-.058.125-.125.18-.195.046-.082.628-1.148.835-1.875.047-.16-.03-.332-.226-.512a.311.311 0 00-.063-.03l-.418-.028C9.207 8.73 8.477 9.234 8 9.746c-.508.547-1.016 1.488-1.227 1.895l.125.457zm0 0M10.594 8.344c.078.004.156.015.23.027h.008c.328-.195 1.2-.531 1.684-.7.46-.16 1.754-.25 2.101-.245.082-.051.14-.227.168-.38-.594-.003-2.117.009-2.707.184a7.385 7.385 0 00-1.988.918l.015.051c.157.059.32.11.489.145zm0 0M9.406 11.379c-.465.34-1.531.992-1.98 1.27-.082.081-.172.187-.227.246a11.53 11.53 0 00-.183.675c-.168.72-.098 1.684-.055 2.262l.012.117c.015.094.03.168.039.223l.273.32c.235.16.79.653 1.02.86.187.168.379.34.52.472.105.098.167.156.202.196l.536.007c.082-.05.171-.109.269-.172l1.527-1.011.114-.25.05-3.707c-.003-.008-.011-.016-.015-.024l-1.832-1.449c-.09-.02-.18-.027-.27-.035zm0 0M11.992 12.57a.424.424 0 00.07.004l3.497-.87.957-2.15a1.193 1.193 0 00-.094-.273l-1.899-1.504h-.007c-.414.032-1.36.106-1.653.149-.187.023-.73.226-1.492.55a9.684 9.684 0 01-.293.13l-.238.101-.106.227c-.086.312-.453 1.277-.867 1.925.055.145.121.32.153.434.28.2.55.39.78.562.427.31.727.54.915.704l.277.011zm0 0M20.176 9.617h-.035l.011.086c.09.094.172.211.27.344l.148.195c.434.57 1.29 1.801 1.38 1.961l.241.309.043-.008.215-.297c-.168-.414-.48-1.145-.828-1.68-.398-.617-.8-.996-1.078-1.207l-.438-.011.036.296zm0 0M6.547 16.516c.062-.07.148-.164.172-.196v-.02c-.07-.386-.223-1.491-.121-2.109 0-.011.199-1.222.34-1.52l-.344-.394c-.04.004-.078.008-.117.016A5.49 5.49 0 006 14.535c.012.883.195 1.899.262 2.227.105-.07.203-.153.285-.246zm0 0M15.516 17.945l.355-.332 1.863-2.336.02-.172-2.047-2.972-.07-.04-3.508.88c-.024.035-.047.066-.07.097l-.106.137c-.047.61-.129 2.16-.187 3.457l.136.125zm0 0M15.8 20.992c.087-.129.278-.433.38-.594l-.543-1.796a2.191 2.191 0 01-.258-.403l-3.676-1.015-.23.011c-.246.125-.782.45-1.477.883l-.281.188-.203.37c.039.153.082.305.125.454.328.742.504 1.336.578 1.629l.129.203c.32.234.656.45 1.011.64.645.266 1.418.45 2.172.512 0 0 .047 0 .254-.082l1.961-.969zm0 0M21.754 18.156l-.004.004c-.043.074-.156.238-.48.656a36.11 36.11 0 01-.305.434c-.504.703-.95 1.113-1.238 1.332-.16.27-.239.484-.301.656-.02.063-.043.121-.067.18.004.023.004.047.008.066.184-.101.465-.293.797-.57.363-.305 1.04-.926 1.516-1.691.34-.555.507-.875.59-1.055l-.016-.012zm0 0M9.82 20.547a14.096 14.096 0 01-.457-1.371c-.054-.121-.11-.242-.164-.356a2.98 2.98 0 00-.34-.539 67.692 67.692 0 01-1.785-1.593c-.035-.016-.078-.008-.12 0-.024.003-.044.007-.063.007a.905.905 0 00-.266.164c-.082.067-.195.211-.246.274.082.375.379 1.226 1 2.195.437.676.89 1.125 1.195 1.387.14.117.29.23.446.328l.308-.035.336-.098c.043-.105.11-.258.156-.363zm0 0M22.746 13.02a.29.29 0 00-.172-.153l-.398-.023c-.02 0-.043.008-.067.011a5.49 5.49 0 00-.445.743c-.398.832-.555 1.254-.578 1.347.062.309.121.543.172.75.043.164.074.305.105.45.035.113.313 1.207.371 1.601l.075.043c.101 0 .203-.004.3-.02l.461-.273c.012-.012.02-.027.032-.039.265-.355.316-.57.359-.852.059-.882.09-3.003-.215-3.585zm0 0M21.035 18.652c.164-.238.297-.433.383-.566l.02-.23c-.043-.098-.094-.34-.192-.817-.082-.39-.172-.836-.234-1.004a2.25 2.25 0 00-.2-.351 48.604 48.604 0 01-.261-.23l-2.34-.122h-.016l-.336.242-1.949 2.446a1.009 1.009 0 00-.008.359l.012.078.738 2.074.086.074 2.785-.253zm0 0M13.21 22.414c-1.273-.219-2.093-.605-2.558-.89a3.134 3.134 0 01-.37-.258l-.387-.063-.403.219c.192.168.555.469.973.715.195.11.402.199.617.27.707.222 2 .421 2.606.503l.027-.152-.059-.082c-.117-.074-.3-.18-.445-.262zm0 0M16.492 20.98l-.191.079-.45.218c-.566.309-1.343.711-1.847.922-.008.07-.016.156-.027.235.015.062.03.117.05.171.02.063.047.125.075.188l.27.203c.702-.008 2.437-.105 3.972-.8.062-.028.164-.102.308-.305l.172-.278c.055-.09.106-.191.156-.297.094-.191.172-.375.227-.511a.548.548 0 00-.07-.047zm0 0"/></g></svg>