<svg xmlns="http://www.w3.org/2000/svg" width="11" height="10" viewBox="0 0 11 10"><path d="M10.813.383c.007-.078.035-.082 0-.149-.13 0-.196-.113-.325-.148-.125-.035-.285.02-.37-.086-.044.082-.141.105-.259.066-.03.176-.27.164-.254.383-.043-.004-.074.004-.093.02-.016.066.062.043.047.11-.02.058-.118.046-.118.124.141.043.145.211.188.344.14.047.176.191.324.234-.187.063-.344.153-.348.383.504.227.536-.55 1.07-.426.106-.226.36-.422.208-.703.031-.055.117-.05.117-.129-.055-.011-.168.028-.188-.023zM3.186 8.059c-.101-.012-.097.07-.187.062-.11-.035-.117-.16-.164-.254-.094-.015-.078.067-.184.043-.07-.031-.097-.098-.14-.148-.215.039-.262-.074-.371-.13-.043.036-.051.098-.118.106-.222-.086-.25.184-.488.086-.078.242-.281.38-.582.364-.008.128.156.097.188.19.039.188-.075.231-.094.364.078.117.133.293.164.512.117-.004.14.082.184.148.125-.015.203.012.234.086.023.114-.047.14-.047.235.11-.051.195-.121.348-.13.101.071.172.173.394.13a.178.178 0 01.117-.13c.07.028.063.13.164.13.079-.043-.039-.243.118-.258.097-.004.07.105.183.086a.345.345 0 000-.235c.153-.086.188.106.281.063 0-.09-.117-.078-.117-.168.106-.133-.035-.383.118-.492.101-.047.437.066.578-.043-.465.117-.836-.262-.579-.617zm6.649-6.075v-.086c-.129-.039-.11-.023-.23.043-.09-.062-.149-.015-.235-.066-.039.094-.105.16-.277.129-.082.176-.305.308-.305.535.004.117.137.234.047.34-.383-.371-1.297.02-1.766-.106.059-.168.149-.304.207-.468.09-.024.192-.114.118-.215-.313.098-.305.488-.63.574-.124-.129-.265-.164-.417-.297-.016-.312-.18-.469-.301-.66-.05-.082-.031-.195-.164-.191a.113.113 0 01-.07.062c-.016.125.066.152.046.277-.238.122-.64-.03-.906-.148-.027.133.055.164.047.277-.242.114-.395-.05-.629.043-.129-.074-.176-.222-.348-.257-.156-.122-.175-.364-.37-.446-.008.145.07.16.136.254.078.106.152.293.234.383.106.121.243.16.235.277-.016.16-.219.172-.375.258-.145.59-.88.406-1.395.254.301.145.696.203.953.383-.171.129-.332.265-.441.449-.137-.008-.172-.113-.348-.086-.023.117.125.086.16.149-.359.078-.507-.211-.906-.149-.004-.031-.039-.035-.047-.062-.015-.079.051-.082.047-.149-.101-.074-.183-.172-.16-.3-.168-.07-.305-.16-.328-.364-.113-.016-.063.113-.184.086-.066-.176-.18-.059-.351-.129-.028.035-.028.09-.07.11-.25-.055-.25.12-.395.167-.156-.05-.23-.167-.418-.105.008.117.219.043.254.129-.082.2-.145.418-.254.598.098.054.152.18.094.32.144.121.289.262.347.402.086.016.09-.047.164-.043.07.047.145.098.16.192.227-.11.481-.098.723-.149.04-.027.008-.12.047-.148a.651.651 0 00.188-.043c.058-.028-.024-.106.023-.106.317.04.817-.004 1.067.192.074.23.128.457 0 .683-.04.024-.153-.02-.254 0-.059-.02-.04-.109-.118-.109-.406.07-.687.254-.812.578.023.113.043.227.047.36.11.21.36.296.512.468.046-.086.222-.07.3-.02.262-.12.52-.25.606-.53.347 0 .36.308.582.425-.067.317-.172.598-.258.895.172-.125.234-.387.281-.684.094-.023.16-.078.254-.105.059.054.156.07.164.172 0 .078-.086.078-.094.148.27-.027.704-.05.676.34.133.039.086-.09.184-.086.222.148.27.754.14.96-.14-.16-.12-.41-.394-.382-.274.027-.324.387-.14.598.238.07.449.21.581-.043.246.195.09.68-.14.808-.094.02-.188.04-.207.13.015.003.023.015.023.042.082.043.25.012.371.02.063.105.153.187.16.34-.062.07-.261.128-.207.234.063-.106.313-.137.442-.063.008.079.031.145.047.215.168.055.3.196.511.149.059.066.032.21.117.254.133.011.094-.141.231-.125.055.062-.023.246.117.234.094-.027.05-.18.117-.234.192-.047.305.004.489 0 .027.03.027.086.07.105.012-.039-.07-.09 0-.105.098 0 .101.09.23.062 0-.09-.046-.156 0-.234.446-.024.489-.418.723-.64.285-.048.473.105.649.085-.083-.043-.215-.043-.254-.129.046-.055.168-.078.117-.168-.149-.008-.196.078-.281.125-.075-.043-.223-.023-.254-.105-.028-.16.078-.2.136-.278-.015-.101-.093-.152-.09-.277.016-.086.168-.043.16-.148-.003-.086-.152-.047-.206-.086-.032-.157.011-.172.023-.32-.16-.04-.297-.098-.281-.298-.184-.023-.34-.07-.324-.277-.043-.055-.153-.043-.188-.105.027-.008.082-.094.024-.11-.051.13-.32.035-.395-.02-.09.016-.09.118-.21.106-.009-.039-.048-.05-.044-.105.16-.102.477-.059.649-.149 0-.23-.118-.457.023-.683.023 0 .027-.016.047-.02.039.035.098.051.187.043.203.262.559.27.836.445-.148-.246-.785-.234-.699-.765-.148-.035-.117.191-.23.125.05-.172.253-.203.347-.34.563-.148.926.32 1.465.148.156-.585-1.004-.464-1.047-.894-.023-.266.235-.184.422-.254-.059-.172-.336-.04-.422-.152-.008-.184.192-.18.305-.254-.04-.207.144-.223.23-.364-.054-.109-.27-.078-.3-.21.125-.172.308-.532.605-.344.133-.098.223.004.324.086.082-.094.176-.043.301-.02.156-.183.531-.324.399-.64.007-.086.093-.098.09-.192-.169-.12-.188-.379-.442-.426zm-3.672 4.88c.07-.02.215-.005.207.109-.086.05-.195-.028-.207-.11zM7.7 5.84c.106.039.106.172.16.258-.113-.028-.28-.145-.16-.258zm0 0" fill-rule="evenodd" fill="#4d4d4d"/></svg>