<svg xmlns="http://www.w3.org/2000/svg" width="30" height="30"><circle style="isolation:auto;mix-blend-mode:normal;solid-color:#000;solid-opacity:1;marker:none" cx="15" cy="15" r="14.5" color="#000" overflow="visible" fill="#fff" fill-rule="evenodd" stroke="#00a19a"/><g fill="#4d4d4d"><path d="M23 10.89c0 2.7-2.195 4.887-4.906 4.887s-4.907-2.187-4.907-4.886c0-2.7 2.196-4.887 4.907-4.887C20.804 6.004 23 8.19 23 10.89zm0 0M9.754 8.656c-3.992 5.38-2.012 6.856-.762 7.258a2.48 2.48 0 001.516.004c1.25-.398 3.254-1.867-.754-7.262zm0 0M21.852 19.313c0 2.035-3.325 3.683-7.426 3.683-4.102 0-7.426-1.648-7.426-3.683 0-1.055.898-2.008 2.336-2.68.05-.024-.09 1.242-.09 1.242l1.008.02-.137-1.579s1.781-.73 4.309-.683c1.02.02 1.992.101 2.875.285.004.004-.63 4.047-.63 4.047h2.497s-.406-3.64-.332-3.613c1.828.671 3.016 1.75 3.016 2.96zm0 0"/></g></svg>