<svg xmlns="http://www.w3.org/2000/svg" width="30" height="30"><circle style="isolation:auto;mix-blend-mode:normal;solid-color:#000;solid-opacity:1;marker:none" cx="15" cy="15" r="14.5" color="#000" overflow="visible" fill="#fff" fill-rule="evenodd" stroke="#00a19a"/><g fill="#4d4d4d"><path d="M15.766 22.43l4.367-9.153c.008-.023-.09-.058-.082-.074a7.782 7.782 0 01-.473-.351l-4.187 7.203a.325.325 0 01-.051.07.6.6 0 01-.578.266.616.616 0 01-.492-.41.66.66 0 01.117-.649l.023-.047 4.867-6.687a9.192 9.192 0 01-.488-.473l-5.504 6.379c-.02.02-.039.039-.062.058a.589.589 0 01-.614.145.625.625 0 01-.41-.5.66.66 0 01.227-.613c.011-.012.023-.028.035-.04l6.059-5.718c-.079-.09-.16-.184-.235-.277a7.343 7.343 0 01-.265-.344l-6.282 5.558c-.023.02-.047.036-.07.051a.578.578 0 01-.625.059.64.64 0 01-.344-.551.651.651 0 01.305-.578.274.274 0 01.039-.031l6.742-4.836a7.634 7.634 0 01-.316-.5l-7.125 3.883a.466.466 0 01-.078.03.581.581 0 01-.625-.085.656.656 0 01-.22-.617.63.63 0 01.419-.493l.047-.023 7.386-3.047a9.034 9.034 0 01-.25-.523c-.015.004-.027-.114-.05-.106l-9.235 3.051a.654.654 0 00-.308.215c-.168.219-.438.613-.426.941.016.473.73.871.84 1.325.218.91-.66 1.23-.285 2.085.375.852.754.426 1.12 1.075.368.648-.331.933.266 1.715.598.78 1.246.312 1.813.882.449.45.277.985.972 1.336.485.246.977-.492 1.774-.062.758.414.539.96 1.039 1.023.332.043.734-.144.96-.273a.647.647 0 00.263-.29zm0 0M20.438 12.926l.746-.672c-.739-.43-1.141-.91-1.809-1.727-.602-.738-.93-1.254-1.23-2.011l-.801.64c.293.785.636 1.336 1.265 2.106.63.773 1.13 1.234 1.828 1.664zm0 0M22.434 7.96c-.895-1.093-2.196-1.507-3.786.142a8.865 8.865 0 001.235 1.984 8.5 8.5 0 001.797 1.656c1.535-1.25 1.648-2.687.754-3.781zm0 0"/></g></svg>