<svg xmlns="http://www.w3.org/2000/svg" width="11" height="10" viewBox="0 0 11 10"><path d="M2.297 9.996c-.836 0-1.492-.16-1.805-.445C.176 9.266 0 8.668 0 7.91c0-.38.043-.802.137-1.243.511.336 1.113.773 1.703 1.309.75.68 1.328 1.382 1.719 1.914-.418.066-.84.101-1.262.105zm.7-3.07a14.02 14.02 0 00-2.392-1.73A8.191 8.191 0 012.61 2.374C3.5 1.566 4.531.992 5.555.609c.601.34 1.539.938 2.449 1.766a12.761 12.761 0 012.262 2.715A8.066 8.066 0 018.39 7.625c-.97.883-2.11 1.484-3.227 1.863a13.195 13.195 0 00-2.168-2.562zm.714-1.82a.34.34 0 00.312-.188.289.289 0 00-.074-.336l-.422-.387.489-.445.421.387a.363.363 0 00.481 0 .296.296 0 000-.438l-.422-.383.484-.445.426.383a.358.358 0 00.477 0 .286.286 0 000-.434l-.422-.386.285-.258a.29.29 0 000-.438.358.358 0 00-.476 0L4.98 2l-.421-.387a.358.358 0 00-.477 0 .29.29 0 000 .438l.422.383-.488.445-.422-.387a.372.372 0 00-.48 0 .29.29 0 000 .438l.425.386-.488.446-.426-.387a.358.358 0 00-.477 0 .286.286 0 000 .434l.422.386-.261.242a.286.286 0 000 .434.358.358 0 00.476 0l.266-.238.422.383c.062.058.148.09.238.09zm5.453-3.782A13.52 13.52 0 007.57.09C7.945.035 8.32.004 8.7.004c.84 0 1.495.16 1.808.445.316.285.492.883.492 1.64-.004.388-.043.77-.117 1.15-.39-.528-.969-1.231-1.719-1.915zm0 0" fill="#4d4d4d"/></svg>