<svg xmlns="http://www.w3.org/2000/svg" width="10" height="6" viewBox="0 0 10 6"><path d="M8.27.61v4.78a.595.595 0 01-.586.606.598.598 0 01-.59-.605V3.77H2.906v1.62a.6.6 0 01-.59.606.595.595 0 01-.586-.605V.609c0-.336.262-.605.586-.605a.6.6 0 01.59.605V2.23h4.188V.61c0-.337.265-.606.59-.606.324 0 .586.27.586.605zM1.46 4.54V1.46c0-.253-.198-.456-.444-.46a.456.456 0 00-.446.46v3.08c0 .253.2.456.446.46a.456.456 0 00.445-.46zm7.97 0V1.46c0-.253-.2-.456-.446-.46a.456.456 0 00-.445.46v3.08c0 .253.2.456.445.46a.456.456 0 00.446-.46zM.383 3.327v-.656c-.004-.11-.086-.195-.192-.195A.193.193 0 000 2.672v.656c0 .11.086.195.191.195.106 0 .188-.086.192-.195zm9.617 0v-.656a.193.193 0 00-.191-.195c-.106 0-.188.086-.192.195v.656c.004.11.086.195.192.195A.193.193 0 0010 3.328zm0 0" fill="#4d4d4d"/></svg>