<svg xmlns="http://www.w3.org/2000/svg" width="10" height="7" viewBox="0 0 10 7"><path d="M9.996 6.902L7.988 1.836S.628.023.414 0C.2-.02 0 .355 0 .355.02.5 3.219 1.81 4.145 2.195c.632.262 1.324.653 1.82.973L4.277 4.27a.055.055 0 00-.015.074c.015.023.043.031.066.015l1.73-1.132c.016.007.028.015.04.023l-.473.84a.175.175 0 00.05.226l.118.082c-.438.18-.984.438-1.078.528-.14.14.015.168.226.203.211.039 1.329-.203 1.329-.203l.168-.086.722.496c.035.023.078.02.106-.008a.097.097 0 00.027-.11l-.328-.87a.179.179 0 00.125-.137.186.186 0 00-.067-.176.167.167 0 00-.18-.012l-.105-.285c1.293 1.2 2.098 3.067 2.707 3.207.63.145.551-.043.551-.043zm-3.332-2.03l-.121-.087.121-.062zm.29-.274l.237.632-.12-.082.003-.007-.289-.29zm-.169-.32c-.027-.012-.055-.024-.086-.028 0 0-.113-.102-.394-.04a3.45 3.45 0 00-.395.142l-.18-.122a.068.068 0 01-.02-.085l.47-.84c.175.12.316.222.398.293l.192.515a.203.203 0 00.015.164zm0 0" fill="#4d4d4d"/></svg>