<svg xmlns="http://www.w3.org/2000/svg" width="11" height="9" viewBox="0 0 11 9"><g fill="#4d4d4d"><path d="M.824 3.215c.625-.297 1.93-.512 1.992-.367 0 0 .106-.73.114-.84a3.354 3.354 0 00-1.48.601c-.43.317-.669.63-.626.606zm0 0M2.29 4.945s.718.88.737.864c1.164-.891 1.61-2.977 1.633-3.602a3.348 3.348 0 00-1.187-.234c-.211 2.164-1.184 2.972-1.184 2.972zm0 0M3.434 6.168l.558.39.66.344s1.489-.84 1.68-3.28v-.009c-.035-.054-.07-.11-.11-.16-.042-.058-.093-.129-.152-.207a3.456 3.456 0 00-.93-.805c-.077.735-.402 2.516-1.706 3.727zm0 0M6.777 4.73a2.496 2.496 0 00-.039-.164c-.039.075-.246.825-.586 1.461-.297.559-.777 1.032-.894 1.075l1.117.183.082-.152a3.987 3.987 0 00.32-2.403zm0 0"/><path d="M6.02 7.77c-2.98-.36-4.176-2.594-4.176-2.594s-.918.23-.918.379c0 .093.652 1.406 1.441 1.996 1.047.777 2.313 1.023 2.606 1.074.125-.066.25-.14.367-.223.183-.148.406-.336.547-.468.047-.051.093-.102.136-.153.004-.008 0-.011-.003-.011zm0 0M.52 5.914l-.356.68s.148.5.531 1.031a3.415 3.415 0 003.383 1.313c0-.004-.004-.004-.008-.004-2.668-.61-3.55-3.02-3.55-3.02zm0 0M.016 5.742c.761-1.074 1.68-1.074 1.828-1.086.144-.011.894-1.297.804-1.3-1.37-.079-2.398.902-2.468.972a2.111 2.111 0 00-.059.192C.04 4.93-.03 5.809.016 5.742zm0 0"/><path d="M10.996 4.11V.171a.152.152 0 00-.148-.152c-.078 0-.145.07-.145.152v.656C9.715.504 8.031.262 6.332.2 4.297.13 2.504.312 1.258.723v-.57C1.258.065 1.195 0 1.113 0a.15.15 0 00-.148.152v2.625c.094-.09.191-.172.293-.254v-1.46C2.473.64 4.27.453 6.324.526c.278.008.555.024.828.043 0 .211-.004.414-.007.614a20.779 20.779 0 00-3.727.09l.254.124c.98-.113 2.05-.156 3.473-.058-.004.191-.004.379-.004.558-.696-.05-1.59-.066-2.313-.039l.25.157a19.202 19.202 0 012.067.039c0 .207.007.41.015.605a21.043 21.043 0 00-1.223-.047l.215.16c.414.004.61.016 1.016.043.012.188.027.372.047.547-.238-.02-.485-.031-.735-.043-.039-.004-.07.004-.109 0 .078.114.152.23.219.352 1.785.094 3.383.367 4.113.605v2.711c0 .086.067.153.145.153a.15.15 0 00.148-.153V4.164a.13.13 0 000-.055zM7.984 1.417c.184.02.368.043.555.07-.004.192-.012.375-.012.559l-.539-.07c-.004-.168-.004-.356-.004-.559zm.692.812c.168.024.332.055.5.083-.004.21-.004.41 0 .601a11.102 11.102 0 00-.5-.082 15.441 15.441 0 010-.602zm0-.16c.004-.183.008-.37.015-.558.164.023.332.054.496.082v.148l-.011.414c-.164-.031-.332-.058-.5-.086zm.66-.328c.004-.039.004-.078.004-.117.18.035.363.07.547.113-.004.192-.004.38 0 .563a14.202 14.202 0 00-.559-.117c.004-.141.008-.286.008-.442zm.008-.277l.011-.63c.192.036.372.075.543.11l-.011.633c-.18-.039-.364-.078-.543-.113zm-.153-.028a10.935 10.935 0 00-.496-.082c0-.062.004-.128.004-.19l.012-.43c.168.023.332.046.492.074l-.012.628zm-.644-.277c0 .059-.004.113-.004.172-.188-.027-.375-.05-.559-.07l.012-.617c.191.02.379.042.566.066-.003.152-.011.305-.015.45zm-.024 1.047c-.003.203-.003.406 0 .602-.168-.028-.34-.047-.511-.067-.012-.18-.016-.379-.024-.605.18.02.36.043.535.07zm.004.758c.008.187.016.363.032.535-.16-.02-.325-.04-.493-.059a19.52 19.52 0 01-.046-.543c.171.02.34.043.507.067zm.153.023c.168.028.332.055.5.086.004.176.015.348.03.52-.16-.028-.323-.051-.495-.074a10.7 10.7 0 01-.035-.532zm.652.117c.195.036.387.079.582.122.008.171.024.34.04.503-.18-.039-.38-.074-.587-.109a5.619 5.619 0 01-.035-.516zm-.004-.16c-.004-.195-.004-.39-.004-.601.192.035.375.074.563.117.004.207.008.406.02.605a15.213 15.213 0 00-.579-.12zm.711-.449c.223.055.445.113.664.176v.598c-.215-.06-.43-.118-.644-.168a14.942 14.942 0 01-.02-.606zm-.004-.16c0-.184 0-.371.004-.563.219.051.441.11.664.172v.563a16.67 16.67 0 00-.668-.172zm.668-.55a15.13 15.13 0 00-.664-.173l.012-.633c.242.063.46.125.652.192zM7.305.581c.183.012.363.027.539.047l-.012.613c-.18-.02-.36-.035-.535-.047C7.3.996 7.3.79 7.305.582zm-.008.77c.176.011.355.03.535.046 0 .188 0 .375.004.563-.18-.02-.36-.035-.543-.05 0-.18 0-.368.004-.56zm0 .714c.18.016.36.032.539.051.004.203.012.406.023.606-.18-.02-.363-.035-.546-.051a15.073 15.073 0 01-.016-.606zm.023.762c.184.016.367.031.547.055.012.183.028.367.043.543a19.9 19.9 0 00-.543-.051 11.43 11.43 0 01-.047-.547zm2.79.934a9.398 9.398 0 01-.044-.496c.215.05.426.105.637.168v.48a8.022 8.022 0 00-.594-.152zm0 0"/></g></svg>