<svg xmlns="http://www.w3.org/2000/svg" width="11" height="11" viewBox="0 0 11 11"><path d="M2.734.746c0 .41-.343.746-.77.746-.425 0-.773-.336-.773-.746A.76.76 0 011.965 0c.426 0 .77.332.77.746zm7.957 1.43H5.547v.277h5.144zm-.648 8.11c-.18-.009-.352-.118-.555-.25-.297-.192-.633-.407-1.09-.356-.296.03-.515.18-.722.324-.23.16-.453.312-.805.3-.191-.003-.379-.113-.594-.242-.32-.187-.683-.402-1.183-.363-.29.024-.516.16-.735.297-.242.149-.472.29-.8.29-.2 0-.399-.118-.63-.25-.288-.173-.616-.364-1.015-.337-.289.02-.566.168-.832.317-.254.136-.492.27-.707.27a1.201 1.201 0 01-.371-.071l.004.71c.12.036.242.052.367.052.3 0 .59-.157.871-.313.246-.133.473-.258.688-.273.296-.02.55.129.82.289.254.144.512.297.805.297.421 0 .718-.18.984-.344.2-.121.371-.227.574-.242.395-.032.696.144.985.316.238.14.484.285.761.293h.043c.438 0 .723-.195.973-.367.184-.13.344-.238.555-.262.336-.039.593.125.863.3.226.145.46.298.73.306.02.003.04.003.055.003.367 0 .695-.148.914-.277v-.762c-.117.09-.512.364-.953.344zm0-1.31c-.18-.007-.352-.12-.555-.25-.297-.19-.633-.41-1.09-.359-.296.035-.515.184-.722.328-.23.16-.453.309-.805.301-.191-.004-.379-.117-.594-.242-.043-.027-.086-.05-.129-.078l3.657-.781c.32-.07.789-.563.789-.563.113-.094.23-.328.133-.437l-.07-.075c-.098-.082-.216-.113-.384.07l-.312.329c-.04.039-.102.078-.188.136a3.332 3.332 0 01-.12.07l-.301.075-3.977.828s-.594-3.039-.621-3.07c-.031-.153-.09-.27-.223-.34l-1.133-.633a.8.8 0 00-.02-.094l-.413-1.62h1.918c.25 0 .46-.2.457-.442a.442.442 0 00-.45-.422H1.927a.805.805 0 00-.598.512c.004.023-.086.226-.02.562 0 0 .454 1.809.458 1.817.02.156.086.312.238.394l1.855 1.035.614 2.59c-.04.02-.075.043-.114.067-.242.152-.472.293-.8.293-.2 0-.399-.118-.63-.25-.288-.172-.616-.364-1.015-.34-.289.02-.566.172-.832.32-.254.137-.492.27-.707.27a1.201 1.201 0 01-.371-.07l.004.71c.12.031.242.051.367.051.3 0 .59-.16.871-.313.246-.132.473-.261.688-.273.296-.02.55.129.82.285.254.149.512.301.805.301.421 0 .718-.184.984-.344.2-.12.371-.226.574-.242.395-.031.696.145.985.313.238.14.484.285.761.293a.16.16 0 00.043.003c.438 0 .723-.195.973-.37.184-.13.344-.239.555-.262.336-.036.593.129.863.3.226.149.46.297.73.309h.055c.367 0 .695-.145.914-.273v-.762c-.117.09-.512.36-.953.344zm0 0" fill="#4d4d4d"/></svg>