<svg xmlns="http://www.w3.org/2000/svg" width="10" height="6" viewBox="0 0 10 6"><g fill="#4d4d4d"><path d="M.754 2.191h.797V3.81H.754zm0 0M8.438 2.191h.792V3.81h-.793zm0 0M6.055 3.008c0-.598-.434-1.09-.98-1.117V.52h-.173v1.378c-.52.07-.91.555-.902 1.125.008.567.406 1.04.926 1.098V5.45h.172V4.121c.539-.043.957-.527.957-1.113zm-1.028.558c-.285 0-.515-.25-.515-.558 0-.309.23-.559.515-.559.282 0 .512.25.512.559 0 .308-.23.558-.512.558zm0 0"/><path d="M0 0v6h10V0zm.703 1.203c.852.086 1.5.867 1.5 1.797 0 .93-.648 1.71-1.5 1.797zM.426.461h.156v5.078H.426zm.55 5.078C2.079 5.316 2.915 4.266 2.915 3 2.914 1.734 2.078.684.977.46h7.992C7.867.685 7.03 1.735 7.03 3s.836 2.316 1.938 2.54zm8.31-.738c-.868-.067-1.54-.852-1.54-1.801 0-.95.672-1.734 1.54-1.8zm.288.738h-.172V.52h-.011V.462h.183zm0 0"/></g></svg>