<svg xmlns="http://www.w3.org/2000/svg" width="30" height="30"><circle style="isolation:auto;mix-blend-mode:normal;solid-color:#000;solid-opacity:1;marker:none" cx="15" cy="15" r="14.5" color="#000" overflow="visible" fill="#fff" fill-rule="evenodd" stroke="#00a19a"/><path d="M9.547 22.992c-1.29 0-2.305-.254-2.79-.71-.484-.458-.757-1.41-.757-2.63 0-.605.066-1.277.21-1.984a21.453 21.453 0 012.634 2.094 20.642 20.642 0 012.656 3.062c-.645.11-1.297.164-1.953.168zm1.086-4.914a21.982 21.982 0 00-3.695-2.765 13.144 13.144 0 013.097-4.516c1.371-1.29 2.969-2.211 4.55-2.82a21.75 21.75 0 013.786 2.82c1.988 1.875 3.2 3.832 3.496 4.348a12.907 12.907 0 01-2.902 4.058c-1.496 1.41-3.258 2.371-4.985 2.98a21.016 21.016 0 00-3.347-4.105zm1.101-2.906a.53.53 0 00.485-.305.475.475 0 00-.114-.539l-.652-.613.754-.711.652.613a.546.546 0 00.739 0 .473.473 0 000-.695l-.653-.617.754-.711.653.613a.538.538 0 00.738 0 .467.467 0 000-.695l-.652-.617.445-.415a.477.477 0 000-.699.551.551 0 00-.742 0l-.442.418-.652-.617a.551.551 0 00-.742 0 .473.473 0 000 .695l.656.618-.754.71-.652-.617a.551.551 0 00-.742 0 .477.477 0 000 .7l.656.617-.754.71-.656-.617a.546.546 0 00-.739 0 .477.477 0 000 .7l.653.617-.407.383a.477.477 0 000 .699.546.546 0 00.739 0l.41-.387.652.617c.098.09.23.145.367.145zm8.426-6.055a21.059 21.059 0 00-2.46-1.972c.577-.09 1.16-.137 1.745-.137 1.297 0 2.313.254 2.797.71.488.458.758 1.41.758 2.63-.004.613-.063 1.23-.18 1.836a21.143 21.143 0 00-2.66-3.067zm0 0" fill="#4d4d4d"/></svg>