<svg xmlns="http://www.w3.org/2000/svg" width="30" height="30"><circle style="isolation:auto;mix-blend-mode:normal;solid-color:#000;solid-opacity:1;marker:none" cx="15" cy="15" r="14.5" color="#000" overflow="visible" fill="#00a19a" fill-rule="evenodd" stroke="#fff"/><path d="M16.75 23h-.527c-.059-.027-.118-.063-.18-.074-.387-.063-.781-.082-1.16-.18a22.435 22.435 0 01-2.012-.598c-2.101-.77-3.66-2.07-4.426-4.125-.332-.882-.476-1.785-.312-2.718a4.22 4.22 0 01.379-1.215c.023-.043.008-.106.008-.164-.051 0-.114-.016-.16 0-.27.113-.54.238-.81.355-.179.074-.363.14-.542.211v-.035c.015-.016.043-.027.054-.043.266-.43.493-.887.801-1.285.88-1.133 2.024-1.992 3.262-2.746l.27-.176c-.524-.113-.985.066-1.461.055 1.921-1.688 4.214-2.09 6.726-1.703.223-.489 1.38-1.446 1.89-1.559-.062.312-.214.613-.144.941l.703-.523c0 .086.008.11 0 .133-.164.562-.113 1.129-.035 1.695.031.195.04.422.153.57.843 1.106 1.433 2.32 1.843 3.621.082.258.203.504.36.727.226.328.437.656.504 1.05.007.044.039.083.058.126v.21c-.047.173-.09.352-.148.52-.074.207-.188.395-.399.493a4.107 4.107 0 01-.644.238c-.52.14-.942.004-1.238-.414-.11-.153-.153-.344-.235-.516-.027-.055-.086-.121-.14-.133a3.331 3.331 0 01-1.477-.68c-.371-.304-.703-.652-1.047-.98-.07-.066-.133-.137-.23-.234-.235.207-.48.383-.672.601-.555.645-.606 1.399-.45 2.176.172.883.586 1.68 1.094 2.434.848 1.257.805 2.586.344 3.945zm1.188-11.281c-.176 0-.32.14-.32.312s.144.313.32.313c.175 0 .32-.14.32-.313a.318.318 0 00-.32-.312zm0 0" fill="#fff"/></svg>