<svg xmlns="http://www.w3.org/2000/svg" width="9" height="11" viewBox="0 0 9 11"><path d="M8.574 5.578c0 .555-.46 1.004-1.027 1.004-.57 0-1.031-.45-1.031-1.004 0-.555.46-1.004 1.03-1.004.567 0 1.028.45 1.028 1.004zM.211 1.004c.352.871 1.2 1.914 1.48 2.133.871.668 1.547.8 1.91 1.047.403.277 1.43 1.023 1.43 1.023s.09.914.38 1.406c.288.496 1.62 2.028 2 1.586.378-.437-.536-.633-1.134-1.55a2.632 2.632 0 01-.422-1.258s.364-.223.465-.399c.098-.18.059-.375-.14-.738C5.797 3.559 4.469 2.8 4 2.625c-.469-.176-.941.184-1.156.078-.219-.105-.88-.672-1.086-.957C1.402 1.262 1.05.414.793.188c-.57-.5-.836.078-.582.816zm8.008 8.098c-.145-.008-.29-.094-.453-.196-.243-.152-.52-.32-.891-.281-.246.023-.422.14-.59.254-.191.129-.37.246-.656.238-.16-.004-.313-.09-.488-.191-.262-.149-.559-.317-.97-.285-.234.02-.421.129-.6.234-.2.117-.387.227-.653.227-.164 0-.328-.09-.516-.196-.238-.133-.504-.285-.832-.265-.234.015-.46.136-.68.25C.685 9 .489 9.1.317 9.1a.917.917 0 01-.308-.054l.004.558c.101.028.203.04.304.04.243 0 .48-.125.711-.247.2-.101.387-.203.563-.214.242-.012.45.101.668.226.207.117.422.235.66.235.344 0 .59-.141.805-.27.16-.094.3-.18.468-.191.325-.024.567.113.805.246.195.11.395.226.625.23h.035c.356 0 .59-.152.793-.289.153-.101.281-.187.453-.203.278-.031.485.098.707.234.188.114.38.235.598.243h.047c.297 0 .566-.118.746-.22v-.593c-.098.07-.418.281-.781.27zm-.008 1.335c-.149-.003-.29-.093-.453-.195-.246-.148-.52-.32-.895-.281-.242.027-.418.144-.59.258-.187.125-.367.246-.656.238-.156-.004-.308-.094-.488-.191-.262-.149-.559-.317-.969-.286-.234.016-.418.125-.598.23-.199.118-.386.231-.656.231-.164 0-.324-.093-.511-.195-.239-.137-.508-.285-.833-.266-.238.016-.46.133-.68.25-.206.11-.402.211-.577.211A.912.912 0 010 10.387l.004.558c.098.024.2.04.3.04.247 0 .485-.126.716-.247.199-.105.386-.203.558-.215.242-.015.453.102.672.227.207.113.418.234.656.234.348 0 .59-.144.805-.27.164-.097.305-.179.473-.19.324-.028.566.113.8.246.196.109.399.222.625.23h.036c.359 0 .59-.152.796-.29.149-.1.282-.187.454-.206.277-.027.484.101.707.238.183.113.375.23.597.238a.175.175 0 00.043.004c.301 0 .57-.117.75-.218l-.004-.598c-.093.07-.418.285-.777.27zm0 0" fill="#4d4d4d"/></svg>