<svg xmlns="http://www.w3.org/2000/svg" width="10" height="11" viewBox="0 0 10 11"><path d="M6.5 11h-.352c-.039-.016-.078-.043-.117-.05-.258-.044-.523-.06-.777-.126a14.71 14.71 0 01-1.34-.41C2.512 9.883 1.473 8.992.961 7.578.742 6.973.645 6.352.754 5.707c.05-.285.125-.566.254-.832.015-.031.004-.074.008-.113-.04 0-.079-.012-.11 0-.18.078-.36.164-.539.242-.117.055-.242.098-.363.144v-.023c.012-.008.031-.016.039-.027.176-.297.328-.61.535-.883.582-.781 1.348-1.371 2.172-1.89.055-.036.105-.071.18-.122-.348-.078-.657.047-.973.04C3.238 1.081 4.766.804 6.441 1.07 6.586.734 7.36.078 7.7 0c-.039.215-.14.422-.094.648l.47-.363c0 .063.003.078 0 .094-.114.387-.079.777-.024 1.164.02.137.023.293.101.395a8.272 8.272 0 011.23 2.488c.056.176.134.344.24.5.148.226.288.449.335.722.004.028.023.055.04.086v.145c-.036.117-.063.242-.102.36-.047.14-.122.269-.266.335a2.817 2.817 0 01-.426.164c-.351.098-.633.004-.828-.285-.07-.105-.102-.238-.156-.351-.02-.04-.059-.086-.094-.094a2.157 2.157 0 01-.984-.469c-.246-.207-.47-.445-.7-.672-.046-.047-.086-.094-.152-.164-.156.145-.32.266-.45.418-.37.441-.402.957-.3 1.492.117.61.395 1.157.73 1.676.567.863.54 1.777.231 2.711zm.793-7.758a.217.217 0 000 .434c.117 0 .21-.098.21-.215a.214.214 0 00-.21-.219zm0 0" fill="#4d4d4d"/></svg>