<svg xmlns="http://www.w3.org/2000/svg" width="30" height="30"><circle style="isolation:auto;mix-blend-mode:normal;solid-color:#000;solid-opacity:1;marker:none" cx="15" cy="15" r="14.5" color="#000" overflow="visible" fill="#00a19a" fill-rule="evenodd" stroke="#fff"/><path d="M23 21.926s-.012.738-.785.851c-.297.047-2.39.051-2.504.051 0 0-.649-.012-1.356-.656-.472-.426-.796-.953-1.246-1.586L8.164 7.723a.463.463 0 01-.043-.446.439.439 0 01.348-.261.427.427 0 01.394.183l9.18 13.121c.227.246.375.438.535.524.176.093.461.207.656.207l1.836-.028c1.68-.191 1.93.204 1.93.903zm-11.043-1.621c-.227.246-.375.441-.535.527-.176.094-.461.207-.656.207l-1.836-.027c-1.68-.192-1.93.203-1.93.902 0 0 .012.734.785.852.297.043 2.39.05 2.504.05 0 0 .649-.011 1.356-.656.472-.43.796-.953 1.246-1.586l1.796-2.586-.55-.8zm9.781-13.22a.422.422 0 00-.601.102l-5.739 8.2.551.789 5.887-8.465a.463.463 0 00-.098-.625zM15.016 21.16c-.993 0-1.801.274-1.801.613 0 .336.808.614 1.8.614.997 0 1.801-.278 1.801-.614 0-.34-.804-.613-1.8-.613zm-1.813 1.227c0 .336.805.61 1.8.61.993 0 1.802-.274 1.802-.61v-.352c0 .34-.809.613-1.801.613-.996 0-1.8-.273-1.8-.613zm0 0" fill="#fff"/></svg>