<svg xmlns="http://www.w3.org/2000/svg" width="30" height="30"><circle style="isolation:auto;mix-blend-mode:normal;solid-color:#000;solid-opacity:1;marker:none" cx="15" cy="15" r="14.5" color="#000" overflow="visible" fill="#fff" fill-rule="evenodd" stroke="#00a19a"/><path d="M22.992 19.848l-3.21-7.961S8.007 9.035 7.663 9c-.348-.031-.66.559-.66.559.031.23 5.144 2.28 6.625 2.886 1.016.414 2.121 1.032 2.918 1.532l-2.703 1.734a.09.09 0 00-.028.113c.024.04.075.051.11.028l2.77-1.782c.019.016.038.028.058.04L16 15.43a.27.27 0 00.082.355l.188.125c-.704.285-1.579.688-1.727.832-.223.219.027.262.363.32.336.06 2.125-.32 2.125-.32l.27-.137 1.156.778a.135.135 0 00.168-.012.15.15 0 00.043-.172l-.523-1.367a.264.264 0 00.195-.215.273.273 0 00-.106-.273.255.255 0 00-.28-.02l-.173-.449c2.067 1.883 3.36 4.816 4.332 5.04 1.004.226.88-.067.88-.067zm-5.328-3.196l-.2-.132.2-.098zm.461-.425l.383.996-.195-.13.007-.015-.46-.453zm-.266-.508a.63.63 0 00-.14-.04s-.184-.16-.63-.058c-.124.027-.359.11-.636.219l-.285-.195a.099.099 0 01-.031-.133l.75-1.317c.281.188.504.344.636.457l.313.809a.274.274 0 00.023.258zm0 0" fill="#4d4d4d"/></svg>