<svg xmlns="http://www.w3.org/2000/svg" width="11" height="11" viewBox="0 0 11 11"><path d="M10.734 2.746C10.04 1.664 8.477.906 8.477.906 2.582-2.012.129 3.046.129 3.046c-.238.513-.184.985.504 1.356L3.05 5.418c.277.125.582.129.933.07l1.125 2.27a.342.342 0 00-.242.219L4.02 10.28a.344.344 0 00.02.278.334.334 0 00.214.175l.875.25a.35.35 0 00.438-.242l.636-2.37a.348.348 0 00-.098-.34L8.5 5.93c2.504.687 2.848-2.239 2.234-3.184zm-5.671 7.559l-.293-.078.582-1.79.144.04zm.64-2.735L4.605 5.355c.13-.035.258-.066.395-.101 0 0 1.543-.305 2.305.144.191.11.37.207.543.286zM3.84 2.68c-1.012.129-1.7.418-1.645.32.047-.09.989-.629 1.278-.7.57-.144 1.172-.19 1.75-.081 1.03.203 1.62.5 2.394 1.203.031.027.293.316.301.355.016.082-1.996-1.355-4.078-1.097zm5.484-.739C8.47 1.594 6.586.758 4.52 1.297c-1.774.46-2.477.695-2.926.98C1.32 2.45 2.57.594 5.71.621c.52.008 1.36.082 1.848.262C8.8 1.332 9.41 1.977 9.324 1.94zm0 0" fill="#4d4d4d"/></svg>