<svg xmlns="http://www.w3.org/2000/svg" width="10" height="10" viewBox="0 0 10 10"><path d="M3.5 4.574H1.941c-.105 0-.191-.078-.191-.176 0-.097.086-.175.191-.175H3.5c.105 0 .191.078.191.175 0 .098-.086.176-.191.176zm.086 1.387c0-.098-.086-.176-.188-.176H1.254c-.106 0-.192.078-.192.176 0 .098.086.176.192.176h2.144c.102 0 .188-.078.188-.176zm.082 1.523c0-.097-.082-.175-.188-.175H.191c-.105 0-.187.078-.187.175 0 .098.082.176.187.176h3.29c.105 0 .187-.078.187-.176zm2-3.632v-.739a.184.184 0 00-.188-.18.184.184 0 00-.187.18v.739c0 .097.082.18.187.18a.184.184 0 00.188-.18zm0 4.921v-.742c0-.097-.082-.176-.188-.176-.105 0-.187.079-.187.176v.742c0 .098.082.176.187.176.106 0 .188-.078.188-.176zm2.05-2.644l.794-.004c.105 0 .187-.078.187-.176 0-.097-.086-.176-.187-.176l-.793.004c-.106 0-.188.078-.188.176 0 .098.086.176.188.176zm.055 1.934a.171.171 0 00.004-.25l-.554-.532a.19.19 0 00-.18-.047.188.188 0 00-.137.121.176.176 0 00.047.172l.555.532c.074.07.191.07.265.004zm-.625-3.485l.57-.512c.075-.07.079-.18.005-.25a.194.194 0 00-.266-.003l-.57.511a.168.168 0 00-.004.25c.07.07.191.07.265.004zm2.063-1.672c.066.063.18.063.246 0l.488-.46a.152.152 0 000-.231l-.488-.457a.177.177 0 00-.246 0l-.492.457a.158.158 0 000 .23l.11.102-.45.437a4.452 4.452 0 00-2.668-1.05l-.004-.649h.117c.086 0 .156-.062.156-.144V.148A.153.153 0 005.824 0h-.676a.153.153 0 00-.156.148v.993c0 .082.07.144.156.144h.184l.004.645c-1.211.035-2.348.547-3.137 1.41a.216.216 0 00.028.312.25.25 0 00.332-.023c.726-.8 1.793-1.262 2.914-1.262 2.117 0 3.84 1.613 3.84 3.598 0 1.98-1.723 3.594-3.84 3.594-1.203 0-2.317-.516-3.051-1.414a.243.243 0 00-.328-.043.21.21 0 00-.047.308C2.87 9.422 4.12 10 5.473 10 7.848 10 9.78 8.187 9.78 5.965a3.894 3.894 0 00-1.136-2.73l.449-.438zm-2.75.442S4.969 5.492 4.87 5.785c-.098.293.074.606.387.7.316.093.648-.07.75-.364-.004 0 .453-2.773.453-2.773zm0 0" fill="#4d4d4d"/></svg>