<svg xmlns="http://www.w3.org/2000/svg" width="10" height="10" viewBox="0 0 10 10"><g fill="#4d4d4d"><path d="M9.008.945c-1.324-1.257-3.469-1.257-4.79 0-.491.465-.89 1.13-1.132 1.844l3.996 3.793c.746-.238 1.438-.621 1.926-1.086a3.103 3.103 0 000-4.55zm0 0M3.125 5.594L0 8.062c.031.032 1.484 1.41 1.516 1.442L4.102 6.55c.675.332 1.543.363 2.39.187L2.934 3.355c-.168.793-.133 1.598.191 2.239zm0 0M4.625 8.46a.872.872 0 00-.012 1.278c.367.352.969.344 1.348-.011a.877.877 0 00.012-1.282.989.989 0 00-1.348.016zm0 0"/></g></svg>