<svg xmlns="http://www.w3.org/2000/svg" width="11" height="10" viewBox="0 0 11 10"><path d="M6.469 3.977C6.609 2.785 8.508.852 9.266.125a.46.46 0 01.617-.008l.976.88c.18.155.188.421.024.589-.7.715-2.524 2.437-4.125 2.684-.121.02 2.988-3.067 2.914-3.024-.883.524-3.203 2.73-3.203 2.73zm-5.16-2.7c-.047-.066 3.23 2.856 3.21 2.743C4.243 2.496 2.415.78 1.653.125a.454.454 0 00-.62.027l-.915.938a.404.404 0 00.016.586c.773.71 2.824 2.496 4.078 2.617 0 0-2.344-2.18-2.902-3.016zM6.64 4.41l-.282-.265L2.277 8l-.12-.102-.16.172.108.094L.473 9.707l.28.266 1.653-1.559.133.113.16-.172-.12-.105zm-1.989-.254l-.285.266.637.625.277-.274zM8.81 8.23l.14-.148-.18-.156-.128.14-2.692-2.632-.277.27 2.703 2.644-.11.117.18.152.098-.101L10.207 10l.258-.273zm0 0" fill="#4d4d4d"/></svg>