<svg xmlns="http://www.w3.org/2000/svg" width="10" height="10" viewBox="0 0 10 10"><path d="M8.191 1.215L3.906 2.273 3.922.121zM10 8.102c0 1.046-2.238 1.894-5 1.894s-5-.848-5-1.894c0-.747 1.14-1.391 2.797-1.7l-.008 2.211c-.004.13.121.235.273.235 0 0 .024-.012.024 0 0 .007-.008-.38 0-.38L3.02.239c0-.129.125-.234.277-.234.152 0 .277.105.277.234l.047 6.047c.457-.05.918-.074 1.379-.074 2.762 0 5 .848 5 1.89zm-4.598.039a.359.359 0 00-.367.351c0 .192.164.348.367.348.203 0 .371-.156.371-.348a.362.362 0 00-.37-.351zm0 0" fill="#4d4d4d"/></svg>