<svg xmlns="http://www.w3.org/2000/svg" width="11" height="11" viewBox="0 0 11 11"><g fill="#4d4d4d"><path d="M5.5 0A5.506 5.506 0 000 5.5C0 8.531 2.469 11 5.5 11S11 8.531 11 5.5 8.531 0 5.5 0zm3.66 8.258l-.414-.863-1.344.449-.492 1.332.727.383a4.579 4.579 0 01-4.387-.063l.605-.32-.492-1.332-1.343-.45-.32.672A4.561 4.561 0 01.91 5.5c.004-.262.027-.523.074-.781l.508.593 1.242-.949-.058-1.554-.875-.012A4.576 4.576 0 014.027 1.16l-.293.508 1.739.719 1.734-.711-.309-.54a4.591 4.591 0 012.293 1.657l-.925.016-.059 1.554 1.246.95.55-.645a4.548 4.548 0 01-.844 3.59zm0 0"/><path d="M3.738 4.91l.664 1.985h2.145l.664-2-1.734-1.22zm0 0"/></g></svg>