<svg xmlns="http://www.w3.org/2000/svg" width="30" height="30"><circle style="isolation:auto;mix-blend-mode:normal;solid-color:#000;solid-opacity:1;marker:none" cx="15" cy="15" r="14.5" color="#000" overflow="visible" fill="#00a19a" fill-rule="evenodd" stroke="#fff"/><path d="M12.602 13.777h-2.5a.297.297 0 01-.297-.297.3.3 0 01.297-.3h2.5a.3.3 0 01.3.3.298.298 0 01-.3.297zm.136 2.356a.3.3 0 00-.3-.297H9.003a.298.298 0 100 .598h3.433a.3.3 0 00.301-.301zm.133 2.59c0-.164-.137-.301-.3-.301H7.304a.3.3 0 000 .601h5.265c.164 0 .301-.136.301-.3zm3.2-6.172v-1.262a.3.3 0 00-.301-.297c-.168 0-.301.133-.301.297v1.262a.3.3 0 00.601 0zm0 8.363v-1.262a.3.3 0 00-.602 0v1.262c0 .164.133.297.3.297a.3.3 0 00.301-.297zm3.28-4.492l1.266-.008a.298.298 0 100-.598l-1.265.004a.3.3 0 000 .602zm.087 3.281a.297.297 0 00.003-.422l-.882-.902a.304.304 0 00-.293-.082.297.297 0 00-.137.5l.883.902a.302.302 0 00.425.004zm-1-5.918l.914-.875a.3.3 0 00.007-.422.298.298 0 00-.425-.008l-.914.872a.294.294 0 00-.008.421.302.302 0 00.425.012zm3.3-2.847c.106.109.285.109.395 0l.781-.778a.278.278 0 000-.394l-.781-.782a.286.286 0 00-.395 0l-.785.782a.278.278 0 000 .394l.168.168-.715.746a6.896 6.896 0 00-4.265-1.785l-.008-1.102h.183c.137 0 .25-.113.25-.25V6.25a.252.252 0 00-.25-.25h-1.082a.252.252 0 00-.25.25v1.688c0 .136.114.25.25.25h.297l.008 1.093a6.89 6.89 0 00-5.02 2.399.376.376 0 00.575.488 6.146 6.146 0 014.664-2.145c3.387 0 6.14 2.747 6.14 6.114 0 3.37-2.753 6.113-6.14 6.113-1.93 0-3.711-.875-4.883-2.406a.378.378 0 00-.527-.07.373.373 0 00-.07.523A6.855 6.855 0 0015.757 23c3.8 0 6.89-3.078 6.89-6.863a6.808 6.808 0 00-1.816-4.637l.715-.75zm-4.402.75s-2.383 3.648-2.543 4.148a.952.952 0 001.816.57l.727-4.718zm0 0" fill="#fff"/></svg>