<svg xmlns="http://www.w3.org/2000/svg" width="30" height="30"><circle style="isolation:auto;mix-blend-mode:normal;solid-color:#000;solid-opacity:1;marker:none" cx="15" cy="15" r="14.5" color="#000" overflow="visible" fill="#008ecf" fill-rule="evenodd" stroke="#fff"/><g fill="#fff"><path d="M20.727 13.64l-.586-1.94h-1.067l-.687-1.7h-.926l.187 1.7h-.73l-.293 1.35H8.168l.395 1.04H7l.922 3.344c.242-.04.504-.141.773-.247.371-.14.754-.289 1.157-.308.55-.027 1.007.164 1.414.328.316.133.593.246.87.246.454 0 .774-.137 1.11-.285.305-.133.621-.266 1.02-.29.695-.038 1.199.173 1.644.356.238.098.453.188.66.223h.477c.32-.043.558-.16.808-.281.29-.14.59-.285 1.004-.317.63-.05 1.098.164 1.512.352.281.125.524.234.77.242h.004l1.597-3.363.258-.45zm0 0M21.074 19.3c-.246-.007-.488-.116-.77-.241-.413-.188-.882-.403-1.511-.352-.414.031-.715.176-1.004.316-.324.16-.629.305-1.117.297-.266-.004-.524-.113-.828-.238-.446-.184-.95-.395-1.645-.355-.398.023-.715.156-1.02.289-.335.144-.656.285-1.109.285-.277 0-.554-.113-.87-.246-.407-.164-.864-.356-1.415-.328-.402.015-.785.164-1.156.308-.352.137-.68.266-.977.266a2.108 2.108 0 01-.52-.07l.009.695c.168.035.34.05.511.054.414 0 .817-.156 1.207-.308.34-.129.66-.254.957-.27.41-.015.762.13 1.137.282.352.144.711.296 1.117.296.586 0 1-.18 1.368-.34.273-.117.511-.222.8-.238.547-.03.961.145 1.36.309.332.137.675.281 1.062.289h.059c.61 0 1.004-.191 1.351-.36.258-.128.477-.234.77-.257.469-.035.824.125 1.203.297.312.14.637.289 1.012.3h.078c.508 0 .965-.144 1.27-.27v-.745c-.169.09-.715.351-1.329.336zm0 0"/><path d="M21.074 18.016c-.246-.004-.488-.114-.77-.243-.413-.187-.882-.398-1.511-.351-.414.031-.715.18-1.004.32-.324.156-.629.305-1.117.297-.266-.008-.524-.113-.828-.242-.446-.184-.95-.395-1.645-.356-.398.024-.715.16-1.02.293-.335.145-.656.282-1.109.282-.277 0-.554-.114-.87-.243-.407-.168-.864-.355-1.415-.332-.402.02-.785.168-1.156.313-.352.137-.68.262-.977.262-.175 0-.351-.024-.52-.067l.009.696c.168.035.34.05.511.05.414 0 .817-.156 1.207-.304.34-.133.66-.258.957-.27.41-.02.762.129 1.137.281.352.145.711.293 1.117.293.586 0 1-.18 1.368-.336.273-.12.511-.222.8-.238.547-.031.961.14 1.36.309.332.136.675.277 1.062.285.02.004.04.004.059.004.61 0 1.004-.192 1.351-.364.258-.125.477-.234.77-.253.469-.04.824.125 1.203.293.312.144.637.289 1.012.3h.078c.508 0 .965-.14 1.27-.27v-.745c-.169.09-.715.355-1.329.336zm0 0"/></g></svg>