<svg xmlns="http://www.w3.org/2000/svg" width="30" height="30"><circle style="isolation:auto;mix-blend-mode:normal;solid-color:#000;solid-opacity:1;marker:none" cx="15" cy="15" r="14.5" color="#000" overflow="visible" fill="#fff" fill-rule="evenodd" stroke="#008ecf"/><g fill="#4d4d4d"><path d="M17.3 19.496h-5.613c-1.101 0-1.996-.863-1.996-1.926v-5.89c0-1.88 1.582-3.407 3.536-3.407h2.535c1.953 0 3.535 1.528 3.535 3.407v5.89c0 1.063-.895 1.926-1.996 1.926zm-5.5-2.742c-.464 0-.84.363-.84.808 0 .446.376.81.84.81.462 0 .837-.364.837-.81 0-.445-.375-.808-.836-.808zm5.4 0c-.466 0-.84.363-.84.808 0 .446.374.81.84.81.46 0 .84-.364.84-.81 0-.445-.38-.808-.84-.808zm-.872-7.371a.625.625 0 00-.637-.613h-2.347a.625.625 0 00-.637.613c0 .34.285.613.637.613h2.347a.625.625 0 00.637-.613zm1.828 3.762v-1.723c0-.559-.472-1.012-1.05-1.012H11.96c-.578 0-1.05.453-1.05 1.012v1.723c0 .562.472 1.015 1.05 1.015h5.144c.579 0 1.051-.453 1.051-1.015zm0 0M14.293 7.578a.576.576 0 01-.586.567.576.576 0 01-.586-.567c0-.312.262-.566.586-.566.324 0 .586.254.586.566zm0 0M15.871 7.578a.576.576 0 01-.586.567.58.58 0 01-.59-.567.58.58 0 01.59-.566c.324 0 .586.254.586.566zm0 0M12.219 20.402h-1.375L9 22.988h1.375zm0 0M18.324 20.402H16.95l1.676 2.586H20zm0 0"/></g></svg>