<svg xmlns="http://www.w3.org/2000/svg" width="7" height="10" viewBox="0 0 7 10"><g fill="#4d4d4d"><path d="M5.281 7.809h-3.57c-.703 0-1.27-.54-1.27-1.204v-3.68C.441 1.75 1.445.798 2.687.798h1.618c1.242 0 2.246.953 2.246 2.129v3.68c0 .664-.567 1.203-1.27 1.203zm-3.5-1.711c-.293 0-.535.226-.535.504 0 .277.242.503.535.503.293 0 .535-.226.535-.503 0-.278-.242-.504-.535-.504zm3.438 0c-.297 0-.535.226-.535.504 0 .277.238.503.535.503a.519.519 0 00.531-.503.519.519 0 00-.531-.504zm-.555-4.61c0-.21-.184-.383-.406-.383H2.766a.394.394 0 00-.407.383c0 .215.18.383.407.387h1.492c.222-.004.406-.172.406-.387zM5.828 3.84V2.766c0-.352-.3-.637-.672-.637h-3.27c-.37 0-.671.285-.671.637V3.84c0 .351.3.637.672.637h3.27c.37 0 .671-.286.671-.637zm0 0M3.367.36a.363.363 0 01-.37.355.366.366 0 01-.376-.356c0-.195.168-.351.375-.351a.36.36 0 01.371.351zm0 0M4.371.36A.365.365 0 014 .714a.366.366 0 01-.375-.356c0-.195.168-.351.375-.351.203 0 .371.156.371.351zm0 0M2.047 8.375h-.875L0 9.992h.875zm0 0M5.934 8.375h-.875l1.066 1.617H7zm0 0"/></g></svg>