<svg xmlns="http://www.w3.org/2000/svg" width="30" height="30"><circle style="isolation:auto;mix-blend-mode:normal;solid-color:#000;solid-opacity:1;marker:none" cx="15" cy="15" r="14.5" color="#000" overflow="visible" fill="#fff" fill-rule="evenodd" stroke="#008ecf"/><g fill="#4d4d4d"><path d="M11.05 15.04v-.005h2.372a.83.83 0 00.824-.836V7.836A.83.83 0 0013.422 7H7.805a.832.832 0 00-.825.836v6.363c0 .461.372.836.825.836h2.21zM8.93 8.737c0-.027.011-.054.027-.07a.105.105 0 01.07-.031h1.883c1.492 0 1.719.976 1.719 1.554 0 .985-.61 1.528-1.719 1.528h-.922v1.57a.091.091 0 01-.031.07.09.09 0 01-.066.032h-.864a.105.105 0 01-.07-.032.104.104 0 01-.027-.07zm0 0"/><path d="M11.59 10.195c0-.527-.32-.82-.906-.82h-.696v1.61h.696c.41-.005.906-.141.906-.79zm0 0M20.3 17.543c-.363 0-.722.074-1.054.219l-.953-1.5.312.011V14.59c-.78 0-1.093.336-1.214.578l-2.016-1.082a.347.347 0 00-.473.144l-.093.184a.356.356 0 00.144.477l1.059.574c-3.766.465-3.918 1.68-4.055 1.59-.605-.41-3.281-.453-3.281-.453v.617c.699-.102 1.351.043 1.887.39-.008.008-.016.012-.024.02l-.344.379a2.665 2.665 0 00-3.293.226 2.762 2.762 0 00-.597 3.29 2.676 2.676 0 002.992 1.406 2.716 2.716 0 002.09-2.586l.578-.07c.105.222 2.387.636 4.41.437.57-.059.73-.781.73-.781l.122-3.45.058-.21 1.242 1.957A2.744 2.744 0 0018 21.676a2.671 2.671 0 003.254 1.148 2.736 2.736 0 001.695-3.043 2.702 2.702 0 00-2.648-2.238zM10.27 19.25c.07.105.125.219.171.34l-.539.062zM8.7 22.168c-.79 0-1.493-.496-1.762-1.246a1.909 1.909 0 01.554-2.098 1.838 1.838 0 012.133-.195l-1.191 1.305a.386.386 0 00.02.539l.1.097a.37.37 0 00.407.067l1.598-.196a1.88 1.88 0 01-1.86 1.727zm2.573-2.68a2.71 2.71 0 00-.43-.863l.348-.383c.008-.012.02-.023.028-.035.261.332.465.742.597 1.215zm8.993 2.68a1.873 1.873 0 01-1.73-1.18 1.918 1.918 0 01.429-2.074l.969 1.531c.125.2.39.258.586.13a.437.437 0 00.128-.598l-.957-1.508a1.853 1.853 0 011.965.535c.496.558.621 1.355.32 2.039a1.874 1.874 0 01-1.71 1.125zm0 0"/></g></svg>