<svg xmlns="http://www.w3.org/2000/svg" width="6" height="10" viewBox="0 0 6 10"><path d="M1.8 6.563c.02-.036.063-.051.106-.047.219.03.446.023.664-.02.45-.066.895-.27 1.301-.594.07-.05.14-.101.211-.16.008-.008.234-.254.32-.355l.008-.008 1.574-2.375a.103.103 0 00-.035-.145l-.64-.379a.098.098 0 01-.036-.14l.676-1.016a.096.096 0 00-.011-.125.115.115 0 00-.04-.047L5.473.895a.106.106 0 00-.145.03L4.66 1.954a.106.106 0 01-.144.031h-.004l-.598-.382a.102.102 0 01-.031-.141l.68-1.043c.03-.047.015-.11-.036-.14L4.105.02a.11.11 0 00-.148.03l-.664 1.024a.11.11 0 01-.148.031L2.52.703C2.469.672 2.402.683 2.37.73v.004L.81 3.117c-.004.004-.004.008-.008.012-.54 1.09-.469 2.176.203 2.883a.1.1 0 01.012.125C.418 7.035-.32 8.152.148 9.145c.165.34.438.609.758.84l1.852.011c-.106-.055-.215-.11-.324-.164-.594-.289-1.262-.617-1.47-1.047-.265-.562.329-1.46.81-2.183.007-.012.015-.028.027-.04zm0 0" fill="#4d4d4d"/></svg>