<svg xmlns="http://www.w3.org/2000/svg" width="11" height="11" viewBox="0 0 11 11"><g fill="#4d4d4d"><path d="M8.832 6.79c-.422 0-.836.116-1.187.343L6.758 6.09l.449-1.027c0-.004.176-.004.176-.004H8.94c.301 0 .543-.239.543-.528V.527A.534.534 0 008.941 0H5.254c-.3 0-.543.234-.543.527v4.004c0 .29.242.528.543.528h1.453l-.293.71-2.902-.007-.008-.016-.024-.023.172-.489h.653a.21.21 0 100-.418h-.961L2.91 6.063l-.27.777a2.136 2.136 0 00-.472-.05C.973 6.79 0 7.733 0 8.894 0 10.055.973 11 2.168 11c1.195 0 2.168-.945 2.168-2.105 0-.86-.531-1.598-1.29-1.926l.27-.77L5.41 8.957c.04.05.102.082.172.082H6.668C6.746 10.133 7.688 11 8.832 11 10.027 11 11 10.055 11 8.895c0-1.16-.973-2.106-2.168-2.106zm-2.84-5.692c0-.036.028-.067.067-.067h1.234c.98 0 1.129.614 1.129.98 0 .622-.402.962-1.129.962h-.606v.988c0 .035-.03.062-.066.062H6.06c-.04 0-.067-.027-.067-.062zM3.906 8.895c0 .93-.777 1.69-1.738 1.69S.43 9.826.43 8.896c0-.934.777-1.692 1.738-1.692.113 0 .223.012.332.031l-.54 1.54c-.038.109.024.226.134.261.113.04.234-.02.273-.129l.54-1.543c.609.282 1 .875 1 1.532zm4.453-.27H7.113c.059-.344.223-.66.473-.91zm-2.851-.238l-1.68-2.211 2.445.011zm.37.238l.72-2.07.715.84a2.062 2.062 0 00-.63 1.23zm2.954 1.96c-.91 0-1.656-.683-1.734-1.546h1.707a.222.222 0 00.191-.125.209.209 0 00-.027-.226L7.918 7.457c.277-.168.59-.254.914-.254.961 0 1.738.758 1.738 1.692 0 .93-.777 1.69-1.738 1.69zm0 0"/><path d="M7.738 2.012c0-.332-.21-.516-.597-.516h-.454v1.012h.454c.273 0 .597-.086.597-.496zm0 0"/></g></svg>