<svg xmlns="http://www.w3.org/2000/svg" width="8" height="10" viewBox="0 0 8 10"><path d="M0 5.77V4.617c0-.77.68-3.86.68-3.86C.746.34 1.16 0 1.602 0h4.796c.442 0 .856.34.922.758 0 0 .68 3.09.68 3.86V5.77c0 .77-.402 1.921-1.602 1.921H1.602C.402 7.691 0 6.921 0 5.77zm1.855 2.308h.543c.055 0 .11.027.137.074a.152.152 0 01.004.153l-.894 1.613a.16.16 0 01-.141.082H.359a.156.156 0 01-.121-.258l1.5-1.613a.149.149 0 01.117-.05zm5.243-3.793a.157.157 0 00.082-.164L6.598.875C6.59.835 6.516.77 6.465.77h-4.91c-.051 0-.13.066-.133.105L.82 4.121a.157.157 0 00.082.164c.38.192 1.739.836 3.098.836 1.36 0 2.719-.644 3.098-.836zM2.313 5.727l-1.278-.614a.159.159 0 00-.156.004.156.156 0 00-.078.133v.785c0 .07.05.13.12.149l1.282.308c.047.012.098 0 .137-.031a.15.15 0 00.062-.121v-.477a.154.154 0 00-.09-.136zm3.265 2.351h.54c.042 0 .085.016.116.05l1.52 1.614c.043.047.055.11.031.168a.167.167 0 01-.148.09H6.492a.164.164 0 01-.14-.082l-.915-1.613a.152.152 0 010-.153.166.166 0 01.141-.074zM7.2 6.035V5.25a.156.156 0 00-.078-.133.159.159 0 00-.156-.004l-1.277.614a.154.154 0 00-.09.136v.477a.15.15 0 00.062.12c.04.032.09.044.137.032l1.281-.308c.07-.02.121-.079.121-.149zm0 0" fill="#4d4d4d"/></svg>