<svg xmlns="http://www.w3.org/2000/svg" width="30" height="30"><circle style="isolation:auto;mix-blend-mode:normal;solid-color:#000;solid-opacity:1;marker:none" cx="15" cy="15" r="14.5" color="#000" overflow="visible" fill="#008ecf" fill-rule="evenodd" stroke="#fff"/><g fill="#fff"><path d="M19.078 18.172h-3.137v-1.133h3.137zm-10.984-.567H12.8c1.57 0 2.094-1.128 2.094-2.257v-1.696l-.887-4.535c-.09-.613-.633-1.11-1.207-1.11H8.094c-.578 0-1.117.497-1.207 1.11L6 13.652v1.696c0 1.129.523 2.257 2.094 2.257zm5.754-1.976l-2.094.566v-.847l2.094-1.13zM7.855 9.293c.008-.063.114-.156.172-.156h4.864c.058 0 .164.093.172.16l.785 3.793s-1.309 1.305-3.403 1.305c-2.09 0-3.398-1.305-3.398-1.305zm-.808 4.926l2.094 1.129v.847l-2.094-.566zm1.289 3.953H9.48l-1.386 2.82H6zm4.187 0l2.372 2.82H12.8l-1.426-2.82zm0 0"/><path d="M22.492 14.48l-.793-.007a.196.196 0 01-.191-.184c-.09-1.207-.66-2.059-1.754-2.477-.996-.496-3.02-.597-4.516-.457l.098.5c.23-.007.469-.011.719-.011h.593c2.395 0 4.317.183 4.372 2.93.023 1.14-2.012 1.43-4.407 1.43-.324 0-.64-.005-.945-.017-.121 1.04-.668 1.985-1.934 2.196l.743.914c1.546.031 4.3.02 5.363-.043.05 0 .101.02.14.055a.2.2 0 01.06.144v.223c.003.535.42.969.937.972h.062c.516-.003.934-.437.934-.972v-1.059-.062a.201.201 0 01.035-.133c.289-.418.406-1.14.406-1.55 0-.321-.023-.677-.18-.981a.204.204 0 01-.004-.172.188.188 0 01.122-.11c.02-.004.035-.011.054-.015.426-.137.594-.297.594-.586a.521.521 0 00-.508-.528zm-2.25 3.848c-.441 0-.797-.371-.797-.828 0-.457.356-.828.797-.828.442 0 .801.371.801.828 0 .457-.36.828-.8.828zm0 0"/></g></svg>