<svg xmlns="http://www.w3.org/2000/svg" width="30" height="30"><circle style="isolation:auto;mix-blend-mode:normal;solid-color:#000;solid-opacity:1;marker:none" cx="15" cy="15" r="14.5" color="#000" overflow="visible" fill="#008ecf" fill-rule="evenodd" stroke="#fff"/><path d="M8 16.23v-1.843c0-1.23 1.105-6.172 1.105-6.172.102-.668.782-1.211 1.497-1.211h7.796c.715 0 1.391.543 1.497 1.21 0 0 1.105 4.942 1.105 6.173v1.843c0 1.23-.648 3.075-2.602 3.075h-7.796C8.648 19.305 8 18.075 8 16.23zm3.016 3.692h.879c.093 0 .175.043.222.117.047.074.051.168.008.242l-1.453 2.582a.256.256 0 01-.227.133H8.582a.264.264 0 01-.238-.144.232.232 0 01.043-.266l2.433-2.582a.263.263 0 01.196-.082zm8.52-6.067a.241.241 0 00.132-.257l-.941-5.192c-.016-.066-.137-.172-.215-.172h-7.989c-.078 0-.21.106-.214.172l-.977 5.192a.244.244 0 00.133.257c.613.31 2.824 1.336 5.035 1.336 2.21 0 4.422-1.027 5.035-1.336zm-7.778 2.305l-2.082-.98a.278.278 0 00-.254.008.251.251 0 00-.121.21v1.254c0 .114.082.211.195.239l2.082.492c.078.02.16.004.223-.043a.246.246 0 00.097-.195v-.762a.25.25 0 00-.14-.223zm5.305 3.762h.878c.07 0 .141.027.192.078l2.472 2.582c.07.074.086.18.047.266a.265.265 0 01-.238.148h-1.86a.272.272 0 01-.23-.129l-1.488-2.582a.242.242 0 01.004-.246.262.262 0 01.223-.117zm2.636-3.27v-1.254a.251.251 0 00-.12-.21.278.278 0 00-.255-.008l-2.082.98a.25.25 0 00-.14.223v.762c0 .074.035.148.097.195a.264.264 0 00.223.043l2.082-.492a.25.25 0 00.195-.239zm0 0" fill="#fff"/></svg>