<svg xmlns="http://www.w3.org/2000/svg" width="10" height="11" viewBox="0 0 10 11"><path d="M7.89 0H2.11C.944 0 .003.898.003 2.012v6.816c0 .39.332.707.742.707h.027v.902c0 .313.262.563.586.563h.364c.324 0 .586-.25.586-.563v-.902h5.386c-.004.016-.004.035-.004.055v.867c0 .297.254.543.57.543h.395c.317 0 .57-.246.57-.543V9.59c0-.02 0-.04-.003-.055h.03c.411 0 .743-.316.743-.707V2.012C9.996.898 9.055 0 7.891 0zM2.376 1.102h5.25c.105 0 .195.082.195.183 0 .098-.09.18-.195.18h-5.25c-.105 0-.195-.082-.195-.18 0-.101.09-.183.195-.183zM1.539 8.8c-.422 0-.766-.328-.766-.735 0-.406.344-.734.766-.734.426 0 .77.328.77.734 0 .407-.344.735-.77.735zm6.922 0c-.426 0-.77-.328-.77-.735 0-.406.344-.734.77-.734.422 0 .766.328.766.734 0 .407-.344.735-.766.735zm.766-3.215a.285.285 0 01-.293.281H1.066a.285.285 0 01-.293-.281V2.48c0-.156.13-.28.293-.28h7.868c.164 0 .293.124.293.28zm0 0" fill="#4d4d4d"/></svg>