<svg xmlns="http://www.w3.org/2000/svg" width="30" height="30"><circle style="isolation:auto;mix-blend-mode:normal;solid-color:#000;solid-opacity:1;marker:none" cx="15" cy="15" r="14.5" color="#000" overflow="visible" fill="#008ecf" fill-rule="evenodd" stroke="#fff"/><path d="M17.129 14.93v1.765l-.762.258v-1.77zm.691-.23v1.765l.762-.254v-1.77zm1.45-.493v1.766l.765-.254v-1.77zm1.453-.488v1.77l.765-.259v-1.765zM23 14.727l-.492-1.602-.336.113v1.766zm-7.32.687v1.77l-.762.253-.05 4.543-7.833.016-.015-1.422h.464V8.68h-.468L7 8.02l7.922-.016.015.664-1.734.004v11.894l.207-.003v-4.704c0-.437.34-.793.762-.793.355 0 .664.262.742.625v-.02zm-3.16-6.027H8.145v4.703h4.375zm0 0" fill="#fff"/></svg>