<svg xmlns="http://www.w3.org/2000/svg" width="11" height="10" viewBox="0 0 11 10"><path d="M10.55 4.55l-.698-.007a.17.17 0 01-.168-.16c-.079-1.067-.621-1.781-1.547-2.188V.422A.414.414 0 007.73.004H3.137a.41.41 0 00-.403.418v1.672c-.261.11-.492.258-.683.457-.52.547-.82 1.195-.864 1.84a.168.168 0 01-.167.164L.45 4.55a.46.46 0 00-.45.465c0 .21.027.449.535.55.05.008.094.043.117.094.024.05.024.11 0 .156-.14.266-.152.555-.152.848 0 .379.125.938.398 1.332a.2.2 0 01.032.125c-.004.027-.004.055-.004.082v.938c0 .472.367.855.824.855h.055c.453 0 .824-.383.824-.855v-.368h.012c.722.063 4.367.067 5.57-.003a.154.154 0 01.125.046.169.169 0 01.055.125v.2c0 .472.367.855.824.855h.055c.453 0 .824-.383.824-.855v-.938-.055a.178.178 0 01.031-.117c.258-.367.355-1.008.355-1.367 0-.285-.02-.598-.156-.867a.188.188 0 01-.004-.152.174.174 0 01.106-.098.193.193 0 00.05-.016c.376-.117.524-.258.524-.515a.46.46 0 00-.45-.465zm-7.98 3.4a.72.72 0 01-.707-.731.72.72 0 01.707-.73c.387 0 .703.327.703.73 0 .402-.316.73-.703.73zm-.972-3.141C1.754 2.367 3.035 2.23 4.87 2.223h.524c2.117 0 3.812.164 3.859 2.586.02 1.011-1.774 1.265-3.89 1.265-2.114 0-3.833-.258-3.766-1.265zm6.968 3.14c-.386 0-.703-.328-.703-.73 0-.403.317-.73.703-.73a.72.72 0 01.707.73.72.72 0 01-.707.73zM3.48.574h-.43V.262h1.231v.312h-.437v1.344H3.48zm1.196.918l-.117.426h-.372L4.676.262h.472l.497 1.656h-.391l-.121-.426zm.406-.277L4.98.859a9.417 9.417 0 01-.082-.316h-.003c-.024.098-.047.223-.075.316l-.093.356zm1.563.703L6.5 1.621c-.059-.117-.098-.203-.145-.3h-.003c-.032.097-.075.183-.125.3l-.133.297h-.41l.46-.836L5.7.262h.414l.14.3c.048.102.083.184.122.278h.004c.039-.106.07-.18.11-.277l.136-.301h.414l-.453.808.476.848zM7.617.262v1.656h-.363V.262zm0 0" fill="#4d4d4d"/></svg>