<svg xmlns="http://www.w3.org/2000/svg" width="30" height="30"><circle style="isolation:auto;mix-blend-mode:normal;solid-color:#000;solid-opacity:1;marker:none" cx="15" cy="15" r="14.5" color="#000" overflow="visible" fill="#fff" fill-rule="evenodd" stroke="#008ecf"/><g fill="#4d4d4d"><path d="M22.617 9.355v.473l-1.273 1.184-.637-.676-.703.719-.637-.72-.637.763-.671-.727-.938.844h-1.09a2.758 2.758 0 01-3.117 1.258 2.781 2.781 0 01-2.031-2.696 2.782 2.782 0 012.047-2.68 2.754 2.754 0 013.11 1.282h5.573zm-10.152-.359a.778.778 0 00-.777.781c0 .43.347.782.777.782a.78.78 0 00.777-.782.778.778 0 00-.777-.78zm0 0M19.648 16.258a3.33 3.33 0 00-1.836.55l-1.37-1.667.472-1.41v-.008l.727.004c.16 0 .289-.13.289-.29a.29.29 0 00-.29-.292l-2.304-.008h-.004a.294.294 0 00-.289.293c0 .16.129.289.289.289l.887.004-.305.906-4.484-.016-.016-.02a.153.153 0 00-.031-.038l.262-.785h1.007a.332.332 0 00.328-.336.328.328 0 00-.328-.332h-1.484l-.668 1.996-.418 1.242a3.298 3.298 0 00-.73-.082c-1.844 0-3.348 1.512-3.348 3.37 0 1.86 1.504 3.372 3.348 3.372 1.847 0 3.351-1.512 3.351-3.371 0-1.375-.82-2.559-1.996-3.082l.418-1.23 3.234 4.41c.063.086.16.136.266.136.008 0 .016 0 .023-.004a.042.042 0 00.02.004h1.637c.12 1.75 1.574 3.137 3.343 3.137 1.844 0 3.348-1.512 3.348-3.371 0-1.86-1.504-3.371-3.348-3.371zm-7.609 3.37c0 1.493-1.203 2.708-2.687 2.708-1.48 0-2.688-1.215-2.688-2.707 0-1.492 1.207-2.707 2.688-2.707.171 0 .343.02.515.05l-.832 2.462a.336.336 0 00.207.425.33.33 0 00.418-.21l.836-2.47a2.71 2.71 0 011.543 2.45zm6.879-.433h-1.922c.086-.547.34-1.054.727-1.453zm-1.621-1.965a3.39 3.39 0 00-.973 1.965h-1.238l1.105-3.312zm-1.606-1.937l-1.175 3.523-2.594-3.535zm3.957 7.043a2.699 2.699 0 01-2.68-2.473h2.634a.35.35 0 00.258-.566l-1.622-1.969c.422-.265.91-.406 1.41-.406 1.48 0 2.688 1.215 2.688 2.707 0 1.492-1.207 2.707-2.688 2.707zm0 0"/></g></svg>