<svg xmlns="http://www.w3.org/2000/svg" width="30" height="30"><circle style="isolation:auto;mix-blend-mode:normal;solid-color:#000;solid-opacity:1;marker:none" cx="15" cy="15" r="14.5" color="#000" overflow="visible" fill="#fff" fill-rule="evenodd" stroke="#008ecf"/><g fill="#4d4d4d"><path d="M19.648 16.492a3.386 3.386 0 00-1.836.531l-1.37-1.609.695-1.594s.273 0 .273-.004h2.41c.461 0 .836-.363.836-.812V6.812A.825.825 0 0019.82 6h-5.699a.826.826 0 00-.84.812v6.192c0 .45.375.812.84.812h2.242l-.449 1.102-4.484-.016-.016-.02a.352.352 0 00-.035-.038l.266-.758h1.007c.18 0 .328-.145.328-.32 0-.18-.148-.32-.328-.32h-1.484l-.668 1.921-.422 1.2a3.502 3.502 0 00-.726-.075C7.504 16.492 6 17.95 6 19.746 6 21.54 7.504 23 9.352 23c1.847 0 3.347-1.46 3.347-3.254 0-1.328-.82-2.469-1.992-2.976l.414-1.188 3.238 4.258c.063.082.16.129.266.129H16.308c.118 1.691 1.57 3.031 3.34 3.031C21.496 23 23 21.54 23 19.746c0-1.797-1.504-3.254-3.352-3.254zm-4.386-8.797c0-.054.043-.097.097-.097h1.914c1.512 0 1.739.945 1.739 1.511 0 .957-.617 1.485-1.739 1.485h-.941v1.531a.1.1 0 01-.102.098h-.87a.1.1 0 01-.098-.098zm-3.223 12.051c0 1.438-1.207 2.61-2.687 2.61-1.485 0-2.692-1.172-2.692-2.61 0-1.441 1.207-2.613 2.692-2.613.171 0 .343.015.511.047l-.832 2.379a.318.318 0 00.207.406.33.33 0 00.418-.2l.836-2.382a2.604 2.604 0 011.547 2.363zm6.879-.418h-1.922c.09-.531.344-1.02.727-1.402zm-4.402-.367l-2.598-3.414 3.773.012zm.57.367l1.11-3.2 1.105 1.298a3.203 3.203 0 00-.973 1.902zm4.562 3.027c-1.402 0-2.558-1.05-2.675-2.386h2.632a.342.342 0 00.301-.196.331.331 0 00-.043-.347l-1.625-1.903c.426-.253.914-.39 1.41-.39 1.485 0 2.692 1.172 2.692 2.613 0 1.438-1.207 2.61-2.692 2.61zm0 0"/><path d="M17.957 9.11c0-.516-.328-.797-.922-.797h-.703v1.562h.703c.422 0 .922-.133.922-.766zm0 0"/></g></svg>