<svg xmlns="http://www.w3.org/2000/svg" width="10" height="8" viewBox="0 0 10 8"><g fill="#4d4d4d"><path d="M7.691 6.258H5.848v-.696H7.69zm-6.46-.348H4c.922 0 1.23-.695 1.23-1.39V3.48L4.71.688C4.657.307 4.34.003 4 .003H1.23C.89.004.574.309.523.687L0 3.48v1.04c0 .695.309 1.39 1.23 1.39zm3.386-1.215l-1.23.348V4.52l1.23-.692zM1.09.797c.008-.04.066-.098.101-.098h2.864c.035 0 .093.059.101.098l.461 2.336s-.77.8-2 .8-2-.8-2-.8zM.617 3.828l1.23.692v.523l-1.23-.348zm.758 2.43h.672L1.23 7.996H0zm2.46 0L5.23 7.996H4l-.84-1.738zm0 0"/><path d="M9.703 3.988l-.469-.004a.125.125 0 01-.113-.113c-.05-.742-.387-1.27-1.031-1.527-.586-.301-1.774-.364-2.656-.281l.058.312c.137-.008.278-.008.422-.008h.348c1.41 0 2.543.113 2.574 1.801.012.703-1.184.879-2.594.879-.191 0-.375-.004-.554-.008-.07.64-.395 1.219-1.137 1.348l.437.566c.91.02 2.528.012 3.153-.027.03 0 .062.011.082.035.023.02.035.055.035.086v.14c.004.329.25.594.55.594h.036c.304 0 .55-.265.55-.593v-.653-.039c0-.031.008-.059.024-.082.168-.258.238-.703.238-.953 0-.2-.015-.418-.105-.606a.14.14 0 01-.004-.105.108.108 0 01.07-.066.27.27 0 00.031-.012c.254-.082.352-.184.352-.36 0-.18-.133-.324-.297-.324zM8.38 6.355c-.262 0-.469-.226-.469-.507 0-.282.207-.512.469-.512.258 0 .469.23.469.512 0 .28-.211.507-.47.507zm0 0"/></g></svg>