<svg xmlns="http://www.w3.org/2000/svg" width="8" height="10" viewBox="0 0 8 10"><path d="M0 5.77V4.617C0 3.847.68.762.68.762c.062-.422.48-.758.922-.758h4.796c.442 0 .856.336.922.758 0 0 .68 3.086.68 3.855V5.77c0 .77-.398 1.921-1.602 1.921H1.602C.398 7.691 0 6.921 0 5.77zm1.855 2.304h.543c.055 0 .106.028.137.074a.152.152 0 01.004.153l-.894 1.613a.16.16 0 01-.141.082H.359a.162.162 0 01-.148-.09.143.143 0 01.027-.164l1.496-1.617a.171.171 0 01.121-.05zm5.243-3.789a.152.152 0 00.082-.164L6.602.88C6.594.836 6.516.773 6.469.773H1.55c-.047 0-.13.063-.133.106L.82 4.12a.152.152 0 00.082.164c.38.192 1.739.836 3.098.836 1.36 0 2.723-.644 3.098-.836zM2.313 5.727L1.03 5.109a.17.17 0 00-.156.008.152.152 0 00-.074.133v.781c0 .074.05.133.12.153l1.278.304c.051.012.102.004.14-.027a.146.146 0 00.06-.121v-.477a.15.15 0 00-.087-.136zm3.265 2.347h.54a.17.17 0 01.116.051l1.524 1.613a.15.15 0 01.027.168.16.16 0 01-.144.09H6.496a.164.164 0 01-.14-.078l-.918-1.613c-.028-.051-.028-.11.003-.153a.158.158 0 01.137-.078zM7.2 6.031V5.25a.152.152 0 00-.074-.133.17.17 0 00-.156-.008l-1.282.618a.15.15 0 00-.085.136v.477c0 .047.02.094.058.12.04.032.09.04.14.028l1.278-.304A.158.158 0 007.2 6.03zm0 0" fill="#4d4d4d"/></svg>