<svg xmlns="http://www.w3.org/2000/svg" width="30" height="30"><circle style="isolation:auto;mix-blend-mode:normal;solid-color:#000;solid-opacity:1;marker:none" cx="15" cy="15" r="14.5" color="#000" overflow="visible" fill="#008ecf" fill-rule="evenodd" stroke="#fff"/><path d="M18.836 6h-8.672c-1.742 0-3.16 1.39-3.16 3.105v10.536c0 .605.5 1.093 1.113 1.093h.043v1.399c0 .476.395.867.883.867h.539c.488 0 .883-.39.883-.867v-1.399h8.078a.585.585 0 00-.008.086v1.336a.85.85 0 00.856.844h.593a.85.85 0 00.856-.844V20.82a.585.585 0 00-.008-.086h.05c.614 0 1.114-.488 1.114-1.093V9.105c0-1.714-1.418-3.105-3.16-3.105zm-8.274 1.7h7.875c.16 0 .29.128.29.284a.284.284 0 01-.29.282h-7.875a.284.284 0 01-.289-.282c0-.156.13-.285.29-.285zm-1.25 11.902a1.144 1.144 0 01-1.152-1.137c0-.625.516-1.133 1.152-1.133.637 0 1.153.508 1.153 1.133 0 .629-.516 1.137-1.153 1.137zm10.375 0a1.144 1.144 0 01-1.152-1.137c0-.625.516-1.133 1.152-1.133.637 0 1.153.508 1.153 1.133 0 .629-.516 1.137-1.152 1.137zm1.153-4.965c0 .238-.195.43-.438.43H8.598a.433.433 0 01-.438-.43V9.832c0-.238.195-.434.438-.434h11.804c.243 0 .438.196.438.434zm0 0" fill="#fff"/></svg>