<svg xmlns="http://www.w3.org/2000/svg" width="30" height="30"><circle style="isolation:auto;mix-blend-mode:normal;solid-color:#000;solid-opacity:1;marker:none" cx="15" cy="15" r="14.5" color="#000" overflow="visible" fill="#008ecf" fill-rule="evenodd" stroke="#fff"/><path d="M22.348 12.922l-1.25-.016c-.082-2.832-2.72-4.89-6.309-4.906-1.89-.004-3.64.707-4.805 1.957-.82.879-1.265 1.934-1.265 2.973l-1.067-.008c-.359.004-.652.308-.652.691 0 .36.055.774 1.164.864-.406.48-.437 1.02-.437 1.578 0 .586.199 1.472.64 2.062a1.078 1.078 0 00-.023.223v1.648c.004.555.43 1.008.957 1.012h.566c.528-.004.957-.457.957-1.012v-.808c.004 0 .012 0 .016.004 1.11.093 6.965.097 8.363-.028v.832c0 .555.43 1.008.957 1.012h.567c.527-.004.953-.457.957-1.012V18.34a.892.892 0 00-.016-.176c.418-.527.578-1.547.578-2.11 0-.523-.043-1.105-.402-1.562.14-.039.277-.078.39-.113.551-.18.766-.39.766-.766 0-.383-.293-.687-.652-.691zm-11.953-2.54c1.05-1.128 2.636-1.773 4.363-1.773h.027c3.305.016 5.719 1.864 5.742 4.399.004.27-.03.535-.093.797-.082.07-.188.152-.313.238a2.269 2.269 0 00-1.387-1.242c.38-.317.524-.856.36-1.336-.164-.48-.598-.793-1.082-.781-.48.011-.903.351-1.043.84-.14.488.031 1.015.422 1.312-.266.098-.516.25-.73.445a1.87 1.87 0 00-1.442-1.492.868.868 0 00.293-.95.806.806 0 00-.77-.581.81.81 0 00-.754.605.867.867 0 00.32.942 1.864 1.864 0 00-1.382 1.53 2.277 2.277 0 00-.735-.48c.403-.28.59-.804.461-1.3-.125-.492-.539-.844-1.02-.871a1.127 1.127 0 00-1.105.754 1.232 1.232 0 00.328 1.343 2.233 2.233 0 00-1.351 1.078 2.773 2.773 0 01-.125-.152 3.804 3.804 0 01-.082-.73c-.02-.895.371-1.817 1.098-2.594zm-.52 3.837c.39-.805 1.277-1.192 2.09-.906.808.289 1.3 1.16 1.152 2.054-1.71-.176-2.695-.703-3.242-1.148zm6.512.84c0-.864.57-1.61 1.367-1.79.797-.183 1.605.254 1.941 1.04-.664.37-1.71.78-3.293.984a1.575 1.575 0 01-.015-.234zm-.047-1.414a2.44 2.44 0 00-.445 1.414c0 .097.003.195.015.289-.34.035-.707.058-1.094.07-.433.016-.836.008-1.203-.012a2.463 2.463 0 00-.352-1.652 1.214 1.214 0 01-.011-.168c0-.816.695-1.48 1.547-1.48.851 0 1.547.664 1.547 1.48 0 .02-.004.039-.004.059zm0 0" fill="#fff"/></svg>