<svg xmlns="http://www.w3.org/2000/svg" width="30" height="30"><circle style="isolation:auto;mix-blend-mode:normal;solid-color:#000;solid-opacity:1;marker:none" cx="15" cy="15" r="14.5" color="#000" overflow="visible" fill="#fff" fill-rule="evenodd" stroke="#008ecf"/><path d="M10.668 9.059h1.613l-.344 11.933H7zm12.031-.051l-4.867.02c-.273.003-.402.363-.191.554l1.304 1.172c.016.012.02.031.02.05-.004.016-.016.032-.031.036-.414.156-2.332.933-3.235 2.238l-1.203-4.02H12.81l.394 11.934h4.883l-.512-1.734c-.312-1.266-.656-2.914-.57-3.77a4.111 4.111 0 012.766-3.578c.02-.008.039.004.043.024l.671 2.203c.086.273.45.293.559.027l1.934-4.719a.331.331 0 00-.028-.297.282.282 0 00-.25-.14zm0 0" fill="#4d4d4d"/></svg>