<svg xmlns="http://www.w3.org/2000/svg" width="30" height="30"><circle style="isolation:auto;mix-blend-mode:normal;solid-color:#000;solid-opacity:1;marker:none" cx="15" cy="15" r="14.5" color="#000" overflow="visible" fill="#fff" fill-rule="evenodd" stroke="#008ecf"/><path d="M8.004 16.23v-1.847c0-1.23 1.105-6.172 1.105-6.172C9.211 7.543 9.887 7 10.602 7h7.796c.715 0 1.391.543 1.493 1.21 0 0 1.105 4.942 1.105 6.173v1.847c0 1.23-.648 3.079-2.598 3.079h-7.796c-1.95 0-2.598-1.23-2.598-3.079zm3.012 3.692h.882c.09 0 .176.047.223.121a.234.234 0 01.004.242l-1.45 2.586a.267.267 0 01-.23.129H8.582a.258.258 0 01-.234-.145.232.232 0 01.043-.265l2.433-2.586a.262.262 0 01.192-.082zm8.515-6.067a.239.239 0 00.133-.257l-.941-5.196c-.012-.066-.137-.172-.215-.172h-7.985c-.078 0-.207.106-.214.172l-.973 5.192c-.02.105.035.21.133.261.613.31 2.82 1.336 5.031 1.336 2.21 0 4.422-1.027 5.031-1.336zm-7.773 2.31L9.68 15.18a.277.277 0 00-.254.007.246.246 0 00-.125.211v1.254c0 .114.082.215.199.243l2.078.492a.28.28 0 00.223-.047.244.244 0 00.101-.195v-.762a.238.238 0 00-.144-.219zm5.305 3.757h.875c.074 0 .144.031.19.082l2.474 2.586c.07.07.09.176.046.262a.265.265 0 01-.238.148h-1.86a.266.266 0 01-.226-.129l-1.488-2.582a.233.233 0 01.004-.246.266.266 0 01.223-.121zm2.636-3.27v-1.254a.246.246 0 00-.125-.21.277.277 0 00-.254-.008l-2.078.984a.238.238 0 00-.144.219v.762c0 .078.039.148.101.195a.28.28 0 00.223.047l2.078-.492a.253.253 0 00.2-.243zm0 0" fill="#4d4d4d"/></svg>