<svg xmlns="http://www.w3.org/2000/svg" width="30" height="30"><circle style="isolation:auto;mix-blend-mode:normal;solid-color:#000;solid-opacity:1;marker:none" cx="15" cy="15" r="14.5" color="#000" overflow="visible" fill="#fff" fill-rule="evenodd" stroke="#008ecf"/><path d="M8 7.336c0-.09.04-.176.102-.238A.363.363 0 018.348 7h6.617C20.207 7 21 10.285 21 12.234c0 3.309-2.145 5.137-6.035 5.137h-3.246v5.293c0 .09-.035.176-.102.238a.355.355 0 01-.246.098H8.348a.363.363 0 01-.246-.098.34.34 0 01-.102-.238zm9.344 4.91c0-1.781-1.13-2.758-3.184-2.758H11.72v5.414h2.441c1.45-.011 3.184-.468 3.184-2.656zm0 0" fill="#4d4d4d"/></svg>