<svg xmlns="http://www.w3.org/2000/svg" width="10" height="8" viewBox="0 0 10 8"><path d="M9.594 3.031l-.781-.011C8.758 1.277 7.112.012 4.867 0c-1.18-.004-2.273.434-3 1.203-.515.543-.793 1.192-.793 1.832l-.668-.004A.415.415 0 000 3.453c0 .223.031.477.727.535-.254.293-.274.625-.274.969 0 .36.125.906.402 1.27a.524.524 0 00-.015.136v1.012c0 .344.27.621.598.625h.355a.616.616 0 00.598-.625v-.496c.004 0 .007.004.007.004.696.058 4.356.058 5.227-.02v.512A.62.62 0 008.223 8h.355a.614.614 0 00.598-.625V6.363a1.03 1.03 0 00-.008-.11c.258-.323.36-.948.36-1.296 0-.32-.024-.68-.25-.96.09-.024.171-.048.245-.071.344-.11.477-.239.477-.473a.415.415 0 00-.406-.422zM2.12 1.465C2.777.773 3.77.375 4.848.375h.02c2.062.008 3.57 1.148 3.585 2.707.004.164-.015.328-.058.488-.051.043-.114.094-.196.149a1.417 1.417 0 00-.863-.766.752.752 0 00.223-.82.698.698 0 00-.676-.48.707.707 0 00-.653.515c-.085.3.02.625.266.809a1.332 1.332 0 00-.457.273 1.155 1.155 0 00-.902-.918.533.533 0 00.183-.586.505.505 0 00-.484-.355.502.502 0 00-.469.37.529.529 0 00.2.579c-.454.117-.801.488-.864.945a1.397 1.397 0 00-.457-.297.752.752 0 00.29-.8.714.714 0 00-.641-.536.697.697 0 00-.688.461.747.747 0 00.203.828 1.41 1.41 0 00-.848.664 1.092 1.092 0 01-.074-.093 2.477 2.477 0 01-.054-.45c-.008-.55.234-1.117.687-1.597zm-.324 2.363a1.065 1.065 0 011.305-.558c.507.175.816.714.722 1.261-1.07-.105-1.687-.43-2.027-.703zm4.07.516c0-.532.356-.992.856-1.102a1.067 1.067 0 011.21.64c-.413.227-1.07.481-2.058.606a1.791 1.791 0 01-.008-.144zm-.027-.871a1.477 1.477 0 00-.27 1.05c-.215.02-.441.036-.687.043-.27.008-.52.004-.75-.007a1.5 1.5 0 00-.219-1.02.825.825 0 01-.008-.102c0-.5.434-.91.965-.91.535 0 .969.41.969.91v.036zm0 0" fill="#4d4d4d"/></svg>