<svg xmlns="http://www.w3.org/2000/svg" width="10" height="10" viewBox="0 0 10 10"><g fill="#4d4d4d"><path d="M2.969 5.023V5.02h1.398c.266 0 .485-.23.485-.52V.523c0-.289-.22-.523-.485-.523H1.063C.792 0 .578.234.578.523V4.5c0 .29.215.52.485.52h1.3zM1.723 1.086c0-.016.007-.031.02-.043a.048.048 0 01.038-.02h1.11c.875 0 1.007.61 1.007.973 0 .613-.359.953-1.007.953h-.543v.98c0 .02-.008.036-.02.048a.05.05 0 01-.039.015h-.508c-.015 0-.031-.004-.039-.015a.065.065 0 01-.02-.047zm0 0"/><path d="M3.29 1.996c0-.328-.192-.512-.536-.512h-.406v1.008h.406c.242-.004.535-.09.535-.496zm0 0M8.414 6.59c-.215 0-.426.047-.625.137l-.559-.938.184.008V4.742c-.457 0-.64.211-.715.363L5.516 4.43c-.102-.059-.223-.02-.278.09l-.054.113a.232.232 0 00.082.3l.625.356c-2.215.293-2.305 1.05-2.387.996C3.148 6.027 1.574 6 1.574 6v.387c.41-.063.797.027 1.11.242l-.016.016-.2.234a1.496 1.496 0 00-1.937.144C-.008 7.54-.152 8.387.18 9.078c.332.692 1.054 1.055 1.761.879.704-.176 1.207-.84 1.227-1.617l.34-.043c.062.137 1.402.398 2.594.273.335-.035.43-.488.43-.488l.073-2.156.036-.133.726 1.223c-.574.543-.703 1.453-.308 2.156.394.707 1.199 1.008 1.914.719.714-.293 1.136-1.094.996-1.903-.137-.808-.79-1.398-1.555-1.398zM2.512 7.656c.039.067.074.137.101.211l-.316.043zM1.586 9.48c-.461 0-.875-.312-1.035-.777a1.252 1.252 0 01.324-1.312 1.032 1.032 0 011.258-.121l-.703.816a.256.256 0 00.011.336l.063.058a.208.208 0 00.238.043l.938-.12c-.051.609-.524 1.077-1.094 1.077zm1.516-1.675a1.753 1.753 0 00-.254-.54l.207-.238c.004-.007.011-.015.015-.023.153.207.274.465.352.758zM8.39 9.48c-.446 0-.848-.293-1.016-.738-.168-.445-.07-.96.25-1.297l.57.957c.075.125.23.16.348.082a.288.288 0 00.074-.375l-.562-.941a1.047 1.047 0 011.156.336c.289.348.363.848.187 1.273-.18.426-.57.703-1.007.703zm0 0"/></g></svg>