<svg xmlns="http://www.w3.org/2000/svg" width="11" height="7" viewBox="0 0 11 7"><g fill="#4d4d4d"><path d="M9.438 2.547L9.034 1.19h-.734L7.828 0h-.637l.13 1.191h-.5l-.204.946H.805l.27.726H0l.633 2.34c.168-.027.347-.098.531-.172.258-.101.52-.203.797-.215.379-.02.695.114.973.23.218.09.406.173.597.173.313 0 .531-.098.766-.2.207-.093.426-.187.7-.203.476-.027.823.118 1.128.247.164.07.313.132.457.156h.324c.223-.028.387-.11.555-.196.2-.097.406-.199.691-.222.434-.035.758.113 1.043.246.192.09.356.164.528.172l1.101-2.356.176-.316zm0 0M9.676 6.512c-.168-.008-.336-.082-.528-.172-.285-.133-.605-.281-1.043-.246-.28.023-.488.125-.687.222-.223.11-.434.215-.77.207-.18-.003-.359-.078-.566-.168-.309-.128-.652-.273-1.133-.246-.273.016-.488.11-.699.204-.23.101-.453.199-.766.199-.191 0-.379-.082-.597-.172-.278-.117-.594-.25-.973-.23-.273.011-.539.117-.793.214-.242.098-.469.188-.676.188A1.593 1.593 0 01.09 6.46l.004.488c.117.024.234.035.351.035.29 0 .567-.109.832-.214.235-.09.453-.176.657-.188.285-.012.527.09.785.2.238.097.488.202.765.202.407 0 .688-.125.942-.234.187-.082.351-.156.55-.168.376-.02.66.098.934.215.23.098.465.195.73.203h.044c.418 0 .687-.133.925-.254.176-.086.332-.164.532-.18.32-.023.566.09.824.207.219.102.441.204.7.211h.05c.348 0 .664-.097.87-.187v-.524c-.108.063-.487.25-.91.239zm0 0"/><path d="M9.676 5.613c-.168-.008-.336-.082-.528-.172-.285-.132-.605-.28-1.043-.246-.28.024-.488.125-.687.223-.223.113-.434.215-.77.207-.18-.004-.359-.078-.566-.164-.309-.133-.652-.277-1.133-.25-.273.016-.488.11-.699.203-.23.102-.453.2-.766.2-.191 0-.379-.083-.597-.173-.278-.117-.594-.25-.973-.23-.273.012-.539.117-.793.215-.242.097-.469.187-.676.187a1.593 1.593 0 01-.355-.05l.004.488c.117.023.234.035.351.035.29 0 .567-.11.832-.215.235-.09.453-.176.657-.187.285-.012.527.09.785.199.238.101.488.203.765.203.407 0 .688-.125.942-.234.187-.082.351-.157.55-.168.376-.02.66.101.934.214.23.098.465.2.73.204h.044c.418 0 .687-.133.925-.254.176-.086.332-.16.532-.18.32-.023.566.09.824.207.219.102.441.203.7.21h.05c.348 0 .664-.097.87-.187v-.52c-.108.06-.487.247-.91.235zm0 0"/></g></svg>