<svg xmlns="http://www.w3.org/2000/svg" width="30" height="30"><circle style="isolation:auto;mix-blend-mode:normal;solid-color:#000;solid-opacity:1;marker:none" cx="15" cy="15" r="14.5" color="#000" overflow="visible" fill="#fff" fill-rule="evenodd" stroke="#008ecf"/><path d="M22.309 13.828l-1.086-.012a.262.262 0 01-.254-.242c-.125-1.597-.961-2.672-2.395-3.285V7.633a.628.628 0 00-.625-.63h-7.101a.63.63 0 00-.625.63v2.504c-.399.168-.758.39-1.051.691-.805.82-1.27 1.79-1.336 2.758a.259.259 0 01-.262.246l-.883-.004a.694.694 0 00-.691.695c0 .317.043.676.824.825a.27.27 0 01.188.144.26.26 0 01-.004.235c-.215.398-.235.828-.235 1.27 0 .566.192 1.405.618 2 .035.05.054.116.047.183-.008.043-.008.082-.008.125v1.406c0 .707.57 1.281 1.277 1.285h.082a1.284 1.284 0 001.274-1.285v-.555c.007 0 .011.004.015.004 1.117.09 6.754.098 8.613-.008a.25.25 0 01.192.07c.055.051.082.118.082.192v.297a1.29 1.29 0 001.277 1.285h.082a1.29 1.29 0 001.278-1.285v-1.406c0-.028-.004-.055-.004-.082a.259.259 0 01.05-.176c.395-.55.551-1.508.551-2.05 0-.43-.031-.895-.242-1.306a.26.26 0 01-.008-.222.269.269 0 01.164-.149.412.412 0 00.075-.02c.585-.183.812-.394.812-.777a.694.694 0 00-.691-.695zm-12.34 5.098a1.094 1.094 0 01-1.086-1.098c0-.605.488-1.098 1.086-1.098.601 0 1.09.493 1.09 1.098 0 .606-.489 1.098-1.09 1.098zm-1.5-4.711c.242-3.664 2.222-3.871 5.058-3.88h.813c3.265 0 5.887.243 5.96 3.88.032 1.512-2.741 1.894-6.01 1.894-3.267 0-5.923-.382-5.821-1.894zm10.773 4.71c-.601 0-1.09-.491-1.09-1.097 0-.605.489-1.098 1.09-1.098.602 0 1.086.493 1.086 1.098 0 .606-.484 1.098-1.086 1.098zM11.38 7.864h-.664v-.472h1.902v.472h-.676V9.88h-.562zm1.844 1.38l-.176.636h-.578l.754-2.488h.734l.766 2.488h-.602l-.187-.637zm.629-.423l-.157-.527c-.043-.148-.086-.332-.12-.48h-.009c-.039.148-.074.335-.113.48l-.148.527zm2.414 1.059l-.223-.45c-.09-.175-.148-.304-.219-.449h-.008c-.05.145-.113.274-.191.45l-.203.449h-.64l.714-1.258-.687-1.23h.64l.219.453c.07.152.125.273.184.414h.007c.059-.156.106-.27.168-.414l.211-.453h.637l-.695 1.214.734 1.274zm1.507-2.488v2.488h-.558V7.39zm0 0" fill="#4d4d4d"/></svg>