<svg xmlns="http://www.w3.org/2000/svg" width="10" height="11" viewBox="0 0 10 11"><g fill="#4d4d4d"><path d="M7.598 0C6.273 0 5.199 2.46 5.199 5.5c0 .418.02.836.063 1.25.129-.086.273-.148.426-.188.171-.042.355-.042.53-.003a7.85 7.85 0 01-.05-.91c0-1.946.633-3.52 1.414-3.52.781 0 1.414 1.574 1.414 3.52 0 1.007-.172 1.921-.445 2.562l-.469-.363-.031.047C6.766 6.902 6.219 6.73 5.723 6.852c-.805.195-1.145 1.09-1.371 1.68-.051.132-.094.241-.13.316-.464.922-.628.922-1.07.922-.172 0-.238-.051-.277-.09-.223-.23-.215-.977-.188-1.864h.41a.31.31 0 00.31-.308V5.086a2.448 2.448 0 001.402-2.98A2.37 2.37 0 003.219.503C1.539-.004 0 1.238 0 2.832c0 .992.598 1.848 1.453 2.23 0 .012-.004.028-.004.04v2.402c.004.172.14.309.313.309h.258c-.036 1.14-.036 1.902.378 2.328.188.191.442.289.754.289.696 0 1.082-.125 1.668-1.285.051-.106.098-.23.157-.38.175-.46.441-1.16.906-1.269.285-.07.668.074 1.754.918l-.07.09.538.414c-.16.16-.34.25-.523.25-.414 0-.785-.445-1.047-1.156-.203-.078-.414-.117-.523-.09-.137.031-.356.195-.48.36C5.948 9.905 6.718 11 7.601 11 8.926 11 10 8.54 10 5.5 9.996 2.46 8.922 0 7.598 0zM2.273 4.809A1.992 1.992 0 01.47 3.016 1.993 1.993 0 012.637.859 1.989 1.989 0 014.44 2.652c.114 1.235-.925 2.266-2.168 2.157zm0 0"/><path d="M2.836 2.918a.37.37 0 01-.367.367.363.363 0 01-.114-.02.128.128 0 01-.062-.027.358.358 0 01-.191-.289c-.243-.445-.723-1.367-.61-1.441.11-.07.735.652 1.067 1.058a.36.36 0 01.277.352zm-.367-.2c-.106 0-.188.102-.188.223 0 .122.082.223.188.223.105 0 .187-.102.187-.223 0-.12-.082-.222-.187-.222zm0 0"/></g></svg>