<svg xmlns="http://www.w3.org/2000/svg" width="10" height="10" viewBox="0 0 10 10"><g fill="#4d4d4d"><path d="M9.777 1.473v.297l-.75.738-.375-.422-.414.45-.375-.45-.375.477-.394-.458-.555.528h-.637c-.379.676-1.129 1-1.836.789-.707-.211-1.195-.899-1.195-1.684.004-.785.496-1.472 1.207-1.68.707-.203 1.457.126 1.828.801h3.278zm-5.972-.227c-.254 0-.457.219-.457.488 0 .27.203.489.457.489.25 0 .453-.22.453-.489 0-.27-.203-.488-.453-.488zm0 0M8.027 5.785c-.382 0-.757.121-1.078.348L6.141 5.09l.277-.883.004-.004h.426c.093 0 .168-.082.168-.18 0-.101-.075-.183-.168-.183l-1.356-.004c-.094 0-.172.082-.172.184 0 .097.075.18.168.18l.524.003-.18.567-2.637-.012-.011-.012a.119.119 0 00-.02-.027l.156-.489h.594c.106 0 .191-.093.191-.207 0-.117-.085-.21-.19-.21h-.876l-.39 1.246-.25.777a1.924 1.924 0 00-.426-.05c-1.086 0-1.97.944-1.97 2.109C.004 9.055.888 10 1.974 10c1.086 0 1.968-.945 1.968-2.105 0-.86-.48-1.602-1.171-1.93l.246-.766 1.902 2.754a.185.185 0 00.156.086h.989C6.133 9.133 6.987 10 8.027 10c1.086 0 1.97-.945 1.97-2.105 0-1.165-.884-2.11-1.97-2.11zm-4.472 2.11c0 .93-.711 1.687-1.582 1.687-.871 0-1.582-.758-1.582-1.687 0-.934.71-1.692 1.582-1.692.101 0 .203.008.3.031l-.488 1.54c-.035.105.02.226.121.261.102.04.211-.02.246-.129l.493-1.543c.554.278.906.875.91 1.532zm4.043-.274h-1.13c.052-.34.2-.656.427-.906zm-.953-1.226a2.147 2.147 0 00-.57 1.226h-.731l.652-2.066zm-.942-1.211l-.695 2.203-1.524-2.211zm2.324 4.398c-.824 0-1.504-.68-1.574-1.543H8a.207.207 0 00.18-.129.227.227 0 00-.028-.223L7.2 6.454c.25-.164.535-.25.828-.25.871 0 1.582.758 1.582 1.692 0 .93-.71 1.687-1.582 1.687zm0 0"/></g></svg>