<svg xmlns="http://www.w3.org/2000/svg" width="30" height="30"><circle style="isolation:auto;mix-blend-mode:normal;solid-color:#000;solid-opacity:1;marker:none" cx="15" cy="15" r="14.5" color="#000" overflow="visible" fill="#fff" fill-rule="evenodd" stroke="#008ecf"/><path d="M9.66 16.066c.067-.02.137-.054.203-.054.067 0 .188.035.63.5.898.941 2.241 2.027 4.226 2.488l-7.746-.23c-.407-.016-.61-.23-.832-.696l-.133-.281zm4.414-.464l8.258 2.472c.355.125.66.41.66.781 0 .125-.031.145-.152.145l-5.98-.32zm-.27-.426l-2.378-2.613c-1.598-1.762-2.871-2.208-3.262-2.348.254-.145.543-.219.832-.215 2.516 0 5.828 4.734 6.371 5.656zm2.684 3.578h-.187c-2.754 0-3.399-.43-7.66-4.484-.938-.891-1.887-2.313-1.887-2.954 0-.586.289-.976.867-.976.422 0 1.39.285 3.566 2.648zm-1.75-5.285l2.633-.446.168.286-1.254 1.332c-.273-.07-.527-.106-.8-.07zm3.992 1.496l-.664 1.508-2.394-.727 2.277-2.402-.304-.531 4.007 1.312.63 1.285zm0 0" fill="#4d4d4d"/></svg>