<svg xmlns="http://www.w3.org/2000/svg" width="11" height="6" viewBox="0 0 11 6"><path d="M2.367 4.043c.043-.012.09-.035.133-.035.043 0 .121.023.406.332.582.629 1.45 1.351 2.739 1.66L.629 5.848c-.262-.012-.395-.157-.54-.465l-.085-.188zm2.86-.309l5.34 1.649c.23.082.43.273.43.523 0 .082-.024.094-.099.094l-3.87-.215zM5.05 3.45L3.51 1.707C2.478.535 1.653.238 1.399.145c.168-.098.352-.149.54-.145 1.628 0 3.769 3.156 4.12 3.77zm1.734 2.387h-.12c-1.782 0-2.2-.285-4.958-2.988C1.102 2.254.488 1.305.488.878c0-.39.188-.651.559-.651.277 0 .902.187 2.308 1.765zM5.652 2.312l1.707-.296.11.191-.817.887a1.29 1.29 0 00-.515-.047zm2.586.997l-.43 1.007-1.55-.484L7.73 2.23l-.195-.355 2.594.875.406.855zm0 0" fill="#4d4d4d"/></svg>