<svg xmlns="http://www.w3.org/2000/svg" width="30" height="30"><circle style="isolation:auto;mix-blend-mode:normal;solid-color:#000;solid-opacity:1;marker:none" cx="15" cy="15" r="14.5" color="#000" overflow="visible" fill="#fff" fill-rule="evenodd" stroke="#008ecf"/><path d="M19.648 13.188c-.652 0-1.289.195-1.836.558l-1.37-1.684.472-1.43v-.003h.727a.29.29 0 00.289-.293.292.292 0 00-.29-.293l-2.304-.008a.295.295 0 00-.004.59h.887l-.305.918-4.484-.016-.016-.023c-.012-.012-.023-.027-.035-.04l.266-.792h1.007c.18 0 .328-.149.328-.336a.334.334 0 00-.328-.336h-1.484l-.668 2.016-.422 1.254a3.238 3.238 0 00-.726-.082C7.504 13.188 6 14.714 6 16.593 6 18.473 7.504 20 9.352 20c1.847 0 3.347-1.527 3.347-3.406a3.409 3.409 0 00-1.992-3.114l.418-1.242 3.234 4.453c.063.086.16.137.266.137H16.308c.118 1.77 1.57 3.172 3.34 3.172C21.496 20 23 18.473 23 16.594c0-1.88-1.504-3.407-3.352-3.407zm-7.609 3.406c0 1.508-1.207 2.734-2.687 2.734-1.48 0-2.688-1.226-2.688-2.734s1.207-2.735 2.688-2.735c.171 0 .343.02.511.051l-.832 2.488a.337.337 0 00.207.426.328.328 0 00.422-.21l.832-2.493a2.732 2.732 0 011.547 2.473zm6.879-.438h-1.922c.086-.554.34-1.066.727-1.468zm-1.617-1.988a3.407 3.407 0 00-.973 1.988h-1.242l1.11-3.343zm-1.61-1.953l-1.175 3.558-2.598-3.574zm3.957 7.113c-1.402 0-2.558-1.101-2.68-2.5h2.634a.338.338 0 00.3-.203.357.357 0 00-.043-.367l-1.62-1.988c.425-.27.913-.41 1.41-.41 1.48 0 2.687 1.226 2.687 2.734s-1.207 2.734-2.688 2.734zm0 0" fill="#4d4d4d"/></svg>