<svg xmlns="http://www.w3.org/2000/svg" width="30" height="30"><circle style="isolation:auto;mix-blend-mode:normal;solid-color:#000;solid-opacity:1;marker:none" cx="15" cy="15" r="14.5" color="#000" overflow="visible" fill="#fff" fill-rule="evenodd" stroke="#008ecf"/><g fill="#4d4d4d"><path d="M18.398 7c-1.988 0-3.601 3.582-3.601 8 0 .61.031 1.215.098 1.82a1.93 1.93 0 01.636-.273c.258-.063.531-.063.793-.004-.047-.441-.07-.883-.074-1.324 0-2.832.953-5.121 2.121-5.121 1.172 0 2.121 2.289 2.121 5.117 0 1.469-.254 2.797-.668 3.73l-.699-.53-.05.065c-1.927-1.44-2.747-1.69-3.49-1.515-1.206.285-1.718 1.586-2.058 2.445a5.68 5.68 0 01-.195.457c-.695 1.34-.941 1.34-1.605 1.34-.258 0-.36-.07-.415-.125-.335-.336-.324-1.422-.28-2.715h.613c.257 0 .464-.199.468-.449v-3.52c1.637-.664 2.676-2.437 2.102-4.336-.34-1.117-1.235-1.992-2.387-2.332C9.308 6.996 7 8.805 7 11.121c0 1.441.898 2.688 2.184 3.242-.004.02-.008.04-.008.055v3.496c0 .25.21.45.465.45h.39c-.05 1.66-.054 2.769.567 3.386.28.281.664.422 1.132.422 1.04 0 1.622-.184 2.5-1.875.079-.149.149-.332.235-.547.265-.672.664-1.688 1.36-1.848.425-.101 1 .114 2.632 1.336l-.105.13.804.605c-.238.234-.504.363-.781.363-.621 0-1.18-.649-1.57-1.684-.305-.113-.621-.168-.79-.129-.206.047-.53.282-.722.524.629 2.363 1.781 3.953 3.11 3.953C20.386 23 22 19.418 22 15c-.004-4.418-1.613-8-3.602-8zm-7.988 6.996c-1.43-.125-2.578-1.234-2.707-2.61C7.54 9.59 9.093 8.09 10.957 8.25c1.43.121 2.582 1.23 2.707 2.61.168 1.796-1.387 3.296-3.254 3.136zm0 0"/><path d="M11.254 11.246c0 .14-.059.277-.16.375a.563.563 0 01-.656.09.531.531 0 01-.286-.422c-.363-.648-1.086-1.984-.914-2.094.164-.105 1.098.95 1.598 1.535a.536.536 0 01.418.516zm-.55-.289c-.161 0-.282.145-.282.32 0 .18.125.32.281.32.156 0 .277-.14.277-.32.004-.175-.12-.32-.277-.32zm0 0"/></g></svg>