<svg xmlns="http://www.w3.org/2000/svg" width="30" height="30"><circle style="isolation:auto;mix-blend-mode:normal;solid-color:#000;solid-opacity:1;marker:none" cx="15" cy="15" r="14.5" color="#000" overflow="visible" fill="#fff" fill-rule="evenodd" stroke="#008ecf"/><path d="M13 17.156a.172.172 0 01.176-.078c.367.05.742.04 1.11-.031.745-.117 1.487-.465 2.167-1.012.113-.086.23-.176.352-.273.011-.012.386-.43.53-.602.005-.008.009-.012.013-.02l2.625-4.035a.176.176 0 00-.055-.242s-.004 0-.004-.004l-1.066-.64a.17.17 0 01-.063-.239l.004-.003 1.129-1.723a.176.176 0 00-.02-.215.18.18 0 00-.07-.082l-.703-.434a.177.177 0 00-.246.055l-1.11 1.738a.183.183 0 01-.246.059c0-.004-.003-.004-.003-.004l-.993-.652a.172.172 0 01-.054-.239l1.129-1.77a.177.177 0 00-.055-.241l-.707-.434a.176.176 0 00-.242.055l-1.11 1.734a.177.177 0 01-.246.055h-.004L14.2 7.195a.177.177 0 00-.246.051h-.004l-2.601 4.05c-.008.009-.008.013-.012.02-.898 1.856-.781 3.704.336 4.903a.166.166 0 01.02.21c-.993 1.528-2.227 3.434-1.442 5.118.27.578.727 1.039 1.262 1.426l3.086.02-.543-.278c-.989-.492-2.102-1.05-2.446-1.781-.445-.957.547-2.48 1.344-3.707l.047-.07zm0 0" fill="#4d4d4d"/></svg>