<svg xmlns="http://www.w3.org/2000/svg" width="11" height="10" viewBox="0 0 11 10"><g fill="#4d4d4d"><path d="M6.668 2.652l-.32 1.528s1.672.691 1.988.793c.25.078.875.261 1.973.312.136.008.265-.066.304-.2L11 3.833s-3.121-1.117-3.598-1.16c-.613-.05-.734-.02-.734-.02zm0 0M7.66 5.176s.457.222.559.242c.097.023.418 0 .418 0L7.422 9.957s-.477.082-.574.02c-.102-.063-.36-.305-.36-.305zm0 0M3.684 5.723l2.164-1.059s.218.082.379-.02c.07-.046.039-.55-.22-.855-.214-.254-.456-.144-.417.04.031.14-2.266 1.1-2.266 1.1l-.496.813zm0 0"/><path d="M5.074 9.258h-.73s.847-1.606.433-2.969c-.007-.125-.086-.332-.183-.55-.285.116-.617.257-.672.269-.102.02-1.492.039-1.492.039l.933-1.465.723-.32c.012-.157.039-.328.098-.489.046-.14.12-.246.226-.285.23-.082.496-.465.594-.879.101-.41-.012-.96-.024-1.261C4.957.742 3.57.55 3.57.55L3.547.027 2.109 0l-.203.137v.441s-.183.192-.82.438c-.637.25-1.035.793-1.035.793S-.055 3.547.039 3.902c.113.442.773.246.773.246l.16.961s-.312.942-.48 2.086c-.11.766.547 2.063.547 2.063H.113v.492h4.961zm0 0"/></g></svg>