<svg xmlns="http://www.w3.org/2000/svg" width="7" height="11" viewBox="0 0 7 11"><g fill="#4d4d4d"><path d="M4.48 6.129v-.07a.591.591 0 00-.593-.582H2.414a.591.591 0 00-.594.582v.07c0 .137.043.234.102.457h2.422c.09-.223.136-.32.136-.457zm1.68 1.95c.008.41-.664 2.921-.664 2.921H.98c.024.004-.98-2.102-.98-2.922 0-.957 1.875-1.363 1.82-1.367h2.52c.941.086 1.808.844 1.82 1.367zm-5.637-.02S.56 7.805.98 7.53c.254-.168.524-.308.805-.43-1.504.43-1.504.977-1.504.977zm2.625-.391a.762.762 0 00-.77.75c0 .418.349.754.77.754a.764.764 0 00.774-.754.763.763 0 00-.774-.75zm.739-2.328c.027.004.054.004.082.008l-.254-4.043H2.52c0 1.027-.133 3.21-.188 4.043.027-.004.055-.004.082-.008zM3.922.008c-.3.039-1.328.004-1.399 1.16H3.7c-.015-.078-.008-.41.43-.41.062 0 .144.008.238.015L4.453.04C4.215.008 4.02-.008 3.922.008zm.668.054l-.082.723c.836.094 2.422.383 2.422.383L7 .555S5.523.203 4.59.062zm0 0"/><path d="M3.55 8.434a.38.38 0 01-.382.375.38.38 0 01-.387-.375.38.38 0 01.387-.375.38.38 0 01.383.375zm0 0"/></g></svg>