<svg xmlns="http://www.w3.org/2000/svg" width="30" height="30"><circle style="isolation:auto;mix-blend-mode:normal;solid-color:#000;solid-opacity:1;marker:none" cx="15" cy="15" r="14.5" color="#000" overflow="visible" fill="#fff" fill-rule="evenodd" stroke="#f25c05"/><g fill="#4d4d4d"><path d="M21.613 10.715h-3.582c.133.941.219 1.879.219 2.715v.18a.713.713 0 01.508.788.735.735 0 01-.727.606.736.736 0 01-.73-.606.713.713 0 01.508-.789v-.18c0-.831-.09-1.769-.223-2.714h-2.867v7.426h2.761c.122-1.055.223-2.141.282-3.145l.437.024c-.054 1-.156 2.074-.277 3.12h3.734c.227-1.16.344-2.41.344-3.71 0-1.25-.129-2.492-.387-3.715zm0 0M14.281 10.715h-3.164a38.4 38.4 0 00.059 7.426h3.105zm0 0M10.688 10.715H7.386A17.984 17.984 0 007 14.43c0 1.3.074 2.55.25 3.71h3.488a39.347 39.347 0 01-.05-7.425zm0 0M7.402 18.996c.32 1.57.848 2.942 1.657 4h2.613c-.367-1.176-.645-2.539-.836-4zm0 0M14.719 18.996v4h2.078c.152-.914.379-2.383.582-4zm0 0M19.648 22.996c.809-1.058 1.418-2.43 1.813-4h-3.64c-.2 1.606-.423 3.067-.575 4zm0 0M11.273 18.996c.196 1.465.48 2.832.86 4h2.148v-4zm0 0M21.406 9.86c-.398-1.462-.98-2.77-1.699-3.856h-2.621c.238.957.566 2.371.812 3.855zm0 0M17.453 9.86a52.302 52.302 0 00-.82-3.856h-1.914v3.855zm0 0M14.281 9.86V6.003h-2.246c-.37 1.059-.648 2.387-.828 3.855zm0 0M9.293 6.004c-.719 1.086-1.3 2.394-1.7 3.855h3.184c.172-1.457.442-2.78.797-3.855zm0 0"/><path d="M598.055 434.144c0 20.724-16.735 37.345-37.453 37.345-20.72 0-37.454-16.62-37.454-37.345 0-20.725 16.735-37.55 37.454-37.55 20.718 0 37.453 16.825 37.453 37.55zm0 0" transform="matrix(.0196 0 0 .01904 7 6.005)" stroke-width="15" stroke="#fff" stroke-miterlimit="10"/></g></svg>