<svg xmlns="http://www.w3.org/2000/svg" width="11" height="10" viewBox="0 0 11 10"><g fill="#4d4d4d"><path d="M10.734 7.61c-.16-.016-.316-.028-.464-.036-.915-.062-1.297-.113-1.516-.73-.149-.422.02-.68.277-1.074.352-.543.832-1.29.457-2.73a1.596 1.596 0 00-.168-.376c.727-.629 1.18-1.031 1.168-1.039a.921.921 0 000-1.348c-.394-.37-1.039-.37-1.48 0L.02 9.742c-.083.137.109.336.27.227C2.19 8.684 6.534 5.055 8.894 3.03c.02.043.039.086.05.13.32 1.234-.058 1.82-.39 2.335-.274.426-.559.863-.328 1.516.343.968 1.113 1.023 2.003 1.086.145.007.301.02.461.035h.032a.29.29 0 00.199-.078.256.256 0 00.078-.192c-.004-.133-.125-.242-.266-.254zM7.32 3.52c-.32.23-.601.07-.336-.211L9.238.75a.533.533 0 01.715 0 .463.463 0 010 .676s-.367.324-.941.793a5.933 5.933 0 00-.258-.29c-.043-.042-.457.305-.418.348.094.098.176.192.25.282-.375.296-.809.628-1.266.96zm0 0M7.324 1.457c-.87-.527-2.25-.96-3.87-.023a.284.284 0 01-.384-.086.252.252 0 01.09-.36C5.031-.09 6.648.391 7.656 1c.032.02-.308.473-.332.457zm0 0"/></g></svg>