<svg xmlns="http://www.w3.org/2000/svg" width="30" height="30"><circle style="isolation:auto;mix-blend-mode:normal;solid-color:#000;solid-opacity:1;marker:none" cx="15" cy="15" r="14.5" color="#000" overflow="visible" fill="#f25c05" fill-rule="evenodd" stroke="#fff"/><path d="M20.633 8.672a8.524 8.524 0 00-6.25-2.668c-2.317.027-4.563 1.05-6.156 2.805a8.507 8.507 0 00-2.207 6.285c.035 1.34 2.015 7.074 2.234 7.836.012.043.05.07.094.07h12.164a.097.097 0 00.093-.066c.23-.739 2.332-6.653 2.383-7.668.121-2.305-.754-4.914-2.355-6.594zm.918 6.379h-.582a.102.102 0 01-.082-.043.1.1 0 01-.008-.094c.098-.219.164-.41.183-.523.055-.332.141-1.243-.449-1.875-.515-.559-1.332-.809-1.754-.864-.14-.015-.359-.117-.43-.242l-.003-.012c.379-.359 1.199-1.156 1.265-1.367.032-.105-.074-.191-.199-.277-.445-.3-.5-.328-.57.258-.016.16-.074.316-.125.406-.137.223-.258.45-.371.684a.09.09 0 01-.082.054c-.035 0-.07-.015-.086-.047-.164-.25-.383-.484-.695-.441-.418.055-3.079.824-2.965 2.812.03.582.312 1.036.687 1.395a.09.09 0 01.024.105.099.099 0 01-.09.06h-.758a.098.098 0 01-.07-.032c-.02-.016-.028-.043-.028-.067.012-.476-.086-.957-.351-1.379-.422-.66-1.39-1.066-1.485-1.16-.093-.09-.183-.562-.289-.82a.096.096 0 00-.082-.059.096.096 0 00-.09.047c-.23.371-.953 1.395-2.484 2.117-.207.098-.61.282-1.039.293a.532.532 0 01-.281-.062c-.172-.106-.239-.16-.282-.285.297.398 1.41.113 2.497-.64 1.09-.755 1.742-1.7 1.449-2.106-.29-.407-1.406-.121-2.5.633a5.355 5.355 0 00-1.067.968c-.21.262-.433.574-.449.918a.707.707 0 00.262.594c.242.219.676.168.691.602.004.156.02.296.035.43l-1.441-.005a.096.096 0 01-.098-.093A7.2 7.2 0 019.23 9.695c1.344-1.476 3.227-2.34 5.172-2.367 1.95-.023 3.864.797 5.25 2.25 1.293 1.36 2.008 3.485 2 5.375a.103.103 0 01-.101.098zm0 0" fill="#fff"/></svg>