<svg xmlns="http://www.w3.org/2000/svg" width="30" height="30"><circle style="isolation:auto;mix-blend-mode:normal;solid-color:#000;solid-opacity:1;marker:none" cx="15" cy="15" r="14.5" color="#000" overflow="visible" fill="#fff" fill-rule="evenodd" stroke="#f25c05"/><g fill="#4d4d4d"><path d="M22.617 19.176a26.864 26.864 0 00-.68-.059c-1.332-.101-1.886-.183-2.203-1.164-.214-.676.028-1.094.399-1.723.512-.87 1.21-2.058.664-4.37a2.557 2.557 0 00-.238-.598c1.058-1.004 1.714-1.649 1.695-1.664.57-.594.57-1.559 0-2.153-.574-.593-1.508-.593-2.152 0l-13.07 15.14c-.122.224.156.54.39.364 2.766-2.054 9.086-7.86 12.516-11.097.03.066.054.136.074.207.465 1.972-.086 2.91-.57 3.734-.399.68-.813 1.383-.477 2.426.5 1.55 1.62 1.636 2.914 1.734.215.02.437.035.676.059a.133.133 0 00.039.004c.11 0 .215-.047.293-.13a.444.444 0 00.113-.308.427.427 0 00-.383-.402zm-4.969-6.547c-.464.371-.875.117-.488-.336l3.274-4.09c.289-.3.753-.3 1.043 0a.781.781 0 010 1.074s-.536.52-1.372 1.27a5.703 5.703 0 00-.375-.461c-.058-.066-.664.492-.605.555.137.156.258.308.363.453a52.966 52.966 0 01-1.84 1.535zm0 0M17.652 9.332c-1.265-.844-3.27-1.535-5.629-.035a.398.398 0 01-.558-.14.424.424 0 01.133-.575c2.718-1.727 5.074-.953 6.535.02.047.03-.446.753-.48.73zm0 0"/></g></svg>