<svg xmlns="http://www.w3.org/2000/svg" width="10" height="10" viewBox="0 0 10 10"><g fill="#4d4d4d"><path d="M5.59 8.777V7.148H8.12c.383 0 .695-.324.695-.73a.428.428 0 00-.418-.438H1.91a.428.428 0 00-.418.438c0 .406.313.73.692.73h2.39v1.63H0V10h10V8.777zm0 0M6.781.563c.16-.04.309-.098.309-.192 0-.113-.274-.207-.836-.281A10.67 10.67 0 004.973 0c-.368 0-.871.035-1.282.09C3.13.164 2.86.258 2.86.37c0 .09.137.149.297.188C4.332 2.195 1.902 1.887 1.902 2.91c0 1.672 1.41 3.047 3.168 3.047 1.758 0 3.2-1.375 3.2-3.047 0-1.043-2.579-.719-1.489-2.348zM3.86.23A10.79 10.79 0 015.04.152c.332 0 .793.032 1.176.078.504.06.664.122.687.141-.007.02-.101.063-.46.102-.34.039-.82.058-1.387.058-.559 0-1.059-.02-1.403-.058-.379-.04-.468-.086-.476-.102.023-.02.183-.082.683-.14zm2.305.415zm0 0"/></g></svg>