<svg xmlns="http://www.w3.org/2000/svg" width="5" height="11" viewBox="0 0 5 11"><path d="M1.906 10.902c.262.012.418.098.258.098H.141c-.164 0-.047-.086.214-.098.262-.007.579-.113.579-.765 0-.657-.02-.871-.02-1.313 0-.437-.238-.402-.547-.719-.312-.316-.422-.675-.34-1.308.055-.418.114-.758.149-.945a.188.188 0 01.183-.153h1.586c.086 0 .164.067.18.153.035.183.094.527.148.945.086.633-.027.992-.336 1.308-.308.317-.546.282-.546.72 0 .44-.02.655-.02 1.312 0 .652.27.758.535.765zM5 10.692a.298.298 0 01-.3.296H2.944a.3.3 0 01-.3-.297v-6.62c0-.165.09-.4.195-.524L3.316 3a.422.422 0 00.106-.277V.676a.027.027 0 00-.027-.028.027.027 0 01-.028-.027V.188c0-.106.082-.188.184-.188h.539c.105 0 .187.082.187.188V.62a.027.027 0 01-.027.027.027.027 0 00-.027.028v2.047c0 .101.035.199.105.277l.477.547c.105.125.195.36.195.523zm0 0" fill="#4d4d4d"/></svg>