<svg xmlns="http://www.w3.org/2000/svg" width="7" height="11" viewBox="0 0 7 11"><g fill="#4d4d4d"><path d="M5.938 1.719l-4.899-.004-.012 7.535 4.903.008zM3.43 6.805L1.855 5.293l1.575-1.5 1.574 1.512zm0 0"/><path d="M7 10.234V.152c0-.004 0-.007-.004-.015 0-.078-.047-.13-.105-.13h-.008c-.059 0-.102.052-.102.13l.012.527h-.426L6.36.156C6.355.082 6.31.016 6.254.02c-.059 0-.102.066-.102.14l.004.504H5.81L5.8.16C5.797.086 5.75.016 5.695.02h-.004c-.054 0-.097.07-.097.144l.004.5H5.25l-.012-.5c0-.074-.047-.148-.101-.144h-.004c-.055 0-.098.074-.098.148l.004.496h-.348L4.68.168c0-.078-.047-.152-.102-.148h-.004c-.054 0-.097.078-.097.152l.003.492H4.13L4.12.172c0-.078-.047-.156-.105-.152-.055 0-.102.082-.102.156l.004.488H3.57L3.563.176C3.558.098 3.511.016 3.457.02h-.004c-.055 0-.098.085-.098.16l.004.484h-.347L3.004.18C3 .102 2.954.016 2.898.02h-.003c-.055 0-.098.085-.098.164l.004.48h-.348l-.012-.48c0-.079-.046-.168-.101-.164h-.004c-.055 0-.098.09-.098.168l.004.476h-.347L1.883.187c0-.078-.047-.171-.102-.167h-.004c-.054 0-.101.093-.097.171v.473h-.348L1.324.191c0-.078-.047-.175-.105-.171-.059 0-.102.097-.102.175l.004.47H.773L.766.194C.762.117.715.015.66.02H.656C.602.02.56.12.56.2l.003.464H.216L.203.195C.203.121.156.015.102.02H.098C.043.02 0 .125 0 .2v10.66c0 .007 0 .011.004.019.008.07.05.113.105.113h.008c.059 0 .102-.05.098-.129l-.008-.574.422-.004.004.574c0 .079.047.13.105.125h.008c.059 0 .102-.05.102-.125l-.012-.574h.352l.003.574c.004.079.051.13.106.125h.012c.054 0 .097-.05.097-.125l-.011-.574h.355l.004.574c0 .079.047.13.101.125h.012c.055 0 .098-.05.098-.125l-.012-.574h.356l.003.574c0 .079.047.13.102.125h.012c.054 0 .101-.05.097-.125l-.007-.574h.351l.004.574c0 .079.047.13.106.125h.007c.059 0 .102-.05.098-.125l-.008-.574h.352l.004.574c0 .079.047.13.105.125h.008c.059 0 .102-.05.102-.125l-.012-.574h.355v.574c.004.079.051.13.106.125h.011c.055 0 .098-.05.098-.125l-.012-.574h.356l.004.574c0 .079.047.13.101.125h.012c.055 0 .098-.05.098-.125l-.012-.574h.355l.004.574c0 .079.047.13.106.125h.008c.054 0 .101-.05.097-.125l-.008-.574h.352l.004.574c0 .079.047.13.105.125h.008c.059 0 .102-.05.102-.125l-.012-.574h.352l.004.574c0 .079.046.13.105.125h.012c.054 0 .097-.05.097-.125l-.011-.574h.355l.004.574c0 .079.047.13.102.125h.011c.055 0 .098-.05.098-.125v-.605-.02zm-.777-.695L.734 9.531l.012-8.097 5.484.007zm0 0"/></g></svg>