<svg xmlns="http://www.w3.org/2000/svg" width="30" height="30"><circle style="isolation:auto;mix-blend-mode:normal;solid-color:#000;solid-opacity:1;marker:none" cx="15" cy="15" r="14.5" color="#000" overflow="visible" fill="#fff" fill-rule="evenodd" stroke="#f25c05"/><g fill="#4d4d4d"><path d="M15.227 15.484h-.942l-.008-.468.133-.047c.55-.215.938-.766 1.031-1.477a2.52 2.52 0 00-.12-1.191 2.058 2.058 0 00-.716-.992c-.414-.301-1.136-.555-2.242-.13-.203-.167-.582-.406-1.066-.34-.27.04-.531.102-.79.192a1.389 1.389 0 00-.413-.18c-.477-.128-1.063-.074-1.735.16-.675.235-1 .696-1.148 1.044a1.891 1.891 0 00-.156.582c-.27.289-1.125 1.304-1.047 2.476a2.911 2.911 0 00.914 1.95l-.027 4.511c0 .633.53 1.149 1.183 1.149h5.086c.656 0 1.184-.516 1.184-1.149l.027-.492.836-.012c.652-.004 1.184-.52 1.184-1.156v-3.289c0-.629-.524-1.14-1.168-1.14zm-1.543-.882c-.368.074-.829.132-1.227.175h-.004l-.129.012h-.004l-.12.012-.005.004c-.02 0-.039 0-.058.004-.02 0-.04.004-.055.004h-.008c-.015.003-.035.003-.05.003l-.008.004c-.016 0-.032 0-.043.004h-.008l-.047.004h-.008l-.043.004h-.004c-.015 0-.027 0-.043.004h-.007l-.04.004c-.027 0-.054.004-.082.004a.289.289 0 00-.27.261c0 .008-.07.711-.401.75-.032-.039-.102-.156-.157-.414a3.582 3.582 0 01-.062-.402v-.016a.289.289 0 00-.313-.257.286.286 0 00-.265.3v.028c.07.828.03 2.117-.274 2.433-.039.043-.062.043-.078.043-.012 0-.02 0-.047-.027-.054-.063-.234-.355-.183-1.469.02-.484.078-.933.101-1.125v-.015c-.039-.352-.242-.391-.66-.235-.465.172.04 3.586-.602 3.684-.05.008-.12-.031-.19-.086l-.005.012a.148.148 0 01-.05-.024c-.153-.086-.333-.316-.493-.633a2.543 2.543 0 01-.226-.601.28.28 0 00-.114-.281l-.004-.004h-.003l-.008-.008-.008-.004c-.004-.004-.004-.008-.008-.012h-.004a2.285 2.285 0 01-.465-.543 2.367 2.367 0 01-.343-1.09c-.07-1.101.945-2.113.957-2.12a.284.284 0 00.086-.204c0-.008.007-.894.925-1.215.664-.23 1.09-.21 1.336-.16.227.05.332.14.348.16a.276.276 0 00.348.067c.004 0 .296-.137.793-.207.386-.055.691.285.699.293a.3.3 0 00.34.074c.754-.328 1.39-.328 1.84-.004.453.328.699.992.609 1.652-.067.508-.32.89-.672 1.028-.121.047-.29.09-.484.129zm2.09 5.347c0 .301-.25.551-.563.551h-.926v-4.383h.926c.312 0 .562.246.562.551zm7.105-6.597c-.488-.356-2.129.78-2.692 1.902-.585-1.09-2.042-2.316-2.484-2.043-.754.504.89 4.402 2.445 3.383a.751.751 0 00.067-.051 1 1 0 00.164.152c1.156.856 3.121-2.863 2.5-3.343zm0 0"/><path d="M20.11 18.059c-.563-1.106-2.07-2.383-2.52-2.102-.707.473.719 3.977 2.191 3.504l-.07 3.242c0 .16.129.29.293.293.164.004.3-.121.305-.281l.066-3.121c1.367.496 3.148-2.942 2.316-3.434-.476-.348-1.98.809-2.582 1.899zM20.468 6a.297.297 0 00-.309.285L20.13 7.79c-.828.352-1.188 2.14-.844 3.29-.32-.302-.648-.544-.926-.68l.032-1.419a.296.296 0 00-.293-.296c-.164 0-.301.125-.305.285l-.031 1.418c-.578.672.965 4.218 2.453 3.36.082.1.215.167.41.19 1.453.184 2.297-2.238 2.234-3.054l.036-1.645a.298.298 0 00-.293-.297.294.294 0 00-.305.286l-.031 1.457c-.274.109-.578.328-.871.601.433-1.07.078-2.914-.668-3.422l.03-1.566A.293.293 0 0020.47 6zm-.364 6.035a1.062 1.062 0 00.649-.043 4.257 4.257 0 00-.36.547 3.578 3.578 0 00-.289-.504zm0 0"/></g></svg>