<svg xmlns="http://www.w3.org/2000/svg" width="11" height="11" viewBox="0 0 11 11"><g fill="#4d4d4d"><path d="M5.969 6.137h-.61l-.004-.305c.032-.008.06-.02.086-.027.356-.14.606-.496.668-.957a1.662 1.662 0 00-.078-.77 1.288 1.288 0 00-.465-.64c-.265-.196-.734-.364-1.449-.086a.887.887 0 00-.687-.22 2.504 2.504 0 00-.512.122 1.105 1.105 0 00-.27-.117c-.308-.082-.687-.047-1.12.105a1.221 1.221 0 00-.844 1.055c-.176.183-.727.844-.68 1.601.043.672.41 1.09.594 1.258l-.02 2.922c0 .41.344.742.766.742h3.293a.755.755 0 00.765-.742l.02-.32.539-.008a.758.758 0 00.766-.746V6.875a.75.75 0 00-.758-.738zm-.996-.57a9.541 9.541 0 01-.797.113c-.028.004-.055.004-.082.008H4.09c-.027.003-.055.003-.078.007h-.004c-.012 0-.024.004-.035.004h-.004c-.012 0-.024.004-.035.004H3.93c-.012 0-.02 0-.032.004h-.035l-.004.004h-.035l-.027.004h-.031l-.004.004h-.028c-.015 0-.035.004-.05.004a.188.188 0 00-.176.168c0 .004-.047.46-.262.484-.02-.023-.062-.098-.098-.266a2.03 2.03 0 01-.043-.261V5.84a.184.184 0 00-.199-.168.187.187 0 00-.176.195s.004.008.004.016c.043.535.016 1.37-.18 1.578-.023.027-.038.027-.05.027-.008 0-.012 0-.027-.02-.04-.038-.153-.23-.122-.948.012-.317.051-.606.067-.727v-.012c-.027-.226-.156-.254-.43-.152-.297.113.028 2.32-.387 2.383-.03.008-.078-.02-.125-.055v.008a.139.139 0 01-.035-.016c-.097-.054-.215-.203-.316-.41a1.514 1.514 0 01-.149-.39.174.174 0 00-.074-.18l-.004-.004S.898 6.96.895 6.96v-.004c-.004 0-.008-.004-.008-.004L.883 6.95a1.507 1.507 0 01-.301-.347 1.566 1.566 0 01-.223-.707C.316 5.18.973 4.527.98 4.52a.17.17 0 00.055-.13c0-.003.008-.577.602-.785.425-.148.703-.14.863-.105a.516.516 0 01.227.105.179.179 0 00.222.043c.004 0 .192-.09.516-.136.25-.035.445.187.45.191a.19.19 0 00.222.047c.488-.21.898-.21 1.187-.004.297.215.453.645.395 1.074-.043.325-.207.575-.434.664a2.199 2.199 0 01-.312.082zm1.351 3.456c0 .2-.164.36-.363.36h-.602V6.547h.602c.2 0 .363.16.363.355zm4.598-4.265c-.317-.23-1.379.504-1.742 1.23-.38-.707-1.325-1.5-1.61-1.32-.484.324.578 2.848 1.586 2.187a.173.173 0 01.043-.03.844.844 0 00.106.097c.746.55 2.02-1.856 1.617-2.164zm0 0"/><path d="M9.129 7.8c-.363-.71-1.34-1.538-1.629-1.359-.46.309.465 2.575 1.418 2.27l-.047 2.098c0 .101.086.187.191.191a.194.194 0 00.196-.184l.043-2.02c.886.321 2.039-1.901 1.5-2.222-.309-.226-1.281.524-1.672 1.227zm.23-7.8a.189.189 0 00-.195.184l-.02.972c-.539.23-.769 1.387-.546 2.13A2.612 2.612 0 008 2.847l.02-.918a.192.192 0 00-.192-.192.186.186 0 00-.195.184l-.02.918c-.379.433.621 2.73 1.586 2.172.051.066.137.11.262.125.945.117 1.488-1.45 1.45-1.977l.019-1.066c.004-.102-.082-.188-.188-.192a.195.195 0 00-.199.184l-.02.945c-.175.07-.37.211-.562.39.281-.694.05-1.886-.434-2.214L9.551.191A.194.194 0 009.359 0zm-.23 3.906a.66.66 0 00.418-.031 3.487 3.487 0 00-.235.355 2.036 2.036 0 00-.183-.324zm0 0"/></g></svg>