<svg xmlns="http://www.w3.org/2000/svg" width="11" height="11" viewBox="0 0 11 11"><path d="M10.883 7.309h-.473c-.066-1.024-.277-1.77-.523-1.77-.004 0-.008 0-.016.004.008-.004.012-.004.016-.004H8.383c-.25 0-.457.746-.524 1.77h-.214l.035-3.73 2.515-1.837h-.004s.004-.004.004-.008V.184c0-.102-1.523-.18-3.398-.18-1.879 0-3.399.078-3.399.18v1.55c0 .004 0 .008.004.008h-.004l2.497 1.836.003 3.73h-.632V5.903l.527-1.472-4.95.02L0 6.05v4.946h5.266v-2.34h.636l.004 2.293c0 .024.383.047.852.047s.847-.023.847-.047L7.63 8.66h.23c.063 1.027.274 1.777.524 1.777h1.504c-.004 0-.008 0-.016-.003a.03.03 0 00.016.004c.246 0 .457-.75.523-1.77h.473c.062 0 .117-.305.117-.68 0-.375-.055-.68-.117-.68zM10 6.496c.047.27.078.54.094.813H9.68c.015-.274.047-.543.093-.813.04-.21.079-.36.114-.46.035.1.074.25.113.46zm-.133-.953H9.86h.008zm-.012 0c-.003.004-.007.004-.007.004s.004 0 .007-.004zm-.011.004c-.004.004-.008.004-.012.004.004 0 .008 0 .012-.004zm-.016.008c-.004 0-.008.004-.012.004.004 0 .008-.004.012-.004zm-.012.008c-.004 0-.007.003-.011.003.004 0 .008-.003.011-.003zm-.015.007c-.004.004-.008.004-.008.008 0-.004.004-.004.008-.008zm-.016.012s-.004.004-.008.004c.004 0 .008-.004.008-.004zm-.012.008c0 .004-.003.008-.007.012.004-.004.007-.008.007-.012zm-.41 1.715v.004zm.399-1.7zm-.016.016c-.004.004-.004.008-.008.012.004-.004.004-.008.008-.012zm-.012.016c-.004.004-.004.008-.007.011.003-.003.003-.007.007-.011zm-.011.015c-.004.004-.008.008-.008.012 0-.004.004-.008.008-.012zm-.012.02zm-.012.02c-.004.003-.008.011-.011.015.003-.004.007-.012.011-.016zm-.015.023c-.004.004-.004.012-.008.015.004-.003.004-.011.008-.015zm-.012.023c-.004.004-.004.008-.008.012.004-.004.004-.008.008-.012zm-.012.024c-.004.004-.004.008-.008.011.004-.003.004-.007.008-.011zm-.012.023c-.003.008-.007.012-.007.02 0-.008.004-.012.007-.02zm-.011.031zm-.016.028c0 .004-.004.011-.004.015 0-.004.004-.011.004-.015zm-.008.027c-.004.004-.004.012-.008.016.004-.004.004-.012.008-.016zm-.011.027c0 .008-.004.012-.004.016 0-.004.004-.008.004-.016zm-.012.032c0 .008-.004.015-.008.027.004-.012.008-.02.008-.027zm-.012.039c-.004.008-.004.011-.004.02 0-.009 0-.012.004-.02zm-.012.035c0 .004-.004.008-.004.016 0-.008.004-.012.004-.016zm-.007.031c-.004.004-.004.012-.004.016 0-.004 0-.012.004-.016zm-.012.031c0 .008 0 .012-.004.02a.035.035 0 00.004-.02zm-.012.051l-.004.016.004-.016zm-.008.035c-.004.008-.004.012-.004.016 0-.004 0-.008.004-.016zm-.011.035c0 .008 0 .012-.004.016.004-.004.004-.008.004-.016zm-.008.04c0 .003-.004.007-.004.015 0-.008.004-.012.004-.015zm-.008.035c0 .008-.004.011-.004.015 0-.004.004-.007.004-.015zm-.016.062v0zm-.004.035c-.003.008-.003.012-.003.016 0-.004 0-.008.003-.016zm-.007.043c-.004.004-.004.008-.004.012 0-.004 0-.008.004-.012zm-.008.04c0 .003-.004.007-.004.015 0-.008.004-.012.004-.016zm-.02.109c0 .004 0 .008-.004.011.004-.003.004-.007.004-.011zm-.008.039v0zm-.003.047c-.004.004-.004.008-.004.011 0-.003 0-.007.004-.011zm-.008.043v0zm-.016.12V6.802zm-.004.044c-.004.004-.004.008-.004.011 0-.003 0-.007.004-.011zm-.008.047v0zm-.003.046v.001zm-.012.13c0 .003-.004.007-.004.011 0-.004.004-.008.004-.012zm-.004.046c-.004.004-.004.008-.004.012 0-.004 0-.008.004-.012zm-.004.047c-.004.004-.004.008-.004.012 0-.004 0-.008.004-.012zm-.012 1.504v0zm.403 1.711l.007.008-.007-.008zm-.399-1.629c0 .004 0 .012.004.016-.004-.004-.004-.012-.004-.016zm.004.047c0 .008 0 .016.004.023-.004-.007-.004-.015-.004-.023zm.004.05c0 .009 0 .016.004.024-.004-.008-.004-.015-.004-.023zm.004.052c0 .007.004.011.004.02 0-.009-.004-.013-.004-.02zm.012.125a.035.035 0 01.004.02c0-.009 0-.013-.004-.02zm.007.046v0zm.004.051c0 .004 0 .012.004.016-.004-.004-.004-.012-.004-.016zm.004.047c.004.004.004.012.004.016 0-.004 0-.012-.004-.016zm.012.074v0zm.004.04a.035.035 0 01.004.019c0-.008 0-.012-.004-.02zm.008.046c0 .004 0 .012.004.02-.004-.008-.004-.016-.004-.02zm.008.043v0zm.003.043c.004.008.004.012.004.02 0-.008 0-.012-.004-.02zm.012.067c0 .003.004.011.004.015 0-.004-.004-.012-.004-.015zm.008.039c0 .007 0 .011.004.02-.004-.009-.004-.013-.004-.02zm.008.043c0 .004 0 .011.004.02-.004-.009-.004-.017-.004-.02zm.008.039c0 .007 0 .011.003.02-.003-.009-.003-.013-.003-.02zm.007.039c0 .008.004.015.004.023 0-.008-.004-.015-.004-.023zm.012.058l.004.016-.004-.016zm.008.04c0 .003.004.011.004.015l-.004-.016zm.008.035a.035.035 0 01.004.02c0-.009 0-.013-.004-.02zm.008.035c.003.008.003.015.007.02-.004-.005-.004-.012-.007-.02zm.011.035c0 .012.004.023.008.035-.004-.012-.008-.023-.008-.035zm.012.05c0 .005.004.012.004.02 0-.008-.004-.015-.004-.02zm.008.036c.004.004.004.011.008.015-.004-.004-.004-.011-.008-.015zm.011.031l.004.016-.004-.016zm.008.031c.004.008.008.012.008.02 0-.008-.004-.012-.008-.02zm.012.032zm.012.039c.004.007.008.011.008.02 0-.009-.004-.013-.008-.02zm.011.03c.004.005.004.009.008.016-.004-.007-.004-.011-.008-.015zm.012.028zm.012.028c0 .007.004.011.008.02-.004-.009-.008-.013-.008-.02zm.012.027c.004.008.004.012.007.02-.003-.008-.007-.012-.007-.02zm.011.027c.004.008.004.012.008.016-.004-.004-.004-.008-.008-.016zm.012.028c.004.003.004.007.008.011-.004-.004-.004-.008-.008-.011zm.012.02c.004.003.004.01.008.015-.004-.004-.004-.012-.008-.016zm.011.023c.004.003.008.011.012.015l-.011-.015zm.012.023l.012.012-.012-.012zm.016.02c0 .003.004.007.008.011-.004-.004-.008-.008-.008-.011zm.012.015c.003.004.003.008.007.012-.004-.004-.004-.008-.007-.012zm.011.016c.004.004.008.008.008.011 0-.003-.004-.007-.008-.011zm.012.015l.012.012-.012-.012zm.11.075h-.001zm-.083-.043c.004 0 .008.004.008.004s-.004-.004-.008-.004zm.016.007c0 .004.004.004.008.008-.004-.004-.008-.004-.008-.008zm.012.012c.004 0 .008.004.011.004-.004 0-.007-.004-.011-.004zm.011.008c.004 0 .008.004.012.004-.004 0-.008-.004-.012-.004zm.016.008c.004 0 .008 0 .012.004-.004-.004-.008-.004-.012-.004zm.016.004s.004 0 .007.004c-.003-.004-.007-.004-.007-.004zM10 9.48c-.04.211-.078.356-.113.461a3.423 3.423 0 01-.114-.46 8.227 8.227 0 01-.097-.813h.418A7.087 7.087 0 0110 9.48zm0 0" fill="#4d4d4d"/></svg>