<svg xmlns="http://www.w3.org/2000/svg" width="10" height="7" viewBox="0 0 10 7"><path d="M9.895 3.82c-.356-.261-1.344.75-1.344.75s.484-1 .804-1.863c.301-.812.528-1.3.063-1.469-.188-.066-.352.242-.563.684-.21.441-.402 1.035-.543 1.262-.054.093-.234.074-.152-.18.059-.176.149-.406.418-1.152C8.98.73 9.176.152 8.79.027c-.465-.148-.766 1.024-.906 1.446-.258.765-.461 1.238-.5 1.308-.082.16-.328.074-.25-.152.066-.2.176-.5.207-.621.074-.324.863-1.684.348-1.871-.758-.278-1.067 2.558-1.5 2.402-.32-.117.308-1.144.367-1.64C6.57.761 6.512.69 6.418.66 6.012.512 5.262 2.3 5.023 3.387A4.116 4.116 0 005 3.488c-.004-.031-.012-.058-.02-.09C4.75 2.312 4.012.516 3.605.66c-.093.035-.152.102-.136.238.054.5.676 1.532.355 1.645-.437.156-.722-2.684-1.484-2.414-.52.183.262 1.55.336 1.871.027.125.136.426.203.625.074.227-.172.313-.254.152-.035-.07-.238-.547-.488-1.312C2 1.039 1.707-.133 1.238.012c-.386.12-.195.703.203 1.828.262.746.348.98.403 1.152.086.254-.094.274-.153.18-.136-.227-.324-.824-.53-1.266C.948 1.465.788 1.152.6 1.22c-.464.164-.242.656.051 1.468.317.868.793 1.868.793 1.868s-.98-1.02-1.34-.758c-.171.125-.12.48.094.758.778.988 1.774 2.074 2.43 2.332.703.273 1.918.074 2.367-.84.445.906 1.652 1.113 2.352.844.66-.25 1.664-1.332 2.449-2.313.219-.277.27-.633.098-.758zm0 0" fill="#4d4d4d"/></svg>