<svg xmlns="http://www.w3.org/2000/svg" width="30" height="30"><circle style="isolation:auto;mix-blend-mode:normal;solid-color:#000;solid-opacity:1;marker:none" cx="15" cy="15" r="14.5" color="#000" overflow="visible" fill="#fff" fill-rule="evenodd" stroke="#f25c05"/><path d="M18.715 8.77l-2.543-.012L16.156 6H10v17h9V8.77zM13.43 6.555h2.156v.312h-1.844v1.918h-.312zm0 2.785l2.168-.004v.34h-1.856v1.605h-.312zm-2.856-2.785h2.281v.312h-2.027v1.926h-.254zm0 2.793l2.281-.008v.336h-2.027v1.59h-.254zm2.281 2.933h-2.027v1.766h-.254V11.82l2.281.012zm2.743 0h-1.856v1.758h-.312v-2.203l2.168.012zm2.828 0h-1.91v1.75l-.34.004v-2.183l2.25.011zm0-2.57h-1.91v1.586h-.34V9.332l2.25-.004zm0 0" fill="#4d4d4d"/></svg>