<svg xmlns="http://www.w3.org/2000/svg" width="30" height="30"><circle style="isolation:auto;mix-blend-mode:normal;solid-color:#000;solid-opacity:1;marker:none" cx="15" cy="15" r="14.5" color="#000" overflow="visible" fill="#f25c05" fill-rule="evenodd" stroke="#fff"/><path d="M18.895 16.309C19.563 15.586 20 14.37 20 12.996c.004-2.496-1.184-4.05-2.586-4.05-.219 0-.437.046-.637.136.168-.074.348-.121.535-.14l-1.398.07c-.152 0-.305.02-.453.058l-.023-1.988c0-.047-.301-.082-.668-.082-.368 0-.665.035-.665.082l.036 2.805c-.692.718-1.192 1.82-1.192 3.086 0 1.226.328 2.199.856 2.843-2.172.094-3.805.504-3.805.993l.086 4.476c0 .559 2.043 1.715 4.668 1.715s4.601-1.191 4.601-1.75l.153-4.441c0-.18-.227-.352-.613-.5zm-3.399-4.454c.11-.55.3-1.054.563-1.468.394-.621.89-.965 1.402-.965.379 0 .93.152 1.406.871.442.66.672 1.594.672 2.703 0 1.356-.469 2.563-1.133 3.164-.27.207-.254.184-.386.27-.172.09-.364.136-.56.14-.3 0-.597-.12-.87-.343a2.95 2.95 0 01-.531-.621 4.402 4.402 0 01-.536-1.329 5.906 5.906 0 01-.027-2.422zm2.332 5.372c-.844.16-1.937.246-3.074.246-1.137 0-2.227-.086-3.074-.246-.805-.153-1.164-.325-1.285-.418.12-.094.48-.266 1.285-.418.691-.13 1.543-.211 2.453-.239.027.028.058.051.086.075l.008.464c0 .043.296.082.664.082.304 0 .558-.027.636-.058l1.442.223a2.91 2.91 0 01.125.03c.027.009.058.012.086.02.011 0 .023.004.039.004l.086.012c.011 0 .023.004.035.004.039.004.082.004.12.004.411 0 .802-.157 1.145-.43.25.082.442.176.508.227-.12.093-.476.265-1.285.418zm.676-4.157c0 .383-.23.692-.512.692-.281 0-.512-.309-.512-.692 0-.383.23-.691.512-.691.281 0 .512.308.512.691zm0 0" fill="#fff"/></svg>