<svg xmlns="http://www.w3.org/2000/svg" width="8" height="11" viewBox="0 0 8 11"><g fill="#4d4d4d"><path d="M6.156 2.605H1.82a.224.224 0 01-.23-.218v-.059c0-.121.101-.219.23-.219h4.336c.13 0 .23.098.23.22v.058a.224.224 0 01-.23.218zm0 0M6.797 3.363H1.242a.256.256 0 01-.262-.246v-.004a.256.256 0 01.262-.246h5.555c.144 0 .262.11.262.246v.004c0 .137-.118.246-.262.246zm0 0M7.113 4.14H.903a.257.257 0 01-.262-.25c0-.136.117-.245.261-.245h6.211c.149 0 .266.109.266.246 0 .136-.117.25-.266.25zm0 0M7.105 8.7H.891a.258.258 0 01-.266-.25c0-.137.117-.247.266-.247h6.214c.145 0 .262.11.262.246 0 .137-.117.25-.262.25zm0 0M6.793 9.473H1.234c-.14 0-.257-.11-.257-.243v-.007c0-.137.117-.246.257-.246h5.559c.14 0 .258.109.258.246v.007c0 .133-.117.243-.258.243zm0 0M6.156 10.234H1.82a.224.224 0 01-.23-.218v-.059c0-.121.101-.219.23-.219h4.336c.13 0 .23.098.23.219v.059a.224.224 0 01-.23.218zm0 0M5.746 10.996H2.277c-.117 0-.21-.09-.21-.195v-.106c0-.11.093-.195.21-.195h3.47c.116 0 .21.086.21.195v.106c0 .105-.094.195-.21.195zm0 0M5.746 1.914H2.277c-.117 0-.21-.09-.21-.195.05-.54 1.695-.352 1.757-1.461l.024-.13A.155.155 0 014 .005c.078 0 .145.055.156.125l.016.105c-.02 1.106 1.781.934 1.785 1.485 0 .105-.094.195-.21.195zm0 0M.602 4.902h6.82a.257.257 0 00.262-.25c0-.136-.118-.246-.262-.246H.602c-.149 0-.266.11-.266.246 0 .137.117.25.266.25zm0 0M1.809 5.16c.242 0 .457.188.601.48h5.215c.148 0 .266-.109.266-.25 0-.136-.118-.245-.266-.245H.415c-.145 0-.267.109-.267.246 0 .14.122.25.266.25h.793c.145-.293.363-.48.602-.48zm0 0M.266 5.902a.258.258 0 00-.266.25c0 .137.117.246.266.246h.757c.008-.168.036-.332.082-.496zm0 0M8 6.152a.258.258 0 00-.266-.25H2.512c.047.164.074.328.082.496h5.14c.145 0 .266-.109.266-.246zm0 0M7.625 7.176c.145 0 .262-.11.262-.246 0-.14-.117-.25-.262-.25H2.59a1.954 1.954 0 01-.094.496zm0 0M.379 6.68c-.145 0-.266.11-.266.25 0 .136.121.246.266.246h.742a2.14 2.14 0 01-.094-.496zm0 0M1.809 7.867c-.227 0-.43-.164-.575-.426h-.68c-.144 0-.261.11-.261.247 0 .136.117.25.262.25h6.863a.258.258 0 00.266-.25c0-.137-.118-.247-.266-.247H2.383c-.145.262-.348.426-.574.426zm0 0"/></g></svg>