<svg xmlns="http://www.w3.org/2000/svg" width="30" height="30"><circle style="isolation:auto;mix-blend-mode:normal;solid-color:#000;solid-opacity:1;marker:none" cx="15" cy="15" r="14.5" color="#000" overflow="visible" fill="#f25c05" fill-rule="evenodd" stroke="#fff"/><g fill="#fff"><path d="M16.7 10.977l-.466 2.289s2.43 1.039 2.891 1.191c.363.121 1.273.398 2.867.473.2.008.387-.098.445-.301L23 12.75s-4.54-1.68-5.23-1.742c-.899-.078-1.07-.031-1.07-.031zm0 0M18.145 14.762s.664.336.808.367c.145.031.606 0 .606 0l-1.762 6.805s-.695.12-.84.03c-.145-.089-.52-.456-.52-.456zm0 0M12.355 15.582l3.153-1.586s.316.121.547-.031c.105-.07.058-.824-.317-1.281-.312-.38-.664-.215-.61.058.048.211-3.292 1.649-3.292 1.649l-.723 1.222zm0 0"/><path d="M14.379 20.887h-1.063s1.235-2.407.633-4.45c-.011-.19-.125-.5-.27-.832-.41.18-.898.387-.976.403-.144.031-2.168.062-2.168.062l1.36-2.199 1.05-.48c.016-.235.055-.493.137-.73.074-.208.18-.368.336-.427.332-.125.715-.703.863-1.32.145-.617-.02-1.441-.035-1.894-.031-.907-2.055-1.196-2.055-1.196l-.035-.781L10.07 7l-.297.207v.66s-.265.29-1.195.66c-.926.368-1.504 1.184-1.504 1.184s-.152 2.61-.02 3.144c.169.657 1.126.368 1.126.368l.234 1.441s-.457 1.414-.695 3.133c-.16 1.14.793 3.09.793 3.09H7.164v.738h7.215zm0 0"/></g></svg>