<svg xmlns="http://www.w3.org/2000/svg" width="30" height="30"><circle style="isolation:auto;mix-blend-mode:normal;solid-color:#000;solid-opacity:1;marker:none" cx="15" cy="15" r="14.5" color="#000" overflow="visible" fill="#fff" fill-rule="evenodd" stroke="#f25c05"/><path d="M12.688 7.102c1.316 0 .554 3.558.624 4.312.028.293 0 1.02 0 1.504 0 .547.622.547.692.137.031-.184.137-1.368.137-3.215 0-1.028-.207-3.79.968-3.832.97-.035.97 1.367.903 4.105-.047 1.82-.07 2.387-.07 2.805 0 .617.425.52.484.273.14-.597.133-2.03.277-3.148.145-1.113.274-1.914.758-1.914 1.18 0 1.039 1.23.969 3.215-.075 2.12-.414 4.652-.414 4.652s1.476-2.953 2.492-2.668c.484.137.637.945.344 1.711-1.036 2.738-2.497 5.852-3.805 6.91-1.52 1.23-4.844 1.711-6.434-.48-.574-.79-1.27-2.969-1.523-5.266-.274-2.531.07-6.98 1.11-6.98.234 0 .417.105.484.41.246 1.125-.403 3.832.414 3.832 1.105 0-.348-6.363 1.59-6.363zm0 0" fill="#4d4d4d"/></svg>