<svg xmlns="http://www.w3.org/2000/svg" width="9" height="10" viewBox="0 0 9 10"><path d="M8.965 4.715a.227.227 0 00-.176-.168C8.758 1.992 6.883.004 4.492.004 2.122.004.258 1.96.195 4.488a.227.227 0 00-.175.145c-.051.129.003.273.117.328.664.316 2.465.457 4.293.457 1.793 0 3.605-.137 4.383-.39.12-.04.187-.18.152-.313zM.652 4.62v-.004C.652 2.31 2.34.5 4.492.5c2.153 0 3.84 1.809 3.84 4.117 0 .008 0 .016.004.02-1.691.351-6.125.39-7.684-.016zm8.282 2.27s0 .004-.004.007c0-.003.004-.007.004-.007zm-8.79.41c.188.793.59 1.504 1.086 2.086.153.183.32.351.5.508.793.07 1.739.101 2.692.101 1.012 0 2.035-.035 2.883-.11.18-.156.347-.323.5-.507.508-.602.894-1.25 1.078-2.074l-.106-.02c-.047 0-.027.008-.074.008-.383 0-.695-.008-.695-.203-.004-.203.312-.203.695-.203.078 0 .156 0 .23.004.083-.512.09-1.032.02-1.547-.836.218-2.664.34-4.469.34-1.851 0-3.683-.13-4.402-.399a5.45 5.45 0 00-.055.758c0 .285.024.566.07.844l.051.004c.114-.004.223-.004.325-.004.382 0 .695.008.695.203-.004.195-.313.203-.695.203H.19zm7.528-1.395c.387 0 .7.012.695.207 0 .196-.308.203-.695.203-.383 0-.692-.007-.692-.203-.003-.207.31-.207.692-.207zm-2.055 0c.383 0 .696.012.692.207 0 .196-.309.203-.692.203-.387 0-.695-.007-.695-.203-.004-.207.308-.207.695-.207zm-1.031.98c.387 0 .7.009.695.204 0 .195-.308.203-.695.203-.383 0-.691-.008-.691-.203-.004-.203.308-.203.69-.203zm2.039 0c.383 0 .695.009.695.204-.004.195-.312.203-.695.203-.383 0-.691-.008-.695-.203 0-.203.312-.203.695-.203zm-3.066-.98c.382 0 .695.012.695.207-.004.196-.313.203-.695.203-.383 0-.692-.007-.696-.203 0-.207.313-.207.696-.207zM3.223 7.09c0 .195-.309.203-.692.203-.386 0-.695-.008-.695-.203-.004-.203.309-.203.695-.203.383 0 .696.008.692.203zM1.5 5.906c.383 0 .7.012.695.207 0 .196-.312.203-.695.203-.383 0-.691-.007-.695-.203 0-.207.312-.207.695-.207zm0 2.45c-.383 0-.691-.012-.695-.208 0-.203.312-.203.695-.203.383 0 .7.008.695.203 0 .196-.312.207-.695.207zm1.031.976c-.386 0-.695-.008-.695-.203-.004-.203.309-.203.695-.203.383 0 .696.008.692.203 0 .195-.309.203-.692.203zm.332-1.184c0-.203.313-.203.696-.203.382 0 .695.008.695.203-.004.196-.313.207-.695.207-.383 0-.692-.011-.696-.207zm1.723 1.184c-.383 0-.691-.008-.691-.203-.004-.203.308-.203.69-.203.388 0 .7.008.696.203 0 .195-.308.203-.695.203zm2.125 0c-.387 0-.695-.008-.695-.203-.004-.203.308-.203.695-.203.383 0 .695.008.691.203 0 .195-.308.203-.691.203zM4.92 8.148c-.003-.203.31-.203.696-.203.383 0 .696.008.692.203 0 .196-.309.207-.692.207-.387 0-.695-.011-.695-.207zm2.75.207c-.382 0-.69-.011-.69-.207-.004-.203.308-.203.69-.203.388 0 .7.008.696.203 0 .196-.308.207-.695.207zm0 0" fill="#4d4d4d"/></svg>