<svg xmlns="http://www.w3.org/2000/svg" width="30" height="30"><circle style="isolation:auto;mix-blend-mode:normal;solid-color:#000;solid-opacity:1;marker:none" cx="15" cy="15" r="14.5" color="#000" overflow="visible" fill="#f25c05" fill-rule="evenodd" stroke="#fff"/><path d="M22.828 17.629h-.687c-.098-1.484-.399-2.57-.762-2.57h-.02.02-2.188c-.359 0-.664 1.086-.761 2.57h-.313l.055-5.422 3.656-2.672h-.008c.004-.004.008-.008.008-.012V7.266c0-.145-2.21-.262-4.941-.262-2.73 0-4.946.117-4.946.262v2.257c0 .004.004.008.008.012h-.008l3.63 2.672.011 5.422h-.926v-2.047l.774-2.137-7.2.028L7 15.8v7.195h7.656V19.59h.93l.008 3.336c0 .035.55.07 1.234.07.684 0 1.235-.035 1.235-.07l.035-3.328h.332c.093 1.492.402 2.582.761 2.582h2.188-.02.02c.363 0 .668-1.086.762-2.57h.687c.094 0 .172-.442.172-.989 0-.55-.078-.992-.172-.992zm-1.285-1.18c.07.39.113.785.14 1.18h-.605c.024-.395.07-.79.137-1.18.055-.304.113-.52.164-.672.05.153.11.368.164.672zm-.188-1.387h-.015.015zm-.02.004h-.01.01zm-.019.004c-.003 0-.007.004-.015.004.008 0 .012-.004.015-.004zm-.02.008c-.003.004-.01.004-.019.008.008-.004.016-.004.02-.008zm-.019.012c-.007.004-.011.004-.015.008.004-.004.008-.004.015-.008zm-.023.012l-.012.011.012-.011zm-.02.015l-.011.012.011-.012zm-.015.016l-.016.012.016-.012zm-.602 2.492v.004zm.582-2.473zm-.023.024l-.012.015.012-.015zm-.016.023l-.012.016.012-.016zm-.02.024c-.003.007-.007.011-.011.015.004-.004.008-.008.012-.015zm-.015.027c-.008.004-.012.012-.016.02.004-.008.008-.016.016-.02zm-.02.027c-.003.008-.007.016-.015.028.008-.012.012-.02.015-.028zm-.02.036l-.01.019.01-.02zm-.019.035c-.003.004-.003.011-.007.02.003-.009.003-.016.007-.02zm-.015.03zm-.016.036c-.004.008-.012.02-.015.031.003-.011.011-.023.015-.03zm-.02.043c-.003.008-.007.02-.011.027l.012-.027zm-.019.043zm-.016.04c0 .007-.003.015-.007.023.004-.008.007-.016.007-.024zm-.015.042zm-.012.043zm-.023.059c0 .007-.004.015-.008.023.004-.008.008-.016.008-.023zm-.012.046zm-.016.047c-.004.008-.004.016-.007.024.003-.008.003-.016.007-.024zm-.015.051c0 .008-.004.016-.004.02 0-.004.004-.012.004-.02zm-.02.07c0 .008-.004.016-.004.024 0-.008.004-.016.004-.024zm-.012.051c-.003.008-.003.016-.003.024 0-.008 0-.016.003-.024zm-.011.055l-.008.02.008-.02zm-.016.05c0 .008 0 .016-.004.024.004-.008.004-.015.004-.023zm-.012.055c0 .008 0 .012-.003.02.003-.008.003-.012.003-.02zm-.02.09v0zm-.007.055c-.004.004-.004.012-.004.02 0-.008 0-.016.004-.02zm-.012.055c-.004.007-.004.015-.004.023 0-.008 0-.016.004-.023zm-.011.062c0 .004-.004.012-.004.02 0-.008.004-.016.004-.02zm-.028.16c0 .004 0 .008-.004.016.004-.008.004-.012.004-.016zm-.008.055c-.003.008-.003.016-.003.023 0-.007 0-.015.003-.023zm-.011.066c0 .004 0 .012-.004.02.004-.008.004-.016.004-.02zm-.008.063c0 .008-.004.012-.004.015 0-.003.004-.007.004-.015zm-.024.176c0 .004 0 .007-.003.015.003-.008.003-.011.003-.015zm-.007.062c0 .008 0 .012-.004.02.004-.008.004-.012.004-.02zm-.008.067c0 .007 0 .015-.004.02.004-.005.004-.013.004-.02zm-.008.07v0zm-.02.187v0zm-.003.067c0 .008-.004.015-.004.02 0-.005.004-.012.004-.02zm-.008.074v0zm-.016 2.187v0zm.586 2.489c.004.004.012.008.016.011-.004-.003-.012-.007-.016-.011zm-.578-2.371c0 .007.004.015.004.023 0-.008-.004-.016-.004-.023zm.008.07v0zm.004.074c0 .008.004.02.004.028 0-.008-.004-.02-.004-.028zm.008.074v0zm.015.18c.004.008.004.02.004.027 0-.007 0-.02-.004-.027zm.008.07c0 .008.004.016.004.028 0-.012-.004-.02-.004-.028zm.008.07c0 .009.004.016.004.024 0-.008-.004-.015-.004-.023zm.008.067l.003.024-.003-.024zm.015.113v0zm.008.055c0 .008 0 .02.004.027-.004-.007-.004-.02-.004-.027zm.008.067c.004.007.004.015.004.027 0-.012 0-.02-.004-.027zm.012.062c0 .012 0 .02.003.027-.003-.007-.003-.015-.003-.027zm.007.066a.05.05 0 01.004.024c0-.008 0-.016-.004-.024zm.016.09c0 .012.004.02.004.028 0-.008-.004-.016-.004-.028zm.012.063c0 .008.004.015.004.027 0-.012-.004-.02-.004-.027zm.011.058c0 .008 0 .02.004.028-.004-.008-.004-.02-.004-.028zm.008.059c.004.008.004.02.008.027-.004-.008-.004-.02-.008-.027zm.012.059c.004.011.008.02.008.03 0-.01-.004-.019-.008-.03zm.02.082c0 .007.003.015.003.027 0-.012-.003-.02-.003-.027zm.011.054c0 .008.004.02.004.028 0-.008-.004-.02-.004-.028zm.012.055c.004.008.004.016.008.027-.004-.011-.004-.02-.008-.027zm.012.05c.004.012.007.02.007.032 0-.012-.003-.02-.007-.031zm.015.055l.012.047-.012-.047zm.016.07c.004.009.008.016.008.024 0-.008-.004-.015-.008-.023zm.016.048c.003.011.003.02.007.027-.004-.008-.004-.016-.007-.027zm.015.05zm.012.043l.012.032-.012-.032zm.015.047c.004.012.008.028.016.04-.008-.012-.012-.028-.015-.04zm.02.059zm.016.043c.004.008.007.015.007.023 0-.008-.003-.015-.007-.023zm.015.039zm.016.039l.012.031-.012-.031zm.016.043c.007.008.011.02.015.027-.004-.008-.008-.02-.015-.027zm.02.043zm.019.031zm.015.035c.004.004.008.012.012.02-.004-.008-.008-.016-.012-.02zm.016.028c.004.011.012.02.015.027-.003-.008-.011-.016-.015-.027zm.02.035c.003.008.007.015.015.02-.008-.005-.012-.012-.016-.02zm.019.031c.004.004.008.008.012.016-.004-.008-.008-.012-.012-.016zm.02.023c.003.004.007.012.011.016l-.012-.016zm.015.024c.004.004.008.012.012.015-.004-.003-.008-.011-.012-.015zm.02.023zm.156.106h.015-.015zm-.117-.067zm.02.016l.01.012-.01-.012zm.019.016c.004.004.008.004.015.007-.007-.003-.011-.003-.015-.007zm.015.011c.008.004.016.004.02.008-.004-.004-.012-.004-.02-.008zm.024.012c.008 0 .012.004.015.004-.003 0-.007-.004-.015-.004zm.023.008c.004 0 .008 0 .012.004-.004-.004-.008-.004-.012-.004zm.219-1.379a4.87 4.87 0 01-.164.668 4.87 4.87 0 01-.164-.668 11.05 11.05 0 01-.137-1.188h.606c-.028.399-.07.793-.141 1.188zm0 0" fill="#fff"/></svg>