<svg xmlns="http://www.w3.org/2000/svg" width="30" height="30"><circle style="isolation:auto;mix-blend-mode:normal;solid-color:#000;solid-opacity:1;marker:none" cx="15" cy="15" r="14.5" color="#000" overflow="visible" fill="#f25c05" fill-rule="evenodd" stroke="#fff"/><path d="M21.941 14.02a.4.4 0 00-.289-.293c-.058-4.34-3.183-7.723-7.164-7.723-3.949 0-7.058 3.332-7.16 7.625a.383.383 0 00-.297.25c-.082.21.004.46.2.555 1.101.535 4.109.78 7.152.78 2.988 0 6.012-.237 7.3-.667.204-.067.32-.305.258-.527zM8.09 13.852v-.004c0-3.922 2.812-6.996 6.398-6.996s6.399 3.074 6.399 6.996c0 .011.004.023.004.039-2.813.593-10.207.66-12.801-.035zm13.797 3.859v0zm-14.649.695c.317 1.356.985 2.563 1.813 3.555.254.305.535.594.832.86 1.324.116 2.898.175 4.484.175 1.692 0 3.39-.066 4.809-.187.297-.266.578-.555.832-.864.847-1.02 1.492-2.129 1.797-3.527l-.176-.035c-.074 0-.047.02-.125.02-.64 0-1.156-.016-1.156-.348-.004-.348.515-.348 1.156-.348.133 0 .262 0 .383.004a9.38 9.38 0 00.039-2.625c-1.399.371-4.446.574-7.453.574-3.086 0-6.137-.215-7.34-.68a9.542 9.542 0 00.027 2.73l.086.005c.188-.004.371-.008.543-.008.637 0 1.16.016 1.156.348-.004.332-.52.347-1.156.347-.121 0-.316-.004-.473-.007zm12.551-2.363c.64 0 1.16.016 1.156.348 0 .332-.515.347-1.156.347-.64 0-1.156-.015-1.156-.347-.004-.348.515-.348 1.156-.348zm-3.43 0c.641 0 1.16.016 1.157.348 0 .332-.516.347-1.157.347-.64 0-1.152-.015-1.156-.347-.004-.348.516-.348 1.156-.348zm-1.714 1.664c.64 0 1.16.016 1.16.348-.004.332-.52.347-1.16.347-.637 0-1.153-.015-1.157-.347-.004-.348.52-.348 1.157-.348zm3.398 0c.637 0 1.16.016 1.156.348-.004.332-.52.347-1.156.347-.64 0-1.156-.015-1.16-.347-.004-.348.52-.348 1.16-.348zm-5.113-1.664c.64 0 1.16.016 1.16.348-.004.332-.52.347-1.16.347-.637 0-1.153-.015-1.157-.347-.003-.348.52-.348 1.157-.348zm-.555 2.012c-.004.332-.52.347-1.16.347-.637 0-1.153-.015-1.156-.347-.004-.348.52-.348 1.156-.348.64 0 1.164.016 1.16.348zM9.5 16.043c.64 0 1.164.016 1.16.348-.004.332-.52.347-1.16.347-.637 0-1.152-.015-1.156-.347-.004-.348.52-.348 1.156-.348zm0 4.16c-.637 0-1.152-.015-1.156-.348-.004-.347.52-.347 1.156-.347.64 0 1.164.015 1.16.347-.004.332-.52.348-1.16.348zm1.715 1.664c-.637 0-1.153-.015-1.156-.347-.004-.348.52-.348 1.156-.348.64 0 1.164.015 1.16.348-.004.332-.52.347-1.16.347zm.558-2.012c-.003-.347.52-.347 1.157-.347.64 0 1.16.015 1.16.347-.004.332-.52.348-1.16.348-.637 0-1.153-.015-1.157-.348zm2.872 2.012c-.637 0-1.153-.015-1.157-.347-.004-.348.52-.348 1.157-.348.64 0 1.16.015 1.16.348-.004.332-.52.347-1.16.347zm3.539 0c-.641 0-1.157-.015-1.16-.347 0-.348.519-.348 1.16-.348.636 0 1.16.015 1.156.348-.004.332-.52.347-1.156.347zm-2.98-2.012c-.005-.347.515-.347 1.155-.347.641 0 1.16.015 1.157.347 0 .332-.516.348-1.157.348-.64 0-1.152-.015-1.156-.348zm4.585.348c-.64 0-1.156-.015-1.156-.348-.004-.347.515-.347 1.156-.347.64 0 1.16.015 1.156.347 0 .332-.515.348-1.156.348zm0 0" fill="#fff"/></svg>