<svg xmlns="http://www.w3.org/2000/svg" width="30" height="30"><circle style="isolation:auto;mix-blend-mode:normal;solid-color:#000;solid-opacity:1;marker:none" cx="15" cy="15" r="14.5" color="#000" overflow="visible" fill="#fff" fill-rule="evenodd" stroke="#f25c05"/><path d="M22.832 15.004c-.57-.41-2.152 1.176-2.152 1.176s.773-1.567 1.289-2.926c.48-1.274.84-2.043.101-2.305-.3-.11-.562.38-.898 1.074-.34.692-.649 1.625-.871 1.98-.09.145-.38.114-.242-.284.093-.274.23-.637.664-1.809.648-1.762.957-2.672.34-2.867-.747-.234-1.227 1.605-1.454 2.273-.406 1.2-.738 1.946-.797 2.059-.132.25-.523.11-.402-.246.106-.313.285-.781.332-.977.121-.504 1.387-2.644.563-2.937-1.22-.434-1.711 4.023-2.407 3.777-.511-.183.493-1.8.586-2.582.028-.215-.062-.32-.21-.375-.653-.23-1.852 2.578-2.239 4.285l-.035.16c-.008-.046-.02-.093-.027-.14-.375-1.707-1.555-4.527-2.207-4.3-.149.05-.239.16-.215.37.09.785 1.078 2.41.566 2.586-.695.242-1.156-4.219-2.375-3.793-.828.29.422 2.438.54 2.942.046.195.222.664.323.98.122.355-.273.492-.406.242-.058-.113-.379-.863-.781-2.066-.219-.668-.688-2.512-1.438-2.281-.617.19-.312 1.101.325 2.87.422 1.176.558 1.54.648 1.81.133.402-.156.429-.246.284-.219-.359-.523-1.293-.855-1.988-.332-.695-.586-1.187-.891-1.082-.742.258-.387 1.031.086 2.305.504 1.367 1.265 2.941 1.265 2.941s-1.566-1.601-2.144-1.195c-.273.195-.195.754.152 1.191 1.246 1.555 2.836 3.262 3.887 3.664 1.125.434 3.07.118 3.785-1.316.715 1.422 2.645 1.746 3.766 1.324 1.054-.394 2.66-2.09 3.914-3.637.351-.433.433-.988.16-1.187zm0 0" fill="#4d4d4d"/></svg>