<svg xmlns="http://www.w3.org/2000/svg" width="8" height="11" viewBox="0 0 8 11"><path d="M2.46.715c.876 0 .368 2.3.415 2.789.016.187 0 .66 0 .973 0 .355.414.355.46.09.02-.122.095-.887.095-2.083 0-.664-.14-2.453.644-2.48.645-.02.645.887.598 2.656-.031 1.18-.043 1.547-.043 1.817 0 .398.281.335.32.175.098-.386.09-1.312.184-2.035.097-.722.187-1.238.508-1.238.785 0 .691.797.648 2.078-.05 1.375-.277 3.012-.277 3.012s.984-1.91 1.66-1.727c.32.09.426.61.23 1.106-.691 1.773-1.664 3.789-2.539 4.472-1.011.797-3.226 1.106-4.289-.308C.691 9.5.227 8.086.062 6.602c-.187-1.637.043-4.516.739-4.516.156 0 .277.066.32.266.164.726-.266 2.48.277 2.48.739 0-.23-4.117 1.063-4.117zm0 0" fill="#4d4d4d"/></svg>