<svg xmlns="http://www.w3.org/2000/svg" width="30" height="30"><circle style="isolation:auto;mix-blend-mode:normal;solid-color:#000;solid-opacity:1;marker:none" cx="15" cy="15" r="14.5" color="#000" overflow="visible" fill="#f25c05" fill-rule="evenodd" stroke="#fff"/><path d="M7.43 14.93h4.75l2.12 8.066zm7.668 7.906l2.191-7.906h-4.18zm1.164.16l6.672-8.066h-4.649zM23 14.098l-2.688-3.172-1.593 3.172zm-5.078-.418l1.625-3.168h-3.684zm-5.313 0l2.024-3.168h-3.684zm-5.144.418h4.348l-1.793-3.172zm5.91 0h3.816l-2.093-2.786zM9.988 9.207l.899-.984-1.36-.09-.691-1.13-.508 1.22L7 8.512l1.043.84-.125 1.304 1.152-.695 1.25.52zm0 0" fill="#fff"/></svg>