<svg xmlns="http://www.w3.org/2000/svg" width="30" height="30"><circle style="isolation:auto;mix-blend-mode:normal;solid-color:#000;solid-opacity:1;marker:none" cx="15" cy="15" r="14.5" color="#000" overflow="visible" fill="#fff" fill-rule="evenodd" stroke="#f25c05"/><path d="M21.813 21.98c-3.153 2.758-6.575-.925-6.563-1.09.012-.16-.223-.894-.457-1.132a1.779 1.779 0 00-.227-.192c-.074-.05-.316-.175-.738-.363l.063-.058c.457.164 1.015.207 1.312-.06.48-.433.352-1.308-.285-1.956-.637-.649-1.52-.918-1.996-.488-.156.14-.32.406-.383.46-.14.13.274-.874-.027-1.12-1.239-1.004-.79-2.239-.29-2.915L9.267 9.934l-.063.054-.476-.199a.425.425 0 01-.204-.176l-.148-.254-.281.258c.082.121.097.254.023.32-.086.079-.265.032-.394-.101-.133-.133-.168-.305-.082-.387.074-.066.21-.043.332.047l.316-.285-.394-.676-.348.317c.043.093.039.191-.016.242-.09.078-.265.035-.398-.098C7 8.86 6.965 8.687 7.05 8.61c.09-.078.265-.035.398.102l.356-.324-.043-.074-.157.14-.52-1.133.356-.32 1.114.598-.192.168.078.047.399-.36c-.133-.137-.168-.308-.082-.387.09-.078.265-.035.398.102.133.133.168.305.082.383-.058.054-.16.05-.258.004l-.382.343.695.403.398-.36c-.086-.12-.101-.253-.027-.32.09-.078.266-.031.399.102.128.132.167.304.078.386-.075.067-.211.043-.332-.046l-.36.328.258.144c.059.035.102.09.121.153l.168.59-.043.035 3.07 3.007c.426-.28.868-.363 1.7-.222.277.047.965.496 1.207.742.238.242 1.168-.027 1.164.09-.004.117-.23.207-.38.343-.48.434-.206 1.25.434 1.899.637.648 1.454.879 1.914.426.325-.32.34-.801.137-1.254l.067-.055c.343.715 1.543 1.274 1.922 1.348.382.078 3.449 3.87.625 6.343zM17.5 19.922c0-.207-.102-.75-1.055-1.266-.074-.039-.105-.09-.101-.164a.48.48 0 01.187-.328c0 .059-.011.14-.035.172a.16.16 0 00-.008.234.18.18 0 00.246.008c.153-.14.192-.492.075-.66-.086-.117-.23-.152-.375-.09-.2.09-.426.363-.438.649a.491.491 0 00.277.468c.817.442.88.86.88.977 0 .101-.04.16-.063.172a.26.26 0 01-.106.035.169.169 0 00-.097-.168.18.18 0 00-.196.027c-.09.082-.093.227-.011.34.093.121.3.207.582.055a.33.33 0 00.074-.055.54.54 0 00.164-.406zm2.867-2.348c.176-.258.098-.46-.023-.554-.11-.09-.262-.094-.352-.012a.163.163 0 00-.043.187.183.183 0 00.172.102.227.227 0 01-.047.098c-.015.027-.066.054-.144.054-.11-.004-.504-.074-1.008-.914a.547.547 0 00-.5-.273c-.262 0-.547.164-.664.37-.074.138-.051.278.066.364.172.125.54.11.692-.031a.16.16 0 00.007-.235.193.193 0 00-.117-.054.177.177 0 00-.125.047.369.369 0 01-.183.023.491.491 0 01.332-.152c.086 0 .148.031.191.11.559.925 1.055 1.073 1.3 1.077a.538.538 0 00.38-.129.32.32 0 00.066-.078zm0 0" fill="#4d4d4d"/></svg>