<svg xmlns="http://www.w3.org/2000/svg" width="30" height="30"><circle style="isolation:auto;mix-blend-mode:normal;solid-color:#000;solid-opacity:1;marker:none" cx="15" cy="15" r="14.5" color="#000" overflow="visible" fill="#fff" fill-rule="evenodd" stroke="#f25c05"/><g fill="#4d4d4d"><path d="M19.832 8.273c-.004-.703-.602-1.27-1.34-1.273h-7.02c-.738.004-1.335.57-1.335 1.273v.989h9.695zm0 0M18.625 10.473h-7.25c-.137 1.562-1.48 1.789-1.34 1.754-.633.261-1.035.812-1.035 1.511v5.672C9 21.383 10.695 23 12.766 23h4.468C19.304 23 21 21.383 21 19.41v-5.672c0-.57-.223-.933-.668-1.351-.434-.383-1.473-.192-1.707-1.914zm-.066 8.03h-7.184V15h7.184zm0 0"/></g></svg>