<svg xmlns="http://www.w3.org/2000/svg" width="11" height="11" viewBox="0 0 11 11"><path d="M10.184 10.297c-2.168 1.898-4.52-.637-4.512-.746.008-.114-.152-.614-.317-.778a.977.977 0 00-.152-.132 4.768 4.768 0 00-.512-.254l.047-.04c.313.118.7.145.903-.038.328-.297.242-.899-.2-1.344-.437-.445-1.043-.633-1.37-.336-.106.098-.22.277-.262.316-.098.09.187-.601-.02-.77-.852-.69-.543-1.538-.2-2.007L1.56 2.016l-.043.039-.329-.137a.284.284 0 01-.14-.121L.945 1.62l-.195.176c.059.086.07.176.02.223-.063.054-.184.023-.274-.07-.09-.09-.113-.212-.055-.266.051-.043.145-.028.227.03l.219-.194-.274-.465-.238.218c.031.067.027.13-.012.168-.058.051-.18.024-.273-.07-.09-.09-.113-.21-.055-.266.063-.054.184-.023.274.07L.555.954.523.903.418 1 .058.219.302 0l.77.41-.133.117.054.032.274-.247C1.176.22 1.148.103 1.21.047c.059-.055.18-.024.27.066.093.094.117.211.058.266-.043.035-.11.035-.176 0l-.265.238.48.278.274-.247c-.059-.082-.07-.175-.02-.218.059-.055.184-.024.273.066.09.094.114.211.055.266-.05.047-.144.031-.226-.032l-.25.227.175.098a.19.19 0 01.086.105l.114.403-.028.027 2.11 2.066c.293-.191.597-.25 1.168-.152.191.031.664.344.828.508.164.168.804-.016.8.066 0 .078-.156.14-.257.234-.332.297-.14.86.297 1.305.437.446 1 .606 1.316.293.223-.219.234-.547.094-.86l.043-.038c.238.492 1.062.875 1.324.926.262.054 2.371 2.66.43 4.359zM7.219 8.883c0-.14-.07-.516-.727-.867-.05-.028-.07-.063-.066-.118 0-.082.062-.175.125-.222a.21.21 0 01-.024.117.112.112 0 00-.004.16c.047.047.122.05.168.004.106-.094.133-.336.051-.453-.058-.078-.156-.102-.258-.059a.564.564 0 00-.3.446.347.347 0 00.191.324c.563.3.605.59.605.668 0 .07-.027.11-.043.117a.171.171 0 01-.074.027c.008-.047-.02-.093-.066-.117a.127.127 0 00-.133.02c-.062.058-.066.156-.008.234.063.082.207.14.399.04a.373.373 0 00.164-.32zM9.19 7.27c.118-.176.067-.317-.02-.383-.073-.059-.179-.063-.241-.008a.115.115 0 00.09.2.186.186 0 01-.032.07c-.011.015-.043.035-.101.035-.075 0-.344-.051-.688-.63a.39.39 0 00-.347-.187.56.56 0 00-.457.258c-.051.09-.032.188.046.246.118.086.372.074.477-.02a.113.113 0 00.004-.163.122.122 0 00-.082-.036.137.137 0 00-.086.032c-.02.015-.082.02-.125.015a.384.384 0 01.226-.105c.063 0 .106.023.137.078.38.637.723.738.89.742a.394.394 0 00.263-.09c.02-.015.03-.035.046-.054zm0 0" fill="#4d4d4d"/></svg>