<svg xmlns="http://www.w3.org/2000/svg" width="30" height="30"><circle style="isolation:auto;mix-blend-mode:normal;solid-color:#000;solid-opacity:1;marker:none" cx="15" cy="15" r="14.5" color="#000" overflow="visible" fill="#fff" fill-rule="evenodd" stroke="#f25c05"/><g fill="#4d4d4d"><path d="M16.04 15.473v-.11c0-.496-.419-.894-.935-.898h-2.312c-.516.004-.93.402-.934.898v.11c0 .21.07.363.16.707h3.805c.145-.344.215-.496.215-.707zm2.64 3.011c.011.633-1.043 4.512-1.043 4.512h-7.098C10.574 23.004 9 19.75 9 18.484c0-1.48 2.945-2.105 2.86-2.117h3.96c1.48.133 2.844 1.305 2.86 2.117zm-8.856-.027s.055-.398.715-.82a8.462 8.462 0 011.266-.66c-2.364.66-2.364 1.507-2.364 1.507zm4.125-.61c-.668 0-1.21.52-1.21 1.165 0 .64.542 1.164 1.21 1.164.668 0 1.211-.524 1.211-1.164 0-.645-.543-1.164-1.21-1.164zm1.156-3.593l.133.012-.402-6.25H12.96c0 1.586-.211 4.964-.297 6.25l.129-.012zm.055-8.242c-.469.062-2.082.004-2.195 1.793h1.848c-.028-.117-.008-.633.675-.633.098 0 .227.008.38.023l.128-1.133c-.375-.05-.676-.074-.836-.05zm1.055.082l-.13 1.12c1.313.145 3.806.595 3.806.595L20 6.855s-2.316-.543-3.785-.761zm0 0"/><path d="M14.582 19.035c0 .32-.27.582-.605.582a.596.596 0 01-.606-.582c0-.32.274-.582.606-.582.336 0 .605.262.605.582zm0 0"/></g></svg>