<svg xmlns="http://www.w3.org/2000/svg" width="9" height="10" viewBox="0 0 9 10"><g fill="#4d4d4d"><path d="M8.766 2.773H6.617c.082.555.133 1.106.133 1.598v.106a.422.422 0 01.305.464.439.439 0 01-.438.356.439.439 0 01-.437-.356.422.422 0 01.304-.464V4.37c0-.492-.05-1.043-.132-1.598h-1.72v4.368H6.29c.07-.621.133-1.258.168-1.852l.262.016c-.032.59-.094 1.222-.164 1.836h2.238C8.93 6.457 9 5.723 9 4.957c0-.734-.078-1.465-.234-2.184zm0 0M4.367 2.773H2.47a22.38 22.38 0 00.035 4.368h1.863zm0 0M2.21 2.773H.235C.078 3.493 0 4.223 0 4.957c0 .766.047 1.5.148 2.184h2.094a23.002 23.002 0 01-.031-4.368zm0 0M.242 7.645c.192.921.508 1.73.992 2.351h1.57a13.564 13.564 0 01-.503-2.351zm0 0M4.633 7.645v2.351h1.246c.09-.535.226-1.398.348-2.351zm0 0M7.59 9.996c.484-.621.848-1.43 1.086-2.351H6.492a60.612 60.612 0 01-.344 2.351zm0 0M2.566 7.645c.114.863.286 1.668.512 2.351h1.29V7.645zm0 0M8.645 2.27A7.776 7.776 0 007.625.004H6.051c.144.558.34 1.394.488 2.266zm0 0M6.273 2.27A30.023 30.023 0 005.781.004H4.633V2.27zm0 0M4.367 2.27V.004H3.02c-.223.621-.387 1.402-.497 2.266zm0 0M1.375.004A7.776 7.776 0 00.355 2.27h1.91c.106-.856.266-1.633.481-2.266zm0 0"/><path d="M597.988 434.041c0 20.58-16.601 37.673-37.52 37.673-20.585 0-37.187-17.092-37.187-37.673 0-20.58 16.602-37.325 37.188-37.325 20.918 0 37.52 16.744 37.52 37.325zm0 0" transform="matrix(.01176 0 0 .0112 0 .003)" stroke-width="15" stroke="#fff" stroke-miterlimit="10"/></g></svg>