<svg xmlns="http://www.w3.org/2000/svg" width="30" height="30"><circle style="isolation:auto;mix-blend-mode:normal;solid-color:#000;solid-opacity:1;marker:none" cx="15" cy="15" r="14.5" color="#000" overflow="visible" fill="#fff" fill-rule="evenodd" stroke="#f25c05"/><path d="M22.996 14.867a9.116 9.116 0 01-1.351 4.254 2.3 2.3 0 00-.079-.293c-.336-1.023-1.836-2.601-3.207-3.84-.382-.347-.882-.433-1.066-.175-.379.546 1.023 2.097 1.023 2.097s-1.398-.773-2.613-1.293c-1.14-.488-1.824-.847-2.074-.137-.102.29.332.547.95.887.62.336 1.452.653 1.769.871.132.09.097.367-.258.23-.242-.093-.567-.234-1.617-.671-1.575-.656-2.391-.969-2.575-.379-.226.719 1.426 1.21 2.02 1.441 1.074.414 1.738.746 1.84.805.222.133.09.508-.227.387-.281-.11-.699-.29-.875-.34-.449-.125-2.355-1.383-2.636-.59-.41 1.164 3.593 1.719 3.359 2.383-.172.492-1.61-.504-2.313-.61-.191-.027-.289.06-.34.2-.218.625 2.29 1.828 3.82 2.23.333.086.665.156.99.211a7.2 7.2 0 01-2.579.465c-4.316-.023-7.637-3.512-7.953-8.145-.02-.3.184-.558.437-.558h15.106c.262 0 .469.262.45.57zm-7.316-1.703V7.602A.589.589 0 0015.105 7h-.16c-.32 0-.574.27-.578.602v5.562a.598.598 0 00.578.606h.16a.595.595 0 00.575-.606zm0 0" fill="#4d4d4d"/></svg>