<svg xmlns="http://www.w3.org/2000/svg" width="30" height="30"><circle style="isolation:auto;mix-blend-mode:normal;solid-color:#000;solid-opacity:1;marker:none" cx="15" cy="15" r="14.5" color="#000" overflow="visible" fill="#f25c05" fill-rule="evenodd" stroke="#fff"/><path d="M13.164 7h2.867s.39 2.45 2 2.523c1.61.075 2.2-.593 2.2-.593l1.53 2.043s-2.429.925-2.472 4.047c-.039 2.859 2.707 3.75 2.707 3.75l-1.453 2.41s-1.867-.809-3.531-.149C15.52 21.625 14.617 23 14.617 23s-.746-1.484-2.355-2.004c-1.61-.52-3.57.149-3.57.149L7.003 18.77s2.746-1.04 2.867-3.79c.156-3.117-2.394-3.898-2.394-3.898l1.37-2.187s1.337.89 2.395.52C13.285 8.968 13.164 7 13.164 7zm1.524 15.02c0-.004-.075-.11-.208-.274l-.277.211c.121.145.188.242.188.242zm.433-.29l-.254-.234c-.097.094-.18.18-.246.254l.266.223c.062-.07.14-.153.234-.243zm-.816-.183a5.123 5.123 0 00-.254-.25l-.246.238c.086.082.164.16.234.235zm1.254-.207l-.227-.254c-.098.078-.187.156-.273.23l.246.243c.078-.07.164-.145.254-.22zm-1.707-.223a3.91 3.91 0 00-.282-.222l-.215.265c.086.067.176.133.262.207zm2.187-.12l-.203-.278c-.102.066-.2.136-.293.203l.219.265c.086-.066.18-.128.277-.19zm-2.734-.286a3.626 3.626 0 00-.313-.184l-.176.293c.098.051.196.11.29.168zm3.293-.027l-.16-.297a6.21 6.21 0 00-.32.164l.179.289c.098-.055.2-.11.3-.156zm-3.852-.278a3.702 3.702 0 00-.344-.136l-.12.316c.105.035.206.078.312.125zm-3.18.117l-.074-.328c-.148.032-.27.059-.355.082l.093.32c.083-.019.196-.046.336-.074zm7.579-.046l-.106-.32a3.385 3.385 0 00-.351.12l.14.305c.102-.039.207-.074.317-.105zm-5.008-.29a7.146 7.146 0 00-.36-.078l-.062.332c.113.02.222.043.328.07zm8.18.012s-.212-.058-.368-.09l-.07.328c.14.028.223.051.355.067zm-10.102.219l-.043-.332a7.246 7.246 0 00-.36.05l.06.329c.105-.016.222-.031.343-.047zm-1.133-.211l-.164-.285-.309.16.16.29zm8.64.148l-.054-.332c-.121.016-.246.04-.36.067l.079.324a4.29 4.29 0 01.336-.059zm-6.273-.289c-.12-.007-.242-.015-.367-.02l-.012.333c.117.004.23.012.34.023zm-.637.313l-.003-.336c-.125.004-.246.012-.368.02l.028.332c.113-.008.226-.012.344-.016zm8.817-.324c-.11-.016-.23-.032-.36-.047l-.039.332c.122.015.239.031.34.047zm-1.262.25l-.008-.336c-.117.004-.238.008-.363.02l.031.331c.114-.007.23-.015.34-.015zm.63-.32c-.114-.008-.24-.012-.364-.016l-.008.336c.121 0 .234.007.348.015zm1.675-.169l-.305-.168-.18.29.305.167zm-11.89-.101l-.2-.293-.312.164.203.293zm12.202-.406l-.304-.168-.18.289.305.168zm-12.601-.137l-.203-.277-.309.16.2.28zm12.816-.293c-.195-.074-.289-.14-.34-.195l-.214.246a.856.856 0 00.351.218zm-12.414-.074l-.219-.262a5.773 5.773 0 01-.277.187l.195.278c.102-.059.2-.13.301-.203zm11.8-.328a5.764 5.764 0 01-.25-.223l-.25.234c.09.09.18.168.263.239zm-11.32-.067l-.245-.242a4.03 4.03 0 01-.254.219l.23.254c.086-.07.18-.145.27-.23zm10.891-.336a4.834 4.834 0 01-.226-.246l-.274.215c.082.09.16.18.239.258zm-10.422-.152l-.277-.207a7.005 7.005 0 01-.223.246l.262.226a5.04 5.04 0 00.238-.265zm10.004-.324a7.84 7.84 0 01-.199-.266l-.293.184c.067.097.137.191.207.28zm-9.633-.168l-.3-.18a3.346 3.346 0 01-.192.27l.29.195c.07-.094.136-.192.202-.285zm9.297-.305a8.977 8.977 0 01-.164-.281l-.316.152c.058.102.117.203.18.3zm-8.996-.234l-.32-.137c-.047.098-.102.195-.152.289l.308.16c.059-.101.113-.207.164-.312zm8.719-.266c-.047-.102-.09-.2-.129-.3l-.332.116c.043.106.09.215.14.32zm-8.477-.352l-.34-.093a4.03 4.03 0 01-.109.304l.332.118c.043-.11.082-.22.117-.329zm8.254-.226a3.032 3.032 0 01-.086-.309l-.347.07c.027.11.058.223.093.337zm-8.12-.367l-.352-.051c-.016.11-.035.215-.059.316l.344.075c.027-.114.05-.227.066-.34zm7.988-.18a4.22 4.22 0 01-.04-.32l-.351.027c.008.113.023.23.043.344zm-7.938-.363v-.059l-.352-.012-.003.059c-.004.09-.008.18-.016.266l.351.027c.012-.09.016-.188.02-.281zm7.887-.2v-.066c0-.09.004-.172.004-.258l-.352-.011a5.865 5.865 0 00-.008.27l.004.073zm-7.883-.171c0-.118-.008-.23-.016-.344l-.351.027c.008.106.011.211.015.324zm7.95-.766l-.349-.05c-.019.109-.035.222-.046.343l.355.027c.008-.11.024-.215.04-.32zm-7.993.164a4.742 4.742 0 00-.059-.34l-.347.063c.02.105.039.215.054.32zm8.117-.715l-.34-.09c-.03.11-.062.223-.086.336l.348.067c.023-.106.05-.211.078-.313zm-8.238.121a4.69 4.69 0 00-.106-.332l-.336.106c.04.101.07.203.098.308zm8.437-.652l-.328-.133c-.047.106-.09.215-.129.324l.336.106c.035-.102.075-.203.121-.297zm-8.656.027a5.941 5.941 0 00-.148-.316l-.32.148c.05.094.097.196.14.293zm8.953-.566l-.297-.18a3.44 3.44 0 00-.183.301l.312.156c.051-.094.11-.187.168-.277zm-9.23.02a7.704 7.704 0 00-.192-.297l-.296.183c.062.09.124.184.18.278zm9.586-.47l-.266-.218a3 3 0 00-.23.27l.285.199c.066-.086.137-.172.21-.25zm-9.938-.038a4.942 4.942 0 00-.226-.274l-.27.219c.074.082.145.168.211.254zm10.364-.352l-.227-.258a3.98 3.98 0 00-.274.239l.25.234c.079-.074.16-.145.25-.215zm-10.813-.152c-.086-.082-.172-.164-.266-.239l-.234.247c.082.074.168.148.246.226zm11.34-.188l-.172-.293a2.924 2.924 0 00-.316.188l.203.273c.093-.062.187-.117.285-.168zm-11.813-.222a5.918 5.918 0 00-.297-.207l-.199.277c.09.055.18.121.274.191zm12.23-.114l-.237-.281-.254.156.25.285zm-12.605-.27l-.238-.152-.223.32.278.145zm12.258-.245l-.215-.313-.293.192.22.312zm-11.84-.254l-.23-.16-.2.277.231.164zm9.727.195l-.031-.332a3.649 3.649 0 01-.29.012h-.046l-.008.336h.055c.105 0 .214-.008.32-.016zm-.617-.332a4.957 4.957 0 01-.336-.047l-.067.328c.121.024.243.04.368.051zm1.312.203l-.105-.32c-.106.031-.215.055-.325.078l.067.328c.121-.023.242-.05.363-.086zm-8.02.043l-.07-.328c-.105.02-.215.031-.324.035l.016.332c.129-.004.254-.015.379-.039zm-.644-.297c-.105-.004-.219-.015-.336-.027l-.047.332c.125.016.25.027.367.031zm6.79-.058a1.917 1.917 0 01-.29-.13l-.18.286c.11.062.227.117.348.16zm-7.427-.02a4.908 4.908 0 01-.336-.074l-.09.324c.106.027.227.055.356.078zm1.903.207l-.121-.316c-.106.035-.211.066-.32.09l.081.328a3.77 3.77 0 00.36-.102zm8.41-.312l-.164-.258-.29.191.165.258zm-.41.203l-.164-.297c-.102.05-.2.094-.305.133l.129.312c.117-.043.23-.094.34-.148zM9.426 9.69c-.156-.023-.239-.12-.313-.171l-.187.257c.101.07.152.09.308.164zm3.18.043l-.196-.28c-.094.058-.187.108-.289.155l.156.301c.114-.05.223-.113.328-.176zm4.359-.175a2.115 2.115 0 01-.242-.215l-.258.23c.086.09.18.168.277.242zm-3.856-.227l-.257-.23a2.083 2.083 0 01-.243.21l.223.262c.098-.074.191-.156.277-.242zm3.446-.168a3.37 3.37 0 01-.2-.254l-.296.184c.074.101.148.195.222.285zm-3.047-.32l-.301-.18c-.059.09-.121.176-.191.258l.277.21c.078-.093.148-.19.215-.288zm2.71-.14a2.861 2.861 0 01-.163-.286l-.317.152c.055.106.114.207.176.305zm-2.398-.462l-.332-.117a2.75 2.75 0 01-.133.29l.317.151c.055-.105.105-.214.148-.324zm2.117-.035c-.078-.184-.117-.289-.136-.3l-.332.109c.02.02.062.132.144.324zm-.527-.531h-.355v.336h.355zm-.62 0h-.353v.336h.352zm-.673 0h-.351v.336h.351zm0 0" fill="#fff"/></svg>