<svg xmlns="http://www.w3.org/2000/svg" width="11" height="10" viewBox="0 0 11 10"><path d="M10.996 4.918a5.297 5.297 0 01-.93 2.656 1.073 1.073 0 00-.05-.183c-.23-.637-1.262-1.625-2.207-2.399-.262-.215-.606-.273-.73-.11-.263.34.702 1.313.702 1.313s-.96-.484-1.8-.808c-.782-.305-1.254-.532-1.422-.086-.07.18.226.344.652.554.426.211 1 .407 1.219.543.086.059.062.23-.184.145-.164-.059-.387-.148-1.11-.418-1.081-.41-1.64-.61-1.769-.238-.156.449.98.758 1.39.902.74.258 1.196.465 1.263.5.156.086.062.32-.153.242-.195-.066-.48-.18-.601-.21-.313-.079-1.621-.864-1.813-.372-.281.73 2.469 1.074 2.309 1.492-.117.305-1.106-.316-1.59-.382-.133-.016-.2.035-.234.125-.153.39 1.574 1.144 2.624 1.394.227.055.458.098.68.133a5.455 5.455 0 01-1.77.289C2.505 9.984.223 7.805.005 4.91c-.016-.187.125-.351.3-.351h10.383c.18 0 .325.164.31.359zM5.97 3.852V.375A.387.387 0 005.574 0h-.113a.385.385 0 00-.395.375v3.477c0 .21.176.378.395.378h.113a.388.388 0 00.395-.378zm0 0" fill="#4d4d4d"/></svg>