<svg xmlns="http://www.w3.org/2000/svg" width="30" height="30"><circle style="isolation:auto;mix-blend-mode:normal;solid-color:#000;solid-opacity:1;marker:none" cx="15" cy="15" r="14.5" color="#000" overflow="visible" fill="#fff" fill-rule="evenodd" stroke="#f25c05"/><path d="M14.047 22.852c.422.011.672.148.414.148h-3.234c-.262 0-.075-.137.343-.148.418-.016.922-.176.922-1.188s-.027-1.344-.027-2.023c0-.68-.383-.621-.88-1.114-.495-.492-.675-1.043-.542-2.027.09-.645.184-1.168.238-1.457a.298.298 0 01.293-.234h2.535c.145 0 .266.097.293.234.055.285.149.812.239 1.457.136.984-.047 1.535-.54 2.027-.496.493-.878.434-.878 1.114 0 .68-.028 1.011-.028 2.023 0 1.012.434 1.172.852 1.188zM19 22.523a.474.474 0 01-.48.461h-2.81a.47.47 0 01-.476-.46V12.288c0-.254.141-.617.313-.809l.762-.843a.64.64 0 00.164-.43V7.043c0-.023-.02-.04-.043-.04a.043.043 0 01-.043-.042v-.676c0-.156.133-.285.297-.285h.863c.164 0 .297.129.297.285v.676c0 .023-.02.043-.043.043-.028 0-.047.016-.047.039v3.164c0 .16.062.313.168.43l.762.843c.171.192.316.555.316.81zm0 0" fill="#4d4d4d"/></svg>