<svg xmlns="http://www.w3.org/2000/svg" width="30" height="30"><circle style="isolation:auto;mix-blend-mode:normal;solid-color:#000;solid-opacity:1;marker:none" cx="15" cy="15" r="14.5" color="#000" overflow="visible" fill="#f25c05" fill-rule="evenodd" stroke="#fff"/><g fill="#fff"><path d="M18.234 10.027H11.73a.347.347 0 01-.347-.34v-.093c0-.184.156-.336.347-.336h6.504c.192 0 .348.152.348.336v.094a.347.347 0 01-.348.34zm0 0M19.2 11.2h-8.337a.384.384 0 01-.39-.38v-.008c0-.21.175-.378.39-.378H19.2c.215 0 .39.168.39.378v.008c0 .211-.175.38-.39.38zm0 0M19.672 12.398h-9.317a.389.389 0 01-.394-.382c0-.211.176-.383.394-.383h9.317c.219 0 .394.172.398.383a.395.395 0 01-.398.382zm0 0M19.656 19.441h-9.32a.392.392 0 01-.399-.382c0-.211.18-.383.399-.383h9.32c.219 0 .395.172.399.383a.395.395 0 01-.399.382zm0 0M19.188 20.64h-8.333a.388.388 0 01-.394-.378v-.008a.388.388 0 01.394-.379h8.333c.214 0 .39.168.39.379v.008c0 .21-.176.379-.39.379zm0 0M18.234 21.816H11.73a.344.344 0 01-.347-.34v-.09c0-.187.156-.335.347-.34h6.504a.347.347 0 01.348.34v.09c0 .188-.156.34-.348.34zm0 0M17.621 22.992h-5.207a.306.306 0 01-.312-.3v-.16a.31.31 0 01.312-.305h5.207a.31.31 0 01.313.304v.16c0 .168-.141.301-.313.301zm0 0M17.621 8.957h-5.207a.31.31 0 01-.312-.305c.074-.828 2.543-.539 2.636-2.257l.035-.196a.225.225 0 01.23-.191c.118 0 .216.082.231.195l.024.16c-.031 1.707 2.672 1.442 2.676 2.29a.31.31 0 01-.313.304zm0 0M9.902 13.574h10.23a.389.389 0 00.395-.383.389.389 0 00-.394-.382H9.903a.392.392 0 00-.4.382c0 .211.18.383.4.383zm0 0M11.715 13.977c.36 0 .683.289.902.742h7.82a.393.393 0 00.399-.387c0-.21-.18-.383-.399-.383H9.621a.392.392 0 00-.398.383c0 .215.18.387.398.387h1.192c.214-.453.539-.742.902-.742zm0 0M9.395 15.125a.389.389 0 00-.395.383c0 .21.176.383.395.383h1.14a3.4 3.4 0 01.121-.766zm0 0M21 15.508a.389.389 0 00-.395-.383H12.77c.07.25.109.508.12.766h7.712a.392.392 0 00.398-.383zm0 0M20.438 17.09a.389.389 0 00.394-.383.389.389 0 00-.395-.383h-7.55a3.224 3.224 0 01-.14.766zm0 0M9.566 16.324a.389.389 0 00-.394.383c0 .211.176.383.394.383h1.118a3.44 3.44 0 01-.145-.766zm0 0M11.715 18.16c-.34 0-.649-.254-.863-.66h-1.02a.389.389 0 00-.395.383c0 .21.176.383.395.383h10.297a.392.392 0 00.398-.383c0-.211-.18-.383-.398-.383h-7.555c-.215.402-.52.66-.86.66zm0 0"/></g></svg>