<svg xmlns="http://www.w3.org/2000/svg" width="30" height="30"><circle style="isolation:auto;mix-blend-mode:normal;solid-color:#000;solid-opacity:1;marker:none" cx="15" cy="15" r="14.5" color="#000" overflow="visible" fill="#f25c05" fill-rule="evenodd" stroke="#fff"/><g fill="#fff"><path d="M18.484 9.504l-7.004-.012-.011 10.965 7 .008zm-3.582 7.394l-2.25-2.199 2.246-2.18 2.25 2.2zm0 0"/><path d="M20 21.89V8.024v-.8c0-.008 0-.016-.008-.024v-.004c0-.113-.066-.187-.148-.183h-.012c-.082 0-.145.074-.14.183l.011.77h-.605l-.016-.735c0-.113-.066-.207-.148-.203h-.004c-.078.004-.14.098-.14.207l.007.73h-.5l-.012-.73c-.004-.113-.07-.21-.148-.207h-.004c-.078.004-.14.102-.14.211l.003.727H17.5l-.016-.727c0-.11-.066-.215-.148-.21h-.004c-.078.003-.14.109-.14.218l.003.719H16.7l-.012-.719c-.003-.113-.07-.223-.148-.219h-.004c-.078.004-.14.114-.14.223l.003.715h-.496l-.015-.715c0-.113-.067-.227-.149-.223h-.004c-.078.004-.14.118-.14.227l.004.71h-.496l-.012-.71c-.004-.11-.07-.23-.152-.227-.083.004-.145.125-.141.235l.004.703h-.5l-.012-.703c-.004-.114-.07-.239-.148-.235h-.004c-.078.004-.14.13-.14.239l.003.699h-.496l-.016-.7c0-.113-.066-.242-.148-.238h-.004c-.078.004-.14.133-.14.243l.007.695h-.5l-.012-.695c-.004-.11-.07-.247-.148-.243h-.004c-.078.004-.14.141-.14.25l.003.688h-.496l-.015-.688c0-.113-.067-.254-.149-.25h-.004c-.078.004-.14.145-.14.254l.004.684h-.497l-.011-.684c-.004-.11-.07-.258-.149-.254h-.004c-.082.004-.144.149-.14.258l.004.68h-.5l-.012-.68c-.004-.11-.07-.262-.148-.258h-.004c-.079.004-.141.157-.141.266v15.5c0 .012 0 .023.008.031.008.102.07.168.148.164h.012c.082 0 .145-.074.14-.183l-.011-.84.601-.004.008.832c0 .113.067.187.149.187h.011c.082-.003.145-.074.141-.187l-.012-.832h.504l.004.832c.004.113.07.187.149.187h.015c.078-.003.145-.074.14-.187l-.015-.832h.508l.004.832c0 .113.066.187.148.187h.016c.078-.003.14-.074.14-.187l-.015-.832h.504l.004.832c.004.113.07.187.152.187h.012c.082-.003.144-.074.14-.187l-.015-.832h.508l.004.832c0 .113.066.187.148.187h.016c.078-.003.14-.074.14-.187l-.015-.832h.504l.007.832c0 .113.067.187.149.187h.012c.082-.003.144-.074.14-.187l-.012-.832h.504l.004.832c0 .113.07.187.149.187h.015c.078-.003.145-.074.14-.187l-.015-.832h.508l.004.832c0 .113.066.187.148.187h.016c.078-.003.14-.074.14-.187l-.015-.832h.504l.004.832c.004.113.07.187.148.187h.016c.082-.003.144-.074.14-.187l-.015-.832h.508l.004.832c0 .113.066.187.148.187h.016c.078-.003.14-.074.14-.187l-.015-.832h.504l.007.832c0 .113.067.187.149.187h.012c.082-.003.144-.074.14-.187l-.015-.832h.507l.004.832c0 .113.07.187.149.187h.015c.079-.003.141-.074.141-.187v-.879-.023zm-1.113-1.019l-7.84-.008.015-11.777 7.84.008zm0 0"/></g></svg>