<svg xmlns="http://www.w3.org/2000/svg" width="11" height="11" viewBox="0 0 11 11"><path d="M9.469 1.727A5.531 5.531 0 005.426 0c-1.5.02-2.953.684-3.985 1.816A5.522 5.522 0 00.011 5.88v.004c.024.867 1.305 4.578 1.446 5.07A.067.067 0 001.52 11h7.87c.028 0 .051-.02.063-.043.145-.477 1.504-4.305 1.54-4.96.077-1.493-.49-3.18-1.524-4.27zm.594 4.128h-.376a.068.068 0 01-.054-.027c-.012-.02-.016-.039-.004-.058.062-.141.105-.266.117-.34.035-.215.09-.805-.289-1.215-.336-.36-.863-.52-1.137-.555-.09-.015-.234-.078-.277-.16 0 0-.004-.004-.004-.008.246-.23.777-.746.82-.883.02-.07-.046-.125-.129-.18-.289-.195-.324-.214-.367.169a.71.71 0 01-.086.261c-.086.141-.164.29-.234.442-.012.02-.031.035-.055.035a.069.069 0 01-.058-.031c-.106-.16-.246-.313-.446-.285-.273.035-1.992.535-1.921 1.82.023.375.203.672.445.902.02.02.023.043.015.07-.011.024-.03.04-.058.036h-.492c-.016 0-.032-.004-.043-.02a.063.063 0 01-.02-.043 1.574 1.574 0 00-.226-.89c-.274-.43-.899-.692-.961-.75-.059-.06-.118-.368-.188-.532a.054.054 0 00-.05-.039.058.058 0 00-.06.028c-.152.242-.616.906-1.609 1.37-.132.067-.394.184-.671.192a.347.347 0 01-.18-.039c-.113-.07-.156-.105-.184-.188.192.258.914.075 1.617-.414.704-.488 1.125-1.097.938-1.359-.188-.266-.914-.082-1.617.41a3.193 3.193 0 00-.692.625c-.136.168-.28.371-.293.594a.45.45 0 00.172.383c.157.14.438.11.446.39.003.102.011.192.023.278l-.93-.004C.91 5.84.88 5.816.88 5.78a4.661 4.661 0 011.21-3.39C2.962 1.434 4.18.875 5.439.859c1.257-.015 2.5.516 3.398 1.457.836.88 1.297 2.254 1.293 3.477a.068.068 0 01-.066.062zm0 0" fill="#4d4d4d"/></svg>