<svg xmlns="http://www.w3.org/2000/svg" width="10" height="11" viewBox="0 0 10 11"><path d="M4.11 0h1.91s.261 1.684 1.335 1.734c1.07.051 1.465-.406 1.465-.406L9.84 2.73s-1.621.637-1.649 2.782C8.164 7.477 9.996 8.09 9.996 8.09l-.969 1.66s-1.242-.559-2.351-.102C5.68 10.055 5.078 11 5.078 11s-.496-1.02-1.57-1.379c-1.07-.355-2.38.102-2.38.102L.005 8.09s1.832-.715 1.91-2.602C2.016 3.344.316 2.808.316 2.808l.918-1.507s.887.613 1.594.36C4.188 1.35 4.11 0 4.11 0zm1.015 10.324s-.047-.074-.137-.183l-.187.14c.082.102.125.168.125.168zm.29-.195l-.173-.16a5.84 5.84 0 00-.164.172l.18.152c.043-.047.094-.105.156-.164zm-.548-.125a2.356 2.356 0 00-.164-.176l-.168.164c.059.055.11.11.156.164zm.84-.145l-.152-.175a2.476 2.476 0 00-.18.16l.16.164c.055-.047.11-.098.172-.149zM4.57 9.707a3.209 3.209 0 00-.187-.152l-.145.18c.059.046.117.093.172.144zm1.453-.086l-.132-.187c-.067.043-.133.09-.196.136l.145.184c.058-.043.12-.09.183-.133zm-1.82-.195a5.965 5.965 0 00-.21-.125l-.114.199c.062.035.129.074.191.117zm2.195-.016l-.105-.207c-.074.035-.145.074-.215.113l.121.2c.063-.04.133-.075.2-.106zm-2.57-.191a2.302 2.302 0 00-.226-.094l-.082.215c.07.023.14.055.207.086zm-2.117.078l-.05-.227c-.099.024-.18.043-.235.059l.062.219c.055-.012.13-.032.223-.051zm5.05-.031l-.07-.223a5.663 5.663 0 00-.234.086l.094.21c.07-.027.14-.054.21-.073zm-3.335-.2c-.078-.02-.16-.039-.242-.05l-.043.226c.078.012.152.028.222.047zm5.453.008s-.14-.039-.246-.062l-.047.226c.094.02.148.035.234.043zm-6.738.153l-.028-.23c-.082.01-.164.023-.238.034l.04.227c.07-.012.147-.024.226-.031zm-.754-.145l-.11-.2-.207.114.11.195zm5.761.098l-.035-.227a4.454 4.454 0 00-.242.043l.055.227c.07-.016.144-.032.222-.043zm-4.183-.196a4.611 4.611 0 00-.246-.015l-.004.23c.078.004.152.008.226.016zm-.422.215l-.004-.23c-.086 0-.164.004-.242.011l.015.23a2.22 2.22 0 01.231-.01zm5.875-.222a3.255 3.255 0 00-.238-.032l-.028.227c.082.008.16.02.23.031zm-.84.168l-.004-.23c-.078.003-.16.007-.242.015l.02.226.226-.011zM8 8.925l-.242-.01-.008.23.23.011zm1.113-.116l-.203-.114-.117.2.203.113zm-7.925-.067l-.133-.203-.207.113.132.2zm8.136-.281l-.207-.113L9 8.547l.203.113zM.922 8.367l-.137-.191-.203.113.133.191zm8.547-.203a.587.587 0 01-.23-.129l-.141.168a.58.58 0 00.234.149zM1.19 8.117l-.148-.183c-.059.046-.121.09-.184.132l.133.192c.063-.043.133-.09.2-.14zm7.868-.226a2.96 2.96 0 01-.168-.157l-.168.164.175.165zm-7.547-.047l-.164-.164a4.635 4.635 0 01-.168.148l.152.176c.059-.047.117-.102.18-.16zm7.258-.23c-.047-.051-.098-.11-.149-.169l-.184.145c.055.066.11.125.16.18zm-6.946-.106l-.183-.14c-.051.058-.102.112-.153.167l.176.156a3.59 3.59 0 00.16-.183zm6.668-.223c-.043-.058-.09-.117-.133-.183l-.195.128.14.196zM2.07 7.168l-.203-.121c-.039.062-.082.125-.125.187l.192.133c.046-.062.093-.133.136-.199zm6.2-.207a3.143 3.143 0 01-.11-.195l-.21.105c.034.07.077.14.116.207zm-6-.16l-.215-.094a1.851 1.851 0 01-.102.195l.207.114c.04-.07.078-.141.11-.215zm5.816-.184c-.031-.07-.063-.137-.086-.207l-.223.078c.028.074.059.149.094.223zM2.43 6.375l-.227-.063c-.02.07-.043.141-.07.211l.222.079c.028-.075.055-.153.075-.227zm5.504-.152c-.02-.075-.04-.145-.055-.215l-.23.047c.015.078.035.156.058.23zM2.52 5.965l-.23-.031c-.013.074-.028.144-.044.218l.23.051c.02-.078.032-.156.044-.238zm5.328-.121a4.181 4.181 0 01-.028-.219l-.234.016c.004.082.016.16.027.238zm-5.293-.25v-.04l-.235-.011-.004.043c0 .062-.003.121-.007.184l.234.02.012-.196zm5.258-.137V5.41c0-.058 0-.117.003-.176l-.234-.007c-.004.058-.004.12-.004.183v.05zM2.559 5.34c0-.082-.004-.16-.012-.238l-.235.02.012.222zm5.3-.527l-.234-.036a4.246 4.246 0 00-.031.235l.234.023a3.4 3.4 0 01.031-.223zm-5.332.113a4.885 4.885 0 00-.039-.235l-.23.043c.015.075.027.149.035.22zm5.414-.492l-.226-.063a2.21 2.21 0 00-.059.23l.23.047a3.45 3.45 0 01.055-.214zm-5.492.082c-.023-.075-.043-.153-.07-.227l-.223.07c.024.07.043.145.063.215zm5.621-.45l-.215-.09a5.306 5.306 0 00-.09.223l.227.074c.024-.07.051-.14.078-.207zm-5.77.02c-.027-.074-.062-.145-.097-.219l-.21.106c.03.066.062.132.089.199zm5.973-.387l-.199-.125a2.24 2.24 0 00-.125.207l.211.106c.035-.063.07-.13.113-.188zm-6.156.012a2.222 2.222 0 00-.129-.203l-.195.129c.039.058.082.125.117.187zm6.39-.32l-.175-.153a2.483 2.483 0 00-.156.188l.191.136c.043-.062.09-.117.14-.171zm-6.624-.032a2.232 2.232 0 00-.153-.183l-.18.148c.052.055.098.114.145.176zm6.906-.238l-.148-.176c-.063.051-.125.106-.184.16l.168.165c.05-.051.11-.102.164-.149zm-7.207-.105a2.356 2.356 0 00-.176-.164l-.156.171c.055.047.11.102.164.153zm7.559-.13l-.114-.202c-.07.039-.14.082-.21.128l.136.192a2.46 2.46 0 01.188-.117zM1.27 2.735c-.067-.05-.133-.101-.2-.144l-.133.191c.06.04.122.086.184.133zm8.152-.078l-.16-.195-.168.11.168.195zM1.02 2.473l-.16-.106-.15.219.185.098zM9.19 2.3l-.144-.215-.195.133.144.215zm-7.894-.172l-.152-.113-.137.191.156.113zm6.484.133l-.023-.23c-.063.007-.13.007-.192.007h-.03l-.005.23h.035c.07 0 .145 0 .215-.007zm-.414-.23A1.965 1.965 0 017.148 2l-.046.227c.082.015.164.027.246.035zm.875.14l-.066-.219c-.07.02-.145.04-.219.05l.047.227c.078-.015.16-.035.238-.058zm-5.344.031l-.046-.226c-.07.011-.141.02-.215.023l.008.23c.085-.003.171-.011.253-.027zM2.468 2a2.403 2.403 0 01-.222-.023l-.031.23c.082.012.164.02.242.023zm4.528-.043a1.257 1.257 0 01-.195-.09l-.121.2c.074.042.152.078.234.109zm-4.953-.012c-.078-.015-.156-.035-.223-.05l-.062.222c.074.02.152.035.238.055zm1.27.14l-.083-.214c-.066.024-.14.043-.21.059l.054.226c.078-.02.16-.043.239-.07zm5.605-.214l-.11-.176-.19.13.109.179zm-.27.14l-.113-.202a1.886 1.886 0 01-.203.09l.086.214c.078-.031.156-.062.23-.101zm-7.03-.16c-.102-.019-.161-.085-.212-.117l-.12.176c.066.047.1.063.202.113zm2.12.028l-.133-.192c-.062.04-.125.075-.19.106L3.52 2c.074-.035.148-.074.218-.121zm2.903-.121a1.844 1.844 0 01-.16-.145l-.172.157c.058.062.12.117.183.167zm-2.57-.156l-.169-.157c-.05.051-.105.102-.164.145l.149.18a1.25 1.25 0 00.183-.168zm2.3-.114c-.047-.054-.09-.113-.137-.175l-.195.128c.047.067.098.133.149.192zM4.34 1.266l-.203-.121c-.04.062-.082.12-.125.175l.183.145c.051-.063.098-.13.145-.2zm1.805-.094a3.142 3.142 0 01-.11-.195l-.21.101c.038.074.077.145.116.211zM4.547.855L4.328.773c-.027.067-.058.133-.09.2l.211.101c.035-.07.07-.144.098-.219zm1.41-.027c-.05-.125-.078-.195-.09-.207L5.645.7c.011.012.043.09.097.223zM5.605.465h-.234v.23h.234zm-.41 0h-.238v.23h.238zm-.449 0h-.238v.23h.238zm0 0" fill="#4d4d4d"/></svg>