<svg xmlns="http://www.w3.org/2000/svg" width="30" height="30"><circle style="isolation:auto;mix-blend-mode:normal;solid-color:#000;solid-opacity:1;marker:none" cx="15" cy="15" r="14.5" color="#000" overflow="visible" fill="#f25c05" fill-rule="evenodd" stroke="#fff"/><g fill="#fff"><path d="M15.941 21.043v-2.602h4.055c.613 0 1.106-.523 1.106-1.171 0-.387-.297-.704-.664-.704H10.055c-.367 0-.664.317-.664.704 0 .648.492 1.171 1.105 1.171h3.824v2.602H7v1.953h16v-1.953zm0 0M17.848 7.898c.261-.062.496-.156.496-.304 0-.184-.438-.332-1.336-.45-.66-.085-1.465-.14-2.051-.14-.586 0-1.39.055-2.047.14-.902.118-1.336.266-1.336.45 0 .14.219.238.473.3 1.887 2.618-2.004 2.126-2.004 3.758 0 2.68 2.254 4.88 5.07 4.88 2.813 0 5.121-2.2 5.121-4.88 0-1.668-4.129-1.144-2.386-3.754zm-4.672-.53a17.368 17.368 0 011.887-.122c.527 0 1.269.047 1.882.121.805.098 1.063.195 1.098.23-.012.024-.16.098-.734.16-.547.06-1.317.09-2.22.09-.898 0-1.694-.03-2.25-.09-.6-.062-.745-.14-.76-.163.038-.032.296-.13 1.097-.227zm3.683.663zm0 0"/></g></svg>