<svg xmlns="http://www.w3.org/2000/svg" width="7" height="11" viewBox="0 0 7 11"><path d="M6.227 6.402C6.69 5.902 7 5.07 7 4.122 7 2.405 6.172 1.34 5.187 1.34c-.152 0-.304.031-.44.094a1.11 1.11 0 01.37-.098l-.976.047c-.11 0-.215.015-.317.043L3.804.059C3.805.023 3.599 0 3.34 0s-.465.023-.465.059l.023 1.925c-.484.493-.836 1.254-.836 2.121 0 .844.231 1.512.602 1.957-1.52.063-2.664.344-2.664.68L.059 9.82c0 .383 1.43 1.18 3.27 1.18 1.839 0 3.218-.816 3.218-1.203l.11-3.055c0-.12-.16-.242-.43-.34zm-2.38-3.066a2.97 2.97 0 01.395-1.008c.274-.426.621-.66.98-.66.266 0 .653.102.985.594.309.457.473 1.097.469 1.86 0 .933-.324 1.76-.793 2.175-.188.144-.176.129-.27.187a.899.899 0 01-.39.094.979.979 0 01-.61-.234 1.61 1.61 0 01-.254-.262 2.983 2.983 0 01-.117-.164 2.999 2.999 0 01-.375-.914 3.73 3.73 0 01-.097-.883c0-.262.023-.527.078-.785zM5.48 7.03c-.593.11-1.355.168-2.152.168-.797 0-1.558-.058-2.152-.168-.563-.105-.813-.222-.899-.289.086-.062.336-.183.899-.285a11.73 11.73 0 011.715-.164c.023.02.043.035.062.05l.004.321c0 .031.211.055.465.055.215 0 .394-.016.45-.04l1.007.153c.02.004.043.012.062.016.008.004.016.004.024.007l.058.012c.012 0 .02.004.032.004.02.004.039.004.058.008h.024a1.278 1.278 0 00.887-.293c.175.059.308.125.355.156-.082.067-.336.184-.899.29zm.473-2.86c0 .266-.16.477-.36.477-.198 0-.359-.21-.359-.476 0-.262.16-.477.36-.477.199 0 .36.215.36.477zm0 0" fill="#4d4d4d"/></svg>