<svg xmlns="http://www.w3.org/2000/svg" width="11" height="10" viewBox="0 0 11 10"><g fill="#4d4d4d"><path d="M10.645 5.023c-.079.063-.16.125-.243.18l-.015.016c-.301.183-.617.336-.95.46H9.43l-.012.005c-.18.058-.363.105-.55.136l-.036.004h-.031l-1.305.008a.174.174 0 00-.172.125c-.097.504-.59.887-1.176.887H4.793c-.586 0-1.078-.383-1.176-.883-.015-.074-.09-.125-.172-.125-.78-.004-1.218-.004-1.3-.008h-.036l-.03-.004a3.833 3.833 0 01-.556-.136l-.007-.004h-.008a5.623 5.623 0 01-.95-.465L.552 5.21l-.008-.004a2.815 2.815 0 01-.242-.184C.234 4.965 0 4.785 0 4.785V8.77c0 1.218 1.152 1.226 2.574 1.226h5.793C9.79 9.996 11 9.988 11 8.77V4.785c.004 0-.29.18-.355.238zm0 0"/><path d="M.828 4.691a4.6 4.6 0 00.86.418c.148.051.304.09.457.118.011 0 .023.003.035.003.082 0 .398.004 1.504.008h.199c.09-.004.168.063.172.149v.191c.015.375.34.672.738.664h1.246c.395.008.723-.285.738-.66l.004-.187a.168.168 0 01.176-.149h.344s.172.008.418.008c.426.004.851-.02 1.273-.074l.024-.004c.12-.031.242-.07.359-.114l.02-.003c.398-.184.683-.348.843-.489 0 0 .762-.488.762-.715V2.773c0-1.132-1.191-1.02-2.516-1.02H7.48v-.8c0-.523-.449-.95-1-.95H4.43c-.555 0-1 .427-1.004.95v.805h-1.14C.956 1.758.003 1.64.003 2.773v1.082c.105.43.445.575.824.836zM4.113.953c0-.164.14-.3.317-.3h2.05c.172 0 .317.136.317.3v.805H4.113zm0 0"/></g></svg>