<svg xmlns="http://www.w3.org/2000/svg" width="10" height="10" viewBox="0 0 10 10"><g fill="#4d4d4d"><path d="M3.285 8.016H1.527V2.148c0-.539.407-.972.903-.972.5 0 .906.433.906.972zm-.86-5.157c-.331 0-.6.286-.6.641 0 .355.269.645.6.645.333 0 .598-.29.598-.645 0-.355-.265-.64-.597-.64zm0 0M10 9.984L.582 10 .566 8.266 9.98 8.25zm0 0M5.504 1.32v2.16l.906-.312v-2.16zm0 0M0 3.215l.586 1.957.648-.223V2.79zm0 0M7.227.727v2.16l.91-.313V.414zm0 0M9.938 1.957L9.351 0l-.399.137v2.16zm0 0M3.777 1.914v2.16l.907-.312v-2.16zm0 0"/></g></svg>