<svg xmlns="http://www.w3.org/2000/svg" width="30" height="30"><circle style="isolation:auto;mix-blend-mode:normal;solid-color:#000;solid-opacity:1;marker:none" cx="15" cy="15" r="14.5" color="#000" overflow="visible" fill="#fff" fill-rule="evenodd" stroke="#1d1d1b"/><g fill="#4d4d4d"><path d="M8 6.004h.844v16.992H8zm0 0M21.156 6.004H22v16.992h-.844zm0 0M17.867 6.004v5.059h-2.445v-5.06h-.844v5.06h-2.445v-5.06h-.844v16.993h.844v-4.969h2.445v4.97h.844v-4.97h2.445v4.97h.844V6.003zm-3.996 10.855l.711-3.156a.915.915 0 01-.586-1.031.934.934 0 01.938-.742.928.928 0 01.914.77.91.91 0 01-.618 1.01l.707 3.13zm0 0"/></g></svg>