<svg xmlns="http://www.w3.org/2000/svg" width="30" height="30"><circle style="isolation:auto;mix-blend-mode:normal;solid-color:#000;solid-opacity:1;marker:none" cx="15" cy="15" r="14.5" color="#000" overflow="visible" fill="#fff" fill-rule="evenodd" stroke="#1d1d1b"/><g fill="#4d4d4d"><path d="M20.668 12.16c0-.922-.656-1.613-1.418-1.972l.492-2.204a.806.806 0 00-.633-.96.825.825 0 00-.984.617l-.508 2.265h-.441V8.707a.971.971 0 00-.98-.957h-2.614c-.543 0-.984.43-.984.957v1.2h-.34l-.645-2.227a.833.833 0 00-1.023-.559.807.807 0 00-.574.996l.613 2.117c-.715.364-1.316 1.024-1.316 1.903l.011.863c0 .64.375 1.148.864 1.504.277.184.578.34.89.465.16.054.324.101.492.129.047.004.328.007 1.578.011h.383l.004.375a.758.758 0 00.762.739h1.293a.763.763 0 00.765-.73l.004-.376h.532l.007.004s.18.004.434.004c.387 0 .926-.016 1.332-.082.137-.035.266-.078.395-.129.421-.2.855-.559 1.02-.715l.316-.3c.18-.27.273-.583.273-.899zm-4.012-2.254h-3.539V8.707c0-.25.207-.453.465-.453h2.613c.254 0 .461.203.461.453zm0 0"/><path d="M16.883 15.496h-.14c-.013.613-.524 1.102-1.153 1.106h-1.293c-.629-.004-1.14-.5-1.149-1.114-.867-.004-1.554-.008-1.605-.011a2.001 2.001 0 01-.508-.122c-.004.055-.008.106-.008.16v3.2c0 1.074.895 1.95 2 1.95h3.817c1.101 0 1.996-.876 1.996-1.95v-3.2c0-.038 0-.078-.004-.12a.76.76 0 01-.078.02c-.735.124-1.875.081-1.875.081zm0 0"/><path d="M20.352 14.469s-.473.449-1.016.734c.016.102.023.207.023.313v3.199c0 1.348-1.132 2.453-2.515 2.453h-3.817c-1.386 0-2.52-1.105-2.52-2.453v-3.2c0-.124.013-.25.032-.37-.55-.274-1.062-.641-1.062-.844 0 0-.5 2.898-.477 3.844.023.84.598 4.351.734 4.515.07.082.153.156.243.215a.697.697 0 00.402.121l9.144-.02a.54.54 0 00.29-.081c.113-.07.261-.184.3-.317.075-.265.778-3.172.883-4.39.059-.653-.644-3.72-.644-3.72zm0 0"/></g></svg>