<svg xmlns="http://www.w3.org/2000/svg" width="11" height="10" viewBox="0 0 11 10"><g fill="#4d4d4d"><path d="M2.66 9.973L0 9.07l.02-3.402 2.628.914zM1.645 8.449l.136.438.407.129-.696-2.051-.34-.117-.695 1.554.383.141.16-.324zm-.512-.547l.187-.441.188.566zm0 0M5.457 9.04l-2.582.925V6.59l2.598-.899zm-1.977.01s1.442-.3 1.528-.882c.066-.441-.36-.438-.36-.438.325-.168.344-.687 0-.777-.195-.055-1.183.274-1.183.274zm.442-1.609s.5-.18.523 0c.04.29-.523.387-.523.387zm0 .727s.613-.27.637-.027c.03.296-.637.418-.637.418zm0 0M2.75 4.629l2.602.91-2.61.883-2.566-.906zm.828.723c.016.18-.09.32-.293.367-.55.133-1.098-.063-1.098-.344 0-.277.633-.293.793-.285l-.058-.27c-.348.004-1.277.114-1.277.586 0 .39.94.82 1.832.559.34-.098.609-.262.57-.613zm0 0M8.25 10l-2.574-.941.02-3.364 2.53.895zM7.2 8.496l.136.438.406.132-.699-2.05-.34-.118-.695 1.555.379.14.16-.323zm-.516-.55l.191-.442.188.57zm0 0M10.988 9.094l-2.527.902-.016-3.387L11 5.727zm-1.957 0s1.446-.305 1.528-.883c.066-.445-.36-.438-.36-.438.328-.171.34-.687 0-.78-.195-.052-1.183.277-1.183.277zm.438-1.61s.5-.18.527 0c.04.29-.527.383-.527.383zm0 .727s.617-.274.64-.031c.028.3-.64.418-.64.418zm0 0M8.36 4.613l2.558.938-2.566.898-2.532-.922zm.769.785c.016.18-.09.32-.293.368-.55.132-1.098-.063-1.098-.344 0-.277.633-.293.793-.285l-.058-.27c-.344.004-1.278.113-1.278.582 0 .395.942.82 1.832.563.34-.098.61-.262.57-.614zm0 0M5.46 5.379l-2.612-.934.02-3.324 2.589.875zM4.388 3.883l.136.437.407.13-.696-2.044-.34-.12L3.2 3.84l.383.14.16-.324zm-.512-.543l.188-.442.187.567zm0 0M5.672 5.379L5.664 2l2.594-.883-.024 3.332m-2.011.04s1.445-.305 1.527-.887c.066-.442-.36-.434-.36-.434.329-.172.344-.688 0-.781-.195-.051-1.18.277-1.18.277zm.437-1.61s.504-.18.527 0c.04.285-.527.383-.527.383zm.043.797s.617-.274.637-.031c.031.296-.637.417-.637.417zm0 0M5.55 0l2.63.914-2.649.902L2.965.941zm.77.79c.016.175-.09.315-.293.366-.554.13-1.097-.066-1.097-.347 0-.278.633-.293.793-.286l-.055-.27C5.324.263 4.391.368 4.391.84c0 .39.941.82 1.832.562.34-.097.609-.265.57-.613zm0 0"/></g></svg>