<svg xmlns="http://www.w3.org/2000/svg" width="30" height="30"><circle style="isolation:auto;mix-blend-mode:normal;solid-color:#000;solid-opacity:1;marker:none" cx="15" cy="15" r="14.5" color="#000" overflow="visible" fill="#fff" fill-rule="evenodd" stroke="#1d1d1b"/><g fill="#4d4d4d"><path d="M11.586 19.824H8.598v-9.39c0-.856.687-1.551 1.535-1.551.847 0 1.535.695 1.535 1.55zM10.12 11.57c-.562 0-1.02.465-1.02 1.032 0 .57.458 1.03 1.02 1.03.563 0 1.02-.46 1.02-1.03 0-.567-.457-1.032-1.02-1.032zm0 0M22.996 22.977L6.992 23l-.027-2.777 16.004-.024zm0 0M15.355 9.113v3.457l1.543-.5V8.613zm0 0M6.004 12.145L7 15.277l1.098-.355v-3.457zm0 0M18.29 8.164v3.457l1.542-.504V7.66zm0 0M22.89 10.133L21.896 7l-.676.219v3.457zm0 0M12.418 10.063v3.457l1.547-.5V9.563zm0 0"/></g></svg>