<svg xmlns="http://www.w3.org/2000/svg" width="30" height="30"><circle style="isolation:auto;mix-blend-mode:normal;solid-color:#000;solid-opacity:1;marker:none" cx="15" cy="15" r="14.5" color="#000" overflow="visible" fill="#1d1d1b" fill-rule="evenodd" stroke="#fff"/><g fill="#fff"><path d="M12.32 16.414c.04-.336.328-.738.672-.738l4.399.012-.25-5.622h-2.438C14.493 7.457 13.461 6.023 11.75 6a2.178 2.178 0 00-1.594.645c-.707.683-1.152 1.878-1.289 3.421H6.426l-.422 10.332a.4.4 0 00.406.418l5.363-.011zm1.836-5.297c0 .149.11.281.262.297a.302.302 0 00.328-.289c0-.207-.004-.406-.016-.598.313.133.48.465.41.79a.72.72 0 01-1.402.003.699.699 0 01.407-.793c.007.188.011.383.011.59zm-3.59-4.062c.336-.32.73-.48 1.176-.477.988.016 2.145.66 2.375 3.488H9.461c.129-1.37.516-2.437 1.105-3.011zm-1.472 4.82a.711.711 0 01-.656-.574.708.708 0 01.398-.77c-.008.192-.012.387-.012.586 0 .149.11.281.262.297a.302.302 0 00.226-.074.285.285 0 00.098-.215c0-.207.008-.406.016-.605.324.136.5.48.418.816a.72.72 0 01-.75.539zm0 0"/><path d="M22.066 23h-9.109a.938.938 0 01-.695-.309.9.9 0 01-.23-.718l.628-5.059a.929.929 0 01.926-.805h.004l7.805.024c.464.004.859.344.921.797l.672 5.035a.908.908 0 01-.222.723.936.936 0 01-.7.312zm-8.48-6.39a.425.425 0 00-.418.367l-.629 5.058a.412.412 0 00.102.324.437.437 0 00.316.137h9.11c.12 0 .234-.05.316-.14a.412.412 0 00.101-.325l-.675-5.035a.417.417 0 00-.414-.36l-7.805-.027zm0 0"/><path d="M19.77 17.473a.611.611 0 00-.516-.602.611.611 0 00-.414 1.137 2.618 2.618 0 01-.434 1.129c-.254.355-.574.55-.906.55-.617 0-1.172-.718-1.332-1.664a.612.612 0 00-.32-1.16.61.61 0 00-.172 1.188c.078.515.258.988.52 1.36.35.491.812.76 1.304.76.496 0 .96-.269 1.309-.757.265-.371.441-.84.52-1.351a.615.615 0 00.44-.59zm-4.336 0a.45.45 0 01.363-.438c.21-.043.422.07.508.266a.437.437 0 01-.16.539c-.008-.059-.012-.121-.016-.18a.247.247 0 00-.492.023c.004.06.008.118.015.172a.446.446 0 01-.218-.382zm3.918.402c.003-.066.011-.129.011-.191a.238.238 0 00-.234-.25.238.238 0 00-.254.226l-.012.16a.434.434 0 01-.136-.515.454.454 0 01.468-.274c.2.02.364.168.399.364a.448.448 0 01-.242.48zm0 0"/></g></svg>