<svg xmlns="http://www.w3.org/2000/svg" width="8" height="10" viewBox="0 0 8 10"><g fill="#4d4d4d"><path d="M7.777 3.223c0-.575-.433-1.008-.945-1.23L7.164.616C7.227.344 7.04.074 6.742.016c-.3-.063-.594.113-.66.382l-.34 1.418H5.45v-.75c0-.328-.293-.597-.652-.597H3.055c-.364 0-.657.27-.657.597v.75h-.226l-.43-1.39C1.66.156 1.352 0 1.06.074.766.152.594.43.679.7l.407 1.32C.609 2.25.207 2.66.207 3.212l.008.539c0 .402.25.719.574.941.188.114.387.211.598.29.105.035.215.062.324.082.035 0 .223.003 1.055.003l.254.004.003.23c.004.259.23.462.508.462h.864c.277 0 .5-.203.507-.453l.004-.235h.36s.12.004.289.004c.258 0 .617-.008.89-.05.086-.024.176-.051.262-.083a3.13 3.13 0 00.68-.445l.21-.188a.982.982 0 00.18-.562zM5.105 1.816H2.746v-.75c0-.156.137-.28.309-.28h1.742c.168 0 .308.124.308.28zm0 0"/><path d="M5.254 5.313H5.16C5.152 5.69 4.812 6 4.395 6H3.53c-.418 0-.761-.313-.765-.695-.579-.004-1.036-.004-1.07-.008a1.31 1.31 0 01-.34-.074c0 .03-.004.066-.004.101V7.32c0 .672.597 1.22 1.332 1.22h2.543c.738 0 1.332-.548 1.335-1.22V5.324c0-.027-.003-.05-.003-.078-.02.004-.036.012-.055.012-.488.078-1.25.054-1.25.054zm0 0"/><path d="M7.566 4.668s-.312.281-.675.457c.011.066.015.133.015.2V7.32c0 .844-.754 1.535-1.68 1.535H2.685c-.922 0-1.68-.69-1.68-1.535V5.324c.004-.078.008-.156.023-.234-.367-.168-.71-.402-.71-.527 0 0-.333 1.812-.317 2.402.016.527.398 2.719.488 2.824.047.05.102.094.164.133.078.05.172.078.266.074l6.098-.012a.37.37 0 00.191-.05c.078-.043.176-.114.203-.2.047-.164.516-1.98.586-2.742.04-.406-.43-2.324-.43-2.324zm0 0"/></g></svg>