<svg xmlns="http://www.w3.org/2000/svg" width="30" height="30"><circle style="isolation:auto;mix-blend-mode:normal;solid-color:#000;solid-opacity:1;marker:none" cx="15" cy="15" r="14.5" color="#000" overflow="visible" fill="#1d1d1b" fill-rule="evenodd" stroke="#fff"/><path d="M8.957 7.816v14.446c0 .445-.215.73-.48.73-.262 0-.477-.242-.477-.691 0-.012 0-.028.004-.04H8V7.817c0-.445.215-.808.477-.808.265 0 .48.363.48.808zM21 7.656v8.438c-.816-.29-1.504-.399-2.105-.399-2.102 0-3.172 1.371-5.254 1.371-2.676 0-4.016-.972-4.016-.972V7.656s1.34.973 4.016.973c2.082 0 3.152-1.375 5.254-1.375.601 0 1.289.113 2.105.402zm0 0" fill="#fff"/></svg>