<svg xmlns="http://www.w3.org/2000/svg" width="11" height="11" viewBox="0 0 11 11"><path d="M8.055 4.059l-.078 2.18a.096.096 0 01-.055.074.092.092 0 01-.094-.02L5.45 4.059c-.054-.051-.14-.07-.148 0l-.203 2.144a.08.08 0 01-.059.07c-.031.012-.066.008-.09-.015l-2.398-2.2c-.055-.05-.145-.074-.145 0v2.118c0 .047-.039.082-.086.082h-.355c-.05 0-.086-.035-.086-.082V.086c0-.031-.024-.063-.059-.078a.093.093 0 00-.093.023L.023 1.895A.077.077 0 000 1.949l.047 8.965c0 .043.039.082.086.082h10.781c.047 0 .086-.039.086-.082V6.508a.096.096 0 00-.031-.067L8.199 4.06c-.054-.047-.14-.07-.144 0zm0 0" fill="#4d4d4d"/></svg>