<svg xmlns="http://www.w3.org/2000/svg" width="30" height="30"><circle style="isolation:auto;mix-blend-mode:normal;solid-color:#000;solid-opacity:1;marker:none" cx="15" cy="15" r="14.5" color="#000" overflow="visible" fill="#fff" fill-rule="evenodd" stroke="#1d1d1b"/><path d="M18.719 12.902l-.121 3.168c0 .047-.032.09-.078.11a.136.136 0 01-.133-.024l-3.461-3.254c-.078-.07-.203-.101-.215 0l-.3 3.121a.13.13 0 01-.079.106.136.136 0 01-.133-.027l-3.488-3.2c-.078-.074-.211-.105-.211 0v3.078a.123.123 0 01-.125.122h-.52a.123.123 0 01-.125-.122V7.13a.117.117 0 00-.082-.113.121.121 0 00-.136.03l-2.48 2.708A.126.126 0 007 9.836l.07 13.039c0 .066.055.121.125.121h15.68c.07 0 .125-.055.125-.125v-6.406a.125.125 0 00-.043-.094l-4.031-3.469c-.082-.066-.203-.101-.207 0zm0 0" fill="#4d4d4d"/></svg>