<svg xmlns="http://www.w3.org/2000/svg" width="30" height="30"><circle style="isolation:auto;mix-blend-mode:normal;solid-color:#000;solid-opacity:1;marker:none" cx="15" cy="15" r="14.5" color="#000" overflow="visible" fill="#1d1d1b" fill-rule="evenodd" stroke="#fff"/><g fill="#fff"><path d="M15 10l-7.992 2.594 7.68 2.37c.437.145.91.141 1.351-.007l6.953-2.363zm0 0"/><path d="M10.64 14.816l3.895 1.137c.442.145.914.14 1.352-.008l4.199-1.129v3.75C20.086 19.36 15.777 20 15 20c-.777 0-4.36-.64-4.36-1.434zm0 0M8.824 14.32l-.726-.246v2.781l-.364.551v1.114h1.453v-1.114l-.363-.59zm0 0"/></g></svg>