<svg xmlns="http://www.w3.org/2000/svg" width="11" height="11" viewBox="0 0 11 11"><g fill="#4d4d4d"><path d="M4.09 6.738c.027-.215.215-.476.433-.476l2.848.008-.16-3.637H5.633C5.496.94 4.828.016 3.723 0a1.43 1.43 0 00-1.035.418c-.458.441-.743 1.215-.833 2.215H.277L.004 9.316c-.004.07.023.141.07.192.051.05.121.078.192.078l3.468-.004zm1.187-3.426c0 .094.07.18.168.192a.2.2 0 00.149-.047.18.18 0 00.066-.14c0-.133-.004-.262-.012-.387.204.086.313.3.266.511a.465.465 0 01-.906 0 .45.45 0 01.262-.511c.003.12.007.25.007.382zM2.957.684c.215-.211.473-.313.758-.309.64.008 1.39.426 1.535 2.258H2.238c.086-.887.336-1.578.719-1.95zM2 3.8a.461.461 0 01-.422-.371.451.451 0 01.258-.496c-.008.12-.008.25-.008.378 0 .094.07.18.168.192a.2.2 0 00.149-.047.19.19 0 00.062-.14c0-.133.004-.266.012-.391a.46.46 0 01.27.527.467.467 0 01-.489.348zm0 0"/><path d="M10.395 11H4.504a.6.6 0 01-.602-.664l.407-3.274a.603.603 0 01.601-.519l5.05.016c.302 0 .556.218.599.515l.433 3.254a.6.6 0 01-.598.672zM4.91 6.867a.274.274 0 00-.273.235l-.407 3.273a.28.28 0 00.067.21c.055.056.129.09.207.09h5.89a.285.285 0 00.208-.093.255.255 0 00.062-.21l-.434-3.259a.27.27 0 00-.27-.23zm0 0"/><path d="M8.91 7.426c0-.196-.14-.36-.332-.395a.413.413 0 00-.453.258.394.394 0 00.184.48c-.043.282-.141.536-.282.731-.164.23-.37.355-.586.355-.402 0-.757-.464-.859-1.078a.395.395 0 00.203-.457.404.404 0 00-.79.05.395.395 0 00.267.427c.05.332.164.64.336.879.226.32.527.496.843.496.32 0 .622-.176.848-.492.172-.239.285-.543.336-.875a.397.397 0 00.285-.38zm-2.808 0a.296.296 0 01.566-.114.286.286 0 01-.106.352 1.26 1.26 0 01-.007-.121.158.158 0 00-.168-.148c-.086.007-.157.078-.149.164 0 .039.004.074.008.113a.29.29 0 01-.144-.246zm2.535.258l.011-.125a.157.157 0 00-.152-.16.163.163 0 00-.168.148.962.962 0 01-.008.101.288.288 0 01-.086-.335.302.302 0 01.305-.176c.129.015.234.11.258.234a.29.29 0 01-.16.313zm0 0"/></g></svg>