<svg xmlns="http://www.w3.org/2000/svg" width="30" height="30"><circle style="isolation:auto;mix-blend-mode:normal;solid-color:#000;solid-opacity:1;marker:none" cx="15" cy="15" r="14.5" color="#000" overflow="visible" fill="#1d1d1b" fill-rule="evenodd" stroke="#fff"/><g fill="#fff"><path d="M22.48 15.035a4.06 4.06 0 01-.347.293l-.016.008-.012.012a7.686 7.686 0 01-1.378.738h-.012l-.016.008a4.655 4.655 0 01-.8.215l-.051.011h-.051c-.113 0-.746.008-1.89.012a.25.25 0 00-.25.203 1.736 1.736 0 01-1.716 1.414h-1.968c-.852 0-1.567-.61-1.711-1.41a.247.247 0 00-.246-.2c-1.141-.007-1.778-.01-1.895-.015h-.05l-.051-.008a4.764 4.764 0 01-.801-.218l-.012-.004h-.012c-.484-.2-.945-.45-1.382-.746L7.8 15.34l-.012-.012a4.93 4.93 0 01-.351-.289A15.61 15.61 0 007 14.66v6.371c0 1.946 1.676 1.961 3.742 1.961h8.43c2.066 0 3.828-.015 3.828-1.96v-6.376c.004 0-.422.29-.52.38zm0 0"/><path d="M8.203 14.508c.395.265.817.488 1.254.672.215.078.438.136.664.183.016 0 .031.004.047.004.121 0 .582.008 2.191.012h.286a.25.25 0 01.253.238v.305c.02.601.497 1.078 1.07 1.066h1.817c.57.012 1.047-.457 1.07-1.054l.008-.305a.252.252 0 01.254-.234h.5s.25.007.61.007a12.74 12.74 0 001.851-.113l.035-.008c.18-.05.352-.11.524-.18l.027-.011c.582-.29.996-.55 1.23-.777 0 0 1.106-.786 1.106-1.141v-1.738c0-1.813-1.734-1.625-3.66-1.625h-1.457V8.527c-.004-.84-.653-1.52-1.457-1.52H13.44c-.804 0-1.453.68-1.457 1.52v1.286H10.32c-1.925 0-3.316-.188-3.316 1.624v1.731c.156.687.648.922 1.2 1.34zm4.777-5.98c0-.266.207-.481.461-.481h2.985c.254 0 .457.215.457.48v1.286H12.98zm0 0"/></g></svg>