<svg xmlns="http://www.w3.org/2000/svg" width="30" height="30"><circle style="isolation:auto;mix-blend-mode:normal;solid-color:#000;solid-opacity:1;marker:none" cx="15" cy="15" r="14.5" color="#000" overflow="visible" fill="#fff" fill-rule="evenodd" stroke="#1d1d1b"/><g fill="#4d4d4d"><path d="M10.867 21.957L7 20.602l.031-5.102 3.824 1.371zm-1.476-2.281l.199.652.59.2-1.012-3.079-.492-.18-1.012 2.333.559.214.23-.492zm-.743-.824l.274-.664.273.851zm0 0M14.941 20.559l-3.757 1.386v-5.058l3.777-1.348zm-2.878.02s2.097-.454 2.222-1.329c.094-.664-.523-.652-.523-.652.472-.254.5-1.032 0-1.168-.29-.082-1.719.41-1.719.41zm.64-2.415s.727-.27.766 0c.054.43-.766.578-.766.578zm0 1.086s.895-.406.93-.04c.043.446-.93.626-.93.626zm0 0M11 13.945l3.785 1.364-3.8 1.32-3.727-1.36zm1.203 1.086c.024.266-.129.477-.422.551-.804.195-1.597-.098-1.597-.516 0-.421.918-.441 1.152-.433l-.086-.403c-.504.008-1.855.172-1.855.875 0 .59 1.367 1.23 2.664.844.488-.144.886-.394.828-.918zm0 0M18.996 22l-3.738-1.41.027-5.047 3.68 1.344zm-1.527-2.254l.199.652.59.2-1.012-3.07-.496-.184-1.012 2.332.555.215.23-.489zm-.746-.824l.273-.664.274.851zm0 0M22.98 20.64l-3.671 1.356-.028-5.086L23 15.59zm-2.843 0s2.101-.456 2.222-1.328c.094-.664-.523-.652-.523-.652.473-.254.492-1.031 0-1.172-.29-.078-1.719.414-1.719.414zm.636-2.413s.73-.27.766 0c.055.43-.766.574-.766.574zm0 1.086s.895-.407.93-.04c.043.446-.93.625-.93.625zm0 0M19.16 13.918l3.723 1.41-3.735 1.348-3.68-1.387zm1.117 1.18c.024.27-.129.48-.422.55-.804.2-1.597-.093-1.597-.515 0-.418.918-.438 1.152-.43l-.082-.402c-.508.008-1.86.168-1.86.875 0 .59 1.368 1.23 2.665.844.492-.149.887-.395.828-.922zm0 0M14.945 15.07l-3.804-1.402.027-4.988 3.773 1.312zm-1.562-2.246l.199.653.59.199-1.012-3.067-.492-.183-1.012 2.332.555.215.23-.489zm-.746-.812l.273-.664.274.851zm0 0M15.25 15.07l-.012-5.074 3.774-1.32-.035 5m-2.926.054s2.101-.457 2.222-1.324c.094-.664-.52-.656-.52-.656.474-.254.497-1.031 0-1.168-.288-.078-1.722.414-1.722.414zm.64-2.414s.727-.27.762 0c.059.434-.762.579-.762.579zm.059 1.196s.895-.41.93-.043c.039.445-.93.629-.93.629zm0 0M15.074 7l3.824 1.375-3.855 1.348-3.73-1.309zm1.117 1.18c.024.27-.128.48-.421.55-.81.2-1.602-.093-1.602-.515 0-.418.922-.438 1.156-.43l-.078-.402c-.504.008-1.86.168-1.86.875 0 .59 1.372 1.23 2.665.844.492-.149.89-.399.832-.922zm0 0"/></g></svg>