<svg xmlns="http://www.w3.org/2000/svg" width="10" height="7" viewBox="0 0 10 7"><g fill="#4d4d4d"><path d="M.227 4.625l4.554-1.77.239.684L.465 5.31a.34.34 0 01-.442-.22.37.37 0 01.204-.464zm0 0"/><path d="M8.863 3.59l-.02-.055a.317.317 0 00-.41-.195l-.027.012L7.441.688a.344.344 0 00.16-.418L7.583.215a.317.317 0 00-.41-.195l-2.84 1.128a.341.341 0 00-.184.434l.02.05a.314.314 0 00.41.196l.063-.023.96 2.66-.007.004a.338.338 0 00-.184.43l.02.054a.314.314 0 00.41.195L8.676 4.02a.344.344 0 00.187-.43zm0 0M4.855 6.285H9.66c.188 0 .34.16.34.356C10 6.84 9.848 7 9.66 7H4.855a.35.35 0 01-.34-.36c0-.195.153-.355.34-.355zm0 0"/></g></svg>