<svg xmlns="http://www.w3.org/2000/svg" width="30" height="30"><circle style="isolation:auto;mix-blend-mode:normal;solid-color:#000;solid-opacity:1;marker:none" cx="15" cy="15" r="14.5" color="#000" overflow="visible" fill="#fff" fill-rule="evenodd" stroke="#1d1d1b"/><g fill="#4d4d4d"><path d="M14.605 21.996h-1.527L6 19.652l.082-11.324 1.262.488-.047 9.504c3.39.106 5.976 2.352 5.976 2.352h.735l7.734-1.98V8.808L23 8.329v11.35zm0 0"/><path d="M20.629 7.184s-3.313-.532-6.7 2.562c-.09.082.04 10.375.079 10.414 2.273-2.52 6.62-2.93 6.62-2.93zm0 0M8.309 7.02v10.09c3.504-.622 4.879 3.195 4.879 3.195l-.016-10.313S11.219 6.734 8.309 7.02zm0 0"/></g></svg>