<svg xmlns="http://www.w3.org/2000/svg" width="30" height="30"><circle style="isolation:auto;mix-blend-mode:normal;solid-color:#000;solid-opacity:1;marker:none" cx="15" cy="15" r="14.5" color="#000" overflow="visible" fill="#fff" fill-rule="evenodd" stroke="#1d1d1b"/><g fill="#4d4d4d"><path d="M7.367 16.266l7.285-2.778.38 1.075-7.286 2.777a.548.548 0 01-.71-.34.581.581 0 01.331-.734zm0 0"/><path d="M21.18 14.64l-.032-.085a.508.508 0 00-.656-.305l-.043.016-1.543-4.184a.531.531 0 00.254-.656l-.031-.086a.505.505 0 00-.656-.305l-4.54 1.77a.537.537 0 00-.296.68l.031.081c.098.274.39.41.656.309l.098-.04 1.543 4.18-.012.008a.529.529 0 00-.297.676l.031.086c.098.27.391.406.653.305l4.543-1.774a.53.53 0 00.297-.675zm0 0M14.766 18.875h7.687c.3 0 .543.254.543.563a.551.551 0 01-.543.562h-7.687c-.301 0-.543-.25-.543-.563 0-.308.242-.562.543-.562zm0 0"/></g></svg>