<svg xmlns="http://www.w3.org/2000/svg" width="10" height="10" viewBox="0 0 10 10"><g fill="#4d4d4d"><path d="M7.363.152l.133.078c.563.336.668 1.165.211 1.653L5.453 4.3a.096.096 0 01-.121.02.108.108 0 01-.05-.122l.69-3.363C6.114.16 6.81-.184 7.364.152zm0 0M9.996 4.832l.004.164c.012.7-.598 1.207-1.215 1.02l-3.047-.938a.116.116 0 01-.074-.11c0-.046.027-.093.074-.105l3.024-1.008c.61-.203 1.226.286 1.234.977zm0 0M7.797 9.477l-.129.093c-.527.39-1.254.114-1.445-.55l-.95-3.29a.117.117 0 01.043-.125c.04-.027.086-.027.122.004L7.87 7.816c.488.442.45 1.274-.074 1.66zm0 0M2.77 9.89l-.137-.07c-.574-.308-.715-1.133-.278-1.644l2.157-2.524a.102.102 0 01.12-.023c.044.023.063.07.056.121l-.56 3.39c-.108.684-.788 1.06-1.358.75zm0 0M0 4.973v-.164c.004-.7.621-1.196 1.234-.993l3.028 1a.116.116 0 01.074.11c0 .05-.031.094-.074.105l-3.047.946C.605 6.164 0 5.664 0 4.973zm0 0M2.52.219l.132-.082C3.207-.207 3.91.133 4.051.812l.699 3.364a.113.113 0 01-.05.12.096.096 0 01-.122-.019L2.32 1.863C1.867 1.38 1.965.56 2.52.22zm0 0"/></g></svg>