<svg xmlns="http://www.w3.org/2000/svg" width="11" height="11" viewBox="0 0 11 11"><g fill="#4d4d4d"><path d="M9.734 6.102c.047-.793.04-3.02 0-3.204-.129-.648-.117-1.64-1.918-2.507C6.758-.121 5.043.016 5.043.016L.012.023C.004.035.023 1.72.023 1.72s1.727-.157 2.22.347c.257.266.468.407.433 1.766-.031 1.14-.125 2.195.488 3.066.707 1.008 1.711.954 1.711.954s-.492-.961-.445-1.75c.043-.793.066-3.028 0-3.204a2.83 2.83 0 00-.926-1.203c.52.016 1.152.098 1.418.371.258.266.469.407.433 1.766-.03 1.14-.125 2.195.489 3.066.707 1.008 1.715.954 1.715.954s-.497-.961-.45-1.75c.043-.793.075-3.028.028-3.262-.047-.246-.414-.738-.989-1.145.516.016 1.137.102 1.403.371.258.266.469.407.433 1.766-.03 1.14-.125 2.195.485 3.066.71 1.008 1.715.954 1.715.954s-.493-.961-.45-1.75zm0 0M10.938 8.895c-.282-.223-.637-.5-1.372-.493-.629.004-.937.22-1.218.418l-.36.239c-.168.097-.422.191-.8.199-.426.008-.657-.16-.95-.367-.316-.227-.676-.485-1.312-.489-.727-.007-1.09.266-1.383.485-.273.207-.488.37-.984.37-.47 0-.672-.16-.93-.362-.211-.165-.461-.36-.875-.446v1.762c.18.062.308.164.465.285.285.227.64.504 1.386.504.758 0 1.125-.277 1.426-.504.274-.207.469-.36.93-.351.367.003.578.14.89.363.305.219.688.492 1.352.492h.04c.874-.016 1.316-.352 1.503-.559.242-.168.461-.293.871-.296h.016c.445 0 .637.148.894.351.133.102.278.215.465.309V8.938l-.055-.043zm0 0"/></g></svg>