<svg xmlns="http://www.w3.org/2000/svg" width="30" height="30"><circle style="isolation:auto;mix-blend-mode:normal;solid-color:#000;solid-opacity:1;marker:none" cx="15" cy="15" r="14.5" color="#000" overflow="visible" fill="#fff" fill-rule="evenodd" stroke="#e50980"/><path d="M23 9.566s-3.75.946-5.25 2.829c-.754.945-.25 2.359 1 2.593 1.55.293 3.75-.234 3.75-.234-.75.234-1.406 1.45-1.613 2.168-.266.914.113 2.543.113 2.543-.191.043-3.25-2.828-5.254-1.18-1.937 1.598 0 4.715 0 4.715-8.75-3.77-9-9.66-9-9.66C13.496 6.977 23 9.566 23 9.566zm-13.715 3.5c-.55 0-1 .422-1 .942s.45.941 1 .941 1-.422 1-.941c0-.52-.45-.942-1-.942zm-2.933-1.265c.195 0 .351.148.351.332a.341.341 0 01-.351.332.341.341 0 01-.352-.332c0-.188.156-.332.352-.332zm1.453-1.867c.23 0 .418.18.418.394 0 .219-.188.395-.418.395-.23 0-.418-.176-.418-.395 0-.215.187-.394.418-.394zm2.113-1.739c.277 0 .5.215.5.477a.486.486 0 01-.5.473c-.277 0-.504-.211-.504-.473s.227-.477.504-.477zM12.492 7c.348 0 .63.266.63.594 0 .328-.282.59-.63.59-.347 0-.629-.262-.629-.59 0-.328.282-.594.63-.594zm0 0" fill="#4d4d4d"/></svg>