<svg xmlns="http://www.w3.org/2000/svg" width="30" height="30"><circle style="isolation:auto;mix-blend-mode:normal;solid-color:#000;solid-opacity:1;marker:none" cx="15" cy="15" r="14.5" color="#000" overflow="visible" fill="#e50980" fill-rule="evenodd" stroke="#fff"/><path d="M16.418 8.664L23 6.984v2.118zM6 6.95v2.117l6.582-.437zm16.703 13.676c-.008.023-.223.57-.969.59-.382.012-.59-.207-.851-.48-.285-.297-.61-.633-1.188-.637-.652-.012-.984.347-1.246.636-.246.27-.441.48-.887.48-.218 0-.203.013-.335-.073l-.23-1.805H11.96l-.188.934c-.164-.086-.246-.172-.472-.172-.656-.012-.985.347-1.25.636-.246.27-.442.48-.887.48-.422 0-.605-.206-.84-.472-.254-.289-.574-.652-1.238-.644-.32.004-.563.09-.762.215l.012.683c.207-.207.402-.36.758-.363h.011c.407 0 .579.195.813.465.258.289.578.656 1.246.656.684 0 1.02-.367 1.29-.66.245-.27.425-.469.839-.461.332.004.52.183.8.472.278.29.622.649 1.22.649h.039c.789-.02 1.183-.457 1.355-.73.215-.223.414-.387.785-.391h.012c.406 0 .574.195.812.465.254.289.575.656 1.247.656.683 0 1.019-.367 1.289-.66.246-.27.425-.469.84-.461.331.004.519.183.8.472.278.29.621.649 1.219.649h.039c.445-.012.766-.156.992-.332v-.785zm0 1.242c-.008.024-.223.574-.969.594-.382.008-.59-.207-.851-.48-.285-.297-.61-.633-1.188-.641-.652-.008-.984.351-1.246.637-.246.27-.441.484-.887.484-.425 0-.609-.211-.84-.473-.257-.293-.574-.656-1.238-.648-.566.008-.843.289-1.097.547l-.325.312a1.126 1.126 0 01-.726.262c-.383.008-.586-.207-.852-.48-.285-.297-.609-.633-1.183-.641-.656-.008-.985.351-1.25.637-.246.27-.442.484-.887.484-.422 0-.605-.211-.84-.473-.254-.293-.574-.656-1.238-.648-.309.004-.55.09-.742.207l.008.676c.199-.196.394-.34.742-.344h.011c.407 0 .579.195.813.46.258.294.578.657 1.246.657.684 0 1.02-.363 1.29-.656.245-.27.425-.469.839-.461.332.004.52.183.8.473.278.289.622.644 1.22.644h.039c.789-.02 1.183-.457 1.355-.73.215-.22.414-.383.785-.387h.012c.406 0 .574.195.812.46.254.294.575.657 1.247.657.683 0 1.019-.363 1.289-.656.246-.27.425-.469.84-.461.331.004.519.183.8.473.278.289.621.644 1.219.644h.039a1.67 1.67 0 00.992-.328v-.785zm-6.465-9.687h-3.52l-.12 1.289 3.77.054zm.254 2.386h-4.027l-.125 1.344h4.277zm.25 2.383h-4.527l-.13 1.344h4.786zm-.617-7.43h.375v.895h-.512l.075.649.05.546h-3.27l.11-1.195h-.515V9.52h.374V7.652h-.374V6.98l1.984-.976 2.004.976v.672h-.301zm-.582-1.867h-2.156V9.52h2.156zm0 0" fill="#fff"/></svg>