<svg xmlns="http://www.w3.org/2000/svg" width="30" height="30"><circle style="isolation:auto;mix-blend-mode:normal;solid-color:#000;solid-opacity:1;marker:none" cx="15" cy="15" r="14.5" color="#000" overflow="visible" fill="#e50980" fill-rule="evenodd" stroke="#fff"/><path d="M20.375 19.973s-.324-.578-.387-.47c-.836 1.43-2.86 2.161-3.847 2.481C15.05 22.34 14.508 23 14.508 23l-.008-.297-.008.297s-.543-.66-1.633-1.016c-.988-.32-3.011-1.05-3.847-2.48-.063-.11-.387.469-.387.469-1.281-1.86-.195-4.47-.195-4.47s.836 1.993 2.195 3.005l-.602.078s.543.977 2.098 1.238c.945.16 1.254.14 1.48-.273a.102.102 0 00.016-.059V12.95c0-.199-.168-.36-.37-.36h-2.052c-.082 0-.16.04-.207.106a1.21 1.21 0 01-1.324.453 1.157 1.157 0 01-.851-1.078 1.154 1.154 0 01.808-1.113 1.21 1.21 0 011.34.402.248.248 0 00.2.098h2.277c.207 0 .374-.16.374-.36v-.917c-1.066-.328-1.707-1.375-1.5-2.438.211-1.062 1.204-1.804 2.32-1.738 1.079.066 1.966.898 2.063 1.941.094.996-.539 1.926-1.523 2.235v.918c0 .199.168.359.371.359h2.281c.082 0 .156-.039.2-.098.312-.402.851-.562 1.34-.402.491.164.816.613.804 1.113a1.16 1.16 0 01-.848 1.078A1.206 1.206 0 0118 12.7a.247.247 0 00-.207-.11h-2.016a.364.364 0 00-.37.36v6.582c0 .02.003.043.015.063.226.37.547.383 1.457.23 1.555-.262 2.098-1.238 2.098-1.238l-.602-.078c1.36-1.012 2.195-3.004 2.195-3.004s1.086 2.61-.195 4.469zm-5.852-12.77c-.546 0-.992.426-.992.957 0 .528.446.957.992.957.547 0 .989-.43.989-.957 0-.531-.442-.957-.989-.957zm0 0" fill="#fff"/></svg>