<svg xmlns="http://www.w3.org/2000/svg" width="30" height="30"><circle style="isolation:auto;mix-blend-mode:normal;solid-color:#000;solid-opacity:1;marker:none" cx="15" cy="15" r="14.5" color="#000" overflow="visible" fill="#e50980" fill-rule="evenodd" stroke="#fff"/><g fill="#fff"><path d="M22.625 19.773c-.219-.214-.426-.418-.79-.421h-.01a.869.869 0 00-.49.128c-.124.075-.222.18-.327.286-.11.113-.219.23-.367.316a1.088 1.088 0 01-.57.148 1.03 1.03 0 01-.555-.144c-.141-.09-.246-.203-.352-.316l.008-.004-.02-.02c-.234-.23-.437-.43-.777-.433h-.012a.902.902 0 00-.488.128c-.125.079-.223.18-.328.29a1.744 1.744 0 00-.082.085c-.035.032-.067.059-.098.09-.058.051-.12.098-.187.14a1.096 1.096 0 01-.57.145h-.044a1.818 1.818 0 01-.59-.199 2.45 2.45 0 01-.273-.258c-.2-.218-.39-.422-.8-.422h-.016a.869.869 0 00-.61.247c-.082.066-.152.14-.226.214-.11.114-.219.23-.367.317a1.098 1.098 0 01-.57.148 1.03 1.03 0 01-.555-.144c-.141-.09-.247-.203-.352-.317l.008-.004-.02-.02c-.234-.23-.437-.429-.777-.433h-.012a.902.902 0 00-.488.13c-.125.077-.223.179-.328.288l-.086.086c-.031.028-.063.059-.094.09-.058.05-.12.098-.187.14a1.096 1.096 0 01-.57.145 1.03 1.03 0 01-.555-.144c-.141-.09-.246-.203-.352-.313-.16-.176-.312-.34-.578-.398a.812.812 0 00-.234-.035h-.016a.855.855 0 00-.473.125 1.325 1.325 0 00-.199.16 2.804 2.804 0 00-.156.148h-.004c-.055.055-.113.113-.172.164l.004.008c-.047.04-.098.074-.152.11-.16.093-.344.14-.555.14-.07 0-.14-.004-.211-.016v.336c.07.012.14.016.21.016.442 0 .727-.16.938-.336.02-.016.036-.035.055-.05l.04-.036c.03-.031.066-.062.097-.094v-.004c.2-.195.32-.312.594-.316h.011c.07 0 .13.008.184.024.094.046.191.132.328.269.047.047.102.098.156.148.215.215.516.438 1.04.438a1.417 1.417 0 00.992-.375c.039-.035.078-.07.113-.105l.043-.043c.199-.196.32-.317.594-.317h.011c.254 0 .348.102.54.305.222.242.53.57 1.167.57.645 0 .961-.328 1.196-.57.004 0 .004-.004.007-.008l.004.004c.028-.024.051-.05.078-.074a1.44 1.44 0 01.11-.11.524.524 0 01.36-.117h.007c.195 0 .309.094.54.32.089.086.206.2.355.278.183.133.433.219.77.23.12.012.214.004.284-.008v-.003a1.35 1.35 0 00.778-.36c.039-.035.078-.07.113-.105.015-.012.027-.028.043-.043.203-.196.32-.317.594-.317h.011c.254 0 .352.102.54.305.222.242.53.57 1.167.57.645 0 .961-.328 1.196-.57.191-.195.297-.305.558-.305h.008c.195 0 .309.094.54.32.16.153.35.344.628.458v-.387a1.968 1.968 0 01-.375-.313zm0 0"/><path d="M22.625 20.984c-.219-.214-.426-.418-.79-.422h-.01a.869.869 0 00-.49.13c-.124.074-.222.175-.327.285-.11.113-.219.226-.367.316a1.088 1.088 0 01-.57.148c-.216 0-.395-.05-.555-.148-.141-.086-.246-.2-.352-.313l.008-.007-.02-.016c-.234-.23-.437-.43-.777-.434h-.012a.902.902 0 00-.488.13c-.125.077-.223.179-.328.288a1.744 1.744 0 00-.082.086c-.035.028-.067.059-.098.09-.058.051-.12.098-.187.137a1.062 1.062 0 01-.57.148h-.044a1.818 1.818 0 01-.59-.199c-.101-.078-.187-.172-.273-.262-.2-.214-.39-.418-.8-.418h-.016a.869.869 0 00-.61.247 2.344 2.344 0 00-.226.214c-.11.114-.219.227-.367.317a1.096 1.096 0 01-.57.144 1.03 1.03 0 01-.555-.144c-.141-.086-.247-.2-.352-.313l.008-.008-.02-.015c-.234-.23-.437-.43-.777-.434h-.012a.902.902 0 00-.488.13c-.125.077-.223.179-.328.288l-.086.086a1.278 1.278 0 01-.281.227 1.062 1.062 0 01-.57.148 1.03 1.03 0 01-.555-.144 1.829 1.829 0 01-.352-.317c-.16-.172-.312-.336-.578-.394a.812.812 0 00-.234-.035h-.016a.855.855 0 00-.473.125 1.12 1.12 0 00-.199.16c-.055.047-.105.097-.156.148h-.004c-.055.055-.113.113-.172.164l.004.008c-.047.04-.098.074-.152.105a1.04 1.04 0 01-.555.145.964.964 0 01-.211-.02v.34c.07.008.14.016.21.012a1.386 1.386 0 00.993-.383c.012-.012.027-.023.04-.035.03-.031.066-.062.097-.094v-.004c.2-.195.32-.312.594-.316h.011c.07 0 .13.008.184.023.094.047.191.133.328.266.047.05.102.102.156.152.215.215.516.438 1.04.438.449 0 .742-.164.956-.344.012-.008.024-.02.036-.031a3 3 0 00.113-.106l.043-.043c.199-.195.32-.316.594-.32h.011c.254 0 .348.106.54.309.222.242.53.57 1.167.57.645 0 .961-.328 1.196-.57.004 0 .004-.004.007-.008l.004.004c.028-.027.051-.05.078-.074a1.44 1.44 0 01.11-.11.525.525 0 01.36-.12h.007c.195.003.309.097.54.32.089.085.206.199.355.28.183.134.433.22.77.231.12.012.214.004.284-.008v-.004c.332-.039.563-.18.742-.328.012-.007.024-.02.036-.03a3 3 0 00.113-.106c.015-.012.027-.028.043-.043.203-.196.32-.317.594-.317l.011-.004c.254.004.352.106.54.309.222.242.53.57 1.167.57.645 0 .961-.328 1.196-.57.191-.2.297-.309.558-.309h.008v.004c.195 0 .309.094.54.317.16.156.35.347.628.46v-.386a1.968 1.968 0 01-.375-.313zm0 0"/><path d="M22.625 22.195c-.219-.215-.426-.418-.79-.422h-.01a.869.869 0 00-.49.13c-.124.074-.222.175-.327.285-.11.113-.219.226-.367.316a1.086 1.086 0 01-.57.144 1.03 1.03 0 01-.555-.144c-.141-.086-.246-.203-.352-.313l.008-.007-.02-.016c-.234-.23-.437-.43-.777-.434h-.012a.87.87 0 00-.488.13c-.125.073-.223.179-.328.284a1.744 1.744 0 01-.082.086 1.278 1.278 0 01-.285.23 1.098 1.098 0 01-.57.15h-.044a1.818 1.818 0 01-.59-.2c-.101-.078-.187-.172-.273-.262-.2-.215-.39-.418-.8-.418h-.016a.869.869 0 00-.61.246c-.082.063-.152.137-.226.215-.11.114-.219.227-.367.317a1.096 1.096 0 01-.57.144 1.03 1.03 0 01-.555-.144c-.141-.086-.247-.203-.352-.313l.008-.008-.02-.02c-.234-.226-.437-.425-.777-.429h-.012a.87.87 0 00-.488.13c-.125.073-.223.179-.328.284a.892.892 0 01-.086.086l-.094.094a1.098 1.098 0 01-.758.285 1.03 1.03 0 01-.554-.144 1.829 1.829 0 01-.352-.317c-.16-.172-.312-.336-.578-.394a.812.812 0 00-.234-.036h-.016a.855.855 0 00-.473.125 1.098 1.098 0 00-.199.157c-.055.05-.105.097-.156.148l-.004.004c-.055.055-.113.11-.172.164l.004.004a1.04 1.04 0 01-.707.254c-.07 0-.14-.008-.211-.02v.34c.07.008.14.012.21.012.442 0 .727-.16.938-.336l.055-.047c.012-.012.027-.023.04-.035l.097-.098c.2-.195.32-.316.594-.316h.011c.07 0 .13.008.184.023.094.047.191.133.328.266.047.047.102.102.156.152.215.211.516.434 1.04.434.449 0 .742-.16.956-.34.012-.012.024-.02.036-.031a3 3 0 00.113-.106c.012-.015.027-.027.043-.043.199-.199.32-.316.594-.32h.011c.254 0 .348.102.54.309.222.238.53.57 1.167.57.645 0 .961-.328 1.196-.57l.007-.008.004.004.078-.078c.04-.04.075-.075.11-.106a.525.525 0 01.36-.12h.007c.195.003.309.093.54.32.089.085.206.199.355.28.183.133.433.22.77.231.12.012.214.004.284-.008v-.004c.332-.043.563-.18.742-.328l.036-.031c.039-.035.078-.07.113-.105l.043-.043c.203-.2.32-.317.594-.32h.011c.254 0 .352.105.54.308.222.238.53.57 1.167.57.645 0 .961-.328 1.196-.57.191-.2.297-.309.558-.309h.008c.195.004.309.094.54.32.16.157.35.348.628.462v-.387a2.123 2.123 0 01-.375-.313zm0 0M14.203 18.559c0 .687-.473 1.242-1.055 1.242-.586 0-1.058-.555-1.058-1.242 0-.684.472-1.243 1.058-1.243.582 0 1.055.559 1.055 1.243zm0 0M20.258 14.203c.71.668-.52 1.098-.52 1.098s1.93-.215 1.871-1.422c-.043-.93-.597-1.816-3.336-2.617l-.035 2.031c.633.094 1.524.445 2.02.91zm0 0M22.844 9.066L22.809 7s-3.25 0-6.551.078c-.313.02-.621.043-.93.067-.426.035-.848.078-1.258.128-.125.016-.246.032-.367.051-1.82.254-3.332.7-3.812 1.453-.703 1.098.46 2.375.46 2.375.087-1.488 2.395-1.652 4.891-1.941 1.934-.168 7.602-.145 7.602-.145zm0 0"/><path d="M16.66 9.543l-.035 1.32c-2.656-.488-2.996-.933-3.023-.933-2.43.16-2.84 1.554-2.84 1.554 1.281.625 4.164 1.25 5.898 1.594l.004 3.192-3.36.73s.005.004.016.004c.051-.004.106-.004.16-.004.563.035 1.317.723 1.149 1.688-.047.285-.211.8-.441.957.488-.098 1.296-.286 2.582-.524.406-.074.84-.168 1.199-.238a40.314 40.314 0 001.5-.317c1.922-.464 3.285-1.48 3.441-3.148.278-1.398-1.676-2.73-1.676-2.73.329.292 1.567 1.796-.488 2.617-.558.222-1.375.57-2.383.75l-.05-6.477c-.782-.148-1.473-.047-1.653-.035zm0 0"/></g></svg>