<svg xmlns="http://www.w3.org/2000/svg" width="30" height="30"><circle style="isolation:auto;mix-blend-mode:normal;solid-color:#000;solid-opacity:1;marker:none" cx="15" cy="15" r="14.5" color="#000" overflow="visible" fill="#fff" fill-rule="evenodd" stroke="#e50980"/><path d="M7.438 11.684l-.575-.395c.184-.277.395-.539.63-.773a5.006 5.006 0 012.472-1.391l.156.688a4.34 4.34 0 00-2.14 1.199 4.49 4.49 0 00-.544.672zm-.747 3.16v-.688c0-.613.125-1.222.371-1.785l-.62-.312A5.17 5.17 0 006 14.156v.688c0 .683.133 1.363.395 1.996l.628-.305a4.47 4.47 0 01-.332-1.691zm4.383-5.14h3.008L14.051 9h-2.977c-.062 0-.12.004-.183.004l.066.703c.04 0 .078-.004.117-.004zm9.946 8.284a4.359 4.359 0 01-2.32 1.239l.167.683c1-.191 1.922-.691 2.64-1.426.24-.238.45-.5.638-.78l-.594-.368a4.505 4.505 0 01-.531.652zm-6.055 1.309l.058.703h2.95l-.075-.703zm2.851-9.594L17.863 9H15.02l-.055.703zm-6.722 9.594l-.059.703h3.016l.031-.703zM7.98 17.988a4.699 4.699 0 01-.566-.703l-.582.383c.191.293.414.566.66.816a5.026 5.026 0 002.637 1.426l.148-.687a4.38 4.38 0 01-2.297-1.235zm14.329-3.832v.688c0 .601-.122 1.195-.356 1.746l.637.285c.27-.64.41-1.332.41-2.031v-.688c0-.746-.16-1.484-.469-2.16l-.613.332c.258.574.39 1.195.39 1.828zm-1.29-3.144c.184.187.356.394.504.61l.563-.407a4.953 4.953 0 00-.578-.7 4.992 4.992 0 00-2.695-1.433l-.137.688c.89.16 1.707.593 2.344 1.242zm-1.331 5.98c-.387.293-.86.512-1.372.649l.164.68a4.567 4.567 0 001.622-.762c.261-.196.496-.426.695-.688l-.598-.371c-.148.188-.32.352-.512.492zm1.152-2.398v.027c0 .488-.102.938-.293 1.336l.637.285c.23-.484.347-1.027.347-1.62v-.028c0-.684-.156-1.297-.43-1.824l-.613.332c.223.433.352.933.352 1.492zm-.668-1.992l.566-.41c-.558-.735-1.363-1.254-2.242-1.52l-.137.695c.711.227 1.356.645 1.813 1.235zm-10.82-.52a4.037 4.037 0 011.136-.64l-.156-.692a4.666 4.666 0 00-1.41.781 3.996 3.996 0 00-.684.7l.575.394c.16-.203.34-.383.539-.543zm2.593 5.707c-.242 0-.48-.02-.718-.055l-.059.7c.258.039.516.058.777.058h2.176l.031-.703zm0-6.613h2.207l-.035-.707h-2.172c-.304.004-.61.031-.91.09l.067.703a4.07 4.07 0 01.843-.086zm5.192 0a3.6 3.6 0 01.578.043l.047-.707a4.8 4.8 0 00-.625-.043h-2.235l-.058.707zm-8.992 3.402c0-.59.144-1.078.355-1.476l-.617-.313a3.89 3.89 0 00-.434 1.79c0 .577.117 1.109.344 1.589l.629-.305a2.947 2.947 0 01-.277-1.285zm8.992 3.211H14.84l.058.703h2.239c.222 0 .445-.015.668-.043l-.078-.699c-.196.027-.395.04-.59.04zm-7.793-.816a3.221 3.221 0 01-.586-.567l-.586.383c.219.285.473.535.762.75.441.332.972.586 1.546.75l.145-.691a4.036 4.036 0 01-1.281-.625zm.867-1.043a1.38 1.38 0 01-.309-.278l-.582.383a2.1 2.1 0 00.504.48c.258.176.57.317.946.419l.148-.688a2.318 2.318 0 01-.707-.316zm8.625-2.836c.102.082.195.172.273.273l.567-.406a2.178 2.178 0 00-.422-.426 2.933 2.933 0 00-1.027-.5l-.137.692c.297.09.547.214.746.367zm-2.23-.555c.34-.004.68.023 1.011.078l.051-.703a6.864 6.864 0 00-1.059-.082h-1.82l-.059.707zm0 3.914H14.73l.06.703h1.827a8.392 8.392 0 001.035-.078l-.074-.7a8.15 8.15 0 01-.973.075zm2.859-1.887v.016c0 .29-.035.566-.149.82l.63.282c.14-.317.21-.684.21-1.102v-.016c0-.437-.074-.828-.222-1.168l-.618.332c.098.239.149.516.149.836zm-6.953 1.887a7.528 7.528 0 01-1.168-.11l-.059.704c.403.066.805.101 1.211.11h1.688l.03-.704zm-.004-3.914h1.707l-.031-.707h-1.68c-.5.008-.945.05-1.336.129l.066.707c.364-.082.79-.125 1.274-.129zm-2.934 2.02c.008-.317.063-.594.16-.832l-.62-.313a2.926 2.926 0 00-.231 1.133v.008c0 .375.055.707.172 1.004l.625-.305c-.07-.2-.106-.43-.106-.695zm.656-1.465a2.1 2.1 0 01.563-.297l-.156-.692c-.313.11-.586.247-.817.422-.175.133-.336.29-.465.47l.575.394c.086-.114.187-.215.3-.297zm7.762 3.207l.164.683a3.225 3.225 0 001.086-.449c.153-.105.29-.23.41-.375l-.605-.37c-.223.218-.555.394-1.055.51zm0 0" fill="#4d4d4d"/></svg>