<svg xmlns="http://www.w3.org/2000/svg" width="30" height="30"><circle style="isolation:auto;mix-blend-mode:normal;solid-color:#000;solid-opacity:1;marker:none" cx="15" cy="15" r="14.5" color="#000" overflow="visible" fill="#e50980" fill-rule="evenodd" stroke="#fff"/><g fill="#fff"><path d="M19.133 14.438a3.935 3.935 0 01-1.324 3.555 2.383 2.383 0 01.996-.177c.632-.8.98-1.777.984-2.78a2.288 2.288 0 01-.656-.598zm0 0M15.68 11.047a4.162 4.162 0 013.039 2.129c0-.004-.004-.008-.004-.012 0-.289.058-.574.176-.84a4.74 4.74 0 00-2.407-1.695 2.362 2.362 0 01-.804.418zm0 0M12.078 17.855a3.935 3.935 0 01-1.164-3.503 2.25 2.25 0 01-.668.648v.012c0 1.011.34 1.992.973 2.793h.043c.347-.004.691.074 1.004.222a3.91 3.91 0 01-.188-.172zm0 0M11.285 13.152c0 .032-.004.063-.004.094.594-1.176 1.746-1.996 3.082-2.203a2.33 2.33 0 01-.804-.418 4.78 4.78 0 00-2.434 1.723c.105.254.16.527.16.804zm0 0M17.512 23L15.8 19.566s-.004-.003-.008-.003c.246-.04.492-.098.73-.176.098-.317.27-.61.5-.852a4.29 4.29 0 01-4.12-.058c.253.25.44.554.546.89.262.086.531.153.805.196L12.277 23zm0 0"/><path d="M18.71 21.605c-.808 0-1.495-.57-1.62-1.343l3.207.172c-.192.691-.844 1.171-1.586 1.171zm-7.448-.007a1.652 1.652 0 01-1.418-.793l3.054-.93c.004.047.004.09.004.137 0 .875-.734 1.582-1.64 1.586zm3.742-5.54c-.188 0-.371-.046-.535-.136l-.086-.05-.078-.067a1.012 1.012 0 01-.375-.785c0-.067.008-.133.023-.2l.02-.097.035-.09c.152-.36.492-.61.89-.645l.102-.011.102.011c.402.032.75.282.898.64l.04.095.019.093c.078.372-.059.75-.356.997l-.078.062-.09.05a1.14 1.14 0 01-.531.134zm6-1.308c-.59 0-1.133-.305-1.426-.797l3.059-.926c.004.043.008.09.008.137-.004.875-.735 1.586-1.641 1.586zm-12.008-.016c-.906 0-1.637-.707-1.64-1.582 0-.05.003-.097.007-.144l3.078.898c-.289.508-.843.828-1.445.828zm5.945-4.222c-.742-.035-1.367-.547-1.523-1.25h3.21c-.16.715-.804 1.23-1.562 1.254h-.062zm0 0"/><path d="M16.102 9.605a1.3 1.3 0 01-1.043.566h-.051l-.051-.003a1.296 1.296 0 01-.863-.383c-.055-.055-.102-.117-.149-.18h2.157m-8.34 3.88l2.074.605c-.031.027-.066.05-.102.078a1.324 1.324 0 01-.738.223c-.574 0-1.082-.371-1.234-.907m14.476.024c-.16.531-.664.898-1.234.898-.266 0-.524-.078-.742-.226-.024-.016-.047-.035-.07-.051l2.046-.621M15 14.324l.07.004c.27.024.5.192.602.43l.023.062.016.063a.843.843 0 01.012.137c0 .203-.09.398-.254.527l-.051.043-.059.035a.741.741 0 01-.71-.004l-.06-.031-.054-.043a.691.691 0 01-.234-.66l.011-.067.028-.058a.701.701 0 01.594-.43l.066-.008m-2.504 6.035c-.121.399-.437.711-.848.836-.41.125-.855.043-1.191-.218l2.04-.618m5.097.274l2.16.117a1.311 1.311 0 01-2.16-.117M15.024 7c-1.083 0-1.97.836-1.997 1.883-.027 1.047.813 1.922 1.895 1.976l-.059 2.786c-.527.05-.984.382-1.183.859l-2.766-.809c.309-1.011-.277-2.074-1.316-2.39-1.04-.317-2.149.23-2.496 1.226-.348 1 .195 2.082 1.218 2.438 1.028.351 2.157-.149 2.543-1.133l2.739.918c-.098.488.078.988.468 1.312l-1.691 2.348c-.902-.594-2.133-.379-2.762.484-.633.864-.43 2.055.45 2.68.878.625 2.117.453 2.78-.383.665-.84.512-2.039-.343-2.695l1.789-2.281c.437.242.977.246 1.418.004l1.777 2.273a1.889 1.889 0 00-.375 2.676c.653.84 1.88 1.023 2.762.414.883-.613 1.098-1.793.48-2.66-.613-.863-1.832-1.094-2.738-.516l-1.683-2.336c.394-.328.578-.832.476-1.324l2.719-.914c.379.976 1.492 1.484 2.512 1.137 1.015-.344 1.562-1.41 1.226-2.403-.336-.988-1.433-1.535-2.465-1.23-1.027.305-1.617 1.351-1.32 2.355l-2.75.805a1.427 1.427 0 00-1.2-.855l-.054-2.786c1.09-.027 1.957-.898 1.942-1.953C17.008 7.848 16.117 7 15.023 7zm-1.692 1.918c.008-.898.762-1.621 1.691-1.621.93 0 1.684.723 1.692 1.621zm-2.707 4.68l-3.238-.942c.277-.851 1.215-1.328 2.097-1.07.887.258 1.395 1.152 1.141 2.012zm8.762.05c-.278-.859.218-1.773 1.11-2.043.89-.27 1.835.208 2.116 1.067zM9.648 20.5c-.28-.86.215-1.777 1.11-2.047.89-.273 1.84.207 2.12 1.07zm10.754-.406l-3.379-.18c.063-.883.836-1.555 1.747-1.527.91.031 1.636.754 1.636 1.633 0 .027-.004.05-.004.074zm0 0"/></g></svg>