<svg xmlns="http://www.w3.org/2000/svg" width="30" height="30"><circle style="isolation:auto;mix-blend-mode:normal;solid-color:#000;solid-opacity:1;marker:none" cx="15" cy="15" r="14.5" color="#000" overflow="visible" fill="#fff" fill-rule="evenodd" stroke="#e50980"/><path d="M17.941 10.527s-.57 1.16-1.312 2.664L14.523 9l-2.09 4.14-1.328-2.613S6.133 19.773 6 20h14.047L23 19.953zm-5.859 4.16l-.957 1.09-1.11-1.12-1.019.628 2.086-3.836 2.02 3.614zm2.508-1.601l-.82-.941-.801.515 1.554-2.805 1.508 2.739-.71-.34zm4.328 1.555l-.957 1.093-1.11-1.12-1.019.628 2.086-3.84 2.02 3.614zm0 0" fill="#4d4d4d"/></svg>