<svg xmlns="http://www.w3.org/2000/svg" width="8" height="10" viewBox="0 0 8 10"><path d="M7.617 8.219s-.203-.34-.242-.274c-.512.84-1.758 1.27-2.367 1.457-.668.211-1.004.598-1.004.598L4 9.824 3.996 10s-.336-.387-1.004-.598c-.61-.187-1.855-.617-2.367-1.457-.04-.066-.242.274-.242.274-.79-1.094-.117-2.63-.117-2.63s.511 1.173 1.351 1.77l-.37.043s.335.575 1.288.73c.582.095.774.083.914-.16a.114.114 0 00.008-.035V4.09c0-.117-.102-.215-.23-.215H1.965a.152.152 0 00-.125.063.768.768 0 01-.817.269A.695.695 0 01.5 3.57c-.004-.297.195-.558.496-.656a.779.779 0 01.828.238.158.158 0 00.121.059h1.403c.125 0 .23-.098.23-.215v-.535c-.656-.195-1.05-.813-.926-1.434.13-.625.743-1.066 1.43-1.023.664.039 1.211.527 1.27 1.14.058.586-.332 1.133-.938 1.313v.54c0 .116.102.214.23.214h1.403a.158.158 0 00.121-.059c.191-.234.523-.332.824-.234.301.094.504.36.496.652a.687.687 0 01-.523.633.758.758 0 01-.813-.262.155.155 0 00-.125-.066H4.785a.222.222 0 00-.226.215v3.87c0 .013.003.024.007.036.141.219.34.227.899.137.953-.156 1.289-.73 1.289-.73l-.371-.044c.84-.597 1.351-1.77 1.351-1.77s.672 1.536-.117 2.63zM4.016.707c-.34 0-.614.254-.614.563 0 .312.274.566.614.566.336 0 .609-.254.609-.566 0-.31-.273-.563-.61-.563zm0 0" fill="#4d4d4d"/></svg>