<svg xmlns="http://www.w3.org/2000/svg" width="11" height="6" viewBox="0 0 11 6"><g fill="#4d4d4d"><path d="M.008 6s0-1.96 1.8-3.898C3.856-.098 5.497 0 5.497 0s1.102 0 2.727 1.195c1.265.93 2.164 2.563 2.273 2.864.113.3.555 1.28.492 1.941h-.687s-.246-1.902-1.633-3.273C7.234 1.309 6.355.863 5.468.863c-.796 0-2.09.856-3.03 1.723C1.085 3.828.772 5.805.772 6zm0 0"/><path d="M2.383 6h6.312s-.398-1.398-1.21-2.242C6.671 2.91 6.058 2.566 5.44 2.586c-.37.012-1.285.172-2.277 1.582C2.293 5.41 2.383 6 2.383 6zm0 0"/></g></svg>