<svg xmlns="http://www.w3.org/2000/svg" width="30" height="30"><circle style="isolation:auto;mix-blend-mode:normal;solid-color:#000;solid-opacity:1;marker:none" cx="15" cy="15" r="14.5" color="#000" overflow="visible" fill="#fff" fill-rule="evenodd" stroke="#e50980"/><g fill="#4d4d4d"><path d="M19.21 13.191s-.648-.68-.866-.453c-.278.29.324 1.696 1.41 1.696 1.082 0 1.418-.79 1.516-1.13.195-.671-.325-3.734-.325-3.734s-1.968-2.105-.324-2.488c1.774-.41 1.176.79 1.059 1.508-.008.047-.16.566-.133.96.027.434.492 2.626.371 3.755-.156 1.508-1.32 1.93-2.164 1.922-.543-.008-1.621-.297-2.059-1.582-.543-1.586 1.082-3.395 1.082-3.395-.433 1.02.434 2.941.434 2.941zm1.93-4.175s.25-.922.188-1.274c-.055-.308-.73-.168-.785 0-.164.52.598 1.274.598 1.274zm0 0M20.176 18.133c0-.242.191-.438.422-.438.23 0 .418.196.418.438a.428.428 0 01-.418.437.408.408 0 01-.297-.129.448.448 0 01-.125-.308zm-1.914 3.625a9.35 9.35 0 010-5.793 8.242 8.242 0 00-1.934-.242c-2.223 0-4.21.98-5.531 1.847a.83.83 0 01-.906 0 12.162 12.162 0 00-2.82-1.382.048.048 0 00-.055.015c-.012.016-.012.04-.004.059.258.468.488.949.695 1.445a2.994 2.994 0 010 2.309c-.207.496-.437.98-.695 1.445-.008.02-.008.043.004.059.011.02.035.023.054.02a12.377 12.377 0 002.836-1.392c.266-.18.61-.18.88-.003 1.32.867 3.312 1.855 5.542 1.855.672 0 1.317-.094 1.934-.242zm4.363-2.14a.953.953 0 000-1.513c-.86-.644-2.266-1.546-3.957-2.03a8.901 8.901 0 000 5.577c1.691-.488 3.098-1.39 3.957-2.035zm0 0"/></g></svg>