<svg xmlns="http://www.w3.org/2000/svg" width="11" height="10" viewBox="0 0 11 10"><g fill="#4d4d4d"><path d="M8.395 4.125s-.446-.45-.594-.3c-.192.19.222 1.132.965 1.132.746 0 .976-.527 1.043-.754.136-.445-.223-2.488-.223-2.488S8.234.309 9.363.055c1.219-.274.809.527.73 1.008-.003.027-.113.375-.093.64.02.285.34 1.75.258 2.5-.11 1.004-.91 1.285-1.492 1.281A1.527 1.527 0 017.352 4.43c-.372-1.059.746-2.262.746-2.262-.297.676.297 1.957.297 1.957zm1.324-2.781s.176-.614.133-.848c-.04-.207-.504-.113-.54 0-.117.344.407.848.407.848zm0 0M9.059 7.422c0-.16.129-.293.289-.293.16 0 .289.133.289.293 0 .16-.13.293-.29.293a.293.293 0 01-.29-.293zM7.742 9.84a6.054 6.054 0 010-3.863 5.887 5.887 0 00-1.328-.16c-1.527 0-2.894.652-3.805 1.23a.576.576 0 01-.62 0 8.404 8.404 0 00-1.942-.922.032.032 0 00-.035.012c-.008.008-.012.023-.004.039.176.308.336.633.476.96.215.493.215 1.051 0 1.54-.14.332-.3.652-.476.965-.008.011-.004.027.004.039a.032.032 0 00.035.011 8.394 8.394 0 001.95-.925.565.565 0 01.605 0C3.512 9.344 4.879 10 6.414 10c.461 0 .906-.063 1.328-.16zm3-1.43a.624.624 0 00.254-.504c0-.199-.094-.386-.254-.504-.59-.43-1.558-1.027-2.719-1.351a5.71 5.71 0 000 3.715c1.16-.325 2.13-.922 2.72-1.356zm0 0"/></g></svg>