<svg xmlns="http://www.w3.org/2000/svg" width="11" height="11" viewBox="0 0 11 11"><path d="M10.996 5.32a5.5 5.5 0 10-10.938.988 5.454 5.454 0 00.957 2.375A5.488 5.488 0 005.5 11c1.922 0 3.61-.984 4.594-2.477A5.435 5.435 0 0011 5.5c0-.063 0-.121-.004-.18zm-8.95-3.273A4.893 4.893 0 016.235.672a4.908 4.908 0 013.59 2.555 2.194 2.194 0 00-.742-.141h-.031c-1.04 0-1.559.574-1.98 1.035-.4.438-.712.781-1.43.781-.684 0-.98-.34-1.356-.765-.406-.469-.914-1.051-1.96-1.051h-.032a2.315 2.315 0 00-1.215.34c.242-.512.57-.98.969-1.38zm6.907 6.906A4.884 4.884 0 015.06 10.36 4.877 4.877 0 011.48 8.273a1.42 1.42 0 01.82-.246h.024c.653 0 .926.317 1.305.75.414.477.93 1.067 2.012 1.067 1.105 0 1.644-.59 2.074-1.067.394-.433.683-.75 1.336-.75h.023c.2.004.371.047.528.125-.188.29-.407.559-.649.801zm1.055-1.574a2.05 2.05 0 00-.926-.223h-.031c-1.04 0-1.559.574-1.98 1.035-.4.434-.712.782-1.43.782-.684 0-.98-.34-1.356-.77-.41-.473-.922-1.058-1.992-1.047a2.281 2.281 0 00-1.242.356 5.278 5.278 0 01-.258-.703c.039-.04.078-.082.113-.121.406-.422.727-.754 1.395-.762h.023c.653 0 .926.312 1.305.75.414.472.93 1.066 2.012 1.066 1.105 0 1.644-.594 2.074-1.07.402-.438.687-.762 1.36-.746.491.004.788.254 1.187.66-.063.273-.149.539-.254.793zm.375-1.863a2.093 2.093 0 00-1.301-.465c-1.059-.016-1.586.57-2.012 1.035-.398.437-.71.781-1.43.781-.683 0-.98-.34-1.355-.765-.41-.473-.922-1.063-1.992-1.051-.785.008-1.285.336-1.668.687C.621 5.66.617 5.582.617 5.5c0-.168.008-.336.028-.504.09-.09.18-.184.265-.273.402-.422.723-.754 1.39-.762h.024c.653 0 .926.312 1.305.75.414.473.93 1.066 2.012 1.066 1.105 0 1.644-.593 2.074-1.07.394-.434.683-.746 1.336-.746h.023c.512.004.813.273 1.239.715.046.273.07.547.07.824v.016zm0 0" fill="#4d4d4d"/></svg>