<svg xmlns="http://www.w3.org/2000/svg" width="11" height="10" viewBox="0 0 11 10"><path d="M11 1.605s-2.426.59-3.398 1.766c-.485.59-.16 1.473.648 1.621 1.004.184 2.426-.148 2.426-.148-.485.148-.91.906-1.043 1.355-.172.574.074 1.59.074 1.59-.125.027-2.105-1.766-3.398-.734-1.258.996 0 2.945 0 2.945C.645 7.645.48 3.96.48 3.96 4.852-.015 11 1.606 11 1.606zM2.125 3.79c-.355 0-.648.266-.648.59 0 .324.293.59.648.59.36 0 .648-.266.648-.59 0-.324-.289-.59-.648-.59zM.227 3c.125 0 .23.094.23.207 0 .113-.105.207-.23.207S0 3.324 0 3.207C0 3.09.102 3 .227 3zm.941-1.164c.148 0 .27.11.27.246 0 .133-.122.246-.27.246-.148 0-.27-.113-.27-.246 0-.137.122-.246.27-.246zM2.535.75c.18 0 .324.129.324.293 0 .164-.144.297-.324.297-.18 0-.324-.133-.324-.297 0-.164.144-.293.324-.293zM4.2 0c.227 0 .406.164.406.371 0 .203-.18.367-.406.367-.222 0-.406-.164-.406-.367 0-.207.184-.371.406-.371zm0 0" fill="#4d4d4d"/></svg>