<svg xmlns="http://www.w3.org/2000/svg" width="11" height="10" viewBox="0 0 11 10"><path d="M10.945 1.813C9.762.66 8.047 0 6.238 0h-.082a7.383 7.383 0 00-1.781.238.365.365 0 00-.285-.035.327.327 0 00-.211.188 6.568 6.568 0 00-1.555.773c-.472.32-.89.7-1.242 1.133C.359 3.184-.012 4.219 0 5.289c0 .031.004.066.004.098l.004.039c.004.074.054.14.129.168.078.023.16.004.218-.051.52-.512 1.297-.809 2.133-.809.38 0 .75.063 1.102.184.008.004.012.004.02.004l.003.016.004-.012a.207.207 0 00.227-.106c.23-.476.672-.875 1.25-1.12l2.383 6.097c.062.16.253.242.425.183.172-.058.262-.234.2-.394l-2.38-6.082a3.399 3.399 0 011.801.121c.075.027.16.012.215-.043l.016.004-.008-.008a.164.164 0 00.035-.055c.383-.851 1.414-1.425 2.57-1.425.141 0 .282.011.422.027a.203.203 0 00.204-.102.173.173 0 00-.032-.21zM3.72 4.765a.05.05 0 01-.016.023.357.357 0 01.031-.05.224.224 0 00-.015.027zM5.57 3.28c-.093.02-.175.047-.254.07-.093.036-.18.063-.253.094-.532.203-.954.473-1.399 1.153-.215-.856-.305-1.735-.25-2.485.059-.758.262-1.328.563-1.566A.554.554 0 014.164.44a.767.767 0 01.23-.035c.008-.004.016-.004.02-.004.23 0 .488.098.766.282.254.168.527.418.82.742.527.59 1.023 1.32 1.422 1.914A3.511 3.511 0 005.57 3.28zm0 0" fill="#4d4d4d"/></svg>