<svg xmlns="http://www.w3.org/2000/svg" width="30" height="30"><circle style="isolation:auto;mix-blend-mode:normal;solid-color:#000;solid-opacity:1;marker:none" cx="15" cy="15" r="14.5" color="#000" overflow="visible" fill="#e50980" fill-rule="evenodd" stroke="#fff"/><path d="M22.996 14.219a8.531 8.531 0 00-.367-2.215A8.504 8.504 0 006.12 13.063a8.613 8.613 0 00.035 3.074c.23 1.18.711 2.3 1.41 3.281A8.49 8.49 0 0014.5 23a8.496 8.496 0 008.5-8.5c0-.094 0-.188-.004-.281zM9.164 9.164a7.536 7.536 0 016.469-2.121 7.548 7.548 0 015.547 3.945 3.272 3.272 0 00-1.145-.218h-.047c-1.605 0-2.41.886-3.062 1.601-.613.672-1.098 1.207-2.207 1.207-1.059 0-1.516-.523-2.094-1.187-.629-.723-1.414-1.621-3.035-1.621h-.047a3.608 3.608 0 00-1.875.523 7.575 7.575 0 011.496-2.129zm10.672 10.672a7.551 7.551 0 01-6.02 2.176 7.553 7.553 0 01-5.53-3.227 2.226 2.226 0 011.273-.375h.03c1.009 0 1.434.485 2.02 1.156.641.735 1.438 1.649 3.11 1.649 1.707 0 2.539-.914 3.207-1.649.61-.671 1.05-1.156 2.062-1.156h.032c.312 0 .574.067.816.188-.29.449-.625.863-1 1.238zm1.629-2.43a3.14 3.14 0 00-1.43-.347h-.047c-1.605 0-2.41.886-3.062 1.597-.613.676-1.098 1.211-2.207 1.211-1.059 0-1.516-.523-2.094-1.187-.637-.73-1.43-1.64-3.082-1.621-.809.011-1.426.238-1.922.55-.023-.058-.05-.113-.074-.172a7.505 7.505 0 01-.32-.917l.175-.184c.625-.652 1.121-1.168 2.157-1.18h.03c1.009 0 1.434.489 2.02 1.16.641.73 1.438 1.645 3.11 1.645 1.707 0 2.539-.914 3.207-1.649.617-.675 1.058-1.175 2.094-1.156.761.008 1.222.39 1.84 1.024a7.603 7.603 0 01-.395 1.226zm.582-2.883c-.524-.402-1.156-.707-2.012-.714-1.633-.028-2.453.878-3.11 1.597-.613.676-1.097 1.207-2.206 1.207-1.059 0-1.516-.523-2.094-1.187-.637-.727-1.43-1.637-3.082-1.617-1.211.011-1.984.515-2.578 1.062a5.886 5.886 0 01-.012-.371c0-.262.016-.523.04-.781.144-.14.28-.281.41-.418.624-.653 1.12-1.168 2.156-1.18h.03c1.009 0 1.434.484 2.02 1.156.641.735 1.438 1.649 3.11 1.649 1.707 0 2.539-.914 3.207-1.649.61-.672 1.05-1.156 2.062-1.156h.032c.796.008 1.261.426 1.921 1.11.07.417.106.843.106 1.269v.023zm0 0" fill="#fff"/></svg>