<svg xmlns="http://www.w3.org/2000/svg" width="10" height="8" viewBox="0 0 10 8"><path d="M7.793 1.191c0 .602-.469 1.086-1.047 1.086-.582 0-1.05-.484-1.05-1.086 0-.601.468-1.086 1.05-1.086.578 0 1.047.485 1.047 1.086zM2.25 1.094c.79-.114 1.691.535 1.691.535L1.195 2.953h.059c.55.004.863.344 1.137.637.25.273.449.492.816.48a1.03 1.03 0 00.691-.258l.262-.324c.246-.258.559-.531 1.106-.535.632-.008.937.356 1.183.645.223.265.399.472.805.472.426 0 .613-.21.851-.48.25-.285.567-.649 1.196-.637.21 0 .418.059.601.168.004-.008.004-.016.004-.027.031-.188-.238-.711-.742-.504-.363.148-1.039.785-2.371.437C5.73 2.75 5.543 1.633 4.719.867 3.769-.02 2.594-.176 1.429.172.282.516-.07 1.02.274 1.449c.45.567.754-.176 1.977-.355zm7.04 2.605c-.63-.011-.946.352-1.196.637-.239.27-.422.484-.848.484-.41 0-.586-.21-.809-.472-.242-.293-.55-.657-1.183-.649-.547.008-.86.281-1.106.54l-.257.32a1.031 1.031 0 01-.696.261c-.367.008-.562-.207-.816-.48-.274-.297-.586-.633-1.137-.64-.629-.013-.941.35-1.195.636l-.043.05v.727c.172-.125.308-.277.426-.414.238-.27.41-.469.808-.46.317.003.496.183.766.472.266.289.598.648 1.168.648.012 0 .023 0 .035-.004.758-.015 1.137-.457 1.3-.73.208-.219.395-.383.75-.387h.016c.387 0 .551.196.774.461.246.293.555.656 1.2.656.651 0 .972-.363 1.23-.656.238-.27.41-.469.804-.46.297.003.477.16.715.417v-.718a1.19 1.19 0 00-.707-.239zm.042 1.281c-.625-.011-.941.352-1.195.637-.235.27-.422.485-.848.485-.406 0-.582-.211-.805-.473-.246-.293-.55-.656-1.187-.649-.543.008-.86.282-1.102.54l-.261.32a1.02 1.02 0 01-.692.262c-.37.007-.566-.207-.82-.48-.274-.298-.582-.634-1.133-.642-.629-.011-.945.352-1.195.637l-.09.102v.703c.195-.125.34-.293.473-.442.238-.27.406-.468.804-.46.317.003.5.183.766.472.27.29.598.649 1.172.649.011 0 .023 0 .035-.004.754-.02 1.133-.457 1.297-.73.207-.22.398-.384.754-.387h.011c.387 0 .551.195.778.46.246.293.55.657 1.195.657.656 0 .977-.364 1.234-.657.235-.27.407-.468.805-.46.277.003.45.14.668.37v-.702a1.182 1.182 0 00-.664-.208zm.035 1.364c-.629-.012-.945.347-1.195.636-.238.27-.422.48-.848.48-.41 0-.586-.206-.808-.472-.243-.289-.547-.652-1.184-.644-.547.004-.86.277-1.105.535l-.258.324a1.05 1.05 0 01-.696.258c-.367.012-.562-.207-.816-.48-.273-.297-.586-.633-1.137-.637C.691 6.332.38 6.69.125 6.98c-.043.047-.082.094-.121.137v.688c.21-.13.367-.305.504-.461.238-.274.41-.473.808-.465.317.004.496.184.766.476.266.286.598.645 1.168.645h.035c.758-.02 1.137-.457 1.3-.73.208-.223.395-.387.75-.391h.017c.386 0 .55.195.773.465.246.293.555.656 1.2.656.652 0 .972-.363 1.23-.656.238-.274.41-.473.808-.465.262.004.43.129.633.336v-.688a1.158 1.158 0 00-.629-.183zm0 0" fill="#4d4d4d"/></svg>