<svg xmlns="http://www.w3.org/2000/svg" width="10" height="7" viewBox="0 0 10 7"><path d="M.844 1.707l-.336-.25c.11-.176.23-.344.367-.492.402-.442.906-.75 1.457-.887l.09.438a2.497 2.497 0 00-1.258.765 2.89 2.89 0 00-.32.426zM.406 3.719V3.28c0-.39.074-.777.219-1.136l-.367-.2A3.536 3.536 0 000 3.281v.438c0 .437.078.867.234 1.27l.368-.192a3.063 3.063 0 01-.196-1.078zM2.984.449h1.77L4.734 0h-1.75c-.035 0-.07 0-.109.004l.04.445h.07zm5.852 5.27c-.371.41-.848.687-1.367.789l.097.433a2.9 2.9 0 001.559-.906 3.35 3.35 0 00.371-.496l-.348-.234c-.093.148-.199.289-.312.414zm-3.563.832L5.31 7h1.734L7 6.55zM6.95.449L6.98 0H5.305l-.032.45zM2.996 6.551L2.961 7h1.773l.02-.45zm-1.832-.832a2.87 2.87 0 01-.332-.446l-.344.243c.114.187.242.363.387.52a2.89 2.89 0 001.555.905l.086-.437a2.51 2.51 0 01-1.352-.785zm8.43-2.438v.438c0 .383-.07.761-.207 1.113l.37.18c.161-.41.243-.848.243-1.293V3.28c0-.476-.094-.945-.273-1.375l-.364.211c.153.367.23.762.23 1.164zm-.758-2c.11.117.207.25.297.387l.332-.258a3.19 3.19 0 00-.34-.445A2.9 2.9 0 007.539.05l-.082.437a2.51 2.51 0 011.379.793zM8.05 5.086a2.153 2.153 0 01-.805.41l.094.438c.36-.102.687-.266.957-.489.152-.125.289-.27.41-.437l-.355-.235a1.63 1.63 0 01-.301.313zm.68-1.527v.02c0 .308-.06.597-.172.847l.375.183c.132-.308.203-.656.203-1.03v-.02a2.68 2.68 0 00-.254-1.16l-.36.21c.13.278.207.594.207.95zm-.395-1.266l.332-.262a2.578 2.578 0 00-1.316-.965l-.082.438c.418.144.796.414 1.066.789zm-6.363-.332c.199-.176.425-.313.668-.41l-.094-.438a2.814 2.814 0 00-.828.496 2.728 2.728 0 00-.403.446l.34.25c.094-.125.2-.243.317-.344zm1.523 3.633c-.14 0-.281-.012-.422-.035l-.035.445c.152.023.305.035.457.035h1.281l.02-.445zm0-4.211h1.3L4.778.937h-1.28c-.18 0-.36.016-.536.055l.039.45c.164-.04.332-.06.496-.06zm3.055 0c.113 0 .226.012.34.027l.027-.445a2.324 2.324 0 00-.367-.027H5.234l-.03.445zM1.26 3.55c0-.375.087-.688.212-.942l-.364-.199a2.594 2.594 0 00-.257 1.14c0 .368.07.704.203 1.009l.367-.192a2.025 2.025 0 01-.16-.816zm5.29 2.043H5.199l.035.445h1.317c.133 0 .261-.008.394-.023l-.047-.446c-.117.016-.23.024-.347.024zm-4.586-.52a2.025 2.025 0 01-.344-.363l-.344.246c.13.18.278.34.45.477.261.21.57.375.906.476l.09-.437a2.421 2.421 0 01-.758-.399zm.512-.664a.85.85 0 01-.18-.176l-.344.243c.082.12.184.222.297.304.152.114.336.203.555.27l.09-.438a1.488 1.488 0 01-.418-.203zM7.55 2.605c.058.051.113.11.16.176l.332-.261a1.347 1.347 0 00-.246-.27 1.69 1.69 0 00-.606-.32l-.082.441c.176.059.325.137.442.234zM6.238 2.25c.2 0 .399.02.598.05l.027-.448a4.156 4.156 0 00-.62-.047H5.171l-.035.445zm0 2.492H5.137l.035.45h1.074a4.58 4.58 0 00.61-.051l-.047-.446a4.614 4.614 0 01-.57.047zm1.68-1.199v.012c0 .18-.016.36-.086.52l.371.179c.082-.2.125-.434.125-.7v-.011c0-.281-.047-.527-.133-.742l-.36.21c.056.153.083.329.083.532zm-4.09 1.2a4.714 4.714 0 01-.683-.067l-.036.445c.235.043.473.063.711.07h.993l.019-.449zm0-2.493h1.004l-.02-.445h-.988a3.91 3.91 0 00-.785.082l.04.449c.214-.055.464-.082.75-.086zM2.102 3.54c.003-.204.035-.38.097-.532l-.367-.2c-.086.208-.133.45-.137.723v.004c0 .238.035.45.102.637l.367-.192a1.504 1.504 0 01-.062-.44zm.386-.935c.102-.082.215-.144.332-.19l-.093-.438a1.596 1.596 0 00-.48.27 1.42 1.42 0 00-.274.296l.34.25c.05-.07.109-.137.175-.188zm4.567 2.043l.097.434c.258-.066.47-.16.637-.289a1.25 1.25 0 00.242-.234l-.355-.239c-.133.137-.328.25-.621.328zm0 0" fill="#4d4d4d"/></svg>