<svg xmlns="http://www.w3.org/2000/svg" width="30" height="30"><circle style="isolation:auto;mix-blend-mode:normal;solid-color:#000;solid-opacity:1;marker:none" cx="15" cy="15" r="14.5" color="#000" overflow="visible" fill="#e50980" fill-rule="evenodd" stroke="#fff"/><path d="M19.469 9.938c0 .972-.75 1.765-1.676 1.765-.93 0-1.68-.793-1.68-1.765 0-.977.75-1.77 1.68-1.77.926 0 1.676.793 1.676 1.77zm-8.867-.16c1.261-.188 2.707.87 2.707.87L8.91 12.797h.098c.879.012 1.375.558 1.816 1.039.403.445.719.797 1.309.781.523-.015.879-.21 1.11-.426l.413-.523c.39-.418.895-.86 1.766-.871 1.02-.012 1.504.578 1.898 1.05.356.43.637.77 1.29.77.68 0 .98-.347 1.359-.785.402-.465.906-1.05 1.91-1.035.34 0 .672.094.965.273.004-.015.008-.027.008-.039.046-.308-.383-1.16-1.192-.824-.578.242-1.66 1.277-3.793.711-1.699-.453-2-2.262-3.32-3.512-1.516-1.433-3.399-1.695-5.262-1.129-1.836.559-2.394 1.38-1.848 2.078.72.918 1.208-.289 3.165-.578zm11.261 4.234c-1.008-.016-1.511.57-1.914 1.035-.379.437-.676.785-1.36.785-.651 0-.933-.34-1.288-.77-.39-.472-.88-1.062-1.899-1.05-.867.011-1.37.453-1.761.87l-.418.528c-.23.211-.582.406-1.11.422-.59.016-.902-.336-1.308-.781-.438-.48-.934-1.028-1.817-1.04-1.004-.015-1.508.571-1.914 1.036a1.66 1.66 0 01-.07.086v1.176c.281-.204.492-.45.684-.672.382-.438.656-.762 1.292-.75.504.008.797.297 1.227.77.426.468.953 1.05 1.871 1.05h.055c1.21-.031 1.816-.742 2.078-1.191.332-.356.637-.621 1.203-.63h.02c.62 0 .882.317 1.242.75.394.477.887 1.071 1.914 1.071 1.05 0 1.562-.594 1.973-1.07.378-.438.652-.762 1.289-.75.476.004.757.258 1.144.68v-1.169a1.897 1.897 0 00-1.133-.386zm.07 2.082c-1.003-.016-1.507.57-1.913 1.035-.375.437-.676.785-1.356.785-.652 0-.934-.34-1.289-.77-.395-.472-.883-1.062-1.898-1.05-.872.011-1.375.453-1.766.87l-.418.524c-.23.215-.582.41-1.11.426-.585.016-.902-.336-1.308-.781-.438-.48-.934-1.028-1.816-1.04-1.004-.015-1.508.571-1.91 1.036-.051.058-.098.113-.145.164v1.145c.316-.208.55-.477.758-.72.379-.44.652-.765 1.289-.75.508.005.797.298 1.226.77.426.469.957 1.051 1.871 1.051h.055c1.211-.031 1.817-.746 2.082-1.191.328-.356.633-.621 1.2-.63h.023c.617 0 .879.317 1.238.75.395.477.887 1.071 1.918 1.071 1.047 0 1.559-.594 1.969-1.07.383-.442.656-.766 1.293-.75.441.004.719.226 1.07.601v-1.14a1.863 1.863 0 00-1.062-.336zm.055 2.21c-1.008-.015-1.511.571-1.914 1.04-.379.437-.676.781-1.36.781-.651 0-.933-.34-1.288-.77-.39-.472-.88-1.062-1.895-1.05-.87.011-1.375.457-1.765.875l-.418.523c-.23.211-.582.41-1.11.422-.59.016-.902-.336-1.308-.781-.438-.48-.934-1.028-1.817-1.04-1.004-.015-1.508.571-1.914 1.04-.066.078-.129.152-.195.222v1.118c.344-.211.59-.5.812-.754.38-.438.653-.762 1.29-.75.507.007.796.297 1.226.77.426.468.953 1.05 1.871 1.05h.055c1.21-.031 1.816-.742 2.078-1.191.332-.356.637-.622 1.203-.63h.02c.62 0 .882.317 1.242.75.394.477.887 1.071 1.914 1.071 1.05 0 1.562-.594 1.973-1.07.378-.438.652-.762 1.289-.75.421.007.695.207 1.02.547v-1.122a1.9 1.9 0 00-1.009-.3zm0 0" fill="#fff"/></svg>