<svg xmlns="http://www.w3.org/2000/svg" width="30" height="30"><circle style="isolation:auto;mix-blend-mode:normal;solid-color:#000;solid-opacity:1;marker:none" cx="15" cy="15" r="14.5" color="#000" overflow="visible" fill="#fff" fill-rule="evenodd" stroke="#e50980"/><g fill="#4d4d4d"><path d="M15.031 12.578l.707 2.246h2.192l-1.739 1.317.676 2.27-1.836-1.376-1.812 1.399.672-2.293-1.735-1.317h2.168zm0 0"/><path d="M10.074 22.992l1.895-6.101L7 13.12h6.148l1.883-6.113 1.914 6.113H23l-4.895 3.77 1.852 6.101-4.926-3.781zm3.738-8.86h-3.769l3.016 2.286-1.168 3.98 3.144-2.421 3.184 2.382-1.168-3.941 3.015-2.285h-3.804l-1.227-3.903zm0 0"/></g></svg>