<svg xmlns="http://www.w3.org/2000/svg" width="11" height="11" viewBox="0 0 11 11"><g fill="#4d4d4d"><path d="M8.344 5.113a2.711 2.711 0 01-.914 2.445c.195-.081.41-.124.62-.124h.067a3.104 3.104 0 00.676-1.91 1.46 1.46 0 01-.45-.41zm0 0M5.969 2.781c.894.14 1.672.684 2.086 1.465v-.008c0-.199.039-.394.12-.578A3.291 3.291 0 006.52 2.492c-.16.133-.348.23-.551.29zm0 0M3.488 7.46a2.711 2.711 0 01-.797-2.405 1.616 1.616 0 01-.46.445v.008c0 .695.234 1.367.671 1.918h.028c.242 0 .476.054.691.156-.043-.039-.09-.078-.133-.121zm0 0M2.945 4.23c0 .02 0 .043-.004.063a2.854 2.854 0 012.122-1.512 1.57 1.57 0 01-.555-.289 3.297 3.297 0 00-1.672 1.184c.074.176.11.363.11.554zm0 0M7.227 11L6.05 8.64l-.004-.003c.168-.028.336-.067.5-.121a1.51 1.51 0 01.344-.586 2.942 2.942 0 01-2.832-.04c.171.173.3.383.375.614.18.059.363.105.55.133L3.63 11zm0 0"/><path d="M8.05 10.043a1.12 1.12 0 01-1.113-.926l2.204.117a1.123 1.123 0 01-1.09.809zm-5.12-.008c-.403 0-.774-.207-.977-.547l2.102-.636a.753.753 0 01.004.093c0 .602-.504 1.09-1.13 1.09zm2.574-3.808a.744.744 0 01-.367-.094l-.063-.035-.054-.043a.71.71 0 01-.243-.68l.016-.066.027-.063a.724.724 0 01.61-.441l.07-.008.07.008a.723.723 0 01.617.441l.028.063.012.066a.696.696 0 01-.243.684l-.054.043-.063.035a.77.77 0 01-.363.09zm4.121-.899c-.402 0-.773-.21-.977-.547l2.102-.64c.004.035.004.066.004.097 0 .602-.504 1.09-1.129 1.09zm-8.25-.008C.75 5.316.246 4.832.246 4.23c0-.035 0-.066.004-.101l2.113.617c-.195.352-.578.57-.988.574zm4.086-2.906a1.11 1.11 0 01-1.047-.86h2.207c-.11.493-.555.848-1.074.864h-.043zm0 0"/><path d="M6.258 1.793a.884.884 0 01-.719.387h-.066a.89.89 0 01-.594-.266.597.597 0 01-.102-.121h1.48M.524 4.457l1.426.418c-.023.016-.047.035-.07.05a.893.893 0 01-.504.157.876.876 0 01-.852-.625m9.954.016a.889.889 0 01-.852.62.905.905 0 01-.508-.155l-.047-.036 1.407-.43M5.5 5.036l.047.004a.486.486 0 01.414.297l.02.039.007.047a.481.481 0 01-.164.457l-.035.027-.043.024a.505.505 0 01-.488-.004l-.04-.02-.038-.031a.476.476 0 01-.168-.36c0-.03 0-.062.008-.093l.007-.043.02-.043a.494.494 0 01.406-.297l.047-.004M3.777 9.184a.859.859 0 01-.582.574.897.897 0 01-.816-.149l1.398-.425m3.508.187l1.48.082a.892.892 0 01-.761.352.884.884 0 01-.719-.434M5.515 0c-.742 0-1.35.574-1.37 1.293-.02.719.558 1.324 1.3 1.36l-.039 1.913a.996.996 0 00-.816.59L2.69 4.602c.211-.696-.191-1.422-.906-1.641C1.07 2.742.31 3.117.07 3.805c-.242.683.133 1.43.84 1.672.703.246 1.48-.102 1.746-.778l1.883.633c-.07.332.055.68.32.902L3.7 7.848a1.409 1.409 0 00-1.902.332 1.309 1.309 0 00.312 1.843c.606.43 1.454.313 1.91-.265a1.303 1.303 0 00-.234-1.852L5.012 6.34c.304.164.672.168.976 0l1.223 1.566a1.293 1.293 0 00-.258 1.836c.45.578 1.29.703 1.899.285A1.3 1.3 0 009.184 8.2 1.4 1.4 0 007.3 7.844L6.14 6.238a.93.93 0 00.328-.91l1.87-.629c.259.672 1.024 1.02 1.727.785.7-.238 1.075-.972.844-1.652-.234-.684-.984-1.059-1.695-.848-.707.211-1.113.93-.91 1.618l-1.89.554a.989.989 0 00-.821-.59L5.55 2.652c.754-.02 1.347-.617 1.34-1.343C6.879.582 6.27 0 5.516 0zM4.353 1.316C4.359.7 4.879.203 5.516.203c.64 0 1.16.496 1.164 1.113zm-1.86 3.22l-2.226-.65c.191-.581.836-.91 1.441-.734.61.18.957.793.785 1.383zm6.024.034c-.192-.59.152-1.218.761-1.402.614-.188 1.266.14 1.457.73zM1.82 9.281a1.115 1.115 0 01.762-1.406c.613-.188 1.266.14 1.457.734zM9.215 9L6.89 8.879c.043-.606.574-1.07 1.199-1.05.629.019 1.125.519 1.125 1.124V9zm0 0"/></g></svg>