<svg xmlns="http://www.w3.org/2000/svg" width="30" height="30"><circle style="isolation:auto;mix-blend-mode:normal;solid-color:#000;solid-opacity:1;marker:none" cx="15" cy="15" r="14.5" color="#000" overflow="visible" fill="#e50980" fill-rule="evenodd" stroke="#fff"/><g fill="#fff"><path d="M21.16 15.871c.067-1.148.055-4.39 0-4.656-.187-.942-.172-2.383-2.793-3.649-1.539-.742-4.031-.543-4.031-.543l-7.32.012c-.012.016.02 2.461.02 2.461s2.51-.226 3.226.512c.37.387.683.59.629 2.566-.043 1.656-.18 3.192.71 4.457 1.028 1.465 2.493 1.39 2.493 1.39s-.719-1.398-.653-2.55c.067-1.148.098-4.402 0-4.656a4.111 4.111 0 00-1.347-1.75c.761.023 1.68.144 2.066.543.375.387.684.59.63 2.566-.044 1.656-.18 3.192.71 4.457 1.031 1.465 2.492 1.39 2.492 1.39s-.719-1.398-.652-2.55c.066-1.148.11-4.398.043-4.738-.07-.363-.606-1.074-1.442-1.668.754.027 1.657.148 2.04.543.374.387.683.59.632 2.566-.047 1.656-.183 3.192.707 4.457 1.032 1.465 2.493 1.39 2.493 1.39s-.72-1.398-.653-2.55zm0 0M22.91 19.938c-.414-.325-.926-.727-1.996-.72-.914.009-1.36.325-1.773.61l-.52.348c-.242.144-.613.281-1.168.289-.621.012-.953-.23-1.375-.535-.46-.328-.984-.703-1.914-.711-1.055-.012-1.586.39-2.012.71-.398.298-.71.536-1.43.536-.683 0-.98-.23-1.355-.527-.305-.239-.664-.524-1.27-.649v2.563c.258.09.45.238.676.418.415.324.93.73 2.012.73 1.106 0 1.645-.406 2.078-.73.399-.301.684-.524 1.356-.516.531.004.836.203 1.289.527.449.32 1.004.719 1.969.719h.058c1.274-.023 1.91-.508 2.188-.813.347-.246.668-.43 1.265-.433h.02c.652 0 .93.219 1.308.516.188.148.399.312.672.445V20c-.027-.02-.05-.04-.078-.063zm0 0"/></g></svg>