<svg xmlns="http://www.w3.org/2000/svg" width="11" height="10" viewBox="0 0 11 10"><g fill="#4d4d4d"><path d="M10.758 7.984c-.145-.136-.278-.261-.512-.265h-.008a.606.606 0 00-.316.082 1.01 1.01 0 00-.211.18c-.07.07-.14.14-.238.195a.703.703 0 01-.368.094.7.7 0 01-.359-.09 1.254 1.254 0 01-.226-.2l.003-.003-.011-.012c-.153-.14-.285-.266-.504-.27H8a.597.597 0 00-.316.082 1.01 1.01 0 00-.211.18c-.02.016-.035.035-.055.05l-.063.06c-.039.03-.078.062-.12.085a.728.728 0 01-.372.094h-.027a1.27 1.27 0 01-.379-.125 1.213 1.213 0 01-.18-.164c-.129-.133-.25-.262-.52-.262H5.75a.565.565 0 00-.395.157c-.05.039-.097.085-.144.132-.07.07-.145.141-.238.196a.728.728 0 01-.371.093.696.696 0 01-.356-.09 1.046 1.046 0 01-.23-.199l.004-.004-.012-.007c-.153-.145-.281-.27-.5-.274h-.012a.606.606 0 00-.316.082c-.078.047-.14.114-.211.18-.016.02-.035.035-.055.055-.02.02-.039.035-.062.054a.525.525 0 01-.122.086.703.703 0 01-.367.094.71.71 0 01-.36-.09 1.12 1.12 0 01-.226-.2c-.105-.105-.203-.206-.375-.245a.686.686 0 00-.152-.024h-.008a.569.569 0 00-.308.082.747.747 0 00-.13.098 1.11 1.11 0 00-.1.094 1.4 1.4 0 01-.114.101l.004.004c-.031.028-.063.047-.098.07a.72.72 0 01-.36.087c-.046 0-.09-.004-.136-.008v.21c.047.005.09.008.137.008a.917.917 0 00.605-.21c.012-.012.024-.02.035-.032l.028-.02c.02-.023.043-.042.062-.062.13-.12.207-.195.383-.199h.008c.047 0 .086.008.12.016.06.03.122.082.212.168.031.027.066.062.101.093.141.133.332.274.672.274.29 0 .48-.102.617-.215.008-.008.016-.012.024-.02.027-.023.05-.043.074-.066.008-.008.02-.016.027-.027.133-.121.211-.196.387-.2h.004c.168 0 .227.067.352.192.144.152.343.36.754.36.418 0 .625-.208.773-.356l.008-.008v.004c.02-.016.035-.031.05-.047a.366.366 0 01.305-.145h.004c.13.004.2.06.352.204.054.05.129.12.226.171.117.086.282.137.5.145a.682.682 0 00.184-.004V8.45a.895.895 0 00.48-.203c.008-.008.016-.012.024-.02.023-.023.05-.042.07-.066.012-.008.02-.02.031-.027.13-.121.207-.195.383-.2H8c.164 0 .227.063.348.192.144.152.343.36.757.36.415 0 .622-.208.774-.36.125-.121.191-.191.36-.191h.007c.125 0 .2.058.348.199.101.097.226.215.406.289V8.18c-.094-.055-.172-.13-.242-.196zm0 0"/><path d="M10.758 8.738c-.145-.133-.278-.258-.512-.261h-.008a.572.572 0 00-.316.082 1.12 1.12 0 00-.211.175c-.07.07-.14.145-.238.2a.702.702 0 01-.368.09.664.664 0 01-.359-.09 1.104 1.104 0 01-.226-.196l.003-.004-.011-.011c-.153-.145-.285-.27-.504-.27H8a.595.595 0 00-.316.078c-.079.051-.145.114-.211.18-.02.02-.035.039-.055.055-.02.02-.043.039-.063.058a1.35 1.35 0 01-.12.086.726.726 0 01-.372.09h-.027a1.159 1.159 0 01-.379-.121c-.07-.05-.125-.11-.18-.164-.129-.137-.25-.262-.52-.262H5.75c-.184 0-.3.07-.395.152a1.18 1.18 0 00-.144.137c-.07.07-.145.14-.238.195a.728.728 0 01-.371.094.661.661 0 01-.356-.094 1.033 1.033 0 01-.23-.195l.004-.004-.012-.011c-.153-.145-.281-.266-.5-.27h-.012a.606.606 0 00-.316.082c-.078.047-.14.11-.211.18-.016.015-.035.035-.055.05-.02.02-.039.04-.062.06a.703.703 0 01-.488.18.675.675 0 01-.36-.095 1.104 1.104 0 01-.227-.195c-.105-.106-.203-.211-.375-.246a.516.516 0 00-.152-.024h-.008a.567.567 0 00-.437.18c-.035.027-.067.059-.102.09-.035.035-.074.07-.113.105l.004.004a.683.683 0 01-.457.156A.808.808 0 010 8.973v.21c.047.008.09.008.137.008a.916.916 0 00.64-.238c.012-.008.02-.015.028-.023l.062-.059c.13-.125.207-.2.383-.2h.008a.38.38 0 01.12.017.97.97 0 01.212.164l.101.097c.141.133.332.27.672.27a.943.943 0 00.64-.23c.028-.024.052-.048.075-.067l.027-.027c.133-.125.211-.2.387-.2h.004c.168 0 .227.063.352.192.144.148.343.355.754.355.418 0 .625-.203.773-.355.004 0 .004-.004.008-.004.02-.016.035-.031.05-.047.024-.024.047-.047.07-.066a.345.345 0 01.235-.075h.004c.13 0 .2.059.352.2a.93.93 0 00.226.175.915.915 0 00.5.145.536.536 0 00.184-.008.959.959 0 00.48-.203c.008-.008.016-.016.024-.02l.07-.066c.012-.012.02-.02.031-.027.13-.125.207-.2.383-.2H8c.164 0 .227.063.348.192.144.148.343.355.757.355.415 0 .622-.207.774-.355.125-.125.191-.192.36-.192h.007c.125 0 .2.059.348.2.101.097.226.214.406.285v-.239a1.373 1.373 0 01-.242-.199zm0 0"/><path d="M10.758 9.496c-.145-.133-.278-.262-.512-.262h-.008a.604.604 0 00-.316.079 1.143 1.143 0 00-.211.18c-.07.07-.14.14-.238.198a.74.74 0 01-.368.09.7.7 0 01-.359-.09c-.09-.054-.16-.129-.226-.195v-.004h.003l-.011-.012c-.153-.144-.285-.27-.504-.273H8a.597.597 0 00-.316.082 1.143 1.143 0 00-.211.18l-.055.054c-.02.02-.043.036-.063.055a.883.883 0 01-.12.09.767.767 0 01-.372.09h-.027a1.168 1.168 0 01-.379-.125c-.07-.047-.125-.106-.18-.16-.129-.137-.25-.266-.52-.266H5.75a.583.583 0 00-.395.156c-.05.04-.097.086-.144.133-.07.07-.145.145-.238.2a.726.726 0 01-.371.09.66.66 0 01-.356-.09 1.033 1.033 0 01-.23-.196l.004-.004-.012-.012c-.153-.144-.281-.27-.5-.27h-.012a.604.604 0 00-.316.079c-.078.047-.14.113-.211.18-.016.02-.035.035-.055.054-.02.02-.039.04-.062.055-.036.035-.079.063-.122.09a.74.74 0 01-.367.09.673.673 0 01-.36-.09 1.104 1.104 0 01-.226-.195c-.105-.11-.203-.211-.375-.25a.679.679 0 00-.152-.02h-.008a.567.567 0 00-.308.078c-.047.027-.086.063-.13.098l-.1.094a1.4 1.4 0 01-.114.101l.004.004a.561.561 0 01-.098.07.721.721 0 01-.36.09A.808.808 0 010 9.73v.211c.047.004.09.008.137.008a.897.897 0 00.605-.21c.012-.009.024-.02.035-.032.012-.004.02-.012.028-.02l.062-.058v-.004c.13-.121.207-.195.383-.195h.008c.047 0 .086.004.12.011.06.032.122.086.212.168.031.032.066.063.101.094.141.133.332.274.672.274a.923.923 0 00.64-.235c.028-.02.052-.043.075-.062.008-.012.02-.02.027-.028v-.004c.133-.12.211-.195.387-.195h.004c.168 0 .227.063.352.188.144.152.343.359.754.359.418 0 .625-.207.773-.355l.008-.008v.004c.02-.016.035-.032.05-.047.024-.028.047-.047.07-.07a.364.364 0 01.235-.07h.004c.13 0 .2.058.352.198a.93.93 0 00.226.176c.117.082.282.133.5.145.078.004.137 0 .184-.008a.927.927 0 00.504-.227.566.566 0 00.07-.066c.012-.008.02-.016.031-.027.13-.122.207-.196.383-.2H8c.164 0 .227.067.348.192.144.152.343.36.757.36.415 0 .622-.208.774-.356.125-.125.191-.196.36-.196h.007c.125.004.2.059.348.203.101.094.226.215.406.286V9.69c-.094-.054-.172-.129-.242-.195zm0 0M5.309 7.223c0 .43-.305.777-.684.777-.379 0-.684-.348-.684-.777 0-.426.305-.774.684-.774.379 0 .684.348.684.774zm0 0M9.227 4.5c.46.418-.336.688-.336.688s1.25-.133 1.21-.887c-.03-.582-.39-1.137-2.16-1.637l-.023 1.27c.41.058.988.277 1.309.566zm0 0M10.898 1.293L10.878 0S8.774 0 6.638.05c-.203.012-.403.024-.602.04a23.79 23.79 0 00-1.05.113c-1.176.16-2.157.438-2.47.906-.453.688.301 1.489.301 1.489.055-.934 1.551-1.035 3.164-1.215 1.25-.106 4.918-.09 4.918-.09zm0 0"/><path d="M6.898 1.59l-.023.824c-1.719-.305-1.938-.582-1.957-.582-1.57.098-1.836.973-1.836.973.828.39 2.695.78 3.816.996v1.992l-2.171.457s.003 0 .007.004c.036-.004.07-.004.106-.004.363.02.851.45.746 1.055-.035.18-.14.5-.29.597.317-.062.84-.175 1.673-.324.261-.05.543-.105.777-.152.387-.074.727-.14.969-.2 1.246-.288 2.125-.921 2.226-1.964.18-.875-1.082-1.707-1.082-1.707.211.183 1.012 1.12-.316 1.632-.363.141-.89.36-1.543.47l-.031-4.044c-.508-.093-.957-.031-1.07-.023zm0 0"/></g></svg>