<svg xmlns="http://www.w3.org/2000/svg" width="11" height="11" viewBox="0 0 11 11"><path d="M6.742 1.723L11 .637v1.367zM0 .613v1.371l4.258-.28zm10.809 8.848c-.004.016-.145.371-.625.383-.25.008-.383-.133-.555-.309-.184-.191-.395-.41-.766-.414-.425-.008-.636.227-.808.414-.16.172-.285.309-.575.309-.14 0-.132.008-.214-.047l-.153-1.168H3.855l-.12.601c-.106-.05-.16-.105-.305-.109-.426-.008-.637.227-.809.414-.16.172-.285.309-.574.309-.274 0-.39-.133-.543-.305-.164-.187-.371-.422-.8-.418a.917.917 0 00-.493.14l.004.442c.137-.133.262-.23.492-.234h.008c.262 0 .375.125.527.3.164.188.371.422.805.422.445 0 .66-.234.836-.421.16-.176.273-.305.543-.301.215.004.336.117.515.304.18.188.407.418.793.418h.024c.508-.011.765-.293.875-.472.14-.14.27-.246.508-.25h.007c.262 0 .375.125.528.3.164.188.37.422.804.422.446 0 .66-.234.836-.421.16-.176.274-.305.543-.301.215.004.336.117.516.304.184.188.406.418.793.418h.023c.29-.004.496-.097.641-.21v-.512zm0 .809c-.004.011-.145.367-.625.378-.25.008-.383-.132-.555-.308-.184-.192-.395-.41-.766-.414-.425-.008-.636.226-.808.414-.16.172-.285.308-.575.308-.273 0-.39-.132-.543-.304-.164-.188-.37-.422-.8-.418-.367.004-.547.187-.711.355l-.211.2a.695.695 0 01-.469.167c-.246.008-.379-.132-.55-.308-.184-.192-.395-.41-.766-.414-.426-.008-.637.226-.809.414-.16.172-.285.308-.574.308-.274 0-.39-.132-.543-.304-.164-.188-.371-.422-.8-.418a.945.945 0 00-.481.133l.004.441c.128-.129.257-.223.48-.227h.008c.262 0 .375.125.527.301.164.188.371.426.805.426.445 0 .66-.238.836-.426.16-.176.273-.304.543-.3.215.003.336.117.515.308.18.184.407.418.793.418h.024c.508-.016.765-.297.875-.477.14-.14.27-.246.508-.25h.007c.262 0 .375.125.528.301.164.188.37.426.804.426.446 0 .66-.238.836-.426.16-.176.274-.304.543-.3.215.003.336.117.516.308.184.184.406.418.793.418h.023c.29-.008.496-.102.641-.215v-.508zM6.625 4H4.348l-.078.832 2.437.035zm.164 1.543H4.184l-.082.867h2.77zm.164 1.543H4.02l-.082.867h3.097zm-.402-4.809h.242v.578h-.328l.047.418.031.356H4.426l.074-.774h-.336v-.578h.246V1.07h-.246V.633L5.45 0l1.297.633v.437h-.195zM6.176 1.07H4.777v1.207h1.399zm0 0" fill="#4d4d4d"/></svg>