<svg xmlns="http://www.w3.org/2000/svg" width="30" height="30"><circle style="isolation:auto;mix-blend-mode:normal;solid-color:#000;solid-opacity:1;marker:none" cx="15" cy="15" r="14.5" color="#000" overflow="visible" fill="#e50980" fill-rule="evenodd" stroke="#fff"/><g fill="#fff"><path d="M18.52 7.242l.226.125c.953.535 1.133 1.863.36 2.645l-3.836 3.87a.178.178 0 01-.207.032.187.187 0 01-.086-.195l1.18-5.383c.234-1.078 1.413-1.625 2.363-1.094zm0 0M22.996 14.73l.004.266c.016 1.113-1.02 1.93-2.066 1.629l-5.18-1.504a.172.172 0 01-.125-.168c0-.082.05-.152.121-.176l5.148-1.609c1.032-.324 2.079.457 2.098 1.562zm0 0M19.254 22.164l-.215.149c-.902.625-2.137.183-2.46-.88l-1.61-5.265a.182.182 0 01.07-.203.17.17 0 01.207.012l4.133 3.53c.832.708.766 2.036-.125 2.657zm0 0M10.707 22.828l-.234-.117c-.977-.496-1.211-1.813-.47-2.629l3.669-4.035a.168.168 0 01.203-.04c.07.036.11.114.094.192l-.95 5.43c-.187 1.09-1.343 1.687-2.312 1.2zm0 0M6 14.957v-.266c.004-1.113 1.055-1.91 2.098-1.586l5.148 1.602a.182.182 0 01.125.176.176.176 0 01-.129.168l-5.176 1.511c-1.039.301-2.07-.5-2.066-1.605zm0 0M10.281 7.348l.227-.13c.945-.55 2.14-.007 2.383 1.083l1.183 5.379a.176.176 0 01-.082.195.17.17 0 01-.207-.027l-3.84-3.864c-.773-.777-.605-2.093.336-2.636zm0 0"/></g></svg>