<svg xmlns="http://www.w3.org/2000/svg" width="30" height="30"><circle style="isolation:auto;mix-blend-mode:normal;solid-color:#000;solid-opacity:1;marker:none" cx="15" cy="15" r="14.5" color="#000" overflow="visible" fill="#fff" fill-rule="evenodd" stroke="#e50980"/><path d="M22.914 9.898C21.09 8.058 18.437 7 15.641 7h-.125c-.934.012-1.86.14-2.754.383a.527.527 0 00-.766.242c-.855.305-1.668.723-2.406 1.238a9.193 9.193 0 00-1.922 1.809C6.558 12.09 5.98 13.746 6 15.465c.004.05.004.101.008.152l.004.063a.289.289 0 00.199.265c.117.043.25.016.336-.074.805-.82 2.008-1.293 3.3-1.293a5.05 5.05 0 011.704.29c.008.003.015.007.027.01l.004.02.012-.015a.315.315 0 00.347-.172c.356-.762 1.036-1.395 1.93-1.793l3.684 9.758c.097.254.39.387.66.293a.488.488 0 00.308-.63l-3.68-9.734a5.085 5.085 0 012.786.196.316.316 0 00.332-.07l.02.007-.012-.015a.248.248 0 00.054-.086c.594-1.364 2.192-2.278 3.977-2.278.215 0 .434.012.648.04a.313.313 0 00.317-.16.292.292 0 00-.05-.34zm-11.168 4.73a.06.06 0 01-.023.032c.015-.027.03-.05.047-.078l-.024.047zm2.86-2.382c-.141.035-.27.078-.391.117-.145.055-.274.102-.39.149-.821.324-1.477.758-2.16 1.843-.337-1.37-.474-2.773-.388-3.972.09-1.211.407-2.125.868-2.512a.923.923 0 01.289-.164c.117-.039.238-.059.359-.059h.031c.356 0 .754.149 1.18.446.39.27.816.668 1.266 1.187.816.942 1.582 2.11 2.203 3.063a5.3 5.3 0 00-2.868-.098zm0 0" fill="#4d4d4d"/></svg>