<svg xmlns="http://www.w3.org/2000/svg" width="30" height="30"><circle style="isolation:auto;mix-blend-mode:normal;solid-color:#000;solid-opacity:1;marker:none" cx="15" cy="15" r="14.5" color="#000" overflow="visible" fill="#e50980" fill-rule="evenodd" stroke="#fff"/><g fill="#fff"><path d="M6.012 19s0-2.941 2.781-5.844C11.961 9.852 14.496 10 14.496 10s1.7 0 4.215 1.793c1.95 1.39 3.34 3.84 3.512 4.297.172.453.855 1.922.757 2.91h-1.062s-.379-2.852-2.523-4.906c-2.22-2.13-3.575-2.801-4.946-2.801-1.23 0-3.226 1.285-4.683 2.586-2.086 1.863-2.57 4.828-2.57 5.121zm0 0"/><path d="M9.68 19h9.758s-.614-2.094-1.872-3.367c-1.257-1.27-2.199-1.781-3.152-1.754-.582.02-1.988.258-3.523 2.375C9.543 18.114 9.68 19 9.68 19zm0 0"/></g></svg>