<svg xmlns="http://www.w3.org/2000/svg" width="30" height="30"><circle style="isolation:auto;mix-blend-mode:normal;solid-color:#000;solid-opacity:1;marker:none" cx="15" cy="15" r="14.5" color="#000" overflow="visible" fill="#e50980" fill-rule="evenodd" stroke="#fff"/><path d="M19.117 14.89c-.074-.128-.191-.34-.262-.468 0 0-1.835-3.414-2.332-3.64-.128-.063.82-.4 1.13-1.493.222-.793.136-.75 0-.797-.31-.097-.833.41-.833.41a1.122 1.122 0 01-.46.246s-.829.086-.91.141c-.087.055-.262.04-.391-.031l-.016-.008c-.129-.074-.273-.184-.316-.246-.047-.063.054-.313.128-.418.07-.106.168-.238.211-.297.043-.059.188-.16.32-.23 0 0 .317-.164.317-.461 0-.328-.297-.598-.664-.598-.367 0-.668.27-.668.598v.054c.016.059-.066.184-.176.282l-.543.48a.244.244 0 01-.191.063.232.232 0 01-.176-.098s-.254-.332-.86-.184c-.82.2-1.331 1.39-1.948 1.692-.457.218-3.075.894-3.38 1.59-.308.695.204.793.407.793.207 0 .52.44.82.5.516.097.922-.102 1.332-.102.41 0 1.54.3 2.461.3 1.031 0 1.606-.05 2.051.2.715.394 3.203 8.992 3.203 8.992.055.168.117.332.195.488 0 0 .29.563 3.875.262 1.067-.086 1.508-.863 1.508-.863a.46.46 0 00-.015-.45zm-6.387-4.109c-.355-.082-.68-.332-.613-.597.067-.27.258-.383.613-.297.36.082.82.297.82.496 0 .273-.46.48-.82.398zm8.036 8.242a.218.218 0 01-.118.325l-.312.113a.584.584 0 01-.477-.063l-1.402-.984a.273.273 0 01-.07-.375l.11-.156a.483.483 0 01.421-.184l.895.125c.148.02.328.14.402.266zm-1.317-2.503c.059.168.106.335.133.511l.027.172c.02.145-.082.235-.23.207l-.902-.187a.83.83 0 01-.422-.274l-.61-.86a.346.346 0 01.024-.413l.36-.399c.097-.109.3-.187.448-.172l.383.043c.149.016.313.141.363.278zm-1.008-2.145c.079.125.02.219-.128.21l-.29-.015a.605.605 0 01-.421-.23l-.516-.754a.258.258 0 01.074-.367l.16-.106a.267.267 0 01.203-.035c.07.012.13.055.168.113zm-1.988-2.695c.094-.114.25-.11.344.004l.48.582a.267.267 0 01-.039.375l-.304.254c-.114.093-.27.07-.344-.055l-.336-.54a.384.384 0 01.035-.429zm.27 2.082c.129-.008.703.875.722 1.195.008.09-.73.809-.73.809a.226.226 0 01-.348-.032l-.508-.718a.352.352 0 01.024-.418s.73-.825.84-.836zm-.785 3.117c-.07-.129-.012-.25.136-.274l.653-.101a.53.53 0 01.441.164l.57.691a.318.318 0 01-.008.403l-.617.675c-.097.11-.238.094-.312-.035zm1.417 2.582a.276.276 0 01-.062-.191.276.276 0 01.098-.18l.195-.156a.352.352 0 01.422-.004l1.691 1.304c.117.09.11.23-.015.309l-.668.41a.326.326 0 01-.407-.058zm3.86 2.027a.565.565 0 01-.344-.324l-.297-1.098a.274.274 0 01.117-.363l.297-.164a.244.244 0 01.196-.023c.066.023.12.07.144.136l.828 1.875c.051.137-.027.22-.172.176zm0 0" fill="#fff"/></svg>