<svg xmlns="http://www.w3.org/2000/svg" width="11" height="11" viewBox="0 0 11 11"><path d="M8.328 5.422c-.047-.086-.129-.23-.176-.317 0 0-1.261-2.347-1.605-2.507-.09-.04.562-.274.777-1.024.153-.547.094-.515 0-.547-.215-.07-.574.282-.574.282a.81.81 0 01-.313.168s-.57.058-.628.097c-.059.035-.18.028-.27-.023l-.012-.004a.818.818 0 01-.215-.168c-.03-.043.04-.219.086-.29.051-.073.118-.163.149-.202A.857.857 0 015.766.73s.218-.117.218-.32c0-.226-.207-.41-.457-.41-.254 0-.46.184-.46.41v.04c.011.038-.044.124-.122.19l-.37.333a.182.182 0 01-.134.043.173.173 0 01-.12-.067S4.144.72 3.73.82c-.567.137-.918.957-1.34 1.164-.317.153-2.114.614-2.325 1.094-.21.477.141.547.282.547.14 0 .355.3.562.34.352.07.637-.067.918-.067s1.055.204 1.692.204c.707 0 1.101-.032 1.406.136.496.274 2.207 6.184 2.207 6.184.035.117.078.23.133.336 0 0 .199.387 2.664.18.734-.06 1.035-.59 1.035-.59a.318.318 0 00-.012-.313zM3.941 2.598c-.246-.055-.468-.227-.421-.41.042-.184.175-.262.421-.204.247.055.563.204.563.34 0 .192-.316.332-.563.274zm5.524 5.668c.05.09.012.187-.082.222l-.215.078a.395.395 0 01-.324-.043l-.965-.675a.188.188 0 01-.05-.258l.073-.11a.34.34 0 01.29-.125l.617.086a.442.442 0 01.277.184zm-.906-1.72c.039.114.07.231.09.349l.019.12c.016.098-.055.16-.156.141l-.621-.129a.536.536 0 01-.29-.187l-.421-.59a.24.24 0 01.015-.285l.25-.274a.395.395 0 01.309-.117l.262.028a.333.333 0 01.25.191zM7.867 5.07c.051.086.012.153-.09.145l-.199-.008a.44.44 0 01-.289-.16l-.355-.52a.18.18 0 01.05-.254l.114-.07c.039-.027.09-.035.136-.027.047.011.09.039.118.082zM6.5 3.215a.149.149 0 01.234.004l.332.398a.19.19 0 01-.027.262l-.207.176c-.078.062-.187.047-.238-.04l-.23-.37a.266.266 0 01.023-.297zm.184 1.433c.09-.007.484.602.5.82.003.067-.504.555-.504.555-.075.075-.184.063-.239-.02l-.351-.491a.247.247 0 01.015-.29s.504-.566.579-.574zm-.54 2.145c-.05-.09-.007-.176.094-.191l.45-.07a.358.358 0 01.3.113l.395.476a.213.213 0 01-.008.277l-.422.465c-.066.074-.164.067-.215-.023zm.977 1.773a.173.173 0 01-.043-.129.174.174 0 01.067-.124l.132-.11A.252.252 0 017.57 8.2l1.16.899c.082.062.075.16-.011.21l-.457.286a.23.23 0 01-.282-.043zm2.652 1.395a.37.37 0 01-.234-.223l-.207-.754a.193.193 0 01.078-.254l.207-.109a.146.146 0 01.133-.016.161.161 0 01.102.094l.57 1.29c.031.093-.02.148-.121.12zm0 0" fill="#4d4d4d"/></svg>