<svg xmlns="http://www.w3.org/2000/svg" width="8" height="10" viewBox="0 0 8 10"><g fill="#4d4d4d"><path d="M2.805 7.227c-.223 0-.407-.168-.41-.38-.004-.21.19-.386.421-.386h.926v-.668h-.926c-.23 0-.425-.176-.421-.39.003-.208.187-.376.41-.38h.937V2.895c-.719-.133-1.262-.723-1.262-1.426V.004H1.371v3.242c0 .602-.531 1.09-1.176 1.09-.066 0-.129-.004-.195-.016v4.965c0 .395.344.711.766.711h2.976v-2.77zm0 0M5.195 7.227c.223 0 .407-.168.41-.38.004-.21-.19-.386-.421-.386h-.926v-.668h.926c.23 0 .425-.176.421-.39-.003-.208-.187-.376-.41-.38h-.937V2.895c.719-.133 1.262-.723 1.262-1.426V.004h1.109v3.242c0 .602.531 1.09 1.176 1.09.066 0 .129-.004.195-.016v4.965c0 .395-.344.711-.766.711H4.258v-2.77zm0 0"/></g></svg>