<svg xmlns="http://www.w3.org/2000/svg" width="8" height="10" viewBox="0 0 8 10"><path d="M6.375.004C5-.043 5.121.535 4 .55 2.879.535 2.996-.043 1.625.004-.82.094.141 2.902.43 3.629c.847 2.098.851 2.621.82 3.594C1.156 10 1.602 10 2.309 10c.496 0 .578-2.36.62-3.215.075-1.387 2.176-1.215 2.141 0-.027.856.125 3.215.621 3.215.707 0 1.153 0 1.059-2.777-.031-.973-.027-1.496.82-3.594C7.86 2.902 8.82.094 6.375.004zm-.781 1.113a1.891 1.891 0 00-.88.39 2.258 2.258 0 00-.226.208c.336.176.649.375.914.613.2.176-.101.457-.297.281-.757-.68-1.91-1.03-2.89-1.296-.258-.07-.149-.45.113-.38.574.157 1.195.344 1.774.598.34-.398.84-.703 1.375-.797.27-.043.382.336.117.383zm0 0" fill="#4d4d4d"/></svg>