<svg xmlns="http://www.w3.org/2000/svg" width="30" height="30"><circle style="isolation:auto;mix-blend-mode:normal;solid-color:#000;solid-opacity:1;marker:none" cx="15" cy="15" r="14.5" color="#000" overflow="visible" fill="#fff" fill-rule="evenodd" stroke="#e42224"/><g fill="#4d4d4d"><path d="M9.406 10.824c.594 1.203.387 2.516-.457 2.934-.847.414-2.012-.227-2.605-1.434-.594-1.203-.387-2.52.457-2.933.847-.414 2.011.226 2.605 1.433zm0 0M22.043 9.313c.883.332 1.21 1.62.734 2.878-.472 1.254-1.574 2.004-2.453 1.672-.879-.332-1.207-1.62-.734-2.875.476-1.258 1.574-2.008 2.453-1.675zm0 0M17.863 6.027c1.02.207 1.61 1.528 1.32 2.95-.288 1.421-1.347 2.41-2.367 2.203-1.015-.207-1.605-1.528-1.316-2.95.29-1.421 1.348-2.41 2.363-2.203zm0 0M13.594 8.32c.273 1.442-.32 2.762-1.324 2.953-1.004.188-2.04-.828-2.313-2.27-.273-1.44.32-2.76 1.328-2.952 1.004-.188 2.04.828 2.309 2.27zm0 0M14.465 23a5.593 5.593 0 01-5.598-5.59 5.594 5.594 0 015.598-5.594 5.596 5.596 0 015.598 5.594A5.596 5.596 0 0114.465 23zm3.226-6.5h-2.324v-2.32a.122.122 0 00-.12-.121h-1.552a.122.122 0 00-.12.12V16.5H11.25a.122.122 0 00-.121.121v1.55c0 .067.055.122.121.122h2.324v2.32c0 .067.055.121.121.121h1.551a.122.122 0 00.121-.12v-2.321h2.324a.122.122 0 00.122-.121v-1.55a.122.122 0 00-.122-.122zm0 0"/></g></svg>