<svg xmlns="http://www.w3.org/2000/svg" width="30" height="30"><circle style="isolation:auto;mix-blend-mode:normal;solid-color:#000;solid-opacity:1;marker:none" cx="15" cy="15" r="14.5" color="#000" overflow="visible" fill="#e42224" fill-rule="evenodd" stroke="#fff"/><path d="M19.559 12.465c-.707-1.227-.848-3.543-.848-3.543-2.828 1.09-1.98 3.816-2.543 3.406-.566-.41-2.262-2.726-1.129-5.316-3.531-.274-7.488 7.906-5.512 11.586 1.63 3.03 3.25 3.816 4.239 4.222.195.078.398.137.605.176-.535-.496-1.203-1.418-1.734-2.766-1.13-2.859.718-6.699 2.683-6.539-.629 1.512-.437 4.993.989 5.45.421.136 1.414-2.18 1.414-2.18 2.152 2.445.203 5.117-.618 5.93.286-.086.547-.2.758-.344.989-.68 5.367-3.707 1.696-10.082zm0 0" fill="#fff"/></svg>