<svg xmlns="http://www.w3.org/2000/svg" width="30" height="30"><circle style="isolation:auto;mix-blend-mode:normal;solid-color:#000;solid-opacity:1;marker:none" cx="15" cy="15" r="14.5" color="#000" overflow="visible" fill="#fff" fill-rule="evenodd" stroke="#e42224"/><path d="M17.426 11.977h-5.531c.144-1.434 1.34-2.528 2.765-2.528 1.426 0 2.621 1.094 2.766 2.528zm-4.137 8.632v-2.476h-2.45V15.66h2.45v-2.476h2.445v2.476h2.45v2.473h-2.45v2.476zm6.883-8.554h-.719v-.04c0-2.765-2.215-5.007-4.953-5.007-2.738 0-4.953 2.242-4.953 5.008v.039h-.719C7.273 12.055 6 13.344 6 14.918v7.074h17v-7.074c0-1.574-1.273-2.863-2.828-2.863zm0 0" fill="#4d4d4d"/></svg>