<svg xmlns="http://www.w3.org/2000/svg" width="11" height="11" viewBox="0 0 11 11"><path d="M10.406 3.508a3.616 3.616 0 00-1.37-1.242l.097-.098a.127.127 0 000-.176.127.127 0 00-.176 0l-.09.09A3.648 3.648 0 005.555 0a3.643 3.643 0 00-3.293 2.11l-.11-.114a.127.127 0 00-.175 0 .12.12 0 000 .176l.101.101a3.618 3.618 0 00-2.074 3.25 3.625 3.625 0 002.023 3.282l-.109.11a.123.123 0 000 .17c.047.052.129.052.176.005l.11-.11a3.651 3.651 0 006.554-.043c.004-.007.012-.011.02-.019l.183.184a.12.12 0 00.176 0 .123.123 0 000-.172l-.18-.18a3.63 3.63 0 001.91-2.297c.278-1 .11-2.074-.46-2.945zM7.95 6.754a2.648 2.648 0 00-.063-2.543l1.606-.703a4.376 4.376 0 01-.063 4.176zm-2.375 1.2a2.415 2.415 0 110-4.829 2.42 2.42 0 012.422 2.414 2.417 2.417 0 01-2.422 2.414zm2.012 1.503c-.094.05-.195.098-.293.14a4.432 4.432 0 01-3.875-.214l.816-1.54a2.686 2.686 0 002.586.052zM1.648 7.559a4.416 4.416 0 01.047-4.125l1.559.785a2.67 2.67 0 00-.14 2.36c.027.066.062.132.093.198zM3.5 1.652c.117-.058.234-.117.355-.168a4.415 4.415 0 013.844.2l-.898 1.492a2.678 2.678 0 00-2.54.047zm.156-.816A3.404 3.404 0 018.508 1.93a4.673 4.673 0 00-5.875.004A3.395 3.395 0 013.656.836zM.25 5.55c0-1.207.648-2.328 1.695-2.934A4.634 4.634 0 001.98 8.5 3.377 3.377 0 01.25 5.55zm7.121 4.62a3.407 3.407 0 01-2.668.497 3.423 3.423 0 01-2.18-1.61 4.673 4.673 0 005.676.325c-.23.308-.508.574-.828.789zm2.797-2.784a3.445 3.445 0 01-.762.8 4.637 4.637 0 00-.16-5.511 3.39 3.39 0 011.441 2.164c.172.883-.015 1.8-.519 2.547zm0 0" fill="#4d4d4d"/></svg>