<svg xmlns="http://www.w3.org/2000/svg" width="30" height="30"><circle style="isolation:auto;mix-blend-mode:normal;solid-color:#000;solid-opacity:1;marker:none" cx="15" cy="15" r="14.5" color="#000" overflow="visible" fill="#fff" fill-rule="evenodd" stroke="#e42224"/><path d="M22.352 11.254a8.499 8.499 0 00-15.704 0 8.488 8.488 0 00.774 7.937 8.502 8.502 0 007.02 3.801h.058a8.504 8.504 0 007.07-3.773 8.49 8.49 0 00.782-7.965zm-2.004-2.676a8.26 8.26 0 011.843 2.738l-2.757 1.141a5.284 5.284 0 00-2.887-2.887l1.14-2.754a8.32 8.32 0 012.66 1.762zM16.48 19.273a5.174 5.174 0 01-6.757-2.793 5.102 5.102 0 010-3.953A5.16 5.16 0 0116.48 9.73a5.097 5.097 0 012.793 2.797 5.102 5.102 0 01.004 3.953 5.146 5.146 0 01-2.797 2.793zM8.566 8.66a8.374 8.374 0 012.746-1.844l1.145 2.754a5.317 5.317 0 00-2.894 2.89l-2.754-1.14a8.244 8.244 0 011.757-2.66zm.09 11.766a8.328 8.328 0 01-1.847-2.742v-.004l2.753-1.137a5.298 5.298 0 002.891 2.89l-1.14 2.75a8.228 8.228 0 01-2.657-1.757zm11.778-.086a8.293 8.293 0 01-2.747 1.844h-.003l-1.141-2.75h.004a5.316 5.316 0 002.89-2.887l2.754 1.137a8.228 8.228 0 01-1.757 2.656zm0 0" fill="#4d4d4d"/></svg>