<svg xmlns="http://www.w3.org/2000/svg" width="30" height="30"><circle style="isolation:auto;mix-blend-mode:normal;solid-color:#000;solid-opacity:1;marker:none" cx="15" cy="15" r="14.5" color="#000" overflow="visible" fill="#e42224" fill-rule="evenodd" stroke="#fff"/><path d="M22.086 11.422A5.62 5.62 0 0019.96 9.5l.152-.148a.191.191 0 000-.27.188.188 0 00-.27-.004l-.14.137A5.64 5.64 0 0014.586 6a5.63 5.63 0 00-5.09 3.258l-.172-.172a.191.191 0 00-.27.27l.157.156a5.611 5.611 0 00-3.207 5.023 5.616 5.616 0 003.129 5.074l-.164.164a.191.191 0 00.266.273l.171-.167A5.63 5.63 0 0014.492 23a5.637 5.637 0 005.04-3.188.196.196 0 01.03-.027l.286.285a.192.192 0 00.273-.004.188.188 0 00-.004-.27l-.273-.269a5.634 5.634 0 002.949-3.55c.43-1.551.172-3.211-.707-4.555zm-3.797 5.012a4.103 4.103 0 00-.102-3.926l2.481-1.086a6.78 6.78 0 01-.094 6.453zm-3.676 1.859a3.735 3.735 0 01-3.742-3.73 3.738 3.738 0 013.742-3.731 3.738 3.738 0 013.742 3.73 3.735 3.735 0 01-3.742 3.731zm3.114 2.324a6.843 6.843 0 01-6.441-.113l1.26-2.379a4.15 4.15 0 003.997.074zm-9.18-2.937a8.626 8.626 0 01-.223-.47 6.81 6.81 0 010-5.296c.09-.207.188-.41.297-.61l2.41 1.22a4.107 4.107 0 00-.074 3.949zm2.863-9.125a6.837 6.837 0 016.492.047l-1.394 2.308a4.132 4.132 0 00-3.918.066zm.242-1.262a5.258 5.258 0 017.496 1.687 7.23 7.23 0 00-9.082.008 5.224 5.224 0 011.586-1.695zm-5.265 7.285c0-1.867 1-3.594 2.62-4.531a7.165 7.165 0 00.052 9.09 5.223 5.223 0 01-2.672-4.559zm11.004 7.145A5.262 5.262 0 019.902 20a7.226 7.226 0 008.77.5c-.356.477-.79.89-1.281 1.223zm4.324-4.309c-.324.473-.719.89-1.176 1.238a7.164 7.164 0 00-.25-8.515 5.212 5.212 0 012.227 3.343 5.213 5.213 0 01-.801 3.934zm0 0" fill="#fff"/></svg>