<svg xmlns="http://www.w3.org/2000/svg" width="30" height="30"><circle style="isolation:auto;mix-blend-mode:normal;solid-color:#000;solid-opacity:1;marker:none" cx="15" cy="15" r="14.5" color="#000" overflow="visible" fill="#fff" fill-rule="evenodd" stroke="#e42224"/><g fill="#4d4d4d"><path d="M10.918 14.95c-1.05 0-1.914.823-1.914 1.831V23h1.914l6.578-8.05zm0 0M20.996 16.781c0-.953-.77-1.738-1.746-1.824L12.664 23h8.332zm0 0M18.727 8.121L17.629 7h-5.063l-1.25 1.16.024 1.133h7.433zm0 0M11.36 10.46h-.005c0 1.876 1.668 3.395 3.723 3.395 2.031 0 3.684-1.488 3.719-3.34v-.027-.027l-.004-.008h-7.434zm0 0"/></g></svg>