<svg xmlns="http://www.w3.org/2000/svg" width="11" height="10" viewBox="0 0 11 10"><g fill="#4d4d4d"><path d="M5.598 1.453c0 .8-.621 1.453-1.387 1.453s-1.387-.652-1.387-1.453C2.824.653 3.445 0 4.211 0s1.387.652 1.387 1.453zm0 0M10.098 6.832c0 .8-.621 1.453-1.387 1.453s-1.387-.652-1.387-1.453c0-.8.621-1.453 1.387-1.453s1.387.652 1.387 1.453zm0 0"/><path d="M10.363 8.715h-2.34s.653.27 0 0c-.652-.27-1.101-1.992-2.152-1.883H.508A.52.52 0 000 7.363v1.34a.52.52 0 00.508.531h6.148c.028 0 .055.012.074.032l.461.449c.008.004.012.008.016.012a.613.613 0 00.508.273h2.672a.597.597 0 00.445-.203.666.666 0 00.168-.48.643.643 0 00-.637-.602zm0 0M7.004 5.258l-1.07-.453c-.122-.059-.438-.22-.438-.22S3.941 3.028 3.625 2.993l-.426-.047c-.172-.023-.527-.054-.625-.03a.49.49 0 00-.394.32l-.758 2.007-.063.156h.004L.977 6.465h2.277L4.32 5.12a.116.116 0 01.16-.016l.586.493c.024.02.051.039.082.05l1.247.497-.012-.02.144.055c.262.12.625.07.743-.203a.562.562 0 00-.266-.72zm0 0"/><path d="M.195 9.625h6.489a.18.18 0 01.175.184.18.18 0 01-.175.183H.195A.18.18 0 01.02 9.81a.18.18 0 01.175-.184zm0 0"/></g></svg>