<svg xmlns="http://www.w3.org/2000/svg" width="30" height="30"><circle style="isolation:auto;mix-blend-mode:normal;solid-color:#000;solid-opacity:1;marker:none" cx="15" cy="15" r="14.5" color="#000" overflow="visible" fill="#fff" fill-rule="evenodd" stroke="#e42224"/><g fill="#4d4d4d"><path d="M14.648 9.18c0 1.203-.957 2.18-2.14 2.18-1.184 0-2.145-.977-2.145-2.18 0-1.203.961-2.18 2.145-2.18 1.183 0 2.14.977 2.14 2.18zm0 0M21.605 17.25c0 1.203-.96 2.176-2.144 2.176-1.184 0-2.14-.973-2.14-2.176 0-1.203.956-2.18 2.14-2.18 1.184 0 2.144.977 2.144 2.18zm0 0"/><path d="M22.016 20.074h-3.614c-.004 0 1.004.403-.004-.004-1.007-.402-1.703-2.984-3.328-2.824H6.785a.794.794 0 00-.785.8v2.009a.79.79 0 00.785.797h9.504c.04 0 .082.015.11.046l.718.672c.008.008.016.012.02.02.183.258.476.41.785.41h4.129c.262 0 .512-.11.691-.305a.97.97 0 00.258-.718c-.031-.516-.477-.903-.984-.903zm0 0M16.82 14.89l-1.648-.687c-.192-.082-.676-.324-.676-.324s-2.402-2.34-2.894-2.39l-.66-.071c-.266-.031-.813-.082-.962-.047a.76.76 0 00-.613.48L8.2 14.864l-.097.235h.007l-.601 1.601h3.52l1.648-2.015a.174.174 0 01.246-.024l.906.735c.04.03.082.058.129.074l1.926.75-.02-.035.223.086c.402.18.969.101 1.148-.31a.819.819 0 00-.414-1.07zm0 0"/><path d="M6.3 21.438h10.032c.148 0 .27.125.27.277a.273.273 0 01-.27.273H6.301a.275.275 0 010-.55zm0 0"/></g></svg>