<svg xmlns="http://www.w3.org/2000/svg" width="11" height="11" viewBox="0 0 11 11"><path d="M10.578 3.398a5.5 5.5 0 00-10.16 0 5.499 5.499 0 005.043 7.598H5.5c1.84 0 3.555-.918 4.574-2.441a5.483 5.483 0 00.504-5.157zm-1.293-1.73c.512.504.918 1.11 1.192 1.773L8.69 4.18a3.414 3.414 0 00-1.867-1.871L7.563.527a5.41 5.41 0 011.722 1.141zM6.781 8.59a3.348 3.348 0 01-4.37-1.809 3.303 3.303 0 010-2.558A3.331 3.331 0 014.218 2.41a3.366 3.366 0 012.562.004c.824.34 1.465.98 1.809 1.809a3.303 3.303 0 010 2.558A3.324 3.324 0 016.78 8.59zm-5.12-6.867A5.482 5.482 0 013.436.527l.739 1.782a3.458 3.458 0 00-1.871 1.87L.523 3.442A5.34 5.34 0 011.66 1.723zm.058 7.613A5.38 5.38 0 01.523 7.559l1.782-.735a3.439 3.439 0 001.87 1.867l-.737 1.782a5.404 5.404 0 01-1.72-1.137zm7.62-.059a5.37 5.37 0 01-1.777 1.192l-.003.004L6.82 8.69h.004a3.439 3.439 0 001.871-1.867l1.782.735A5.276 5.276 0 019.34 9.277zm0 0" fill="#4d4d4d"/></svg>