<svg xmlns="http://www.w3.org/2000/svg" width="10" height="10" viewBox="0 0 10 10"><g fill="#4d4d4d"><path d="M5.738 0H4.262c-.79 0-1.426.672-1.426 1.504v.207h.8v-.207c0-.363.278-.66.626-.66h1.476c.348 0 .625.297.625.66v.207h.801v-.207C7.164.672 6.527 0 5.738 0zm0 0M8.625 1.953h-7.25c-.758 0-1.371.649-1.371 1.45V8.55C.004 9.35.617 10 1.375 10h7.25c.758 0 1.371-.648 1.371-1.45V3.403c0-.8-.613-1.449-1.371-1.449zM5 8.406c-1.273 0-2.305-1.09-2.305-2.43S3.727 3.547 5 3.547c1.273 0 2.305 1.09 2.305 2.43 0 1.344-1.032 2.43-2.305 2.43zm0 0"/><path d="M6.324 5.586h-.953V4.582c0-.031-.023-.055-.05-.055H4.68c-.028 0-.051.024-.051.055v1.004h-.953c-.028 0-.051.023-.051.055v.675c0 .028.023.051.05.051h.954v1.008c0 .012.008.027.016.035.007.012.023.016.035.016h.64c.012 0 .028-.004.035-.016a.058.058 0 00.016-.035V6.367h.953c.012 0 .028-.004.035-.015.012-.008.016-.024.016-.036v-.675c0-.032-.023-.055-.05-.055zm0 0"/></g></svg>