<svg xmlns="http://www.w3.org/2000/svg" width="11" height="11" viewBox="0 0 11 11"><g fill="#4d4d4d"><path d="M2.203 3.121c.383.781.25 1.629-.297 1.899-.547.27-1.3-.149-1.683-.926-.383-.782-.25-1.633.297-1.899.546-.27 1.3.145 1.683.926zm0 0M10.383 2.145c.566.214.781 1.046.472 1.859-.304.812-1.015 1.297-1.585 1.082-.57-.215-.782-1.047-.477-1.86.309-.812 1.02-1.296 1.59-1.081zm0 0M7.676.02c.66.132 1.039.984.855 1.906-.187.922-.875 1.558-1.531 1.426-.656-.133-1.04-.989-.852-1.91C6.336.522 7.02-.119 7.676.02zm0 0M4.914 1.5c.176.934-.207 1.79-.86 1.91-.648.125-1.316-.535-1.492-1.465-.18-.933.208-1.789.856-1.91C4.07-.09 4.738.566 4.914 1.5zm0 0M5.477 11a3.62 3.62 0 113.62-3.617A3.62 3.62 0 015.478 11zm2.09-4.207H6.061v-1.5a.078.078 0 00-.078-.078H4.98a.08.08 0 00-.082.078v1.5h-1.5a.083.083 0 00-.082.082v1c0 .047.04.082.082.082h1.5v1.5a.08.08 0 00.082.078h1.004a.078.078 0 00.079-.078v-1.5h1.503a.08.08 0 00.079-.082v-1a.08.08 0 00-.079-.082zm0 0"/></g></svg>