<svg xmlns="http://www.w3.org/2000/svg" width="30" height="30"><circle style="isolation:auto;mix-blend-mode:normal;solid-color:#000;solid-opacity:1;marker:none" cx="15" cy="15" r="14.5" color="#000" overflow="visible" fill="#fff" fill-rule="evenodd" stroke="#e42224"/><path d="M18.355 6.008c-2.226-.082-2.03.898-3.855.926-1.82-.028-1.629-1.008-3.86-.926-3.972.148-2.413 4.926-1.94 6.16 1.374 3.566 1.386 4.457 1.335 6.11-.156 4.718.57 4.718 1.719 4.718.805 0 .937-4.008 1.008-5.46.117-2.36 3.539-2.067 3.476 0-.043 1.452.207 5.46 1.012 5.46 1.148 0 1.871 0 1.719-4.719-.055-1.652-.047-2.543 1.332-6.109.472-1.234 2.031-6.012-1.946-6.16zm-1.27 1.887a3.014 3.014 0 00-1.42.668 3.52 3.52 0 00-.372.351c.543.297 1.05.64 1.488 1.047.32.297-.168.77-.488.473-1.23-1.149-3.102-1.747-4.691-2.2-.426-.12-.247-.765.183-.644.93.265 1.942.582 2.883 1.015.55-.68 1.36-1.195 2.234-1.355.438-.078.621.57.184.645zm0 0" fill="#4d4d4d"/></svg>