<svg xmlns="http://www.w3.org/2000/svg" width="30" height="30"><circle style="isolation:auto;mix-blend-mode:normal;solid-color:#000;solid-opacity:1;marker:none" cx="15" cy="15" r="14.5" color="#000" overflow="visible" fill="#e42224" fill-rule="evenodd" stroke="#fff"/><g fill="#fff"><path d="M16.184 7h-2.368c-1.257 0-2.277 1.078-2.28 2.406v.332h1.28v-.332c.004-.582.45-1.054 1-1.054h2.368c.55 0 .996.472 1 1.054v.332h1.28v-.332C18.462 8.078 17.442 7 16.185 7zm0 0M20.8 10.125H9.2c-1.212 0-2.196 1.04-2.196 2.32v8.239c0 1.277.984 2.316 2.195 2.316h11.602c1.21 0 2.195-1.04 2.195-2.316v-8.239c0-1.28-.984-2.32-2.195-2.32zM15 20.449c-2.035 0-3.684-1.738-3.684-3.887 0-2.144 1.649-3.886 3.684-3.886s3.684 1.742 3.684 3.887c0 2.148-1.649 3.886-3.684 3.886zm0 0"/><path d="M17.117 15.938h-1.523v-1.61c0-.047-.04-.086-.082-.086h-1.024c-.043 0-.082.04-.082.086v1.61H12.88c-.043 0-.078.039-.078.085v1.079c0 .046.035.085.078.085h1.527v1.61c0 .023.008.047.024.062a.08.08 0 00.058.024h1.024a.08.08 0 00.058-.024.089.089 0 00.024-.062v-1.61h1.523a.08.08 0 00.059-.023.089.089 0 00.023-.062v-1.079a.083.083 0 00-.082-.085zm0 0"/></g></svg>