<svg xmlns="http://www.w3.org/2000/svg" width="30" height="30"><circle style="isolation:auto;mix-blend-mode:normal;solid-color:#000;solid-opacity:1;marker:none" cx="15" cy="15" r="14.5" color="#000" overflow="visible" fill="#fff" fill-rule="evenodd" stroke="#e42224"/><g fill="#4d4d4d"><path d="M12.563 18.29a.667.667 0 01-.672-.645c-.008-.364.308-.665.683-.665h1.504v-1.132h-1.504c-.375 0-.691-.297-.683-.66a.661.661 0 01.671-.645h1.516v-3.621c-1.164-.227-2.047-1.23-2.047-2.426V6.004h-1.804v5.516c0 1.02-.86 1.855-1.91 1.855A2.17 2.17 0 018 13.344v8.441c0 .668.555 1.211 1.242 1.211h4.836V18.29zm0 0M16.438 18.29a.667.667 0 00.671-.645c.008-.364-.308-.665-.683-.665h-1.504v-1.132h1.504c.375 0 .691-.297.683-.66a.661.661 0 00-.672-.645h-1.515v-3.621c1.164-.227 2.047-1.23 2.047-2.426V6.004h1.804v5.516c0 1.02.86 1.855 1.91 1.855a2.17 2.17 0 00.317-.031v8.441c0 .668-.555 1.211-1.242 1.211h-4.836V18.29zm0 0"/></g></svg>