<svg xmlns="http://www.w3.org/2000/svg" width="30" height="30"><circle style="isolation:auto;mix-blend-mode:normal;solid-color:#000;solid-opacity:1;marker:none" cx="15" cy="15" r="14.5" color="#000" overflow="visible" fill="#fff" fill-rule="evenodd" stroke="#e42224"/><path d="M15.453 12.285l3.738-3.57c-.02-.125-.02-.25 0-.375 0-.742.63-1.34 1.403-1.34s1.402.602 1.402 1.34c0 .738-.629 1.34-1.402 1.34h-.207l-2.13 2.61h-2.804m6.504 3.265l-1.55 2.98 1.55 2.98V23H7.004v-1.484l1.57-2.98-1.445-2.743a1.109 1.109 0 01-.125-.508V14.07h14.953v1.485m-3.7 2.086h-2.804v-2.68h-1.867v2.68H10.78v1.785h2.805v2.68h1.867v-2.68h2.805V17.64" fill="#4d4d4d"/></svg>