<svg xmlns="http://www.w3.org/2000/svg" width="8" height="11" viewBox="0 0 8 11"><path d="M7.04 3.758c-.474-.844-.567-2.438-.567-2.438-1.883.75-1.317 2.625-1.696 2.344-.375-.281-1.504-1.875-.754-3.656C1.672-.18-.965 5.44.352 7.973c1.086 2.086 2.168 2.625 2.824 2.906.133.05.265.09.402.117-.355-.34-.8-.973-1.152-1.898-.754-1.97.48-4.61 1.789-4.5-.422 1.043-.293 3.433.656 3.75.285.093.941-1.5.941-1.5 1.438 1.683.137 3.52-.41 4.078.192-.059.368-.137.504-.235.66-.468 3.578-2.55 1.133-6.933zm0 0" fill="#4d4d4d"/></svg>