<svg xmlns="http://www.w3.org/2000/svg" width="30" height="30"><circle style="isolation:auto;mix-blend-mode:normal;solid-color:#000;solid-opacity:1;marker:none" cx="15" cy="15" r="14.5" color="#000" overflow="visible" fill="#e42224" fill-rule="evenodd" stroke="#fff"/><g fill="#fff"><path d="M21.57 8.578V7h-1.226v1.578h-1.43v1.356h1.43v1.574h1.226V9.934H23V8.578zm0 0M20.348 14.559h-.004c0 4.101-6.672 8.441-6.672 8.441S7 18.66 7 14.559h.004c0-2.051 1.492-3.715 3.336-3.715 1.84 0 3.332 1.664 3.332 3.715 0-2.051 1.496-3.715 3.336-3.715 1.844 0 3.34 1.664 3.34 3.715zm-6.008 3.57l-1.059 3.387 3.14-4.442-1.69-.039L16 13.652l-3.566 4.442zm0 0"/></g></svg>