<svg xmlns="http://www.w3.org/2000/svg" width="30" height="30"><circle style="isolation:auto;mix-blend-mode:normal;solid-color:#000;solid-opacity:1;marker:none" cx="15" cy="15" r="14.5" color="#000" overflow="visible" fill="#2a62ac" fill-rule="evenodd" stroke="#fff"/><g fill="#fff"><path d="M12.54 19.793c-1.067-3.195-.36-6.754 1.92-9.617-.163 1.746 1.587 3.308 3.048 3.722-1.899 1.704-3.14 5.364-2.727 8.543 0 0 .114.516-.218.559-.586.074-1.72-2.3-2.024-3.207zm0 0"/><path d="M20.559 11.914c-.926.48-3.008.875-4.23-.371-1.317-1.348-.68-3.129.046-3.809l-1.64-1.636a.332.332 0 00-.47 0l-8.167 8.16a.342.342 0 000 .476l5.605 5.602c-2.207-6.258 2.777-10.2 2.777-10.2.868 2.54 3.032 3.305 4.965 2.923-2.375 2.152-4.48 5.336-4.246 9.367l7.703-7.692a.347.347 0 000-.48zm0 0"/><path d="M20.238 9.352a1.958 1.958 0 01-.554 1.699 1.965 1.965 0 01-2.777-2.777 1.97 1.97 0 011.698-.551 1.979 1.979 0 011.633 1.629zm0 0"/></g></svg>