<svg xmlns="http://www.w3.org/2000/svg" width="30" height="30"><circle style="isolation:auto;mix-blend-mode:normal;solid-color:#000;solid-opacity:1;marker:none" cx="15" cy="15" r="14.5" color="#000" overflow="visible" fill="#fff" fill-rule="evenodd" stroke="#2a62ac"/><path d="M19.371 9.625h1.223v9.492c0 .781-.633 1.414-1.418 1.414H9.883a1.415 1.415 0 01-1.418-1.414V9.625h1.191l.063 7.262c1.152-.012 2.336 1.039 2.398 2.383l4.852.011c0-1.453 1.277-2.379 2.402-2.379zM9.883 21.902c-.555 0-1.012-.27-1.238-.738-.012-.027-.04-.039-.067-.035a.062.062 0 00-.047.058v.45c0 .75.57 1.36 1.27 1.36h9.457c.699 0 1.27-.61 1.27-1.36v-.34c0-.027-.02-.05-.044-.059-.027-.004-.054.004-.066.028-.254.418-.727.636-1.242.636zm8.078-8.632c0-1.297-1.535-2.348-3.43-2.348-1.894 0-3.43 1.05-3.43 2.348 0 1.296 1.536 2.347 3.43 2.347 1.895 0 3.43-1.05 3.43-2.347zM7.496 6.004c-.824 0-1.492.668-1.496 1.496v2.035a1.505 1.505 0 001.215 1.469l.015-.137.028-2.453h14.574v2.582A1.508 1.508 0 0023 9.536V7.5a1.499 1.499 0 00-1.496-1.496zm0 0" fill="#4d4d4d"/></svg>