<svg xmlns="http://www.w3.org/2000/svg" width="8" height="11" viewBox="0 0 8 11"><path d="M7.488 4.215c-.222-.809.004-1.445.153-1.863.058-.16.113-.286.113-.395 0-.246-1.066-1.316-1.066-1.316l-.239.214.371.399a1.448 1.448 0 00-.047 1.02c.059.183.149.351.27.5-.102.417-.156.945.012 1.558.37 1.348.773 4.234.23 4.941-.066.09-.14.13-.238.13-.274 0-.48-.087-.625-.266-.32-.387-.297-1.137-.234-1.438.007-.047.05-.164.093-.289.262-.719.86-2.379-.02-3.41 0-.031.005-.059.005-.09V.918A.925.925 0 005.344 0h-3.82a.923.923 0 00-.922.918V3.91c0 .508.414.918.921.922h.047v5.648H.266a.26.26 0 00-.262.258c0 .145.117.262.262.262h6.336a.258.258 0 00.257-.262.258.258 0 00-.257-.258H5.297V4.832h.047a.926.926 0 00.718-.348c.493.852.032 2.13-.199 2.774a2.556 2.556 0 00-.117.355c0 .008-.219 1.14.328 1.805.235.285.563.43.973.43a.726.726 0 00.594-.305c.793-1.035.03-4.656-.153-5.328zm-.5-2.008a1.294 1.294 0 01-.027-.68c.16.157.309.332.344.407-.012.062-.047.16-.086.265-.032.09-.067.188-.098.297a1.293 1.293 0 01-.133-.289zM5.484 3.5a.67.67 0 01-.668.668h-2.77A.675.675 0 011.38 3.5V1.332a.673.673 0 01.668-.668h2.77c.37 0 .667.3.667.668zm0 0" fill="#4d4d4d"/></svg>