<svg xmlns="http://www.w3.org/2000/svg" width="9" height="11" viewBox="0 0 9 11"><g fill="#4d4d4d"><path d="M5.031 6.633c-.816-.446-.808.078-1.277.015-.387-.05-.48-.289-.828-.175-.356.12-.528.23-.535.246-.036.117-.024.218-.024.328 0 1.168.969 2.117 2.16 2.117 1.145 0 2.16-.996 2.16-2.117 0-.117-.015-.344-.027-.348-.273-.14-.469-.234-.64-.242-.336-.02-.68.344-.989.176zm0 0"/><path d="M0 3.066v7.352c0 .32.266.582.594.582h7.812A.589.589 0 009 10.418V3.066zm4.527 6.829c-1.605 0-2.91-1.278-2.91-2.848 0-1.567 1.305-2.844 2.91-2.844 1.606 0 2.91 1.277 2.91 2.844 0 1.57-1.304 2.848-2.91 2.848zm0 0"/><path d="M4.527 9.629c-1.453 0-2.636-1.156-2.636-2.582 0-1.422 1.183-2.578 2.636-2.578s2.637 1.156 2.637 2.578c0 1.426-1.184 2.582-2.637 2.582zm0-4.84c-1.273 0-2.308 1.012-2.308 2.258s1.035 2.262 2.308 2.262c1.274 0 2.309-1.016 2.309-2.262S5.8 4.789 4.527 4.789zm0 0M9 2.766H0V.582C0 .262.266 0 .594 0h7.812C8.734 0 9 .262 9 .582zM.883.926c-.2 0-.36.16-.36.355 0 .196.16.356.36.356.203 0 .363-.16.363-.356A.359.359 0 00.883.926zm1.047 0c-.2 0-.36.16-.36.355 0 .196.16.356.36.356.203 0 .363-.16.363-.356A.359.359 0 001.93.926zm1.05 0c-.199 0-.359.16-.359.355 0 .196.16.356.36.356.203 0 .363-.16.363-.356A.359.359 0 002.98.926zM7.86.734a.554.554 0 00-.56.547c0 .301.25.547.56.547a.554.554 0 00.558-.547c0-.3-.25-.547-.559-.547zm-1.266.653v-.235a.248.248 0 00-.25-.242H4.762c-.137 0-.25.11-.25.242v.235c0 .136.113.242.25.242h1.582c.136 0 .25-.106.25-.242zm0 0"/></g></svg>