<svg xmlns="http://www.w3.org/2000/svg" width="11" height="10" viewBox="0 0 11 10"><path d="M7.645 9.48c.761.692 1.992.692 2.753 0a1.677 1.677 0 000-2.511 2.04 2.04 0 00-1.375-.52c-.222 0-.441.035-.648.098l-1.742-1.59-.7.64.227.204a.6.6 0 01.195.422.507.507 0 01-.171.379l-.067.062 1.07.973c-.25.644-.07 1.363.458 1.843zm.437-1.253c0-.23.102-.446.277-.606a1 1 0 011.32 0c.294.274.352.7.141 1.031-.21.336-.64.496-1.047.399-.406-.102-.687-.438-.691-.824zm-3.238-1.36c-.117.13-.063.352-.063.352v.008c.02.207-.082.3-.136.351L2.098 9.902a.275.275 0 01-.145.067.665.665 0 01-.2.031c-.323 0-.757-.215-1.132-.555-.48-.437-.715-.941-.582-1.226a.222.222 0 01.07-.133l2.547-2.324a.444.444 0 01.32-.125h.055c.008 0 .012.004.02.004.043.004.082.007.12.007a.468.468 0 00.263-.066c.125-.094.101-.27.078-.367-.024-.102-.032-.207.058-.285l.387-.36a.251.251 0 01.184-.062.33.33 0 01.222.086l.782.71.78.716c.114.105.13.273.02.37l-.386.352a.248.248 0 01-.184.067.514.514 0 01-.133-.016.673.673 0 00-.152-.016c-.113 0-.195.032-.246.09zM11 .52l-.828 1.289-.035.004c-.035 0-.153.042-.274.085-.16.059-.355.13-.547.18L5.762 5.32l-.324-.293c-.02-.02-.149-.136-.235-.215l-.047-.042 3.586-3.274.008-.016c.121-.394.215-.683.34-.773l.012-.004L10.559 0zM2.195 1.992c.403-.37.465-.617.203-.855L1.281.12l.11-.031c.187-.055.382-.082.578-.082.515 0 1.008.187 1.375.523.527.48.703 1.196.457 1.84l1.754 1.602-.7.64-.257-.238a.683.683 0 00-.457-.172.613.613 0 00-.418.152l-.067.063-1.047-.957c-.703.223-1.484.062-2.015-.418-.512-.465-.7-1.156-.485-1.785l.032-.098 1.117 1.02c.105.093.21.14.324.14.172 0 .367-.105.613-.328zm0 0" fill="#4d4d4d"/></svg>