<svg xmlns="http://www.w3.org/2000/svg" width="7" height="10" viewBox="0 0 7 10"><g fill="#4d4d4d"><path d="M4.41.004c-1.765-.07-3.125 1.406-2.758 2.98.114.36-.07-.02 1.086 2.38.32.663.742 1.538 1.297 2.702l2.063-3.46c.785-1.32.66-1.126.785-1.422C7.395 1.629 6.164.07 4.41.004zm1.781 2.578c-.043.957-.93 1.7-1.976 1.66-1.047-.039-1.863-.847-1.817-1.804.043-.961.93-1.704 1.977-1.66 1.047.038 1.86.847 1.816 1.804zm0 0"/><path d="M6.578 4.234c-.058.164-.047.114-.258.512v4.395a.487.487 0 01-.367.457c-.48.14-.133.023-5.012.023-.289 0-.523-.215-.527-.48V4.707c0-.266.234-.48.524-.48h.917c-.054-.157-.085-.223-.109-.38H.938c-.516 0-.938.387-.938.86v4.434c.004.476.422.859.941.859h4.856c.516-.004.937-.387.937-.86L6.73 4.704a.8.8 0 00-.152-.469zm0 0"/></g></svg>