<svg xmlns="http://www.w3.org/2000/svg" width="11" height="8" viewBox="0 0 11 8"><path d="M11 6.934v.015C11 7.531 10.535 8 9.96 8H1.04C.464 8 0 7.531 0 6.95v-.016c0-.098.043-.192.113-.254.18.351.535.57.926.57h8.922c.39 0 .746-.219.926-.57.07.062.113.156.113.254zm-.79-2.887v-1.64A1.521 1.521 0 018.7.878H2.362c0 .844-.675 1.527-1.511 1.527v1.64c.836 0 1.511.688 1.511 1.532H8.7c0-.844.68-1.531 1.512-1.531zm-.054 2.36H.88a.82.82 0 01-.817-.821V0H10.97v5.586c0 .453-.364.82-.813.82zM5.531 1.644c-1.27 0-2.297.71-2.297 1.59 0 .882 1.028 1.593 2.297 1.593 1.27 0 2.301-.71 2.301-1.594 0-.879-1.031-1.59-2.3-1.59zm0 0" fill="#4d4d4d"/></svg>