<svg xmlns="http://www.w3.org/2000/svg" width="30" height="30"><circle style="isolation:auto;mix-blend-mode:normal;solid-color:#000;solid-opacity:1;marker:none" cx="15" cy="15" r="14.5" color="#000" overflow="visible" fill="#fff" fill-rule="evenodd" stroke="#2a62ac"/><g fill="#4d4d4d"><path d="M10.555 15.871c-.32-.516-.785-.879-1.63-.863.313-.617.997-.895 1.884-.988-.633-.477-1.48-.598-2.297.21-.13-.425.386-1.515.781-2.523-1.016.273-1.527 1.29-1.523 3.09-.473-.508-.676-1.29-.649-2.309-.633 1.219-.582 2.293.195 3.207-.66.243-1.101 1-1.316 1.621.355-.293.867-.847 1.363-.656-.078.777.125 1.48.559 1.98-.16-.55-.133-1.12-.012-1.703.313 1.262 1.008 1.915 1.883 2.278-.77-.73-1.5-2.035-1.367-3.457.605-.387 1.543-.117 2.129.113zm0 0M19.219 9.156c1.414-.304 2.715-.191 3.781.77-.852-1.399-2.14-2.246-4.516-1.746.094-.547.43-.903 1.051-1.024-.848-.379-1.617-.05-2.32.836-.777-.633-1.856-.629-3.137-.219.879.07 1.629.43 2.215 1.157-1.605-.016-2.64 1.105-3.293 2.996 1.32-1 2.793-1.551 4.434-1.61.742 1.059.55 2.34-.09 3.727 1.246-.277 2.144-1.008 1.972-3.129 1.22-.148 2.024.461 2.54 1.602.081-1.688-.856-2.774-2.637-3.36zm0 0M16.965 18.086a.093.093 0 00.043-.024c.078-.058.047-.171-.043-.21a1.523 1.523 0 00-1.172 0c-.086.039-.117.152-.043.21.016.012.031.02.047.024a.131.131 0 00.086-.008c.578-.219.918-.008 1.031.012.016 0 .031 0 .05-.004zm0 0"/><path d="M17.355 10.355c-2.664 2.106-4.457 5.27-5.117 8.813-.832-1.547-2.125-2.727-3.73-3.32 1.91 1.039 3.144 2.804 3.515 4.93-.035.398-.054.8-.062 1.202l.176-.011v.011c.062-.007.125-.011.187-.015h.09c.246.004.496.043.75.015.086 0 .176.004.266 0-.473-4.242.965-8.62 3.925-11.625zm0 0"/><path d="M18.832 18.293h-4.957a.257.257 0 00-.25.262v3.183c0 .133.09.262.277.262h4.93c.137 0 .25-.117.25-.262v-3.183a.262.262 0 00-.25-.262zm0 0"/></g></svg>