<svg xmlns="http://www.w3.org/2000/svg" width="11" height="10" viewBox="0 0 11 10"><path d="M10 4.965c-.363-.676-1.777-1.18-1.777-1.125 0 .37.117 1.562-.391 2.207-.039.047-1.129-.664-1.129-.664s.938-1.688 1.012-1.805c.074-.125.394-.402-.055-.61-.379-.171-1.039-.312-1.894-.347v-.879A.88.88 0 006.43.656a.86.86 0 00-.559-.61.877.877 0 00-1.133.61.19.19 0 00.13.235.19.19 0 00.234-.118c.054-.144.132-.28.27-.34a.496.496 0 01.648.68c-.079.172-.262.25-.45.266a.21.21 0 00-.187.2l-.004 1.038c-.93.024-1.637.168-2.04.352-.448.207-.128.484-.054.61.074.116 1.012 1.804 1.012 1.804s-1.09.71-1.129.664c-.508-.645-.39-1.836-.39-2.207 0-.055-1.415.45-1.778 1.125C.414 6.055 0 10 0 10h1.957s.211-1.371.367-1.629c.09-.152.133.086.133.242A61.74 61.74 0 012.426 10h2.797l-.04-4.754-1.066-1.703c-.027-.043.004-.121.051-.145.379-.191.934-.222 1.21-.226l.384.004c.297.015.75.058 1.07.222.047.024.078.102.05.145L5.817 5.246 5.777 10h2.797s-.035-1.11-.031-1.387c0-.156.043-.394.133-.242.156.258.367 1.629.367 1.629H11s-.414-3.945-1-5.035zm0 0" fill="#4d4d4d"/></svg>