<svg xmlns="http://www.w3.org/2000/svg" width="30" height="30"><circle style="isolation:auto;mix-blend-mode:normal;solid-color:#000;solid-opacity:1;marker:none" cx="15" cy="15" r="14.5" color="#000" overflow="visible" fill="#fff" fill-rule="evenodd" stroke="#2a62ac"/><path d="M17.816 22.168c1.18 1.11 3.075 1.11 4.25 0a2.733 2.733 0 000-4.016 3.065 3.065 0 00-2.125-.832c-.34 0-.675.051-.996.157L16.25 14.93l-1.082 1.023.352.332c.19.18.3.426.3.672a.826.826 0 01-.265.606l-.102.097 1.652 1.559c-.382 1.031-.105 2.18.711 2.949zm.676-2.008c0-.363.153-.715.426-.969a1.509 1.509 0 012.043 0c.453.442.543 1.118.215 1.653-.328.535-.988.793-1.617.633-.625-.157-1.063-.7-1.067-1.317zm-5.008-2.172c-.18.207-.097.559-.097.563l.004.015c.03.325-.13.477-.215.559l-3.934 3.719a.384.384 0 01-.222.105.907.907 0 01-.305.051c-.504 0-1.172-.34-1.754-.887-.742-.703-1.11-1.508-.902-1.965a.392.392 0 01.109-.214l3.934-3.715c.109-.102.25-.2.496-.2h.09c.007 0 .015.004.03.004a.945.945 0 00.184.016c.121 0 .285-.02.407-.11.191-.144.156-.429.12-.585-.034-.16-.05-.328.087-.461l.597-.567a.42.42 0 01.282-.105c.132 0 .253.05.347.137l2.414 2.28c.18.173.2.438.031.595l-.597.566a.393.393 0 01-.281.106.735.735 0 01-.207-.028 1.202 1.202 0 00-.239-.023c-.172 0-.297.047-.379.144zM23 7.832l-1.281 2.059-.055.007c-.055.004-.23.07-.422.141-.246.094-.55.203-.847.285l-5.489 5.192-.5-.47-.363-.343-.074-.07 5.543-5.242.008-.024c.187-.629.332-1.09.53-1.234l.016-.008L22.32 7zM9.39 10.188c.626-.59.72-.989.313-1.368L7.98 7.191l.168-.046c.29-.086.59-.13.891-.13a3.082 3.082 0 012.129.833c.812.77 1.09 1.918.707 2.949l2.71 2.562-1.081 1.024-.399-.38a1.032 1.032 0 00-.71-.28.916.916 0 00-.645.25l-.098.093-1.617-1.53a3.146 3.146 0 01-3.12-.669 2.735 2.735 0 01-.747-2.855l.05-.157 1.727 1.633c.164.149.328.223.5.223.27 0 .567-.168.946-.523zm0 0" fill="#4d4d4d"/></svg>