<svg xmlns="http://www.w3.org/2000/svg" width="11" height="10" viewBox="0 0 11 10"><path d="M5.598 1.453c0 .8-.621 1.453-1.387 1.453s-1.387-.652-1.387-1.453C2.824.653 3.445 0 4.211 0s1.387.652 1.387 1.453zM8.71 5.38c-.766 0-1.387.652-1.387 1.453 0 .8.621 1.453 1.387 1.453s1.387-.652 1.387-1.453c0-.8-.621-1.453-1.387-1.453zm1.652 3.336h-2.34s.653.27 0 0c-.652-.27-1.101-1.992-2.152-1.883H.508A.52.52 0 000 7.363v1.34a.52.52 0 00.508.531h6.148c.028 0 .055.012.074.032l.461.449c.008.004.012.008.016.012.113.164.332.27.508.273h2.672a.597.597 0 00.445-.203.666.666 0 00.168-.48.643.643 0 00-.637-.602zm-3.36-3.457l-1.07-.453c-.12-.059-.437-.22-.437-.22S3.941 3.028 3.625 2.993l-.426-.047c-.172-.023-.527-.054-.625-.03a.49.49 0 00-.394.32l-.758 2.007-.063.156h.004L.977 6.465h2.277L4.32 5.12a.116.116 0 01.16-.016l.586.493c.024.02.051.039.082.05l1.38.532c.261.12.624.07.742-.203a.562.562 0 00-.266-.72zm0 0" fill="#4d4d4d"/></svg>