<svg xmlns="http://www.w3.org/2000/svg" width="8" height="10" viewBox="0 0 8 10"><g fill="#4d4d4d"><path d="M5.457 10H.551c-.301 0-.547-.234-.547-.52V2.418c0-.262.223-.477.5-.477h4.953c.3 0 .547.235.547.52v7.02c0 .285-.246.519-.547.519zM.504 2.36c-.035 0-.063.027-.063.058V9.48c0 .055.047.102.11.102h4.906c.059 0 .11-.047.11-.102V2.46c0-.054-.051-.1-.11-.1zm0 0"/><path d="M6.398 9.059h-.285v-.414h.285c.059 0 .11-.047.11-.106V1.523a.108.108 0 00-.11-.105H1.445c-.035 0-.062.027-.062.059v.28H.945v-.28c0-.262.223-.473.5-.473h4.953c.301 0 .547.23.547.52v7.015c0 .29-.246.52-.547.52zm0 0"/><path d="M7.45 8.059h-.305V7.64h.304c.063 0 .11-.047.11-.102V.52c0-.054-.047-.101-.11-.101H2.496c-.035 0-.062.027-.062.059v.34h-.438v-.34c0-.262.223-.477.5-.477H7.45c.301 0 .547.234.547.52v7.02c0 .284-.246.519-.547.519zm0 0"/><path d="M4.844 5.176H1.03a.17.17 0 01-.172-.164.17.17 0 01.172-.168h3.813c.097 0 .176.074.176.168 0 .09-.079.164-.176.164zm0 0M4.844 4.219H1.03A.173.173 0 01.86 4.05a.17.17 0 01.172-.168h3.813c.097 0 .176.074.176.168 0 .09-.079.168-.176.168zm0 0M4.844 6.137H1.03a.17.17 0 01-.172-.164.17.17 0 01.172-.168h3.813c.097 0 .176.074.176.168 0 .09-.079.164-.176.164zm0 0M4.844 7.098H1.03A.17.17 0 01.86 6.93a.17.17 0 01.172-.164h3.813c.097 0 .176.074.176.164a.171.171 0 01-.176.168zm0 0M4.844 8.059H1.03A.17.17 0 01.86 7.89c0-.09.079-.168.172-.168h3.813c.097 0 .176.078.176.168a.171.171 0 01-.176.168zm0 0"/></g></svg>