<svg xmlns="http://www.w3.org/2000/svg" width="30" height="30"><circle style="isolation:auto;mix-blend-mode:normal;solid-color:#000;solid-opacity:1;marker:none" cx="15" cy="15" r="14.5" color="#000" overflow="visible" fill="#fff" fill-rule="evenodd" stroke="#2a62ac"/><g fill="#4d4d4d"><path d="M15.105 10.434V9.285h2.946l-1.543-1.133 1.465-1.132c-1.032-.004-2.067-.012-3.098-.016v3.43L8 13.949v1.02h13.98v-1.02zm0 0M21.98 15.406l.02 1.922h-1.11v4.469H22v1.2c-.281-.02-13.71 0-13.992 0V21.78H9.07v-4.453H8.02L8 15.453c2.18 0 4.305.004 6.43-.004 2.52-.008 5.035-.027 7.55-.043zm-10.113 1.86H10.36v4.472h1.508zm2.707 0h-1.508v4.472h1.508zm2.703 0H15.77v4.472h1.507zm2.703 0h-1.507v4.472h1.507zm0 0"/></g></svg>