<svg xmlns="http://www.w3.org/2000/svg" width="30" height="30"><circle style="isolation:auto;mix-blend-mode:normal;solid-color:#000;solid-opacity:1;marker:none" cx="15" cy="15" r="14.5" color="#000" overflow="visible" fill="#2a62ac" fill-rule="evenodd" stroke="#fff"/><path d="M21.543 14.445c-.523-1.011-2.582-1.77-2.582-1.687 0 .558.172 2.344-.57 3.308-.055.07-1.641-.996-1.641-.996s1.367-2.53 1.469-2.707c.11-.183.574-.597-.074-.906-.555-.266-1.512-.473-2.762-.523l.004-1.317c.675-.152 1.152-.855.965-1.633a1.288 1.288 0 00-.813-.914c-.734-.254-1.465.196-1.648.914a.292.292 0 00.187.352.274.274 0 00.344-.18c.074-.215.191-.418.39-.508.633-.28 1.243.364.946 1.024-.117.258-.383.375-.656.394a.308.308 0 00-.27.301l-.008 1.559c-1.351.035-2.383.254-2.969.531-.648.309-.183.723-.074.906.102.176 1.469 2.707 1.469 2.707s-1.586 1.067-1.64.996c-.743-.964-.57-2.75-.57-3.308 0-.082-2.06.676-2.583 1.687C7.605 16.085 7 22 7 22h2.848s.308-2.055.535-2.445c.129-.227.191.129.195.363.004.414-.05 2.082-.05 2.082h4.066l-.055-7.133-1.55-2.55c-.044-.067.003-.184.074-.223.55-.285 1.355-.328 1.761-.332l.559.004c.433.02 1.086.086 1.554.328.07.039.118.156.075.222l-1.551 2.551L15.406 22h4.067s-.055-1.668-.051-2.082c.004-.234.066-.59.195-.363.227.39.535 2.445.535 2.445H23s-.605-5.914-1.457-7.555zm0 0" fill="#fff"/></svg>