<svg xmlns="http://www.w3.org/2000/svg" width="30" height="30"><circle style="isolation:auto;mix-blend-mode:normal;solid-color:#000;solid-opacity:1;marker:none" cx="15" cy="15" r="14.5" color="#000" overflow="visible" fill="#2a62ac" fill-rule="evenodd" stroke="#fff"/><path d="M23 19.398v.028c0 .867-.676 1.574-1.512 1.574H8.512C7.676 21 7 20.293 7 19.426v-.028c0-.144.063-.28.168-.375.258.524.777.856 1.344.856h12.976c.567 0 1.086-.332 1.344-.856.105.094.168.23.168.375zm-1.145-4.324V12.61c-1.214 0-2.199-1.027-2.199-2.293h-9.218c0 1.266-.985 2.293-2.2 2.293v2.465c1.215 0 2.2 1.024 2.2 2.293h9.218c0-1.27.985-2.293 2.2-2.293zm-.085 3.535H8.277c-.656 0-1.183-.55-1.183-1.234V9h15.86v8.375c0 .684-.532 1.234-1.184 1.234zm-6.723-7.144c-1.848 0-3.344 1.07-3.344 2.39 0 1.317 1.496 2.387 3.344 2.387 1.848 0 3.344-1.07 3.344-2.387 0-1.32-1.496-2.39-3.344-2.39zm0 0" fill="#fff"/></svg>