<svg xmlns="http://www.w3.org/2000/svg" width="30" height="30"><circle style="isolation:auto;mix-blend-mode:normal;solid-color:#000;solid-opacity:1;marker:none" cx="15" cy="15" r="14.5" color="#000" overflow="visible" fill="#2a62ac" fill-rule="evenodd" stroke="#fff"/><path d="M20.23 13.133c-.332-1.176.008-2.102.23-2.715.087-.23.169-.41.173-.57 0-.36-1.602-1.918-1.602-1.918l-.355.316.554.578a2.02 2.02 0 00-.066 1.485c.086.261.219.507.399.722-.153.61-.231 1.38.019 2.27.555 1.96 1.16 6.16.348 7.187-.102.13-.211.188-.36.188-.41 0-.718-.125-.937-.387-.477-.562-.446-1.652-.356-2.09a5.01 5.01 0 01.149-.422c.387-1.043 1.281-3.457-.035-4.96.004-.04.007-.083.007-.126V8.336c-.003-.738-.62-1.332-1.382-1.336h-5.73c-.763.004-1.384.598-1.384 1.336v4.355c0 .735.621 1.332 1.383 1.336h.07v8.215H9.398a.387.387 0 00-.39.38c0 .21.176.378.39.378h9.504c.215 0 .391-.168.391-.379a.387.387 0 00-.39-.379h-1.958v-8.215h.07c.419 0 .813-.183 1.075-.504.742 1.239.05 3.098-.297 4.036-.09.238-.148.398-.172.511-.004.02-.332 1.66.492 2.63.352.413.84.624 1.457.624.356 0 .664-.152.895-.441 1.187-1.504.039-6.778-.235-7.75zm-.746-2.922a1.773 1.773 0 01-.039-.988c.239.226.461.48.512.59-.02.09-.07.234-.129.386-.043.13-.098.274-.148.43a1.776 1.776 0 01-.196-.418zM17.23 12.09c-.003.535-.449.969-1.003.973h-4.153c-.554-.004-1.004-.438-1.004-.973V8.937c0-.535.45-.968 1.004-.972h4.153c.554.004 1 .437 1.003.973zm0 0" fill="#fff"/></svg>