<svg xmlns="http://www.w3.org/2000/svg" width="30" height="30"><circle style="isolation:auto;mix-blend-mode:normal;solid-color:#000;solid-opacity:1;marker:none" cx="15" cy="15" r="14.5" color="#000" overflow="visible" fill="#fff" fill-rule="evenodd" stroke="#2a62ac"/><g fill="#4d4d4d"><path d="M15.824 16.25c-1.265-.688-1.254.125-1.988.027-.602-.078-.746-.453-1.281-.273-.559.183-.828.355-.836.379-.055.183-.04.336-.04.512 0 1.8 1.509 3.27 3.364 3.27 1.781 0 3.363-1.54 3.363-3.27 0-.188-.031-.536-.047-.543-.425-.22-.73-.364-.996-.375-.523-.028-1.058.535-1.539.273zm0 0"/><path d="M8 10.742v11.36c0 .496.414.898.922.898h12.156a.911.911 0 00.922-.898v-11.36zm7.043 10.551c-2.496 0-4.523-1.977-4.523-4.398 0-2.426 2.027-4.399 4.523-4.399 2.496 0 4.523 1.973 4.523 4.399 0 2.421-2.027 4.398-4.523 4.398zm0 0"/><path d="M15.043 20.883c-2.262 0-4.102-1.79-4.102-3.988 0-2.2 1.84-3.989 4.102-3.989 2.262 0 4.102 1.79 4.102 3.989s-1.84 3.988-4.102 3.988zm0-7.485c-1.98 0-3.594 1.567-3.594 3.497 0 1.925 1.613 3.492 3.594 3.492 1.98 0 3.594-1.567 3.594-3.492 0-1.93-1.614-3.497-3.594-3.497zm0 0M22 10.273H8V6.898C8 6.402 8.414 6 8.922 6h12.156c.508 0 .922.402.922.898zM9.375 7.433a.554.554 0 00-.563.547c0 .305.25.547.563.547a.552.552 0 00.563-.547c0-.3-.25-.546-.563-.546zm1.629 0a.554.554 0 00-.563.547c0 .305.25.547.563.547a.552.552 0 00.562-.547c0-.3-.25-.546-.562-.546zm1.633 0a.557.557 0 00-.563.547c0 .305.254.547.563.547a.555.555 0 00.566-.547c0-.3-.254-.546-.566-.546zm7.59-.296a.855.855 0 00-.868.843c0 .465.387.844.868.844a.858.858 0 00.867-.844.858.858 0 00-.867-.843zm-1.973 1.008v-.36a.381.381 0 00-.387-.379h-2.46a.381.381 0 00-.387.38v.359a.38.38 0 00.386.375h2.461a.38.38 0 00.387-.375zm0 0"/></g></svg>