<svg xmlns="http://www.w3.org/2000/svg" width="11" height="10" viewBox="0 0 11 10"><g fill="#4d4d4d"><path d="M2.95 5.914c-.208-.344-.513-.586-1.055-.574.199-.414.644-.598 1.218-.66-.41-.32-.96-.399-1.488.14-.082-.285.25-1.011.504-1.68-.656.18-.988.86-.984 2.055C.84 4.86.707 4.34.727 3.656c-.41.817-.38 1.531.125 2.14C.422 5.958.14 6.466 0 6.88c.23-.195.563-.566.883-.441-.051.523.078.992.36 1.32-.102-.363-.087-.746-.009-1.133.204.84.653 1.277 1.22 1.52-.497-.489-.97-1.356-.884-2.31.39-.253.996-.073 1.38.08zm0 0M8.55 1.438c.919-.204 1.759-.13 2.45.511C10.45 1.02 9.613.453 8.078.79c.063-.367.277-.605.68-.684C8.21-.148 7.71.07 7.258.66 6.754.242 6.055.242 5.227.516c.57.046 1.054.285 1.433.77-1.039-.013-1.707.737-2.133 1.995.856-.664 1.809-1.031 2.871-1.07.48.707.356 1.559-.058 2.484.808-.183 1.387-.672 1.277-2.086.79-.097 1.309.309 1.64 1.067.056-1.121-.55-1.848-1.706-2.239zm0 0M7.094 7.39a.117.117 0 00.031-.015c.047-.04.027-.113-.027-.14a.956.956 0 00-.762 0c-.055.023-.074.1-.027.14.011.008.02.012.03.016.02.004.04.004.056-.004.375-.149.593-.004.668.004.011.004.019.004.03 0zm0 0"/><path d="M7.348 2.234C5.625 3.641 4.46 5.75 4.039 8.11 3.5 7.08 2.664 6.293 1.621 5.9c1.238.69 2.035 1.87 2.277 3.285-.023.265-.035.535-.039.804a1.03 1.03 0 01.11-.008v.008a.677.677 0 01.125-.011h.058c.157 0 .32.027.48.011h.177c-.309-2.828.62-5.75 2.539-7.754zm0 0"/><path d="M8.3 7.531H5.095c-.09 0-.16.078-.16.172v2.121c0 .09.058.176.18.176H8.3c.09 0 .164-.078.164-.176v-2.12A.17.17 0 008.3 7.53zm0 0"/></g></svg>