<svg xmlns="http://www.w3.org/2000/svg" width="30" height="30"><circle style="isolation:auto;mix-blend-mode:normal;solid-color:#000;solid-opacity:1;marker:none" cx="15" cy="15" r="14.5" color="#000" overflow="visible" fill="#fff" fill-rule="evenodd" stroke="#2a62ac"/><g fill="#4d4d4d"><path d="M16.867 23H8.895a.892.892 0 01-.891-.887V10.11a.814.814 0 01.812-.808h8.051a.89.89 0 01.89.887v11.925a.892.892 0 01-.89.887zm-8.05-12.988a.097.097 0 00-.098.097v12.004c0 .098.078.176.176.176h7.972a.175.175 0 00.176-.176V10.188a.175.175 0 00-.176-.176zm0 0"/><path d="M18.398 21.402h-.46v-.71h.46a.174.174 0 00.176-.172V8.59a.175.175 0 00-.176-.176h-8.05a.1.1 0 00-.102.098v.476h-.71v-.476c0-.446.362-.809.812-.809h8.05c.489 0 .887.399.887.887v11.93a.885.885 0 01-.887.882zm0 0"/><path d="M20.105 19.7h-.496v-.712h.496a.175.175 0 00.176-.175V6.886a.175.175 0 00-.176-.176h-8.05a.097.097 0 00-.098.098v.578h-.715v-.578A.814.814 0 0112.055 6h8.05c.493 0 .887.398.891.887v11.925a.89.89 0 01-.89.887zm0 0"/><path d="M15.871 14.8H9.68a.281.281 0 01-.285-.28c0-.16.125-.286.285-.286h6.191a.283.283 0 110 .566zm0 0M15.871 13.168H9.68a.281.281 0 01-.285-.281c0-.16.125-.285.285-.285h6.191a.283.283 0 110 .566zm0 0M15.871 16.434H9.68a.282.282 0 01-.285-.286c0-.156.125-.28.285-.28h6.191a.283.283 0 110 .566zm0 0M15.871 18.066H9.68a.282.282 0 01-.285-.285c0-.156.125-.281.285-.281h6.191a.283.283 0 110 .566zm0 0M15.871 19.7H9.68a.284.284 0 01-.285-.286c0-.156.125-.281.285-.281h6.191c.156 0 .285.125.285.281a.287.287 0 01-.285.285zm0 0"/></g></svg>