<svg xmlns="http://www.w3.org/2000/svg" width="30" height="30"><circle style="isolation:auto;mix-blend-mode:normal;solid-color:#000;solid-opacity:1;marker:none" cx="15" cy="15" r="14.5" color="#000" overflow="visible" fill="#fff" fill-rule="evenodd" stroke="#2a62ac"/><g fill="#4d4d4d"><path d="M15.93 6.004c-2.774-.117-4.91 2.39-4.332 5.066.175.61-.11-.035 1.703 4.047.504 1.13 1.164 2.617 2.043 4.598 1.613-2.934 2.61-4.742 3.238-5.887 1.234-2.242 1.04-1.91 1.234-2.414.805-2.644-1.132-5.293-3.886-5.41zm2.8 4.387c-.07 1.625-1.46 2.89-3.109 2.82-1.644-.066-2.926-1.441-2.855-3.07.07-1.63 1.46-2.891 3.109-2.82 1.645.066 2.922 1.44 2.855 3.07zm0 0"/><path d="M19.336 13.2c-.094.28-.07.19-.406.866l.004 7.47a.824.824 0 01-.579.78c-.753.239-.21.04-7.875.04a.824.824 0 01-.828-.817L9.648 14a.829.829 0 01.829-.816h1.441c-.09-.266-.133-.38-.176-.641h-1.265C9.66 12.543 9 13.195 9 14l.004 7.543c0 .805.66 1.457 1.476 1.457l7.625-.004c.817 0 1.477-.652 1.477-1.46l-.004-7.54c0-.281-.082-.558-.242-.797zm0 0"/></g></svg>