<svg xmlns="http://www.w3.org/2000/svg" width="11" height="11" viewBox="0 0 11 11"><g fill="#4d4d4d"><path d="M4.23 8.926C3.54 6.856 4 4.555 5.477 2.703 5.37 3.832 6.5 4.843 7.445 5.113c-1.226 1.102-2.03 3.469-1.761 5.524 0 0 .07.336-.145.363-.379.047-1.113-1.488-1.309-2.074zm0 0"/><path d="M9.418 3.828c-.598.309-1.945.567-2.734-.242-.852-.871-.442-2.023.03-2.461L5.653.062a.22.22 0 00-.304 0L.063 5.345a.224.224 0 000 .308L3.69 9.273c-1.43-4.046 1.797-6.597 1.797-6.597.563 1.644 1.961 2.14 3.211 1.89C7.164 5.961 5.801 8.02 5.953 10.63l4.984-4.977a.224.224 0 000-.308zm0 0"/><path d="M9.21 2.168a1.267 1.267 0 01-1.456 1.457A1.277 1.277 0 016.699 2.57a1.27 1.27 0 01.36-1.097 1.27 1.27 0 011.097-.36c.535.082.973.52 1.055 1.055zm0 0"/></g></svg>