<svg xmlns="http://www.w3.org/2000/svg" width="11" height="11" viewBox="0 0 11 11"><path d="M8.652 2.348h.793v6.14a.919.919 0 01-.918.914H2.512a.916.916 0 01-.918-.914v-6.14h.773l.04 4.695c.745-.008 1.511.676 1.55 1.543l3.14.008c0-.942.829-1.54 1.555-1.54zm-6.14 7.941c-.356 0-.653-.176-.801-.476a.037.037 0 00-.043-.024.042.042 0 00-.031.04v.288c0 .485.37.883.824.883h6.117c.453 0 .82-.398.82-.883v-.219c0-.02-.011-.03-.027-.039-.016-.004-.031.004-.043.02-.164.27-.469.41-.8.41zm5.226-5.586c0-.84-.992-1.52-2.218-1.52-1.227 0-2.22.68-2.22 1.52s.993 1.52 2.22 1.52c1.226 0 2.218-.68 2.218-1.52zM.968 0A.971.971 0 000 .969v1.32c0 .461.332.86.785.95l.012-.09.02-1.587h9.425V3.23A.969.969 0 0011 2.29V.968A.971.971 0 0010.031 0zm0 0" fill="#4d4d4d"/></svg>