<svg xmlns="http://www.w3.org/2000/svg" width="10" height="10" viewBox="0 0 10 10"><g fill="#4d4d4d"><path d="M4.598 1.586c.172.988-.203 1.89-.84 2.016-.637.12-1.293-.582-1.465-1.575-.172-.988.203-1.89.84-2.011.637-.125 1.293.578 1.465 1.57zm0 0M2.266 3.637c.375.797.222 1.68-.348 1.976-.566.297-1.332-.11-1.711-.906-.375-.797-.223-1.68.344-1.977.57-.296 1.336.11 1.715.907zm0 0M9.266 2.691c.605.196.894 1.043.644 1.895-.254.848-.945 1.379-1.55 1.18-.606-.196-.895-1.043-.645-1.895.25-.848.945-1.379 1.55-1.18zm0 0M6.918.016c.637.12 1.012 1.023.84 2.011-.176.993-.832 1.696-1.469 1.57-.637-.12-1.012-1.023-.836-2.011.172-.992.828-1.695 1.465-1.57zm0 0M1.719 7.277s.765-1.023 1.129-1.418c.363-.398.847-1.328.847-1.328a1.72 1.72 0 012.836.028s.426.968.742 1.37c.313.407 1.145 1.34 1.145 1.34.758 1.2 0 2.782-1.29 2.731-.026-.004-.058-.008-.085-.02-.246-.085-1.48-.476-2.02-.476-.593 0-1.793.39-2.007.453-.024.008-.047.012-.067.008C1.652 9.93.93 8.367 1.72 7.277zm0 0"/></g></svg>