<svg xmlns="http://www.w3.org/2000/svg" width="6" height="10" viewBox="0 0 6 10"><g fill="#4d4d4d"><path d="M4.652 5.004H3.277a.374.374 0 00-.293-.316v-1.36a.126.126 0 00-.082-.031.11.11 0 00-.078.031v1.36a.371.371 0 00-.242.167.339.339 0 00-.043.282c.008.023.016.047.027.07l-.867.84v.02c.008.078.07.136.149.144h.02l.866-.84c.024.012.047.02.075.024a.369.369 0 00.468-.313h1.375c.035-.02.035-.055 0-.078zm0 0"/><path d="M5.906 4.734h-.12A2.751 2.751 0 005 3.098c-.086-.38-.168-.754-.254-1.133h-.39v-.203h-.06v-.114h.06V.863h-.06V.75h.06V.176a.325.325 0 00-.06-.016L4.177.13a5.427 5.427 0 00-2.352 0c-.11.027-.215.055-.32.086-.02.004-.04.012-.059.015v.52h.059v.113h-.059v.785h.059v.114h-.059v.203H1.06c-.086.379-.168.754-.254 1.133a2.76 2.76 0 00.023 3.918c.078.34.152.68.23 1.02h.446v.316h-.059v.785h.059v.113h-.059v.52c.02.003.04.011.059.015l.32.082a5.309 5.309 0 002.473-.027.325.325 0 00.058-.016V9.25h-.058v-.113h.058v-.785h-.058v-.317h.45c.077-.34.151-.68.23-1.023.453-.45.738-1.035.808-1.66h.121c.051 0 .094-.043.094-.094v-.43a.095.095 0 00-.094-.094zm-2.922 2.52V6.91a.116.116 0 00-.16 0v.344C1.625 7.214.664 6.28.621 5.12h.317a.098.098 0 00.035-.078.104.104 0 00-.035-.078H.62c.043-1.16 1.004-2.094 2.203-2.133v.32a.116.116 0 00.16 0v-.32c1.196.04 2.157.973 2.2 2.133h-.309a.116.116 0 00-.031.078.11.11 0 00.031.078h.309c-.043 1.16-1.004 2.094-2.2 2.133zm0 0"/></g></svg>