<svg xmlns="http://www.w3.org/2000/svg" width="30" height="30"><circle style="isolation:auto;mix-blend-mode:normal;solid-color:#000;solid-opacity:1;marker:none" cx="15" cy="15" r="14.5" color="#000" overflow="visible" fill="#fff" fill-rule="evenodd" stroke="gray"/><g fill="#4d4d4d"><path d="M16.793 12.246c-1.914-1.906-4.48-2.45-5.727-1.21-1.242 1.237-.695 3.792 1.215 5.698 1.914 1.907 4.485 2.45 5.727 1.211 1.242-1.238.695-3.797-1.215-5.699zm0 0M20.633 19.508l-2.238-1.13 1.214 2.13a.272.272 0 01-.07.347.268.268 0 01-.351-.027.14.14 0 01-.043-.055l-1.012-1.765.035 3.992c.238-.078.46-.09.66-.098.332-.015.555-.027.817-.289.261-.261.27-.48.289-.808.02-.383.043-.86.523-1.336.48-.48.961-.508 1.344-.524.332-.02.55-.027.812-.289.262-.261.274-.48.29-.808.011-.2.019-.426.097-.66l-3.863-.032 1.738.875a.266.266 0 01.117.36.266.266 0 01-.36.117zm0 0M9.816 8.184a.272.272 0 01.36.129l.687 1.445L10.832 6c-.238.078-.46.09-.66.102-.332.015-.55.027-.813.289-.261.257-.273.476-.289.808-.02.38-.047.856-.527 1.332-.48.48-.957.504-1.34.524-.332.02-.55.03-.812.289-.262.265-.274.48-.293.812-.008.2-.02.422-.098.66l3.945.032-1.52-.817a.264.264 0 01-.086-.395.271.271 0 01.345-.073l2.004 1.074-.997-2.098a.264.264 0 01.125-.355zm0 0"/></g></svg>