<svg xmlns="http://www.w3.org/2000/svg" width="11" height="11" viewBox="0 0 11 11"><g fill="#4d4d4d"><path d="M9.016 9.766V3.43H11L10.46 0H7.153l-.601 3.43h2.023v6.336c-1.09.027-1.937.254-1.937.527 0 .293.957.531 2.14.531 1.184 0 2.141-.238 2.141-.531 0-.273-.832-.496-1.902-.527zm0 0"/><path d="M6.172 3.805h-1.8v-.168h-.325v.168H2.313c-.61 0-1.106.484-1.106 1.078v.144c.05.059.457.118.531.13.098.015 1.16.073 2.325.105v2.492s.011 1.422-.458 2.012a.073.073 0 01-.058.035c-.442.066-.774.199-.809.386-.394-.066-1.117-.18-1.406-.195-.383-.02-.738.317-.996.567l-.086.078c-.063.062-.152.14-.25.222V11a7.862 7.862 0 00.414-.367c.242-.235.578-.555.91-.535.29.015 1.04.136 1.426.199.074.234.492.582 1.438.601 1.05.02 1.402-.386 1.386-.613-.015-.234-.36-.41-.836-.484a.097.097 0 01-.062-.04c-.492-.636-.39-1.929-.387-2.003V5.266c.895-.012 2.902-.106 2.953-.274l.035-.11c0-.593-.496-1.077-1.105-1.077zm0 0"/></g></svg>