<svg xmlns="http://www.w3.org/2000/svg" width="30" height="30"><circle style="isolation:auto;mix-blend-mode:normal;solid-color:#000;solid-opacity:1;marker:none" cx="15" cy="15" r="14.5" color="#000" overflow="visible" fill="#fff" fill-rule="evenodd" stroke="gray"/><g fill="#4d4d4d" stroke-width="2.43" stroke="#000" stroke-miterlimit="10"><path d="M458.296 116.706c0-.235 0-.235-.456-.235.228.235.228.235.456.235zm0 0" transform="matrix(.01713 0 0 .01658 6.421 6.608)"/><path d="M883.045 422.791l-4.104-3.77S555.421 234.286 539.233 224.39c-31.007-19.086 4.332-38.88 4.332-38.88 35.795-21.677 51.07-65.505 36.25-104.62-14.819-39.114-55.401-61.97-96.44-54.43C442.11 34 412.47 69.816 412.47 111.523c0 2.12 0 4.005.228 5.89 0 0 40.81-.942 45.142-.942 0-1.178.228-2.356.228-3.535 0-20.5 18.012-36.994 39.899-36.994 22.115 0 39.442 16.494 39.898 36.994.456 25.684-30.779 36.288-30.779 36.288-18.467 9.425-38.986 20.97-31.918 63.149 1.14 7.54-343.812 204.763-343.812 204.763-25.991 13.902-38.075 33.46-38.075 60.557 0 36.288 29.64 65.977 66.118 65.977 6.384 0 119.924-2.356 119.924-2.356v121.821s-4.332 59.38 36.706 82.942c50.614 29.219 410.386 240.344 410.386 240.344l1.824-450.291c5.243 1.178 108.296 4.241 113.768 4.241 28.043 0 53.122-17.672 62.241-44.298 9.348-26.391.912-55.845-21.203-73.282zm-595.059 50.425c0 7.305-6.156 13.196-13.451 13.196H164.643c-10.032 0-13.68-13.196-5.016-18.38l108.068-66.212c4.104-2.356 9.12-2.592 13.451-.235 4.104 2.356 6.84 6.833 6.84 11.781zm211.805 7.305c-76.15 0-142.951-50.19-164.154-123.47l166.206-96.845 162.102 96.373c-20.747 73.517-87.777 123.942-164.154 123.942zm343.811 5.89H733.71c-7.295 0-13.223-5.89-13.223-13.195v-59.85c0-4.948 2.508-9.425 6.84-11.781 4.103-2.357 9.347-2.121 13.451.235l108.068 66.213c8.436 5.183 4.788 18.379-5.244 18.379zm0 0" transform="matrix(.01713 0 0 .01658 6.421 6.608)"/></g></svg>