<svg xmlns="http://www.w3.org/2000/svg" width="10" height="10" viewBox="0 0 10 10"><g fill="#4d4d4d"><path d="M9.34 4.242c-.215-.734-1.758-1.324-3.719-1.426-1.7-.09-4.617.274-4.957 1.426.184-.047 8.402-.074 8.676 0zm0 0M.934 6.387c.011.289.261.52.57.52h7c.305 0 .559-.231.566-.52zm0 0M1.766 7.098c-.036.336.25.613.593.613h5.286c.343 0 .628-.277.593-.613zm0 0M5.504 2.664c.215-.785.414-1.582.414-1.809 0-1.14-1.832-1.144-1.832 0 0 .227.203 1.024.418 1.81.328-.013.66-.017 1 0zm0 0M9.066 4.426c-8.78 0-8.265-.043-8.57.11-.855.433-.535 1.66.457 1.66 8.692 0 8.137.007 8.254-.012 1.14-.16 1.012-1.758-.14-1.758zm0 0M5.004 10c.008-.04.008-.035.125-.656h-.246l.12.656zm0 0M3.664 8.602c-.05.3.203.578.531.578H5.81c.332 0 .582-.278.535-.578zm0 0M2.82 7.898c-.03.27.196.512.489.512h3.386c.297 0 .52-.242.489-.512zm0 0"/></g></svg>