<svg xmlns="http://www.w3.org/2000/svg" width="7" height="11" viewBox="0 0 7 11"><path d="M6.055 0H.945C.425 0 0 .395 0 .887v9.55h.434v.31c0 .14.12.253.27.253h.737c.153 0 .274-.113.274-.254v-.309H5.25v.31c0 .14.121.253.27.253h.738c.152 0 .273-.113.273-.254v-.309H7V.887C7 .395 6.574 0 6.055 0zM2.789.934c.719-.282 1.55-.09 2.047.472.496.563.543 1.364.11 1.973-.43.605-1.235.879-1.981.668-.746-.211-1.258-.856-1.258-1.586 0-.668.426-1.27 1.082-1.527zm.723 8.629c-1.453 0-2.63-1.102-2.63-2.465 0-1.36 1.177-2.465 2.63-2.465 1.453 0 2.633 1.105 2.633 2.465 0 1.363-1.18 2.465-2.633 2.465zm-.035-8.426c-.778 0-1.41.593-1.41 1.324 0 .73.632 1.324 1.41 1.324.78 0 1.414-.594 1.414-1.324 0-.352-.149-.688-.41-.938a1.466 1.466 0 00-1.004-.386zm.328 2.004a.839.839 0 01-.93-.2.713.713 0 01-.059-.89.827.827 0 01.895-.305.75.75 0 01.566.711.747.747 0 01-.472.684zm-.262 1.812c-1.25 0-2.262.95-2.262 2.121 0 1.172 1.012 2.121 2.262 2.121s2.262-.949 2.262-2.12c0-1.173-1.012-2.122-2.262-2.122zm0 3.395c-.75 0-1.36-.57-1.36-1.274 0-.703.61-1.27 1.36-1.27.75 0 1.355.567 1.355 1.27 0 .703-.605 1.274-1.355 1.274zm0 0" fill="#4d4d4d"/></svg>