<svg xmlns="http://www.w3.org/2000/svg" width="30" height="30"><circle style="isolation:auto;mix-blend-mode:normal;solid-color:#000;solid-opacity:1;marker:none" cx="15" cy="15" r="14.5" color="#000" overflow="visible" fill="#fff" fill-rule="evenodd" stroke="gray"/><path d="M18.293 11.32l.758-.066L21 21.492l-3.898 1.5zm-1.578-.265l1.168.25-1.192 11.672L9 20.516l1.84-10.711 1.226.261V8.84c0-1.266 1.043-2.297 2.325-2.297.078 0 .156.004.23.012a2.32 2.32 0 011.504-.547c1.281 0 2.324 1.031 2.324 2.297l.028 2.558-1.16-.265V8.305a1.158 1.158 0 00-.41-.89 1.187 1.187 0 00-.954-.274c.484.433.762 1.054.762 1.699zm-3.516-.89l2.383.507V8.84c0-.403-.21-.778-.555-.992-.062.144-.093.3-.093.457l-.032 1.648-1.129-.25.028-1.398c0-.172.02-.348.058-.516-.402.2-.66.606-.66 1.05zm-1.219 1.237c0 .266.22.48.485.48.27 0 .488-.214.488-.48a.484.484 0 00-.488-.48.483.483 0 00-.485.48zm3.418 3.825l-3.699-.864-.422 2.52 3.735.898zm.903-3.04a.483.483 0 00-.485-.48.484.484 0 00-.488.48c0 .266.219.477.488.477a.48.48 0 00.485-.476zm0 0" fill="#4d4d4d"/></svg>