<svg xmlns="http://www.w3.org/2000/svg" width="10" height="6" viewBox="0 0 10 6"><path d="M8.027 1.914c-.382 0-.757.113-1.078.332l-.808-1.008.28-.86h.427A.174.174 0 007.02.204a.18.18 0 00-.172-.18L5.492.02A.178.178 0 005.32.2c0 .097.075.175.168.175h.524l-.18.55-2.637-.01-.011-.013C3.18.895 3.172.887 3.164.88L3.32.402h.594c.106 0 .191-.09.191-.199A.197.197 0 003.915 0h-.876l-.39 1.207-.25.754a1.948 1.948 0 00-.426-.047C.887 1.914 0 2.828 0 3.957 0 5.082.887 6 1.973 6S3.94 5.082 3.94 3.957c0-.832-.48-1.55-1.171-1.867l.246-.746 1.902 2.672a.19.19 0 00.156.082h.989C6.133 5.16 6.987 6 8.027 6 9.113 6 10 5.082 10 3.957c0-1.129-.887-2.043-1.973-2.043zM3.551 3.957c0 .902-.707 1.64-1.578 1.64-.871 0-1.582-.738-1.582-1.64 0-.906.71-1.64 1.582-1.64.101 0 .203.011.3.03L1.785 3.84a.2.2 0 00.121.254c.102.039.211-.02.246-.125l.493-1.496c.554.27.906.847.906 1.484zm4.047-.262h-1.13c.052-.332.2-.64.427-.882zM6.648 2.5c-.316.32-.515.742-.574 1.195h-.73l.652-2.007zm-.945-1.172l-.695 2.137L3.48 1.32zm2.324 4.27c-.824 0-1.504-.66-1.574-1.5H8a.208.208 0 00.18-.121.227.227 0 00-.028-.223L7.2 2.562c.25-.16.535-.246.828-.246.871 0 1.582.735 1.582 1.641 0 .902-.71 1.64-1.582 1.64zm0 0" fill="#4d4d4d"/></svg>