<svg xmlns="http://www.w3.org/2000/svg" width="30" height="30"><circle style="isolation:auto;mix-blend-mode:normal;solid-color:#000;solid-opacity:1;marker:none" cx="15" cy="15" r="14.5" color="#000" overflow="visible" fill="gray" fill-rule="evenodd" stroke="#fff"/><g fill="#fff"><path d="M22.832 15.578H6.168A.168.168 0 006 15.75v4.074a.17.17 0 00.168.172h.516a.173.173 0 00.171-.172v-.601c0-.094.075-.168.168-.168H22.27c.093 0 .168.074.168.168v.601c0 .094.078.172.171.172h.223a.17.17 0 00.168-.172V15.75a.168.168 0 00-.168-.172zm-.562 2.82H7.023a.17.17 0 01-.168-.171V16.69a.17.17 0 01.168-.171H22.27a.17.17 0 01.168.171v1.536a.17.17 0 01-.168.171zm0 0M21.75 14.871l-1.625-1.93a.157.157 0 01-.04-.109V9.176a.173.173 0 00-.167-.172H9.098a.17.17 0 00-.168.172v3.758h.03l-1.304 1.894a.168.168 0 00-.011.176.163.163 0 00.148.094l13.828.054a.17.17 0 00.156-.101.169.169 0 00-.027-.18zm-2.227-2.164h-.636a.573.573 0 00.12-.617.547.547 0 00-.51-.348h-2.673a.556.556 0 00-.515.348.58.58 0 00.12.617h-1.464a.573.573 0 00.12-.617.555.555 0 00-.51-.348h-2.677a.555.555 0 00-.511.348.573.573 0 00.12.617h-.792v-2.96h9.808zm0 0"/></g></svg>