<svg xmlns="http://www.w3.org/2000/svg" width="30" height="30"><circle style="isolation:auto;mix-blend-mode:normal;solid-color:#000;solid-opacity:1;marker:none" cx="15" cy="15" r="14.5" color="#000" overflow="visible" fill="gray" fill-rule="evenodd" stroke="#fff"/><path d="M22.68 15.91c-1.364-.34-2.16-1.48-2.801-2.617-.567-.137-.89-.195-1.098-.145.063.274.27.672.64 1.36-.401-.68-.636-1.067-.835-1.254-.11.105-.18.285-.27.543.055-.32.082-.524 0-.684-.16-.02-.34.059-.605.188.203-.149.344-.258.422-.38-.227-.151-.653-.284-1.403-.503.766.191 1.2.297 1.47.277.007-.273-.208-.683-.657-1.523.508.867.75 1.254.996 1.367.09-.11.152-.277.234-.508-.039.23-.062.403-.043.54.141-.009.301-.083.524-.188-.215.156-.363.265-.438.398.137.172.442.293 1.047.48-.726-1.288-1.254-2.562-2.183-2.64a1.506 1.506 0 00-.66-.016c-.797.16-1.434.606-1.942.965-.402.282-.781.551-.996.485-.105-.032-.328-.188-.617-.875-.559-1.332-1.055-1.973-1.66-2.14-.664-.18-1.258.276-1.785.683-1.028.797-3.586 1.324-3.61 1.332l-.406.082.094.414.011.05c.004.012.008.024.008.036.988 4.254 2.668 6.879 5.223 7.879.242.093.805.312 1.058.379.54.132.907.101 1.497.101 1.187 0 2.476-.273 3.851-.824 1.356-.535 2.766-1.328 4.195-2.356.204-.148.34-.253.387-.289l.031-.023.637-.508zM11.594 9.328c.242-.039 1.16 2.016 1.289 2.027l-.047.055c-.254.2-1.207-1.773-1.496-1.597-.29.171-1.035.12-1.035.12.343-.074.918-.542 1.289-.605zm6.414 5.453c-1.074-.21-2.867 1.723-4.805 1.563-1.375-.114-2.996-2.637-3.785-3.324-.496-.43-1.977-1.082-3.016-1.508.07-.016-.304-.262-.226-.282 1.316.407 3.824 1.375 4.367 2.196.793 1.191 2.414 3.465 5.508 1.312 1.39-.965 3.219-.14 4.594.617.34.418 1.425.563 1.894.848-1.84-.234-3.715-1.265-4.531-1.422zm0 0" fill="#fff"/></svg>