<svg xmlns="http://www.w3.org/2000/svg" width="9" height="10" viewBox="0 0 9 10"><path d="M6.703 0L8.48 5.156C5.156 8.7.004 9.902.004 9.902l1.422-6.87C5.476 2.155 6.703 0 6.703 0zm-4.71 3.59l-.497 2.473c2.05-.56 4.035-1.239 5.598-2.637l-.621-2.028S4.98 2.816 1.993 3.59zM8.73 6.938l-.425-.875C6.883 7.48 3.075 9.335 3.203 9.258c0 0 4.121-1.168 5.527-2.32zm.266 1.695L8.57 7.527C6.883 8.633 2.883 9.672 2.883 9.672c.484.191 6.02-.805 6.113-1.04zm0 1.234l-.23-.64c-1.602.21-2.825.527-5.883.773zm0 0" fill="#4d4d4d"/></svg>