<svg xmlns="http://www.w3.org/2000/svg" width="30" height="30"><circle style="isolation:auto;mix-blend-mode:normal;solid-color:#000;solid-opacity:1;marker:none" cx="15" cy="15" r="14.5" color="#000" overflow="visible" fill="#fff" fill-rule="evenodd" stroke="gray"/><g fill="#4d4d4d"><path d="M18.43 15.492c-.012-.004-.024-.004-.035-.008a4.048 4.048 0 00-1.32.004c-.009 0-.012.004-.02.004-.73.13-1.38.453-1.856.914v-4.898H11.32v-.973h1.598V9H8.289v1.535H9.82v.973H6.004v9.465h9.195v-.758c.36.348.817.617 1.336.785h2.414c1.281-.414 2.188-1.46 2.188-2.691 0-1.387-1.16-2.547-2.707-2.817zm-5.418 2.172H8.195v-3.2h4.817zm6.273 1.613h-2.95V17.32h2.95zm0 0"/><path d="M21.328 13.027c-.844 0-1.539.41-1.652.95h-1.27v-.864h-1.332v.864h-.433v.3h.433s-.008.895 0 .91c.219-.039.446-.058.668-.054a3.76 3.76 0 01.66.05v-.906h1.274c.113.536.808.95 1.652.95.922 0 1.668-.493 1.668-1.102 0-.605-.746-1.098-1.668-1.098zm0 0"/></g></svg>