<svg xmlns="http://www.w3.org/2000/svg" width="30" height="30"><circle style="isolation:auto;mix-blend-mode:normal;solid-color:#000;solid-opacity:1;marker:none" cx="15" cy="15" r="14.5" color="#000" overflow="visible" fill="gray" fill-rule="evenodd" stroke="#fff"/><path d="M12.035 13.121s-1.75-2.82-.45-3.992c.942-.848 1.63-.145 2.231-.168.598-.024 1.325-1.996 3.454-1.961 2.828.047 2.43 1.984 2.68 1.984.5 0 .515-.363 1.152-.191 2.136.586-.204 4.043-.403 4.187-.18.13 1-.097 1.028 1.266.02 1.008-1.102 1.125-1.102 1.125s-.324.695-.176 1.125c.18.508.25 1.266-.101 1.723-.348.453-.207.523-.2 1.074.024 1.625.426 2.031.426 2.031l-.5.074s-.652-.933-.676-1.386c-.027-.457.024-.672.024-.672s-.477.648-.625.672c-.152.023.148.476-.102 1.218-.25.743-.273.813-.074 1.196.2.383.477.574.477.574h-.727s-.812-1.129-.875-1.531c-.078-.477.024-1.317.024-1.317l-4.907-.215s-.25.407-.402.696c-.148.285-.05.62-.05.62h-.626s.113-1.038.426-1.339c.027-.023-2.3-.336-2.3-.336s.171 1.172-.028 1.82c-.2.645-.778 1.387-.778 1.387h-.648s.574-.527.574-.719c0-.597-.426-1.695-.324-2.27.027-.175.047-.35.05-.526 0 0-.71-.47-.6-1.028.175-.887.573-1.555.573-2.726.016.12-1.445.566-1.476-1.004-.024-1.2 1.453-1.246 1.453-1.246s1.125-.094 2.953-.192a3.79 3.79 0 01.625.047zm0 0" fill="#fff"/></svg>