<svg xmlns="http://www.w3.org/2000/svg" width="11" height="10" viewBox="0 0 11 10"><path d="M2.336.953l.059.2c-.032.1-.032.175 0 .218.027.043.093.074.199.09l.164.14.664 1.016.285-.16L6.492 6.73l-.363.926-1.04.57-1.081-.128-2.785-4.274.28-.152-.66-1.016-.054-.199c.031-.094.035-.16.008-.207-.031-.043-.102-.078-.215-.102l-.16-.14-.379-.578-.027-.09L0 .707.094.555 1.098 0h.191l.598.309.07.062zm4.07 7.024l-.98.543c.64.773 1.953 1.98 3.449 1.257 1.344-.644.77-2.297.23-3.847-.32-.918-.62-1.785-.445-2.004.336-.406 1.766.703 2.34 1.176V3.766c-1.008-.664-2.496-1.387-3.25-.47-.531.65-.14 1.77.27 2.95.394 1.145.82 2.363.328 2.602-.73.351-1.493-.332-1.942-.871zm-4.41-3.891L4.281 7.59l.36-.195-2.286-3.508zm-.164-.594l1.262-.695-.602-.922-1.262.695zm.324-1.84a.462.462 0 01-.148-.23l-.985.539c.075.062.13.14.153.23zM.383.805l.012.48.292.453 1.262-.695L1.656.59 1.2.355zm0 0" fill-rule="evenodd" fill="#4d4d4d"/></svg>