<svg xmlns="http://www.w3.org/2000/svg" width="9" height="10" viewBox="0 0 9 10"><g fill="#4d4d4d" stroke-width="2.43" stroke="#000" stroke-miterlimit="10"><path d="M458.499 116.754s-.355 0-.71-.377c.355.377.355.377.71.377zm0 0" transform="matrix(.01101 0 0 .01036 -1.015 -.245)"/><path d="M883.02 422.509l-4.256-3.394S555.319 234.381 539.36 224.578c-31.21-19.227 4.256-39.209 4.256-39.209 35.82-21.49 51.07-65.6 36.175-104.431-14.896-39.21-55.327-61.83-96.466-54.29-41.14 7.54-70.931 43.356-70.931 84.827 0 2.263 0 4.148.354 6.033 0 0 40.786-1.131 45.042-1.131 0-1.131.354-2.262.354-3.394 0-20.358 17.733-36.946 39.721-36.946 21.989 0 39.722 16.588 40.076 36.946.355 25.637-30.855 36.193-30.855 36.193-18.442 9.426-39.012 21.113-31.918 62.961 1.064 7.917-343.66 205.093-343.66 205.093-26.245 13.573-38.303 33.177-38.303 60.322 0 36.57 29.791 65.977 66.32 65.977 6.384 0 119.874-2.262 119.874-2.262V663.04s-4.256 59.567 36.529 82.942c50.715 29.407 410.335 240.532 410.335 240.532l2.128-450.526c4.965 1.13 108.169 4.524 113.489 4.524 28.018 0 53.198-17.72 62.419-44.488 9.221-26.39.71-55.797-21.28-73.516zm-595.11 50.519c0 7.54-6.029 13.572-13.477 13.572H164.845c-10.285 0-13.831-13.195-5.32-18.473l108.17-66.354c3.901-2.262 9.22-2.639 13.477 0 4.256 2.262 6.738 6.786 6.738 11.687zm212.083 7.54c-76.25 0-143.28-50.52-164.204-123.66l165.978-96.514 162.431 96.138c-20.924 73.517-87.954 124.036-164.205 124.036zm343.66 6.032H733.71c-7.447 0-13.122-6.032-13.122-13.572V413.46c0-4.9 2.483-9.425 6.739-11.687 4.255-2.639 9.22-2.262 13.476 0l108.17 66.354c8.512 5.278 4.61 18.473-5.32 18.473zm0 0" transform="matrix(.01101 0 0 .01036 -1.015 -.245)"/></g></svg>