<svg xmlns="http://www.w3.org/2000/svg" width="30" height="30"><circle style="isolation:auto;mix-blend-mode:normal;solid-color:#000;solid-opacity:1;marker:none" cx="15" cy="15" r="14.5" color="#000" overflow="visible" fill="gray" fill-rule="evenodd" stroke="#fff"/><g fill="#fff"><path d="M22.906 19.441s-2.484-7.18-3.508-7.18c0 0-1.156.204-.742 1.579.137.144.215.34.211.539 0 .426-.324.77-.722.77-.399 0-.723-.344-.723-.77a.81.81 0 01.023-.195c-.062-.622-.285-1.973-1.265-1.922h-3.36c-.98-.051-1.203 1.3-1.265 1.922a.81.81 0 01.023.195c0 .426-.324.77-.723.77-.398 0-.722-.344-.722-.77a.769.769 0 01.21-.54c.415-1.374-.741-1.577-.741-1.577-1.024 0-3.508 7.18-3.508 7.18-.383 1.226.445 2.515 1.66 2.554H21.246c1.215-.039 2.043-1.328 1.66-2.555zm0 0"/><path d="M18.36 13.941V12.56a4.56 4.56 0 00-.028-.516v-.875c0-1.129-.379-2.172-1.066-2.941-.711-.79-1.703-1.223-2.793-1.223s-2.098.434-2.828 1.219c-.72.773-1.114 1.82-1.114 2.945 0 .039-.004.137-.004.262-.011.804-.011 1.265.004 1.402.004.02.008.738.02 1.14a.518.518 0 00-.121.567c.082.2.27.324.48.32a.503.503 0 00.461-.34.514.514 0 00-.14-.562c-.004-.3.003-.875.007-1.125v-.273c0-.946.332-1.82.93-2.461A3.141 3.141 0 0114.5 9.094a3.04 3.04 0 012.29 1c.476.527.773 1.222.862 2.015v.704l.024 1.183a.525.525 0 00-.082.574c.09.192.289.305.492.285a.51.51 0 00.445-.363.519.519 0 00-.172-.55zm-1.067-4.32A3.716 3.716 0 0014.5 8.395a3.807 3.807 0 00-2.828 1.222c-.09.098-.176.2-.258.305.156-.453.402-.871.727-1.219A3.141 3.141 0 0114.473 7.7a3.04 3.04 0 012.289 1c.273.305.484.656.633 1.043-.036-.043-.067-.082-.102-.12zm0 0"/></g></svg>