<svg xmlns="http://www.w3.org/2000/svg" width="10" height="11" viewBox="0 0 10 11"><path d="M10 3.574c-.027-.136-.57-2.43-.684-2.867C9.203.273 8.52.109 8.148.109c-.37 0-1.507-.105-1.507-.105S6.637 0 6.523.219c-.113.215-.511.46-1.054.57-.54.11-1.055-.137-1.25-.3-.203-.165-.457-.485-.457-.485S2.535.082 2.25.109a2.62 2.62 0 00-.969.325c-.34.191-.539.382-.625.628C.57 1.31.113 2.7 0 3.466c.48.191 1.594.219 1.594.219l.097-.106s.13.817.274 1.25c.082.242.457 1.258.457 1.5 0 .246-.2 1.23-.313 1.559-.113.324-.343.926-.402 1.308-.055.383-.195 1.801-.195 1.801s6.976-.055 7.008-.164c.027-.383.039-1.89-.485-3.137-.207-.492-.203-1.8-.258-2.21-.058-.41.313-.93.426-1.118.117-.195.172-.492.172-.492l.227.082s1.425-.246 1.398-.383zM4.992 6.926s-2.195-.942-2.195-2.102v-.008c0-.578.492-1.043 1.098-1.043.605 0 1.097.465 1.097 1.043.004-.578.492-1.043 1.102-1.043.605 0 1.093.465 1.097 1.043v.008c0 1.16-2.199 2.102-2.199 2.102zm0 0" fill="#4d4d4d"/></svg>