<svg xmlns="http://www.w3.org/2000/svg" width="30" height="30"><circle style="isolation:auto;mix-blend-mode:normal;solid-color:#000;solid-opacity:1;marker:none" cx="15" cy="15" r="14.5" color="#000" overflow="visible" fill="gray" fill-rule="evenodd" stroke="#fff"/><path d="M15.008 23l-4.582-10.027h9.16zm2.441-14.543c0-.016-.004.027-.004.008C17.445 7.137 16.355 6 15 6c-1.352 0-2.45 1.078-2.45 2.406 0 .024.005.043.005.063 2.23.011 2.418 1.945 2.418 1.93.02-.797.78-1.747 2.476-1.942zm-2.531 2.906c0-.02-.008-.039-.008-.058-.031-1.254-1.039-2.27-2.316-2.336-.043-.004-.086-.012-.13-.012-1.355 0-2.456 1.078-2.456 2.406 0 .403.105.797.305 1.149h4.3c.2-.352.305-.75.305-1.149zm2.617-2.406c-.015 0-.027.004-.043.004-1.316.023-2.379 1.059-2.406 2.352 0 .019-.004.035-.004.05 0 .403.105.797.305 1.149h4.297c.199-.352.304-.746.304-1.149.004-1.328-1.097-2.406-2.453-2.406zm0 0" fill="#fff"/></svg>