<svg xmlns="http://www.w3.org/2000/svg" width="11" height="10" viewBox="0 0 11 10"><path d="M6.273 9.309L4.664 6.168c1.582-.309 1.531-1.742 1.434-2.371-.067-.45-1.578-.32-1.754-.32-.172 0-.469-.332-.813-.422-.347-.094-2.37-.024-2.488-.012-.117.012-1.023.16-.953.648C.293 5.04.945 5.68 1.793 5.977L.023 9.03c-.043.074-.011.168.07.207.083.04.184.012.227-.062l1.793-3.102c.102.024.203.047.309.063l-.7 3.433c-.015.082.044.164.137.18.09.016.176-.04.192-.125l.699-3.441c.176.02.355.03.535.039l.735 3.472a.165.165 0 00.109.117.197.197 0 00.168-.03.146.146 0 00.05-.145L3.626 6.23h.41c.102 0 .195-.007.285-.015l1.653 3.223c.039.078.136.109.222.074a.147.147 0 00.078-.203zM2.828 5.875s-.594-.293-.66-.777c-.07-.485.012-.793-.18-.953-.191-.157-.636-.157-.957-.258-.41-.13-.355-.371-.21-.422.245-.086 2.179-.149 2.617-.027.437.117.605.394.789.398.187.004 1.25-.016 1.34.023.163.067.296.422.163.918-.156.57-.464.871-1.074 1.07-.218.071-1.828.028-1.828.028zm6.168 3.129v-5.77h2L10.453 0H7.117l-.605 3.234H8.55v5.77c-1.094.023-1.953.238-1.953.496 0 .277.968.5 2.16.5 1.191 0 2.156-.223 2.156-.5 0-.258-.84-.469-1.918-.496zm0 0" fill="#4d4d4d"/></svg>