<svg xmlns="http://www.w3.org/2000/svg" width="11" height="6" viewBox="0 0 11 6"><path d="M9.254 2.344c-.234 0-.469.05-.684.148l-.617-1.004.203.004V.367c-.504 0-.707.223-.789.387l-1.3-.727a.22.22 0 00-.305.098l-.063.121a.248.248 0 00.094.324l.687.38c-2.437.316-2.539 1.128-2.625 1.066-.394-.274-2.125-.301-2.125-.301v.414c.454-.07.875.027 1.223.258-.004.008-.012.011-.015.015l-.223.254a1.678 1.678 0 00-2.13.153A1.887 1.887 0 00.2 5.012c.363.742 1.16 1.129 1.934.941.777-.187 1.332-.898 1.351-1.734l.375-.047c.07.152 1.543.43 2.856.293.367-.035.469-.52.469-.52l.082-2.312.035-.14.804 1.308a1.89 1.89 0 00-.343 2.312c.433.758 1.32 1.078 2.11.77.784-.313 1.245-1.172 1.093-2.04-.149-.866-.871-1.5-1.711-1.5zM2.766 3.488c.043.07.078.149.109.227l-.348.043zm-1.02 1.953c-.508 0-.965-.332-1.137-.832a1.311 1.311 0 01.356-1.406c.39-.344.941-.398 1.383-.133l-.774.875a.27.27 0 00.016.364l.062.062a.24.24 0 00.266.047l1.031-.133c-.054.656-.578 1.156-1.203 1.156zm1.668-1.793a1.808 1.808 0 00-.281-.578l.226-.257c.008-.008.012-.016.016-.024.172.223.305.496.387.813zM9.23 5.441c-.492 0-.933-.312-1.12-.789a1.326 1.326 0 01.277-1.39l.629 1.027c.082.133.25.172.379.086a.296.296 0 00.082-.398l-.618-1.012a1.168 1.168 0 011.27.36c.32.37.402.905.207 1.366a1.21 1.21 0 01-1.106.75zm0 0" fill="#4d4d4d"/></svg>