<svg xmlns="http://www.w3.org/2000/svg" width="10" height="6" viewBox="0 0 10 6"><g fill="#4d4d4d"><path d="M10 5.484C10 5.77 9.73 6 9.395 6h-.942C6.86 6 7.56 3.996 5.395 3.996h-.79C2.457 3.996 3.13 6 1.547 6H.605C.27 6 0 5.77 0 5.484l.684-3.683C.91.508 1.559 0 2.723 0c.898 0 .867.7 2.343.7C6.386.7 6.375 0 7.277 0c1.164 0 1.813.508 2.04 1.8zM7.566.535c-.855 0-1.55.754-1.55 1.684 0 .926.695 1.68 1.55 1.68.856 0 1.551-.754 1.551-1.68 0-.93-.695-1.684-1.55-1.684zM2.434.621c-.856 0-1.551.754-1.551 1.684.004.925.695 1.68 1.55 1.68.856 0 1.551-.755 1.551-1.68 0-.93-.695-1.684-1.55-1.684zm0 0"/><path d="M7.793 1.508c-.379.164-.68.492-.832.902a.39.39 0 01-.414.262.415.415 0 01-.34-.367.44.44 0 01.242-.45c.38-.164.68-.492.832-.902a.393.393 0 01.414-.262.411.411 0 01.34.368.435.435 0 01-.242.449zm-.148-.75c-.18 0-.325.16-.325.355 0 .196.145.352.325.352.18 0 .328-.156.328-.352 0-.195-.149-.355-.328-.355zM6.59 1.895c-.18 0-.324.16-.324.355 0 .195.144.355.324.355.18 0 .328-.16.328-.355 0-.195-.148-.355-.328-.355zm0 0M8.707 2.5c-.379.164-.68.492-.832.902a.388.388 0 01-.414.262c-.176-.023-.313-.176-.336-.367a.421.421 0 01.242-.445v-.004c.38-.164.68-.493.832-.903a.392.392 0 01.414-.261.412.412 0 01.336.367.43.43 0 01-.242.449zm-.145-.746c-.18 0-.328.156-.328.351 0 .196.149.356.329.356.18 0 .324-.16.324-.356 0-.195-.145-.351-.325-.351zM7.508 2.89c-.184 0-.328.156-.328.351 0 .196.144.356.328.356.18 0 .324-.16.324-.356 0-.195-.144-.351-.324-.351zm0 0M3.387 1.797h-.594v-.645c0-.152-.16-.277-.36-.277-.195 0-.355.125-.355.277v.645h-.594c-.14 0-.254.172-.254.387 0 .214.114.386.254.386h.594v.645c0 .152.16.277.356.277.199 0 .359-.125.359-.277V2.57h.594c.14 0 .254-.172.254-.386 0-.215-.114-.387-.254-.387zm0 0"/></g></svg>