<svg xmlns="http://www.w3.org/2000/svg" width="30" height="30"><circle style="isolation:auto;mix-blend-mode:normal;solid-color:#000;solid-opacity:1;marker:none" cx="15" cy="15" r="14.5" color="#000" overflow="visible" fill="#fff" fill-rule="evenodd" stroke="gray"/><path d="M17.344 11.273c.332-.613.648-1.25.652-2.562.004-.598-.308-1.695-.808-1.711-1.122-.031-1.793 1.82-1.856 2.262-.062.445.02 2.332.02 2.332-1.622.843-2.036 1.043-2.848 2.136-1.09 1.473-.512 4.79 2.809 4.883l.019 1.883c.023.39-.387 1.29-1.309 1.117-.57-.105-.847-.277-.968-.476a.866.866 0 00.738-.399.752.752 0 000-.797.863.863 0 00-.738-.394c-.47 0-.871.426-.871.863 0 0-.188.82.75 1.305 1.285.672 2.629.09 2.71-1.067.024-.355.028-1.097.04-2.043 2.757-.195 2.746-4.25.02-4.378 0-.508.003-1 .003-1.465.668-.348 1.211-.707 1.637-1.489zm-.094-3.207c.637-.043.422 1.567-.125 2.227-.258.309-.574.648-1.418 1.11V9.995c.188-1.262 1.203-1.906 1.543-1.93zm-.34 8.922c-.062.582-.508 1.106-1.226 1.25.007-.86.015-1.843.015-2.836.754.082 1.32.59 1.211 1.586zm-1.574-2.754c-1.438.133-1.984 1.602-1.531 2.61.246.547.84.676.84.676-.493-.688-.747-2.055.683-2.118l-.015 2.875c-.458.012-1.004-.113-1.618-.465-1.511-.878-1.312-2.94-.11-3.835.653-.48 1.24-.774 1.759-1.032zm0 0" fill="#4d4d4d"/></svg>