<svg xmlns="http://www.w3.org/2000/svg" width="11" height="9" viewBox="0 0 11 9"><path d="M.012 6.648l1.297-3.714a.184.184 0 00-.106-.23.504.504 0 01-.324-.474V.691c0-.378.3-.687.676-.687h8.117c.73 0 .621 0 .621.457h.277v.91h-.261c-.016.453-.016.453-.637.453H5.937a.18.18 0 00-.14.067l-.715.886c-.035.043-.113.301-.059.528.059.226.282.625.282.625s-.438-.078-.637-.485a.444.444 0 01-.043-.156l-.05-.418a.179.179 0 00-.216-.066.192.192 0 00-.105.12l-.39 1.243c.53.016 1.429.043 1.675.047.102-.137.274-.707.399-1.258l-.352.004.445-.68h4.035l-.109.625-3.676.047c-.347 1.602-.582 1.602-.695 1.602-.172 0-1.281-.032-1.828-.047l-.711 2.254a.18.18 0 01-.168.125h-2.7a.185.185 0 01-.148-.074.187.187 0 01-.02-.165zM11 6.484h-.285a2.198 2.198 0 01-2.082 2.114v.398h-.215v-.398c-1.113-.063-2.008-.98-2.055-2.114h-.312v-.109h.308c.008-1.172.918-2.133 2.059-2.195v-.317h.215v.317c1.152.047 2.078 1.011 2.086 2.195H11zM8.633 4.902a1.48 1.48 0 011.37 1.473h.474c-.008-1.047-.825-1.902-1.844-1.953zM6.602 6.375h.472c.008-.77.59-1.406 1.344-1.469v-.48c-1.008.062-1.809.91-1.816 1.949zm1.816 1.496a1.48 1.48 0 01-1.34-1.387h-.473c.047.996.832 1.805 1.813 1.868zM9.43 6.387c0-.5-.399-.907-.89-.907a.899.899 0 00-.892.907c0 .5.399.906.891.906s.89-.406.89-.906zm1.043.097H10a1.473 1.473 0 01-1.367 1.387v.48c.992-.046 1.793-.859 1.84-1.867zm-1.934-.71a.581.581 0 00-.578.585c0 .325.258.59.578.59.32 0 .578-.265.578-.59a.581.581 0 00-.578-.586zm0 0" fill="#4d4d4d"/></svg>