<svg xmlns="http://www.w3.org/2000/svg" width="11" height="10" viewBox="0 0 11 10"><g fill="#4d4d4d"><path d="M9.184 4.543a.275.275 0 00.332-.188.262.262 0 00-.2-.316l-1.164-.281 1.153-.664a.25.25 0 00.093-.356.28.28 0 00-.375-.09l-1.18.68.282-1.133a.257.257 0 00-.203-.312.27.27 0 00-.328.191l-.407 1.633-1.457.836V2.809l1.247-1.164a.25.25 0 00.003-.368.283.283 0 00-.386-.004l-.864.809V.844c0-.094-.05-.18-.136-.227a.283.283 0 00-.274 0 .257.257 0 00-.136.227v1.23l-.872-.808a.284.284 0 00-.386 0 .253.253 0 00.004.367l1.254 1.172v1.78l-1.59-.937-.387-1.617a.271.271 0 00-.324-.199.26.26 0 00-.207.313l.265 1.12-1.109-.652a.28.28 0 00-.375.086.25.25 0 00.09.356l1.101.648-1.183.274a.262.262 0 00-.203.316c.035.137.183.223.332.191L3.3 4.09l1.59.937-1.594.914-1.695-.41a.278.278 0 00-.332.188.26.26 0 00.199.316l1.172.285-1.114.64a.252.252 0 00-.093.356.28.28 0 00.375.09l1.113-.64-.281 1.129a.255.255 0 00.203.308.271.271 0 00.328-.191l.402-1.621 1.61-.926v1.687L3.94 8.312a.253.253 0 00-.003.368.288.288 0 00.386.004l.86-.801v1.281c0 .094.05.18.136.227a.283.283 0 00.274 0 .257.257 0 00.136-.227V7.855l.875.817c.051.047.122.074.192.074H6.8c.11 0 .207-.066.25-.164a.248.248 0 00-.063-.281L5.73 7.129v-1.61l1.465.864.38 1.61c.034.14.179.23.327.198a.264.264 0 00.207-.312l-.265-1.113 1.148.675c.13.075.297.04.38-.086A.25.25 0 009.281 7l-1.173-.691 1.192-.274a.262.262 0 00.203-.316c-.035-.137-.184-.223-.332-.192l-1.715.399-1.52-.895 1.56-.894zm0 0"/><path d="M7.664.422c.387 0 .766.07 1.121.215a2.863 2.863 0 011.54 1.46c.152.337.226.7.226 1.063v3.68c0 .363-.074.726-.227 1.062a2.863 2.863 0 01-1.539 1.461 2.966 2.966 0 01-1.12.215h-4.33c-.386 0-.765-.07-1.12-.215a2.863 2.863 0 01-1.54-1.46A2.572 2.572 0 01.45 6.84V3.16c0-.363.074-.726.227-1.062A2.863 2.863 0 012.215.637a2.966 2.966 0 011.12-.215h4.33m0-.422h-4.33C1.505 0 .005 1.422.005 3.16v3.68c0 1.738 1.5 3.16 3.332 3.16h4.328c1.832 0 3.332-1.422 3.332-3.16V3.16c0-1.738-1.5-3.16-3.332-3.16zm0 0"/></g></svg>