<svg xmlns="http://www.w3.org/2000/svg" width="10" height="7" viewBox="0 0 10 7"><g fill="#4d4d4d"><path d="M.152 5.586a1.06 1.06 0 00-.148.566c1.101.79 4.52.614 5.922.48.004.087.011.2.011.356.465.063 3.317-.14 3.915-.328.007-.21-.032-.98-.036-1.168-.914.016-2.754-.187-3.738.485-1.379.128-4.664.293-5.926-.391zm0 0"/><path d="M9.98 3.809c-.066-.653-.308-1.34-.82-1.696 0-.449-.043-1.23-.043-1.68C8.305.427 7.395.419 6.605.427 6.332.242 5.937-.02 5.758 0l-.051.012c-.266.086-.574.629-.82 1.066a4.417 4.417 0 00-.219.547v.004a.668.668 0 000 .125c-.129.113-.25.238-.367.367l.254.293.707.207c.14.043.254.164.258.277 0 .075-.047.125-.125.137a.252.252 0 01-.122-.008l-.257-.078c.07.094.097.223.058.29a.09.09 0 01-.066.046c-.047.008-.11-.023-.16-.082l-.344-.402-.543-.16h-.004c-.098.144-.215.289-.352.421l.07.126.63.117a.27.27 0 01.215.242.158.158 0 01-.133.168c-.02 0-.043 0-.067-.004l-.386-.07.03.058c.052.086.056.203.013.262a.09.09 0 01-.047.031c-.043.004-.086-.027-.121-.082l-.184-.324-.375-.07a.235.235 0 01-.11-.051 6.02 6.02 0 01-.32.23l.047.133.371.121c.09.028.164.14.164.254 0 .082-.043.145-.105.152a.1.1 0 01-.059-.003l-.199-.067.02.055c.035.094.023.21-.028.262-.011.015-.023.023-.039.023-.043.008-.086-.031-.11-.094l-.124-.336-.356-.117a.237.237 0 01-.101-.074c-.266.14-.512.25-.703.32-.496.172-1.47.172-1.438.895 1.082.793 3.582.86 5.824.48 1.32-.812 3.188-.308 3.84-.515.14-.297.207-.825.156-1.375zM4.754 1.734a.204.204 0 01.027-.129 10.1 10.1 0 00.211-.359c.227-.402.54-.953.774-1.027h.004C5.78.215 5.793.21 5.8.21c.013 0 .02-.004.032-.004.145 0 .387.094.606.219-.012 0 .269.191.363.293.027.027.05.054.07.086.004.007.004.02.004.027V.84c.04.398-.25.683-.496.855-.348.239-.77.36-1.05.39h-.005a.944.944 0 01-.344-.008.295.295 0 01-.183-.143.996.996 0 01-.043-.2zm0 0"/></g></svg>