<svg xmlns="http://www.w3.org/2000/svg" width="30" height="30"><circle style="isolation:auto;mix-blend-mode:normal;solid-color:#000;solid-opacity:1;marker:none" cx="15" cy="15" r="14.5" color="#000" overflow="visible" fill="#fff" fill-rule="evenodd" stroke="gray"/><path d="M18.98 8.953c-.003 0-.003 0-.003.004l-5.133 11.914c-.422.953-1.121 1.5-1.922 1.5H8.547c-.93 0-1.727-.738-1.715-1.64.016-.922.79-1.59 1.848-1.59h3.273c.293 0 .559.207.586.492.012.152-.039.3-.144.414a.567.567 0 01-.415.176h-3.3c-.438 0-.723.203-.73.52-.005.3.269.542.577.542h3.395c.324 0 1.008-.527 1.238-1.055L18.418 8.3c.078-.495.016-1.257-.207-1.3h-5.828c-.004 0-.004 0-.004.004 0 0-6.152 11.926-6.262 12.574-.113.652-.113 1.3-.113 1.3.039.544.223 2.145 2.055 2.122h9.285c.004 0 .004 0 .008-.004l5.644-14.058v-.004c-.004-.004-.004-.004-.008-.004zm.165 3.035a.387.387 0 01-.391-.379c0-.21.176-.379.39-.379.215 0 .391.168.391.38a.387.387 0 01-.39.378zm.558-1.41a.384.384 0 01-.39-.379c0-.21.175-.379.39-.379.215 0 .39.168.39.38 0 .21-.175.378-.39.378zm1.117 1.086a.387.387 0 01-.39-.379c0-.21.175-.383.39-.383.22 0 .395.172.395.383a.388.388 0 01-.395.38zm-2.234 1.734a.387.387 0 01-.39-.378c0-.211.175-.38.39-.38.215 0 .39.169.39.38a.387.387 0 01-.39.378zm1.676-.324a.388.388 0 01-.39-.383c0-.207.175-.378.39-.378.218 0 .39.171.39.378 0 .211-.172.383-.39.383zm-2.348 1.95a.384.384 0 01-.39-.38c0-.21.175-.378.39-.378.215 0 .39.168.39.379 0 .21-.175.378-.39.378zm1.68-.325a.388.388 0 01-.395-.379c0-.21.176-.379.395-.379.215 0 .39.168.39.38a.387.387 0 01-.39.378zm-2.239 2.059a.384.384 0 01-.39-.38c0-.206.176-.378.39-.378.215 0 .391.172.391.379 0 .21-.176.379-.39.379zm1.676-.324a.384.384 0 01-.39-.38c0-.21.175-.378.39-.378.219 0 .395.168.395.379 0 .21-.176.379-.395.379zm-2.683 2.062a.388.388 0 01-.391-.383c0-.207.176-.379.39-.379.22 0 .391.172.391.38 0 .21-.172.382-.39.382zm1.68-.328a.382.382 0 01-.391-.379c0-.21.172-.379.39-.379.215 0 .391.168.391.38 0 .21-.176.378-.39.378zm-2.348 1.953a.388.388 0 01-.395-.379c0-.21.176-.379.395-.379.215 0 .39.168.39.38a.387.387 0 01-.39.378zm1.675-.324a.387.387 0 01-.39-.379c0-.211.176-.383.39-.383.215 0 .391.172.391.383a.387.387 0 01-.39.379zm-2.46 2.277a.388.388 0 01-.391-.383c0-.207.176-.378.39-.378.215 0 .391.171.391.378 0 .211-.176.383-.39.383zm1.68-.328a.385.385 0 01-.395-.379c0-.207.175-.379.394-.379.215 0 .39.172.39.38 0 .21-.175.378-.39.378zm4.808-11.383a.389.389 0 01-.395-.383c0-.207.176-.378.395-.378.215 0 .39.171.39.378 0 .211-.175.383-.39.383zm0 0" fill="#4d4d4d"/></svg>