<svg xmlns="http://www.w3.org/2000/svg" width="30" height="30"><circle style="isolation:auto;mix-blend-mode:normal;solid-color:#000;solid-opacity:1;marker:none" cx="15" cy="15" r="14.5" color="#000" overflow="visible" fill="#fff" fill-rule="evenodd" stroke="gray"/><path d="M18.43 7l2.761 8.25c-5.168 5.668-13.187 7.594-13.187 7.594l2.21-10.992C16.52 10.453 18.43 7 18.43 7zm-7.328 5.746l-.774 3.953c3.192-.894 6.277-1.976 8.707-4.215l-.965-3.242s-2.324 2.266-6.968 3.504zm10.48 5.352l-.664-1.399c-2.215 2.27-8.137 5.238-7.938 5.113 0 0 6.415-1.87 8.602-3.714zm.414 2.715l-.664-1.766c-2.629 1.765-8.848 3.426-8.848 3.426.758.308 9.364-1.282 9.512-1.66zm0 1.976l-.36-1.027c-2.491.336-4.398.843-9.152 1.238zm0 0" fill="#4d4d4d"/></svg>