<svg xmlns="http://www.w3.org/2000/svg" width="6" height="10" viewBox="0 0 6 10"><path d="M5.133 9.996H.867c-.48 0-.867-.36-.867-.805V.81C0 .363.387.004.867.004h4.266c.48 0 .867.36.867.805V9.19c0 .446-.387.805-.867.805zM3.71 1.141V.902C3.71.867 3.68.84 3.645.84h-1.29c-.035 0-.066.027-.066.062v.239c0 .03.031.058.066.058h1.29c.035 0 .066-.027.066-.058zm1.742 6.882V1.918c0-.031-.031-.059-.066-.059H.613c-.035 0-.066.028-.066.059v6.105c0 .032.031.059.066.059h4.774c.035 0 .066-.027.066-.059zM3 8.56c-.305 0-.547.23-.547.511 0 .282.242.508.547.508.305 0 .547-.226.547-.508 0-.28-.242-.511-.547-.511zm0 0" fill="#4d4d4d"/></svg>