<svg xmlns="http://www.w3.org/2000/svg" width="30" height="30"><circle style="isolation:auto;mix-blend-mode:normal;solid-color:#000;solid-opacity:1;marker:none" cx="15" cy="15" r="14.5" color="#000" overflow="visible" fill="#fff" fill-rule="evenodd" stroke="gray"/><path d="M16.82 10.75l1.203-1.438L14.57 6l-3.46 3.336 1.167 1.375C9.785 11.598 8 13.934 8 16.664 8 20.156 10.914 23 14.5 23s6.5-2.844 6.5-6.336c0-2.695-1.738-5.004-4.18-5.914zm-1.097-2.547l2.148 1.129-2.492-.754-.816-2.32zm-2.41.027l1.207-1.972-.801 2.324-2.43.73zM14.5 21.895c-2.96 0-5.367-2.344-5.367-5.23 0-2.395 1.664-4.419 3.922-5.036l1.511.773 1.493-.742c2.199.653 3.808 2.649 3.808 5.004 0 2.887-2.406 5.23-5.367 5.23zm0 0" fill="#4d4d4d"/></svg>