<svg xmlns="http://www.w3.org/2000/svg" width="30" height="30"><circle style="isolation:auto;mix-blend-mode:normal;solid-color:#000;solid-opacity:1;marker:none" cx="15" cy="15" r="14.5" color="#000" overflow="visible" fill="#fff" fill-rule="evenodd" stroke="gray"/><path d="M17.738 15.324c0 1.57-1.218 2.84-2.718 2.84-1.504 0-2.723-1.27-2.723-2.84 0-1.566 1.219-2.836 2.723-2.836 1.5 0 2.718 1.27 2.718 2.836zM23 11.531v7.13c0 .737-.574 1.335-1.281 1.335H8.28C7.574 19.996 7 19.398 7 18.66v-7.129c0-.738.574-1.336 1.281-1.336h3.824v-.558c.004-.348.274-.633.61-.633h4.7c.335 0 .608.285.608.633v.558h3.696c.707 0 1.281.598 1.281 1.336zm-4.176 4.453c.418-2.73-1.82-5.066-4.441-4.629-1.63.278-2.906 1.61-3.172 3.31-.418 2.733 1.82 5.07 4.441 4.632 1.63-.277 2.907-1.61 3.172-3.313zm2.735-4.5H18.82v.88h2.739zm0 0" fill="#4d4d4d"/></svg>