<svg xmlns="http://www.w3.org/2000/svg" width="30" height="30"><circle style="isolation:auto;mix-blend-mode:normal;solid-color:#000;solid-opacity:1;marker:none" cx="15" cy="15" r="14.5" color="#000" overflow="visible" fill="gray" fill-rule="evenodd" stroke="#fff"/><g fill="#fff"><path d="M22.55 22.996H8.384C7.047 22.996 6 21.984 6 20.688v-.446c0-1.297 1.047-2.308 2.383-2.308h14.246c.191 0 .344.156.344.347a.346.346 0 01-.344.352H8.383c-.965 0-1.692.691-1.692 1.61v.445c0 .917.727 1.609 1.692 1.609H22.55a.35.35 0 010 .7zm0 0"/><path d="M22.05 21.766H8.474a1.276 1.276 0 01-1.266-1.282c0-.707.566-1.28 1.266-1.28h13.5s-.637 1.808.078 2.562zm0 0M22.566 12.066H8.398c-1.335 0-2.382-1.015-2.382-2.308v-.445c0-1.297 1.046-2.31 2.382-2.31h14.247c.19 0 .343.157.343.349a.346.346 0 01-.343.351H8.398c-.964 0-1.691.692-1.691 1.61v.445c0 .918.727 1.61 1.691 1.61h14.168a.35.35 0 010 .698zm0 0"/><path d="M22.066 10.836H8.488a1.276 1.276 0 01-1.265-1.281c0-.707.566-1.282 1.265-1.282h13.5s-.636 1.809.078 2.563zm0 0M22.578 17.512H8.41c-1.336 0-2.383-1.012-2.383-2.309v-.445c0-1.297 1.047-2.309 2.383-2.309h14.246c.188 0 .344.156.344.348a.348.348 0 01-.344.351H8.41c-.965 0-1.691.692-1.691 1.61v.445c0 .918.726 1.61 1.691 1.61h14.168c.192 0 .344.156.344.351a.345.345 0 01-.344.348zm0 0"/><path d="M22.078 16.281H8.5A1.276 1.276 0 017.234 15c0-.707.567-1.281 1.266-1.281H22s-.64 1.808.078 2.562zm0 0"/></g></svg>