<svg xmlns="http://www.w3.org/2000/svg" width="30" height="30"><circle style="isolation:auto;mix-blend-mode:normal;solid-color:#000;solid-opacity:1;marker:none" cx="15" cy="15" r="14.5" color="#000" overflow="visible" fill="#fff" fill-rule="evenodd" stroke="gray"/><g fill="#4d4d4d"><path d="M15.598 16.453c0 1.129-.942 2.047-2.106 2.047-1.16 0-2.101-.918-2.101-2.047s.941-2.043 2.101-2.043c1.164 0 2.106.914 2.106 2.043zm0 0M16.66 16.234a.57.57 0 01-.574-.507.567.567 0 01.465-.606l4.762-.887a.576.576 0 01.675.446.56.56 0 01-.457.656l-4.761.89a.96.96 0 01-.11.008zm0 0M21.035 19.645a.581.581 0 01-.183-.028l-4.278-1.402a.556.556 0 01-.363-.711.58.58 0 01.73-.356l4.282 1.403c.265.09.43.351.386.625a.577.577 0 01-.574.469zm0 0M15.844 14.695a.572.572 0 01-.535-.355.548.548 0 01.136-.617l3.606-3.317a.595.595 0 01.82.024.551.551 0 01-.023.793l-3.606 3.316a.582.582 0 01-.398.156zm0 0"/><path d="M12.387 23c-.172 0-.344-.012-.516-.035-.98-.121-1.687-.64-2.105-1.535-.332-.715-.442-1.575-.536-2.336-.09-.692-.18-1.403-.414-1.723-1.02-1.379-1.617-2.726-1.773-4.004-.14-1.148.066-2.222.617-3.195.715-1.258 1.809-2.016 2.602-2.426 1.004-.523 2.093-.789 2.996-.738 1.894.11 2.77 1.035 3.172 1.789.422.797.406 1.55.402 1.633a.555.555 0 01-.582.523.55.55 0 01-.54-.562c0-.02.009-.575-.3-1.125-.394-.711-1.14-1.106-2.219-1.168-.691-.04-1.586.187-2.398.609-.93.484-1.695 1.191-2.148 1.992-.957 1.692-.582 3.778 1.085 6.035.403.547.508 1.364.614 2.227.09.715.183 1.457.445 2.016.258.55.637.832 1.227.906.597.074 1.078-.028 1.421-.305.594-.476.668-1.336.668-1.344.024-.3.29-.53.602-.511.309.02.543.28.523.582-.003.054-.101 1.336-1.078 2.117-.48.383-1.07.578-1.765.578zm0 0"/></g></svg>