<svg xmlns="http://www.w3.org/2000/svg" width="30" height="30"><circle style="isolation:auto;mix-blend-mode:normal;solid-color:#000;solid-opacity:1;marker:none" cx="15" cy="15" r="14.5" color="#000" overflow="visible" fill="#fff" fill-rule="evenodd" stroke="gray"/><g fill="#4d4d4d"><path d="M23 18.223c0 .43-.434.777-.969.777h-1.508c-2.55 0-1.43-3.004-4.89-3.004h-1.266c-3.437 0-2.363 3.004-4.89 3.004H7.969C7.434 19 7 18.652 7 18.223l1.09-5.524C8.457 10.766 9.496 10 11.36 10c1.437 0 1.382 1.05 3.745 1.05 2.114 0 2.098-1.05 3.536-1.05 1.863 0 2.902.766 3.27 2.7zm-3.895-7.418c-1.37 0-2.48 1.129-2.48 2.523 0 1.39 1.11 2.52 2.48 2.52 1.368 0 2.48-1.13 2.48-2.52 0-1.394-1.112-2.523-2.48-2.523zm-8.21.129c-1.368 0-2.48 1.129-2.48 2.52 0 1.394 1.112 2.523 2.48 2.523 1.37 0 2.48-1.13 2.48-2.524 0-1.39-1.11-2.52-2.48-2.52zm0 0"/><path d="M19.469 12.258a2.44 2.44 0 00-1.332 1.355.63.63 0 01-.66.395.634.634 0 01-.543-.551.637.637 0 01.386-.672 2.44 2.44 0 001.332-1.355.624.624 0 01.66-.39.634.634 0 01.543.546.64.64 0 01-.386.672zm-.235-1.121a.528.528 0 00-.523.531c0 .293.234.531.523.531.286 0 .52-.238.52-.531a.527.527 0 00-.52-.531zm-1.687 1.707a.528.528 0 00-.524.531c0 .293.235.531.524.531.285 0 .52-.238.52-.531a.527.527 0 00-.52-.531zm0 0M20.934 13.75a2.44 2.44 0 00-1.332 1.355.626.626 0 01-.66.391.63.63 0 01-.544-.55.645.645 0 01.387-.673 2.44 2.44 0 001.332-1.355v.004a.626.626 0 01.66-.395.634.634 0 01.543.551.645.645 0 01-.386.672zm-.235-1.121a.528.528 0 00-.523.531c0 .293.234.531.523.531.29 0 .52-.238.52-.53a.524.524 0 00-.52-.532zm-1.687 1.703a.528.528 0 00-.524.531c0 .293.235.532.524.532.285 0 .52-.239.52-.532a.527.527 0 00-.52-.531zm0 0M12.418 12.695h-.953v-.968c0-.227-.254-.415-.57-.415-.317 0-.57.188-.57.415v.968h-.95c-.227 0-.41.258-.41.582 0 .32.183.578.41.578h.95v.97c0 .226.253.413.57.413.316 0 .57-.187.57-.414v-.969h.953c.223 0 .406-.257.406-.578 0-.324-.183-.582-.406-.582zm0 0"/></g></svg>