<svg xmlns="http://www.w3.org/2000/svg" width="10" height="10" viewBox="0 0 10 10"><g fill="#4d4d4d"><path d="M5.176 7.73c.058-.539.125-2.304.668-3.207.265-.433-.407-2.043-.407-2.043s.106-.046.184-.386l-.66.011-.254.008-.062.223c-.016.055-.168.539-.704.562h-.063c-.534-.023-.687-.507-.702-.558l-.063-.227-1.308-.023L0 3.43l1.176 1.816.465-.187v3.347l2.27-.031 1.124.016c.067-.266.121-.508.14-.66zm0 0"/><path d="M5.758.32l.629-.308S6.43 1.156 7.46 1.168C8.488 1.18 8.605 0 8.605 0l.543.297s-.207 1.582-.03 1.863l.175.285s-.586 1.657-.438 2c.09.211.485.7.645 3.157.086 1.32.5 2.226.5 2.226s-2.352.336-5.168.067c0 0 .527-1.649.586-2.188.059-.535.129-2.305.672-3.203.262-.438-.406-2.047-.406-2.047s.191-.082.25-.86C5.992.82 5.758.32 5.758.32zm0 0"/></g></svg>