<svg xmlns="http://www.w3.org/2000/svg" width="30" height="30"><circle style="isolation:auto;mix-blend-mode:normal;solid-color:#000;solid-opacity:1;marker:none" cx="15" cy="15" r="14.5" color="#000" overflow="visible" fill="gray" fill-rule="evenodd" stroke="#fff"/><path d="M9.613 8.527l.09.313c-.05.164-.05.285-.004.355.043.07.149.117.309.145l.258.222 1.02 1.622.444-.25 4.305 6.836-.562 1.476-1.606.918-1.672-.207-4.304-6.836.433-.246-1.023-1.625-.082-.32c.05-.149.054-.258.011-.328-.046-.07-.156-.125-.332-.164l-.246-.223-.586-.93-.043-.14L6 8.133l.145-.246 1.55-.883L7.992 7l.926.496.11.102zm6.285 11.239l-1.515.863c.992 1.238 3.02 3.172 5.336 2.02 2.074-1.036 1.187-3.68.351-6.16-.492-1.47-.957-2.86-.683-3.204.515-.652 2.726 1.121 3.613 1.875v-2.133c-1.555-1.066-3.86-2.222-5.023-.75-.82 1.035-.22 2.828.414 4.72.617 1.827 1.27 3.78.507 4.16-1.128.562-2.3-.532-3-1.391zm-6.812-6.23l3.531 5.609.551-.317-3.527-5.605zm-.254-.95l1.95-1.113L9.851 10l-1.95 1.11zm.5-2.941a.776.776 0 01-.23-.372l-1.52.868c.117.097.2.222.238.363zm-2.738-1.36l.015.774.457.722 1.95-1.113-.457-.723-.707-.379zm0 0" fill-rule="evenodd" fill="#fff"/></svg>