<svg xmlns="http://www.w3.org/2000/svg" width="30" height="30"><circle style="isolation:auto;mix-blend-mode:normal;solid-color:#000;solid-opacity:1;marker:none" cx="15" cy="15" r="14.5" color="#000" overflow="visible" fill="#fff" fill-rule="evenodd" stroke="gray"/><g fill="#4d4d4d"><path d="M14.719 7.945c.105.59-.121 1.125-.504 1.2-.383.074-.778-.348-.88-.938-.105-.59.122-1.125.505-1.2.383-.073.777.348.879.938zm0 0M13.316 9.168c.227.473.137 1-.207 1.176-.34.176-.8-.063-1.027-.54-.227-.472-.133-1 .207-1.179.344-.176.8.066 1.027.543zm0 0M17.523 8.602c.364.117.536.625.387 1.128-.152.508-.57.825-.933.707-.364-.117-.536-.624-.387-1.128.152-.508.566-.825.933-.707zm0 0M16.113 7.008c.383.074.606.613.504 1.203-.105.59-.5 1.008-.883.934-.382-.075-.605-.61-.5-1.2.102-.59.496-1.011.88-.937zm0 0M12.988 11.336s.461-.61.68-.848c.219-.234.512-.789.512-.789.199-.277.515-.441.851-.437.336.004.653.172.848.453 0 0 .258.578.445.82.192.238.688.797.688.797.457.711 0 1.656-.77 1.625a.125.125 0 01-.055-.012c-.148-.05-.89-.285-1.21-.285-.356.004-1.079.235-1.207.274-.016.004-.028.004-.04.004-.777-.02-1.214-.95-.742-1.602zm0 0M14.648 15.203c-.18-.137-6.765-4.898-7.199-4.387-.32.36 3.942 4.258 5.418 5.575l1.813-1.164zm0 0M13.672 17.063l.164.128-.106-.168zm0 0M22.031 19.027l-.508-.441a1.792 1.792 0 00-.586-1.68 1.635 1.635 0 00-1.703-.273c-.57.238-.972.785-1.043 1.422l-1.187-.957c.008.105-.067.23-.192.312-.16.106-.355.098-.425-.02l-.926-1.472-.246.156.926 1.473a.204.204 0 01.027.082l2.352 1.734c.003-.004.05.04.054.032.367.488.93.707 1.559.601a1.67 1.67 0 001.027-.605l.61.433s1.168.406 1.226-.156c.059-.563-.965-.64-.965-.64zm-1.965.23c-.53.087-1.03-.288-1.117-.843-.086-.55.278-1.07.809-1.16.531-.09 1.031.285 1.117.84.086.55-.277 1.074-.809 1.164zm0 0"/><path d="M15.977 17.945c-.16.106-.352.098-.426-.02l-.785-1.245a.377.377 0 00.035-.47.342.342 0 00-.434-.12.347.347 0 01.41.101c.102.125.11.305.024.438a.342.342 0 01-.399.144l.844 1.348c.031.05.031.11.012.176l1.71 1.328h.005c-.739.324-1.153 1.14-1 1.957.156.816.836 1.406 1.636 1.418.797.012 1.496-.563 1.668-1.375.172-.813-.222-1.64-.953-1.98-.46-.422-1.484-1.22-2.234-1.801a.556.556 0 01-.113.101zm2.617 3.137c.082.555-.278 1.074-.809 1.164-.531.086-1.031-.289-1.117-.844-.086-.55.277-1.07.809-1.16.53-.09 1.03.285 1.117.84zm0 0M12.68 16.492L7.242 19.98c-.363.235-.238.547-.129.727.04.078.082.152.133.223l1.102 1.789c.027.043.097.043.156 0 .058-.04.086-.106.055-.145l-1.016-1.648a.804.804 0 00.187-.082l1 1.62c.032.044.106.048.16.009.06-.043.087-.106.055-.149l-.996-1.62.168-.11 1 1.62c.028.044.106.048.164.009.055-.04.082-.106.051-.149l-.996-1.617.172-.11.996 1.618c.027.043.105.05.164.008.059-.04.082-.106.055-.145l-1-1.621.172-.105.996 1.617c.03.039.105.047.164.008.058-.043.082-.106.054-.149l-.996-1.617.168-.11.996 1.618c.032.043.106.047.164.008.059-.04.082-.106.055-.149L9.5 19.715l.172-.11.992 1.614c.031.043.106.05.164.008.059-.04.082-.106.055-.145l-.996-1.617.172-.11.996 1.618c.027.039.101.047.16.007.058-.043.086-.105.055-.148l-.997-1.613.172-.11.996 1.614c.028.043.102.05.16.007.06-.039.086-.105.055-.148l-.992-1.613.168-.11.996 1.614c.027.043.106.05.16.007.059-.039.086-.105.055-.144l-.992-1.613.172-.11.992 1.614c.027.039.105.046.164.007.058-.043.082-.105.05-.148l-.992-1.613.172-.11.993 1.614c.03.043.105.05.164.007.058-.039.082-.105.054-.148l-.992-1.61.168-.109.992 1.61c.032.043.106.05.164.011.059-.043.082-.11.055-.148l-.992-1.613.168-.11.992 1.613c.031.04.105.047.164.008.059-.043.082-.105.055-.148l-.992-1.61.171-.109.989 1.61c.031.042.105.05.164.007.058-.039.082-.105.054-.144l-.992-1.614.188-.117.972 1.63c.028.038.102.042.16.003.06-.043.083-.11.055-.148l-.968-1.625.09-.055-.313-.242c-.027-.024-.211-.18-.492-.434zm0 0"/><path d="M14.473 18.602c.07.117.246.136.406.03a.472.472 0 00.191-.234l-1.422-1.105zm0 0M17.152 16.91l-.925-1.473.246-.156.93 1.465c.074.117.25.137.41.031.16-.109.253-.293.18-.41l-.93-1.46.242-.157.93 1.46c.074.118.269.126.43.02.16-.105.233-.28.16-.398l-.927-1.46.332-.216.93 1.461c.074.117.266.125.426.02.16-.106.238-.282.164-.399l-.93-1.457.246-.156.922 1.46c.075.118.27.126.43.017.164-.106.234-.278.16-.395l-.922-1.46.246-.157.922 1.46c.07.118.266.126.426.02.164-.11.234-.28.164-.398l-.922-1.461.242-.156.883 1.488c.074.113.266.121.43.016.16-.106.21-.266.137-.383l-1.13-1.875-.074-.114c-.113-.195-.425-.214-.69-.046l-5.454 3.496 2.32 1.867c-.004-.031.012-.07-.004-.094zm0 0M14.176 16.508a.37.37 0 01.191-.418.373.373 0 00-.21.355.363.363 0 00.245.328l-.007-.007a.351.351 0 01-.22-.258zm0 0"/><path d="M15.215 16.074l.246-.156.926 1.473c.07.117.265.125.425.02.125-.083.2-.208.192-.313l-2.324-1.871-1.813 1.164c.281.25.461.41.492.43l.313.242.058-.04.106.168 1.422 1.106c.02-.067.02-.125-.012-.176l-.844-1.348a.372.372 0 01-.25-.363.37.37 0 01.27-.348.347.347 0 01.394.172.377.377 0 01-.05.446l.785 1.246c.074.117.265.125.426.02a.556.556 0 00.113-.102c-.309-.235-.57-.434-.735-.555-.054-.043.106-.152.122-.172l.691.512a.204.204 0 00-.027-.082zm0 0"/></g></svg>