<svg xmlns="http://www.w3.org/2000/svg" width="10" height="7" viewBox="0 0 10 7"><g fill="#4d4d4d"><path d="M9.902 4.188H.098c-.055 0-.098.046-.098.105v2.594c0 .062.043.11.098.11h.304c.055 0 .102-.048.102-.11v-.38c0-.062.043-.109.098-.109H9.57c.055 0 .102.047.102.11v.379c0 .062.043.11.098.11h.132c.055 0 .098-.048.098-.11V4.293c0-.059-.043-.106-.098-.106zM9.57 5.98H.602c-.055 0-.098-.046-.098-.109v-.976c0-.06.043-.11.098-.11H9.57c.055 0 .102.05.102.11v.976c0 .063-.047.11-.102.11zm0 0M9.266 3.734l-.957-1.226a.11.11 0 01-.024-.07V.112c0-.062-.043-.11-.098-.11H1.82c-.054 0-.097.048-.097.11v2.39h.02l-.77 1.204a.117.117 0 00-.004.113c.015.04.05.059.086.059l8.136.035a.1.1 0 00.09-.062.125.125 0 00-.015-.118zM7.957 2.36h-.375a.385.385 0 00.07-.39.324.324 0 00-.3-.223H5.777a.324.324 0 00-.3.223.385.385 0 00.07.39h-.863a.386.386 0 00.074-.39.329.329 0 00-.305-.223h-1.57a.329.329 0 00-.305.223.395.395 0 00.074.39h-.468V.473h5.773zm0 0"/></g></svg>