<svg xmlns="http://www.w3.org/2000/svg" width="30" height="30"><circle style="isolation:auto;mix-blend-mode:normal;solid-color:#000;solid-opacity:1;marker:none" cx="15" cy="15" r="14.5" color="#000" overflow="visible" fill="gray" fill-rule="evenodd" stroke="#fff"/><path d="M22.293 19.152v-8.808c0-.778-.543-1.336-1.344-1.344H8.051c-.801.008-1.344.566-1.344 1.344v8.808H6v1.121c0 .403.406.727.906.727h15.235c.5 0 .859-.375.859-.777v-1.07zM7.418 10.2a.45.45 0 01.441-.46h13.282a.45.45 0 01.441.46v8.586H7.418zm.352 10.063h-.352v-.371h.352zm1.062 0H8.48v-.371h.352zm7.086-.739h-2.836c-.41 0-.5-.37-.5-.37h3.836s-.09.37-.5.37zm0 0" fill="#fff"/></svg>