<svg xmlns="http://www.w3.org/2000/svg" width="11" height="10" viewBox="0 0 11 10"><path d="M8.398 1.219l-.003.004-3.32 7.449c-.274.594-.727.933-1.243.933H1.648c-.601 0-1.117-.46-1.109-1.023.008-.578.508-.996 1.195-.996h2.118c.191 0 .363.133.378.309a.327.327 0 01-.093.261.365.365 0 01-.266.11H1.734c-.28 0-.468.125-.472.324-.004.187.175.34.375.34h2.195c.211 0 .652-.332.8-.66L8.036.813c.05-.31.012-.786-.133-.813H4.13l-.004.004S.148 7.457.075 7.864c-.071.406-.071.812-.071.812.023.336.144 1.34 1.328 1.324H7.34c.004 0 .004 0 .004-.004l3.652-8.785v-.004h-.004zm.106 1.898a.244.244 0 01-.25-.238c0-.129.113-.234.25-.234.14 0 .254.105.254.234 0 .133-.113.238-.254.238zm.363-.879c-.14 0-.254-.11-.254-.238 0-.133.114-.238.254-.238s.254.105.254.238c0 .129-.113.238-.254.238zm.723.676c-.14 0-.254-.105-.254-.238 0-.13.113-.235.254-.235.14 0 .254.106.254.235 0 .133-.114.238-.254.238zM8.145 4c-.141 0-.254-.11-.254-.238 0-.133.113-.239.254-.239.14 0 .253.106.253.239 0 .129-.113.238-.253.238zm1.085-.203c-.14 0-.253-.11-.253-.238 0-.133.113-.239.253-.239.137 0 .25.106.25.239a.247.247 0 01-.25.238zM7.71 5.016c-.14 0-.253-.106-.253-.239 0-.129.113-.238.254-.238.137 0 .25.11.25.238a.244.244 0 01-.25.239zm1.083-.204a.244.244 0 01-.25-.238c0-.129.113-.238.25-.238.14 0 .254.11.254.238 0 .133-.113.239-.254.239zm-1.445 1.29c-.141 0-.254-.11-.254-.239 0-.133.113-.238.254-.238.14 0 .254.105.254.238 0 .13-.114.239-.254.239zm1.086-.207c-.141 0-.254-.106-.254-.235 0-.133.113-.238.254-.238.14 0 .254.105.254.238 0 .13-.114.235-.254.235zM6.695 7.184c-.14 0-.254-.106-.254-.239 0-.129.114-.234.254-.234s.254.105.254.234c0 .133-.113.239-.254.239zm1.086-.204c-.14 0-.254-.105-.254-.238 0-.129.114-.234.254-.234s.254.105.254.234c0 .133-.113.238-.254.238zM6.261 8.2c-.14 0-.253-.106-.253-.235 0-.133.113-.238.254-.238.14 0 .254.105.254.238 0 .129-.114.234-.254.234zm1.087-.204c-.141 0-.254-.105-.254-.234 0-.133.113-.239.254-.239.14 0 .254.106.254.239 0 .129-.114.234-.254.234zM5.754 9.422a.247.247 0 01-.25-.238c0-.133.113-.239.25-.239.14 0 .254.106.254.239 0 .129-.113.238-.254.238zm1.086-.203c-.14 0-.254-.11-.254-.239 0-.132.113-.238.254-.238.14 0 .254.106.254.238 0 .13-.114.239-.254.239zm3.113-7.117c-.14 0-.254-.106-.254-.239 0-.129.114-.238.254-.238s.254.11.254.238c0 .133-.113.239-.254.239zm0 0" fill="#4d4d4d"/></svg>