<svg xmlns="http://www.w3.org/2000/svg" width="30" height="30"><circle style="isolation:auto;mix-blend-mode:normal;solid-color:#000;solid-opacity:1;marker:none" cx="15" cy="15" r="14.5" color="#000" overflow="visible" fill="gray" fill-rule="evenodd" stroke="#fff"/><path d="M7.516 17.613c-.297-1.199 1.183-1.996 2.925-2.02.563-.007 1.297.45 1.473.645.09.098-.023.532-.086.469-.168-.172-.816-.742-1.402-.754-.477.047-.852.434-1.188 1.09-1.293-.137-1.593.027-1.722.57zm11.578-2.02c-.563-.011-1.297.45-1.473.641-.09.102.024.532.086.47.168-.169.816-.74 1.402-.75.477.042.856.429 1.188 1.089 1.265-.133 1.59.008 1.723.57.296-1.203-1.184-1.996-2.926-2.02zm2.574 5.079c-.484 1.203-1.207 1.601-1.824 1.906-.582.29-2.164.586-2.793.313-.996-.442-1.328-1.387-1.676-1.973-.129-.215-.191-.328-.52-.344-.14 0-.386-.012-.527.11-.336.289-.629 1.671-1.844 2.207-.629.277-2.21-.024-2.793-.313-.71-.351-1.367-.77-1.828-1.906-.238-.594-.547-2.746-.07-3.172.277-.246 1-.172 1.45-.125 1.73.191 2.991.75 4.495 1.605.606.344 1.52.305 2.059 0 1.406-.8 2.754-1.421 4.433-1.597.403-.043 1.215-.149 1.512.117.473.422.172 2.566-.074 3.172zm-6.113-8.344zm6.761 3.379c-.07.125-.191.215-.343.145l-10.293-4.84c-.094-.043-.157-.133-.145-.235.016-.101.086-.203.133-.289 1.434-2.73 4.879-3.918 7.816-2.648a.488.488 0 01-.086-.559.532.532 0 01.7-.23.494.494 0 01.242.672.544.544 0 01-.52.277c2.922 1.48 4.012 4.957 2.496 7.707zm-3.808-1.988c.367-.719 1.199-2.727 1.273-4.207.133-2.567-2.004-.63-3.445 1.531-.281.418-.527.852-.785 1.289zm-2.957-1.387c0-.004.004-.004.004-.004zm-.215.766c-.188.132-.387.25-.59.355-2.226 1.188-4.394 1.09-6.48-.07-1.012-.563-1.871-1.32-2.266-1.774.02 0 .023.004 0 0a12.6 12.6 0 005.207-.347c.027-.012.11-.051.137-.04zm-9.27-1.48c-.007 0-.015 0-.023-.005a.05.05 0 00.023.004zm.043.003h-.02.02zm.043.008c-.011 0-.02-.004-.027-.004.008 0 .02.004.027.004zm.121.016c-.011 0-.023 0-.039-.004.016.004.028.004.04.004zm.075.011c-.012 0-.028-.004-.043-.004.015 0 .03.004.043.004zm.105.016c.008 0 .02 0 .027.004-.007-.004-.02-.004-.027-.004zm.164.023zm.047.004c-.012 0-.027-.004-.039-.004.016 0 .027.004.04.004zm.078.012c-.015 0-.027-.004-.043-.008.016.004.031.008.043.008zm.043.004h-.012.012zm.028.004h-.004zm0 0" fill="#fff"/></svg>