<svg xmlns="http://www.w3.org/2000/svg" width="30" height="30"><circle style="isolation:auto;mix-blend-mode:normal;solid-color:#000;solid-opacity:1;marker:none" cx="15" cy="15" r="14.5" color="#000" overflow="visible" fill="#fff" fill-rule="evenodd" stroke="gray"/><path d="M20.445 21.809v-9.364h-2.593v9.364c0 .605.488 1.093 1.093 1.093h.41c.602 0 1.09-.488 1.09-1.093zM19.188 7c-.793 0-1.57.203-2.262.586A4.814 4.814 0 0015.344 9l1.324 1.625 1.184 1.46.82-.015-.356-2.527.372-.043.359 2.566.152-.003-.023-3.543.422-.004.023 3.543.867-.02L23 8.961C22.129 7.77 20.746 7 19.187 7zm-7.692 9.566c3.035 0 5.496-.32 5.496-.71v-2.329h-.055c-.382-.343-2.671-.609-5.44-.609-2.77 0-5.06.266-5.442.61h-.051v.081a.067.067 0 000 .04v2.226c.082.383 2.508.691 5.492.691zm0 .77c-3.004 0-5.445-.313-5.492-.7v5.653H6c0 .39 2.46.711 5.496.711 2.988 0 5.418-.309 5.496-.695v-5.668c-.05.386-2.492.699-5.496.699zm2.707 1.465v1.91c-.797.059-1.723.09-2.707.09-1.031 0-2-.035-2.828-.102v-1.91c.828.066 1.797.102 2.828.102.984 0 1.91-.032 2.707-.09zm0 0" fill="#4d4d4d"/></svg>