<svg xmlns="http://www.w3.org/2000/svg" width="30" height="30"><circle style="isolation:auto;mix-blend-mode:normal;solid-color:#000;solid-opacity:1;marker:none" cx="15" cy="15" r="14.5" color="#000" overflow="visible" fill="gray" fill-rule="evenodd" stroke="#fff"/><path d="M23 14.285h-1.188c-.316-1.351-1.48-2.297-2.804-2.281-1.328.016-2.469.988-2.754 2.348-.309-.368-.809-.528-1.281-.528-.485 0-.973.215-1.266.606-.254-1.38-1.39-2.39-2.73-2.426-1.34-.035-2.524.914-2.844 2.281H7v.63h1.05V15c0 1.652 1.278 2.996 2.856 2.996 1.512 0 2.75-1.238 2.848-2.8.191-.493.723-.743 1.223-.743.476 0 .984.188 1.21.649.051 1.632 1.344 2.921 2.903 2.894 1.558-.027 2.805-1.363 2.805-2.996v-.086H23zm-12.094 3.008C9.7 17.293 8.72 16.266 8.72 15c0-1.266.98-2.293 2.187-2.293 1.203 0 2.184 1.027 2.184 2.293 0 1.266-.98 2.293-2.184 2.293zm2.852-2.207h.02l-.024.082c0-.027.004-.055.004-.082zm5.281 2.207c-1.203 0-2.184-1.027-2.184-2.293 0-1.266.98-2.293 2.184-2.293 1.207 0 2.188 1.027 2.188 2.293 0 1.266-.98 2.293-2.188 2.293zm0 0" fill="#fff"/></svg>