<svg xmlns="http://www.w3.org/2000/svg" width="11" height="11" viewBox="0 0 11 11"><g fill="#4d4d4d"><path d="M7.465 9.773c-.414-.3-1.258-.46-1.985-.46-.73 0-1.617.183-1.933.457zm0 0"/><path d="M3.582 9.594c.367-.426 1.035-.785 1.93-.785.886 0 1.578.425 1.926.757 0 0-1.063-.398-1.958-.398-.796 0-1.257.184-1.605.316zm0 0M3.7 4.195c-.72-.34-1.423-.14-1.782.22.633.128 1.754.452 2.727 1.241 0-.234-.274-1.14-.946-1.46zm0 0"/><path d="M2.676 6.012c.808.379 1.812-.04 1.965-.305 0-.008.004-.012.004-.02-1.09-.632-2.301-.87-2.856-.953.031.329.258.98.887 1.278zm0 0M7.3 4.195c-.671.32-.948 1.227-.948 1.461.976-.789 2.097-1.113 2.726-1.242-.36-.36-1.058-.559-1.777-.219zm0 0"/><path d="M6.36 5.707c.148.266 1.156.684 1.96.305.633-.297.86-.95.89-1.278-.558.082-1.765.32-2.855.954 0 .007 0 .011.004.019zm0 0"/><path d="M5.5 0C2.46 0 0 2.46 0 5.5S2.46 11 5.5 11 11 8.54 11 5.5 8.54 0 5.5 0zm4.695 3.477S8.801 3.75 8.062 3c-.054-.055 1.141-.45 1.626.367l.269-.027s-.254-.63-.695-1.047c-.008-.008-1.871-.016-3.047 1.77-.23.347-.488 1.09-.727 1.082-.203-.008-.457-.73-.687-1.082-1.176-1.786-3.04-1.778-3.047-1.77-.442.418-.695 1.047-.695 1.047l.27.027c.484-.816 1.679-.422 1.624-.367-.738.75-2.133.477-2.133.477-.015.003.043-.141.149-.352.238-.457.547-.879.914-1.242.09-.094.187-.18.285-.266a.104.104 0 01.047-.012c.527.043 2.441.758 3.062 2.832.196.657.23.47.23.47s.036.187.231-.47c.621-2.074 2.535-2.789 3.063-2.832h.02c.1.09.199.18.296.278.457.457.824.996 1.082 1.59 0 .004 0 .004-.004.004zM5.5.383c1.066 0 2.105.332 2.973.949a17.25 17.25 0 00-.48.145c-1.59.52-2.298 2.253-2.384 2.316-.035.023-.007-.86-.007-.86s.351-.495.722-.886c.375-.39.801-.715.801-.715l-.059-.078s-.52.05-.656-.016c-.273-.129-.332-.433-.45-.433-.12 0-.374.265-.05.543.172.152.348.144.348.144l-.742.922v.031l-.758-.953s.176.008.347-.144c.325-.278.07-.543-.05-.543-.117 0-.176.304-.45.433-.136.067-.656.016-.656.016l-.058.078s.425.324.8.715c.372.39.723.887.723.887s.027.882-.008.859c-.086-.063-.793-1.797-2.383-2.316-.152-.051-.336-.102-.488-.145A5.103 5.103 0 015.5.382zm3.617 8.734c-.086.086-.176.168-.265.25-.153-.168-.676-.719-1.086-.972.246.136 1.175.585 1.761-.036.059-.062-.785.25-1.23-.312L8.257 8c-.077-.102-.152-.379-.144-.508a.816.816 0 01.809-.765c.453 0 .758.3.683.726-.043.234-.316.442-.687.36-.066-.016-.102-.145-.027-.2.054-.035.257-.035.257-.035.504-.18.028-.773-.437-.484-.465.289-.172 1.066.41 1.047.52-.02.883-.375.883-.922 0-.36-.152-.653-.418-.832l.234-.383c.082-.137.059-.258-.039-.418-.008-.012.114.008.114.008a.488.488 0 100-.973s-.137 0-.254.059c-.395.21-.29.73-.512 1.148-.172.324-.371.531-.371.531s-.414.36-1.106.227c-1.043-.203-1.164-.61-1.59-.598-.515.016-.468 1.028-.328 1.324.18.391.594.485.985.106.164-.164.515-.5.691.508l-1.812.008.004.375s1.878-.114 2.761 1.433a5.12 5.12 0 01-5.715.008c.883-1.523 2.747-1.441 2.747-1.441l.003-.375-1.808-.008c.172-1.008.527-.672.691-.508.39.379.805.285.985-.106.14-.296.187-1.308-.329-1.324-.43-.011-.546.395-1.593.598-.688.133-1.102-.227-1.102-.227s-.199-.207-.375-.53c-.219-.419-.117-.938-.508-1.15-.117-.058-.257-.058-.257-.058a.487.487 0 000 .973s.12-.02.117-.008c-.098.16-.125.281-.04.418l.235.383c-.27.18-.418.472-.418.832 0 .547.363.902.883.922.578.02.875-.758.41-1.047-.465-.29-.941.304-.441.484 0 0 .207 0 .257.035.079.055.043.184-.023.2-.371.082-.648-.125-.687-.36-.079-.426.23-.726.68-.726.452 0 .792.367.812.765.008.13-.067.406-.145.508l-.043.047c-.441.562-1.285.25-1.226.312.582.621 1.515.172 1.761.036-.414.253-.933.804-1.086.972-.09-.082-.18-.164-.265-.25A5.127 5.127 0 01.668 3.81c.52.054 1.043.05 1.562-.008.715-.082 1.122-.637 1.168-.614.977.536 1.368 2.043 1.504 2.239.176.25.473.273.563.273v.008s.441.016.648-.281c.137-.196.528-1.703 1.504-2.239.047-.023.453.532 1.168.614a7.312 7.312 0 001.547.011 5.11 5.11 0 01-1.215 5.305zm.531-4.008c0-.14.114-.25.25-.25.141 0 .25.11.25.25a.25.25 0 01-.25.25.252.252 0 01-.25-.25zm-8.296 0a.253.253 0 01-.504 0c0-.14.113-.25.25-.25.14 0 .254.11.254.25zm0 0"/></g></svg>