<svg xmlns="http://www.w3.org/2000/svg" width="30" height="30"><circle style="isolation:auto;mix-blend-mode:normal;solid-color:#000;solid-opacity:1;marker:none" cx="15" cy="15" r="14.5" color="#000" overflow="visible" fill="gray" fill-rule="evenodd" stroke="#fff"/><path d="M20.3 13.52a2.61 2.61 0 00-1.058.218l-.949-1.508.312.012v-1.695c-.78 0-1.093.34-1.218.582l-2.012-1.086a.347.347 0 00-.473.144l-.093.184a.36.36 0 00.144.48l1.059.575c-3.766.469-3.918 1.691-4.051 1.601-.61-.414-3.285-.457-3.285-.457v.621c.703-.101 1.351.04 1.89.391-.011.008-.02.012-.027.023l-.344.375a2.654 2.654 0 00-3.289.23 2.78 2.78 0 00-.601 3.306A2.676 2.676 0 009.3 18.93c1.195-.278 2.054-1.348 2.086-2.602l.578-.07c.105.226 2.387.644 4.41.441.57-.058.73-.785.73-.785l.122-3.465.058-.21 1.238 1.964a2.781 2.781 0 00-.527 3.469 2.668 2.668 0 003.258 1.148c1.215-.465 1.93-1.754 1.695-3.054-.234-1.301-1.347-2.25-2.648-2.246zm-10.03 1.714c.07.106.125.22.171.336l-.539.067zm-1.57 2.93c-.786 0-1.49-.5-1.759-1.25a1.93 1.93 0 01.551-2.113 1.837 1.837 0 012.137-.192l-1.195 1.313a.39.39 0 00.02.539l.1.094c.11.105.27.132.407.07l1.598-.195c-.086.98-.895 1.734-1.86 1.734zm2.573-2.695a2.71 2.71 0 00-.43-.864l.348-.386a.215.215 0 00.028-.035c.261.336.469.746.597 1.218zm8.993 2.695a1.864 1.864 0 01-1.73-1.187 1.93 1.93 0 01.425-2.082l.969 1.539c.129.199.39.257.59.128a.441.441 0 00.128-.597l-.957-1.52a1.847 1.847 0 011.965.54c.492.562.617 1.363.317 2.05a1.866 1.866 0 01-1.707 1.13zm0 0" fill="#fff"/></svg>