<svg xmlns="http://www.w3.org/2000/svg" width="30" height="30"><circle style="isolation:auto;mix-blend-mode:normal;solid-color:#000;solid-opacity:1;marker:none" cx="15" cy="15" r="14.5" color="#000" overflow="visible" fill="gray" fill-rule="evenodd" stroke="#fff"/><g fill="#fff"><path d="M21.945 13.785c-.347-1.176-2.812-2.113-5.949-2.277-2.723-.145-7.39.437-7.933 2.277.292-.074 13.44-.113 13.882 0zm0 0M8.496 17.219c.012.46.418.832.91.832h11.196c.496 0 .898-.371.91-.832zm0 0M9.824 18.355c-.054.54.399.98.953.98h8.453c.551 0 1.008-.44.954-.98zm0 0M15.805 11.262c.343-1.254.668-2.532.668-2.89 0-1.829-2.938-1.833-2.938 0 0 .358.324 1.636.668 2.89.531-.02 1.059-.024 1.602 0zm0 0M21.504 14.082c-14.047 0-13.227-.07-13.711.176-1.371.691-.856 2.656.73 2.656 13.907 0 13.024.008 13.207-.02 1.825-.261 1.618-2.812-.226-2.812zm0 0M15.008 23c.012-.059.015-.059.199-1.047h-.398c.14.754.144.754.199 1.047zm0 0M12.863 20.758c-.082.488.325.93.848.93h2.586c.527 0 .93-.446.851-.93zm0 0M11.516 19.64c-.055.426.308.817.777.817h5.422c.473 0 .832-.39.777-.816zm0 0"/></g></svg>