<svg xmlns="http://www.w3.org/2000/svg" width="30" height="30"><circle style="isolation:auto;mix-blend-mode:normal;solid-color:#000;solid-opacity:1;marker:none" cx="15" cy="15" r="14.5" color="#000" overflow="visible" fill="#fff" fill-rule="evenodd" stroke="gray"/><path d="M6.016 18.34l2.007-5.777a.283.283 0 00-.164-.356.79.79 0 01-.5-.738V9.074c0-.59.465-1.066 1.043-1.066h12.543c1.133 0 .961 0 .961.707h.43v1.414h-.406c-.024.71-.024.71-.985.71h-5.77a.276.276 0 00-.214.102l-1.106 1.375c-.054.075-.175.47-.09.825.087.351.434.972.434.972s-.676-.12-.984-.758a.838.838 0 01-.07-.238l-.079-.652a.267.267 0 00-.328-.102.294.294 0 00-.164.184l-.605 1.937c.824.028 2.21.067 2.594.07.156-.21.417-1.1.613-1.952l-.543.007.691-1.062h6.235l-.172.973-5.676.074c-.543 2.492-.902 2.492-1.078 2.492-.266 0-1.977-.047-2.828-.074L10.71 18.52a.28.28 0 01-.266.195H6.273a.273.273 0 01-.222-.117.288.288 0 01-.035-.258zM23 18.086h-.441c-.075 1.777-1.477 3.21-3.215 3.289v.617h-.332v-.62c-1.723-.099-3.106-1.52-3.176-3.286h-.484v-.172h.48c.012-1.824 1.414-3.312 3.18-3.414v-.492h.332v.492c1.781.078 3.207 1.578 3.218 3.414H23zm-3.656-2.461c1.183.078 2.105 1.078 2.117 2.29h.726c-.007-1.626-1.269-2.954-2.843-3.032zm-3.14 2.29h.73c.007-1.196.91-2.188 2.078-2.286v-.746c-1.559.101-2.797 1.418-2.809 3.031zm2.808 2.327c-1.121-.094-2.004-1.012-2.075-2.156h-.73c.074 1.555 1.29 2.805 2.805 2.902zm1.562-2.305c0-.777-.617-1.41-1.379-1.41-.757 0-1.375.633-1.375 1.41 0 .778.618 1.407 1.375 1.407.762 0 1.38-.63 1.38-1.407zm1.613.149h-.73c-.074 1.16-.977 2.086-2.113 2.16v.746c1.535-.078 2.77-1.34 2.843-2.906zm-2.992-1.106c-.492 0-.89.41-.89.915 0 .503.398.914.89.914.496 0 .895-.41.895-.914a.904.904 0 00-.895-.915zm0 0" fill="#4d4d4d"/></svg>