<svg xmlns="http://www.w3.org/2000/svg" width="30" height="30"><circle style="isolation:auto;mix-blend-mode:normal;solid-color:#000;solid-opacity:1;marker:none" cx="15" cy="15" r="14.5" color="#000" overflow="visible" fill="gray" fill-rule="evenodd" stroke="#fff"/><path d="M22 11.523a333.24 333.24 0 00-1.027-4.43c-.168-.675-1.196-.925-1.75-.925-.559 0-2.262-.164-2.262-.164s-.004-.004-.176.332-.77.715-1.582.883c-.808.172-1.578-.207-1.879-.461-.3-.254-.683-.754-.683-.754s-1.836.121-2.266.164c-.426.039-.938.21-1.453.504-.512.297-.809.59-.942.969-.125.382-.808 2.53-.98 3.714.719.293 2.39.336 2.39.336l.145-.16s.195 1.258.414 1.93c.117.371.684 1.941.684 2.32 0 .38-.301 1.899-.473 2.406-.168.504-.508 1.434-.597 2.024-.083.59-.297 2.785-.297 2.785s10.468-.086 10.511-.254c.043-.594.059-2.926-.726-4.851-.309-.758-.301-2.782-.387-3.414-.086-.633.473-1.438.64-1.73.173-.298.262-.759.262-.759l.34.125s2.137-.379 2.094-.59zM14.488 16.7s-3.293-1.449-3.293-3.242v-.012c0-.894.739-1.617 1.649-1.617.906 0 1.644.723 1.644 1.617a1.637 1.637 0 011.649-1.617c.91 0 1.648.723 1.648 1.617v.012c0 1.793-3.297 3.242-3.297 3.242zm0 0" fill="#fff"/></svg>