<svg xmlns="http://www.w3.org/2000/svg" width="10" height="10" viewBox="0 0 10 10"><g fill="#4d4d4d"><path d="M9.734 9.996H1.402C.617 9.996 0 9.363 0 8.555v-.278c0-.808.617-1.445 1.402-1.445h8.38c.113 0 .202.098.202.219 0 .12-.09.219-.203.219H1.402c-.566 0-.996.433-.996 1.007v.278c0 .574.43 1.008.996 1.008h8.332c.114 0 .204.097.204.218 0 .117-.09.215-.204.215zm0 0"/><path d="M9.441 9.227H1.453c-.41 0-.742-.36-.742-.801 0-.442.332-.797.742-.801h7.942s-.375 1.133.046 1.602zm0 0M9.746 3.168H1.41c-.785 0-1.402-.637-1.402-1.445v-.278C.008.637.625.004 1.41.004h8.38c.112 0 .202.098.202.215 0 .12-.09.218-.203.218H1.41C.844.438.414.871.414 1.446v.278c0 .574.43 1.007.996 1.007h8.336c.113 0 .203.098.203.22 0 .12-.09.218-.203.218zm0 0"/><path d="M9.453 2.398H1.465c-.41-.003-.746-.359-.746-.804 0-.442.336-.797.746-.801h7.941s-.375 1.133.047 1.605zm0 0M9.75 6.57H1.418C.633 6.57.016 5.937.016 5.13v-.281c0-.809.617-1.442 1.402-1.442h8.379c.113 0 .203.098.203.219s-.09.219-.203.219H1.418a.978.978 0 00-.996 1.004v.28a.98.98 0 00.996 1.005H9.75c.113 0 .203.097.203.219 0 .12-.09.218-.203.218zm0 0"/><path d="M9.457 5.8H1.469c-.41-.003-.742-.359-.742-.8 0-.441.332-.8.742-.8H9.41s-.375 1.132.047 1.6zm0 0"/></g></svg>