<svg xmlns="http://www.w3.org/2000/svg" width="30" height="30"><circle style="isolation:auto;mix-blend-mode:normal;solid-color:#000;solid-opacity:1;marker:none" cx="15" cy="15" r="14.5" color="#000" overflow="visible" fill="#fff" fill-rule="evenodd" stroke="gray"/><g fill="#4d4d4d"><path d="M14.355 9.535c.278 1.586-.324 3.028-1.343 3.223-1.016.199-2.067-.93-2.344-2.512-.277-1.586.324-3.027 1.344-3.223 1.02-.195 2.066.93 2.343 2.512zm0 0M10.621 12.816c.606 1.274.36 2.692-.55 3.168-.907.473-2.134-.175-2.739-1.449-.605-1.277-.355-2.691.55-3.168.911-.472 2.138.176 2.74 1.45zm0 0M21.824 11.305c.969.312 1.43 1.672 1.031 3.03-.402 1.36-1.511 2.208-2.484 1.892-.969-.313-1.43-1.672-1.027-3.032.402-1.36 1.511-2.207 2.48-1.89zm0 0M18.07 7.023c1.02.196 1.618 1.641 1.34 3.223-.277 1.586-1.328 2.711-2.348 2.512-1.015-.196-1.617-1.637-1.34-3.223.278-1.586 1.329-2.71 2.348-2.512zm0 0M9.746 18.645s1.23-1.641 1.813-2.274c.578-.633 1.355-2.117 1.355-2.117 1.14-1.586 3.418-1.566 4.535.039 0 0 .68 1.547 1.184 2.195.508.649 1.832 2.145 1.832 2.145 1.215 1.914.004 4.449-2.055 4.363a.452.452 0 01-.144-.027c-.391-.137-2.368-.766-3.227-.766-.95.004-2.871.629-3.215.73-.035.008-.07.016-.105.012-2.074-.054-3.23-2.554-1.973-4.3zm0 0"/></g></svg>