<svg xmlns="http://www.w3.org/2000/svg" width="11" height="11" viewBox="0 0 11 11"><g fill="#4d4d4d"><path d="M.23 10.441c0 .305.254.555.567.555h3.578V5.48H.23zm0 0M6.645 10.996h3.558c.313 0 .567-.25.567-.555v-4.96H6.645zm0 0M10.766 2.938H9.71v-1.31.005-.004L8.062.008V.004H6.734v1.691H4.277V.004H2.95v.004l-1.648 1.62v.005-.004 1.308H.234c-.129 0-.234.098-.234.22v1.761c0 .059.047.102.105.102h4.27V2.938h2.27V5.02h4.25A.102.102 0 0011 4.918V3.156c0-.12-.105-.219-.234-.219zm-8.387-.833L3.434 1.07l.843 1.867zm4.355.833l.844-1.868 1.055 1.035zm0 0"/></g></svg>