<svg xmlns="http://www.w3.org/2000/svg" width="30" height="30"><circle style="isolation:auto;mix-blend-mode:normal;solid-color:#000;solid-opacity:1;marker:none" cx="15" cy="15" r="14.5" color="#000" overflow="visible" fill="gray" fill-rule="evenodd" stroke="#fff"/><g fill="#fff"><path d="M14.55 11.64l-.062-.011a7.317 7.317 0 00-2.441.008c-.012 0-.024.004-.035.004C9.152 12.148 7 14.324 7 16.937c0 2.31 1.684 4.282 4.047 5.055h4.465c2.367-.773 4.05-2.746 4.05-5.055 0-2.609-2.152-4.789-5.011-5.296zm0 0M19.914 7.008c-1.559 0-2.848.777-3.055 1.785h-2.347V7.172h-2.469v1.621h-.8v.566h.8s-.008 1.684.004 1.707a7.665 7.665 0 012.453-.003V9.359h2.36c.206 1.008 1.495 1.786 3.054 1.786 1.707 0 3.086-.926 3.086-2.07 0-1.141-1.379-2.067-3.086-2.067zm0 0"/></g></svg>