<svg xmlns="http://www.w3.org/2000/svg" width="10" height="11" viewBox="0 0 10 11"><path d="M3.36 4.21S2.19 2.27 3.058 1.466c.625-.582 1.082-.102 1.484-.117C4.945 1.332 5.43-.023 6.848 0 8.73.035 8.465 1.363 8.633 1.363c.332 0 .344-.25.765-.129 1.43.403-.132 2.778-.265 2.875-.121.09.668-.062.683.871.012.692-.734.774-.734.774s-.215.476-.117.773c.12.352.168.871-.067 1.184-.234.312-.136.363-.132.742.015 1.117.285 1.395.285 1.395l-.336.05s-.434-.64-.45-.953c-.015-.312.016-.46.016-.46s-.316.445-.418.46c-.097.016.102.328-.066.84-.168.508-.184.559-.05.82.136.262.32.395.32.395h-.485s-.543-.777-.586-1.05c-.05-.333.016-.907.016-.907l-3.27-.148s-.168.28-.265.476c-.102.2-.036.43-.036.43h-.418s.075-.715.286-.922c.015-.016-1.536-.23-1.536-.23s.118.804-.02 1.25c-.132.445-.515.953-.515.953H.805s.382-.36.382-.493c0-.41-.28-1.168-.214-1.562a2.85 2.85 0 00.03-.363s-.472-.32-.398-.707C.723 7.12.988 6.66.988 5.855c.012.082-.965.387-.984-.69-.016-.825.969-.856.969-.856s.75-.067 1.968-.133c.172-.008.418.035.418.035zm0 0" fill="#4d4d4d"/></svg>