<svg xmlns="http://www.w3.org/2000/svg" width="30" height="30"><circle style="isolation:auto;mix-blend-mode:normal;solid-color:#000;solid-opacity:1;marker:none" cx="15" cy="15" r="14.5" color="#000" overflow="visible" fill="#fff" fill-rule="evenodd" stroke="gray"/><path d="M15.7 21.895l-2.49-5.024c2.442-.496 2.364-2.789 2.216-3.797-.106-.722-2.442-.512-2.711-.512-.266 0-.723-.535-1.258-.675-.535-.145-3.664-.04-3.848-.02-.18.02-1.582.258-1.468 1.035.316 2.16 1.32 3.184 2.629 3.66L6.035 21.45a.241.241 0 00.11.332.267.267 0 00.347-.101l2.774-4.961c.156.039.316.074.476.101l-1.078 5.493a.244.244 0 00.207.285.259.259 0 00.3-.196l1.083-5.507c.27.027.543.046.82.058l1.14 5.559a.254.254 0 00.169.187.28.28 0 00.254-.047.247.247 0 00.086-.234l-1.121-5.45h.636c.157-.003.301-.011.438-.023l2.554 5.157a.264.264 0 00.344.117.24.24 0 00.125-.324zm-5.333-5.497s-.914-.464-1.02-1.242c-.105-.773.02-1.27-.277-1.523-.297-.25-.984-.25-1.48-.414-.63-.207-.547-.598-.324-.676.382-.137 3.37-.234 4.046-.047.68.191.938.633 1.223.64.285.012 1.93-.023 2.07.036.247.11.457.68.247 1.473-.239.91-.715 1.394-1.66 1.71-.337.114-2.825.043-2.825.043zm9.535 5.008v-9.234h3.09L22.152 7H17l-.938 5.172h3.153v9.234c-1.692.04-3.016.38-3.016.797 0 .438 1.492.797 3.332.797 1.844 0 3.336-.36 3.336-.797 0-.414-1.297-.75-2.965-.797zm0 0" fill="#4d4d4d"/></svg>