<svg xmlns="http://www.w3.org/2000/svg" width="11" height="10" viewBox="0 0 11 10"><g fill="#4d4d4d"><path d="M10.938 8.293s-1.606-4.785-2.27-4.785c0 0-.746.137-.477 1.05a.55.55 0 01.137.364c0 .281-.21.512-.469.512-.257 0-.468-.23-.468-.512 0-.047.004-.09.015-.133-.039-.414-.187-1.316-.82-1.281H4.414c-.633-.035-.781.867-.82 1.281a.495.495 0 01.015.133c0 .281-.21.512-.468.512s-.47-.23-.47-.512a.55.55 0 01.138-.363c.27-.914-.477-1.051-.477-1.051-.664 0-2.27 4.785-2.27 4.785-.25.816.286 1.68 1.07 1.703h8.735c.785-.023 1.32-.887 1.07-1.703zm0 0"/><path d="M8 4.625v-.918c0-.117-.008-.23-.02-.348v-.582c0-.75-.246-1.449-.69-1.957A2.365 2.365 0 005.48.004a2.44 2.44 0 00-1.828.812c-.465.516-.722 1.211-.722 1.961v.176c-.008.54-.008.844.004.934 0 .015.003.492.011.761a.356.356 0 00-.078.38c.051.132.176.214.309.21a.325.325 0 00.3-.226.353.353 0 00-.093-.375c0-.2.004-.582.004-.75.004-.086.004-.153.004-.18 0-.633.21-1.215.597-1.644.39-.43.926-.668 1.512-.668a1.94 1.94 0 011.48.667c.31.352.504.813.56 1.344v.469l.015.79a.351.351 0 00-.051.382.322.322 0 00.316.191.334.334 0 00.29-.242.365.365 0 00-.11-.371zm-.695-2.879A2.357 2.357 0 005.5.93c-.707 0-1.355.289-1.828.816a1.72 1.72 0 00-.168.203 2.25 2.25 0 01.469-.812c.39-.434.925-.672 1.507-.672.582 0 1.106.238 1.485.668.176.203.312.437.406.695-.02-.027-.043-.055-.066-.082zm0 0"/></g></svg>