<svg xmlns="http://www.w3.org/2000/svg" width="10" height="10" viewBox="0 0 10 10"><path d="M8.496 9.254V3.402H6.973v5.852c0 .379.285.687.64.687h.242c.356 0 .641-.308.641-.687zM7.758 0c-.465 0-.922.125-1.328.367-.371.215-.688.52-.934.883l.777 1.016.7.914.48-.012-.21-1.578.222-.028.21 1.602h.09L7.75.95H8l.012 2.211.511-.012L10 1.227C9.488.48 8.672 0 7.758 0zM3.234 5.977c1.786 0 3.23-.2 3.23-.442V4.078h-.03c-.223-.215-1.57-.379-3.2-.379-1.629 0-2.976.164-3.203.38H0V5.545c.05.24 1.477.43 3.234.43zm0 .484C1.464 6.46.031 6.266 0 6.023v3.532C0 9.8 1.45 10 3.234 10c1.758 0 3.188-.195 3.23-.434V6.023c-.027.243-1.464.438-3.23.438zm1.594.914V8.57c-.473.035-1.016.055-1.594.055-.609 0-1.18-.023-1.664-.063V7.367c.485.043 1.055.067 1.664.067.579 0 1.121-.024 1.594-.059zm0 0" fill="#4d4d4d"/></svg>