<svg xmlns="http://www.w3.org/2000/svg" width="11" height="10" viewBox="0 0 11 10"><g fill="#4d4d4d"><path d="M5.191 3.094c-.015 0-.027-.004-.043-.008a5.267 5.267 0 00-1.68.004c-.007 0-.015.004-.023.004C1.48 3.43 0 4.883 0 6.625c0 1.54 1.156 2.855 2.785 3.371h3.067C7.48 9.48 8.637 8.164 8.637 6.625c0-1.742-1.48-3.191-3.446-3.531zm0 0M8.879.004c-1.07 0-1.957.52-2.102 1.191H5.164V.117H3.47v1.078h-.555v.38h.555s-.008 1.12 0 1.136a5.17 5.17 0 011.687-.004V1.574h1.621c.145.672 1.032 1.188 2.102 1.188 1.172 0 2.121-.617 2.121-1.38 0-.76-.95-1.378-2.121-1.378zm0 0"/></g></svg>