<svg xmlns="http://www.w3.org/2000/svg" width="10" height="10" viewBox="0 0 10 10"><g fill="#4d4d4d"><path d="M5.73 5.91c0 .703-.628 1.277-1.402 1.277-.773 0-1.402-.574-1.402-1.277 0-.707.629-1.277 1.402-1.277.774 0 1.402.57 1.402 1.277zm0 0M6.441 5.773c-.199 0-.367-.14-.382-.32-.02-.18.113-.344.308-.379l3.176-.554c.207-.036.41.09.45.28.038.192-.098.376-.306.41l-3.171.556c-.028.004-.051.007-.075.007zm0 0M9.36 7.902a.439.439 0 01-.126-.015l-2.851-.88c-.203-.058-.313-.257-.242-.444.066-.184.285-.282.488-.22l2.851.876c.18.054.29.218.258.39-.031.168-.191.293-.379.293zm0 0M5.895 4.809a.381.381 0 01-.356-.223.323.323 0 01.094-.383L8.035 2.13a.416.416 0 01.547.016.332.332 0 01-.016.496L6.16 4.71a.397.397 0 01-.265.098zm0 0"/><path d="M3.594 10c-.117 0-.23-.008-.348-.023-.652-.075-1.125-.399-1.402-.961-.223-.442-.293-.98-.36-1.457-.054-.43-.117-.88-.273-1.079C.53 5.621.133 4.777.027 3.98a3.025 3.025 0 01.414-2C.918 1.195 1.645.723 2.176.465 2.844.14 3.57-.027 4.172.004c1.262.07 1.848.648 2.113 1.121.285.496.274.965.27 1.02-.008.187-.18.332-.387.328-.207-.008-.367-.168-.363-.356 0-.012.008-.36-.196-.703C5.344.97 4.848.727 4.13.688 3.668.66 3.07.804 2.527 1.066c-.62.305-1.129.746-1.43 1.246-.64 1.055-.39 2.36.723 3.77.27.344.336.852.41 1.395.06.445.122.91.297 1.257.172.348.422.52.817.567.398.047.719-.016.949-.188.394-.3.445-.836.445-.843.012-.188.192-.329.399-.317.207.012.363.176.347.363 0 .036-.066.836-.714 1.325-.32.238-.715.359-1.176.359zm0 0"/></g></svg>