<svg xmlns="http://www.w3.org/2000/svg" width="30" height="30"><circle style="isolation:auto;mix-blend-mode:normal;solid-color:#000;solid-opacity:1;marker:none" cx="15" cy="15" r="14.5" color="#000" overflow="visible" fill="#fff" fill-rule="evenodd" stroke="gray"/><path d="M18.648 7h-7.296C10.605 7 10 7.578 10 8.29v13.89h.621v.453c0 .203.172.367.387.367h1.05a.376.376 0 00.387-.367v-.453H17.5v.453c0 .203.176.367.387.367h1.054a.376.376 0 00.387-.367v-.453H20V8.29C20 7.577 19.395 7 18.648 7zm-4.66 1.36c1.024-.41 2.211-.133 2.922.687.707.816.774 1.98.156 2.867-.613.883-1.765 1.281-2.832.973-1.062-.309-1.793-1.242-1.793-2.305-.004-.973.606-1.848 1.547-2.223zm1.032 12.55c-2.079 0-3.758-1.605-3.758-3.586 0-1.98 1.68-3.586 3.758-3.586 2.074 0 3.757 1.606 3.757 3.586 0 1.98-1.683 3.586-3.757 3.586zm-.051-12.258c-1.114 0-2.02.864-2.02 1.926 0 1.067.906 1.926 2.02 1.926 1.113 0 2.02-.86 2.02-1.926 0-.512-.212-1-.59-1.363a2.082 2.082 0 00-1.43-.563zm.465 2.914c-.461.196-1 .075-1.325-.289a1.047 1.047 0 01-.086-1.293 1.165 1.165 0 011.278-.445c.48.137.808.559.808 1.04.004.429-.265.816-.675.987zm-.372 2.641c-1.785 0-3.234 1.379-3.234 3.082 0 1.707 1.45 3.086 3.234 3.086 1.786 0 3.231-1.379 3.231-3.086 0-1.703-1.445-3.082-3.23-3.082zm0 4.934c-1.074 0-1.94-.828-1.94-1.852 0-1.02.866-1.848 1.94-1.848 1.07 0 1.938.829 1.938 1.848 0 1.024-.867 1.852-1.938 1.852zm0 0" fill="#4d4d4d"/></svg>