<svg xmlns="http://www.w3.org/2000/svg" width="30" height="30"><circle style="isolation:auto;mix-blend-mode:normal;solid-color:#000;solid-opacity:1;marker:none" cx="15" cy="15" r="14.5" color="#000" overflow="visible" fill="gray" fill-rule="evenodd" stroke="#fff"/><g fill="#fff"><path d="M7.246 17.777c-.16.27-.254.57-.242.887 1.766 1.246 7.234.969 9.48.758.004.133.016.316.012.558.746.102 5.309-.222 6.262-.515.02-.328-.043-1.54-.051-1.832-1.46.023-4.406-.301-5.98.758-2.211.203-7.461.464-9.48-.614zm0 0"/><path d="M22.965 14.988c-.102-1.031-.488-2.11-1.309-2.668 0-.703-.07-1.933-.07-2.636-1.3-.016-2.758-.024-4.02-.016-.437-.29-1.066-.7-1.355-.668-.027.004-.055.012-.082.02-.422.132-.918.988-1.313 1.675-.148.262-.347.86-.347.86v.004a1.132 1.132 0 00-.004.199c-.203.18-.399.37-.582.574l.406.461 1.129.324c.227.067.406.258.414.434 0 .12-.074.203-.203.222a.484.484 0 01-.195-.02l-.41-.116c.113.148.156.343.093.453a.15.15 0 01-.101.074c-.079.012-.176-.039-.258-.133l-.551-.629-.871-.25s-.004-.004-.008-.004a3.97 3.97 0 01-.558.665l.113.199 1.004.18c.183.035.34.203.347.378.004.14-.082.246-.214.266a.32.32 0 01-.106-.004l-.621-.113.055.097c.074.133.082.317.015.407a.131.131 0 01-.078.05c-.066.008-.137-.043-.187-.132l-.293-.508-.61-.11a.462.462 0 01-.168-.074c-.168.125-.343.242-.515.356l.078.21.594.188c.144.047.261.227.257.402 0 .13-.062.227-.164.243a.205.205 0 01-.097-.012l-.32-.102.03.086c.055.145.04.328-.038.41a.099.099 0 01-.067.04c-.066.011-.133-.051-.172-.153l-.199-.523-.57-.184a.362.362 0 01-.164-.12c-.422.226-.82.398-1.121.503-.793.273-2.356.273-2.305 1.406 1.734 1.246 5.734 1.352 9.32.758 2.11-1.277 5.106-.488 6.145-.809.222-.468.336-1.296.246-2.16zm-8.36-3.261a.32.32 0 01.047-.207c.102-.157.215-.356.336-.563.364-.629.86-1.496 1.235-1.613h.007a.138.138 0 01.055-.012c.016-.004.031-.004.047-.004.234 0 .621.145.969.34-.024 0 .43.3.582.46.043.04.078.087.11.138l.01.043v.007c.06.63-.401 1.079-.796 1.348a4.029 4.029 0 01-1.68.613h-.011a1.903 1.903 0 01-.258.016 1.026 1.026 0 01-.29-.031.447.447 0 01-.296-.223 1.471 1.471 0 01-.067-.312zm0 0"/></g></svg>