<svg xmlns="http://www.w3.org/2000/svg" width="10" height="10" viewBox="0 0 10 10"><g fill="#4d4d4d"><path d="M1.684 2.664h.738c.094 0 .168-.031.168-.066V2.02c0-.04-.074-.067-.168-.067h-.738c-.094 0-.168.027-.168.067v.578c0 .035.074.066.168.066zm0 0M10 9.727c0 .148-.129.27-.29.27H8c-.16 0-.29-.122-.29-.27V3.703c0-.148.087-.363.192-.476l.563-.602V.594h-.05v-.59h.882v.59h-.05v2.031l.562.602a.813.813 0 01.191.476zm0 0"/><path d="M6.957 3.352l-.625-.258a.474.474 0 01-.285-.406V1.633c0-.16.082-.29.183-.29.102 0 .188-.132.188-.292V.477c0-.16-.14-.29-.313-.29h-1.5c-.171 0-.312.13-.312.29v.574c0 .16.086.293.187.293.102 0 .184.129.184.289v1.054a.48.48 0 01-.285.407l-.625.258a.48.48 0 00-.285.406v1.765a2.627 2.627 0 00-.84-.175V3.484h.031a.377.377 0 00.32-.171.328.328 0 00-.003-.348.365.365 0 00-.32-.168H1.444c-.203 0-.37.152-.37.344 0 .171.136.343.402.343v1.864C.504 5.406 0 5.805 0 6.395v3.168c0 .226.2.41.441.41h3.22c.023 0 .046 0 .07-.004.015.004.03.004.05.004H6.93c.172 0 .312-.13.312-.29V3.759a.48.48 0 00-.285-.406zM1.426 8.297v-1.25c0-.336.293-.61.656-.61h1.387v.243H2.082c-.219 0-.394.164-.394.367v1.25c0 .2.175.363.394.363h1.387v.246H2.082c-.363 0-.656-.273-.656-.61zm0 0"/></g></svg>