<svg xmlns="http://www.w3.org/2000/svg" width="11" height="8" viewBox="0 0 11 8"><path d="M2.465 7.695c0 .203-.106.305-.305.305h-.605c-.2 0-.301-.102-.301-.305v-.918L.41 5.257C.16 5.028 0 4.696 0 4.337c0-.707.531-1.281 1.23-1.281.7 0 1.235.574 1.235 1.28zM7.902 5.56V7.39H3.066V5.28c.606-.664 1.543-1.008 2.45-1.008.906 0 1.734.344 2.414.961zm0-1.223v.473l-.07-.094a3.505 3.505 0 00-2.363-.93c-.875 0-1.68.332-2.34.93l-.063.094v-.473c0-.684-.43-1.313-1.05-1.606l-.063-.02.008-.05C2.42 1.094 3.87 0 5.488 0 7.105 0 8.555 1.094 9.02 2.66l.011.05-.078.02c-.621.293-1.05.922-1.05 1.606zm2.684.937L9.742 6.81l-.027.351v.535c0 .203-.102.305-.3.305h-.606c-.2 0-.301-.102-.301-.305v-3.36c0-.706.539-1.28 1.238-1.28.7 0 1.254.574 1.254 1.28 0 .36-.152.692-.414.938zm0 0" fill="#4d4d4d"/></svg>