<svg xmlns="http://www.w3.org/2000/svg" width="11" height="11" viewBox="0 0 11 11"><g fill="#4d4d4d"><path d="M5.672 3.848l-1.918-1.11-.73 1.266h.902a.31.31 0 010 .617H2.668l-.461.8h2.559zm0 0M3.75.004l4.266 2.46-.993 1.72-4.265-2.461zm0 0M1.34 8.75c0-.172.137-.309.308-.309h1.375l.567-.988H1.03L0 9.243l1.918 1.109.75-1.297h-1.02a.306.306 0 01-.308-.305zm0 0M4.41 6.04H1.852l-.465.8h2.558zm0 0M9.559 6.004H6.676L5.23 8.5l1.446 2.496h2.883L11 8.5zM8.117 9.66a1.218 1.218 0 01-1.219-1.219 1.219 1.219 0 112.438 0 1.22 1.22 0 01-1.219 1.22zm0 0"/></g></svg>