<svg xmlns="http://www.w3.org/2000/svg" width="11" height="10" viewBox="0 0 11 10"><g fill="#4d4d4d"><path d="M5.309.59c.07.37-.086.707-.348.75-.262.047-.535-.215-.606-.586-.07-.367.082-.703.348-.75.262-.043.531.219.606.586zm0 0M4.344 1.355c.156.297.093.625-.14.735-.235.11-.552-.04-.708-.336-.156-.297-.094-.629.14-.738.235-.11.551.043.708.34zm0 0M7.234 1c.25.074.368.39.266.707-.105.316-.39.516-.64.441-.25-.074-.368-.39-.266-.707.101-.316.39-.511.64-.441zm0 0M6.266.004c.261.047.418.383.343.75-.07.371-.34.633-.605.586-.262-.047-.414-.383-.344-.75s.344-.63.606-.586zm0 0M4.117 2.71s.317-.382.469-.53c.148-.145.348-.493.348-.493a.764.764 0 01.59-.273.74.74 0 01.581.285s.176.36.305.508c.133.152.473.5.473.5.312.445 0 1.035-.531 1.016-.012 0-.024-.004-.036-.008-.101-.031-.613-.176-.832-.176-.246 0-.742.145-.832.168-.007.004-.015.004-.027.004-.535-.012-.832-.594-.508-1zm0 0M5.258 5.125C5.137 5.043.609 2.066.308 2.387c-.222.222 2.708 2.66 3.727 3.484l1.246-.73zm0 0M4.586 6.29l.113.081-.07-.105zm0 0M10.332 7.516l-.348-.274a1.063 1.063 0 00-.402-1.05 1.217 1.217 0 00-1.168-.172 1.113 1.113 0 00-.723.886l-.816-.597c.008.066-.043.144-.129.195-.11.07-.242.062-.293-.012l-.637-.918-.168.098.637.918a.226.226 0 01.02.055l1.613 1.082c.004-.004.035.027.039.02.254.304.64.44 1.074.374.274-.039.524-.176.703-.379l.418.274s.805.254.844-.098c.04-.352-.664-.402-.664-.402zm-1.348.144c-.367.055-.71-.18-.77-.523-.058-.348.192-.672.556-.73.367-.055.71.179.77.527.058.343-.192.671-.556.726zm0 0"/><path d="M6.172 6.84c-.11.066-.242.062-.293-.012l-.54-.781c.083-.078.09-.2.024-.29a.252.252 0 00-.3-.073.256.256 0 01.285.058c.07.078.074.192.015.278a.253.253 0 01-.273.09l.578.84c.023.03.023.07.008.109l1.18.832c-.504.203-.793.714-.688 1.222.105.512.578.88 1.125.887.55.008 1.027-.352 1.148-.86.118-.507-.156-1.023-.656-1.238-.316-.261-1.02-.761-1.535-1.125a.392.392 0 01-.078.063zM7.969 8.8c.058.348-.188.673-.555.727-.363.055-.707-.18-.77-.523-.058-.348.192-.672.56-.727.362-.058.706.18.765.524zm0 0M3.906 5.934L.168 8.114c-.25.148-.164.34-.09.452.027.051.059.098.09.141l.758 1.117c.02.028.07.028.11 0 .038-.023.058-.066.034-.09l-.695-1.03a.589.589 0 00.129-.052l.687 1.016c.02.023.07.027.11 0 .039-.023.058-.066.039-.09L.652 8.566l.118-.07.687 1.012c.02.027.07.031.11.008.038-.028.058-.067.038-.094L.918 8.41l.117-.066.688 1.011c.02.024.07.028.109.004.043-.027.059-.066.04-.093l-.688-1.012.117-.066.687 1.011c.02.024.07.031.114.004.039-.023.054-.066.035-.09l-.684-1.011.117-.07.684 1.011c.02.027.07.031.113.004.04-.024.055-.067.035-.09L1.72 7.945l.117-.066.684 1.008c.02.027.074.031.113.004.039-.024.054-.063.035-.09l-.684-1.012.118-.066.683 1.007c.02.028.074.032.113.008.04-.027.059-.066.036-.093L2.25 7.637l.117-.07.684 1.011c.023.024.074.027.113.004.04-.027.059-.066.04-.094L2.52 7.48l.117-.066.683 1.008c.02.027.07.031.11.004.043-.024.058-.067.039-.09l-.684-1.012.117-.066.684 1.008c.02.027.07.03.11.004.042-.024.058-.067.038-.09l-.683-1.008.117-.07.684 1.007c.02.028.07.032.113.008.039-.027.055-.066.035-.094l-.684-1.007.118-.067.683 1.008c.02.023.07.027.113.004.04-.027.055-.066.036-.094l-.68-1.008.117-.066.68 1.008c.02.023.074.031.113.004.04-.024.059-.067.035-.094l-.68-1.004.118-.07.68 1.008c.019.027.074.03.113.003.039-.023.058-.066.039-.09l-.684-1.007.13-.074.667 1.02c.02.023.07.026.11 0 .038-.024.058-.067.038-.095l-.667-1.011.062-.036-.215-.152c-.02-.016-.144-.113-.336-.27zm0 0"/><path d="M5.137 7.25c.05.074.172.086.281.02a.355.355 0 00.133-.145l-.98-.691zm0 0M6.98 6.191l-.636-.918.168-.097.64.918c.051.07.172.082.282.015.109-.066.171-.18.125-.254l-.641-.914.168-.097.64.914c.051.07.18.078.294.012.109-.067.16-.176.109-.25l-.637-.915.23-.132.637.914c.051.074.184.078.293.011.114-.066.164-.175.114-.25l-.637-.91.168-.097.633.914c.05.07.187.078.297.008.109-.067.16-.172.109-.247l-.633-.914.168-.097.633.914c.05.074.184.078.293.011.113-.066.164-.175.113-.25l-.633-.91.164-.097.606.93c.05.07.187.074.297.007.11-.066.144-.164.094-.238L9.663 3l-.055-.07c-.078-.121-.293-.137-.472-.028l-3.75 2.184L6.98 6.254c0-.02.008-.047 0-.063zm0 0M4.934 5.941a.22.22 0 01.128-.257.223.223 0 00-.14.218c.004.094.07.176.168.207l-.004-.004a.23.23 0 01-.152-.164zm0 0"/><path d="M5.648 5.672l.168-.098.637.918c.05.074.184.082.293.012.086-.05.137-.129.129-.195L5.281 5.14l-1.246.73c.192.156.317.254.336.266l.215.152.043-.023.07.105.977.688c.015-.04.015-.079-.008-.11l-.578-.84a.233.233 0 01-.172-.23.232.232 0 01.187-.215.245.245 0 01.27.11c.055.09.04.199-.035.273l.539.781c.05.074.184.078.293.012a.392.392 0 00.078-.063c-.21-.144-.395-.27-.504-.347-.039-.024.07-.094.082-.106l.477.32a.226.226 0 00-.02-.054zm0 0"/></g></svg>