<svg xmlns="http://www.w3.org/2000/svg" width="30" height="30"><circle style="isolation:auto;mix-blend-mode:normal;solid-color:#000;solid-opacity:1;marker:none" cx="15" cy="15" r="14.5" color="#000" overflow="visible" fill="gray" fill-rule="evenodd" stroke="#fff"/><g fill="#fff"><path d="M14.152 18.82L9.262 8.543c-.211-.438-.528-.785-.895-.973a1.464 1.464 0 00-1.324-.015 1.787 1.787 0 00-.953 2.183c.02.055.058.098.11.117a.2.2 0 00.163-.003l.18-.082a.194.194 0 00.102-.235 1.206 1.206 0 01.652-1.453.877.877 0 01.8.004c.25.133.477.379.63.703l4.796 10.074a2.36 2.36 0 01.47-.05c.054 0 .109.003.16.007zm0 0M23 17.145l-.246-.528-6.953 3.137c.113.164.203.336.265.523zm0 0M13.992 22.992c-1.129 0-2.047-.902-2.047-2.02 0-1.117.918-2.019 2.047-2.019 1.133 0 2.051.902 2.051 2.02 0 1.117-.918 2.02-2.05 2.02zm0-3.555c-.86 0-1.555.688-1.555 1.536 0 .847.696 1.535 1.555 1.535.863 0 1.559-.688 1.559-1.535 0-.848-.7-1.535-1.559-1.535zm0 0M18.695 9.688l-6.468 2.843 2.882 6.38 6.47-2.845zm-.722 7.21l-.809-1.605-.773.344.136-2.328 1.848 1.406-.613.308.75 1.633zm0 0M14.133 6.008L9.918 7.859l1.879 4.157 4.215-1.852zm-.485 4.758l-.644-1.286-.621.278.11-1.863 1.476 1.125-.489.246.598 1.308zm0 0"/></g></svg>