<svg xmlns="http://www.w3.org/2000/svg" width="11" height="11" viewBox="0 0 11 11"><g fill="#4d4d4d"><path d="M5.277 8.297L2.11 1.645a1.34 1.34 0 00-.578-.63.943.943 0 00-.855-.011c-.54.254-.801.86-.617 1.414.011.035.039.062.07.078a.14.14 0 00.105-.004l.118-.054a.128.128 0 00.066-.153.775.775 0 01.422-.937.559.559 0 01.515.004c.165.082.31.246.41.453l3.102 6.52c.102-.024.203-.036.305-.036.035 0 .07.004.105.008zm0 0M11 7.21l-.16-.339-4.496 2.031c.07.102.129.215.168.336zm0 0M5.172 10.996c-.73 0-1.324-.586-1.324-1.309 0-.722.593-1.308 1.324-1.308.734 0 1.328.586 1.328 1.309a1.32 1.32 0 01-1.328 1.308zm0-2.3c-.555 0-1.008.445-1.008.992 0 .55.453.996 1.008.996a1 1 0 001.008-.996 1 1 0 00-1.008-.993zm0 0M8.215 2.387l-4.188 1.84 1.868 4.128 4.183-1.84zM7.746 7.05l-.523-1.04-.5.223.09-1.504 1.195.91-.399.2.485 1.055zm0 0M5.262.004l-2.727 1.2L3.75 3.89l2.727-1.196zm-.313 3.078l-.418-.832-.402.18.074-1.203.953.726-.316.16.387.844zm0 0"/></g></svg>