<svg xmlns="http://www.w3.org/2000/svg" width="30" height="30"><circle style="isolation:auto;mix-blend-mode:normal;solid-color:#000;solid-opacity:1;marker:none" cx="15" cy="15" r="14.5" color="#000" overflow="visible" fill="gray" fill-rule="evenodd" stroke="#fff"/><g fill="#fff"><path d="M8.969 22.11v.6h.566v-.6zm0 0M11.828 9.27c1.375 2.367 2.512 7.386 3.473 8.71.281.383.691.739 1.246 1.075-3.399-.664-3.606-6.946-4.719-9.785m-1.73-3.266a.056.056 0 01-.024.008c.457.957 1.426 3.027 1.7 3.894.628 2.016 1.234 6.38 2.628 8.031.825.973 1.93 1.653 3.176 1.356-.86-.39-1.621-.871-2.055-1.469-.75-1.031-2.046-5.656-2.84-7.515-.492-1.149-2.585-4.305-2.585-4.305zm0 0"/><path d="M22.172 20.895c-.602-.348-2.809-.79-4.594-1.602-.695.168-1.906.14-3.176-1.355-1.394-1.653-2-6.016-2.629-8.032-.273-.867-1.242-2.937-1.699-3.894-1.86.734-3.133 2.906-3.07 3.84.012.195.215.554.285.742 1.352 3.672 1.61 2.914 1.7 11.375h.484c.023-1.024.132-8.121 1.16-8.13.48-.003.597 1.286.754 1.727.562 1.59.531 5.329 1.761 6.496 1.368 1.293 7.457 1.18 9.422.036.149-.09.446-.364.43-.532-.027-.261-.598-.535-.828-.671zm0 0"/></g></svg>