<svg xmlns="http://www.w3.org/2000/svg" width="11" height="11" viewBox="0 0 11 11"><g fill="#4d4d4d"><path d="M5.5 0C2.46 0 0 2.46 0 5.5S2.46 11 5.5 11 11 8.54 11 5.5 8.54 0 5.5 0zm0 6.8a1.369 1.369 0 01-1.367-1.366A1.366 1.366 0 115.5 6.8zM2.059 8.942C.516 7.398.699 5.488.699 5.488s0 .106.02.297a4.984 4.984 0 004.793 4.516s-1.91.183-3.453-1.36zm.488-.488c-1.324-1.32-1.16-2.965-1.16-2.965s.004.09.02.254a4.297 4.297 0 004.105 3.871s-1.645.164-2.965-1.16zm.484-.484c-1.105-1.106-.957-2.48-.957-2.48.012.261.055.523.121.777A3.65 3.65 0 003.13 7.87C4.19 8.937 5.512 8.926 5.512 8.926s-1.375.148-2.48-.957zm1.844.23a2.607 2.607 0 01-2.074-2.074 2.495 2.495 0 01-.04-.637s.012.614.36 1.242c.82 1.485 2.39 1.508 2.39 1.508-.214.016-.425 0-.636-.039zm.16-.668A1.922 1.922 0 013.47 5.965a1.768 1.768 0 01-.02-.477 2.253 2.253 0 002.063 2.063c-.16.015-.32.008-.477-.02zm2.516-2.02s-.02-.777-.653-1.41a2.27 2.27 0 00-.949-.566 2.594 2.594 0 00-.46-.086s.046-.004.128-.008a1.929 1.929 0 011.914 1.59c.028.16.035.32.02.48zm.687 0s-.004-.062-.015-.167a2.932 2.932 0 00-2.735-2.582s.063-.004.172-.004A2.6 2.6 0 018.242 5.34c0 .11-.004.172-.004.172zm.688 0s-.004-.074-.016-.21a3.618 3.618 0 00-3.422-3.227s1.371-.148 2.48.957c1.106 1.106.958 2.48.958 2.48zm.687 0s-.004-.09-.02-.253a4.3 4.3 0 00-3.171-3.73 4.687 4.687 0 00-.934-.141s1.645-.164 2.965 1.16c1.324 1.32 1.16 2.965 1.16 2.965zm.668-.296A4.985 4.985 0 005.488.699s.106-.008.297-.004a4.664 4.664 0 014.52 4.52c.004.191-.004.297-.004.297s-.004-.106-.02-.297zm0 0"/><path d="M5.5 4.258a1.177 1.177 0 000 2.351 1.177 1.177 0 000-2.351zm0 1.445a.27.27 0 010-.539.27.27 0 010 .54zm-.285-.266a.286.286 0 00.285.282.286.286 0 00.285-.282h.875c0 .641-.52 1.157-1.16 1.157-.64 0-1.16-.516-1.16-1.157zm0 0"/><path d="M5.5 5.285a.148.148 0 100 .297.148.148 0 000-.297zm0 0"/></g></svg>