<svg xmlns="http://www.w3.org/2000/svg" width="30" height="30"><circle style="isolation:auto;mix-blend-mode:normal;solid-color:#000;solid-opacity:1;marker:none" cx="15" cy="15" r="14.5" color="#000" overflow="visible" fill="#fff" fill-rule="evenodd" stroke="gray"/><g fill="#4d4d4d"><path d="M17.535 21.105c-.64-.464-1.941-.71-3.066-.71-1.13 0-2.5.277-2.985.703zm0 0"/><path d="M11.54 20.824c.565-.652 1.597-1.215 2.976-1.21a4.44 4.44 0 012.98 1.171s-1.644-.613-3.027-.613c-1.23 0-1.942.277-2.485.484zm0 0M11.715 12.484c-1.113-.527-2.195-.214-2.75.336.976.2 2.71.703 4.215 1.922 0-.363-.426-1.762-1.465-2.258zm0 0"/><path d="M10.137 15.293c1.246.586 2.8-.063 3.031-.477a.056.056 0 00.008-.023c-1.684-.984-3.551-1.352-4.414-1.477.05.508.402 1.516 1.375 1.977zm0 0M17.285 12.484c-1.039.496-1.465 1.895-1.469 2.258 1.508-1.219 3.239-1.722 4.215-1.922-.554-.55-1.636-.863-2.746-.336zm0 0"/><path d="M15.828 14.816c.23.414 1.785 1.063 3.035.477.969-.461 1.32-1.469 1.371-1.977-.863.125-2.726.493-4.414 1.477 0 .008.004.016.008.023zm0 0"/><path d="M14.5 6A8.499 8.499 0 006 14.5c0 4.695 3.805 8.5 8.5 8.5s8.5-3.805 8.5-8.5S19.195 6 14.5 6zm7.258 5.371s-2.156.422-3.301-.734c-.082-.082 1.762-.696 2.512.566l.422-.039s-.395-.976-1.078-1.617c-.012-.016-2.891-.027-4.708 2.734-.355.535-.753 1.684-1.12 1.668-.317-.012-.712-1.129-1.067-1.668-1.816-2.761-4.691-2.75-4.707-2.734-.684.64-1.078 1.617-1.078 1.617l.422.04c.75-1.263 2.593-.65 2.511-.567-1.144 1.156-3.3.734-3.3.734-.02.004.066-.219.23-.543A7.835 7.835 0 018.91 8.91c.14-.144.29-.281.442-.41a.146.146 0 01.07-.02c.82.067 3.773 1.168 4.734 4.38.305 1.015.356.722.356.722s.054.293.355-.723c.961-3.21 3.918-4.312 4.735-4.379.011 0 .02 0 .027.004.16.133.312.278.46.426a7.834 7.834 0 011.673 2.457c0 .004 0 .008-.004.004zM14.5 6.594a7.86 7.86 0 014.59 1.468 22.98 22.98 0 00-.738.22c-2.457.804-3.547 3.484-3.68 3.577-.055.04-.012-1.328-.012-1.328s.54-.761 1.117-1.367a12.024 12.024 0 011.235-1.105l-.09-.118s-.8.075-1.016-.027c-.418-.195-.511-.672-.695-.672-.184 0-.578.41-.078.844.265.23.539.223.539.223L14.527 9.73v.051L13.352 8.31s.273.007.543-.223c.496-.434.101-.844-.082-.844-.184 0-.274.477-.696.672-.215.102-1.012.027-1.012.027l-.093.118s.656.5 1.238 1.105a14.088 14.088 0 011.117 1.367s.04 1.367-.015 1.328c-.13-.093-1.223-2.773-3.68-3.578-.235-.074-.52-.156-.758-.226A7.876 7.876 0 0114.5 6.594zm5.59 13.496c-.133.133-.27.262-.41.387-.239-.258-1.043-1.114-1.68-1.5.379.207 1.82.898 2.723-.059.09-.098-1.215.387-1.899-.48l-.062-.07c-.121-.161-.235-.587-.227-.794a1.267 1.267 0 011.254-1.18c.7 0 1.172.465 1.055 1.126-.063.359-.489.683-1.063.55-.101-.023-.156-.222-.039-.304.078-.055.399-.055.399-.055.773-.277.039-1.195-.68-.75-.719.45-.262 1.652.633 1.621.804-.027 1.363-.578 1.363-1.426 0-.558-.23-1.008-.645-1.289l.364-.586c.129-.215.09-.402-.063-.652-.008-.012.18.016.18.016a.751.751 0 000-1.504s-.215 0-.395.093c-.609.32-.449 1.13-.789 1.77-.265.504-.578.824-.578.824s-.636.555-1.703.348c-1.613-.309-1.797-.938-2.46-.918-.798.02-.723 1.582-.509 2.047.282.597.922.742 1.52.156.254-.246.805-.77 1.07.789l-2.797.012.004.574s2.903-.172 4.27 2.219a7.908 7.908 0 01-8.836.011c1.367-2.351 4.25-2.23 4.25-2.23l.004-.574-2.797-.012c.27-1.559.816-1.035 1.07-.79.602.587 1.242.442 1.52-.155.218-.465.293-2.028-.508-2.047-.66-.02-.844.61-2.457.918-1.067.207-1.707-.348-1.707-.348s-.309-.32-.578-.824c-.34-.64-.18-1.45-.79-1.77-.175-.093-.39-.093-.39-.093a.751.751 0 100 1.504s.184-.028.176-.016c-.153.25-.192.437-.059.652l.364.586c-.418.281-.649.73-.649 1.29 0 .847.559 1.398 1.367 1.425.89.031 1.348-1.172.63-1.621-.72-.445-1.454.473-.68.75 0 0 .32 0 .398.055.117.082.066.28-.04.304-.573.133-.995-.191-1.062-.55-.117-.66.356-1.125 1.055-1.125.7 0 1.223.566 1.254 1.18.012.206-.106.632-.223.792l-.066.07c-.684.868-1.988.383-1.899.481.907.957 2.344.266 2.723.059-.637.386-1.437 1.238-1.676 1.496a7.914 7.914 0 01-2.285-8.586c.8.082 1.613.078 2.414-.016 1.102-.125 1.73-.984 1.801-.945 1.512.828 2.117 3.156 2.328 3.457.27.39.73.422.867.422v.011s.68.032 1-.433c.211-.301.817-2.63 2.328-3.457.07-.04.704.82 1.805.945.793.094 1.594.098 2.387.02a7.89 7.89 0 01-1.875 8.199zm.82-6.195a.39.39 0 01.387-.387c.215 0 .39.176.39.387a.388.388 0 01-.777 0zm-12.824 0a.385.385 0 01-.387.386.388.388 0 11.387-.387zm0 0"/></g></svg>