<svg xmlns="http://www.w3.org/2000/svg" width="10" height="11" viewBox="0 0 10 11"><g fill="#4d4d4d"><path d="M4.563 5.191C5.538 5.171 6.309 4 6.28 2.566 6.258 1.133 5.45-.016 4.473 0 3.5.016 2.727 1.191 2.753 2.625c.024 1.434.833 2.582 1.81 2.566zm-.27-2.636c.297-1.203.18-2.243.2-2.278.01.047.554 1.063.25 2.356-.298 1.207-.18 2.246-.196 2.281-.016-.047-.559-1.066-.254-2.36zm0 0M9.57 4.508c-.77-.73-2.328-.399-3.472.738-1.149 1.137-1.45 2.649-.676 3.375.773.73 2.328.399 3.473-.738 1.148-1.137 1.449-2.649.675-3.375zM7.637 6.766C6.426 7.48 5.672 8.379 5.633 8.39c.027-.043.43-1.25 1.719-2.028 1.21-.71 1.968-1.613 2.007-1.625-.027.047-.43 1.25-1.722 2.028zm0 0M1.05 4.996C-.054 5.48-.331 7.187.43 8.81c.761 1.625 2.273 2.546 3.375 2.062 1.105-.484 1.382-2.191.62-3.812-.76-1.625-2.273-2.547-3.374-2.063zm1.102 3c-.277-1.516-.941-2.644-.937-2.691.035.047 1.176.945 1.488 2.566.277 1.516.942 2.645.942 2.691-.04-.046-1.18-.945-1.493-2.566zm0 0"/></g></svg>