<svg xmlns="http://www.w3.org/2000/svg" width="30" height="30"><circle style="isolation:auto;mix-blend-mode:normal;solid-color:#000;solid-opacity:1;marker:none" cx="15" cy="15" r="14.5" color="#000" overflow="visible" fill="#fff" fill-rule="evenodd" stroke="gray"/><g fill="#4d4d4d"><path d="M19.93 21.094v-9.79H23l-.832-5.3h-5.117l-.93 5.3h3.129v9.79c-1.68.039-2.996.386-2.996.812 0 .453 1.484.82 3.312.82 1.829 0 3.309-.367 3.309-.82 0-.422-1.29-.765-2.945-.812zm0 0"/><path d="M15.54 11.879h-2.786v-.262h-.5v.262H9.57c-.941.004-1.703.746-1.707 1.664l.004.23c.074.086.703.176.82.196.153.02 1.79.117 3.59.164v3.847s.02 2.2-.703 3.114a.138.138 0 01-.094.054c-.68.102-1.19.305-1.246.598-.613-.101-1.73-.281-2.175-.305-.59-.03-1.137.493-1.54.875l-.132.125a8.73 8.73 0 01-.387.34v.215c.191-.16.375-.316.504-.437l.133-.125c.379-.364.894-.856 1.41-.832.445.023 1.605.214 2.2.312.116.363.765.899 2.226.93 1.62.031 2.164-.598 2.14-.946-.023-.363-.55-.636-1.293-.753a.145.145 0 01-.093-.055c-.762-.988-.606-2.985-.598-3.102v-3.847c1.383-.02 4.488-.164 4.562-.426l.055-.172c0-.918-.766-1.66-1.707-1.664zm0 0"/></g></svg>