<svg xmlns="http://www.w3.org/2000/svg" width="30" height="30"><circle style="isolation:auto;mix-blend-mode:normal;solid-color:#000;solid-opacity:1;marker:none" cx="15" cy="15" r="14.5" color="#000" overflow="visible" fill="gray" fill-rule="evenodd" stroke="#fff"/><path d="M10.41 10.941l1.465-2.18 5.941 1.594-.347.668zm5.078-1.757v.25l2.844.754-.43.835h1.977l-.43-2.68zm-1.633-2.18l.946 2.18 3.101-1.008L16.953 6zm-5.77 1.172l1.122 2.847h.688l1.722-2.761 2.668.754-1.035-2.512zM21 23l-13-.168.602-11.473h11.796zm-3.36-10.258a.715.715 0 00-.624-.707.73.73 0 00-.805.504.7.7 0 00.394.848.26.26 0 00-.007.144c.043.196.066.395.066.594 0 1.32-.973 2.395-2.164 2.395-1.191 0-2.164-1.075-2.164-2.395 0-.195.023-.39.066-.582a.272.272 0 00-.004-.125.703.703 0 00.504-.758.718.718 0 00-.668-.629.735.735 0 00-.765.52.71.71 0 00.379.828.132.132 0 00-.016.047c-.05.226-.078.46-.078.699 0 1.633 1.234 2.96 2.746 2.96s2.746-1.327 2.746-2.96c0-.242-.027-.48-.082-.715a.713.713 0 00.477-.668zm0 0" fill="#fff"/></svg>