<svg xmlns="http://www.w3.org/2000/svg" width="30" height="30"><circle style="isolation:auto;mix-blend-mode:normal;solid-color:#000;solid-opacity:1;marker:none" cx="15" cy="15" r="14.5" color="#000" overflow="visible" fill="#fff" fill-rule="evenodd" stroke="gray"/><g fill="#4d4d4d"><path d="M14.5 6A8.499 8.499 0 006 14.5c0 4.695 3.805 8.5 8.5 8.5s8.5-3.805 8.5-8.5S19.195 6 14.5 6zm0 10.512a2.115 2.115 0 010-4.23c1.168 0 2.113.945 2.113 2.113a2.118 2.118 0 01-2.113 2.117zm-5.316 3.304c-2.387-2.382-2.106-5.336-2.106-5.336.004 0 .004.165.031.461a7.709 7.709 0 006.95 6.95c.293.027.46.027.457.027 0 0-2.95.281-5.332-2.102zm.75-.75C7.887 17.023 8.14 14.48 8.14 14.48c.004 0 .004.145.03.395a6.644 6.644 0 006.345 5.984s-2.54.25-4.582-1.793zm.754-.753c-1.711-1.708-1.485-3.833-1.485-3.833.024.407.086.81.192 1.204a5.612 5.612 0 001.44 2.48c1.645 1.645 3.68 1.633 3.68 1.633s-2.124.226-3.828-1.485zm2.847.359a4.027 4.027 0 01-3.27-4.192s.024.95.563 1.922c1.266 2.293 3.688 2.332 3.688 2.332-.329.02-.657 0-.98-.062zm.242-1.035a2.974 2.974 0 01-2.449-3.157 3.483 3.483 0 003.191 3.188c-.25.023-.496.012-.742-.031zm3.895-3.117s-.031-1.204-1.012-2.18a3.43 3.43 0 00-1.465-.875 3.942 3.942 0 00-.71-.137s.066-.004.195-.008a2.971 2.971 0 012.992 3.2zm1.062 0c-.004 0-.007-.094-.027-.262a4.53 4.53 0 00-3.27-3.828 4.967 4.967 0 00-.953-.164s.09-.008.262-.008a4.029 4.029 0 013.996 3.996c0 .172-.012.266-.008.266zm1.063 0c-.004 0-.008-.118-.027-.329a5.59 5.59 0 00-5.286-4.988s2.121-.226 3.829 1.485c1.71 1.707 1.484 3.832 1.484 3.832zm1.062 0c-.004 0-.007-.141-.03-.395a6.64 6.64 0 00-4.907-5.762 6.883 6.883 0 00-1.438-.222s2.536-.254 4.582 1.793c2.043 2.043 1.793 4.586 1.793 4.586zm1.032-.461a7.704 7.704 0 00-7.407-6.977s.16-.012.457-.004c3.79.11 6.871 3.168 6.98 6.98.009.297-.003.462 0 .462-.003 0-.003-.165-.03-.461zm0 0"/><path d="M14.5 12.578a1.819 1.819 0 000 3.637 1.819 1.819 0 000-3.637zm0 2.238a.422.422 0 01-.418-.421.418.418 0 01.836 0 .422.422 0 01-.418.421zm-.438-.41a.438.438 0 00.876 0h1.359a1.797 1.797 0 01-3.594 0zm0 0"/><path d="M14.5 14.168a.227.227 0 00-.227.227c0 .128.102.23.227.23a.228.228 0 00.227-.23.227.227 0 00-.227-.227zm0 0"/></g></svg>