<svg xmlns="http://www.w3.org/2000/svg" width="11" height="8" viewBox="0 0 11 8"><g fill="#4d4d4d"><path d="M8.043 4.328c-.008 0-.016-.004-.023-.004a2.62 2.62 0 00-.856 0c-.004.004-.008.004-.012.004-.472.086-.89.305-1.199.61V1.671H3.441v-.649h1.036V0H1.48v1.023h.993v.649H0v6.312h5.953v-.507c.23.23.527.41.863.523H8.38c.828-.273 1.418-.973 1.418-1.793 0-.926-.754-1.7-1.754-1.879zM4.539 5.773H1.422V3.645h3.117zm4.059 1.079h-1.91V5.547h1.91zm0 0"/><path d="M9.918 2.684c-.543 0-.996.277-1.066.632h-.825v-.574h-.863v.574h-.281v.204h.281s-.004.597 0 .605c.145-.023.29-.04.434-.04.144 0 .285.013.425.036V3.52h.829c.07.355.523.632 1.066.632.598 0 1.082-.328 1.082-.734 0-.406-.484-.734-1.082-.734zm0 0"/></g></svg>