<svg xmlns="http://www.w3.org/2000/svg" width="30" height="30"><circle style="isolation:auto;mix-blend-mode:normal;solid-color:#000;solid-opacity:1;marker:none" cx="15" cy="15" r="14.5" color="#000" overflow="visible" fill="#fff" fill-rule="evenodd" stroke="gray"/><g fill="#4d4d4d"><path d="M17.754 14.508H15.46a.623.623 0 00-.488-.54v-2.312a.193.193 0 00-.27 0v2.313a.621.621 0 00-.473.766c.012.038.028.081.047.117l-1.445 1.43.004.034a.267.267 0 00.242.239l.035.004 1.442-1.43c.039.02.082.035.125.043a.617.617 0 00.78-.531h2.294c.058-.036.058-.098 0-.133zm0 0"/><path d="M19.844 14.05h-.2a4.729 4.729 0 00-1.312-2.784L17.91 9.34h-.652v-.344h-.098v-.195h.098V7.469h-.098v-.192h.098v-.98c-.031-.008-.067-.02-.098-.027l-.2-.047a8.746 8.746 0 00-4.55.172v.882h.098v.192h-.098V8.8h.098v.195h-.098v.344h-.648l-.422 1.926a4.75 4.75 0 00.043 6.656c.125.582.254 1.16.379 1.738h.746v.535h-.098v1.336h.098v.192h-.098v.882a.943.943 0 00.098.032l.531.14a8.746 8.746 0 003.922 0c.066-.015.133-.03.2-.047.03-.011.066-.02.097-.027v-.98h-.098v-.192h.098v-1.336h-.098v-.535h.75c.13-.578.254-1.156.383-1.738a4.76 4.76 0 001.352-2.828h.199A.153.153 0 0020 14.94v-.734a.157.157 0 00-.156-.156zm-4.871 4.282v-.582a.191.191 0 00-.27 0v.582c-1.992-.066-3.598-1.652-3.664-3.625h.527a.186.186 0 00.055-.133c0-.05-.02-.097-.055-.133h-.527c.066-1.972 1.672-3.558 3.664-3.629v.547c.074.07.195.07.27 0v-.546c1.992.07 3.593 1.656 3.664 3.628h-.512a.186.186 0 00-.055.133c0 .051.02.098.055.133h.512c-.07 1.973-1.672 3.559-3.664 3.625zm0 0"/></g></svg>