<svg xmlns="http://www.w3.org/2000/svg" width="30" height="30"><circle style="isolation:auto;mix-blend-mode:normal;solid-color:#000;solid-opacity:1;marker:none" cx="15" cy="15" r="14.5" color="#000" overflow="visible" fill="#fff" fill-rule="evenodd" stroke="gray"/><path d="M20.5 11.395h-2.738c-.239-2.817-1.39-4.364-3.313-4.391a2.507 2.507 0 00-1.789.695c-.793.739-1.293 2.028-1.445 3.696H8.477L8 22.547a.427.427 0 00.129.316.46.46 0 00.328.133l12.086-.023c.125 0 .242-.051.328-.137.09-.082.133-.2.129-.316zm-7.379-3.25c.375-.348.82-.52 1.32-.516 1.11.016 2.407.715 2.664 3.766H11.88c.144-1.48.582-2.633 1.242-3.25zm-1.656 5.199a.793.793 0 01-.735-.617.755.755 0 01.45-.832c-.008.207-.016.418-.016.632 0 .16.125.301.293.32a.357.357 0 00.258-.077.304.304 0 00.11-.235c0-.222.007-.441.019-.652.36.148.558.52.465.883-.094.359-.45.605-.844.578zm5.941 0a.788.788 0 01-.734-.625.748.748 0 01.465-.828c.008.203.011.414.011.636 0 .16.125.301.293.32a.357.357 0 00.258-.077.304.304 0 00.11-.235c0-.223-.004-.437-.012-.644.355.148.547.52.45.879-.095.359-.45.601-.84.574zm0 0" fill="#4d4d4d"/></svg>