<svg xmlns="http://www.w3.org/2000/svg" width="30" height="30"><circle style="isolation:auto;mix-blend-mode:normal;solid-color:#000;solid-opacity:1;marker:none" cx="15" cy="15" r="14.5" color="#000" overflow="visible" fill="#fff" fill-rule="evenodd" stroke="gray"/><path d="M10.582 20.543c0 .3-.148.457-.437.457h-.883c-.29 0-.438-.156-.438-.457v-1.375l-1.226-2.281A1.93 1.93 0 017 15.504c0-1.063.773-1.922 1.793-1.922 1.016 0 1.789.86 1.789 1.922zm7.914-3.207v2.746h-7.035v-3.16c.879-.996 2.242-1.508 3.562-1.508 1.317 0 2.524.512 3.508 1.441zm0-1.832v.707l-.105-.137c-.957-.898-2.164-1.394-3.434-1.394-1.273 0-2.445.496-3.402 1.394l-.094.137v-.707c0-1.027-.625-1.973-1.527-2.406l-.094-.032.012-.078C10.523 10.641 12.632 9 14.984 9s4.461 1.64 5.133 3.988l.02.078-.114.032c-.902.433-1.527 1.379-1.527 2.406zm3.899 1.406l-1.223 2.3-.04.532v.801c0 .3-.148.457-.44.457h-.88c-.289 0-.437-.156-.437-.457v-5.04c0-1.062.785-1.921 1.8-1.921 1.02 0 1.825.86 1.825 1.922 0 .535-.223 1.035-.605 1.406zm0 0" fill="#4d4d4d"/></svg>