<svg xmlns="http://www.w3.org/2000/svg" width="11" height="7" viewBox="0 0 11 7"><path d="M10.793 4.398v-.003C9.91 4.18 9.395 3.453 8.98 2.73c-.367-.085-.574-.12-.71-.09.039.172.175.426.414.868-.258-.438-.41-.68-.54-.801-.07.066-.117.18-.175.348.035-.207.054-.336 0-.438-.102-.012-.219.035-.39.117.132-.09.222-.16.273-.238-.149-.098-.422-.18-.907-.32.492.12.774.187.95.176.003-.176-.133-.434-.426-.97.328.552.484.798.644.868.059-.066.102-.176.153-.32-.024.144-.043.254-.028.343.09-.007.196-.054.336-.12-.136.097-.234.171-.281.253.09.11.285.188.676.305-.469-.82-.809-1.629-1.41-1.68a.939.939 0 00-.43-.008c-.516.102-.926.383-1.254.614-.262.18-.508.347-.645.308-.07-.02-.214-.12-.398-.558C4.469.539 4.148.133 3.758.027 3.324-.09 2.94.203 2.602.461c-.668.504-2.32.844-2.336.848l-.262.05.058.262a.114.114 0 01.008.035l.008.02c.637 2.71 1.723 4.379 3.375 5.015.16.063.524.2.688.243.347.086.586.062.968.062.766 0 1.602-.172 2.493-.523.875-.34 1.789-.848 2.71-1.5.133-.094.223-.16.254-.184.012-.008.02-.016.02-.016l.41-.32zM3.621.207c.152-.023.75 1.285.832 1.293l-.027.035C4.262 1.66 3.64.406 3.453.515c-.187.114-.668.079-.668.079.223-.047.594-.344.836-.387zM7.77 3.68c-.696-.133-1.856 1.097-3.11.992-.887-.07-1.937-1.676-2.45-2.113C1.89 2.285.935 1.87.263 1.598c.047-.012-.2-.164-.149-.176.852.258 2.473.875 2.825 1.394.515.758 1.562 2.204 3.566.836.898-.613 2.082-.09 2.973.395.218.262.921.355 1.222.535-1.187-.144-2.398-.805-2.93-.902zm0 0" fill="#4d4d4d"/></svg>