<svg xmlns="http://www.w3.org/2000/svg" width="10" height="10" viewBox="0 0 10 10"><g fill="#4d4d4d"><path d="M1.23 9.477v.351h.356v-.351zm0 0M3.02 1.922c.855 1.394 1.566 4.344 2.167 5.125.176.226.434.433.782.633-2.125-.39-2.254-4.086-2.95-5.758M1.938.004c-.007 0-.011.004-.015.004.285.562.89 1.781 1.062 2.289.395 1.187.77 3.754 1.645 4.723.512.574 1.203.976 1.98.8-.535-.23-1.011-.511-1.28-.863-.47-.605-1.282-3.328-1.778-4.422C3.242 1.86 1.937.004 1.937.004zm0 0"/><path d="M9.484 8.762c-.379-.207-1.757-.465-2.875-.942-.433.098-1.187.082-1.98-.8-.875-.97-1.25-3.536-1.645-4.723C2.813 1.789 2.207.57 1.922.007.758.442-.035 1.716 0 2.267c.008.117.137.328.18.437.847 2.16 1.007 1.715 1.062 6.688h.301c.016-.602.086-4.774.727-4.782.3 0 .375.758.472 1.02.352.934.332 3.133 1.102 3.82.855.762 4.66.696 5.886.02.094-.051.282-.211.27-.313-.016-.152-.371-.316-.516-.394zm0 0"/></g></svg>