<svg xmlns="http://www.w3.org/2000/svg" width="4" height="10" viewBox="0 0 4 10"><path d="M3.563 2.848c.222-.407.433-.832.437-1.707C4 .742 3.79.01 3.457 0c-.746-.023-1.195 1.21-1.234 1.508-.043.297.011 1.554.011 1.554C1.152 3.625.88 3.758.336 4.484a2.116 2.116 0 001.871 3.258L2.223 9c.015.258-.258.855-.875.742-.38-.07-.563-.183-.645-.32a.565.565 0 00.492-.262.501.501 0 000-.531.577.577 0 00-.492-.266.604.604 0 00-.582.578s-.125.543.5.871c.856.446 1.754.06 1.809-.714.015-.235.02-.73.023-1.36C4.297 7.61 4.29 4.902 2.47 4.82c0-.34 0-.672.004-.98.441-.23.804-.469 1.09-.992zM3.5.71c.426-.027.281 1.043-.082 1.484-.172.207-.387.43-.945.743v-.942c.12-.84.8-1.27 1.027-1.285zm-.227 5.945c-.039.39-.34.742-.816.836l.012-1.89c.5.054.875.394.804 1.054zm-1.05-1.832c-.957.086-1.325 1.067-1.02 1.739.164.367.563.449.563.449-.329-.457-.5-1.367.453-1.41L2.21 7.52c-.309.007-.672-.075-1.082-.313-1.008-.586-.875-1.96-.07-2.555.433-.32.824-.515 1.171-.687zm0 0" fill="#4d4d4d"/></svg>