<svg xmlns="http://www.w3.org/2000/svg" width="11" height="4" viewBox="0 0 11 4"><path d="M11 1.523h-.816a1.966 1.966 0 00-1.93-1.52 1.97 1.97 0 00-1.89 1.563c-.216-.246-.56-.347-.884-.347-.332 0-.668.14-.87.402A1.966 1.966 0 002.733.004a1.973 1.973 0 00-1.957 1.52H0v.417h.723V2c0 1.102.879 1.996 1.96 1.996 1.044 0 1.891-.824 1.958-1.863.132-.332.5-.496.843-.496.329 0 .676.125.832.43.036 1.09.922 1.949 1.997 1.93 1.07-.02 1.93-.907 1.93-1.997 0-.02-.005-.04-.005-.059H11zM2.684 3.527c-.829 0-1.5-.683-1.5-1.527 0-.844.671-1.527 1.5-1.527.828 0 1.503.683 1.503 1.527 0 .844-.675 1.527-1.503 1.527zm1.96-1.468h.016l-.015.054V2.06zm3.633 1.468c-.828 0-1.5-.683-1.5-1.527 0-.844.672-1.527 1.5-1.527.832 0 1.504.683 1.504 1.527 0 .844-.672 1.527-1.504 1.527zm0 0" fill="#4d4d4d"/></svg>