<svg xmlns="http://www.w3.org/2000/svg" width="30" height="30"><circle style="isolation:auto;mix-blend-mode:normal;solid-color:#000;solid-opacity:1;marker:none" cx="15" cy="15" r="14.5" color="#000" overflow="visible" fill="#fff" fill-rule="evenodd" stroke="gray"/><path d="M14.5 7c-.008 0-7.496 4.555-7.496 4.555V23h14.992V11.555S14.508 7 14.5 7zm.031 1.695c.758 0 1.371.586 1.371 1.313 0 .726-.613 1.312-1.37 1.312-.759 0-1.372-.586-1.372-1.312 0-.727.613-1.313 1.371-1.313zm.012 12.496s-5.754-2.472-5.754-5.527v-.023c.004-1.52 1.29-2.75 2.875-2.75 1.586 0 2.875 1.23 2.879 2.75.008-1.52 1.293-2.75 2.879-2.75s2.875 1.23 2.879 2.75v.023c0 3.055-5.758 5.527-5.758 5.527zm0 0" fill="#4d4d4d"/></svg>