<svg xmlns="http://www.w3.org/2000/svg" width="11" height="11" viewBox="0 0 11 11"><g fill="#4d4d4d"><path d="M6.984 4.04c-1.238-1.231-2.902-1.583-3.707-.782-.804.8-.449 2.457.79 3.687C5.304 8.18 6.964 8.531 7.77 7.73c.804-.804.449-2.457-.786-3.69zm0 0M9.469 8.742l-1.45-.73.786 1.375a.173.173 0 01-.043.222.178.178 0 01-.23-.011.14.14 0 01-.028-.04l-.652-1.14L7.875 11a1.44 1.44 0 01.426-.063c.215-.011.36-.019.527-.187.168-.168.176-.313.188-.523.011-.25.027-.555.34-.868.312-.308.62-.324.867-.336.214-.011.355-.02.527-.187.168-.168.176-.313.188-.524.007-.128.011-.273.062-.425l-2.5-.024 1.125.567a.175.175 0 01.078.234.176.176 0 01-.234.078zm0 0M2.469 1.41a.18.18 0 01.234.086l.445.938L3.125 0c-.152.05-.297.059-.426.066-.215.008-.355.016-.523.184-.172.168-.18.313-.192.523-.011.247-.027.555-.34.868-.308.308-.617.324-.867.336-.215.011-.355.02-.523.187-.172.172-.18.313-.192.523a1.483 1.483 0 01-.062.43l2.555.02-.985-.528a.153.153 0 01-.039-.03.168.168 0 01-.02-.224c.055-.07.15-.093.223-.05L3.035 3l-.648-1.355a.18.18 0 01.082-.235zm0 0"/></g></svg>