<svg xmlns="http://www.w3.org/2000/svg" width="30" height="30"><circle style="isolation:auto;mix-blend-mode:normal;solid-color:#000;solid-opacity:1;marker:none" cx="15" cy="15" r="14.5" color="#000" overflow="visible" fill="gray" fill-rule="evenodd" stroke="#fff"/><g fill="#fff"><path d="M15.277 19.14c.094-.913.203-3.917 1.075-5.449.421-.742-.649-3.476-.649-3.476s.164-.074.29-.652l-1.06.019-.402.012-.101.379c-.024.093-.27.914-1.125.953H13.203c-.855-.04-1.098-.86-1.121-.95l-.098-.386-2.101-.04-2.88 2.282 1.88 3.086.742-.32v5.695l3.629-.055 1.8.028c.11-.457.2-.868.223-1.125zm0 0"/><path d="M16.21 6.547l1.009-.524s.07 1.942 1.715 1.961C20.578 8.008 20.766 6 20.766 6l.87.504s-.327 2.691-.046 3.172l.281.48s-.941 2.813-.707 3.399c.149.363.777 1.187 1.035 5.363.14 2.25.797 3.789.797 3.789s-3.758.574-8.266.117c0 0 .844-2.808.942-3.722.094-.914.203-3.918 1.07-5.446.422-.742-.648-3.48-.648-3.48s.304-.137.398-1.461c.094-1.324-.281-2.168-.281-2.168zm0 0"/></g></svg>