<svg xmlns="http://www.w3.org/2000/svg" width="11" height="10" viewBox="0 0 11 10"><path d="M.98 6.633c-.19-.75.766-1.246 1.895-1.262.363-.004.84.281.95.402.058.063-.013.332-.055.293-.11-.105-.528-.464-.907-.468-.308.027-.55.27-.77.68-.835-.087-1.03.015-1.113.355zM8.473 5.37c-.368-.008-.84.281-.953.402-.06.063.015.332.054.293.11-.109.531-.464.906-.468.31.027.555.265.77.68.82-.083 1.031.003 1.117.355.192-.75-.77-1.246-1.894-1.262zm1.668 3.176c-.317.75-.782.996-1.184 1.191-.375.18-1.398.367-1.805.192-.644-.274-.859-.864-1.086-1.23-.086-.137-.125-.208-.336-.216-.09 0-.25-.007-.343.067-.215.183-.407 1.047-1.192 1.379-.406.175-1.43-.012-1.804-.192-.461-.222-.887-.48-1.184-1.191-.156-.375-.355-1.719-.047-1.985.18-.152.649-.105.938-.078 1.117.118 1.937.47 2.91 1.004.39.215.98.192 1.332 0 .906-.5 1.781-.89 2.867-1 .262-.023.785-.09.98.074.305.262.11 1.606-.046 1.985zM6.18 3.332zm4.379 2.11c-.047.078-.125.132-.223.09l-6.66-3.024c-.063-.028-.102-.082-.094-.149.008-.062.055-.125.086-.18C4.598.474 6.824-.27 8.727.528a.305.305 0 01-.059-.351c.082-.156.285-.219.457-.145.168.078.234.266.152.418a.347.347 0 01-.336.176c1.891.926 2.598 3.098 1.618 4.816zM8.094 4.198c.238-.449.773-1.703.824-2.629.086-1.605-1.297-.394-2.23.957-.18.262-.34.532-.508.805zM6.18 3.332zm-.14.48a3.32 3.32 0 01-.38.223c-1.441.738-2.844.68-4.195-.047C.812 3.637.258 3.164 0 2.878c.012.005.016.005 0 0a8.435 8.435 0 003.367-.214c.02-.008.074-.031.09-.023zM.042 2.888l-.016-.004c.008 0 .012.004.016.004zm.027.004c-.004 0-.008-.004-.011-.004.004 0 .007.004.011.004zm.028.004C.094 2.89.086 2.89.082 2.89c.004 0 .012 0 .016.004zm.078.007H.152h.024zm.05.008c-.011 0-.019-.004-.027-.004.008 0 .016.004.028.004zm.067.008a.035.035 0 00.02.004c-.008 0-.012 0-.02-.004zm.105.016C.383 2.93.363 2.93.344 2.926c.02.004.039.004.054.008zm.032.003c-.008 0-.016 0-.028-.003.012 0 .02.003.028.003zm.05.008c-.007-.004-.02-.004-.027-.004.008 0 .02 0 .027.004zm.028.004s-.004 0-.008-.004c.004.004.008.004.008.004zm.015 0zm0 0" fill="#4d4d4d"/></svg>