<svg xmlns="http://www.w3.org/2000/svg" width="10" height="7" viewBox="0 0 10 7"><path d="M6.71 4.023c0 1-.76 1.809-1.698 1.809-.942 0-1.7-.809-1.7-1.809 0-.996.758-1.804 1.7-1.804.937 0 1.699.808 1.699 1.804zM10 1.61v4.54c0 .468-.36.851-.8.851H.8C.36 7 0 6.617 0 6.148V1.61C0 1.141.36.762.8.762h2.391V.406c0-.222.172-.402.383-.406h2.938a.398.398 0 01.379.406v.356h2.308c.442 0 .801.379.801.847zM7.39 4.445C7.653 2.707 6.255 1.22 4.618 1.5c-1.02.176-1.82 1.023-1.984 2.105C2.37 5.344 3.77 6.832 5.406 6.551c1.02-.176 1.817-1.024 1.985-2.106zm1.708-2.863H7.387v.559h1.71zm0 0" fill="#4d4d4d"/></svg>