<svg xmlns="http://www.w3.org/2000/svg" width="8" height="10" viewBox="0 0 8 10"><path d="M7.691 2.746H6.008C5.859.984 5.152.02 3.968.004a1.52 1.52 0 00-1.1.433c-.49.461-.794 1.266-.888 2.31H.293L0 9.714a.274.274 0 00.281.281L7.72 9.98a.28.28 0 00.203-.082A.259.259 0 008 9.7zM3.152.715c.23-.219.504-.324.813-.32.68.007 1.48.445 1.637 2.351H2.387c.09-.926.36-1.644.765-2.031zm-1.02 3.25a.496.496 0 01-.452-.387.48.48 0 01.277-.52c-.008.13-.008.262-.008.395 0 .102.074.192.18.2a.193.193 0 00.156-.048.191.191 0 00.07-.144c0-.14 0-.277.008-.41a.477.477 0 01.29.55.494.494 0 01-.52.364zm3.657 0a.488.488 0 01-.453-.39.476.476 0 01.285-.52c.004.129.008.261.008.398a.2.2 0 00.18.2.197.197 0 00.226-.192c0-.14 0-.273-.008-.406a.472.472 0 01.278.55.49.49 0 01-.516.36zm0 0" fill="#4d4d4d"/></svg>