<svg xmlns="http://www.w3.org/2000/svg" width="8" height="11" viewBox="0 0 8 11"><path d="M6.195 3.441l.504-.043L8 10.023l-2.602.973zm-1.05-.171l.777.164-.793 7.55L0 9.391l1.227-6.93.816.172V1.84c0-.82.695-1.488 1.55-1.488.052 0 .102.003.153.007.281-.23.637-.355 1.004-.355.855 0 1.55.668 1.55 1.488l.02 1.656-.777-.171V1.492A.733.733 0 005.27.914a.8.8 0 00-.633-.176c.324.282.508.68.508 1.102zM2.8 2.695l1.586.328V1.84a.754.754 0 00-.367-.645.655.655 0 00-.063.297l-.02 1.067-.757-.16.02-.907c0-.113.015-.226.038-.336a.76.76 0 00-.437.684zm-.813.801c0 .172.145.309.325.309.175 0 .32-.137.32-.309a.318.318 0 00-.32-.312c-.18 0-.325.14-.325.312zm2.278 2.477L1.8 5.414 1.516 7.04l2.492.582zm.601-1.97a.319.319 0 00-.324-.312c-.18 0-.324.141-.324.313 0 .172.144.309.324.309.18 0 .324-.137.324-.31zm0 0" fill="#4d4d4d"/></svg>