<svg xmlns="http://www.w3.org/2000/svg" width="30" height="30"><circle style="isolation:auto;mix-blend-mode:normal;solid-color:#000;solid-opacity:1;marker:none" cx="15" cy="15" r="14.5" color="#000" overflow="visible" fill="#fff" fill-rule="evenodd" stroke="gray"/><path d="M17.7 22.996h-6.4c-.718 0-1.3-.578-1.3-1.289V8.293c0-.711.582-1.29 1.3-1.29h6.4c.718 0 1.3.579 1.3 1.29v13.414c0 .711-.582 1.29-1.3 1.29zM15.565 8.824v-.383c0-.05-.046-.093-.097-.093H13.53c-.05 0-.097.043-.097.093v.383a.1.1 0 00.097.098h1.938a.1.1 0 00.097-.098zm2.61 11.012V10.07a.096.096 0 00-.094-.097h-7.164a.096.096 0 00-.094.097v9.766c0 .05.043.094.094.094h7.164c.05 0 .094-.043.094-.094zm-3.676.86a.823.823 0 00-.824.816c0 .449.37.812.824.812a.82.82 0 00.824-.812.823.823 0 00-.824-.817zm0 0" fill="#4d4d4d"/></svg>