<svg xmlns="http://www.w3.org/2000/svg" width="8" height="10" viewBox="0 0 8 10"><path d="M1.484 2.906l.899-1.281 3.656.938-.21.394zM4.61 1.871v.149l1.75.445-.265.492h1.218l-.265-1.578zM3.602.59l.582 1.281 1.91-.59L5.512 0zM.055 1.28l.687 1.676h.422l1.063-1.625 1.64.441L3.23.297zM8 10l-8-.098.371-6.75H7.63zM5.934 3.965c0-.207-.164-.383-.387-.414a.455.455 0 00-.496.297c-.063.199.039.41.242.496a.216.216 0 00-.004.086c.027.117.043.23.043.347 0 .778-.598 1.41-1.332 1.41-.734 0-1.332-.632-1.332-1.41 0-.113.016-.226.039-.34a.12.12 0 000-.074.417.417 0 00.313-.445.442.442 0 00-.415-.371.451.451 0 00-.468.305.41.41 0 00.23.488 1.835 1.835 0 00-.055.438c0 .96.758 1.742 1.688 1.742.93 0 1.688-.782 1.688-1.743 0-.14-.016-.28-.047-.418a.425.425 0 00.293-.394zm0 0" fill="#4d4d4d"/></svg>