<svg xmlns="http://www.w3.org/2000/svg" width="30" height="30"><circle style="isolation:auto;mix-blend-mode:normal;solid-color:#000;solid-opacity:1;marker:none" cx="15" cy="15" r="14.5" color="#000" overflow="visible" fill="#fff" fill-rule="evenodd" stroke="gray"/><g fill="#4d4d4d"><path d="M9.691 10.527h1.184c.148 0 .266-.05.266-.113v-.98c0-.067-.118-.118-.266-.118H9.691c-.148 0-.265.051-.265.118v.98c0 .063.117.113.265.113zm0 0M23 22.535a.465.465 0 01-.465.461h-2.734a.468.468 0 01-.465-.46V12.292c0-.25.137-.613.305-.805l.902-1.027V7.008h-.082V6.004h1.414v1.004h-.082v3.453l.902 1.027c.168.192.305.555.305.805zm0 0"/><path d="M18.129 11.695l-1-.437a.817.817 0 01-.457-.692V8.777c0-.273.133-.492.297-.492.164 0 .297-.222.297-.496v-.976a.493.493 0 00-.496-.493h-2.403a.493.493 0 00-.496.493v.976c0 .273.133.496.297.496.16 0 .297.219.297.492v1.79a.817.817 0 01-.457.69l-1 .438a.82.82 0 00-.457.696v3.004c-.387-.18-.852-.274-1.348-.305v-3.168h.05a.586.586 0 00.513-.879.59.59 0 00-.516-.29H9.312a.591.591 0 00-.593.583c0 .297.219.586.644.586v3.168C7.81 15.19 7 15.87 7 16.87v5.383c0 .387.316.703.707.703h5.152c.036-.004.07-.004.106-.012a.583.583 0 00.082.008h5.043a.496.496 0 00.496-.492V12.39a.82.82 0 00-.457-.696zM9.28 20.102V17.98a1.048 1.048 0 011.047-1.039h2.223v.414h-2.223a.627.627 0 00-.625.625v2.122c0 .343.281.625.625.625h2.223v.414h-2.223a1.048 1.048 0 01-1.047-1.04zm0 0"/></g></svg>