<svg xmlns="http://www.w3.org/2000/svg" width="30" height="30"><circle style="isolation:auto;mix-blend-mode:normal;solid-color:#000;solid-opacity:1;marker:none" cx="15" cy="15" r="14.5" color="#000" overflow="visible" fill="#fff" fill-rule="evenodd" stroke="gray"/><g fill="#4d4d4d"><path d="M6.355 22.133c0 .476.395.863.88.863h5.527V14.47H6.355zm0 0M16.27 22.996h5.496a.872.872 0 00.879-.863v-7.664H16.27zm0 0M22.637 10.54h-1.625V8.52h-.004.004l-2.555-2.508.004-.008h-2.055v2.613H12.61V6.004h-2.05v.008L8.008 8.52h.004-.004v2.02H6.363c-.199 0-.363.151-.363.339v2.723c0 .086.07.16.16.16h6.602v-3.223h3.508v3.223h6.57a.16.16 0 00.16-.16v-2.723c0-.188-.164-.34-.363-.34zM9.68 9.25l1.625-1.598 1.304 2.887zm6.726 1.29l1.309-2.888L19.34 9.25zm0 0"/></g></svg>