<svg xmlns="http://www.w3.org/2000/svg" width="30" height="30"><circle style="isolation:auto;mix-blend-mode:normal;solid-color:#000;solid-opacity:1;marker:none" cx="15" cy="15" r="14.5" color="#000" overflow="visible" fill="gray" fill-rule="evenodd" stroke="#fff"/><g fill="#fff"><path d="M13.844 14.02c1.465-.024 2.617-1.84 2.582-4.055-.04-2.215-1.254-3.988-2.719-3.965-1.457.023-2.613 1.84-2.578 4.055.035 2.215 1.254 3.992 2.715 3.965zm-.403-4.07c.446-1.86.27-3.47.297-3.52.016.07.832 1.644.38 3.64-.45 1.864-.274 3.47-.302 3.524-.015-.074-.836-1.645-.375-3.645zm0 0M21.355 12.965c-1.156-1.125-3.492-.617-5.21 1.14-1.72 1.758-2.172 4.094-1.012 5.22 1.16 1.128 3.492.616 5.21-1.141 1.72-1.754 2.173-4.09 1.012-5.22zm-2.898 3.492c-1.816 1.102-2.945 2.492-3.008 2.512.043-.07.645-1.934 2.582-3.137 1.817-1.098 2.946-2.488 3.012-2.512-.043.075-.652 1.938-2.586 3.137zm0 0M8.574 13.723c-1.656.746-2.07 3.386-.93 5.894 1.141 2.508 3.41 3.93 5.067 3.184 1.652-.746 2.07-3.387.93-5.895-1.145-2.508-3.41-3.933-5.067-3.183zm1.653 4.636c-.415-2.343-1.41-4.09-1.407-4.16.055.07 1.766 1.461 2.239 3.969.414 2.34 1.41 4.086 1.406 4.156-.059-.07-1.77-1.46-2.238-3.965zm0 0"/></g></svg>