<svg xmlns="http://www.w3.org/2000/svg" width="30" height="30"><circle style="isolation:auto;mix-blend-mode:normal;solid-color:#000;solid-opacity:1;marker:none" cx="15" cy="15" r="14.5" color="#000" overflow="visible" fill="#fff" fill-rule="evenodd" stroke="gray"/><g fill="#4d4d4d"><path d="M14.77 11.945l-2.97-1.71-1.128 1.956h1.398a.475.475 0 110 .95h-1.949l-.71 1.238h3.952zm0 0M11.797 6.004l6.59 3.805-1.535 2.66-6.59-3.805zm0 0M8.07 19.52c0-.262.215-.477.477-.477h2.125l.879-1.523H7.594L6 20.28l2.965 1.715 1.156-2H8.547a.478.478 0 01-.477-.476zm0 0M12.813 15.332H8.858l-.714 1.238h3.953zm0 0M20.773 15.277h-4.457l-2.23 3.86 2.23 3.86h4.457L23 19.136zm-2.23 5.653a1.885 1.885 0 11.004-3.77 1.885 1.885 0 01-.004 3.77zm0 0"/></g></svg>