<svg xmlns="http://www.w3.org/2000/svg" width="30" height="30"><circle style="isolation:auto;mix-blend-mode:normal;solid-color:#000;solid-opacity:1;marker:none" cx="15" cy="15" r="14.5" color="#000" overflow="visible" fill="gray" fill-rule="evenodd" stroke="#fff"/><g fill="#fff"><path d="M20.355 14.27c.211.058.43-.079.485-.301a.414.414 0 00-.29-.504l-1.695-.453 1.68-1.063a.427.427 0 00.137-.57.391.391 0 00-.547-.14l-1.715 1.085.41-1.816a.418.418 0 00-.297-.5.4.4 0 00-.48.312l-.586 2.61-2.121 1.34v-2.778l1.812-1.86a.434.434 0 00.008-.589.386.386 0 00-.562-.004l-1.258 1.29V8.347a.423.423 0 00-.2-.36.384.384 0 00-.398 0 .415.415 0 00-.199.36v1.972l-1.266-1.297a.383.383 0 00-.562.004.425.425 0 00.008.586l1.82 1.871v2.856l-2.312-1.5-.559-2.594a.398.398 0 00-.477-.312.417.417 0 00-.3.496l.386 1.797-1.609-1.043a.386.386 0 00-.547.132.425.425 0 00.125.57l1.606 1.04-1.723.441c-.215.051-.344.278-.293.5.055.223.27.36.48.305l2.485-.633 2.316 1.504-2.32 1.465-2.465-.656a.399.399 0 00-.484.3.414.414 0 00.289.504l1.707.457-1.621 1.024a.428.428 0 00-.137.57c.113.2.36.262.547.14l1.613-1.019-.406 1.8a.418.418 0 00.297.5c.21.052.426-.085.476-.308l.59-2.597 2.336-1.477v2.7L12.734 20.3a.425.425 0 00-.004.586.382.382 0 00.56.004l1.25-1.282v2.055c0 .149.073.285.198.36a.384.384 0 00.399 0c.12-.075.199-.211.199-.36v-2.098l1.273 1.309a.39.39 0 00.278.117h.004a.39.39 0 00.363-.258.421.421 0 00-.09-.453l-1.828-1.879v-2.57l2.129 1.379.555 2.578a.398.398 0 00.476.313c.211-.047.348-.27.3-.497l-.386-1.78 1.672 1.081a.39.39 0 00.547-.133.427.427 0 00-.129-.574l-1.703-1.105 1.734-.442a.418.418 0 00.293-.5.399.399 0 00-.48-.304l-2.496.632-2.211-1.43 2.265-1.433zm0 0"/><path d="M18.148 7.672c.563 0 1.114.117 1.63.348a4.336 4.336 0 012.238 2.34 4.42 4.42 0 01.332 1.699v5.882a4.42 4.42 0 01-.332 1.7 4.336 4.336 0 01-2.239 2.34 3.976 3.976 0 01-1.629.347h-6.296a3.976 3.976 0 01-1.63-.348 4.336 4.336 0 01-2.238-2.34 4.42 4.42 0 01-.332-1.699V12.06c0-.586.11-1.164.332-1.7a4.336 4.336 0 012.239-2.34 3.976 3.976 0 011.629-.347h6.296m0-.672h-6.296c-2.665 0-4.844 2.277-4.844 5.059v5.882c0 2.782 2.18 5.059 4.844 5.059h6.296c2.664 0 4.844-2.277 4.844-5.059V12.06c0-2.782-2.18-5.059-4.844-5.059zm0 0"/></g></svg>