<svg xmlns="http://www.w3.org/2000/svg" viewBox="0 0 16 16" height="16" width="16"><g stroke-width="2" color="#000"><path style="isolation:auto;mix-blend-mode:normal;solid-color:#000;solid-opacity:1;marker:none" overflow="visible" fill="#dcfebb" fill-rule="evenodd" d="M0 0h16v16H0z"/><g fill="#aa8847" font-weight="400" font-family="sans-serif"><path d="M2.1 14.75c.01-.825.123-1.102.25-.615.127.486.118 1.161-.019 1.5-.137.338-.24-.06-.23-.885zm4 0c.01-.825.123-1.102.25-.615.127.486.118 1.161-.019 1.5-.137.338-.24-.06-.23-.885zm4 0c.01-.825.123-1.102.25-.615.127.486.118 1.161-.019 1.5-.137.338-.24-.06-.23-.885zm4 0c.01-.825.123-1.102.25-.615.127.486.118 1.161-.019 1.5-.137.338-.24-.06-.23-.885zM.12 12c0-.963.102-1.356.228-.875.126.481.126 1.269 0 1.75-.126.481-.229.088-.229-.875zm4 0c0-.963.102-1.356.228-.875.126.481.126 1.269 0 1.75-.126.481-.229.088-.229-.875zm4 0c0-.963.102-1.356.228-.875.126.481.126 1.269 0 1.75-.126.481-.229.087-.229-.875zm4 0c0-.963.102-1.356.228-.875.126.481.126 1.269 0 1.75-.126.481-.229.087-.229-.875zM2.1 9.25c.01-.825.123-1.102.25-.615.127.486.118 1.161-.019 1.5-.137.338-.24-.06-.23-.885zm4 0c.01-.825.123-1.102.25-.615.127.486.118 1.161-.019 1.5-.137.338-.24-.06-.23-.885zm4 0c.01-.825.123-1.102.25-.615.127.486.118 1.161-.019 1.5-.137.338-.24-.06-.23-.885zm4 0c.01-.825.123-1.102.25-.615.127.486.118 1.161-.019 1.5-.137.338-.24-.06-.23-.885zm-14-2.5c.01-.825.123-1.102.25-.615.127.486.118 1.161-.019 1.5-.137.338-.24-.06-.23-.885zm4 0c.01-.825.123-1.102.25-.615.127.486.118 1.161-.019 1.5-.137.338-.24-.06-.23-.885zm4 0c.01-.825.123-1.102.25-.615.127.486.118 1.161-.019 1.5-.137.338-.24-.06-.23-.885zm4 0c.01-.825.123-1.102.25-.615.127.486.118 1.161-.019 1.5-.137.338-.24-.06-.23-.885zM2.12 4c0-.963.102-1.356.228-.875.126.481.126 1.269 0 1.75-.126.481-.229.088-.229-.875zm4 0c0-.963.102-1.356.228-.875.126.481.126 1.269 0 1.75-.126.481-.229.088-.229-.875zm4 0c0-.963.102-1.356.228-.875.126.481.126 1.269 0 1.75-.126.481-.229.088-.229-.875zm4 0c0-.963.102-1.356.228-.875.126.481.126 1.269 0 1.75-.126.481-.229.088-.229-.875zM.1 1.25C.11.425.224.148.35.635c.127.486.118 1.161-.019 1.5-.137.338-.24-.06-.23-.885zm4 0c.01-.825.123-1.102.25-.615.127.486.118 1.161-.019 1.5-.137.338-.24-.06-.23-.885zm4 0c.01-.825.123-1.102.25-.615.127.486.118 1.161-.019 1.5-.137.338-.24-.06-.23-.885zm4 0c.01-.825.123-1.102.25-.615.127.486.118 1.161-.019 1.5-.137.338-.24-.06-.23-.885z" style="line-height:normal;font-variant-ligatures:normal;font-variant-position:normal;font-variant-caps:normal;font-variant-numeric:normal;font-variant-alternates:normal;font-variant-east-asian:normal;font-feature-settings:normal;font-variation-settings:normal;text-indent:0;text-align:start;text-decoration-line:none;text-decoration-style:solid;text-decoration-color:#000;text-transform:none;text-orientation:mixed;white-space:normal;shape-padding:0;shape-margin:0;inline-size:0;isolation:auto;mix-blend-mode:normal;solid-color:#000;solid-opacity:1" overflow="visible"/><path d="M.251.348a.08.08 0 00-.057.006C.162.37.148.399.134.432c-.052.13-.078.402-.083.817-.005.415.017.722.061.893a.404.404 0 00.04.104c.017.028.041.055.08.059.038.003.067-.02.088-.046a.42.42 0 00.058-.106c.145-.359.15-1.033.02-1.53C.366.497.34.421.295.374A.097.097 0 00.25.348zm4 0a.08.08 0 00-.057.006c-.032.017-.046.045-.06.078-.052.13-.078.402-.083.817-.005.415.017.722.061.893a.404.404 0 00.04.104c.017.028.041.055.08.059.038.003.067-.02.088-.046a.42.42 0 00.058-.106c.145-.359.15-1.033.02-1.53C4.366.497 4.34.421 4.295.374A.097.097 0 004.25.348zm4 0a.08.08 0 00-.057.006c-.032.017-.046.045-.06.078-.052.13-.078.402-.083.817-.005.415.017.722.061.893a.404.404 0 00.04.104c.017.028.041.055.08.059.038.003.067-.02.088-.046a.42.42 0 00.058-.106c.145-.359.15-1.033.02-1.53C8.366.497 8.34.421 8.295.374A.097.097 0 008.25.348zm4 0a.08.08 0 00-.057.006c-.032.017-.046.045-.06.078-.052.13-.078.402-.083.817-.005.415.017.722.061.893a.404.404 0 00.04.104c.017.028.041.055.08.059.038.003.067-.02.088-.046a.42.42 0 00.058-.106c.145-.359.15-1.033.02-1.53-.032-.125-.058-.201-.103-.248a.097.097 0 00-.044-.027zM.231.464A.622.622 0 01.3.647c.125.476.113 1.151-.016 1.47a.34.34 0 01-.043.08c-.01.013-.011.007-.002.008.01 0 .007.005-.002-.01a.334.334 0 01-.029-.079C.17 1.966.145 1.661.15 1.251.155.841.19.561.228.469L.23.464zm4 0a.622.622 0 01.07.183c.125.476.113 1.151-.016 1.47a.34.34 0 01-.043.08c-.01.013-.011.007-.002.008.01 0 .007.005-.002-.01a.334.334 0 01-.029-.079c-.039-.15-.064-.455-.059-.865.005-.41.04-.69.078-.782L4.23.464zm4 0a.622.622 0 01.07.183c.125.476.113 1.151-.016 1.47a.34.34 0 01-.043.08c-.01.013-.011.007-.002.008.01 0 .007.005-.002-.01a.333.333 0 01-.029-.079c-.039-.15-.064-.455-.059-.865.005-.41.04-.69.078-.782L8.23.464zm4 0a.622.622 0 01.07.183c.125.476.113 1.151-.016 1.47a.34.34 0 01-.043.08c-.01.013-.011.007-.002.008.01 0 .007.005-.002-.01a.333.333 0 01-.029-.079c-.039-.15-.064-.455-.059-.865.005-.41.04-.69.078-.782l.002-.005zM2.222 2.874a.089.089 0 00-.043.033.29.29 0 00-.042.102c-.045.17-.069.508-.069.991s.024.82.069.991a.29.29 0 00.042.102c.01.013.023.026.043.033a.08.08 0 00.061-.006c.033-.019.047-.047.064-.085a.98.98 0 00.048-.147c.13-.494.13-1.282 0-1.776a.98.98 0 00-.048-.147c-.017-.038-.03-.066-.064-.085a.08.08 0 00-.061-.006zm4 0a.089.089 0 00-.043.033.29.29 0 00-.042.102c-.045.17-.069.508-.069.991s.024.82.069.991a.29.29 0 00.042.102c.01.013.023.026.043.033a.08.08 0 00.061-.006c.033-.019.047-.047.064-.085a.98.98 0 00.048-.147c.13-.494.13-1.282 0-1.776a.98.98 0 00-.048-.147c-.017-.038-.03-.066-.064-.085a.08.08 0 00-.061-.006zm4 0a.089.089 0 00-.043.033.289.289 0 00-.042.102c-.045.17-.069.508-.069.991s.024.82.069.991a.29.29 0 00.042.102c.01.013.023.026.043.033a.08.08 0 00.061-.006c.033-.019.047-.047.064-.085a.98.98 0 00.048-.147c.13-.494.13-1.282 0-1.776a.98.98 0 00-.048-.147c-.017-.038-.03-.066-.064-.085a.08.08 0 00-.061-.006zm4 0a.089.089 0 00-.043.033.289.289 0 00-.042.102c-.045.17-.069.508-.069.991s.024.82.069.991a.29.29 0 00.042.102c.01.013.023.026.043.033a.08.08 0 00.061-.006c.033-.019.047-.047.064-.085a.98.98 0 00.048-.147c.13-.494.13-1.282 0-1.776a.98.98 0 00-.048-.147c-.017-.038-.03-.066-.064-.085a.08.08 0 00-.061-.006zm-11.973.12l.006.01c.013.03.029.075.044.134.122.468.122 1.256 0 1.724a.907.907 0 01-.044.133l-.006.01c-.005-.011-.01-.018-.016-.04C2.196 4.82 2.17 4.48 2.17 4c0-.48.027-.82.065-.966.006-.021.01-.028.016-.04zm4 0l.006.01c.013.03.029.075.044.134.122.468.122 1.256 0 1.724a.908.908 0 01-.044.133l-.006.01c-.005-.011-.01-.018-.016-.04C6.196 4.82 6.17 4.48 6.17 4c0-.48.027-.82.065-.966.006-.021.01-.028.016-.04zm4 0l.006.01c.013.03.029.075.044.134.122.468.122 1.256 0 1.724a.908.908 0 01-.044.133l-.006.01c-.005-.011-.01-.018-.016-.04-.038-.146-.065-.486-.065-.965 0-.48.027-.82.065-.966.006-.021.01-.028.016-.04zm4 0l.006.01c.013.03.029.075.044.134.122.468.122 1.256 0 1.724a.908.908 0 01-.044.133l-.006.01c-.005-.011-.01-.018-.016-.04-.038-.146-.065-.486-.065-.965 0-.48.027-.82.065-.966.006-.021.01-.028.016-.04zM.251 5.848a.08.08 0 00-.057.006c-.032.017-.046.045-.06.078-.052.13-.078.402-.083.817-.005.415.017.722.061.893a.404.404 0 00.04.104c.017.028.041.055.08.059.038.003.067-.02.088-.046a.42.42 0 00.058-.106c.145-.359.15-1.033.02-1.53-.032-.125-.058-.201-.103-.248a.097.097 0 00-.044-.027zm4 0a.08.08 0 00-.057.006c-.032.017-.046.045-.06.078-.052.13-.078.402-.083.817-.005.415.017.722.061.893a.404.404 0 00.04.104c.017.028.041.055.08.059.038.003.067-.02.088-.046a.42.42 0 00.058-.106c.145-.359.15-1.033.02-1.53-.032-.125-.058-.201-.103-.248a.097.097 0 00-.044-.027zm4 0a.08.08 0 00-.057.006c-.032.017-.046.045-.06.078-.052.13-.078.402-.083.817-.005.415.017.722.061.893a.404.404 0 00.04.104c.017.028.041.055.08.059.038.003.067-.02.088-.046a.42.42 0 00.058-.106c.145-.359.15-1.033.02-1.53-.032-.125-.058-.201-.103-.248a.097.097 0 00-.044-.027zm4 0a.08.08 0 00-.057.006c-.032.017-.046.045-.06.078-.052.13-.078.402-.083.817-.005.415.017.722.061.893a.404.404 0 00.04.104c.017.028.041.055.08.059.038.003.067-.02.088-.046a.42.42 0 00.058-.106c.145-.359.15-1.033.02-1.53-.032-.125-.058-.201-.103-.248a.097.097 0 00-.044-.027zm-12.02.116a.622.622 0 01.07.183c.125.476.113 1.151-.016 1.47a.34.34 0 01-.043.08c-.01.013-.011.007-.002.008.01 0 .007.005-.002-.01a.334.334 0 01-.029-.079C.17 7.466.145 7.161.15 6.751c.005-.41.04-.69.078-.782l.002-.005zm4 0a.622.622 0 01.07.183c.125.476.113 1.151-.016 1.47a.34.34 0 01-.043.08c-.01.013-.011.007-.002.008.01 0 .007.005-.002-.01a.334.334 0 01-.029-.079c-.039-.15-.064-.455-.059-.865.005-.41.04-.69.078-.782l.002-.005zm4 0a.622.622 0 01.07.183c.125.476.113 1.151-.016 1.47a.34.34 0 01-.043.08c-.01.013-.011.007-.002.008.01 0 .007.005-.002-.01a.333.333 0 01-.029-.079c-.039-.15-.064-.455-.059-.865.005-.41.04-.69.078-.782l.002-.005zm4 0a.622.622 0 01.07.183c.125.476.113 1.151-.016 1.47a.34.34 0 01-.043.08c-.01.013-.011.007-.002.008.01 0 .007.005-.002-.01a.333.333 0 01-.029-.079c-.039-.15-.064-.455-.059-.865.005-.41.04-.69.078-.782l.002-.005zM2.25 8.348a.08.08 0 00-.057.006c-.032.017-.046.045-.06.078-.052.13-.078.402-.083.817-.005.415.017.722.061.893a.404.404 0 00.04.104c.017.028.041.055.08.059.038.003.067-.02.088-.046a.42.42 0 00.058-.106c.145-.359.15-1.033.02-1.53-.032-.125-.058-.201-.103-.248a.097.097 0 00-.044-.027zm4 0a.08.08 0 00-.057.006c-.032.017-.046.045-.06.078-.052.13-.078.402-.083.817-.005.415.017.722.061.893a.404.404 0 00.04.104c.017.028.041.055.08.059.038.003.067-.02.088-.046a.42.42 0 00.058-.106c.145-.359.15-1.033.02-1.53-.032-.125-.058-.201-.103-.248a.097.097 0 00-.044-.027zm4 0a.08.08 0 00-.057.006c-.032.017-.046.045-.06.078-.052.13-.078.402-.083.817-.005.415.017.722.061.893a.404.404 0 00.04.104c.017.028.041.055.08.059.038.003.067-.02.088-.046a.42.42 0 00.058-.106c.145-.359.15-1.033.02-1.53-.032-.125-.058-.201-.103-.248a.097.097 0 00-.044-.027zm4 0a.08.08 0 00-.057.006c-.032.017-.046.045-.06.078-.052.13-.078.402-.083.817-.005.415.017.722.061.893a.404.404 0 00.04.104c.017.028.041.055.08.059.038.003.067-.02.088-.046a.42.42 0 00.058-.106c.145-.359.15-1.033.02-1.53-.032-.125-.058-.201-.103-.248a.097.097 0 00-.044-.027zm-12.02.116a.622.622 0 01.07.183c.125.476.113 1.151-.016 1.47a.34.34 0 01-.043.08c-.01.013-.011.007-.002.008.01 0 .007.005-.002-.01a.334.334 0 01-.029-.079c-.039-.15-.064-.455-.059-.865.005-.41.04-.69.078-.782l.002-.005zm4 0a.622.622 0 01.07.183c.125.476.113 1.151-.016 1.47a.34.34 0 01-.043.08c-.01.013-.011.007-.002.008.01 0 .007.005-.002-.01a.333.333 0 01-.029-.079c-.039-.15-.064-.455-.059-.865.005-.41.04-.69.078-.782l.002-.005zm4 0a.622.622 0 01.07.183c.125.476.113 1.151-.016 1.47a.34.34 0 01-.043.08c-.01.013-.011.007-.002.008.01 0 .007.005-.002-.01a.333.333 0 01-.029-.079c-.039-.15-.064-.455-.059-.865.005-.41.04-.69.078-.782l.002-.005zm4 0a.622.622 0 01.07.183c.125.476.113 1.151-.016 1.47a.34.34 0 01-.043.08c-.01.013-.011.007-.002.008.01 0 .007.005-.002-.01a.333.333 0 01-.029-.079c-.039-.15-.064-.455-.059-.865.005-.41.04-.69.078-.782l.002-.005zM.222 10.874a.089.089 0 00-.043.033.29.29 0 00-.042.102c-.045.17-.069.508-.069.991s.024.82.069.991a.29.29 0 00.042.102c.01.013.023.026.043.033a.08.08 0 00.061-.006c.033-.019.047-.047.064-.085a.98.98 0 00.048-.147c.13-.494.13-1.282 0-1.776a.98.98 0 00-.048-.147c-.017-.038-.03-.066-.064-.085a.08.08 0 00-.061-.006zm4 0a.089.089 0 00-.043.033.29.29 0 00-.042.102c-.045.17-.069.508-.069.991s.024.82.069.991a.29.29 0 00.042.102c.01.013.023.026.043.033a.08.08 0 00.061-.006c.033-.019.047-.047.064-.085a.98.98 0 00.048-.147c.13-.494.13-1.282 0-1.776a.98.98 0 00-.048-.147c-.017-.038-.03-.066-.064-.085a.08.08 0 00-.061-.006zm4 0a.089.089 0 00-.043.033.289.289 0 00-.042.102c-.045.17-.069.508-.069.991s.024.82.069.991a.29.29 0 00.042.102c.01.013.023.026.043.033a.08.08 0 00.061-.006c.033-.019.047-.047.064-.085a.98.98 0 00.048-.147c.13-.494.13-1.282 0-1.776a.98.98 0 00-.048-.147c-.017-.038-.03-.066-.064-.085a.08.08 0 00-.061-.006zm4 0a.089.089 0 00-.043.033.289.289 0 00-.042.102c-.045.17-.069.508-.069.991s.024.82.069.991a.29.29 0 00.042.102c.01.013.023.026.043.033a.08.08 0 00.061-.006c.033-.019.047-.047.064-.085a.98.98 0 00.048-.147c.13-.494.13-1.282 0-1.776a.98.98 0 00-.048-.147c-.017-.038-.03-.066-.064-.085a.08.08 0 00-.061-.006zm-11.973.12l.006.01c.013.03.029.075.044.134.122.468.122 1.256 0 1.724a.907.907 0 01-.044.133l-.006.01c-.005-.011-.01-.018-.016-.04C.196 12.82.17 12.48.17 12c0-.48.027-.82.065-.966.006-.021.01-.028.016-.04zm4 0l.006.01c.013.03.029.075.044.134.122.468.122 1.256 0 1.724a.907.907 0 01-.044.133l-.006.01c-.005-.011-.01-.018-.016-.04-.038-.146-.065-.486-.065-.965 0-.48.027-.82.065-.966.006-.021.01-.028.016-.04zm4 0l.006.01c.013.03.029.075.044.134.122.468.122 1.256 0 1.724a.908.908 0 01-.044.133l-.006.01c-.005-.011-.01-.018-.016-.04-.038-.146-.065-.486-.065-.965 0-.48.027-.82.065-.966.006-.021.01-.028.016-.04zm4 0l.006.01c.013.03.029.075.044.134.122.468.122 1.256 0 1.724a.908.908 0 01-.044.133l-.006.01c-.005-.011-.01-.018-.016-.04-.038-.146-.065-.486-.065-.965 0-.48.027-.82.065-.966.006-.021.01-.028.016-.04zm-9.999 2.854a.08.08 0 00-.057.006c-.032.017-.046.045-.06.078-.052.13-.078.402-.083.817-.005.415.017.722.061.893a.404.404 0 00.04.104c.017.028.041.055.08.059.038.003.067-.02.088-.046a.42.42 0 00.058-.106c.145-.359.15-1.033.02-1.53-.032-.125-.058-.201-.103-.248a.097.097 0 00-.044-.027zm4 0a.08.08 0 00-.057.006c-.032.017-.046.045-.06.078-.052.13-.078.402-.083.817-.005.415.017.722.061.893a.404.404 0 00.04.104c.017.028.041.055.08.059.038.003.067-.02.088-.046a.42.42 0 00.058-.106c.145-.359.15-1.033.02-1.53-.032-.125-.058-.201-.103-.248a.097.097 0 00-.044-.027zm4 0a.08.08 0 00-.057.006c-.032.017-.046.045-.06.078-.052.13-.078.402-.083.817-.005.415.017.722.061.893a.404.404 0 00.04.104c.017.028.041.055.08.059.038.003.067-.02.088-.046a.42.42 0 00.058-.106c.145-.359.15-1.033.02-1.53-.032-.125-.058-.201-.103-.248a.097.097 0 00-.044-.027zm4 0a.08.08 0 00-.057.006c-.032.017-.046.045-.06.078-.052.13-.078.402-.083.817-.005.415.017.722.061.893a.404.404 0 00.04.104c.017.028.041.055.08.059.038.003.067-.02.088-.046a.42.42 0 00.058-.106c.145-.359.15-1.033.02-1.53-.032-.125-.058-.201-.103-.248a.097.097 0 00-.044-.027zm-12.02.116a.622.622 0 01.07.183c.125.476.113 1.151-.016 1.47a.34.34 0 01-.043.08c-.01.013-.011.007-.002.008.01 0 .007.005-.002-.01a.334.334 0 01-.029-.079c-.039-.15-.064-.455-.059-.865.005-.41.04-.69.078-.782l.002-.005zm4 0a.622.622 0 01.07.183c.125.476.113 1.151-.016 1.47a.34.34 0 01-.043.08c-.01.013-.011.007-.002.008.01 0 .007.005-.002-.01a.333.333 0 01-.029-.079c-.039-.15-.064-.455-.059-.865.005-.41.04-.69.078-.782l.002-.005zm4 0a.622.622 0 01.07.183c.125.476.113 1.151-.016 1.47a.34.34 0 01-.043.08c-.01.013-.011.007-.002.008.01 0 .007.005-.002-.01a.333.333 0 01-.029-.079c-.039-.15-.064-.455-.059-.865.005-.41.04-.69.078-.782l.002-.005zm4 0a.622.622 0 01.07.183c.125.476.113 1.151-.016 1.47a.34.34 0 01-.043.08c-.01.013-.011.007-.002.008.01 0 .007.005-.002-.01a.333.333 0 01-.029-.079c-.039-.15-.064-.455-.059-.865.005-.41.04-.69.078-.782l.002-.005z" style="line-height:normal;font-variant-ligatures:normal;font-variant-position:normal;font-variant-caps:normal;font-variant-numeric:normal;font-variant-alternates:normal;font-variant-east-asian:normal;font-feature-settings:normal;font-variation-settings:normal;text-indent:0;text-align:start;text-decoration-line:none;text-decoration-style:solid;text-decoration-color:#000;text-transform:none;text-orientation:mixed;white-space:normal;shape-padding:0;shape-margin:0;inline-size:0;isolation:auto;mix-blend-mode:normal;solid-color:#000;solid-opacity:1" overflow="visible"/></g></g></svg>