<svg xmlns="http://www.w3.org/2000/svg" viewBox="0 0 32 32" height="32" width="32"><g color="#000"><path style="isolation:auto;mix-blend-mode:normal;solid-color:#000;solid-opacity:1;marker:none" overflow="visible" fill="#dcfebb" fill-rule="evenodd" d="M0 0h32v32H0z"/><g fill="#aa8847" font-weight="400" font-family="sans-serif"><path d="M4.201 29.5c.02-1.65.245-2.204.499-1.231.253.973.236 2.323-.038 3-.273.677-.48-.119-.46-1.769zm8 0c.02-1.65.245-2.204.499-1.231.253.973.236 2.323-.038 3-.273.677-.48-.119-.46-1.769zm8 0c.02-1.65.245-2.204.499-1.231.253.973.236 2.323-.038 3-.273.677-.48-.119-.46-1.769zm8 0c.02-1.65.245-2.204.499-1.231.253.973.236 2.323-.038 3-.273.677-.48-.119-.46-1.769zM.24 24c0-1.925.205-2.712.457-1.75.251.963.251 2.538 0 3.5-.252.962-.457.175-.457-1.75zm8 0c0-1.925.205-2.712.457-1.75.251.963.251 2.538 0 3.5-.252.962-.457.175-.457-1.75zm8 0c0-1.925.205-2.712.457-1.75.251.963.251 2.538 0 3.5-.252.963-.457.175-.457-1.75zm8 0c0-1.925.205-2.712.457-1.75.251.963.251 2.538 0 3.5-.252.963-.457.175-.457-1.75zM4.2 18.5c.02-1.65.245-2.204.499-1.231.253.973.236 2.323-.038 3-.273.677-.48-.119-.46-1.769zm8 0c.02-1.65.245-2.204.499-1.231.253.973.236 2.323-.038 3-.273.677-.48-.119-.46-1.769zm8 0c.02-1.65.245-2.204.499-1.231.253.973.236 2.323-.038 3-.273.677-.48-.119-.46-1.769zm8 0c.02-1.65.245-2.204.499-1.231.253.973.236 2.323-.038 3-.273.677-.48-.119-.46-1.769zm-28-5c.02-1.65.245-2.204.499-1.231.253.973.236 2.323-.038 3-.273.677-.48-.119-.46-1.769zm8 0c.02-1.65.245-2.204.499-1.231.253.973.236 2.323-.038 3-.273.677-.48-.119-.46-1.769zm8 0c.02-1.65.245-2.204.499-1.231.253.973.236 2.323-.038 3-.273.677-.48-.119-.46-1.769zm8 0c.02-1.65.245-2.204.499-1.231.253.973.236 2.323-.038 3-.273.677-.48-.119-.46-1.769zM4.24 8c0-1.925.205-2.712.457-1.75.251.963.251 2.538 0 3.5-.252.963-.457.175-.457-1.75zm8 0c0-1.925.205-2.712.457-1.75.251.963.251 2.538 0 3.5-.252.963-.457.175-.457-1.75zm8 0c0-1.925.205-2.712.457-1.75.251.963.251 2.538 0 3.5-.252.963-.457.175-.457-1.75zm8 0c0-1.925.205-2.712.457-1.75.251.963.251 2.538 0 3.5-.252.963-.457.175-.457-1.75zM.2 2.5C.221.85.446.296.7 1.269c.253.973.236 2.323-.038 3C.39 4.946.182 4.15.202 2.5zm8 0c.02-1.65.245-2.204.499-1.231.253.973.236 2.323-.038 3-.273.677-.48-.119-.46-1.769zm8 0c.02-1.65.245-2.204.499-1.231.253.973.236 2.323-.038 3-.273.677-.48-.119-.46-1.769zm8 0c.02-1.65.245-2.204.499-1.231.253.973.236 2.323-.038 3-.273.677-.48-.119-.46-1.769z" style="line-height:normal;font-variant-ligatures:normal;font-variant-position:normal;font-variant-caps:normal;font-variant-numeric:normal;font-variant-alternates:normal;font-variant-east-asian:normal;font-feature-settings:normal;font-variation-settings:normal;text-indent:0;text-align:start;text-decoration-line:none;text-decoration-style:solid;text-decoration-color:#000;text-transform:none;text-orientation:mixed;white-space:normal;shape-padding:0;shape-margin:0;inline-size:0;isolation:auto;mix-blend-mode:normal;solid-color:#000;solid-opacity:1" overflow="visible"/><path d="M.502.695a.16.16 0 00-.113.012C.324.742.296.797.269.863c-.105.262-.157.806-.167 1.635-.01.83.034 1.443.123 1.785a.807.807 0 00.08.21c.033.055.082.11.158.116.076.007.136-.039.178-.091a.838.838 0 00.115-.211c.29-.719.3-2.067.04-3.063C.733.995.68.844.59.75A.194.194 0 00.502.695zm8 0a.16.16 0 00-.113.012c-.065.035-.093.09-.12.156-.105.262-.157.806-.167 1.635-.01.83.034 1.443.123 1.785a.807.807 0 00.08.21c.033.055.082.11.158.116.076.007.136-.039.178-.091a.838.838 0 00.115-.211c.29-.719.3-2.067.04-3.063C8.733.995 8.68.844 8.59.75a.194.194 0 00-.088-.055zm8 0a.16.16 0 00-.113.012c-.065.035-.093.09-.12.156-.105.262-.157.806-.167 1.635-.01.83.034 1.443.123 1.785a.807.807 0 00.08.21c.033.055.082.11.158.116.076.007.136-.039.178-.091a.838.838 0 00.115-.211c.29-.719.3-2.067.04-3.063-.064-.249-.116-.4-.206-.494a.194.194 0 00-.088-.055zm8 0a.16.16 0 00-.113.012c-.065.035-.093.09-.12.156-.105.262-.157.806-.167 1.635-.01.83.034 1.443.123 1.785a.807.807 0 00.08.21c.033.055.082.11.158.116.076.007.136-.039.178-.091a.838.838 0 00.115-.211c.29-.719.3-2.067.04-3.063-.064-.249-.116-.4-.206-.494a.194.194 0 00-.088-.055zM.461.928c.03.043.087.152.143.367.247.95.223 2.302-.034 2.937a.682.682 0 01-.086.16c-.021.028-.022.016-.004.018.02.002.014.01-.003-.02a.667.667 0 01-.059-.158c-.078-.299-.127-.91-.117-1.73.01-.82.08-1.38.154-1.564C.46.927.457.933.461.927zm8 0c.03.043.087.152.143.367.247.95.223 2.302-.034 2.937a.682.682 0 01-.086.16c-.021.028-.022.016-.004.018.019.002.014.01-.003-.02a.668.668 0 01-.059-.158c-.078-.299-.127-.91-.117-1.73.01-.82.08-1.38.154-1.564.004-.01.002-.004.006-.01zm8 0c.03.043.087.152.143.367.247.95.223 2.302-.034 2.937a.682.682 0 01-.086.16c-.021.028-.022.016-.004.018.02.002.014.01-.003-.02a.667.667 0 01-.059-.158c-.078-.299-.127-.91-.117-1.73.01-.82.08-1.38.154-1.564.004-.01.002-.004.006-.01zm8 0c.03.043.087.152.143.367.247.95.223 2.302-.034 2.937a.682.682 0 01-.086.16c-.021.028-.022.016-.004.018.02.002.014.01-.003-.02a.667.667 0 01-.059-.158c-.078-.299-.127-.91-.117-1.73.01-.82.08-1.38.154-1.564.004-.01.002-.004.006-.01zM4.445 5.748a.178.178 0 00-.086.066.578.578 0 00-.084.204C4.186 6.358 4.14 7.034 4.14 8s.047 1.641.136 1.982c.023.086.045.15.084.204.02.026.046.052.086.066a.16.16 0 00.123-.012c.066-.038.094-.095.127-.17a1.96 1.96 0 00.098-.295c.258-.988.258-2.562 0-3.55a1.96 1.96 0 00-.098-.295c-.033-.075-.06-.132-.127-.17a.16.16 0 00-.123-.012zm8 0a.178.178 0 00-.086.066.578.578 0 00-.084.204c-.089.34-.136 1.016-.136 1.982s.047 1.641.136 1.982c.023.086.045.15.084.204.02.026.046.052.086.066a.16.16 0 00.123-.012c.066-.038.094-.095.127-.17a1.96 1.96 0 00.098-.295c.258-.988.258-2.562 0-3.55a1.958 1.958 0 00-.098-.295c-.033-.075-.06-.132-.127-.17a.16.16 0 00-.123-.012zm8 0a.178.178 0 00-.086.066.578.578 0 00-.084.204c-.089.34-.136 1.016-.136 1.982s.047 1.641.136 1.982c.023.086.045.15.084.204.02.026.046.052.086.066a.16.16 0 00.123-.012c.066-.038.094-.095.127-.17a1.96 1.96 0 00.098-.295c.258-.988.258-2.562 0-3.55a1.958 1.958 0 00-.098-.295c-.033-.075-.06-.132-.127-.17a.16.16 0 00-.123-.012zm8 0a.178.178 0 00-.086.066.578.578 0 00-.084.204c-.089.34-.136 1.016-.136 1.982s.047 1.641.136 1.982c.023.086.045.15.084.204.02.026.046.052.086.066a.16.16 0 00.123-.012c.066-.038.094-.095.127-.17a1.96 1.96 0 00.098-.295c.258-.988.258-2.562 0-3.55a1.958 1.958 0 00-.098-.295c-.033-.075-.06-.132-.127-.17a.16.16 0 00-.123-.012zM4.5 5.988c.007.011.004.005.012.022.026.059.057.148.088.265.244.937.244 2.513 0 3.45-.031.117-.062.206-.088.265-.008.017-.005.01-.012.022-.01-.024-.02-.037-.031-.08-.077-.294-.131-.973-.131-1.932s.054-1.638.13-1.932c.012-.043.022-.056.032-.08zm8 0c.007.011.004.005.012.022.026.059.057.148.088.265.244.937.244 2.513 0 3.45-.031.117-.062.206-.088.265-.008.017-.005.01-.012.022-.01-.024-.02-.037-.031-.08-.077-.294-.131-.973-.131-1.932s.054-1.638.13-1.932c.012-.043.022-.056.032-.08zm8 0c.007.011.004.005.012.022.026.059.057.148.088.265.244.937.244 2.513 0 3.45-.031.117-.062.206-.088.265-.008.017-.005.01-.012.022-.01-.024-.02-.037-.031-.08-.077-.294-.131-.973-.131-1.932s.054-1.638.13-1.932c.012-.043.022-.056.032-.08zm8 0c.007.011.004.005.012.022.026.059.057.148.088.265.244.937.244 2.513 0 3.45-.031.117-.062.206-.088.265-.008.017-.005.01-.012.022-.01-.024-.02-.037-.031-.08-.077-.294-.131-.973-.131-1.932s.054-1.638.13-1.932c.012-.043.022-.056.032-.08zM.502 11.695a.16.16 0 00-.113.012c-.065.035-.093.09-.12.156-.105.262-.157.806-.167 1.635-.01.83.034 1.443.123 1.785a.807.807 0 00.08.21c.033.055.082.11.158.116.076.007.136-.039.178-.091a.838.838 0 00.115-.211c.29-.719.3-2.067.04-3.063-.064-.249-.116-.4-.206-.494a.194.194 0 00-.088-.055zm8 0a.16.16 0 00-.113.012c-.065.035-.093.09-.12.156-.105.262-.157.806-.167 1.635-.01.83.034 1.443.123 1.785a.807.807 0 00.08.21c.033.055.082.11.158.116.076.007.136-.039.178-.091a.838.838 0 00.115-.211c.29-.719.3-2.067.04-3.063-.064-.249-.116-.4-.206-.494a.194.194 0 00-.088-.055zm8 0a.16.16 0 00-.113.012c-.065.035-.093.09-.12.156-.105.262-.157.806-.167 1.635-.01.83.034 1.443.123 1.785a.807.807 0 00.08.21c.033.055.082.11.158.116.076.007.136-.039.178-.091a.838.838 0 00.115-.211c.29-.719.3-2.067.04-3.063-.064-.249-.116-.4-.206-.494a.194.194 0 00-.088-.055zm8 0a.16.16 0 00-.113.012c-.065.035-.093.09-.12.156-.105.262-.157.806-.167 1.635-.01.83.034 1.443.123 1.785a.807.807 0 00.08.21c.033.055.082.11.158.116.076.007.136-.039.178-.091a.838.838 0 00.115-.211c.29-.719.3-2.067.04-3.063-.064-.249-.116-.4-.206-.494a.194.194 0 00-.088-.055zm-24.041.233c.03.043.087.152.143.367.247.95.223 2.302-.034 2.937a.682.682 0 01-.086.16c-.021.028-.022.016-.004.018.02.002.014.01-.003-.02a.667.667 0 01-.059-.158c-.078-.299-.127-.91-.117-1.73.01-.82.08-1.38.154-1.564.004-.01.002-.004.006-.01zm8 0c.03.043.087.152.143.367.247.95.223 2.302-.034 2.937a.682.682 0 01-.086.16c-.021.028-.022.016-.004.018.019.002.014.01-.003-.02a.667.667 0 01-.059-.158c-.078-.299-.127-.91-.117-1.73.01-.82.08-1.38.154-1.565l.006-.01zm8 0c.03.043.087.152.143.367.247.95.223 2.302-.034 2.937a.682.682 0 01-.086.16c-.021.028-.022.016-.004.018.02.002.014.01-.003-.02a.667.667 0 01-.059-.158c-.078-.299-.127-.91-.117-1.73.01-.82.08-1.38.154-1.564.004-.01.002-.004.006-.01zm8 0c.03.043.087.152.143.367.247.95.223 2.302-.034 2.937a.682.682 0 01-.086.16c-.021.028-.022.016-.004.018.02.002.014.01-.003-.02a.667.667 0 01-.059-.158c-.078-.299-.127-.91-.117-1.73.01-.82.08-1.38.154-1.564.004-.01.002-.004.006-.01zM4.502 16.695a.16.16 0 00-.113.012c-.065.035-.093.09-.12.156-.105.262-.157.806-.167 1.635-.01.83.034 1.443.123 1.785a.807.807 0 00.08.21c.033.055.082.11.158.116.076.007.136-.039.178-.091a.838.838 0 00.115-.211c.29-.719.3-2.067.04-3.063-.064-.249-.116-.4-.206-.494a.194.194 0 00-.088-.055zm8 0a.16.16 0 00-.113.012c-.065.035-.093.09-.12.156-.105.262-.157.806-.167 1.635-.01.83.034 1.443.123 1.785a.807.807 0 00.08.21c.033.055.082.11.158.116.076.007.136-.039.178-.091a.838.838 0 00.115-.211c.29-.719.3-2.067.04-3.063-.064-.249-.116-.4-.206-.494a.194.194 0 00-.088-.055zm8 0a.16.16 0 00-.113.012c-.065.035-.093.09-.12.156-.105.262-.157.806-.167 1.635-.01.83.034 1.443.123 1.785a.807.807 0 00.08.21c.033.055.082.11.158.116.076.007.136-.039.178-.091a.838.838 0 00.115-.211c.29-.719.3-2.067.04-3.063-.064-.249-.116-.4-.206-.494a.194.194 0 00-.088-.055zm8 0a.16.16 0 00-.113.012c-.065.035-.093.09-.12.156-.105.262-.157.806-.167 1.635-.01.83.034 1.443.123 1.785a.807.807 0 00.08.21c.033.055.082.11.158.116.076.007.136-.039.178-.091a.838.838 0 00.115-.211c.29-.719.3-2.067.04-3.063-.064-.249-.116-.4-.206-.494a.194.194 0 00-.088-.055zm-24.041.233c.03.043.087.152.143.367.247.95.223 2.302-.034 2.937a.682.682 0 01-.086.16c-.021.028-.022.016-.004.018.019.002.014.01-.003-.02a.667.667 0 01-.059-.158c-.078-.299-.127-.91-.117-1.73.01-.82.08-1.38.154-1.564.004-.01.002-.004.006-.01zm8 0c.03.043.087.152.143.367.247.95.223 2.302-.034 2.937a.682.682 0 01-.086.16c-.021.028-.022.016-.004.018.02.002.014.01-.003-.02a.667.667 0 01-.059-.158c-.078-.299-.127-.91-.117-1.73.01-.82.08-1.38.154-1.564.004-.01.002-.004.006-.01zm8 0c.03.043.087.152.143.367.247.95.223 2.302-.034 2.937a.682.682 0 01-.086.16c-.021.028-.022.016-.004.018.02.002.014.01-.003-.02a.667.667 0 01-.059-.158c-.078-.299-.127-.91-.117-1.73.01-.82.08-1.38.154-1.564.004-.01.002-.004.006-.01zm8 0c.03.043.087.152.143.367.247.95.223 2.302-.034 2.937a.682.682 0 01-.086.16c-.021.028-.022.016-.004.018.02.002.014.01-.003-.02a.667.667 0 01-.059-.158c-.078-.299-.127-.91-.117-1.73.01-.82.08-1.38.154-1.564.004-.01.002-.004.006-.01zM.445 21.748a.178.178 0 00-.086.066.578.578 0 00-.084.204C.186 22.358.14 23.034.14 24s.047 1.641.136 1.982c.023.086.045.15.084.204.02.026.046.052.086.066a.16.16 0 00.123-.012c.066-.038.094-.095.127-.17a1.96 1.96 0 00.098-.295c.258-.988.258-2.562 0-3.55a1.96 1.96 0 00-.098-.295c-.033-.075-.06-.132-.127-.17a.16.16 0 00-.123-.012zm8 0a.178.178 0 00-.086.066.578.578 0 00-.084.204c-.089.34-.136 1.016-.136 1.982s.047 1.641.136 1.982c.023.086.045.15.084.204.02.026.046.052.086.066a.16.16 0 00.123-.012c.066-.038.094-.095.127-.17a1.96 1.96 0 00.098-.295c.258-.988.258-2.562 0-3.55a1.96 1.96 0 00-.098-.295c-.033-.075-.06-.132-.127-.17a.16.16 0 00-.123-.012zm8 0a.178.178 0 00-.086.066.578.578 0 00-.084.204c-.089.34-.136 1.016-.136 1.982s.047 1.641.136 1.982c.023.086.045.15.084.204.02.026.046.052.086.066a.16.16 0 00.123-.012c.066-.038.094-.095.127-.17a1.96 1.96 0 00.098-.295c.258-.988.258-2.562 0-3.55a1.958 1.958 0 00-.098-.295c-.033-.075-.06-.132-.127-.17a.16.16 0 00-.123-.012zm8 0a.178.178 0 00-.086.066.578.578 0 00-.084.204c-.089.34-.136 1.016-.136 1.982s.047 1.641.136 1.982c.023.086.045.15.084.204.02.026.046.052.086.066a.16.16 0 00.123-.012c.066-.038.094-.095.127-.17a1.96 1.96 0 00.098-.295c.258-.988.258-2.562 0-3.55a1.958 1.958 0 00-.098-.295c-.033-.075-.06-.132-.127-.17a.16.16 0 00-.123-.012zM.5 21.988c.007.011.004.005.012.022.026.059.057.148.088.265.244.937.244 2.513 0 3.45-.031.117-.062.206-.088.265-.008.017-.005.01-.012.022-.01-.024-.02-.037-.031-.08C.392 25.638.338 24.959.338 24s.054-1.638.13-1.932c.012-.043.022-.056.032-.08zm8 0c.007.011.004.005.012.022.026.059.057.148.088.265.244.937.244 2.513 0 3.45-.031.117-.062.206-.088.265-.008.017-.005.01-.012.022-.01-.024-.02-.037-.031-.08-.077-.294-.131-.973-.131-1.932s.054-1.638.13-1.932c.012-.043.022-.056.032-.08zm8 0c.007.011.004.005.012.022.026.059.057.148.088.265.244.937.244 2.513 0 3.45-.031.117-.062.206-.088.265-.008.017-.005.01-.012.022-.01-.024-.02-.037-.031-.08-.077-.294-.131-.973-.131-1.932s.054-1.638.13-1.932c.012-.043.022-.056.032-.08zm8 0c.007.011.004.005.012.022.026.059.057.148.088.265.244.937.244 2.513 0 3.45-.031.117-.062.206-.088.265-.008.017-.005.01-.012.022-.01-.024-.02-.037-.031-.08-.077-.294-.131-.973-.131-1.932s.054-1.638.13-1.932c.012-.043.022-.056.032-.08zM4.502 27.695a.16.16 0 00-.113.012c-.065.035-.093.09-.12.156-.105.262-.157.806-.167 1.635-.01.83.034 1.443.123 1.785a.807.807 0 00.08.21c.033.055.082.11.158.116.076.007.136-.039.178-.091a.838.838 0 00.115-.211c.29-.719.3-2.067.04-3.063-.064-.249-.116-.4-.206-.494a.194.194 0 00-.088-.055zm8 0a.16.16 0 00-.113.012c-.065.035-.093.09-.12.156-.105.262-.157.806-.167 1.635-.01.83.034 1.443.123 1.785a.807.807 0 00.08.21c.033.055.082.11.158.116.076.007.136-.039.178-.091a.838.838 0 00.115-.211c.29-.719.3-2.067.04-3.063-.064-.249-.116-.4-.206-.494a.194.194 0 00-.088-.055zm8 0a.16.16 0 00-.113.012c-.065.035-.093.09-.12.156-.105.262-.157.806-.167 1.635-.01.83.034 1.443.123 1.785a.807.807 0 00.08.21c.033.055.082.11.158.116.076.007.136-.039.178-.091a.838.838 0 00.115-.211c.29-.719.3-2.067.04-3.063-.064-.249-.116-.4-.206-.494a.194.194 0 00-.088-.055zm8 0a.16.16 0 00-.113.012c-.065.035-.093.09-.12.156-.105.262-.157.806-.167 1.635-.01.83.034 1.443.123 1.785a.807.807 0 00.08.21c.033.055.082.11.158.116.076.007.136-.039.178-.091a.838.838 0 00.115-.211c.29-.719.3-2.067.04-3.063-.064-.249-.116-.4-.206-.494a.194.194 0 00-.088-.055zm-24.041.233c.03.043.087.152.143.367.247.95.223 2.302-.034 2.937a.682.682 0 01-.086.16c-.021.028-.022.016-.004.018.019.002.014.01-.003-.02a.667.667 0 01-.059-.158c-.078-.299-.127-.91-.117-1.73.01-.82.08-1.38.154-1.564.004-.01.002-.004.006-.01zm8 0c.03.043.087.152.143.367.247.95.223 2.302-.034 2.937a.682.682 0 01-.086.16c-.021.028-.022.016-.004.018.02.002.014.01-.003-.02a.667.667 0 01-.059-.158c-.078-.299-.127-.91-.117-1.73.01-.82.08-1.38.154-1.564.004-.01.002-.004.006-.01zm8 0c.03.043.087.152.143.367.247.95.223 2.302-.034 2.937a.682.682 0 01-.086.16c-.021.028-.022.016-.004.018.02.002.014.01-.003-.02a.667.667 0 01-.059-.158c-.078-.299-.127-.91-.117-1.73.01-.82.08-1.38.154-1.564.004-.01.002-.004.006-.01zm8 0c.03.043.087.152.143.367.247.95.223 2.302-.034 2.937a.682.682 0 01-.086.16c-.021.028-.022.016-.004.018.02.002.014.01-.003-.02a.667.667 0 01-.059-.158c-.078-.299-.127-.91-.117-1.73.01-.82.08-1.38.154-1.564.004-.01.002-.004.006-.01z" style="line-height:normal;font-variant-ligatures:normal;font-variant-position:normal;font-variant-caps:normal;font-variant-numeric:normal;font-variant-alternates:normal;font-variant-east-asian:normal;font-feature-settings:normal;font-variation-settings:normal;text-indent:0;text-align:start;text-decoration-line:none;text-decoration-style:solid;text-decoration-color:#000;text-transform:none;text-orientation:mixed;white-space:normal;shape-padding:0;shape-margin:0;inline-size:0;isolation:auto;mix-blend-mode:normal;solid-color:#000;solid-opacity:1" overflow="visible"/></g></g></svg>