<svg xmlns="http://www.w3.org/2000/svg" viewBox="0 0 8 8" height="8" width="8"><g stroke-width="4" color="#000"><path style="isolation:auto;mix-blend-mode:normal;solid-color:#000;solid-opacity:1;marker:none" overflow="visible" fill="#dcfebb" fill-rule="evenodd" d="M0 0h8v8H0z"/><g fill="#aa8847" font-weight="400" font-family="sans-serif"><path d="M1.05 7.375c.005-.412.061-.551.125-.308.063.243.06.581-.01.75-.068.17-.12-.03-.115-.442zm2 0c.005-.412.061-.551.125-.308.063.243.06.581-.01.75-.068.17-.12-.03-.115-.442zm2 0c.005-.412.061-.551.125-.308.063.243.06.581-.01.75-.068.17-.12-.03-.115-.442zm2 0c.005-.412.061-.551.125-.308.063.243.06.581-.01.75-.068.17-.12-.03-.115-.442zM.06 6c0-.481.051-.678.114-.438.063.241.063.635 0 .875C.111 6.678.06 6.481.06 6zm2 0c0-.481.051-.678.114-.438.063.241.063.635 0 .875-.063.241-.114.044-.114-.437zm2 0c0-.481.051-.678.114-.438.063.241.063.635 0 .875-.063.241-.114.044-.114-.437zm2 0c0-.481.051-.678.114-.438.063.241.063.635 0 .875-.063.241-.114.044-.114-.437zM1.05 4.625c.005-.412.061-.551.125-.308.063.243.06.581-.01.75-.068.17-.12-.03-.115-.442zm2 0c.005-.412.061-.551.125-.308.063.243.06.581-.01.75-.068.17-.12-.03-.115-.442zm2 0c.005-.412.061-.551.125-.308.063.243.06.581-.01.75-.068.17-.12-.03-.115-.442zm2 0c.005-.412.061-.551.125-.308.063.243.06.581-.01.75-.068.17-.12-.03-.115-.442zm-7-1.25c.005-.412.061-.551.125-.308.063.243.06.581-.01.75-.068.17-.12-.03-.115-.442zm2 0c.005-.412.061-.551.125-.308.063.243.06.581-.01.75-.068.17-.12-.03-.115-.442zm2 0c.005-.412.061-.551.125-.308.063.243.06.581-.01.75-.068.17-.12-.03-.115-.442zm2 0c.005-.412.061-.551.125-.308.063.243.06.581-.01.75-.068.17-.12-.03-.115-.442zM1.06 2c0-.481.051-.678.114-.438.063.241.063.635 0 .875-.063.241-.114.044-.114-.437zm2 0c0-.481.051-.678.114-.438.063.241.063.635 0 .875-.063.241-.114.044-.114-.437zm2 0c0-.481.051-.678.114-.438.063.241.063.635 0 .875-.063.241-.114.044-.114-.437zm2 0c0-.481.051-.678.114-.438.063.241.063.635 0 .875-.063.241-.114.044-.114-.437zM.05.625C.055.213.111.074.175.317c.063.243.06.581-.01.75-.068.17-.12-.03-.115-.442zm2 0c.005-.412.061-.551.125-.308.063.243.06.581-.01.75-.068.17-.12-.03-.115-.442zm2 0c.005-.412.061-.551.125-.308.063.243.06.581-.01.75-.068.17-.12-.03-.115-.442zm2 0c.005-.412.061-.551.125-.308.063.243.06.581-.01.75-.068.17-.12-.03-.115-.442z" style="line-height:normal;font-variant-ligatures:normal;font-variant-position:normal;font-variant-caps:normal;font-variant-numeric:normal;font-variant-alternates:normal;font-variant-east-asian:normal;font-feature-settings:normal;font-variation-settings:normal;text-indent:0;text-align:start;text-decoration-line:none;text-decoration-style:solid;text-decoration-color:#000;text-transform:none;text-orientation:mixed;white-space:normal;shape-padding:0;shape-margin:0;inline-size:0;isolation:auto;mix-blend-mode:normal;solid-color:#000;solid-opacity:1" overflow="visible"/><path d="M.125.174a.04.04 0 00-.028.003C.081.185.074.199.067.216.041.28.028.417.025.625c-.002.207.009.36.031.446a.202.202 0 00.02.052c.008.014.02.028.04.03.019.001.034-.01.044-.024a.21.21 0 00.029-.052C.262.897.264.56.199.31.183.249.17.211.147.188A.049.049 0 00.125.173zm2 0a.04.04 0 00-.028.003c-.016.008-.023.022-.03.039-.026.065-.039.201-.042.409-.002.207.009.36.031.446a.202.202 0 00.02.052c.008.014.02.028.04.03.019.001.034-.01.044-.024a.21.21 0 00.029-.052c.073-.18.075-.517.01-.766-.016-.062-.03-.1-.052-.123a.049.049 0 00-.022-.014zm2 0a.04.04 0 00-.028.003c-.016.008-.023.022-.03.039-.026.065-.039.201-.042.409-.002.207.009.36.031.446a.202.202 0 00.02.052c.008.014.02.028.04.03.019.001.034-.01.044-.024a.21.21 0 00.029-.052c.073-.18.075-.517.01-.766-.016-.062-.03-.1-.052-.123a.049.049 0 00-.022-.014zm2 0a.04.04 0 00-.028.003c-.016.008-.023.022-.03.039-.026.065-.039.201-.042.409-.002.207.009.36.031.446a.202.202 0 00.02.052c.008.014.02.028.04.03.019.001.034-.01.044-.024a.21.21 0 00.029-.052c.073-.18.075-.517.01-.766-.016-.062-.03-.1-.052-.123a.049.049 0 00-.022-.014zM.115.232c.008.01.022.038.036.092.062.237.056.575-.008.734a.17.17 0 01-.022.04c-.005.007-.006.004 0 .005.004 0 .002.002-.002-.005a.167.167 0 01-.015-.04A1.941 1.941 0 01.075.625C.078.42.095.281.114.235L.115.231zm2 0c.008.01.022.038.036.092.062.237.056.575-.008.734a.17.17 0 01-.022.04c-.005.007-.006.004 0 .005.004 0 .002.002-.002-.005a.167.167 0 01-.015-.04 1.941 1.941 0 01-.029-.433c.003-.205.02-.344.039-.39l.001-.003zm2 0c.008.01.022.038.036.092.062.237.056.575-.008.734a.17.17 0 01-.022.04c-.005.007-.006.004 0 .005.004 0 .002.002-.002-.005a.167.167 0 01-.015-.04 1.941 1.941 0 01-.029-.433c.003-.205.02-.344.039-.39l.001-.003zm2 0c.008.01.022.038.036.092.062.237.056.575-.008.734a.17.17 0 01-.022.04c-.005.007-.006.004 0 .005.004 0 .002.002-.002-.005a.167.167 0 01-.015-.04 1.941 1.941 0 01-.029-.433c.003-.205.02-.344.039-.39l.001-.003zM1.111 1.437a.044.044 0 00-.021.017.145.145 0 00-.021.05A2.366 2.366 0 001.035 2c0 .242.012.41.034.496a.145.145 0 00.02.05.044.044 0 00.022.017.04.04 0 00.031-.003c.017-.01.024-.024.032-.042a.49.49 0 00.024-.074c.065-.247.065-.64 0-.888a.49.49 0 00-.024-.074c-.008-.018-.015-.033-.032-.042a.04.04 0 00-.03-.003zm2 0a.044.044 0 00-.021.017.145.145 0 00-.021.05A2.366 2.366 0 003.035 2c0 .242.012.41.034.496a.145.145 0 00.02.05.044.044 0 00.022.017.04.04 0 00.031-.003c.017-.01.024-.024.032-.042a.49.49 0 00.024-.074c.065-.247.065-.64 0-.888a.49.49 0 00-.024-.074c-.008-.018-.015-.033-.032-.042a.04.04 0 00-.03-.003zm2 0a.044.044 0 00-.021.017.144.144 0 00-.021.05A2.366 2.366 0 005.035 2c0 .242.012.41.034.496a.145.145 0 00.02.05.044.044 0 00.022.017.04.04 0 00.031-.003c.017-.01.024-.024.032-.042a.49.49 0 00.024-.074c.065-.247.065-.64 0-.888a.49.49 0 00-.024-.074c-.008-.018-.015-.033-.032-.042a.04.04 0 00-.03-.003zm2 0a.044.044 0 00-.021.017.144.144 0 00-.021.05A2.366 2.366 0 007.035 2c0 .242.012.41.034.496a.145.145 0 00.02.05.044.044 0 00.022.017.04.04 0 00.031-.003c.017-.01.024-.024.032-.042a.49.49 0 00.024-.074c.065-.247.065-.64 0-.888a.49.49 0 00-.024-.074c-.008-.018-.015-.033-.032-.042a.04.04 0 00-.03-.003zm-5.986.06l.003.005a.454.454 0 01.022.067c.061.234.061.628 0 .862a.454.454 0 01-.022.067l-.003.005-.008-.02A2.41 2.41 0 011.084 2c0-.24.014-.41.033-.483l.008-.02zm2 0l.003.005a.454.454 0 01.022.067c.061.234.061.628 0 .862a.454.454 0 01-.022.067l-.003.005-.008-.02A2.41 2.41 0 013.084 2c0-.24.014-.41.033-.483l.008-.02zm2 0l.003.005a.454.454 0 01.022.067c.061.234.061.628 0 .862a.454.454 0 01-.022.067l-.003.005-.008-.02A2.41 2.41 0 015.084 2c0-.24.014-.41.033-.483l.008-.02zm2 0l.003.005a.454.454 0 01.022.067c.061.234.061.628 0 .862a.454.454 0 01-.022.067l-.003.005-.008-.02A2.41 2.41 0 017.084 2c0-.24.014-.41.033-.483l.008-.02zm-7 1.427a.04.04 0 00-.028.003c-.016.008-.023.022-.03.039-.026.065-.039.201-.042.409-.002.207.009.36.031.446a.202.202 0 00.02.052c.008.014.02.028.04.03.019.001.034-.01.044-.024a.21.21 0 00.029-.052c.073-.18.075-.517.01-.766-.016-.062-.03-.1-.052-.123a.049.049 0 00-.022-.014zm2 0a.04.04 0 00-.028.003c-.016.008-.023.022-.03.039-.026.065-.039.201-.042.409-.002.207.009.36.031.446a.202.202 0 00.02.052c.008.014.02.028.04.03.019.001.034-.01.044-.024a.21.21 0 00.029-.052c.073-.18.075-.517.01-.766-.016-.062-.03-.1-.052-.123a.049.049 0 00-.022-.014zm2 0a.04.04 0 00-.028.003c-.016.008-.023.022-.03.039-.026.065-.039.201-.042.409-.002.207.009.36.031.446a.202.202 0 00.02.052c.008.014.02.028.04.03.019.001.034-.01.044-.024a.21.21 0 00.029-.052c.073-.18.075-.517.01-.766-.016-.062-.03-.1-.052-.124a.049.049 0 00-.022-.013zm2 0a.04.04 0 00-.028.003c-.016.008-.023.022-.03.039-.026.065-.039.201-.042.409-.002.207.009.36.031.446a.202.202 0 00.02.052c.008.014.02.028.04.03.019.001.034-.01.044-.024a.21.21 0 00.029-.052c.073-.18.075-.517.01-.766-.016-.062-.03-.1-.052-.124a.049.049 0 00-.022-.013zm-6.01.058c.008.01.022.038.036.092.062.237.056.575-.008.734a.17.17 0 01-.022.04c-.005.007-.006.004 0 .005.004 0 .002.002-.002-.005a.167.167 0 01-.015-.04 1.941 1.941 0 01-.029-.433c.003-.205.02-.344.039-.39l.001-.003zm2 0c.008.01.022.038.036.092.062.237.056.575-.008.734a.17.17 0 01-.022.04c-.005.007-.006.004 0 .005.004 0 .002.002-.002-.005a.167.167 0 01-.015-.04 1.941 1.941 0 01-.029-.433c.003-.205.02-.344.039-.39l.001-.003zm2 0c.008.01.022.038.036.092.062.237.056.575-.008.734a.17.17 0 01-.022.04c-.005.007-.006.004 0 .005.004 0 .002.002-.002-.005a.167.167 0 01-.015-.04 1.941 1.941 0 01-.029-.433c.003-.205.02-.344.039-.39l.001-.003zm2 0c.008.01.022.038.036.092.062.237.056.575-.008.734a.17.17 0 01-.022.04c-.005.007-.006.004 0 .005.004 0 .002.002-.002-.005a.167.167 0 01-.015-.04 1.941 1.941 0 01-.029-.433c.003-.205.02-.344.039-.39l.001-.003zm-4.99 1.192a.04.04 0 00-.028.003c-.016.008-.023.022-.03.039-.026.065-.039.201-.042.409-.002.207.009.36.031.446a.202.202 0 00.02.052c.008.014.02.028.04.03.019.001.034-.01.044-.024a.21.21 0 00.029-.052c.073-.18.075-.517.01-.766-.016-.062-.03-.1-.052-.123a.049.049 0 00-.022-.014zm2 0a.04.04 0 00-.028.003c-.016.008-.023.022-.03.039-.026.065-.039.201-.042.409-.002.207.009.36.031.446a.202.202 0 00.02.052c.008.014.02.028.04.03.019.001.034-.01.044-.024a.21.21 0 00.029-.052c.073-.18.075-.517.01-.766-.016-.062-.03-.1-.052-.124a.049.049 0 00-.022-.013zm2 0a.04.04 0 00-.028.003c-.016.008-.023.022-.03.039-.026.065-.039.201-.042.409-.002.207.009.36.031.446a.202.202 0 00.02.052c.008.014.02.028.04.03.019.001.034-.01.044-.024a.21.21 0 00.029-.052c.073-.18.075-.517.01-.766-.016-.062-.03-.1-.052-.124a.049.049 0 00-.022-.013zm2 0a.04.04 0 00-.028.003c-.016.008-.023.022-.03.039-.026.065-.039.201-.042.409-.002.207.009.36.031.446a.202.202 0 00.02.052c.008.014.02.028.04.03.019.001.034-.01.044-.024a.21.21 0 00.029-.052c.073-.18.075-.517.01-.766-.016-.062-.03-.1-.052-.124a.049.049 0 00-.022-.013zm-6.01.058c.008.01.022.038.036.092.062.237.056.575-.008.734a.17.17 0 01-.022.04c-.005.007-.006.004 0 .005.004 0 .002.002-.002-.005a.167.167 0 01-.015-.04 1.941 1.941 0 01-.029-.433c.003-.205.02-.344.039-.39l.001-.003zm2 0c.008.01.022.038.036.092.062.237.056.575-.008.734a.17.17 0 01-.022.04c-.005.007-.006.004 0 .005.004 0 .002.002-.002-.005a.167.167 0 01-.015-.04 1.941 1.941 0 01-.029-.433c.003-.205.02-.344.039-.39l.001-.003zm2 0c.008.01.022.038.036.092.062.237.056.575-.008.734a.17.17 0 01-.022.04c-.005.007-.006.004 0 .005.004 0 .002.002-.002-.005a.167.167 0 01-.015-.04 1.941 1.941 0 01-.029-.433c.003-.205.02-.344.039-.39l.001-.003zm2 0c.008.01.022.038.036.092.062.237.056.575-.008.734a.17.17 0 01-.022.04c-.005.007-.006.004 0 .005.004 0 .002.002-.002-.005a.167.167 0 01-.015-.04 1.941 1.941 0 01-.029-.433c.003-.205.02-.344.039-.39l.001-.003zM.111 5.437a.044.044 0 00-.021.017.145.145 0 00-.021.05A2.366 2.366 0 00.035 6c0 .242.012.41.034.496a.145.145 0 00.02.05.044.044 0 00.022.017.04.04 0 00.031-.003c.017-.01.024-.024.032-.042a.49.49 0 00.024-.074c.065-.247.065-.64 0-.888a.49.49 0 00-.024-.074C.166 5.464.159 5.45.142 5.44a.04.04 0 00-.03-.003zm2 0a.044.044 0 00-.021.017.145.145 0 00-.021.05A2.366 2.366 0 002.035 6c0 .242.012.41.034.496a.145.145 0 00.02.05.044.044 0 00.022.017.04.04 0 00.031-.003c.017-.01.024-.024.032-.042a.49.49 0 00.024-.074c.065-.247.065-.64 0-.888a.49.49 0 00-.024-.074c-.008-.018-.015-.033-.032-.042a.04.04 0 00-.03-.003zm2 0a.044.044 0 00-.021.017.144.144 0 00-.021.05A2.366 2.366 0 004.035 6c0 .242.012.41.034.496a.145.145 0 00.02.05.044.044 0 00.022.017.04.04 0 00.031-.003c.017-.01.024-.024.032-.042a.49.49 0 00.024-.074c.065-.247.065-.64 0-.888a.49.49 0 00-.024-.074c-.008-.018-.015-.033-.032-.042a.04.04 0 00-.03-.003zm2 0a.044.044 0 00-.021.017.144.144 0 00-.021.05A2.366 2.366 0 006.035 6c0 .242.012.41.034.496a.145.145 0 00.02.05.044.044 0 00.022.017.04.04 0 00.031-.003c.017-.01.024-.024.032-.042a.49.49 0 00.024-.074c.065-.247.065-.64 0-.888a.49.49 0 00-.024-.074c-.008-.018-.015-.033-.032-.042a.04.04 0 00-.03-.003zm-5.986.06l.003.005a.454.454 0 01.022.067c.061.234.061.628 0 .862a.454.454 0 01-.022.067l-.003.005-.008-.02A2.41 2.41 0 01.084 6c0-.24.014-.41.033-.483l.008-.02zm2 0l.003.005a.454.454 0 01.022.067c.061.234.061.628 0 .862a.454.454 0 01-.022.067l-.003.005-.008-.02A2.41 2.41 0 012.084 6c0-.24.014-.41.033-.483l.008-.02zm2 0l.003.005a.454.454 0 01.022.067c.061.234.061.628 0 .862a.454.454 0 01-.022.067l-.003.005-.008-.02A2.41 2.41 0 014.084 6c0-.24.014-.41.033-.483l.008-.02zm2 0l.003.005a.454.454 0 01.022.067c.061.234.061.628 0 .862a.454.454 0 01-.022.067l-.003.005-.008-.02A2.41 2.41 0 016.084 6c0-.24.014-.41.033-.483l.008-.02zm-5 1.427a.04.04 0 00-.028.003c-.016.008-.023.022-.03.039-.026.065-.039.201-.042.409-.002.207.009.36.031.446a.202.202 0 00.02.052c.008.014.02.028.04.03.019.001.034-.01.044-.024a.21.21 0 00.029-.052c.073-.18.075-.517.01-.766-.016-.062-.03-.1-.052-.123a.049.049 0 00-.022-.014zm2 0a.04.04 0 00-.028.003c-.016.008-.023.022-.03.039-.026.065-.039.201-.042.409-.002.207.009.36.031.446a.202.202 0 00.02.052c.008.014.02.028.04.03.019.001.034-.01.044-.024a.21.21 0 00.029-.052c.073-.18.075-.517.01-.766-.016-.062-.03-.1-.052-.124a.049.049 0 00-.022-.013zm2 0a.04.04 0 00-.028.003c-.016.008-.023.022-.03.039-.026.065-.039.201-.042.409-.002.207.009.36.031.446a.202.202 0 00.02.052c.008.014.02.028.04.03.019.001.034-.01.044-.024a.21.21 0 00.029-.052c.073-.18.075-.517.01-.766-.016-.062-.03-.1-.052-.124a.049.049 0 00-.022-.013zm2 0a.04.04 0 00-.028.003c-.016.008-.023.022-.03.039-.026.065-.039.201-.042.409-.002.207.009.36.031.446a.202.202 0 00.02.052c.008.014.02.028.04.03.019.001.034-.01.044-.024a.21.21 0 00.029-.052c.073-.18.075-.517.01-.766-.016-.062-.03-.1-.052-.124a.049.049 0 00-.022-.013zm-6.01.058c.008.01.022.038.036.092.062.237.056.575-.008.734a.17.17 0 01-.022.04c-.005.007-.006.004 0 .005.004 0 .002.002-.002-.005a.167.167 0 01-.015-.04 1.941 1.941 0 01-.029-.433c.003-.205.02-.344.039-.39l.001-.003zm2 0c.008.01.022.038.036.092.062.237.056.575-.008.734a.17.17 0 01-.022.04c-.005.007-.006.004 0 .005.004 0 .002.002-.002-.005a.167.167 0 01-.015-.04 1.941 1.941 0 01-.029-.433c.003-.205.02-.344.039-.39l.001-.003zm2 0c.008.01.022.038.036.092.062.237.056.575-.008.734a.17.17 0 01-.022.04c-.005.007-.006.004 0 .005.004 0 .002.002-.002-.005a.167.167 0 01-.015-.04 1.941 1.941 0 01-.029-.433c.003-.205.02-.344.039-.39l.001-.003zm2 0c.008.01.022.038.036.092.062.237.056.575-.008.734a.17.17 0 01-.022.04c-.005.007-.006.004 0 .005.004 0 .002.002-.002-.005a.167.167 0 01-.015-.04 1.941 1.941 0 01-.029-.433c.003-.205.02-.344.039-.39l.001-.003z" style="line-height:normal;font-variant-ligatures:normal;font-variant-position:normal;font-variant-caps:normal;font-variant-numeric:normal;font-variant-alternates:normal;font-variant-east-asian:normal;font-feature-settings:normal;font-variation-settings:normal;text-indent:0;text-align:start;text-decoration-line:none;text-decoration-style:solid;text-decoration-color:#000;text-transform:none;text-orientation:mixed;white-space:normal;shape-padding:0;shape-margin:0;inline-size:0;isolation:auto;mix-blend-mode:normal;solid-color:#000;solid-opacity:1" overflow="visible"/></g></g></svg>