<svg xmlns="http://www.w3.org/2000/svg" viewBox="0 0 64 64" height="64" width="64"><g stroke-width=".5" color="#000"><path style="isolation:auto;mix-blend-mode:normal;solid-color:#000;solid-opacity:1;marker:none" overflow="visible" fill="#dcfebb" fill-rule="evenodd" d="M0 0h64v64H0z"/><g fill="#aa8847" font-weight="400" font-family="sans-serif"><path d="M8.403 59c.04-3.3.489-4.408.996-2.462.507 1.946.474 4.646-.074 6-.548 1.354-.963-.238-.922-3.538zm16 0c.04-3.3.489-4.408.996-2.462.507 1.946.474 4.646-.074 6-.548 1.354-.963-.238-.922-3.538zm16 0c.04-3.3.489-4.408.996-2.462.507 1.946.474 4.646-.074 6-.548 1.354-.963-.238-.922-3.538zm16 0c.04-3.3.489-4.408.996-2.462.507 1.946.474 4.646-.074 6-.548 1.354-.963-.238-.922-3.538zM.477 48c0-3.85.412-5.425.915-3.5.503 1.925.503 5.075 0 7-.503 1.925-.915.35-.915-3.5zm16 0c0-3.85.412-5.425.915-3.5.503 1.925.503 5.075 0 7-.503 1.925-.915.35-.915-3.5zm16 0c0-3.85.412-5.425.915-3.5.503 1.925.503 5.075 0 7-.503 1.925-.915.35-.915-3.5zm16 0c0-3.85.412-5.425.915-3.5.503 1.925.503 5.075 0 7-.503 1.925-.915.35-.915-3.5zM8.403 37c.04-3.3.489-4.408.996-2.462.507 1.946.474 4.646-.074 6-.548 1.354-.963-.238-.922-3.538zm16 0c.04-3.3.489-4.408.996-2.462.507 1.946.474 4.646-.074 6-.548 1.354-.963-.238-.922-3.538zm16 0c.04-3.3.489-4.408.996-2.462.507 1.946.474 4.646-.074 6-.548 1.354-.963-.238-.922-3.538zm16 0c.04-3.3.489-4.408.996-2.462.507 1.946.474 4.646-.074 6-.548 1.354-.963-.238-.922-3.538zm-56-10c.04-3.3.489-4.408.996-2.462.507 1.946.474 4.646-.074 6C.777 31.892.362 30.3.403 27zm16 0c.04-3.3.489-4.408.996-2.462.507 1.946.474 4.646-.074 6-.548 1.354-.963-.238-.922-3.538zm16 0c.04-3.3.489-4.408.996-2.462.507 1.946.474 4.646-.074 6-.548 1.354-.963-.238-.922-3.538zm16 0c.04-3.3.489-4.408.996-2.462.507 1.946.474 4.646-.074 6-.548 1.354-.963-.238-.922-3.538zM8.477 16c0-3.85.412-5.425.915-3.5.503 1.925.503 5.075 0 7-.503 1.925-.915.35-.915-3.5zm16 0c0-3.85.412-5.425.915-3.5.503 1.925.503 5.075 0 7-.503 1.925-.915.35-.915-3.5zm16 0c0-3.85.412-5.425.915-3.5.503 1.925.503 5.075 0 7-.503 1.925-.915.35-.915-3.5zm16 0c0-3.85.412-5.425.915-3.5.503 1.925.503 5.075 0 7-.503 1.925-.915.35-.915-3.5zM.403 5c.04-3.3.489-4.408.996-2.462.507 1.946.474 4.646-.074 6C.777 9.892.362 8.3.403 5zm16 0c.04-3.3.489-4.408.996-2.462.507 1.946.474 4.646-.074 6-.548 1.354-.963-.238-.922-3.538zm16 0c.04-3.3.489-4.408.996-2.462.507 1.946.474 4.646-.074 6-.548 1.354-.963-.238-.922-3.538zm16 0c.04-3.3.489-4.408.996-2.462.507 1.946.474 4.646-.074 6-.548 1.354-.963-.238-.922-3.538z" style="line-height:normal;font-variant-ligatures:normal;font-variant-position:normal;font-variant-caps:normal;font-variant-numeric:normal;font-variant-alternates:normal;font-variant-east-asian:normal;font-feature-settings:normal;font-variation-settings:normal;text-indent:0;text-align:start;text-decoration-line:none;text-decoration-style:solid;text-decoration-color:#000;text-transform:none;text-orientation:mixed;white-space:normal;shape-padding:0;shape-margin:0;inline-size:0;isolation:auto;mix-blend-mode:normal;solid-color:#000;solid-opacity:1" overflow="visible"/><path d="M1.004 1.39a.318.318 0 00-.227.024c-.13.07-.185.182-.238.313-.212.523-.315 1.61-.336 3.27-.02 1.658.068 2.886.246 3.57.045.17.094.305.16.417.067.112.164.221.317.235.152.014.271-.079.355-.184.084-.105.158-.242.23-.422.582-1.437.602-4.133.083-6.125-.13-.498-.235-.802-.414-.988a.388.388 0 00-.176-.11zm16 0a.318.318 0 00-.227.024c-.13.07-.185.182-.238.313-.212.523-.315 1.61-.336 3.27-.02 1.658.068 2.886.246 3.57.045.17.094.305.16.417.067.112.164.221.317.235.152.014.271-.079.355-.184.084-.105.158-.242.23-.422.582-1.437.602-4.133.083-6.125-.13-.498-.235-.802-.414-.988a.388.388 0 00-.176-.11zm16 0a.318.318 0 00-.227.024c-.13.07-.185.182-.238.313-.212.523-.315 1.61-.336 3.27-.02 1.658.068 2.886.246 3.57.045.17.094.305.16.417.067.112.164.221.317.235.152.014.271-.079.355-.184.084-.105.158-.242.23-.422.582-1.437.602-4.133.083-6.125-.13-.498-.235-.802-.414-.988a.388.388 0 00-.176-.11zm16 0a.318.318 0 00-.227.024c-.13.07-.185.182-.238.313-.212.523-.315 1.61-.336 3.27-.02 1.658.068 2.886.246 3.57.045.17.094.305.16.417.067.112.164.221.317.235.152.014.271-.079.355-.184.084-.105.158-.242.23-.422.582-1.437.602-4.133.083-6.125-.13-.498-.235-.802-.414-.988a.388.388 0 00-.176-.11zM.922 1.856c.059.087.173.306.285.735.495 1.9.448 4.604-.066 5.875a1.364 1.364 0 01-.172.32c-.043.054-.045.032-.008.035.037.004.027.02-.008-.039a1.334 1.334 0 01-.117-.316C.68 7.866.58 6.645.602 5.004c.02-1.641.159-2.76.308-3.129.007-.018.005-.006.012-.02zm16 0c.059.087.173.306.285.735.495 1.9.448 4.604-.066 5.875a1.364 1.364 0 01-.172.32c-.043.054-.045.032-.008.035.037.004.027.02-.008-.039a1.334 1.334 0 01-.117-.316c-.156-.599-.255-1.82-.234-3.461.02-1.641.159-2.76.308-3.129.007-.018.005-.006.012-.02zm16 0c.059.087.173.306.285.735.495 1.9.448 4.604-.066 5.875a1.364 1.364 0 01-.172.32c-.043.054-.045.032-.008.035.037.004.027.02-.008-.039a1.334 1.334 0 01-.117-.316c-.156-.599-.255-1.82-.234-3.461.02-1.641.159-2.76.308-3.129.007-.018.005-.006.012-.02zm16 0c.059.087.173.306.285.735.495 1.9.448 4.604-.066 5.875a1.364 1.364 0 01-.172.32c-.043.054-.045.032-.008.035.037.004.027.02-.008-.039a1.334 1.334 0 01-.117-.316c-.156-.599-.255-1.82-.234-3.461.02-1.641.159-2.76.308-3.129.007-.018.005-.006.012-.02zM8.89 11.496a.355.355 0 00-.172.133c-.079.106-.124.236-.168.406-.179.682-.274 2.033-.274 3.965s.095 3.283.274 3.965c.044.17.09.3.168.406.039.053.092.105.172.133.08.027.18.014.246-.024.131-.075.187-.19.254-.34.066-.15.13-.342.195-.59.516-1.976.516-5.124 0-7.1a3.92 3.92 0 00-.195-.59c-.067-.15-.123-.265-.254-.34a.319.319 0 00-.246-.024zm16 0a.355.355 0 00-.172.133c-.079.106-.124.236-.168.406-.179.682-.274 2.033-.274 3.965s.095 3.283.274 3.965c.044.17.09.3.168.406.039.053.092.105.172.133.08.027.18.014.246-.024.131-.075.187-.19.254-.34.066-.15.13-.342.195-.59.516-1.976.516-5.124 0-7.1a3.92 3.92 0 00-.195-.59c-.067-.15-.123-.265-.254-.34a.319.319 0 00-.246-.024zm16 0a.355.355 0 00-.172.133c-.079.106-.124.236-.168.406-.179.682-.274 2.033-.274 3.965s.095 3.283.274 3.965c.044.17.09.3.168.406.039.053.092.105.172.133.08.027.18.014.246-.024.131-.075.187-.19.254-.34.066-.15.13-.342.195-.59.516-1.976.516-5.124 0-7.1a3.92 3.92 0 00-.195-.59c-.067-.15-.123-.265-.254-.34a.319.319 0 00-.246-.024zm16 0a.355.355 0 00-.172.133c-.079.106-.124.236-.168.406-.179.682-.274 2.033-.274 3.965s.095 3.283.274 3.965c.044.17.09.3.168.406.039.053.092.105.172.133.08.027.18.014.246-.024.131-.075.187-.19.254-.34.066-.15.13-.342.195-.59.516-1.976.516-5.124 0-7.1a3.92 3.92 0 00-.195-.59c-.067-.15-.123-.265-.254-.34a.319.319 0 00-.246-.024zM9 11.976c.014.023.009.01.023.044.053.117.115.297.176.53.49 1.874.49 5.026 0 6.9a3.63 3.63 0 01-.176.53c-.014.033-.01.021-.023.043-.02-.047-.04-.074-.063-.16-.153-.586-.261-1.945-.261-3.863s.108-3.277.261-3.863c.023-.086.042-.113.063-.16zm16 0c.014.023.009.01.023.044.053.117.115.297.176.53.49 1.874.49 5.026 0 6.9a3.63 3.63 0 01-.176.53c-.014.033-.01.021-.023.043-.02-.047-.04-.074-.063-.16-.153-.586-.261-1.945-.261-3.863s.108-3.277.262-3.863c.022-.086.041-.113.062-.16zm16 0c.014.023.009.01.023.044.053.117.115.297.176.53.49 1.874.49 5.026 0 6.9a3.63 3.63 0 01-.176.53c-.014.033-.01.021-.023.043-.02-.047-.04-.074-.063-.16-.153-.586-.261-1.945-.261-3.863s.108-3.277.261-3.863c.023-.086.042-.113.063-.16zm16 0c.014.023.009.01.023.044.053.117.115.297.176.53.49 1.874.49 5.026 0 6.9a3.63 3.63 0 01-.176.53c-.014.033-.01.021-.023.043-.02-.047-.04-.074-.063-.16-.153-.586-.261-1.945-.261-3.863s.108-3.277.261-3.863c.023-.086.042-.113.063-.16zM1.004 23.392a.318.318 0 00-.227.023c-.13.07-.185.182-.238.313-.212.523-.315 1.61-.336 3.27-.02 1.658.068 2.886.246 3.57.045.17.094.305.16.417.067.112.164.221.317.235.152.014.271-.079.355-.184.084-.105.158-.242.23-.422.582-1.437.602-4.133.083-6.125-.13-.498-.235-.802-.414-.988a.388.388 0 00-.176-.11zm16 0a.318.318 0 00-.227.023c-.13.07-.185.182-.238.313-.212.523-.315 1.61-.336 3.27-.02 1.658.068 2.886.246 3.57.045.17.094.305.16.417.067.112.164.221.317.235.152.014.271-.079.355-.184.084-.105.158-.242.23-.422.582-1.437.602-4.133.083-6.125-.13-.498-.235-.802-.414-.988a.388.388 0 00-.176-.11zm16 0a.318.318 0 00-.227.023c-.13.07-.185.182-.238.313-.212.523-.315 1.61-.336 3.27-.02 1.658.068 2.886.246 3.57.045.17.094.305.16.417.067.112.164.221.317.235.152.014.271-.079.355-.184.084-.105.158-.242.23-.422.582-1.437.602-4.133.083-6.125-.13-.498-.235-.802-.414-.988a.388.388 0 00-.176-.11zm16 0a.318.318 0 00-.227.023c-.13.07-.185.182-.238.313-.212.523-.315 1.61-.336 3.27-.02 1.658.068 2.886.246 3.57.045.17.094.305.16.417.067.112.164.221.317.235.152.014.271-.079.355-.184.084-.105.158-.242.23-.422.582-1.437.602-4.133.083-6.125-.13-.498-.235-.802-.414-.988a.388.388 0 00-.176-.11zm-48.082.464c.059.087.173.306.285.735.495 1.9.448 4.604-.066 5.875a1.364 1.364 0 01-.172.32c-.043.054-.045.032-.008.035.037.004.027.02-.008-.039a1.334 1.334 0 01-.117-.316c-.156-.599-.255-1.82-.234-3.461.02-1.641.159-2.76.308-3.129.007-.018.005-.006.012-.02zm16 0c.059.087.173.306.285.735.495 1.9.448 4.604-.066 5.875a1.364 1.364 0 01-.172.32c-.043.054-.045.032-.008.035.037.004.027.02-.008-.039a1.334 1.334 0 01-.117-.316c-.156-.599-.255-1.82-.234-3.461.02-1.641.159-2.76.308-3.129.007-.018.005-.006.012-.02zm16 0c.059.087.173.306.285.735.495 1.9.448 4.604-.066 5.875a1.364 1.364 0 01-.172.32c-.043.054-.045.032-.008.035.037.004.027.02-.008-.039a1.334 1.334 0 01-.117-.316c-.156-.599-.255-1.82-.234-3.461.02-1.641.159-2.76.308-3.129.007-.018.005-.006.012-.02zm16 0c.059.087.173.306.285.735.495 1.9.448 4.604-.066 5.875a1.364 1.364 0 01-.172.32c-.043.054-.045.032-.008.035.037.004.027.02-.008-.039a1.334 1.334 0 01-.117-.316c-.156-.599-.255-1.82-.234-3.461.02-1.641.159-2.76.308-3.129.007-.018.005-.006.012-.02zM9.004 33.391a.318.318 0 00-.227.023c-.13.07-.185.182-.238.313-.212.523-.315 1.61-.336 3.27-.02 1.658.068 2.886.246 3.57.045.17.094.305.16.417.067.112.164.221.317.235.152.014.271-.079.355-.184.084-.105.158-.242.23-.422.582-1.437.602-4.133.083-6.125-.13-.498-.235-.802-.414-.988a.388.388 0 00-.176-.11zm16 0a.318.318 0 00-.227.023c-.13.07-.185.182-.238.313-.212.523-.315 1.61-.336 3.27-.02 1.658.068 2.886.246 3.57.045.17.094.305.16.417.067.112.164.221.317.235.152.014.271-.079.355-.184.084-.105.158-.242.23-.422.582-1.437.602-4.133.083-6.125-.13-.498-.235-.802-.414-.988a.388.388 0 00-.176-.11zm16 0a.318.318 0 00-.227.023c-.13.07-.185.182-.238.313-.212.523-.315 1.61-.336 3.27-.02 1.658.068 2.886.246 3.57.045.17.094.305.16.417.067.112.164.221.317.235.152.014.271-.079.355-.184.084-.105.158-.242.23-.422.582-1.437.602-4.133.083-6.125-.13-.498-.235-.802-.414-.988a.388.388 0 00-.176-.11zm16 0a.318.318 0 00-.227.023c-.13.07-.185.182-.238.313-.212.523-.315 1.61-.336 3.27-.02 1.658.068 2.886.246 3.57.045.17.094.305.16.417.067.112.164.221.317.235.152.014.271-.079.355-.184.084-.105.158-.242.23-.422.582-1.437.602-4.133.083-6.125-.13-.498-.235-.802-.414-.988a.388.388 0 00-.176-.11zm-48.082.464c.059.087.173.306.285.735.495 1.9.448 4.604-.066 5.875a1.364 1.364 0 01-.172.32c-.043.054-.045.032-.008.035.037.004.027.02-.008-.039a1.334 1.334 0 01-.117-.316c-.156-.599-.255-1.82-.234-3.461.02-1.641.159-2.76.308-3.129.007-.018.005-.006.012-.02zm16 0c.059.087.173.306.285.735.495 1.9.448 4.604-.066 5.875a1.364 1.364 0 01-.172.32c-.043.054-.045.032-.008.035.037.004.027.02-.008-.039a1.334 1.334 0 01-.117-.316c-.156-.599-.255-1.82-.234-3.461.02-1.641.159-2.76.308-3.129.007-.018.005-.006.012-.02zm16 0c.059.087.173.306.285.735.495 1.9.448 4.604-.066 5.875a1.364 1.364 0 01-.172.32c-.043.054-.045.032-.008.035.037.004.027.02-.008-.039a1.334 1.334 0 01-.117-.316c-.156-.599-.255-1.82-.234-3.461.02-1.641.159-2.76.308-3.129.007-.018.005-.006.012-.02zm16 0c.059.087.173.306.285.735.495 1.9.448 4.604-.066 5.875a1.364 1.364 0 01-.172.32c-.043.054-.045.032-.008.035.037.004.027.02-.008-.039a1.334 1.334 0 01-.117-.316c-.156-.599-.255-1.82-.234-3.461.02-1.641.159-2.76.308-3.129.007-.018.005-.006.012-.02zM.89 43.496a.355.355 0 00-.172.133c-.079.106-.124.236-.168.406C.372 44.717.277 46.068.277 48s.095 3.283.274 3.965c.044.17.09.3.168.406.039.053.092.105.172.133.08.027.18.014.246-.024.131-.075.187-.19.254-.34.066-.15.13-.342.195-.59.516-1.976.516-5.124 0-7.1a3.92 3.92 0 00-.195-.59c-.067-.15-.123-.265-.254-.34a.319.319 0 00-.246-.024zm16 0a.355.355 0 00-.172.133c-.079.106-.124.236-.168.406-.179.682-.274 2.033-.274 3.965s.095 3.283.274 3.965c.044.17.09.3.168.406.039.053.092.105.172.133.08.027.18.014.246-.024.131-.075.187-.19.254-.34.066-.15.13-.342.195-.59.516-1.976.516-5.124 0-7.1a3.92 3.92 0 00-.195-.59c-.067-.15-.123-.265-.254-.34a.319.319 0 00-.246-.024zm16 0a.355.355 0 00-.172.133c-.079.106-.124.236-.168.406-.179.682-.274 2.033-.274 3.965s.095 3.283.274 3.965c.044.17.09.3.168.406.039.053.092.105.172.133.08.027.18.014.246-.024.131-.075.187-.19.254-.34.066-.15.13-.342.195-.59.516-1.976.516-5.124 0-7.1a3.92 3.92 0 00-.195-.59c-.067-.15-.123-.265-.254-.34a.319.319 0 00-.246-.024zm16 0a.355.355 0 00-.172.133c-.079.106-.124.236-.168.406-.179.682-.274 2.033-.274 3.965s.095 3.283.274 3.965c.044.17.09.3.168.406.039.053.092.105.172.133.08.027.18.014.246-.024.131-.075.187-.19.254-.34.066-.15.13-.342.195-.59.516-1.976.516-5.124 0-7.1a3.92 3.92 0 00-.195-.59c-.067-.15-.123-.265-.254-.34a.319.319 0 00-.246-.024zM1 43.976c.014.023.009.01.023.044.053.117.115.297.176.53.49 1.874.49 5.026 0 6.9a3.63 3.63 0 01-.176.53c-.014.033-.01.021-.023.043-.02-.047-.04-.074-.063-.16C.784 51.277.676 49.918.676 48s.108-3.277.261-3.863c.023-.086.042-.113.063-.16zm16 0c.014.023.009.01.023.044.053.117.115.297.176.53.49 1.874.49 5.026 0 6.9a3.63 3.63 0 01-.176.53c-.014.033-.01.021-.023.043-.02-.047-.04-.074-.063-.16-.153-.586-.261-1.945-.261-3.863s.108-3.277.262-3.863c.022-.086.041-.113.062-.16zm16 0c.014.023.009.01.023.044.053.117.115.297.176.53.49 1.874.49 5.026 0 6.9a3.63 3.63 0 01-.176.53c-.014.033-.01.021-.023.043-.02-.047-.04-.074-.063-.16-.153-.586-.261-1.945-.261-3.863s.108-3.277.261-3.863c.023-.086.042-.113.063-.16zm16 0c.014.023.009.01.023.044.053.117.115.297.176.53.49 1.874.49 5.026 0 6.9a3.63 3.63 0 01-.176.53c-.014.033-.01.021-.023.043-.02-.047-.04-.074-.063-.16-.153-.586-.261-1.945-.261-3.863s.108-3.277.261-3.863c.023-.086.042-.113.063-.16zM9.004 55.392a.318.318 0 00-.227.023c-.13.07-.185.182-.238.313-.212.523-.315 1.61-.336 3.27-.02 1.658.068 2.886.246 3.57.045.17.094.305.16.417.067.112.164.221.317.235.152.014.271-.079.355-.184.084-.105.158-.242.23-.422.582-1.437.602-4.133.083-6.125-.13-.498-.235-.802-.414-.988a.388.388 0 00-.176-.11zm16 0a.318.318 0 00-.227.023c-.13.07-.185.182-.238.313-.212.523-.315 1.61-.336 3.27-.02 1.658.068 2.886.246 3.57.045.17.094.305.16.417.067.112.164.221.317.235.152.014.271-.079.355-.184.084-.105.158-.242.23-.422.582-1.437.602-4.133.083-6.125-.13-.498-.235-.802-.414-.988a.388.388 0 00-.176-.11zm16 0a.318.318 0 00-.227.023c-.13.07-.185.182-.238.313-.212.523-.315 1.61-.336 3.27-.02 1.658.068 2.886.246 3.57.045.17.094.305.16.417.067.112.164.221.317.235.152.014.271-.079.355-.184.084-.105.158-.242.23-.422.582-1.437.602-4.133.083-6.125-.13-.498-.235-.802-.414-.988a.388.388 0 00-.176-.11zm16 0a.318.318 0 00-.227.023c-.13.07-.185.182-.238.313-.212.523-.315 1.61-.336 3.27-.02 1.658.068 2.886.246 3.57.045.17.094.305.16.417.067.112.164.221.317.235.152.014.271-.079.355-.184.084-.105.158-.242.23-.422.582-1.437.602-4.133.083-6.125-.13-.498-.235-.802-.414-.988a.388.388 0 00-.176-.11zm-48.082.464c.059.087.173.306.285.735.495 1.9.448 4.604-.066 5.875a1.364 1.364 0 01-.172.32c-.043.054-.045.032-.008.035.037.004.027.02-.008-.039a1.334 1.334 0 01-.117-.316c-.156-.599-.255-1.82-.234-3.461.02-1.641.159-2.76.308-3.129.007-.018.005-.006.012-.02zm16 0c.059.087.173.306.285.735.495 1.9.448 4.604-.066 5.875a1.364 1.364 0 01-.172.32c-.043.054-.045.032-.008.035.037.004.027.02-.008-.039a1.334 1.334 0 01-.117-.316c-.156-.599-.255-1.82-.234-3.461.02-1.641.159-2.76.308-3.129.007-.018.005-.006.012-.02zm16 0c.059.087.173.306.285.735.495 1.9.448 4.604-.066 5.875a1.364 1.364 0 01-.172.32c-.043.054-.045.032-.008.035.037.004.027.02-.008-.039a1.334 1.334 0 01-.117-.316c-.156-.599-.255-1.82-.234-3.461.02-1.641.159-2.76.308-3.129.007-.018.005-.006.012-.02zm16 0c.059.087.173.306.285.735.495 1.9.448 4.604-.066 5.875a1.364 1.364 0 01-.172.32c-.043.054-.045.032-.008.035.037.004.027.02-.008-.039a1.334 1.334 0 01-.117-.316c-.156-.599-.255-1.82-.234-3.461.02-1.641.159-2.76.308-3.129.007-.018.005-.006.012-.02z" style="line-height:normal;font-variant-ligatures:normal;font-variant-position:normal;font-variant-caps:normal;font-variant-numeric:normal;font-variant-alternates:normal;font-variant-east-asian:normal;font-feature-settings:normal;font-variation-settings:normal;text-indent:0;text-align:start;text-decoration-line:none;text-decoration-style:solid;text-decoration-color:#000;text-transform:none;text-orientation:mixed;white-space:normal;shape-padding:0;shape-margin:0;inline-size:0;isolation:auto;mix-blend-mode:normal;solid-color:#000;solid-opacity:1" overflow="visible"/></g></g></svg>