<svg xmlns="http://www.w3.org/2000/svg" width="64" height="64"><path style="isolation:auto;mix-blend-mode:normal;solid-color:#000;solid-opacity:1;marker:none" d="M9 1.06v1h7v-1H9zm32 0v1h7v-1h-7zm-14 1v1h7v-1h-7zm-27 1v1h3v-1H0zm61 1v1h3v-1h-3zm-44 1v1h7v-1h-7zm34 0v1h7v-1h-7zm-47 1v1h7v-1H4zm37 0v1h7v-1h-7zm-17 2v1h7v-1h-7zm-13 1v1h7v-1h-7zm25 0v1h7v-1h-7zm17 1v1h7v-1h-7zm-53 1v1h6v-1H0zm62 2v1h2v-1h-2zm-40 1v1h7v-1h-7zm16 0v1h7v-1h-7zm-29 1v1h7v-1H9zm41 1v1h7v-1h-7zm-50 2v1h7v-1H0zm61 0v1h3v-1h-3zm-43 1v1h7v-1h-7zm14 0v1h7v-1h-7zm12 0v1h7v-1h-7zm-35 3v1h7v-1H9zm14 0v1h7v-1h-7zm30 0v1h7v-1h-7zm-53 1v1h3v-1H0zm35 2v1h7v-1h-7zm11 1v1h7v-1h-7zm-32 1v1h7v-1h-7zm44 0v1h6v-1h-6zm-58 1v1h1v-1H0zm26 0v1h7v-1h-7zm-20 2v1h7v-1H6zm32 0v1h7v-1h-7zm13 1v1h7v-1h-7zm-51 2v1h4v-1H0zm18 0v1h7v-1h-7zm11 1v1h7v-1h-7zm-20 2v1h7v-1H9zm32 0v1h7v-1h-7zm17 0v1h6v-1h-6zm-41 3v1h7v-1h-7zm17 0v1h7v-1h-7zm-34 1v1h5v-1H0zm47 0v1h7v-1h-7zm11 1v1h6v-1h-6zm-32 1v1h7v-1h-7zm-15 1v1h7v-1h-7zm-9 2v1h7v-1H2zm47 0v1h7v-1h-7zm-32 1v1h7v-1h-7zm17 0v1h7v-1h-7zm-8 3v1h7v-1h-7zm17 0v1h7v-1h-7zm-43 1v1h2v-1H0zm58 0v1h6v-1h-6zm-53 1v1h7v-1H5zm15 2v1h7v-1h-7zm14 0v1h7v-1h-7zm-25 2v1h7v-1H9zm47 0v1h7v-1h-7zm-15 1v1h7v-1h-7zm-13 2v1h7v-1h-7zm-26 1v1h7v-1H2zm14 0v1h7v-1h-7zm33 0v1h7v-1h-7zm13 1v1h2v-1h-2zm-21 2v1h7v-1h-7zm-32.729.38v1h7v-1h-7zm45.541.56v1h7v-1h-7z" color="#000" overflow="visible" fill="#94c1e1" fill-rule="evenodd"/></svg>